<?xml version="1.0" encoding="UTF-8" standalone="no"?>
<svg
   width="1000"
   height="1000"
   viewBox="0 0 264.58333 264.58333"
   version="1.1"
   id="svg5"
   inkscape:version="1.2 (dc2aedaf03, 2022-05-15)"
   sodipodi:docname="E_U.svg"
   xmlns:inkscape="http://www.inkscape.org/namespaces/inkscape"
   xmlns:sodipodi="http://sodipodi.sourceforge.net/DTD/sodipodi-0.dtd"
   xmlns="http://www.w3.org/2000/svg"
   xmlns:svg="http://www.w3.org/2000/svg">
  <sodipodi:namedview
     id="namedview7"
     pagecolor="#ffffff"
     bordercolor="#000000"
     borderopacity="0.25"
     inkscape:showpageshadow="2"
     inkscape:pageopacity="0.0"
     inkscape:pagecheckerboard="0"
     inkscape:deskcolor="#d1d1d1"
     inkscape:document-units="px"
     showgrid="true"
     showguides="true"
     inkscape:zoom="0.64693625"
     inkscape:cx="1358.7119"
     inkscape:cy="947.54313"
     inkscape:window-width="3072"
     inkscape:window-height="1622"
     inkscape:window-x="-11"
     inkscape:window-y="-11"
     inkscape:window-maximized="1"
     inkscape:current-layer="layer1">
    <inkscape:grid
       type="xygrid"
       id="grid182"
       originx="0"
       originy="0" />
    <sodipodi:guide
       position="-99.999999,211.66666"
       orientation="0,1"
       id="guide184"
       inkscape:locked="false"
       inkscape:label=""
       inkscape:color="rgb(0,134,229)" />
    <sodipodi:guide
       position="-99.999999,52.916666"
       orientation="0,1"
       id="guide186"
       inkscape:locked="false"
       inkscape:label=""
       inkscape:color="rgb(0,134,229)" />
    <sodipodi:guide
       position="500,-835.41666"
       orientation="-1,0"
       id="guide188"
       inkscape:locked="false"
       inkscape:label=""
       inkscape:color="rgb(0,134,229)" />
    <sodipodi:guide
       position="0,264.58333"
       orientation="0,3779.5276"
       id="guide1770"
       inkscape:locked="false" />
    <sodipodi:guide
       position="999.99999,264.58333"
       orientation="3779.5276,0"
       id="guide1772"
       inkscape:locked="false" />
    <sodipodi:guide
       position="999.99999,-735.41666"
       orientation="0,-3779.5276"
       id="guide1774"
       inkscape:locked="false" />
    <sodipodi:guide
       position="0,-735.41666"
       orientation="-3779.5276,0"
       id="guide1776"
       inkscape:locked="false" />
    <sodipodi:guide
       position="-99.999999,-462.91666"
       orientation="0,1"
       id="guide31317"
       inkscape:locked="false"
       inkscape:label="Wheel Top"
       inkscape:color="rgb(0,134,229)" />
    <sodipodi:guide
       position="296.33333,-525.41666"
       orientation="0,1"
       id="guide11678"
       inkscape:locked="false"
       inkscape:label="Middle Universal Line"
       inkscape:color="rgb(0,134,229)" />
    <sodipodi:guide
       position="0,264.58333"
       orientation="0,1000"
       id="guide12937"
       inkscape:locked="false" />
    <sodipodi:guide
       position="264.58333,264.58333"
       orientation="1000,0"
       id="guide12939"
       inkscape:locked="false" />
    <sodipodi:guide
       position="264.58333,0"
       orientation="0,-1000"
       id="guide12941"
       inkscape:locked="false" />
    <sodipodi:guide
       position="0,0"
       orientation="-1000,0"
       id="guide12943"
       inkscape:locked="false" />
    <sodipodi:guide
       position="79.374999,80.697916"
       orientation="0,-1"
       id="guide12976"
       inkscape:locked="false" />
  </sodipodi:namedview>
  <defs
     id="defs2" />
  <g
     inkscape:label="Layer 1"
     inkscape:groupmode="layer"
     id="layer1">
    <path
       style="color:#000000;fill:#000000;stroke-width:3.4469;stroke-linecap:round"
       d="m 174.55059,57.642417 c -22.36218,0 -40.71657,18.354321 -40.71657,40.716566 0,22.362237 18.35439,40.716557 40.71657,40.716557 22.36231,0 40.7166,-18.35436 40.7166,-40.716557 0,-22.36221 -18.35429,-40.716566 -40.7166,-40.716566 z m 0,6.89381 c 18.59388,0 33.82279,15.228944 33.82279,33.822756 0,18.593837 -15.22891,33.822747 -33.82279,33.822747 -18.59375,0 -33.82276,-15.22894 -33.82276,-33.822747 0,-18.593812 15.22901,-33.822756 33.82276,-33.822756 z m 0,10.434954 c -12.93675,0 -23.38777,10.450947 -23.38777,23.387802 0,12.936847 10.45102,23.387757 23.38777,23.387757 12.93689,0 23.38108,-10.45091 23.38108,-23.387757 0,-12.936855 -10.44419,-23.387802 -23.38108,-23.387802 z m 0,6.89381 c 9.28624,0 16.48727,7.207788 16.48727,16.493992 0,9.286197 -7.20103,16.493947 -16.48727,16.493947 -9.28603,0 -16.49396,-7.20778 -16.49396,-16.493947 0,-9.286169 7.20793,-16.493992 16.49396,-16.493992 z"
       id="path2031-7-2-6-5-0-3-0"
       sodipodi:nodetypes="ssssssssssssssssssss" />
    <path
       id="path12783"
       style="color:#000000;fill:#000000;stroke-width:6.89381;stroke-linecap:round;stroke-linejoin:round"
       d="m 174.55059,152.86302 c -1.9036,5e-5 -3.44677,1.54321 -3.44682,3.44681 v 24.12876 H 88.378067 c -1.903606,5e-5 -3.446771,1.54322 -3.446818,3.44682 4.7e-5,1.90361 1.543212,3.44678 3.446818,3.44682 h 82.725703 v 20.68142 c 4e-5,1.90361 1.54321,3.44678 3.44682,3.44682 1.9036,-4e-5 3.44677,-1.54321 3.44682,-3.44682 v -24.12824 -27.57558 c -5e-5,-1.9036 -1.54322,-3.44676 -3.44682,-3.44681 z"
       sodipodi:nodetypes="ccccccccccccc" />
  </g>
</svg>
