<?xml version="1.0" encoding="UTF-8" standalone="no"?>
<svg
   width="1000"
   height="1000"
   viewBox="0 0 264.58333 264.58333"
   version="1.1"
   id="svg5"
   inkscape:version="1.2 (dc2aedaf03, 2022-05-15)"
   sodipodi:docname="four_T.svg"
   xmlns:inkscape="http://www.inkscape.org/namespaces/inkscape"
   xmlns:sodipodi="http://sodipodi.sourceforge.net/DTD/sodipodi-0.dtd"
   xmlns="http://www.w3.org/2000/svg"
   xmlns:svg="http://www.w3.org/2000/svg">
  <sodipodi:namedview
     id="namedview7"
     pagecolor="#ffffff"
     bordercolor="#000000"
     borderopacity="0.25"
     inkscape:showpageshadow="2"
     inkscape:pageopacity="0.0"
     inkscape:pagecheckerboard="0"
     inkscape:deskcolor="#d1d1d1"
     inkscape:document-units="px"
     showgrid="true"
     showguides="true"
     inkscape:zoom="0.914906"
     inkscape:cx="948.73134"
     inkscape:cy="530.1091"
     inkscape:window-width="3072"
     inkscape:window-height="1622"
     inkscape:window-x="-11"
     inkscape:window-y="-11"
     inkscape:window-maximized="1"
     inkscape:current-layer="g1">
    <inkscape:grid
       type="xygrid"
       id="grid182"
       originx="0"
       originy="0" />
    <sodipodi:guide
       position="0,264.58333"
       orientation="0,1000"
       id="guide438"
       inkscape:locked="false" />
    <sodipodi:guide
       position="264.58333,264.58333"
       orientation="1000,0"
       id="guide440"
       inkscape:locked="false" />
    <sodipodi:guide
       position="264.58333,0"
       orientation="0,-1000"
       id="guide442"
       inkscape:locked="false" />
    <sodipodi:guide
       position="0,0"
       orientation="-1000,0"
       id="guide444"
       inkscape:locked="false" />
    <sodipodi:guide
       position="87.312499,52.916666"
       orientation="0,1"
       id="guide446"
       inkscape:locked="false"
       inkscape:label=""
       inkscape:color="rgb(0,134,229)" />
    <sodipodi:guide
       position="89.958332,211.66666"
       orientation="0,1"
       id="guide448"
       inkscape:locked="false"
       inkscape:label=""
       inkscape:color="rgb(0,134,229)" />
    <sodipodi:guide
       position="132.29166,132.29166"
       orientation="-1,0"
       id="guide450"
       inkscape:locked="false"
       inkscape:label=""
       inkscape:color="rgb(0,134,229)" />
    <sodipodi:guide
       position="205.05208,88.635416"
       orientation="0,-1"
       id="guide1453"
       inkscape:locked="false" />
    <sodipodi:guide
       position="183.88541,33.072916"
       orientation="0,-1"
       id="guide1455"
       inkscape:locked="false" />
  </sodipodi:namedview>
  <defs
     id="defs2" />
  <g
     inkscape:label="Layer 1"
     inkscape:groupmode="layer"
     id="layer1"
     transform="translate(468.37206,-40.325235)">
    <g
       id="g1"
       transform="matrix(1.4263915,0,0,1.5162455,150.03852,-660.82936)">
      <path
         id="path8001-0-3-4-9-0"
         style="color:#000000;fill:#000000;stroke-linecap:round;stroke-linejoin:round;-inkscape-stroke:none"
         d="M -449.27445 560.00001 C -449.82671 560.00007 -450.27466 560.44773 -450.27472 560.99997 L -450.27472 563.99986 C -450.27466 564.55212 -449.82671 565.0001 -449.27445 565.00016 L -447.27462 565.00016 A 1 1 0 0 0 -446.2747 566.00012 L -442.27468 566.00012 A 1 1 0 0 0 -441.27441 565.00016 L -403.7845 565.00016 L -396.08298 575.58802 C -395.89488 575.84682 -395.59465 575.99994 -395.27472 576.00007 L -197.78943 576.027 L -192.22469 590.33592 C -192.07274 590.71609 -191.52115 591.03433 -191.11174 591.03391 L -185.17602 591.03391 C -184.74545 591.03414 -184.38483 590.74435 -184.24856 590.33592 L -179.42579 575.678 C -179.42579 575.678 -179.31949 575.3588 -179.2403 574.98 L -179.2403 572.01352 C -179.2403 571.49002 -179.61549 570.96659 -180.16775 570.96653 L -384.96401 570.99993 L -400.70831 560.17588 C -400.87502 560.06137 -401.07234 559.99999 -401.27457 560.00001 L -449.27445 560.00001 z M -448.27453 561.99994 L -401.58505 561.99994 L -385.8411 572.82433 C -385.67441 572.93884 -385.47672 572.99987 -385.27449 572.99985 L -181.2807 572.88602 L -181.2807 574.98 L -185.91799 588.93992 L -190.55527 588.93992 L -196.3055 574.63101 C -196.45719 574.2515 -196.82426 574.10789 -197.23296 574.10751 L -394.76498 574.00015 L -402.46613 563.41195 C -402.65423 563.15315 -402.95447 563.00003 -403.2744 562.9999 L -448.27453 562.9999 L -448.27453 561.99994 z " />
      <path
         style="color:#000000;fill:#000000;stroke-linecap:round"
         d="m -284.22842,578.46998 c -6.48761,0 -11.87145,5.20381 -11.87145,11.69144 0,6.48763 5.38384,11.86593 11.87145,11.86593 6.48766,0 11.87145,-5.37831 11.87145,-11.86593 0,-6.48762 -5.38379,-11.69144 -11.87145,-11.69144 z m 0,1.91949 c 5.39439,0 10.01654,4.3776 10.01654,9.77195 0,5.39436 -4.62215,9.94644 -10.01654,9.94644 -5.39433,0 -9.83104,-4.55209 -9.83104,-9.94644 0,-5.39435 4.43671,-9.77195 9.83104,-9.77195 z m 0,3.14098 c -3.75316,0 -6.86318,2.87779 -6.86318,6.63097 0,3.75318 3.11003,6.80546 6.86318,6.80546 3.75317,0 6.86318,-3.05228 6.86318,-6.80546 0,-3.75318 -3.11,-6.63097 -6.86318,-6.63097 z m 0,1.91949 c 2.69408,0 4.82274,2.01741 4.82274,4.71148 0,2.69407 -2.08737,4.83858 -4.78144,4.83858 -2.69402,0 -4.86411,-2.14452 -4.86411,-4.83858 0,-2.69406 2.12879,-4.71148 4.82281,-4.71148 z"
         id="path2031-7-1-4-1-7-7-5-9-6-0-5-8-1"
         sodipodi:nodetypes="ssssssssssssssssssss" />
      <path
         style="color:#000000;fill:#000000;stroke-linecap:round"
         d="m -259.18708,578.46998 c -6.48761,0 -11.87145,5.20381 -11.87145,11.69144 0,6.48763 5.38384,11.86593 11.87145,11.86593 6.48766,0 11.87145,-5.37831 11.87145,-11.86593 0,-6.48762 -5.38379,-11.69144 -11.87145,-11.69144 z m 0,1.91949 c 5.39439,0 10.01654,4.3776 10.01654,9.77195 0,5.39436 -4.62215,9.94644 -10.01654,9.94644 -5.39433,0 -9.83104,-4.55209 -9.83104,-9.94644 0,-5.39435 4.43671,-9.77195 9.83104,-9.77195 z m 0,3.14098 c -3.75316,0 -6.86318,2.87779 -6.86318,6.63097 0,3.75318 3.11003,6.80546 6.86318,6.80546 3.75317,0 6.86318,-3.05228 6.86318,-6.80546 0,-3.75318 -3.11,-6.63097 -6.86318,-6.63097 z m 0,1.91949 c 2.69408,0 4.82274,2.01741 4.82274,4.71148 0,2.69407 -2.08737,4.83858 -4.78144,4.83858 -2.69402,0 -4.86411,-2.14452 -4.86411,-4.83858 0,-2.69406 2.12879,-4.71148 4.82281,-4.71148 z"
         id="path2031-7-1-4-1-7-7-5-9-6-0-5-8-1-7"
         sodipodi:nodetypes="ssssssssssssssssssss" />
      <path
         style="color:#000000;fill:#000000;stroke-linecap:round"
         d="m -234.18705,578.46998 c -6.48761,0 -11.87145,5.20381 -11.87145,11.69144 0,6.48763 5.38384,11.86593 11.87145,11.86593 6.48766,0 11.87145,-5.37831 11.87145,-11.86593 0,-6.48762 -5.38379,-11.69144 -11.87145,-11.69144 z m 0,1.91949 c 5.39439,0 10.01654,4.3776 10.01654,9.77195 0,5.39436 -4.62215,9.94644 -10.01654,9.94644 -5.39433,0 -9.83104,-4.55209 -9.83104,-9.94644 0,-5.39435 4.43671,-9.77195 9.83104,-9.77195 z m 0,3.14098 c -3.75316,0 -6.86318,2.87779 -6.86318,6.63097 0,3.75318 3.11003,6.80546 6.86318,6.80546 3.75317,0 6.86318,-3.05228 6.86318,-6.80546 0,-3.75318 -3.11,-6.63097 -6.86318,-6.63097 z m 0,1.91949 c 2.69408,0 4.82274,2.01741 4.82274,4.71148 0,2.69407 -2.08737,4.83858 -4.78144,4.83858 -2.69402,0 -4.86411,-2.14452 -4.86411,-4.83858 0,-2.69406 2.12879,-4.71148 4.82281,-4.71148 z"
         id="path2031-7-1-4-1-7-7-5-9-6-0-5-8-1-4"
         sodipodi:nodetypes="ssssssssssssssssssss" />
      <path
         style="color:#000000;fill:#000000;stroke-linecap:round"
         d="m -209.28986,578.46998 c -6.48761,0 -11.87145,5.20381 -11.87145,11.69144 0,6.48763 5.38384,11.86593 11.87145,11.86593 6.48766,0 11.87145,-5.37831 11.87145,-11.86593 0,-6.48762 -5.38379,-11.69144 -11.87145,-11.69144 z m 0,1.91949 c 5.39439,0 10.01654,4.3776 10.01654,9.77195 0,5.39436 -4.62215,9.94644 -10.01654,9.94644 -5.39433,0 -9.83104,-4.55209 -9.83104,-9.94644 0,-5.39435 4.43671,-9.77195 9.83104,-9.77195 z m 0,3.14098 c -3.75316,0 -6.86318,2.87779 -6.86318,6.63097 0,3.75318 3.11003,6.80546 6.86318,6.80546 3.75317,0 6.86318,-3.05228 6.86318,-6.80546 0,-3.75318 -3.11,-6.63097 -6.86318,-6.63097 z m 0,1.91949 c 2.69408,0 4.82274,2.01741 4.82274,4.71148 0,2.69407 -2.08737,4.83858 -4.78144,4.83858 -2.69402,0 -4.86411,-2.14452 -4.86411,-4.83858 0,-2.69406 2.12879,-4.71148 4.82281,-4.71148 z"
         id="path2031-7-1-4-1-7-7-5-9-6-0-5-8-1-1"
         sodipodi:nodetypes="ssssssssssssssssssss" />
      <path
         id="path18873"
         style="color:#000000;-inkscape-font-specification:'BC Sans, Normal';fill:#000000;stroke-width:0.407258;stroke-linecap:round;stroke-linejoin:round"
         d="m -261.66695,611.31806 c -0.49091,0 -0.93065,0.0793 -1.31257,0.24402 -0.38107,0.16437 -0.68931,0.40617 -0.91188,0.72083 -0.22521,0.31844 -0.33801,0.69961 -0.33801,1.12096 0,0.61 0.1755,1.12285 0.53329,1.49619 0.34802,0.36315 0.85184,0.65433 1.50567,0.88885 h -0.004 c 0.43601,0.16351 0.77791,0.3123 1.01984,0.44307 0.23531,0.1272 0.3856,0.26153 0.46264,0.38478 0.0799,0.12776 0.12318,0.28974 0.12318,0.50203 0,0.31299 -0.10378,0.52706 -0.342,0.70719 -0.23256,0.17583 -0.60095,0.27913 -1.11911,0.27913 -0.37763,0 -0.74304,-0.0429 -1.09954,-0.12882 -0.35709,-0.0876 -0.65345,-0.18543 -0.88652,-0.28902 -0.13466,-0.0607 -0.28709,0.0377 -0.28729,0.18541 v 0.89055 c 3e-4,0.0788 0.046,0.15034 0.11738,0.18371 0.25666,0.12078 0.56704,0.21104 0.93144,0.27538 0.36519,0.0645 0.75965,0.0958 1.18359,0.0958 0.8376,0 1.52699,-0.19059 2.04693,-0.58996 0.52245,-0.4013 0.79486,-0.98875 0.79486,-1.69319 0,-0.41246 -0.0859,-0.77071 -0.26737,-1.06437 l -0.002,-0.002 c -0.17058,-0.28587 -0.42442,-0.52655 -0.74813,-0.71878 -0.31241,-0.19617 -0.69012,-0.37483 -1.13468,-0.53713 -0.39347,-0.14246 -0.70271,-0.27586 -0.92202,-0.39842 -0.21247,-0.12568 -0.3536,-0.25932 -0.4333,-0.38683 -0.0792,-0.12671 -0.12318,-0.29156 -0.12318,-0.51157 0,-0.27501 0.0862,-0.46172 0.27751,-0.61926 6.7e-4,-6.6e-4 0.001,-0.001 0.002,-0.002 0.18422,-0.15712 0.47958,-0.25186 0.91224,-0.25186 0.30102,0 0.59533,0.0355 0.88253,0.10736 0.29392,0.0735 0.56304,0.16416 0.80681,0.26958 0.10734,0.0459 0.23124,-0.008 0.27136,-0.11724 l 0.2891,-0.79683 c 0.0366,-0.10081 -0.0112,-0.21277 -0.10941,-0.25596 -0.29611,-0.12999 -0.61738,-0.23409 -0.96658,-0.31253 -0.35468,-0.0797 -0.7396,-0.11894 -1.15244,-0.11894 z"
         sodipodi:nodetypes="cssssccssssscccccsssscccccssccssccccscc" />
      <path
         id="path18879"
         style="color:#000000;-inkscape-font-specification:'BC Sans, Normal';fill:#000000;stroke-width:0.407258;stroke-linecap:round;stroke-linejoin:round"
         d="m -257.96364,611.42167 c -0.11211,2.2e-4 -0.20296,0.091 -0.20325,0.20312 v 7.38656 c 2.9e-4,0.11212 0.0911,0.20292 0.20325,0.20313 h 0.93144 c 0.11211,-2.2e-4 0.20296,-0.091 0.20324,-0.20313 v -2.67167 h 0.64451 c 0.57451,0 1.06227,-0.0677 1.46473,-0.20927 0.39845,-0.13798 0.72773,-0.32264 0.98072,-0.5603 0.001,-6.5e-4 0.003,-0.001 0.004,-0.002 0.24769,-0.24019 0.42762,-0.51753 0.5351,-0.82444 0.11066,-0.30373 0.16774,-0.61984 0.16774,-0.94509 0,-0.73306 -0.24674,-1.33889 -0.73436,-1.75794 -0.49701,-0.42712 -1.25006,-0.61892 -2.2422,-0.61892 z m 1.13468,1.20513 h 0.73835 c 0.6237,0 1.05486,0.11686 1.30278,0.30844 6.6e-4,6.8e-4 0.001,0.001 0.002,0.002 0.25746,0.19452 0.38475,0.47059 0.38475,0.90214 0,0.50184 -0.14321,0.80195 -0.42568,0.98838 -6.7e-4,6.7e-4 -0.001,0.001 -0.002,0.002 -0.28308,0.19064 -0.77037,0.30674 -1.45893,0.30674 h -0.5409 z"
         sodipodi:nodetypes="cccccccsccccsscccsccsccscc" />
      <path
         id="path18885"
         style="color:#000000;-inkscape-font-specification:'BC Sans, Normal';fill:#000000;stroke-width:0.407258;stroke-linecap:round;stroke-linejoin:round"
         d="m -251.70584,611.42167 c -0.11211,2.2e-4 -0.20296,0.091 -0.20325,0.20312 v 7.38656 c 2.9e-4,0.11212 0.0911,0.20292 0.20325,0.20313 h 0.93144 c 0.11211,-2.2e-4 0.20296,-0.091 0.20324,-0.20313 v -2.84754 h 1.14845 l 1.73029,2.95115 c 0.0369,0.062 0.1039,0.0999 0.17607,0.0995 h 1.08578 c 0.15798,-5.5e-4 0.2552,-0.17297 0.1739,-0.30844 l -1.90817,-3.11713 c 0.117,-0.0508 0.23626,-0.0935 0.34743,-0.16018 0.19876,-0.11467 0.37529,-0.26053 0.52749,-0.43557 0.15348,-0.17648 0.275,-0.3837 0.36519,-0.61552 0.10165,-0.25016 0.15035,-0.53431 0.15035,-0.85136 0,-0.75182 -0.24077,-1.35512 -0.72856,-1.74226 -0.48952,-0.38851 -1.21453,-0.56235 -2.16395,-0.56235 z m 1.13468,1.21467 h 0.85174 c 0.58372,0 0.99143,0.10385 1.22634,0.27164 6.6e-4,6.8e-4 0.001,0.001 0.002,0.002 0.2266,0.15646 0.34743,0.41515 0.34743,0.85716 0,0.42073 -0.11727,0.70153 -0.34381,0.90044 -0.21177,0.18462 -0.59897,0.30299 -1.17961,0.30299 h -0.90427 z"
         sodipodi:nodetypes="ccccccccccccccscsssccsccscscc" />
      <path
         id="path18891"
         style="color:#000000;-inkscape-font-specification:'BC Sans, Normal';fill:#000000;stroke-width:0.407258;stroke-linecap:round;stroke-linejoin:round"
         d="m -245.27053,611.42167 c -0.11281,-7.7e-4 -0.20476,0.0903 -0.20505,0.20312 v 7.38656 c 2.9e-4,0.11282 0.0922,0.20391 0.20505,0.20313 h 4.12719 c 0.11197,-4.2e-4 0.2026,-0.0912 0.20288,-0.20313 v -0.81626 c 8.5e-4,-0.11276 -0.0901,-0.20474 -0.20288,-0.20517 h -2.99431 v -2.23032 h 2.80664 c 0.11282,7.9e-4 0.20478,-0.0903 0.20506,-0.20313 v -0.80671 c -2.8e-4,-0.11282 -0.0922,-0.20391 -0.20506,-0.20313 h -2.80664 v -1.9004 h 2.99431 c 0.11197,-4.2e-4 0.2026,-0.0912 0.20288,-0.20313 v -0.81831 c -2.9e-4,-0.11196 -0.0909,-0.20269 -0.20288,-0.20312 z"
         sodipodi:nodetypes="ccccccccccccccccccccc" />
      <path
         id="path18897"
         style="color:#000000;-inkscape-font-specification:'BC Sans, Normal';fill:#000000;stroke-width:0.407258;stroke-linecap:round;stroke-linejoin:round"
         d="m -237.63748,611.39031 c -0.0841,3e-4 -0.15942,0.0523 -0.18948,0.13088 l -2.88671,7.41586 c -0.0521,0.13409 0.0474,0.27848 0.19129,0.27743 h 0.94159 c 0.0841,-3e-4 0.15941,-0.0523 0.18947,-0.13088 l 0.82783,-2.15431 h 2.64869 l 0.83978,2.15636 c 0.0307,0.0778 0.10586,0.12886 0.18948,0.12883 h 0.96296 c 0.14308,-2.4e-4 0.24131,-0.14407 0.18947,-0.27743 l -2.87692,-7.41586 c -0.0301,-0.0786 -0.10535,-0.13058 -0.18948,-0.13088 z m 0.41409,1.88098 c 0.0256,0.0844 0.0508,0.16791 0.0721,0.24777 0.002,0.005 0.004,0.0106 0.006,0.0157 0.0348,0.0974 0.0579,0.16406 0.0743,0.20517 l 0.72457,1.95494 h -1.75383 l 0.73616,-1.96073 c 6.7e-4,-6.6e-4 0.001,-0.001 0.002,-0.002 0.0413,-0.1171 0.0866,-0.27503 0.13839,-0.46078 z"
         sodipodi:nodetypes="ccccccccccccccccccccccccc" />
      <path
         id="path18903"
         style="color:#000000;-inkscape-font-specification:'BC Sans, Normal';fill:#000000;stroke-width:0.407258;stroke-linecap:round;stroke-linejoin:round"
         d="m -232.9089,611.42167 c -0.11281,-7.8e-4 -0.20477,0.0903 -0.20506,0.20312 v 7.38656 c 2.9e-4,0.11283 0.0922,0.20392 0.20506,0.20313 h 2.05852 c 1.24882,0 2.2522,-0.32696 2.97257,-0.99587 0.73151,-0.67977 1.08795,-1.68762 1.08795,-2.97296 0,-0.81176 -0.15201,-1.50913 -0.4688,-2.08377 -0.3152,-0.57177 -0.7733,-1.01165 -1.3593,-1.30465 -0.57786,-0.29259 -1.25251,-0.43556 -2.01577,-0.43556 z m 1.13468,1.20513 h 1.00572 c 0.85434,0 1.48035,0.21576 1.91795,0.6346 6.6e-4,6.8e-4 0.001,0.001 0.002,0.002 0.43591,0.40522 0.66987,1.0611 0.66987,2.01355 0,0.9446 -0.23794,1.6164 -0.68943,2.05855 -0.45149,0.44214 -1.14072,0.67584 -2.10743,0.67584 h -0.79885 z"
         sodipodi:nodetypes="ccccscsscsccsscssscc" />
      <path
         id="path18909"
         style="color:#000000;fill:#000000;stroke-width:2;stroke-linecap:round;stroke-linejoin:round;-inkscape-stroke:none"
         d="m -284.09075,606.11478 c -0.55237,5e-5 -1.00009,0.44794 -0.99992,1.00031 v 6.99972 h -50.4551 c -0.55224,5e-5 -0.9999,0.44773 -0.99992,0.99996 -1.7e-4,0.55238 0.44755,1.00027 0.99992,1.00031 h 50.4551 v 5.99976 c 2e-5,0.55224 0.44768,0.99992 0.99992,0.99996 0.55224,-5e-5 0.99989,-0.44772 0.99991,-0.99996 v -5.99976 h 14.00025 c 0.55238,-4e-5 1.00009,-0.44793 0.99992,-1.00031 -2e-5,-0.55223 -0.44768,-0.99991 -0.99992,-0.99996 h -14.00025 v -6.99972 c 1.7e-4,-0.55237 -0.44754,-1.00026 -0.99991,-1.00031 z"
         sodipodi:nodetypes="ccccccccccccccccc" />
      <path
         id="path18915"
         style="color:#000000;fill:#000000;stroke-width:2;stroke-linecap:round;stroke-linejoin:round;-inkscape-stroke:none"
         d="m -209.09065,606.11478 c -0.55237,5e-5 -1.00008,0.44794 -0.99991,1.00031 v 6.99972 h -12.99998 c -0.55237,-1.4e-4 -1.00025,0.44759 -1.00027,0.99996 -1.7e-4,0.55252 0.44776,1.00046 1.00027,1.00031 h 12.99998 v 5.99976 c 2e-5,0.55224 0.44768,0.99991 0.99991,0.99996 0.55224,-4e-5 0.9999,-0.44772 0.99992,-0.99996 v -14.99975 c 1.7e-4,-0.55237 -0.44754,-1.00026 -0.99992,-1.00031 z"
         sodipodi:nodetypes="cccccccccccc" />
      <path
         id="path18933"
         style="color:#000000;-inkscape-font-specification:'BC Sans, Normal';fill:#000000;stroke-width:0.413272;stroke-linecap:round;stroke-linejoin:round"
         d="m -381.54365,611.05426 c -0.49816,0 -0.94456,0.081 -1.33214,0.24812 -0.38667,0.16681 -0.70014,0.41105 -0.926,0.73037 -0.22856,0.32314 -0.34164,0.71113 -0.34164,1.13868 0,0.61901 0.176,1.1388 0.53908,1.51766 0.35229,0.36763 0.86412,0.66276 1.52524,0.90044 0.44245,0.16591 0.78989,0.31856 1.03541,0.45125 0.23879,0.12909 0.39063,0.26345 0.46881,0.38853 0.081,0.12969 0.12498,0.29447 0.12498,0.50986 0,0.31762 -0.10606,0.53398 -0.34779,0.71675 -0.23599,0.17843 -0.60886,0.28322 -1.13469,0.28322 -0.38319,0 -0.75551,-0.0437 -1.11729,-0.13088 -0.36236,-0.0889 -0.66195,-0.18594 -0.89848,-0.29106 -0.1362,-0.0608 -0.29001,0.0383 -0.29091,0.18745 v 0.90453 c 7.1e-4,0.0796 0.0471,0.15173 0.11919,0.18541 0.26043,0.12252 0.57361,0.21419 0.9434,0.27947 0.37056,0.0654 0.77075,0.0975 1.20098,0.0975 0.84997,0 1.55047,-0.19423 2.07808,-0.5995 0.53017,-0.40723 0.80682,-1.00188 0.80682,-1.71671 0,-0.41858 -0.0875,-0.7841 -0.27172,-1.08209 l -0.002,-0.002 c -0.17401,-0.29165 -0.43268,-0.53476 -0.7637,-0.73037 -0.31614,-0.19792 -0.69769,-0.37732 -1.14664,-0.54122 v -3.4e-4 -3.4e-4 -3.5e-4 -3.4e-4 -3.4e-4 -3.4e-4 c -0.39929,-0.14457 -0.71288,-0.27984 -0.93543,-0.40421 -0.21565,-0.12755 -0.35859,-0.26322 -0.43946,-0.39262 -0.0803,-0.12858 -0.1268,-0.29619 -0.1268,-0.51941 0,-0.27908 0.087,-0.46722 0.28114,-0.6271 0.001,-0.001 0.003,-0.003 0.004,-0.004 0.18694,-0.15945 0.48659,-0.25391 0.92565,-0.25391 0.30545,0 0.6034,0.0365 0.89485,0.1094 0.29827,0.0746 0.57067,0.16432 0.81805,0.27129 0.10901,0.0469 0.23498,-0.007 0.2757,-0.11894 l 0.2949,-0.80672 c 0.0371,-0.10244 -0.0117,-0.21608 -0.11158,-0.25971 -0.30049,-0.13192 -0.62779,-0.23875 -0.98217,-0.31832 -0.3599,-0.0808 -0.74906,-0.11929 -1.16801,-0.11929 z"
         sodipodi:nodetypes="ccssscscssscccccssssccccccccccccsccssccccscc" />
      <path
         id="path18939"
         style="color:#000000;-inkscape-font-specification:'BC Sans, Normal';fill:#000000;stroke-width:0.413272;stroke-linecap:round;stroke-linejoin:round"
         d="m -377.786,611.15787 c -0.11443,-1.1e-4 -0.20718,0.0928 -0.20687,0.20722 v 7.49596 c 8.2e-4,0.11364 0.0932,0.20529 0.20687,0.20517 h 0.94339 c 0.11364,1.2e-4 0.20605,-0.0915 0.20687,-0.20517 v -2.71291 h 0.65429 c 0.58225,0 1.07656,-0.0676 1.48466,-0.21097 0.40561,-0.14013 0.74041,-0.32675 0.99774,-0.56849 6.7e-4,-6.6e-4 0.001,-0.001 0.002,-0.002 0.25094,-0.24334 0.43577,-0.52313 0.54488,-0.83398 v -0.002 c 0.1127,-0.30875 0.16992,-0.63036 0.16992,-0.96111 0,-0.74388 -0.24932,-1.35792 -0.74414,-1.78316 -0.50436,-0.43342 -1.26838,-0.62881 -2.27517,-0.62881 z m 1.15026,1.22286 h 0.7503 c 0.6329,0 1.07042,0.11779 1.32199,0.31219 0,6.7e-4 0,0.001 0,0.002 0.26127,0.19741 0.39091,0.47817 0.39091,0.91612 0,0.50925 -0.14522,0.81488 -0.43185,1.00405 -6.7e-4,6.7e-4 -0.001,0.001 -0.002,0.002 -0.28728,0.19346 -0.78194,0.31082 -1.48067,0.31082 h -0.54887 z"
         sodipodi:nodetypes="cccccccscscccsscccsccsccscc" />
      <path
         id="path18945"
         style="color:#000000;-inkscape-font-specification:'BC Sans, Normal';fill:#000000;stroke-width:0.413272;stroke-linecap:round;stroke-linejoin:round"
         d="m -370.04971,611.12652 c -0.0858,-1.6e-4 -0.16283,0.0527 -0.19346,0.13292 l -2.92765,7.52527 c -0.0524,0.13494 0.0465,0.28058 0.19129,0.28151 h 0.95535 c 0.0852,3.5e-4 0.16186,-0.0516 0.1931,-0.13087 l 0.84196,-2.18772 h 2.68745 l 0.85174,2.18772 c 0.031,0.0786 0.10676,0.13048 0.19129,0.13087 h 0.97673 c 0.14553,3.3e-4 0.24581,-0.14586 0.19309,-0.28151 l -2.91786,-7.52527 c -0.0306,-0.0802 -0.10763,-0.13308 -0.19346,-0.13292 z m 0.42026,1.91097 c 0.0257,0.085 0.0506,0.16918 0.0721,0.24948 0.002,0.005 0.004,0.0103 0.006,0.0153 0.0353,0.0988 0.0597,0.16565 0.0764,0.20722 l 0.73436,1.98424 h -1.77557 l 0.74413,-1.98833 c 6.8e-4,-0.001 0.001,-0.003 0.002,-0.004 0.0418,-0.1184 0.0882,-0.27663 0.14057,-0.46419 z"
         sodipodi:nodetypes="ccccccccccccccccccccccccc" />
      <path
         id="path18951"
         style="color:#000000;-inkscape-font-specification:'BC Sans, Normal';fill:#000000;stroke-width:0.413272;stroke-linecap:round;stroke-linejoin:round"
         d="m -362.24096,611.05426 c -0.79921,0 -1.49428,0.1718 -2.07047,0.5235 -0.57112,0.34182 -1.01087,0.82638 -1.30641,1.43962 0,6.7e-4 0,0.001 0,0.002 -0.28803,0.60562 -0.43004,1.30311 -0.43004,2.08377 0,0.80593 0.12911,1.51711 0.39453,2.12909 6.6e-4,6.8e-4 0.001,0.001 0.002,0.002 0.27386,0.61433 0.68841,1.09902 1.23431,1.43553 0.54996,0.33902 1.22853,0.50169 2.01976,0.50169 0.42106,0 0.78435,-0.0244 1.09375,-0.076 0.31398,-0.0511 0.61724,-0.13048 0.91006,-0.24027 0.0815,-0.0303 0.13542,-0.10831 0.13477,-0.19529 v -0.81831 c -5e-4,-0.1379 -0.13336,-0.23663 -0.26555,-0.19733 -0.28055,0.0821 -0.56432,0.15041 -0.85174,0.20517 -0.28029,0.0534 -0.57478,0.0801 -0.88471,0.0801 -0.81657,0 -1.38723,-0.2431 -1.77919,-0.72867 v -0.002 c -0.39111,-0.50085 -0.59778,-1.18744 -0.59778,-2.08581 0,-0.90305 0.22189,-1.58452 0.64451,-2.07831 0.0914,-0.091 0.47151,-0.41932 0.95499,-0.63086 0.48941,-0.21414 1.06194,-0.31353 1.60965,-0.008 0.0136,0.007 0.0279,0.0134 0.0428,0.0177 0.27899,0.0817 0.52945,0.17312 0.74993,0.27333 0.10256,0.0464 0.22335,0.002 0.27172,-0.0995 l 0.37895,-0.79888 c 0.0471,-0.10102 0.006,-0.2212 -0.0938,-0.27163 -0.62099,-0.3105 -1.34576,-0.46284 -2.16214,-0.46284 z"
         sodipodi:nodetypes="ccccsccsscccccssccscscccccccc" />
      <path
         id="path18957"
         style="color:#000000;-inkscape-font-specification:'BC Sans, Normal';fill:#000000;stroke-width:0.413272;stroke-linecap:round;stroke-linejoin:round"
         d="m -359.4267,611.15787 c -0.11443,-1.1e-4 -0.20718,0.0928 -0.20687,0.20722 v 0.54667 c -1.1e-4,0.0955 0.0652,0.1786 0.15796,0.20109 l 0.72276,0.17211 v 5.66406 l -0.72059,0.16393 c -0.0936,0.0216 -0.16001,0.10498 -0.16013,0.20109 v 0.54701 c 8.2e-4,0.11364 0.0932,0.20529 0.20687,0.20517 h 2.70701 c 0.11378,3.2e-4 0.20641,-0.0914 0.20723,-0.20517 v -0.54701 c -1.2e-4,-0.0961 -0.0665,-0.17945 -0.16013,-0.20109 l -0.72095,-0.16393 v -5.66406 l 0.72276,-0.17211 c 0.0929,-0.0223 0.1584,-0.10551 0.15832,-0.20109 v -0.54667 c 3.2e-4,-0.11457 -0.0927,-0.20753 -0.20723,-0.20722 z"
         sodipodi:nodetypes="ccccccccccccccccccccc" />
      <path
         id="path18963"
         style="color:#000000;-inkscape-font-specification:'BC Sans, Normal';fill:#000000;stroke-width:0.413272;stroke-linecap:round;stroke-linejoin:round"
         d="m -355.27054,611.15787 c -0.11443,-1.1e-4 -0.20717,0.0928 -0.20686,0.20722 v 7.49596 c 8.2e-4,0.11364 0.0932,0.20529 0.20686,0.20517 h 0.8713 c 0.11364,1.2e-4 0.20605,-0.0915 0.20687,-0.20517 v -4.18934 c 0,-0.38865 -0.01,-0.76685 -0.0312,-1.13492 -0.005,-0.0801 -0.007,-0.12677 -0.0116,-0.20109 l 3.63085,5.6368 c 0.0383,0.0587 0.10379,0.094 0.1739,0.0937 h 1.10135 c 0.11378,3.2e-4 0.20641,-0.0914 0.20723,-0.20517 v -7.4963 c 1.3e-4,-0.11444 -0.0928,-0.20719 -0.20723,-0.20688 h -0.88072 c -0.1143,-1.1e-4 -0.20698,0.0926 -0.20686,0.20688 v 4.23058 c 0,0.1708 0.003,0.35475 0.01,0.55281 0.007,0.19602 0.0144,0.38899 0.0214,0.57802 0.002,0.0549 0.004,0.1 0.006,0.15235 l -3.62505,-5.62487 c -0.0379,-0.0596 -0.10362,-0.0957 -0.17426,-0.0958 z"
         sodipodi:nodetypes="ccccccsccccccccccscscccc" />
      <path
         id="path18969"
         style="color:#000000;-inkscape-font-specification:'BC Sans, Normal';fill:#000000;stroke-width:0.413272;stroke-linecap:round;stroke-linejoin:round"
         d="m -343.78601,611.05426 c -0.84514,0 -1.58075,0.16654 -2.19728,0.50782 -0.61418,0.33299 -1.09213,0.813 -1.41799,1.42769 -0.31871,0.60781 -0.47641,1.31983 -0.47641,2.1233 0,0.81455 0.1414,1.53092 0.42967,2.14443 6.5e-4,0.001 0.001,0.003 0.002,0.004 0.29601,0.60679 0.73146,1.085 1.29699,1.41985 6.7e-4,1e-5 0.001,1e-5 0.002,0 0.5696,0.32979 1.26204,0.4901 2.06613,0.4901 0.53311,0 1.01175,-0.0304 1.43755,-0.0954 0.42432,-0.0647 0.84543,-0.16657 1.26185,-0.30299 0.0851,-0.0279 0.14264,-0.1074 0.14238,-0.19699 v -3.67403 c -8.2e-4,-0.11363 -0.0932,-0.20529 -0.20687,-0.20517 h -2.5918 c -0.11378,-3.1e-4 -0.20641,0.0914 -0.20723,0.20517 v 0.83978 c -3.1e-4,0.11458 0.0926,0.20754 0.20723,0.20722 h 1.44154 v 1.84962 c -0.14342,0.0326 -0.28732,0.0662 -0.45539,0.0917 -0.21656,0.0328 -0.48705,0.0487 -0.80863,0.0487 -0.64598,0 -1.14909,-0.12167 -1.51944,-0.34764 -0.37713,-0.23714 -0.64785,-0.55539 -0.82819,-0.97269 -0.17716,-0.43311 -0.26954,-0.9328 -0.26954,-1.50574 0,-0.89397 0.23493,-1.56908 0.69161,-2.06434 0.46246,-0.50101 1.09353,-0.75218 1.9473,-0.75218 0.33936,0 0.66236,0.0433 0.97274,0.12917 0.002,7e-4 0.004,0.001 0.006,0.002 0.32738,0.0818 0.61881,0.17616 0.87311,0.28322 0.10409,0.0439 0.22414,-0.004 0.26954,-0.10736 l 0.35722,-0.82035 c 0.0451,-0.10453 -0.003,-0.22583 -0.10724,-0.27129 -0.33578,-0.14598 -0.69985,-0.25852 -1.08976,-0.33809 h -0.002 c -0.38555,-0.0799 -0.7945,-0.11895 -1.22634,-0.11895 z"
         sodipodi:nodetypes="cccsscccscsccccccccccsccscscccccccccc" />
      <path
         id="path18975"
         style="color:#000000;fill:#000000;stroke-width:2;stroke-linecap:round;stroke-linejoin:round;-inkscape-stroke:none"
         d="m -435.17856,614.11481 c -0.55223,5e-5 -0.99989,0.44773 -0.99991,0.99996 -1.7e-4,0.55238 0.44754,1.00026 0.99991,1.00031 h 44.63278 c 0.55237,-5e-5 1.00008,-0.44793 0.99991,-1.00031 -2e-5,-0.55223 -0.44767,-0.99991 -0.99991,-0.99996 z"
         sodipodi:nodetypes="ccccccc" />
      <path
         id="path5063"
         style="color:#000000;fill:#000000;stroke-linecap:round;stroke-linejoin:round;-inkscape-stroke:none"
         d="m -482.27452,506.00007 a 1.0001,1.0001 0 0 0 -0.99992,0.99996 v 49.00014 a 1.0001,1.0001 0 0 0 0.99992,0.99996 h 38.00001 44.68929 l 15.74431,10.82405 a 1,1 0 0 0 0.0975,-0.0177 1,1 0 0 0 0.4688,0.19358 h 135.99997 88.99999 a 1.0001,1.0001 0 0 0 1.00028,-0.99996 v -60.00005 a 1.0001,1.0001 0 0 0 -1.00028,-0.99996 h -285.99981 z m 0.99991,1.99992 h 36.00018 a 1,1 0 0 0 0.99992,0.99996 1,1 0 0 0 0.99991,-0.99996 h 195.99991 88.00008 v 58.00013 h -86.99981 v -0.99996 a 1,1 0 0 0 -1.00027,-1.0003 1,1 0 0 0 -0.99992,1.0003 v 0.99996 h -134.68956 l -15.74395,-10.82439 a 1.0001,1.0001 0 0 0 -0.56662,-0.17586 h -43.99986 v -0.99996 a 1,1 0 0 0 -0.99991,-0.99996 1,1 0 0 0 -0.99992,0.99996 v 0.99996 h -36.00018 z m 233.99992,0 a 1,1 0 0 0 -0.99992,0.99996 v 1.99993 a 1,1 0 0 0 0.99992,0.99996 1,1 0 0 0 1.00027,-0.99996 v -1.99993 a 1,1 0 0 0 -1.00027,-0.99996 z m -196.99982,5.00015 a 1,1 0 0 0 -0.99992,0.99996 v 1.99992 a 1,1 0 0 0 0.99992,0.99996 1,1 0 0 0 0.99991,-0.99996 v -1.99992 a 1,1 0 0 0 -0.99991,-0.99996 z m 196.99982,2.99988 a 1,1 0 0 0 -0.99992,0.99996 v 1.99992 a 1,1 0 0 0 0.99992,0.99997 1,1 0 0 0 1.00027,-0.99997 v -1.99992 a 1,1 0 0 0 -1.00027,-0.99996 z m -196.99982,5.00015 a 1,1 0 0 0 -0.99992,0.99996 v 1.99992 a 1,1 0 0 0 0.99992,0.99996 1,1 0 0 0 0.99991,-0.99996 v -1.99992 a 1,1 0 0 0 -0.99991,-0.99996 z m 196.99982,2.99988 a 1,1 0 0 0 -0.99992,0.99996 v 1.99992 a 1,1 0 0 0 0.99992,0.99997 1,1 0 0 0 1.00027,-0.99997 v -1.99992 a 1,1 0 0 0 -1.00027,-0.99996 z m -196.99982,4.99981 a 1,1 0 0 0 -0.99992,1.0003 v 1.99992 a 1,1 0 0 0 0.99992,0.99996 1,1 0 0 0 0.99991,-0.99996 v -1.99992 a 1,1 0 0 0 -0.99991,-1.0003 z m 196.99982,3.00022 a 1,1 0 0 0 -0.99992,0.99996 v 1.99992 a 1,1 0 0 0 0.99992,0.99997 1,1 0 0 0 1.00027,-0.99997 v -1.99992 a 1,1 0 0 0 -1.00027,-0.99996 z m -196.99982,4.99981 a 1,1 0 0 0 -0.99992,0.99996 v 2.00026 a 1,1 0 0 0 0.99992,0.99996 1,1 0 0 0 0.99991,-0.99996 v -2.00026 a 1,1 0 0 0 -0.99991,-0.99996 z m 196.99982,3.00022 a 1,1 0 0 0 -0.99992,0.99996 v 1.99992 a 1,1 0 0 0 0.99992,0.99996 1,1 0 0 0 1.00027,-0.99996 v -1.99992 a 1,1 0 0 0 -1.00027,-0.99996 z m -196.99982,4.99981 a 1,1 0 0 0 -0.99992,0.99996 v 2.00026 a 1,1 0 0 0 0.99992,0.99996 1,1 0 0 0 0.99991,-0.99996 v -2.00026 a 1,1 0 0 0 -0.99991,-0.99996 z m 196.99982,3.00022 a 1,1 0 0 0 -0.99992,0.99996 v 1.99992 a 1,1 0 0 0 0.99992,0.99996 1,1 0 0 0 1.00027,-0.99996 v -1.99992 a 1,1 0 0 0 -1.00027,-0.99996 z m 0,8.00003 a 1,1 0 0 0 -0.99992,0.99996 v 1.99992 a 1,1 0 0 0 0.99992,0.99996 1,1 0 0 0 1.00027,-0.99996 v -1.99992 a 1,1 0 0 0 -1.00027,-0.99996 z" />
      <path
         id="path9566"
         style="color:#000000;-inkscape-font-specification:'BC Sans, Normal';fill:#000000;stroke-width:0.390599"
         d="m -482.41871,468.03836 c -0.10787,10e-6 -0.19528,0.0874 -0.19528,0.19529 v 7.08391 c 0,0.10787 0.0874,0.19528 0.19528,0.19528 h 0.89231 c 0.10786,0 0.19563,-0.0874 0.19564,-0.19528 v -2.81073 h 2.68165 c 0.10787,0 0.19526,-0.0874 0.19527,-0.19529 v -0.7832 c 0,-0.10787 -0.0875,-0.19529 -0.19527,-0.19529 h -2.68165 v -2.11921 h 2.86895 c 0.10787,0 0.19527,-0.0874 0.19528,-0.19529 v -0.7849 c -1e-5,-0.10787 -0.0875,-0.19529 -0.19528,-0.19529 z" />
      <path
         id="path9572"
         style="color:#000000;-inkscape-font-specification:'BC Sans, Normal';fill:#000000;stroke-width:0.390599"
         d="m -477.27024,468.03836 c -0.10787,10e-6 -0.19527,0.0874 -0.19527,0.19529 v 7.08391 c 0,0.10787 0.0874,0.19528 0.19527,0.19528 h 0.89231 c 0.10786,0 0.19563,-0.0874 0.19564,-0.19528 v -2.73064 h 1.10135 l 1.66037,2.83015 c 0.0352,0.0593 0.0988,0.0958 0.16774,0.0958 h 1.04303 c 0.152,-6.5e-4 0.24495,-0.16701 0.16592,-0.29685 l -1.82991,-2.98829 c 0.11288,-0.049 0.22862,-0.0901 0.33584,-0.15439 h -0.004 c 0.19061,-0.10997 0.35977,-0.24998 0.50576,-0.41785 0.14752,-0.16966 0.26519,-0.36707 0.35178,-0.58995 0.0975,-0.23991 0.14238,-0.51423 0.14238,-0.81831 0,-0.72108 -0.22925,-1.29871 -0.69704,-1.67001 -0.4695,-0.37262 -1.1657,-0.53883 -2.07628,-0.53883 z m 1.08795,1.16594 h 0.81623 c 0.55985,0 0.95251,0.0987 1.1778,0.2597 6.6e-4,6.7e-4 8.1e-4,10e-4 0.002,0.002 0.21733,0.15006 0.33222,0.39813 0.33222,0.82206 0,0.40428 -0.11195,0.67451 -0.33004,0.86534 -0.20311,0.17706 -0.57418,0.28901 -1.13107,0.28901 h -0.86695 z" />
      <path
         id="path9578"
         style="color:#000000;-inkscape-font-specification:'BC Sans, Normal';fill:#000000;stroke-width:0.390599"
         d="m -468.17283,467.92895 c -0.76752,0 -1.42215,0.15878 -1.94911,0.48635 -1e-5,6.7e-4 -1e-5,7.1e-4 0,0.002 -0.51541,0.32478 -0.90402,0.78627 -1.15606,1.36736 -0.25044,0.57115 -0.37316,1.23093 -0.37316,1.97266 0,0.75529 0.1224,1.42383 0.37316,2.00196 0.25204,0.58111 0.64065,1.04226 1.15606,1.36703 0.52663,0.32737 1.17819,0.48634 1.93933,0.48634 0.73499,0 1.37001,-0.15978 1.88897,-0.48634 0.52082,-0.32374 0.91644,-0.77969 1.17562,-1.35339 v -0.002 c 0.26455,-0.57856 0.39453,-1.24827 0.39453,-2.00401 0,-0.75575 -0.12956,-1.42333 -0.39453,-1.99583 -0.25844,-0.57844 -0.65006,-1.03624 -1.16403,-1.35373 -0.51924,-0.3272 -1.15508,-0.48806 -1.89078,-0.48806 z m 0,1.17549 v 3.4e-4 c 0.75888,0 1.26665,0.22817 1.59769,0.68334 6.6e-4,1e-5 10e-4,1e-5 0.002,0 0.33763,0.45822 0.51735,1.11254 0.51735,1.97845 0,0.86542 -0.18397,1.52566 -0.5293,1.99822 -0.33104,0.45518 -0.83845,0.68368 -1.59733,0.68368 -0.75777,0 -1.26977,-0.22884 -1.60747,-0.68368 v -0.002 c -0.34472,-0.47247 -0.5293,-1.13154 -0.5293,-1.99617 0,-0.86543 0.18342,-1.51814 0.52712,-1.97641 v -0.002 c 0.33736,-0.45573 0.85323,-0.68368 1.61907,-0.68368 z" />
      <path
         id="path9584"
         style="color:#000000;-inkscape-font-specification:'BC Sans, Normal';fill:#000000;stroke-width:0.390599"
         d="m -458.5693,468.03802 c -0.10787,10e-6 -0.19528,0.0878 -0.19528,0.19563 v 3.9978 c 0,0.16147 0.003,0.33629 0.0102,0.52349 0.007,0.18533 0.013,0.3683 0.0196,0.54702 0.002,0.0509 0.004,0.0919 0.006,0.14041 l -3.4258,-5.31438 c -0.0359,-0.0559 -0.0977,-0.0895 -0.16411,-0.0896 h -1.03144 c -0.10787,1e-5 -0.19527,0.0874 -0.19527,0.19529 v 7.08391 c 0,0.10787 0.0874,0.19528 0.19527,0.19528 h 0.8224 c 0.10786,0 0.19526,-0.0874 0.19527,-0.19528 v -3.95895 c 0,-0.36733 -0.009,-0.72433 -0.0294,-1.07222 -0.004,-0.0763 -0.008,-0.1208 -0.0116,-0.19154 l 3.43159,5.32802 c 0.0359,0.0559 0.0978,0.0899 0.16412,0.09 h 1.04266 c 0.10786,0 0.19526,-0.0874 0.19527,-0.19528 v -7.08391 c -10e-6,-0.10786 -0.0874,-0.19562 -0.19527,-0.19563 z" />
      <path
         id="path9590"
         style="color:#000000;-inkscape-font-specification:'BC Sans, Normal';fill:#000000;stroke-width:0.390599"
         d="m -456.67454,468.03836 c -0.10787,10e-6 -0.19527,0.0874 -0.19527,0.19529 v 0.7849 c 0,0.10787 0.0874,0.19529 0.19527,0.19529 h 2.01758 v 6.10372 c 0,0.10787 0.0874,0.19528 0.19527,0.19528 h 0.89232 c 0.10787,0 0.19563,-0.0874 0.19564,-0.19528 v -6.10372 h 2.00779 c 0.10786,0 0.19527,-0.0874 0.19528,-0.19529 v -0.7849 c -10e-6,-0.10786 -0.0874,-0.19528 -0.19528,-0.19529 z" />
      <path
         id="path9617"
         style="color:#000000;-inkscape-font-specification:'BC Sans, Normal';fill:#000000;stroke-width:0.390599"
         d="m -482.41871,478.65144 c -0.10787,1e-5 -0.19528,0.0874 -0.19528,0.19529 v 7.08391 c 0,0.10787 0.0874,0.19563 0.19528,0.19563 h 0.89231 c 0.10786,0 0.19563,-0.0877 0.19564,-0.19563 v -2.56432 h 0.61697 c 0.55102,0 1.01822,-0.0632 1.40423,-0.19904 0.38336,-0.13244 0.70018,-0.30865 0.9434,-0.53713 6.7e-4,-6.6e-4 10e-4,-0.001 0.002,-0.002 0.23755,-0.23035 0.41069,-0.49664 0.51373,-0.79104 0.10608,-0.29123 0.16013,-0.59637 0.16013,-0.90828 0,-0.70308 -0.23552,-1.28378 -0.7032,-1.68569 -0.47669,-0.40966 -1.19899,-0.59166 -2.15054,-0.59166 z m 1.08795,1.15435 h 0.70682 c 0.59817,0 1.01211,0.11313 1.24989,0.29686 6.6e-4,1e-5 0.001,1e-5 0.002,0 0.24693,0.18658 0.36917,0.45312 0.36917,0.86704 0,0.48131 -0.1374,0.76867 -0.4083,0.94747 -6.7e-4,6.6e-4 -8.1e-4,10e-4 -0.002,0.002 -0.27149,0.18285 -0.73803,0.29276 -1.39843,0.29276 h -0.51952 z" />
      <path
         id="path9623"
         style="color:#000000;-inkscape-font-specification:'BC Sans, Normal';fill:#000000;stroke-width:0.390599"
         d="m -476.41669,478.65144 c -0.10787,0 -0.19564,0.0874 -0.19564,0.19529 v 7.08391 c 0,0.10787 0.0877,0.19563 0.19564,0.19563 h 0.89231 c 0.10787,0 0.19527,-0.0877 0.19528,-0.19563 v -2.73234 h 1.10171 l 1.66001,2.83015 c 0.0347,0.06 0.0987,0.0971 0.1681,0.0975 h 1.04303 c 0.15358,3.1e-4 0.24731,-0.16832 0.16592,-0.29856 l -1.83209,-2.98829 c 0.11243,-0.0487 0.22721,-0.0884 0.33403,-0.15235 l 0.002,-0.002 c 0.18964,-0.10976 0.35857,-0.24896 0.50394,-0.41614 0.14717,-0.16924 0.2649,-0.36774 0.35142,-0.58996 0.0975,-0.23991 0.14274,-0.51422 0.14274,-0.81831 0,-0.72106 -0.23173,-1.30041 -0.69958,-1.67171 -0.4695,-0.37262 -1.16351,-0.53713 -2.0741,-0.53713 z m 1.08759,1.16424 h 0.81659 c 0.55986,1e-5 0.95034,0.10083 1.17563,0.26174 0.001,6.9e-4 0.003,7.1e-4 0.004,0.002 0.21734,0.15006 0.33222,0.39642 0.33222,0.82035 0,0.40428 -0.11195,0.67452 -0.33004,0.86534 -0.20311,0.17707 -0.57418,0.28901 -1.13107,0.28901 h -0.86695 z" />
      <path
         id="path9629"
         style="color:#000000;-inkscape-font-specification:'BC Sans, Normal';fill:#000000;stroke-width:0.390599"
         d="m -467.31928,478.54204 c -0.76752,0 -1.42214,0.15878 -1.94911,0.48635 -0.51539,0.32477 -0.90437,0.78626 -1.15642,1.36736 -0.25091,0.57153 -0.3728,1.23022 -0.3728,1.97266 0,0.75528 0.12205,1.42383 0.3728,2.00196 0.25205,0.5811 0.64102,1.04226 1.15642,1.36703 -10e-6,6.7e-4 -10e-6,0.001 0,0.002 0.52663,0.32737 1.17818,0.4843 1.93933,0.4843 0.73569,0 1.36935,-0.15914 1.8886,-0.48634 0.52061,-0.32396 0.91703,-0.77949 1.17599,-1.35339 0.26505,-0.57893 0.39453,-1.2496 0.39453,-2.00606 0,-0.75574 -0.12957,-1.42163 -0.39453,-1.99413 v -0.002 c -0.25844,-0.57903 -0.64969,-1.03601 -1.16403,-1.35373 -0.51924,-0.3272 -1.15508,-0.48635 -1.89078,-0.48635 z m 0,1.17378 c 0.75888,0 1.26665,0.2285 1.59769,0.68368 6.6e-4,6.7e-4 10e-4,0.001 0.002,0.002 0.33764,0.45822 0.51554,1.11051 0.51554,1.97641 0,0.86542 -0.18215,1.52566 -0.52749,1.99822 -0.33104,0.45518 -0.83881,0.68368 -1.59769,0.68368 -0.75889,0 -1.2716,-0.2275 -1.60929,-0.68368 -0.34534,-0.47256 -0.52712,-1.1328 -0.52712,-1.99822 0,-0.86541 0.18342,-1.51813 0.52712,-1.97641 0.33736,-0.45573 0.85323,-0.68538 1.61907,-0.68538 z" />
      <path
         id="path9635"
         style="color:#000000;-inkscape-font-specification:'BC Sans, Normal';fill:#000000;stroke-width:0.390599"
         d="m -462.54759,478.65144 c -0.10787,0 -0.19527,0.0874 -0.19527,0.19529 v 7.04301 c 0,0.28444 -0.0464,0.48597 -0.11159,0.5978 -6.7e-4,6.6e-4 -8.1e-4,10e-4 -0.002,0.002 -0.0757,0.13527 -0.16451,0.21527 -0.27534,0.26345 -6.7e-4,6.6e-4 -10e-4,10e-4 -0.002,0.002 -0.12015,0.0546 -0.24724,0.0801 -0.38656,0.0801 -0.12251,0 -0.23634,-0.007 -0.34381,-0.0252 -0.004,-7.8e-4 -0.008,-10e-4 -0.0116,-0.002 -0.10759,-0.0119 -0.20589,-0.0336 -0.29888,-0.0627 -0.12631,-0.0397 -0.25477,0.055 -0.25397,0.18745 v 0.75423 c -2.7e-4,0.0779 0.0456,0.14845 0.11702,0.17961 0.10671,0.0457 0.22587,0.0775 0.3536,0.0995 10e-4,2.5e-4 0.003,-2.6e-4 0.004,0 0.002,3.6e-4 0.004,0.002 0.006,0.002 0.13471,0.0291 0.28329,0.0429 0.44924,0.0429 0.59356,0 1.09857,-0.17966 1.47451,-0.54087 0.38662,-0.37146 0.56444,-0.93504 0.56444,-1.64854 v -6.97451 c -1e-5,-0.10786 -0.0874,-0.19528 -0.19527,-0.19529 z" />
      <path
         id="path9641"
         style="color:#000000;-inkscape-font-specification:'BC Sans, Normal';fill:#000000;stroke-width:0.390599"
         d="m -459.78985,478.65144 c -0.10787,1e-5 -0.19528,0.0874 -0.19528,0.19529 v 7.08391 c 0,0.10787 0.0874,0.19563 0.19528,0.19563 h 3.95908 c 0.10787,0 0.19526,-0.0877 0.19527,-0.19563 v -0.78491 c -1e-5,-0.10787 -0.0874,-0.19528 -0.19527,-0.19528 h -2.86932 v -2.13864 h 2.69144 c 0.10786,0 0.19526,-0.0877 0.19527,-0.19563 v -0.77332 c -1e-5,-0.10786 -0.0874,-0.19527 -0.19527,-0.19528 h -2.69144 v -1.82236 h 2.86932 c 0.10787,0 0.19526,-0.0874 0.19527,-0.19529 v -0.7832 c -1e-5,-0.10787 -0.0874,-0.19529 -0.19527,-0.19529 z" />
      <path
         id="path9647"
         style="color:#000000;-inkscape-font-specification:'BC Sans, Normal';fill:#000000;stroke-width:0.390599"
         d="m -451.22754,478.55192 c -0.75466,0 -1.41062,0.16241 -1.95491,0.49419 -0.5409,0.32314 -0.95677,0.78286 -1.23649,1.36327 -0.27222,0.5724 -0.40612,1.23074 -0.40612,1.96857 0,0.76171 0.12229,1.43346 0.37316,2.01185 -10e-6,6.7e-4 -10e-6,0.001 0,0.002 0.25882,0.58061 0.65206,1.03943 1.16801,1.35748 0.51979,0.32042 1.16036,0.47442 1.90817,0.47442 0.39796,0 0.74081,-0.0235 1.03325,-0.0722 v 0.002 c 0.29676,-0.0483 0.58441,-0.1249 0.86116,-0.22868 0.0766,-0.0286 0.12706,-0.10162 0.1268,-0.18336 v -0.77366 c -10e-6,-0.1302 -0.12498,-0.2239 -0.24998,-0.18745 -0.26517,0.0776 -0.53481,0.14182 -0.80645,0.19358 -0.26492,0.0505 -0.54288,0.076 -0.8358,0.076 -0.77171,0 -1.31127,-0.23061 -1.68174,-0.68947 v -0.002 c -0.36962,-0.47335 -0.56445,-1.12157 -0.56445,-1.97061 0,-0.85423 0.20927,-1.50007 0.60937,-1.96686 0.40006,-0.46673 0.92921,-0.69527 1.64624,-0.69527 0.3012,0 0.57261,0.0382 0.81659,0.11145 6.6e-4,10e-6 8.2e-4,10e-6 0.002,0 0.26367,0.0772 0.5006,0.16294 0.70899,0.25766 0.0966,0.0432 0.21032,0.002 0.25614,-0.0937 l 0.35722,-0.75389 c 0.0453,-0.0956 0.006,-0.2097 -0.0877,-0.25766 -0.58692,-0.29346 -1.27135,-0.43761 -2.04294,-0.43761 z" />
      <path
         id="path9653"
         style="color:#000000;-inkscape-font-specification:'BC Sans, Normal';fill:#000000;stroke-width:0.390599"
         d="m -448.86615,478.65144 c -0.10787,1e-5 -0.19527,0.0874 -0.19527,0.19529 v 0.7832 c 0,0.10787 0.0874,0.19529 0.19527,0.19529 h 2.01758 v 6.10542 c 0,0.10787 0.0874,0.19563 0.19528,0.19563 h 0.89267 c 0.10786,0 0.19527,-0.0877 0.19528,-0.19563 v -6.10542 h 2.00779 c 0.10786,0 0.19527,-0.0874 0.19528,-0.19529 v -0.7832 c -10e-6,-0.10786 -0.0875,-0.19528 -0.19528,-0.19529 z" />
      <path
         id="path9659"
         style="color:#000000;-inkscape-font-specification:'BC Sans, Normal';fill:#000000;stroke-width:0.390599"
         d="m -443.05143,478.65144 c -0.10787,1e-5 -0.19563,0.0874 -0.19563,0.19529 v 0.51566 c 2.9e-4,0.0903 0.0628,0.16872 0.15071,0.18949 l 0.68146,0.16223 v 5.35528 l -0.67965,0.15439 c -0.0894,0.0202 -0.15293,0.0999 -0.15252,0.19154 v 0.51532 c 0,0.10787 0.0877,0.19563 0.19563,0.19563 h 2.55848 c 0.10787,0 0.19526,-0.0877 0.19527,-0.19563 v -0.51532 c 4e-4,-0.0916 -0.0632,-0.17138 -0.15252,-0.19154 l -0.67965,-0.15439 v -5.35528 l 0.68182,-0.16223 c 0.0879,-0.0208 0.15006,-0.0991 0.15035,-0.18949 v -0.51566 c -10e-6,-0.10787 -0.0875,-0.19529 -0.19527,-0.19529 z" />
      <path
         id="path9665"
         style="color:#000000;-inkscape-font-specification:'BC Sans, Normal';fill:#000000;stroke-width:0.390599"
         d="m -436.19622,478.54204 c -0.76752,0 -1.42214,0.15878 -1.94911,0.48635 -0.5154,0.32477 -0.90438,0.78626 -1.15642,1.36736 -0.25092,0.57153 -0.37497,1.23022 -0.37497,1.97266 0,0.75528 0.12421,1.42383 0.37497,2.00196 0.25204,0.5811 0.64101,1.04226 1.15642,1.36703 -10e-6,6.7e-4 -10e-6,0.001 0,0.002 0.52663,0.32737 1.17819,0.4843 1.93933,0.4843 0.7357,0 1.36936,-0.15914 1.88861,-0.48634 0.5206,-0.32396 0.91703,-0.77949 1.17598,-1.35339 0.26505,-0.57893 0.39453,-1.2496 0.39453,-2.00606 0,-0.75574 -0.12956,-1.42163 -0.39453,-1.99413 v -0.002 c -0.25862,-0.57945 -0.65131,-1.03598 -1.1662,-1.35373 -0.51924,-0.32719 -1.15291,-0.48635 -1.88861,-0.48635 z m 0,1.17378 c 0.75889,0 1.26665,0.22851 1.59769,0.68368 -1e-5,6.7e-4 -1e-5,0.001 0,0.002 0.33763,0.45822 0.51771,1.11051 0.51771,1.97641 0,0.86542 -0.18215,1.52566 -0.52749,1.99822 -0.33103,0.45518 -0.8388,0.68368 -1.59769,0.68368 -0.75887,0 -1.27159,-0.2275 -1.60928,-0.68368 -0.34534,-0.47256 -0.52749,-1.1328 -0.52749,-1.99822 0,-0.86541 0.18379,-1.51813 0.52749,-1.97641 0.33736,-0.45573 0.85323,-0.68538 1.61906,-0.68538 z" />
      <path
         id="path9671"
         style="color:#000000;-inkscape-font-specification:'BC Sans, Normal';fill:#000000;stroke-width:0.390599"
         d="m -431.3738,478.65144 c -0.10787,0 -0.19528,0.0874 -0.19528,0.19529 v 7.08391 c 0,0.10787 0.0874,0.19563 0.19528,0.19563 h 0.82203 c 0.10786,0 0.19562,-0.0877 0.19563,-0.19563 v -3.95895 c 0,-0.36733 -0.009,-0.72432 -0.0293,-1.07221 -0.004,-0.0755 -0.008,-0.11944 -0.012,-0.1895 l 3.43195,5.32631 c 0.0359,0.0559 0.0974,0.0895 0.16376,0.0896 h 1.04302 c 0.10786,0 0.19527,-0.0874 0.19528,-0.19529 v -7.08391 c -1e-5,-0.10786 -0.0874,-0.19528 -0.19528,-0.19529 h -0.83398 c -0.10787,0 -0.19528,0.0874 -0.19528,0.19529 v 3.99814 c 0,0.16148 0.003,0.33629 0.0102,0.5235 0.007,0.18532 0.013,0.36625 0.0196,0.54497 0.002,0.0507 0.004,0.092 0.006,0.14041 l -3.42579,-5.31233 c -0.0358,-0.0559 -0.0977,-0.0899 -0.16412,-0.09 z" />
      <path
         id="path9686"
         style="color:#000000;-inkscape-font-specification:'BC Sans, Normal';fill:#000000;stroke-width:0.390599"
         d="m -248.39199,468.10822 a 0.19531904,0.19531904 0 0 0 -0.19527,0.19529 v 7.08391 a 0.19531904,0.19531904 0 0 0 0.19527,0.19529 h 0.89231 a 0.19531904,0.19531904 0 0 0 0.19528,-0.19529 v -2.73029 h 1.10171 l 1.66001,2.82981 a 0.19531904,0.19531904 0 0 0 0.1681,0.0958 h 1.04121 a 0.19531904,0.19531904 0 0 0 0.16774,-0.29685 l -1.82991,-2.9883 c 0.11177,-0.0486 0.22563,-0.0907 0.33185,-0.15439 0.19061,-0.10997 0.36014,-0.24996 0.50612,-0.41784 0.14774,-0.1699 0.2648,-0.36668 0.35142,-0.58996 v -0.002 c 0.097,-0.23951 0.14238,-0.51288 0.14238,-0.81626 0,-0.72108 -0.23138,-1.29871 -0.69922,-1.67001 -0.46951,-0.37262 -1.16533,-0.53884 -2.07591,-0.53884 z m 1.08759,1.16594 h 0.81659 c 0.55985,0 0.95033,0.0987 1.17563,0.25971 a 0.19531904,0.19531904 0 0 0 0.004,0.002 c 0.21733,0.15006 0.33222,0.39847 0.33222,0.8224 0,0.40428 -0.11196,0.67416 -0.33004,0.86499 -0.20311,0.17706 -0.57599,0.28902 -1.13288,0.28902 h -0.86514 z" />
      <path
         id="path9692"
         style="color:#000000;-inkscape-font-specification:'BC Sans, Normal';fill:#000000;stroke-width:0.390599"
         d="m -242.22223,468.10822 a 0.19531904,0.19531904 0 0 0 -0.19527,0.19529 v 7.08391 a 0.19531904,0.19531904 0 0 0 0.19527,0.19529 h 3.95908 a 0.19531904,0.19531904 0 0 0 0.19528,-0.19529 v -0.7832 a 0.19531904,0.19531904 0 0 0 -0.19528,-0.19529 h -2.87113 v -2.13863 h 2.69325 a 0.19531904,0.19531904 0 0 0 0.19527,-0.19529 v -0.77536 a 0.19531904,0.19531904 0 0 0 -0.19527,-0.19529 h -2.69325 v -1.82031 h 2.87113 a 0.19531904,0.19531904 0 0 0 0.19528,-0.19529 v -0.78525 a 0.19531904,0.19531904 0 0 0 -0.19528,-0.19529 z" />
      <path
         id="path9698"
         style="color:#000000;-inkscape-font-specification:'BC Sans, Normal';fill:#000000;stroke-width:0.390599"
         d="m -234.90003,468.07891 a 0.19531904,0.19531904 0 0 0 -0.18151,0.12508 l -2.76751,7.11322 a 0.19531904,0.19531904 0 0 0 0.1815,0.2655 h 0.90246 a 0.19531904,0.19531904 0 0 0 0.18151,-0.12508 l 0.79486,-2.06638 h 2.54109 l 0.80464,2.06638 a 0.19531904,0.19531904 0 0 0 0.18187,0.12508 h 0.92383 a 0.19531904,0.19531904 0 0 0 0.18151,-0.2655 l -2.75774,-7.11322 a 0.19531904,0.19531904 0 0 0 -0.18368,-0.12508 z m 0.39671,1.80464 c 0.0245,0.0807 0.05,0.15991 0.0703,0.23618 a 0.19531904,0.19531904 0 0 0 0.004,0.0157 c 0.0334,0.0934 0.0565,0.15618 0.0721,0.19529 l 0.69342,1.87518 h -1.67776 l 0.70321,-1.87893 a 0.19531904,0.19531904 0 0 0 0.002,-0.004 c 0.0395,-0.11205 0.0834,-0.26173 0.13296,-0.43931 z" />
      <path
         id="path9704"
         style="color:#000000;-inkscape-font-specification:'BC Sans, Normal';fill:#000000;stroke-width:0.390599"
         d="m -230.36672,468.10822 a 0.19531904,0.19531904 0 0 0 -0.19527,0.19529 v 7.08391 a 0.19531904,0.19531904 0 0 0 0.19527,0.19529 h 0.89449 a 0.19531904,0.19531904 0 0 0 0.19527,-0.19529 v -2.73029 h 1.10172 l 1.65819,2.82981 a 0.19531904,0.19531904 0 0 0 0.16991,0.0958 h 1.04086 a 0.19531904,0.19531904 0 0 0 0.16629,-0.29685 l -1.82847,-2.9883 c 0.11177,-0.0486 0.226,-0.0907 0.33222,-0.15439 0.19062,-0.10997 0.35976,-0.24997 0.50575,-0.41784 0.14752,-0.16966 0.26303,-0.36708 0.34961,-0.58996 0.0975,-0.23991 0.14455,-0.51422 0.14455,-0.8183 0,-0.72108 -0.23136,-1.29871 -0.69921,-1.67001 -0.4695,-0.37262 -1.16569,-0.53884 -2.07628,-0.53884 z m 1.08976,1.16594 h 0.8166 c 0.55986,0 0.95032,0.0987 1.17562,0.25971 a 0.19531904,0.19531904 0 0 0 0.002,0.002 c 0.21733,0.15006 0.33185,0.39847 0.33185,0.8224 0,0.40428 -0.11195,0.67416 -0.33004,0.86499 -0.20332,0.17657 -0.57471,0.28902 -1.1307,0.28902 h -0.86551 z" />
      <path
         id="path9727"
         style="color:#000000;-inkscape-font-specification:'BC Sans, Normal';fill:#000000;stroke-width:0.390599"
         d="m -245.46652,478.61191 c -0.76751,0 -1.41997,0.15877 -1.94693,0.48634 a 0.19531904,0.19531904 0 0 0 -0.002,0 c -0.5154,0.32477 -0.90402,0.78627 -1.15606,1.36737 -0.25092,0.57153 -0.37315,1.23021 -0.37315,1.97265 0,0.75528 0.12239,1.42384 0.37315,2.00197 0.25204,0.5811 0.64066,1.04225 1.15606,1.36702 a 0.19531904,0.19531904 0 0 0 0.002,0.002 c 0.52663,0.32737 1.17636,0.4843 1.93751,0.4843 0.7357,0 1.37118,-0.15915 1.89042,-0.48635 0.52006,-0.32392 0.91505,-0.7799 1.17381,-1.35339 0.26506,-0.57893 0.39454,-1.24925 0.39454,-2.00571 0,-0.75645 -0.12906,-1.42332 -0.39454,-1.99618 -0.25844,-0.57845 -0.65005,-1.03623 -1.16403,-1.35373 -0.51925,-0.32719 -1.15508,-0.486 -1.89078,-0.486 z m 0,1.17412 h 3.7e-4 c 0.75868,7e-5 1.26635,0.22824 1.59732,0.68334 a 0.19531904,0.19531904 0 0 0 0.002,0.002 c 0.33764,0.45822 0.51771,1.11085 0.51771,1.97675 0,0.86542 -0.18398,1.52532 -0.52931,1.99787 -0.33104,0.45518 -0.83881,0.68369 -1.59769,0.68369 -0.7581,0 -1.26977,-0.22845 -1.60747,-0.68369 -0.34534,-0.47255 -0.5293,-1.13245 -0.5293,-1.99787 0,-0.86541 0.18343,-1.51847 0.52713,-1.97675 0.33732,-0.45566 0.85343,-0.68531 1.61906,-0.68538 z" />
      <path
         id="path9733"
         style="color:#000000;-inkscape-font-specification:'BC Sans, Normal';fill:#000000;stroke-width:0.390599"
         d="m -241.70669,478.72131 a 0.19531904,0.19531904 0 0 0 -0.18332,0.2597 l 2.53094,7.08425 a 0.19531904,0.19531904 0 0 0 0.18368,0.13088 h 0.89268 a 0.19531904,0.19531904 0 0 0 0.18368,-0.13088 l 2.52913,-7.08425 a 0.19531904,0.19531904 0 0 0 -0.18368,-0.2597 h -0.94122 a 0.19531904,0.19531904 0 0 0 -0.18549,0.13087 l -1.5861,4.52369 c -0.10579,0.29754 -0.19589,0.57546 -0.26954,0.83568 -0.0671,-0.25233 -0.15116,-0.52203 -0.25578,-0.81626 l -1.59769,-4.54311 a 0.19531904,0.19531904 0 0 0 -0.18368,-0.13087 z" />
      <path
         id="path9739"
         style="color:#000000;-inkscape-font-specification:'BC Sans, Normal';fill:#000000;stroke-width:0.390599"
         d="m -234.79062,478.72131 a 0.19531904,0.19531904 0 0 0 -0.19527,0.19529 v 7.08425 a 0.19531904,0.19531904 0 0 0 0.19527,0.19529 h 3.95908 a 0.19531904,0.19531904 0 0 0 0.19528,-0.19529 v -0.78525 a 0.19531904,0.19531904 0 0 0 -0.19528,-0.19529 h -2.87113 v -2.13863 h 2.69144 a 0.19531904,0.19531904 0 0 0 0.19527,-0.19529 v -0.77366 a 0.19531904,0.19531904 0 0 0 -0.19527,-0.19529 h -2.69144 v -1.82235 h 2.87113 a 0.19531904,0.19531904 0 0 0 0.19528,-0.19529 v -0.7832 a 0.19531904,0.19531904 0 0 0 -0.19528,-0.19529 z" />
      <path
         id="path9745"
         style="color:#000000;-inkscape-font-specification:'BC Sans, Normal';fill:#000000;stroke-width:0.390599"
         d="m -229.27479,478.72131 a 0.19531904,0.19531904 0 0 0 -0.19563,0.19529 v 7.08425 a 0.19531904,0.19531904 0 0 0 0.19563,0.19529 h 0.89232 a 0.19531904,0.19531904 0 0 0 0.19527,-0.19529 v -2.73268 h 1.10172 l 1.66,2.83015 a 0.19531904,0.19531904 0 0 0 0.1681,0.0978 h 1.04303 a 0.19531904,0.19531904 0 0 0 0.16593,-0.2989 l -1.82992,-2.98625 c 0.1118,-0.0485 0.22559,-0.0909 0.33186,-0.15439 0.19062,-0.10997 0.35976,-0.2503 0.50575,-0.41819 0.14717,-0.16924 0.26526,-0.36739 0.35178,-0.58961 0.0975,-0.23991 0.14456,-0.51422 0.14456,-0.81831 0,-0.72107 -0.23138,-1.30075 -0.69922,-1.67205 -0.4695,-0.37262 -1.16569,-0.53713 -2.07627,-0.53713 z m 1.08759,1.16423 h 0.8166 c 0.55985,1e-5 0.95251,0.10083 1.1778,0.26175 a 0.19531904,0.19531904 0 0 0 0.002,0.002 c 0.21733,0.15006 0.33222,0.39608 0.33222,0.82001 0,0.40428 -0.11196,0.67451 -0.33005,0.86533 -0.20311,0.17707 -0.57417,0.28902 -1.13106,0.28902 h -0.86696 z" />
      <path
         id="path9751"
         style="color:#000000;-inkscape-font-specification:'BC Sans, Normal';fill:#000000;stroke-width:0.390599"
         d="m -223.10321,478.72131 a 0.19531904,0.19531904 0 0 0 -0.19528,0.19529 v 7.08425 a 0.19531904,0.19531904 0 0 0 0.19528,0.19529 h 0.89268 a 0.19531904,0.19531904 0 0 0 0.19527,-0.19529 v -3.10963 h 3.2403 v 3.10963 a 0.19531904,0.19531904 0 0 0 0.19527,0.19529 h 0.89268 a 0.19531904,0.19531904 0 0 0 0.19527,-0.19529 v -7.08425 a 0.19531904,0.19531904 0 0 0 -0.19527,-0.19529 h -0.89268 a 0.19531904,0.19531904 0 0 0 -0.19527,0.19529 v 2.80084 h -3.2403 v -2.80084 a 0.19531904,0.19531904 0 0 0 -0.19527,-0.19529 z" />
      <path
         id="path9757"
         style="color:#000000;-inkscape-font-specification:'BC Sans, Normal';fill:#000000;stroke-width:0.390599"
         d="m -213.94675,478.692 a 0.19531904,0.19531904 0 0 0 -0.18187,0.12303 l -2.76751,7.11356 a 0.19531904,0.19531904 0 0 0 0.18186,0.26755 h 0.9021 a 0.19531904,0.19531904 0 0 0 0.18368,-0.12508 l 0.79486,-2.06843 h 2.53928 l 0.80464,2.06843 a 0.19531904,0.19531904 0 0 0 0.1815,0.12508 h 0.92384 a 0.19531904,0.19531904 0 0 0 0.18187,-0.26755 l -2.7581,-7.11356 a 0.19531904,0.19531904 0 0 0 -0.18151,-0.12303 z m 0.39634,1.80327 c 0.0245,0.0807 0.0499,0.16161 0.0703,0.23789 a 0.19531904,0.19531904 0 0 0 0.004,0.0157 c 0.0334,0.0934 0.0568,0.15617 0.0725,0.19529 l 0.69523,1.87484 h -1.67957 l 0.70284,-1.87893 a 0.19531904,0.19531904 0 0 0 0.002,-0.004 c 0.0394,-0.11194 0.0832,-0.26369 0.13259,-0.44102 z" />
      <path
         id="path9763"
         style="color:#000000;-inkscape-font-specification:'BC Sans, Normal';fill:#000000;stroke-width:0.390599"
         d="m -209.41163,478.72131 a 0.19531904,0.19531904 0 0 0 -0.19527,0.19529 v 7.08425 a 0.19531904,0.19531904 0 0 0 0.19527,0.19529 h 0.82239 a 0.19531904,0.19531904 0 0 0 0.19528,-0.19529 v -3.95929 c 0,-0.36733 -0.009,-0.72432 -0.0293,-1.07221 -0.004,-0.0755 -0.008,-0.11943 -0.0116,-0.1895 l 3.43159,5.32631 a 0.19531904,0.19531904 0 0 0 0.16412,0.09 h 1.04266 a 0.19531904,0.19531904 0 0 0 0.19527,-0.19563 v -7.08391 a 0.19531904,0.19531904 0 0 0 -0.19527,-0.19529 h -0.83399 a 0.19531904,0.19531904 0 0 0 -0.19527,0.19529 v 3.99814 c 0,0.16148 0.003,0.33628 0.0101,0.52349 0.007,0.18532 0.013,0.36625 0.0196,0.54497 0.002,0.0514 0.004,0.0935 0.006,0.14247 l -3.42579,-5.31439 a 0.19531904,0.19531904 0 0 0 -0.16412,-0.09 z" />
      <path
         id="path9769"
         style="color:#000000;-inkscape-font-specification:'BC Sans, Normal';fill:#000000;stroke-width:0.390599"
         d="m -198.55821,478.62179 c -1.16976,-0.0228 -2.40532,0.40975 -3.12427,1.37041 -0.78415,1.03737 -0.87305,2.44125 -0.615,3.67622 0.21329,1.05951 0.9552,2.02649 1.99028,2.3877 0.90489,0.32488 1.8909,0.26374 2.82897,0.14814 0.43196,-0.0907 0.91079,-0.13254 1.29142,-0.35695 0.074,-0.19864 0.0204,-0.42424 0.0367,-0.63476 0,-0.98397 0,-1.96793 0,-2.9519 -0.0522,-0.27877 -0.35592,-0.17499 -0.55457,-0.19529 -0.69732,0 -1.39463,0 -2.09194,0 -0.27877,0.0522 -0.17498,0.35593 -0.19528,0.55459 0.016,0.19122 -0.0438,0.39753 0.0572,0.57186 0.21505,0.10596 0.46468,0.0381 0.697,0.0572 0.26739,0 0.53479,0 0.80219,0 0,0.58269 0,1.16537 0,1.74806 -0.72511,0.16767 -1.50384,0.20177 -2.22311,-0.0108 -0.72858,-0.21908 -1.22109,-0.9064 -1.35255,-1.63517 -0.17971,-0.92743 -0.13644,-1.99247 0.48369,-2.75459 0.55968,-0.70822 1.53739,-0.8885 2.38943,-0.76963 0.43871,0.0674 0.86833,0.19338 1.27895,0.36153 0.27574,0.0599 0.30092,-0.25901 0.39891,-0.43318 0.0654,-0.18185 0.18262,-0.35095 0.20765,-0.54296 -0.20575,-0.33732 -0.72477,-0.33516 -1.07673,-0.46263 -0.4031,-0.0891 -0.81693,-0.12758 -1.22897,-0.12789 z" />
      <path
         id="path19113"
         style="color:#000000;fill:#000000;stroke-width:2;stroke-linecap:round;stroke-linejoin:round;-inkscape-stroke:none"
         d="M -482.27452 491.99993 A 1 1 0 0 0 -483.27444 492.99989 L -483.27444 500.99992 A 1 1 0 0 0 -482.27452 501.99988 A 1 1 0 0 0 -481.27461 500.99992 L -481.27461 498.00004 L -445.27443 498.00004 L -445.27443 500.99992 A 1 1 0 0 0 -444.27451 501.99988 A 1 1 0 0 0 -443.2746 500.99992 L -443.2746 497.00008 L -443.2746 492.99989 A 1 1 0 0 0 -444.27451 491.99993 A 1 1 0 0 0 -445.27443 492.99989 L -445.27443 496.00012 L -481.27461 496.00012 L -481.27461 492.99989 A 1 1 0 0 0 -482.27452 491.99993 z " />
      <g
         id="path8692"
         transform="translate(-9.2745714)" />
      <path
         id="path19131"
         style="color:#000000;fill:#000000;stroke-width:2;stroke-linecap:round;stroke-linejoin:round;-inkscape-stroke:none"
         d="M -247.27469 491.99993 A 1 1 0 0 0 -248.27461 492.99989 L -248.27461 500.99992 A 1 1 0 0 0 -247.27469 501.99988 A 1 1 0 0 0 -246.27442 500.99992 L -246.27442 498.00004 L -159.47387 498.00004 L -159.47387 500.99992 A 1 1 0 0 0 -158.47396 501.99988 A 1 1 0 0 0 -157.47368 500.99992 L -157.47368 497.00008 L -157.47368 492.99989 A 1 1 0 0 0 -158.47396 491.99993 A 1 1 0 0 0 -159.47387 492.99989 L -159.47387 496.00012 L -246.27442 496.00012 L -246.27442 492.99989 A 1 1 0 0 0 -247.27469 491.99993 z " />
      <g
         id="path8668-0-8"
         transform="translate(-9.2745714)" />
      <g
         id="path8692-4"
         transform="translate(-9.2745714)" />
    </g>
  </g>
</svg>
