<?xml version="1.0" encoding="UTF-8" standalone="no"?>
<svg
   width="1000"
   height="1000"
   viewBox="0 0 264.58333 264.58333"
   version="1.1"
   id="svg5"
   inkscape:version="1.2 (dc2aedaf03, 2022-05-15)"
   sodipodi:docname="four_A.svg"
   xmlns:inkscape="http://www.inkscape.org/namespaces/inkscape"
   xmlns:sodipodi="http://sodipodi.sourceforge.net/DTD/sodipodi-0.dtd"
   xmlns="http://www.w3.org/2000/svg"
   xmlns:svg="http://www.w3.org/2000/svg">
  <sodipodi:namedview
     id="namedview7"
     pagecolor="#ffffff"
     bordercolor="#000000"
     borderopacity="0.25"
     inkscape:showpageshadow="2"
     inkscape:pageopacity="0.0"
     inkscape:pagecheckerboard="0"
     inkscape:deskcolor="#d1d1d1"
     inkscape:document-units="px"
     showgrid="true"
     showguides="true"
     inkscape:zoom="1.2938725"
     inkscape:cx="142.20876"
     inkscape:cy="908.89946"
     inkscape:window-width="3072"
     inkscape:window-height="1622"
     inkscape:window-x="-11"
     inkscape:window-y="-11"
     inkscape:window-maximized="1"
     inkscape:current-layer="layer1">
    <inkscape:grid
       type="xygrid"
       id="grid182"
       originx="0"
       originy="0" />
    <sodipodi:guide
       position="-99.999999,52.916666"
       orientation="0,1"
       id="guide184"
       inkscape:locked="false"
       inkscape:label=""
       inkscape:color="rgb(0,134,229)" />
    <sodipodi:guide
       position="-99.999999,211.66666"
       orientation="0,1"
       id="guide186"
       inkscape:locked="false"
       inkscape:label=""
       inkscape:color="rgb(0,134,229)" />
    <sodipodi:guide
       position="132.29166,-835.41666"
       orientation="-1,0"
       id="guide188"
       inkscape:locked="false"
       inkscape:label=""
       inkscape:color="rgb(0,134,229)" />
    <sodipodi:guide
       position="0,264.58333"
       orientation="0,3779.5276"
       id="guide1770"
       inkscape:locked="false" />
    <sodipodi:guide
       position="999.99999,264.58333"
       orientation="3779.5276,0"
       id="guide1772"
       inkscape:locked="false" />
    <sodipodi:guide
       position="999.99999,33.072916"
       orientation="0,1"
       id="guide1774"
       inkscape:locked="false"
       inkscape:label=""
       inkscape:color="rgb(0,134,229)" />
    <sodipodi:guide
       position="0,-735.41666"
       orientation="-3779.5276,0"
       id="guide1776"
       inkscape:locked="false" />
    <sodipodi:guide
       position="-99.999999,88.635416"
       orientation="0,1"
       id="guide31317"
       inkscape:locked="false"
       inkscape:label="Wheel Top"
       inkscape:color="rgb(0,134,229)" />
    <sodipodi:guide
       position="0,264.58333"
       orientation="0,1000"
       id="guide10223"
       inkscape:locked="false" />
    <sodipodi:guide
       position="264.58333,264.58333"
       orientation="1000,0"
       id="guide10225"
       inkscape:locked="false" />
    <sodipodi:guide
       position="264.58333,0"
       orientation="0,-1000"
       id="guide10227"
       inkscape:locked="false" />
    <sodipodi:guide
       position="0,0"
       orientation="-1000,0"
       id="guide10229"
       inkscape:locked="false" />
  </sodipodi:namedview>
  <defs
     id="defs2" />
  <g
     inkscape:label="Layer 1"
     inkscape:groupmode="layer"
     id="layer1">
    <path
       style="color:#000000;fill:#000000;stroke-width:1.51024;stroke-linecap:round;stroke-linejoin:round;-inkscape-stroke:none"
       d="m 60.057671,164.84932 a 1.5103878,1.5103878 0 0 0 -1.510237,1.51024 v 4.53071 a 1.5103878,1.5103878 0 0 0 1.510237,1.51023 H 211.56805 l 8.68386,21.70375 a 1.5103878,1.5103878 0 0 0 1.4011,0.94981 h 9.06142 a 1.5103878,1.5103878 0 0 0 1.43354,-1.03239 l 7.55119,-22.65355 a 1.5103878,1.5103878 0 0 0 0.0767,-0.47785 v -4.53071 a 1.5103878,1.5103878 0 0 0 -1.51024,-1.51024 z m 1.510237,3.02047 H 236.75538 v 2.77565 l -7.12938,21.38814 h -6.94945 l -8.68386,-21.70375 a 1.5103878,1.5103878 0 0 0 -1.4011,-0.9498 H 61.567908 Z"
       id="path8001-0-3-4-9-0-2" />
    <path
       style="color:#000000;fill:#000000;stroke-width:1.51024;stroke-linecap:round"
       d="m 194.46875,175.98733 c -9.79782,0 -17.83968,8.0418 -17.83968,17.83966 0,9.79786 8.04186,17.83967 17.83968,17.83967 9.79788,0 17.83967,-8.04183 17.83967,-17.83967 0,-9.79784 -8.0418,-17.83966 -17.83967,-17.83966 z m 0,3.02046 c 8.14679,0 14.81919,6.67245 14.81919,14.8192 0,8.14676 -6.6724,14.8192 -14.81919,14.8192 -8.14672,0 -14.8192,-6.67246 -14.8192,-14.8192 0,-8.14675 6.67248,-14.8192 14.8192,-14.8192 z m 0,4.572 c -5.66815,0 -10.24719,4.57901 -10.24719,10.2472 0,5.66819 4.57906,10.24718 10.24719,10.24718 5.66819,0 10.24425,-4.57899 10.24425,-10.24718 0,-5.66819 -4.57605,-10.2472 -10.24425,-10.2472 z m 0,3.02047 c 4.06868,0 7.22378,3.15806 7.22378,7.22673 0,4.06868 -3.1551,7.22671 -7.22377,7.22671 -4.06861,0 -7.22672,-3.15804 -7.22672,-7.22671 0,-4.06867 3.15811,-7.22673 7.22671,-7.22673 z"
       id="path2031-5-7-7-1-1-1-0-3-1-4-0-2"
       sodipodi:nodetypes="ssssssssssssssssssss" />
    <path
       style="color:#000000;fill:#000000;stroke-width:1.51024;stroke-linecap:round"
       d="m 156.71283,175.98733 c -9.79783,0 -17.83968,8.0418 -17.83968,17.83966 0,9.79786 8.04185,17.83967 17.83968,17.83967 9.79787,0 17.83967,-8.04183 17.83967,-17.83967 0,-9.79784 -8.0418,-17.83966 -17.83967,-17.83966 z m 0,3.02046 c 8.14679,0 14.81919,6.67245 14.81919,14.8192 0,8.14676 -6.6724,14.8192 -14.81919,14.8192 -8.14673,0 -14.8192,-6.67246 -14.8192,-14.8192 0,-8.14675 6.67247,-14.8192 14.8192,-14.8192 z m 0,4.572 c -5.66815,0 -10.24719,4.57901 -10.24719,10.2472 0,5.66819 4.57904,10.24718 10.24719,10.24718 5.66817,0 10.24425,-4.57899 10.24425,-10.24718 0,-5.66819 -4.57606,-10.2472 -10.24425,-10.2472 z m 0,3.02047 c 4.06868,0 7.22378,3.15804 7.22378,7.22673 0,4.06868 -3.1551,7.22671 -7.22378,7.22671 -4.06863,0 -7.22671,-3.15804 -7.22671,-7.22671 0,-4.06867 3.15808,-7.22673 7.22671,-7.22673 z"
       id="path2031-7-1-4-3-5-8-4-4-4-8-8-4"
       sodipodi:nodetypes="ssssssssssssssssssss" />
    <path
       style="color:#000000;fill:#000000;stroke-width:1.51024;stroke-linecap:round"
       d="m 118.95691,175.98733 c -9.79783,0 -17.83968,8.0418 -17.83968,17.83966 0,9.79786 8.04185,17.83967 17.83968,17.83967 9.79788,0 17.83968,-8.04183 17.83968,-17.83967 0,-9.79784 -8.0418,-17.83966 -17.83968,-17.83966 z m 0,3.02046 c 8.14679,0 14.81921,6.67245 14.81921,14.8192 0,8.14676 -6.67242,14.8192 -14.81921,14.8192 -8.14672,0 -14.8192,-6.67246 -14.8192,-14.8192 0,-8.14675 6.67248,-14.8192 14.8192,-14.8192 z m 0,4.572 c -5.66816,0 -10.24719,4.57901 -10.24719,10.2472 0,5.66819 4.57904,10.24718 10.24719,10.24718 5.66817,0 10.24423,-4.57899 10.24423,-10.24718 0,-5.66819 -4.57604,-10.2472 -10.24423,-10.2472 z m 0,3.02047 c 4.06869,0 7.22376,3.15804 7.22376,7.22673 0,4.06868 -3.15508,7.22671 -7.22376,7.22671 -4.06861,0 -7.22671,-3.15804 -7.22671,-7.22671 0,-4.06867 3.1581,-7.22673 7.22671,-7.22673 z"
       id="path2031-7-1-4-1-7-7-7-2-4-2-1-7-0"
       sodipodi:nodetypes="ssssssssssssssssssss" />
    <path
       style="color:#000000;fill:#000000;stroke-width:1.51024;stroke-linecap:round"
       d="m 81.200986,175.98733 c -9.797827,0 -17.839672,8.0418 -17.839672,17.83966 0,9.79786 8.041845,17.83967 17.839672,17.83967 9.797903,0 17.839702,-8.04183 17.839702,-17.83967 0,-9.79784 -8.041799,-17.83966 -17.839702,-17.83966 z m 0,3.02046 c 8.146806,0 14.819229,6.67245 14.819229,14.8192 0,8.14676 -6.672423,14.8192 -14.819229,14.8192 -8.146716,0 -14.819199,-6.67246 -14.819199,-14.8192 0,-8.14675 6.672483,-14.8192 14.819199,-14.8192 z m 0,4.572 c -5.66816,0 -10.247183,4.57901 -10.247183,10.2472 0,5.66819 4.579038,10.24718 10.247183,10.24718 5.668175,0 10.244253,-4.57899 10.244253,-10.24718 0,-5.66819 -4.576062,-10.2472 -10.244253,-10.2472 z m 0,3.02047 c 4.068699,0 7.223765,3.15804 7.223765,7.22673 0,4.06868 -3.155081,7.22671 -7.223765,7.22671 -4.068608,0 -7.22671,-3.15804 -7.22671,-7.22671 0,-4.06867 3.158102,-7.22673 7.22671,-7.22673 z"
       id="path2031-7-1-4-1-7-7-5-9-6-0-5-8-1-7"
       sodipodi:nodetypes="ssssssssssssssssssss" />
    <path
       id="path10419"
       style="color:#000000;fill:#000000;stroke-width:3.02047;stroke-linecap:round;stroke-linejoin:round"
       d="m 81.267389,217.91848 c -0.834084,-1.4e-4 -1.51036,0.6759 -1.510502,1.50998 v 10.57197 H 69.185439 c -0.834084,-1.4e-4 -1.51036,0.6759 -1.510502,1.50998 -1.5e-4,0.8343 0.676211,1.51066 1.510502,1.51051 h 10.571448 v 9.06146 c 1.42e-4,0.83409 0.676418,1.51013 1.510502,1.50998 0.833883,-1.4e-4 1.509844,-0.67609 1.509985,-1.50998 v -9.06146 h 21.143416 c 0.83409,-1.3e-4 1.51014,-0.67641 1.50999,-1.51051 -1.5e-4,-0.83388 -0.67611,-1.50984 -1.50999,-1.50998 H 82.777374 v -10.57197 c -1.41e-4,-0.83388 -0.676102,-1.50984 -1.509985,-1.50998 z"
       sodipodi:nodetypes="scccscccscccscccs" />
    <path
       id="path10425"
       style="color:#000000;fill:#000000;stroke-width:3.02047;stroke-linecap:round;stroke-linejoin:round"
       d="m 194.5349,217.91848 c -0.83389,1.4e-4 -1.50985,0.6761 -1.50999,1.50998 v 10.57197 h -19.63342 c -0.83389,1.4e-4 -1.50985,0.6761 -1.50999,1.50998 -1.6e-4,0.8341 0.67589,1.51038 1.50999,1.51051 h 19.63342 v 9.06146 c 1.4e-4,0.83389 0.6761,1.50985 1.50999,1.50998 0.83388,-1.4e-4 1.50983,-0.6761 1.50998,-1.50998 v -22.65392 c -1.5e-4,-0.83388 -0.6761,-1.50983 -1.50998,-1.50998 z"
       sodipodi:nodetypes="ccccsccccccc" />
    <path
       id="path10461"
       style="color:#000000;fill:#000000;stroke-width:3.02047;stroke-linecap:round;stroke-linejoin:round"
       d="m 16.327168,230.00043 c -0.834084,-1.4e-4 -1.51036,0.6759 -1.510502,1.50998 -1.5e-4,0.8343 0.676211,1.51066 1.510502,1.51051 h 12.081433 c 0.834292,1.5e-4 1.510653,-0.67621 1.510502,-1.51051 -1.41e-4,-0.83408 -0.676417,-1.51012 -1.510502,-1.50998 z"
       sodipodi:nodetypes="csccscc" />
    <path
       id="path18873"
       style="color:#000000;-inkscape-font-specification:'BC Sans, Normal';fill:#000000;stroke-width:0.598927;stroke-linecap:round;stroke-linejoin:round"
       d="m 115.44257,225.65626 c -0.70023,0 -1.32747,0.12024 -1.87224,0.36999 -0.54356,0.24923 -0.98323,0.61586 -1.3007,1.09296 -0.32124,0.48283 -0.48213,1.06078 -0.48213,1.69965 0,0.92491 0.25033,1.70251 0.76068,2.26859 0.49641,0.55062 1.21505,0.99212 2.14767,1.34771 h -0.006 c 0.62192,0.24793 1.1096,0.47353 1.45469,0.67181 0.33564,0.19286 0.55001,0.39654 0.6599,0.58342 0.11397,0.19371 0.1757,0.43931 0.1757,0.7612 0,0.47457 -0.14803,0.79915 -0.48782,1.07227 -0.33172,0.2666 -0.85719,0.42323 -1.59629,0.42323 -0.53865,0 -1.05987,-0.065 -1.56837,-0.19532 -0.50935,-0.13282 -0.93208,-0.28116 -1.26453,-0.43823 -0.19208,-0.092 -0.4095,0.0572 -0.40979,0.28113 v 1.35029 c 4.3e-4,0.11948 0.0656,0.22796 0.16743,0.27855 0.3661,0.18313 0.80882,0.31999 1.3286,0.41755 0.5209,0.0978 1.08356,0.14525 1.68826,0.14525 1.19475,0 2.17809,-0.28898 2.91973,-0.89452 0.74522,-0.60847 1.13378,-1.49919 1.13378,-2.56729 0,-0.62539 -0.12253,-1.16859 -0.38138,-1.61385 l -0.003,-0.003 c -0.24331,-0.43345 -0.60539,-0.79838 -1.06712,-1.08985 -0.44562,-0.29744 -0.98439,-0.56833 -1.6185,-0.81442 -0.56124,-0.216 -1.00234,-0.41827 -1.31516,-0.6041 -0.30307,-0.19056 -0.50438,-0.3932 -0.61806,-0.58653 -0.11297,-0.19213 -0.1757,-0.44208 -0.1757,-0.77567 0,-0.41698 0.12295,-0.70008 0.39584,-0.93895 9.5e-4,-0.001 0.001,-0.002 0.003,-0.003 0.26277,-0.23823 0.68407,-0.38188 1.30121,-0.38188 0.42937,0 0.84917,0.0538 1.25883,0.16278 0.41925,0.11145 0.80312,0.24891 1.15083,0.40875 0.15311,0.0696 0.32984,-0.0121 0.38707,-0.17776 l 0.41237,-1.20819 c 0.0522,-0.15286 -0.016,-0.32261 -0.15607,-0.3881 -0.42237,-0.1971 -0.88062,-0.35494 -1.37872,-0.47387 -0.50591,-0.12085 -1.05496,-0.18035 -1.64383,-0.18035 z"
       sodipodi:nodetypes="cssssccssssscccccsssscccccssccssccccscc" />
    <path
       id="path18879"
       style="color:#000000;-inkscape-font-specification:'BC Sans, Normal';fill:#000000;stroke-width:0.598927;stroke-linecap:round;stroke-linejoin:round"
       d="m 120.72494,225.81336 c -0.15992,3.3e-4 -0.2895,0.13797 -0.28992,0.30798 v 11.19983 c 4.2e-4,0.17001 0.12995,0.30768 0.28992,0.308 h 1.32859 c 0.15992,-3.3e-4 0.28951,-0.13798 0.2899,-0.308 v -4.0509 h 0.91933 c 0.81947,0 1.51521,-0.10265 2.08928,-0.31731 0.56834,-0.20921 1.03802,-0.4892 1.39889,-0.84955 0.001,-9.9e-4 0.004,-0.002 0.006,-0.003 0.35331,-0.36419 0.60996,-0.78471 0.76326,-1.25006 0.15785,-0.46053 0.23927,-0.93983 0.23927,-1.43299 0,-1.11149 -0.35195,-2.03008 -1.04749,-2.66546 -0.70893,-0.64762 -1.78307,-0.93844 -3.19825,-0.93844 z m 1.61849,1.82727 h 1.05318 c 0.88964,0 1.50464,0.17719 1.85827,0.46767 9.5e-4,10e-4 0.001,0.002 0.003,0.003 0.36724,0.29494 0.5488,0.71353 0.5488,1.36787 0,0.76091 -0.20427,1.21595 -0.60718,1.49862 -9.6e-4,0.001 -0.001,0.002 -0.003,0.003 -0.40378,0.28905 -1.09885,0.46509 -2.081,0.46509 h -0.77154 z"
       sodipodi:nodetypes="cccccccsccccsscccsccsccscc" />
    <path
       id="path18885"
       style="color:#000000;-inkscape-font-specification:'BC Sans, Normal';fill:#000000;stroke-width:0.598927;stroke-linecap:round;stroke-linejoin:round"
       d="m 129.65101,225.81336 c -0.15991,3.3e-4 -0.2895,0.13797 -0.28991,0.30798 v 11.19983 c 4.1e-4,0.17001 0.12994,0.30768 0.28991,0.308 h 1.3286 c 0.15991,-3.3e-4 0.2895,-0.13798 0.2899,-0.308 v -4.31757 h 1.63814 l 2.46807,4.47467 c 0.0526,0.094 0.1482,0.15148 0.25114,0.15087 h 1.54875 c 0.22534,-8.4e-4 0.36401,-0.26227 0.24805,-0.46767 l -2.7218,-4.72634 c 0.16689,-0.077 0.337,-0.14177 0.49557,-0.24287 0.28351,-0.17387 0.53531,-0.39503 0.75241,-0.66043 0.21892,-0.26759 0.39226,-0.58178 0.5209,-0.93328 0.145,-0.3793 0.21446,-0.81014 0.21446,-1.29087 0,-1.13994 -0.34343,-2.05469 -1.03921,-2.64169 -0.69825,-0.58908 -1.7324,-0.85267 -3.08664,-0.85266 z m 1.6185,1.84173 h 1.21491 c 0.83262,0 1.41417,0.15747 1.74924,0.41188 9.4e-4,0.001 0.001,0.002 0.003,0.003 0.32322,0.23723 0.49557,0.62947 0.49557,1.29966 0,0.63793 -0.16728,1.0637 -0.49041,1.36529 -0.30207,0.27993 -0.85437,0.45941 -1.68259,0.45941 h -1.28984 z"
       sodipodi:nodetypes="ccccccccccccccscsssccsccscscc" />
    <path
       id="path18891"
       style="color:#000000;-inkscape-font-specification:'BC Sans, Normal';fill:#000000;stroke-width:0.598927;stroke-linecap:round;stroke-linejoin:round"
       d="m 138.83028,225.81336 c -0.16091,-10e-4 -0.29207,0.13691 -0.29248,0.30798 v 11.19983 c 4.1e-4,0.17107 0.13151,0.30918 0.29248,0.308 h 5.88699 c 0.15971,-6.4e-4 0.28899,-0.13828 0.28939,-0.308 v -1.23765 c 10e-4,-0.17097 -0.12852,-0.31043 -0.28939,-0.31108 h -4.27106 v -3.38172 h 4.00337 c 0.16092,0.001 0.2921,-0.13691 0.29249,-0.30799 v -1.22317 c -3.9e-4,-0.17107 -0.13151,-0.30918 -0.29249,-0.308 h -4.00337 v -2.88147 h 4.27106 c 0.15971,-6.4e-4 0.28899,-0.13828 0.28939,-0.308 v -1.24075 c -4.2e-4,-0.16976 -0.12966,-0.30733 -0.28939,-0.30798 z"
       sodipodi:nodetypes="ccccccccccccccccccccc" />
    <path
       id="path18897"
       style="color:#000000;-inkscape-font-specification:'BC Sans, Normal';fill:#000000;stroke-width:0.598927;stroke-linecap:round;stroke-linejoin:round"
       d="m 149.718,225.76581 c -0.11996,4.5e-4 -0.2274,0.0793 -0.27027,0.19844 l -4.11758,11.24427 c -0.0743,0.20331 0.0676,0.42224 0.27285,0.42065 h 1.34308 c 0.11996,-4.6e-4 0.22738,-0.0793 0.27026,-0.19845 l 1.18081,-3.26646 h 3.77806 l 1.19786,3.26957 c 0.0438,0.11796 0.151,0.19538 0.27027,0.19534 h 1.37356 c 0.20409,-3.7e-4 0.3442,-0.21845 0.27026,-0.42065 l -4.10362,-11.24427 c -0.0429,-0.11917 -0.15027,-0.19799 -0.27027,-0.19844 z m 0.59065,2.85202 c 0.0365,0.12797 0.0725,0.2546 0.10285,0.37568 0.003,0.008 0.006,0.0161 0.009,0.0238 0.0496,0.14768 0.0826,0.24875 0.10598,0.31109 l 1.03353,2.96417 h -2.50165 l 1.05005,-2.97295 c 9.6e-4,-10e-4 0.001,-0.002 0.003,-0.003 0.0589,-0.17756 0.12353,-0.41702 0.1974,-0.69866 z"
       sodipodi:nodetypes="ccccccccccccccccccccccccc" />
    <path
       id="path18903"
       style="color:#000000;-inkscape-font-specification:'BC Sans, Normal';fill:#000000;stroke-width:0.598927;stroke-linecap:round;stroke-linejoin:round"
       d="m 156.4628,225.81336 c -0.16091,-10e-4 -0.29208,0.13691 -0.29249,0.30798 v 11.19983 c 4.1e-4,0.17108 0.13151,0.3092 0.29249,0.308 h 2.93626 c 1.78131,0 3.21252,-0.49575 4.24005,-1.50998 1.04342,-1.0307 1.55184,-2.55885 1.55184,-4.50774 0,-1.23083 -0.21682,-2.28821 -0.66869,-3.15951 -0.4496,-0.86694 -1.10303,-1.53391 -1.93889,-1.97817 -0.82426,-0.44364 -1.78657,-0.66041 -2.87528,-0.66041 z m 1.6185,1.82727 h 1.43455 c 1.21863,0 2.11156,0.32714 2.73575,0.96221 9.4e-4,0.001 0.001,0.002 0.003,0.003 0.62178,0.61441 0.9555,1.60889 0.9555,3.05304 0,1.43224 -0.3394,2.45086 -0.9834,3.12126 -0.644,0.6704 -1.62711,1.02474 -3.00602,1.02474 h -1.13947 z"
       sodipodi:nodetypes="ccccscsscsccsscssscc" />
    <path
       id="path4549"
       style="color:#000000;-inkscape-font-specification:'BC Sans, Normal';fill:#000000;stroke-width:0.623128;stroke-linecap:round;stroke-linejoin:round"
       d="m 40.81818,226.09008 c -0.723507,0.20178 -1.424293,0.12253 -2.008663,0.37466 -0.583056,0.25151 -1.054721,0.62183 -1.395263,1.10329 -0.344606,0.48721 -0.516263,1.072 -0.516248,1.71669 0,0.93334 0.266458,1.7175 0.813904,2.28875 0.532494,0.55566 1.303325,1.00129 2.303735,1.36012 0.664958,0.2495 1.1851,0.47577 1.554427,0.67541 0.360025,0.19461 0.590094,0.39845 0.707967,0.58705 0.122178,0.19551 0.19172,0.44519 0.19172,0.76997 0,0.4789 -0.163136,0.80394 -0.527616,1.07953 -0.355812,0.26903 -0.918194,0.42736 -1.711007,0.42736 -0.57676,0 -1.1369,-0.0635 -1.681551,-0.1943 h -0.0026 c -0.544923,-0.13381 -0.998006,-0.28417 -1.353922,-0.44235 -0.206922,-0.0934 -0.441049,0.0588 -0.439767,0.28577 v 1.36012 c -3.21e-4,0.12137 0.06985,0.23187 0.179834,0.28319 0.392722,0.18484 0.867156,0.32015 1.424719,0.41858 0.558758,0.0986 1.162598,0.14779 1.811259,0.14779 1.281585,0 2.337094,-0.29173 3.132625,-0.90279 0.271163,-0.20828 0.429828,-0.52515 0.575159,-0.87023 0.145283,-0.34509 0.261527,-0.72442 0.353983,-1.05006 0.03383,-0.119 0.04626,-0.15603 0.0739,-0.25683 0.02296,-0.0106 0.07338,-0.0351 0.07338,-0.0351 2.73e-4,-1.9e-4 0.08563,-0.0912 0.08578,-0.0915 2.57e-4,-4e-4 0.02606,-0.0524 0.02636,-0.0532 4.68e-4,-0.001 0.01197,-0.043 0.01499,-0.0558 0.003,-0.0136 0.0047,-0.024 0.0062,-0.0326 0.0015,-0.0172 0.0031,-0.0294 0.0031,-0.0439 0.0014,-0.0288 0.0026,-0.0612 0.0026,-0.10077 0,-0.0674 -0.0012,-0.12155 -0.0057,-0.17105 -0.0045,-0.0495 0.01992,-0.0713 -0.05891,-0.2005 -0.0076,-0.0106 -0.01949,-0.0256 -0.02946,-0.0382 -4.08e-4,-0.003 4.08e-4,-0.003 0,-0.006 -0.03081,-0.19943 -0.07001,-0.43098 -0.118339,-0.64596 -0.04772,-0.21266 -0.09266,-0.39809 -0.197404,-0.56896 -0.262374,-0.44128 -0.652986,-0.81069 -1.153418,-1.10639 -0.47666,-0.29842 -1.051659,-0.56986 -1.728577,-0.817 -0.602041,-0.21797 -1.074173,-0.42278 -1.409734,-0.6103 -0.325153,-0.19232 -0.54209,-0.39504 -0.664042,-0.59015 -0.121121,-0.19388 -0.191719,-0.44786 -0.191719,-0.78445 0,-0.42078 0.132021,-0.70617 0.42478,-0.94722 0.0021,-8.4e-4 0.0041,-0.002 0.0062,-0.003 0.28187,-0.24042 0.733267,-0.38344 1.395264,-0.38344 0.460576,0 0.908304,0.0517 1.347721,0.16175 0.449718,0.11236 0.863118,0.25211 1.2361,0.41341 0.164727,0.0708 0.355034,-0.0118 0.415996,-0.18035 l 0.44235,-1.21801 c 0.05635,-0.15458 -0.01719,-0.32633 -0.167948,-0.39223 -0.453086,-0.19893 -0.946756,-0.35798 -1.481047,-0.478 -0.542687,-0.12187 -1.152164,-0.35262 -1.760616,-0.18294 z"
       sodipodi:nodetypes="scssscsssssccccccssssscccccccsscccccccccsccscccccsss" />
    <path
       id="path4555"
       style="color:#000000;-inkscape-font-specification:'BC Sans, Normal';fill:#000000;stroke-width:0.623128;stroke-linecap:round;stroke-linejoin:round"
       d="m 49.475533,226.24924 -2.991032,5.2e-4 c -0.172907,-5.8e-4 -0.313223,0.13974 -0.312642,0.31264 v 11.30009 c 0.0011,0.1717 0.140944,0.31012 0.312642,0.30954 h 1.424719 c 0.170488,-0.001 0.308421,-0.13905 0.309542,-0.30954 v -4.08812 h 0.988053 c 0.879047,0 1.623342,-0.10222 2.23914,-0.31885 0.611586,-0.21127 1.116291,-0.49383 1.504301,-0.85834 10e-4,-0.001 0.0021,-0.002 0.0031,-0.003 0.378993,-0.36747 0.655229,-0.79278 0.819588,-1.26246 0.169297,-0.4647 0.256817,-0.95025 0.256832,-1.44797 0,-1.12162 -0.37786,-2.04601 -1.123963,-2.68718 -0.760463,-0.65353 -1.912239,-0.94723 -3.430281,-0.94723 z m -1.256771,1.84072 h 1.129646 c 0.954273,0 1.614854,0.1818 1.994194,0.47491 9.99e-4,10e-4 0.0021,0.002 0.0031,0.003 0.393929,0.29764 0.587044,0.71995 0.587044,1.38027 0,0.76784 -0.219973,1.22835 -0.652156,1.51361 -0.433136,0.2917 -1.179414,0.4687 -2.232939,0.4687 h -0.82889 z"
       sodipodi:nodetypes="ccccccccscsccssccsccscsccs" />
    <path
       id="path4561"
       style="color:#000000;-inkscape-font-specification:'BC Sans, Normal';fill:#000000;stroke-width:0.623128;stroke-linecap:round;stroke-linejoin:round"
       d="m 60.917211,226.09008 c -1.020968,0.63811 -2.2493,0.26129 -3.11764,0.79065 -0.862888,0.5155 -1.527294,1.24809 -1.973523,2.17403 -0.434298,0.91315 -0.649056,1.96433 -0.649056,3.14141 0,1.21515 0.195617,2.28639 0.59583,3.2091 0.001,0.001 0.0021,0.002 0.0031,0.003 0.412899,0.92625 1.038292,1.65786 1.861385,2.16524 0.829226,0.51117 1.850746,0.75809 3.043742,0.75809 0.634903,0 1.18253,-0.0375 1.648995,-0.11524 0.473429,-0.077 0.929976,-0.1972 1.371493,-0.36277 0.122249,-0.0452 0.203474,-0.16164 0.203605,-0.29197 v -1.2361 c -0.0012,-0.20659 -0.199395,-0.35488 -0.397909,-0.29765 -0.422986,0.12384 -0.852865,0.22697 -1.286225,0.30954 -0.422581,0.0805 -0.86591,0.12092 -1.333253,0.12092 -1.231203,0 -2.093058,-0.36804 -2.684074,-1.10019 v -0.003 c -0.589716,-0.75518 -0.899687,-1.78996 -0.899687,-3.14451 0,-1.36278 0.332213,-2.39055 0.970484,-3.13521 0.638225,-0.74458 1.484366,-1.10898 2.628263,-1.10898 0.480497,0 0.914533,0.0601 1.303796,0.17674 8.61e-4,1e-5 0.0017,1e-5 0.0026,0 0.420646,0.12308 0.797183,0.25867 1.129647,0.40979 0.15489,0.0703 0.337502,0.003 0.410311,-0.15038 l 0.569474,-1.20044 c 0.07319,-0.15322 0.01023,-0.33684 -0.141593,-0.4129 -0.936331,-0.46817 -2.21592,-1.35157 -3.259749,-0.69918 z"
       sodipodi:nodetypes="sccsccsscccccssccsssccccccss" />
  </g>
</svg>
