<?xml version="1.0" encoding="UTF-8" standalone="no"?>
<svg
   width="1000"
   height="1000"
   viewBox="0 0 264.58333 264.58333"
   version="1.1"
   id="svg5"
   inkscape:version="1.2 (dc2aedaf03, 2022-05-15)"
   sodipodi:docname="four_U.svg"
   xmlns:inkscape="http://www.inkscape.org/namespaces/inkscape"
   xmlns:sodipodi="http://sodipodi.sourceforge.net/DTD/sodipodi-0.dtd"
   xmlns="http://www.w3.org/2000/svg"
   xmlns:svg="http://www.w3.org/2000/svg">
  <sodipodi:namedview
     id="namedview7"
     pagecolor="#ffffff"
     bordercolor="#000000"
     borderopacity="0.25"
     inkscape:showpageshadow="2"
     inkscape:pageopacity="0.0"
     inkscape:pagecheckerboard="0"
     inkscape:deskcolor="#d1d1d1"
     inkscape:document-units="px"
     showgrid="true"
     showguides="true"
     inkscape:zoom="0.914906"
     inkscape:cx="969.49851"
     inkscape:cy="596.78262"
     inkscape:window-width="3072"
     inkscape:window-height="1622"
     inkscape:window-x="-11"
     inkscape:window-y="-11"
     inkscape:window-maximized="1"
     inkscape:current-layer="layer1">
    <inkscape:grid
       type="xygrid"
       id="grid182"
       originx="0"
       originy="0" />
    <sodipodi:guide
       position="-99.999999,52.916666"
       orientation="0,1"
       id="guide184"
       inkscape:locked="false"
       inkscape:label=""
       inkscape:color="rgb(0,134,229)" />
    <sodipodi:guide
       position="-99.999999,211.66666"
       orientation="0,1"
       id="guide186"
       inkscape:locked="false"
       inkscape:label=""
       inkscape:color="rgb(0,134,229)" />
    <sodipodi:guide
       position="132.29166,-835.41666"
       orientation="-1,0"
       id="guide188"
       inkscape:locked="false"
       inkscape:label=""
       inkscape:color="rgb(0,134,229)" />
    <sodipodi:guide
       position="0,264.58333"
       orientation="0,3779.5276"
       id="guide1770"
       inkscape:locked="false" />
    <sodipodi:guide
       position="999.99999,264.58333"
       orientation="3779.5276,0"
       id="guide1772"
       inkscape:locked="false" />
    <sodipodi:guide
       position="999.99999,-735.41666"
       orientation="0,-3779.5276"
       id="guide1774"
       inkscape:locked="false" />
    <sodipodi:guide
       position="0,-735.41666"
       orientation="-3779.5276,0"
       id="guide1776"
       inkscape:locked="false" />
    <sodipodi:guide
       position="-99.999999,80.697916"
       orientation="0,1"
       id="guide31317"
       inkscape:locked="false"
       inkscape:label=""
       inkscape:color="rgb(0,134,229)" />
    <sodipodi:guide
       position="350.57291,-525.41666"
       orientation="0,1"
       id="guide11435"
       inkscape:locked="false"
       inkscape:label="Middle Universal Line"
       inkscape:color="rgb(0,134,229)" />
    <sodipodi:guide
       position="0,264.58333"
       orientation="0,1000"
       id="guide13470"
       inkscape:locked="false" />
    <sodipodi:guide
       position="264.58333,264.58333"
       orientation="1000,0"
       id="guide13472"
       inkscape:locked="false" />
    <sodipodi:guide
       position="264.58333,0"
       orientation="0,-1000"
       id="guide13474"
       inkscape:locked="false" />
    <sodipodi:guide
       position="0,0"
       orientation="-1000,0"
       id="guide13476"
       inkscape:locked="false" />
  </sodipodi:namedview>
  <defs
     id="defs2" />
  <g
     inkscape:label="Layer 1"
     inkscape:groupmode="layer"
     id="layer1">
    <path
       style="color:#000000;fill:#000000;stroke-width:3.4469;stroke-linecap:round"
       d="m 255.61676,57.848556 c -22.36214,0 -40.71656,18.354287 -40.71656,40.716531 0,22.362243 18.35442,40.716563 40.71656,40.716563 22.36232,0 40.71657,-18.35435 40.71657,-40.716563 0,-22.36221 -18.35429,-40.716531 -40.71657,-40.716531 z m 0,6.893776 c 18.59392,0 33.82276,15.228943 33.82276,33.822755 0,18.593843 -15.22884,33.822753 -33.82276,33.822753 -18.59374,0 -33.82275,-15.22894 -33.82275,-33.822753 0,-18.593812 15.22901,-33.822755 33.82275,-33.822755 z m 0,10.434953 c -12.93675,0 -23.38777,10.450947 -23.38777,23.387802 0,12.936853 10.45106,23.387763 23.38777,23.387763 12.93686,0 23.38108,-10.45091 23.38108,-23.387763 0,-12.936855 -10.44419,-23.387802 -23.38108,-23.387802 z m 0,6.89381 c 9.28621,0 16.48727,7.207823 16.48727,16.493992 0,9.286203 -7.20106,16.493953 -16.48723,16.493953 -9.28603,0 -16.494,-7.20778 -16.494,-16.493953 0,-9.286169 7.20797,-16.493992 16.49396,-16.493992 z"
       id="path2031-5-7-7-1-1-1-0-3-1-4-0-6-5-4"
       sodipodi:nodetypes="ssssssssssssssssssss" />
    <path
       style="color:#000000;fill:#000000;stroke-width:3.4469;stroke-linecap:round"
       d="m 169.44414,57.848556 c -22.36218,0 -40.71657,18.354287 -40.71657,40.716531 0,22.362243 18.35439,40.716563 40.71657,40.716563 22.36228,0 40.71656,-18.35435 40.71656,-40.716563 0,-22.36221 -18.35428,-40.716531 -40.71656,-40.716531 z m 0,6.893776 c 18.59391,0 33.82275,15.228943 33.82275,33.822755 0,18.593843 -15.22884,33.822753 -33.82275,33.822753 -18.59378,0 -33.82276,-15.22894 -33.82276,-33.822753 0,-18.593812 15.22898,-33.822755 33.82276,-33.822755 z m 0,10.434953 c -12.93675,0 -23.38777,10.450947 -23.38777,23.387802 0,12.936853 10.45102,23.387763 23.38777,23.387763 12.93682,0 23.38108,-10.45091 23.38108,-23.387763 0,-12.936855 -10.44423,-23.387802 -23.38108,-23.387802 z m 0,6.89381 c 9.2862,0 16.48727,7.207789 16.48727,16.493992 0,9.286203 -7.20107,16.493953 -16.48727,16.493953 -9.28607,0 -16.49396,-7.20778 -16.49396,-16.493953 0,-9.286169 7.20789,-16.493992 16.49396,-16.493992 z"
       id="path2031-7-1-4-3-5-8-4-4-4-8-8-6-8-8"
       sodipodi:nodetypes="ssssssssssssssssssss" />
    <path
       style="color:#000000;fill:#000000;stroke-width:3.4469;stroke-linecap:round"
       d="m 83.271512,57.848556 c -22.362175,0 -40.716565,18.354287 -40.716565,40.716531 0,22.362243 18.35439,40.716563 40.716565,40.716563 22.362318,0 40.716598,-18.35435 40.716598,-40.716563 0,-22.36221 -18.35428,-40.716531 -40.716598,-40.716531 z m 0,6.893776 c 18.593918,0 33.822788,15.228943 33.822788,33.822755 0,18.593843 -15.22887,33.822753 -33.822788,33.822753 -18.593743,0 -33.822755,-15.22894 -33.822755,-33.822753 0,-18.593812 15.229012,-33.822755 33.822755,-33.822755 z m 0,10.434953 c -12.936786,0 -23.387767,10.450947 -23.387767,23.387802 0,12.936853 10.451016,23.387763 23.387767,23.387763 12.936821,0 23.381048,-10.45091 23.381048,-23.387763 0,-12.936855 -10.444193,-23.387802 -23.381048,-23.387802 z m 0,6.89381 c 9.286238,0 16.487236,7.207789 16.487236,16.493992 0,9.286203 -7.201032,16.493953 -16.487236,16.493953 -9.286031,0 -16.493957,-7.20778 -16.493957,-16.493953 0,-9.286169 7.207926,-16.493992 16.493957,-16.493992 z"
       id="path2031-7-1-4-1-7-7-7-2-4-2-1-7-5-4-2"
       sodipodi:nodetypes="ssssssssssssssssssss" />
    <path
       style="color:#000000;fill:#000000;stroke-width:3.4469;stroke-linecap:round"
       d="m -2.9011125,57.848556 c -22.3621755,0 -40.7165655,18.354287 -40.7165655,40.716531 0,22.362243 18.35439,40.716563 40.7165655,40.716563 22.3623475,0 40.7166345,-18.35435 40.7166345,-40.716563 0,-22.36221 -18.354287,-40.716531 -40.7166345,-40.716531 z m 0,6.893776 c 18.5939495,0 33.8228245,15.228943 33.8228245,33.822755 0,18.593843 -15.228875,33.822753 -33.8228245,33.822753 -18.5937435,0 -33.8227555,-15.22894 -33.8227555,-33.822753 0,-18.593812 15.229012,-33.822755 33.8227555,-33.822755 z m 0,10.434953 c -12.9367865,0 -23.3877675,10.450947 -23.3877675,23.387802 0,12.936853 10.451016,23.387763 23.3877675,23.387763 12.9368205,0 23.3810805,-10.45091 23.3810805,-23.387763 0,-12.936855 -10.444226,-23.387802 -23.3810805,-23.387802 z m 0,6.89381 c 9.2862378,0 16.4872355,7.207789 16.4872355,16.493992 0,9.286203 -7.2010322,16.493953 -16.4872355,16.493953 -9.2860315,0 -16.4939575,-7.20778 -16.4939575,-16.493953 0,-9.286169 7.207926,-16.493992 16.4939575,-16.493992 z"
       id="path2031-7-1-4-1-7-7-5-9-6-0-5-8-1-9-1-3"
       sodipodi:nodetypes="ssssssssssssssssssss" />
    <path
       id="path10863"
       style="color:#000000;-inkscape-font-specification:'BC Sans, Normal';fill:#000000;stroke-width:1.40378;stroke-linecap:round;stroke-linejoin:round"
       d="M 74.391324 171.003 L 74.391841 171.00403 C 72.699722 171.00403 71.190763 171.27748 69.874287 171.84532 C 68.560776 172.41192 67.490786 173.24481 66.723575 174.32941 C 65.947298 175.42701 65.558788 176.74145 65.558788 178.19377 C 65.558788 180.29642 66.163652 182.06421 67.396919 183.35108 C 68.595338 184.60162 70.330065 185.60599 72.580582 186.41394 C 74.083499 186.97754 75.25447 187.49126 76.088378 187.94201 C 76.899503 188.38049 77.418115 188.84372 77.683629 189.26855 C 77.959037 189.70892 78.114611 190.26694 78.114611 190.99868 C 78.114611 192.07748 77.75079 192.81488 76.92967 193.43574 C 76.128093 194.04184 74.858105 194.39847 73.072025 194.39847 C 71.770405 194.39847 70.51093 194.25017 69.282075 193.95405 C 68.051221 193.6521 67.028783 193.3148 66.225414 192.95773 A 0.70196 0.70196 0 0 0 65.242528 193.59748 L 65.242528 196.66706 A 0.70196 0.70196 0 0 0 65.646638 197.3001 C 66.531354 197.71642 67.595043 198.02763 68.851094 198.2494 C 70.109902 198.47173 71.469668 198.57909 72.930948 198.57909 C 75.818038 198.57909 78.200902 197.92273 79.993049 196.54614 C 81.793917 195.16286 82.726216 193.13742 82.726216 190.70929 C 82.726216 189.28754 82.429336 188.05248 81.803791 187.04026 L 81.797073 187.03303 C 81.209929 186.04898 80.338762 185.21781 79.225137 184.55566 L 79.211701 184.54842 C 78.137062 183.87503 76.840761 183.26156 75.313748 182.70409 A 0.70196 0.70196 0 0 0 75.306514 182.70409 C 73.950261 182.21304 72.884904 181.75298 72.12893 181.33053 C 71.396566 180.89732 70.909166 180.43732 70.634447 179.9978 C 70.361453 179.56108 70.210184 178.99185 70.210184 178.23356 C 70.210184 177.28556 70.506633 176.64286 71.166198 176.09984 A 0.70196 0.70196 0 0 0 71.173433 176.09261 C 71.808455 175.55103 72.832773 175.22444 74.324145 175.22444 C 75.361731 175.22444 76.370185 175.34689 77.360135 175.59445 C 78.373249 175.8478 79.300076 176.16025 80.140327 176.52359 A 0.70196 0.70196 0 0 0 81.076187 176.11948 L 82.072509 173.37288 A 0.70196 0.70196 0 0 0 81.695788 172.49076 C 80.675126 172.04266 79.566797 171.6842 78.363174 171.41382 C 77.140593 171.13911 75.814377 171.003 74.391324 171.003 z " />
    <path
       id="path10869"
       style="color:#000000;-inkscape-font-specification:'BC Sans, Normal';fill:#000000;stroke-width:1.40378;stroke-linecap:round;stroke-linejoin:round"
       d="M 93.895043 171.36008 L 87.155919 171.3606 A 0.70196 0.70196 0 0 0 86.455704 172.06081 L 86.455704 197.52231 A 0.70196 0.70196 0 0 0 87.155919 198.22252 L 90.367093 198.22252 A 0.70196 0.70196 0 0 0 91.067308 197.52231 L 91.067308 188.31253 L 93.288878 188.31253 C 95.269157 188.31253 96.950943 188.08021 98.338182 187.59216 C 99.7116 187.11657 100.8525 186.47921 101.72454 185.65998 A 0.70196 0.70196 0 0 0 101.73177 185.65275 C 102.58178 184.82849 103.20505 183.87783 103.57611 182.82553 L 103.57611 182.8183 C 103.95909 181.76944 104.1554 180.67676 104.1554 179.55338 C 104.1554 177.02659 103.31127 174.93874 101.63049 173.49432 C 99.917311 172.02204 97.314817 171.36008 93.895043 171.36008 z M 91.067308 175.51435 L 93.612373 175.51435 C 95.762171 175.51435 97.248017 175.91805 98.102538 176.57837 A 0.70196 0.70196 0 0 0 98.109773 176.58508 C 98.997247 177.2556 99.43579 178.20795 99.43579 179.69549 C 99.43579 181.42525 98.941791 182.45943 97.968179 183.102 A 0.70196 0.70196 0 0 0 97.961461 183.10923 C 96.985747 183.76639 95.305709 184.16602 92.932311 184.16602 L 91.067308 184.16602 L 91.067308 175.51435 z " />
    <path
       id="path10875"
       style="color:#000000;-inkscape-font-specification:'BC Sans, Normal';fill:#000000;stroke-width:1.40378;stroke-linecap:round;stroke-linejoin:round"
       d="M 108.72618 171.3606 A 0.70196 0.70196 0 0 0 108.02596 172.06081 L 108.02596 197.52231 A 0.70196 0.70196 0 0 0 108.72618 198.22252 L 111.93735 198.22252 A 0.70196 0.70196 0 0 0 112.63757 197.52231 L 112.63757 187.70637 L 116.59598 187.70637 L 122.56771 197.87888 A 0.70196 0.70196 0 0 0 123.16664 198.22252 L 126.9168 198.22252 A 0.70196 0.70196 0 0 0 127.50901 197.15851 L 120.93164 186.41394 C 121.33755 186.2378 121.75788 186.0935 122.14345 185.86204 L 122.13001 185.86204 C 122.81512 185.46682 123.42335 184.96418 123.94799 184.36084 C 124.48022 183.7488 124.90213 183.03159 125.21354 182.2266 C 125.56072 181.36708 125.72514 180.39279 125.72514 179.30482 C 125.72514 176.71336 124.89555 174.6339 123.21418 173.2995 C 121.52684 171.96034 119.02724 171.3606 115.75469 171.3606 L 108.72618 171.3606 z M 112.63757 175.54794 L 115.57279 175.54794 C 117.58482 175.54794 118.99075 175.90544 119.80044 176.4838 A 0.70196 0.70196 0 0 0 119.81387 176.49103 C 120.59495 177.03034 121.00553 177.92288 121.00553 179.44641 C 121.00553 180.89663 120.60147 181.86451 119.82059 182.5501 C 119.09065 183.18646 117.75614 183.59344 115.75469 183.59344 L 112.63757 183.59344 L 112.63757 175.54794 z " />
    <path
       id="path10881"
       style="color:#000000;-inkscape-font-specification:'BC Sans, Normal';fill:#000000;stroke-width:1.40378;stroke-linecap:round;stroke-linejoin:round"
       d="M 130.9088 171.3606 A 0.70196 0.70196 0 0 0 130.20187 172.06081 L 130.20187 197.52231 A 0.70196 0.70196 0 0 0 130.9088 198.22252 L 145.13429 198.22252 A 0.70196 0.70196 0 0 0 145.83399 197.52231 L 145.83399 194.70801 A 0.70196 0.70196 0 0 0 145.13429 194.00108 L 134.82019 194.00108 L 134.82019 186.31317 L 144.49454 186.31317 A 0.70196 0.70196 0 0 0 145.19475 185.61296 L 145.19475 182.83225 A 0.70196 0.70196 0 0 0 144.49454 182.13255 L 134.82019 182.13255 L 134.82019 175.58205 L 145.13429 175.58205 A 0.70196 0.70196 0 0 0 145.83399 174.88183 L 145.83399 172.06081 A 0.70196 0.70196 0 0 0 145.13429 171.3606 L 130.9088 171.3606 z " />
    <path
       id="path10887"
       style="color:#000000;-inkscape-font-specification:'BC Sans, Normal';fill:#000000;stroke-width:1.40378;stroke-linecap:round;stroke-linejoin:round"
       d="M 157.21831 171.25311 A 0.70196 0.70196 0 0 0 156.56564 171.70425 L 146.62206 197.26651 A 0.70196 0.70196 0 0 0 147.27473 198.22252 L 150.52001 198.22252 A 0.70196 0.70196 0 0 0 151.17268 197.77139 L 154.02729 190.34549 L 163.15645 190.34549 L 166.05136 197.77811 A 0.70196 0.70196 0 0 0 166.70403 198.22252 L 170.02321 198.22252 A 0.70196 0.70196 0 0 0 170.6764 197.26651 L 160.76641 171.70425 A 0.70196 0.70196 0 0 0 160.1065 171.25311 L 157.21831 171.25311 z M 158.64561 177.73695 C 158.73386 178.02771 158.82128 178.31604 158.89469 178.59116 A 0.70196 0.70196 0 0 0 158.91485 178.64491 C 159.03477 178.98064 159.11394 179.2101 159.17064 179.35184 L 161.66868 186.09096 L 155.62978 186.09096 L 158.16089 179.33169 A 0.70196 0.70196 0 0 0 158.16812 179.32445 C 158.31049 178.92082 158.46716 178.37721 158.64561 177.73695 z " />
    <path
       id="path10893"
       style="color:#000000;-inkscape-font-specification:'BC Sans, Normal';fill:#000000;stroke-width:1.40378;stroke-linecap:round;stroke-linejoin:round"
       d="M 173.51706 171.3606 A 0.70196 0.70196 0 0 0 172.81684 172.06081 L 172.81684 197.52231 A 0.70196 0.70196 0 0 0 173.51706 198.22252 L 180.61275 198.22252 C 184.91732 198.22252 188.3761 197.09481 190.85915 194.78914 C 193.3806 192.446 194.61603 188.97263 194.61603 184.54222 C 194.61603 181.74409 194.08532 179.33993 192.99339 177.3592 C 191.90692 175.38837 190.32776 173.87174 188.30788 172.8618 C 186.31607 171.85331 183.99087 171.3606 181.35999 171.3606 L 173.51706 171.3606 z M 177.42844 175.51435 L 180.89593 175.51435 C 183.84082 175.51435 185.99857 176.25863 187.5069 177.70233 A 0.70196 0.70196 0 0 0 187.51362 177.70956 C 189.01619 179.10632 189.82304 181.36719 189.82304 184.65023 C 189.82304 187.90616 189.00269 190.22238 187.44644 191.74643 C 185.8902 193.27048 183.51445 194.07549 180.18228 194.07549 L 177.42896 194.07549 L 177.42844 175.51435 z " />
    <path
       id="path10899"
       style="color:#000000;fill:#000000;stroke-width:6.89381;stroke-linecap:round;stroke-linejoin:round"
       d="M -2.9011149 153.06921 A 3.446905 3.446905 0 0 0 -6.3479329 156.51603 L -6.3479329 208.21985 A 3.446905 3.446905 0 0 0 -2.9011149 211.66666 A 3.446905 3.446905 0 0 0 0.54570312 208.21985 L 0.54570312 187.53842 L 48.802705 187.53842 A 3.446905 3.446905 0 0 0 52.249523 184.0916 A 3.446905 3.446905 0 0 0 48.802705 180.64427 L 0.54570312 180.64427 L 0.54570312 156.51603 A 3.446905 3.446905 0 0 0 -2.9011149 153.06921 z " />
    <path
       id="path10905"
       style="color:#000000;fill:#000000;stroke-width:6.89381;stroke-linecap:round;stroke-linejoin:round"
       d="M 255.61695 153.06921 A 3.446905 3.446905 0 0 0 252.17013 156.51603 L 252.17013 180.64427 L 207.35995 180.64427 A 3.446905 3.446905 0 0 0 203.91313 184.0916 A 3.446905 3.446905 0 0 0 207.35995 187.53842 L 252.17013 187.53842 L 252.17013 208.21985 A 3.446905 3.446905 0 0 0 255.61695 211.66666 A 3.446905 3.446905 0 0 0 259.06377 208.21985 L 259.06377 156.51603 A 3.446905 3.446905 0 0 0 255.61695 153.06921 z " />
  </g>
</svg>
