<?xml version="1.0" encoding="UTF-8" standalone="no"?>
<svg
   width="1000"
   height="1000"
   viewBox="0 0 264.58333 264.58333"
   version="1.1"
   id="svg5"
   inkscape:version="1.2 (dc2aedaf03, 2022-05-15)"
   sodipodi:docname="M_C_four_S.svg"
   xmlns:inkscape="http://www.inkscape.org/namespaces/inkscape"
   xmlns:sodipodi="http://sodipodi.sourceforge.net/DTD/sodipodi-0.dtd"
   xmlns="http://www.w3.org/2000/svg"
   xmlns:svg="http://www.w3.org/2000/svg">
  <sodipodi:namedview
     id="namedview7"
     pagecolor="#ffffff"
     bordercolor="#000000"
     borderopacity="0.25"
     inkscape:showpageshadow="2"
     inkscape:pageopacity="0.0"
     inkscape:pagecheckerboard="0"
     inkscape:deskcolor="#d1d1d1"
     inkscape:document-units="px"
     showgrid="true"
     showguides="true"
     inkscape:zoom="1.829812"
     inkscape:cx="518.63251"
     inkscape:cy="780.95454"
     inkscape:window-width="3072"
     inkscape:window-height="1622"
     inkscape:window-x="-11"
     inkscape:window-y="-11"
     inkscape:window-maximized="1"
     inkscape:current-layer="layer1">
    <inkscape:grid
       type="xygrid"
       id="grid182"
       originx="0"
       originy="0" />
    <sodipodi:guide
       position="-99.999999,52.916666"
       orientation="0,1"
       id="guide184"
       inkscape:locked="false"
       inkscape:label=""
       inkscape:color="rgb(0,134,229)" />
    <sodipodi:guide
       position="-99.999999,211.66666"
       orientation="0,1"
       id="guide186"
       inkscape:locked="false"
       inkscape:label=""
       inkscape:color="rgb(0,134,229)" />
    <sodipodi:guide
       position="132.29166,-835.41666"
       orientation="-1,0"
       id="guide188"
       inkscape:locked="false"
       inkscape:label=""
       inkscape:color="rgb(0,134,229)" />
    <sodipodi:guide
       position="0,264.58333"
       orientation="0,3779.5276"
       id="guide1770"
       inkscape:locked="false" />
    <sodipodi:guide
       position="999.99999,264.58333"
       orientation="3779.5276,0"
       id="guide1772"
       inkscape:locked="false" />
    <sodipodi:guide
       position="999.99999,33.072916"
       orientation="0,1"
       id="guide1774"
       inkscape:locked="false"
       inkscape:label=""
       inkscape:color="rgb(0,134,229)" />
    <sodipodi:guide
       position="0,-735.41666"
       orientation="-3779.5276,0"
       id="guide1776"
       inkscape:locked="false" />
    <sodipodi:guide
       position="-99.999999,88.635416"
       orientation="0,1"
       id="guide31317"
       inkscape:locked="false"
       inkscape:label="Wheel Top"
       inkscape:color="rgb(0,134,229)" />
    <sodipodi:guide
       position="0,264.58333"
       orientation="0,1000"
       id="guide8848"
       inkscape:locked="false" />
    <sodipodi:guide
       position="264.58333,264.58333"
       orientation="1000,0"
       id="guide8850"
       inkscape:locked="false" />
    <sodipodi:guide
       position="264.58333,0"
       orientation="0,-1000"
       id="guide8852"
       inkscape:locked="false" />
    <sodipodi:guide
       position="0,0"
       orientation="-1000,0"
       id="guide8854"
       inkscape:locked="false" />
  </sodipodi:namedview>
  <defs
     id="defs2" />
  <g
     inkscape:label="Layer 1"
     inkscape:groupmode="layer"
     id="layer1">
    <path
       id="path1006-1-0-2-7-8-8"
       style="color:#000000;fill:#000000;stroke-width:1.51024;stroke-linecap:round;stroke-linejoin:round;-inkscape-stroke:none"
       d="M 44.557486 133.13451 A 1.5103878 1.5103878 0 0 0 43.191678 134.00164 L 31.109729 159.67552 A 1.5103878 1.5103878 0 0 0 30.965035 160.31838 L 30.965035 193.54374 A 1.5102368 1.5102368 0 0 0 30.988289 193.6905 A 1.5103878 1.5103878 0 0 0 31.019812 193.88945 A 1.5102368 1.5102368 0 0 0 31.084924 194.10029 A 1.5103878 1.5103878 0 0 0 31.181559 194.28995 A 1.5102368 1.5102368 0 0 0 31.287496 194.46565 A 1.5103878 1.5103878 0 0 0 31.564998 194.74315 A 1.5102368 1.5102368 0 0 0 31.701424 194.82376 A 1.5103878 1.5103878 0 0 0 31.945853 194.9483 A 1.5102368 1.5102368 0 0 0 32.10605 194.99585 A 1.5103878 1.5103878 0 0 0 32.233691 195.03357 L 71.201855 201.34585 A 1.5103878 1.5103878 0 0 0 72.953686 199.85602 L 72.953686 192.75309 A 1.5103878 1.5103878 0 0 0 72.917512 192.42649 L 86.4371 177.96381 A 1.5103878 1.5103878 0 0 0 86.843794 176.93132 L 86.843794 134.64449 A 1.5103878 1.5103878 0 0 0 85.333808 133.13451 L 44.557486 133.13451 z M 45.516084 136.155 L 83.823306 136.155 L 83.823306 176.33549 L 70.069107 191.05139 A 1.5102368 1.5102368 0 0 0 69.919246 191.27359 L 33.985522 192.00275 L 33.985522 160.65479 L 45.516084 136.155 z M 69.933198 194.29615 L 69.933198 198.08041 L 49.158756 194.71473 L 69.933198 194.29615 z " />
    <path
       style="color:#000000;fill:#000000;stroke-width:1.51024;stroke-linecap:round;stroke-linejoin:round;-inkscape-stroke:none"
       d="m 47.577786,137.66506 a 1.5103878,1.5103878 0 0 0 -1.371597,0.87606 l -9.061421,19.63308 a 1.5103878,1.5103878 0 0 0 1.371597,2.14441 h 28.694499 a 1.5103878,1.5103878 0 0 0 1.510237,-1.51024 V 139.1753 a 1.5103878,1.5103878 0 0 0 -1.510237,-1.51024 z m 0.967488,3.02047 h 17.155354 v 16.61261 H 40.879055 Z"
       id="path1158-9-2-5-0-9-4" />
    <path
       style="color:#000000;fill:#000000;stroke-width:1.51024;stroke-linecap:round;stroke-linejoin:round;-inkscape-stroke:none"
       d="m 73.251812,137.66506 a 1.5103878,1.5103878 0 0 0 -1.510237,1.51024 v 19.63307 a 1.5103878,1.5103878 0 0 0 1.510237,1.51024 h 7.551184 a 1.5103878,1.5103878 0 0 0 1.510236,-1.51024 V 139.1753 a 1.5103878,1.5103878 0 0 0 -1.510236,-1.51024 z m 1.510236,3.02047 h 4.530711 v 16.61261 h -4.530711 z"
       id="path1160-3-0-11-4-5-3" />
    <path
       id="path8001-2"
       style="color:#000000;fill:#000000;stroke-width:1.51024;stroke-linecap:round;stroke-linejoin:round"
       d="M 147.39204 132.32629 L 89.843611 133.13451 A 1.5103878 1.5103878 0 0 0 88.354296 134.64449 L 88.354296 166.35935 L 88.354296 170.89034 A 1.5103878 1.5103878 0 0 0 89.864281 172.40033 L 230.80296 172.40033 L 239.48719 194.10443 A 1.5103878 1.5103878 0 0 0 240.88814 195.05424 L 249.9496 195.05424 A 1.5103878 1.5103878 0 0 0 251.3831 194.02175 L 258.93406 171.36835 A 1.5103878 1.5103878 0 0 0 259.01106 170.89034 L 259.01106 166.35935 A 1.5103878 1.5103878 0 0 0 257.50056 164.84937 L 248.4391 164.84937 L 158.92828 164.84937 L 148.85189 133.37635 A 1.5103878 1.5103878 0 0 0 147.39204 132.32629 z M 146.31562 135.36125 L 155.75483 164.84937 L 91.374783 164.84937 L 91.374783 136.13432 L 146.31562 135.36125 z M 91.374783 167.86985 L 157.82499 167.86985 L 248.4391 167.86985 L 255.99057 167.86985 L 255.99057 170.6454 L 248.86129 192.03375 L 241.91185 192.03375 L 233.22762 170.32965 A 1.5103878 1.5103878 0 0 0 231.82667 169.37984 L 91.374783 169.37984 L 91.374783 167.86985 z " />
    <path
       style="color:#000000;fill:#000000;stroke-width:1.51024;stroke-linecap:round"
       d="m 213.70383,175.98733 c -9.79781,0 -17.83967,8.0418 -17.83967,17.83966 0,9.79786 8.04186,17.83967 17.83967,17.83967 9.79789,0 17.83968,-8.04183 17.83968,-17.83967 0,-9.79784 -8.0418,-17.83966 -17.83968,-17.83966 z m 0,3.02046 c 8.1468,0 14.8192,6.67245 14.8192,14.8192 0,8.14676 -6.6724,14.8192 -14.8192,14.8192 -8.14671,0 -14.81919,-6.67245 -14.81919,-14.8192 0,-8.14675 6.67248,-14.8192 14.81919,-14.8192 z m 0,4.572 c -5.66814,0 -10.24718,4.57901 -10.24718,10.2472 0,5.66819 4.57905,10.24718 10.24718,10.24718 5.66819,0 10.24426,-4.57899 10.24426,-10.24718 0,-5.66819 -4.57605,-10.2472 -10.24426,-10.2472 z m 0,3.02048 c 4.06869,0 7.22378,3.15805 7.22378,7.22672 0,4.06868 -3.15509,7.22671 -7.22376,7.22671 -4.06861,0 -7.22673,-3.15804 -7.22673,-7.22671 0,-4.06867 3.15812,-7.22672 7.22671,-7.22672 z"
       id="path2031-5-7-7-1-1-1-0-3-1-4"
       sodipodi:nodetypes="ssssssssssssssssssss" />
    <path
       style="color:#000000;fill:#000000;stroke-width:1.51024;stroke-linecap:round"
       d="m 175.94791,175.98733 c -9.79782,0 -17.83967,8.0418 -17.83967,17.83966 0,9.79786 8.04185,17.83967 17.83967,17.83967 9.79788,0 17.83968,-8.04183 17.83968,-17.83967 0,-9.79784 -8.0418,-17.83966 -17.83968,-17.83966 z m 0,3.02046 c 8.1468,0 14.8192,6.67245 14.8192,14.8192 0,8.14676 -6.6724,14.8192 -14.8192,14.8192 -8.14673,0 -14.81919,-6.67245 -14.81919,-14.8192 0,-8.14675 6.67246,-14.8192 14.81919,-14.8192 z m 0,4.572 c -5.66814,0 -10.24718,4.57901 -10.24718,10.2472 0,5.66819 4.57904,10.24718 10.24718,10.24718 5.66818,0 10.24426,-4.57899 10.24426,-10.24718 0,-5.66819 -4.57607,-10.2472 -10.24426,-10.2472 z m 0,3.02048 c 4.06869,0 7.22378,3.15804 7.22378,7.22672 0,4.06868 -3.15509,7.22671 -7.22378,7.22671 -4.06862,0 -7.22671,-3.15804 -7.22671,-7.22671 0,-4.06867 3.15809,-7.22672 7.22671,-7.22672 z"
       id="path2031-7-1-4-3-5-8-4-4-4-8"
       sodipodi:nodetypes="ssssssssssssssssssss" />
    <path
       style="color:#000000;fill:#000000;stroke-width:1.51024;stroke-linecap:round"
       d="m 138.19199,175.98733 c -9.79782,0 -17.83967,8.0418 -17.83967,17.83966 0,9.79786 8.04185,17.83967 17.83967,17.83967 9.79789,0 17.83969,-8.04183 17.83969,-17.83967 0,-9.79784 -8.0418,-17.83966 -17.83969,-17.83966 z m 0,3.02046 c 8.1468,0 14.81922,6.67245 14.81922,14.8192 0,8.14676 -6.67242,14.8192 -14.81922,14.8192 -8.14671,0 -14.81919,-6.67245 -14.81919,-14.8192 0,-8.14675 6.67248,-14.8192 14.81919,-14.8192 z m 0,4.572 c -5.66816,0 -10.24718,4.57901 -10.24718,10.2472 0,5.66819 4.57904,10.24718 10.24718,10.24718 5.66818,0 10.24424,-4.57899 10.24424,-10.24718 0,-5.66819 -4.57605,-10.2472 -10.24424,-10.2472 z m 0,3.02048 c 4.0687,0 7.22377,3.15804 7.22377,7.22672 0,4.06868 -3.15508,7.22671 -7.22377,7.22671 -4.0686,0 -7.22671,-3.15804 -7.22671,-7.22671 0,-4.06867 3.15811,-7.22672 7.22671,-7.22672 z"
       id="path2031-7-1-4-1-7-7-7-2-4-2-1"
       sodipodi:nodetypes="ssssssssssssssssssss" />
    <path
       style="color:#000000;fill:#000000;stroke-width:1.51024;stroke-linecap:round"
       d="m 100.43607,175.98733 c -9.797823,0 -17.839668,8.0418 -17.839668,17.83966 0,9.79786 8.041845,17.83967 17.839668,17.83967 9.79791,0 17.83971,-8.04183 17.83971,-17.83967 0,-9.79784 -8.0418,-17.83966 -17.83971,-17.83966 z m 0,3.02046 c 8.14681,0 14.81923,6.67245 14.81923,14.8192 0,8.14676 -6.67242,14.8192 -14.81923,14.8192 -8.146712,0 -14.819195,-6.67245 -14.819195,-14.8192 0,-8.14675 6.672483,-14.8192 14.819195,-14.8192 z m 0,4.572 c -5.668156,0 -10.247179,4.57901 -10.247179,10.2472 0,5.66819 4.579038,10.24718 10.247179,10.24718 5.66818,0 10.24426,-4.57899 10.24426,-10.24718 0,-5.66819 -4.57607,-10.2472 -10.24426,-10.2472 z m 0,3.02048 c 4.0687,0 7.22377,3.15804 7.22377,7.22672 0,4.06868 -3.15508,7.22671 -7.22377,7.22671 -4.068604,0 -7.226706,-3.15804 -7.226706,-7.22671 0,-4.06867 3.158102,-7.22672 7.226706,-7.22672 z"
       id="path2031-7-1-4-1-7-7-5-9-6-0-5-8"
       sodipodi:nodetypes="ssssssssssssssssssss" />
    <path
       id="path8867"
       style="color:#000000;fill:#000000;stroke-width:3.02047;stroke-linecap:round;stroke-linejoin:round"
       d="m 100.45537,217.91848 c -0.834088,-1.5e-4 -1.510367,0.6759 -1.510509,1.50998 v 22.65392 c 1.42e-4,0.83409 0.676421,1.51013 1.510509,1.50998 0.83388,-1.4e-4 1.50984,-0.6761 1.50998,-1.50998 v -9.06146 h 21.14341 c 0.83409,-1.3e-4 1.51014,-0.67642 1.50999,-1.51051 -1.4e-4,-0.83388 -0.67611,-1.50984 -1.50999,-1.50998 h -21.14341 v -10.57197 c -1.4e-4,-0.83388 -0.6761,-1.50983 -1.50998,-1.50998 z"
       sodipodi:nodetypes="sccscccscccs" />
    <path
       id="path8873"
       style="color:#000000;fill:#000000;stroke-width:3.02047;stroke-linecap:round;stroke-linejoin:round"
       d="m 213.72287,217.91848 c -0.83389,1.4e-4 -1.50985,0.6761 -1.50999,1.50998 v 10.57197 h -19.63342 c -0.83389,1.4e-4 -1.50985,0.6761 -1.50999,1.50998 -1.5e-4,0.83409 0.6759,1.51038 1.50999,1.51051 h 19.63342 v 9.06146 c 1.4e-4,0.83389 0.6761,1.50985 1.50999,1.50998 0.83408,1.5e-4 1.51036,-0.67589 1.5105,-1.50998 v -22.65392 c -1.4e-4,-0.83408 -0.67642,-1.51012 -1.5105,-1.50998 z"
       sodipodi:nodetypes="scccscccsccs" />
    <path
       id="path18873"
       style="color:#000000;-inkscape-font-specification:'BC Sans, Normal';fill:#000000;stroke-width:0.598927;stroke-linecap:round;stroke-linejoin:round"
       d="m 135.26564,225.85909 c -0.70023,0 -1.32747,0.12024 -1.87224,0.36999 -0.54356,0.24923 -0.98323,0.61586 -1.3007,1.09296 -0.32124,0.48283 -0.48213,1.06078 -0.48213,1.69965 0,0.92491 0.25033,1.70251 0.76068,2.26859 0.49641,0.55062 1.21505,0.99212 2.14767,1.34771 h -0.006 c 0.62192,0.24793 1.1096,0.47353 1.45469,0.67181 0.33564,0.19286 0.55001,0.39654 0.6599,0.58342 0.11397,0.19371 0.1757,0.43931 0.1757,0.7612 0,0.47457 -0.14803,0.79915 -0.48782,1.07227 -0.33172,0.2666 -0.85719,0.42323 -1.59629,0.42323 -0.53865,0 -1.05987,-0.0651 -1.56837,-0.19532 -0.50935,-0.13282 -0.93208,-0.28116 -1.26453,-0.43823 -0.19208,-0.092 -0.4095,0.0572 -0.40979,0.28113 v 1.35029 c 4.3e-4,0.11948 0.0656,0.22796 0.16743,0.27855 0.3661,0.18313 0.80882,0.31999 1.3286,0.41755 0.5209,0.0978 1.08356,0.14525 1.68826,0.14525 1.19475,0 2.17809,-0.28898 2.91973,-0.89452 0.74522,-0.60847 1.13378,-1.49919 1.13378,-2.56729 0,-0.62539 -0.12253,-1.16859 -0.38138,-1.61385 l -0.003,-0.003 c -0.24331,-0.43345 -0.60539,-0.79838 -1.06712,-1.08985 -0.44562,-0.29744 -0.98439,-0.56833 -1.6185,-0.81442 -0.56124,-0.216 -1.00234,-0.41827 -1.31516,-0.6041 -0.30307,-0.19056 -0.50438,-0.3932 -0.61806,-0.58653 -0.11297,-0.19213 -0.1757,-0.44208 -0.1757,-0.77567 0,-0.41698 0.12295,-0.70008 0.39584,-0.93895 9.5e-4,-10e-4 0.001,-0.002 0.003,-0.003 0.26277,-0.23823 0.68407,-0.38188 1.30121,-0.38188 0.42937,0 0.84917,0.0538 1.25883,0.16278 0.41925,0.11145 0.80312,0.24891 1.15083,0.40875 0.15311,0.0696 0.32984,-0.0121 0.38707,-0.17776 l 0.41237,-1.20819 c 0.0522,-0.15286 -0.016,-0.32261 -0.15607,-0.3881 -0.42237,-0.1971 -0.88062,-0.35494 -1.37872,-0.47387 -0.50591,-0.12085 -1.05496,-0.18035 -1.64383,-0.18035 z"
       sodipodi:nodetypes="cssssccssssscccccsssscccccssccssccccscc" />
    <path
       id="path18879"
       style="color:#000000;-inkscape-font-specification:'BC Sans, Normal';fill:#000000;stroke-width:0.598927;stroke-linecap:round;stroke-linejoin:round"
       d="m 140.54801,226.01619 c -0.15992,3.3e-4 -0.2895,0.13797 -0.28992,0.30798 V 237.524 c 4.2e-4,0.17001 0.12995,0.30768 0.28992,0.308 h 1.32859 c 0.15992,-3.3e-4 0.28951,-0.13798 0.2899,-0.308 v -4.0509 h 0.91933 c 0.81947,0 1.51521,-0.10265 2.08928,-0.31731 0.56834,-0.20921 1.03802,-0.4892 1.39889,-0.84955 10e-4,-9.9e-4 0.004,-0.002 0.006,-0.003 0.35331,-0.36419 0.60996,-0.78471 0.76326,-1.25006 0.15785,-0.46053 0.23927,-0.93983 0.23927,-1.43299 0,-1.11149 -0.35195,-2.03008 -1.04749,-2.66546 -0.70893,-0.64762 -1.78307,-0.93844 -3.19825,-0.93844 z m 1.61849,1.82727 h 1.05318 c 0.88964,0 1.50464,0.17719 1.85827,0.46767 9.5e-4,0.001 0.001,0.002 0.003,0.003 0.36724,0.29494 0.5488,0.71353 0.5488,1.36787 0,0.76091 -0.20427,1.21595 -0.60718,1.49862 -9.6e-4,0.001 -0.001,0.002 -0.003,0.003 -0.40378,0.28905 -1.09885,0.46509 -2.081,0.46509 h -0.77154 z"
       sodipodi:nodetypes="cccccccsccccsscccsccsccscc" />
    <path
       id="path18885"
       style="color:#000000;-inkscape-font-specification:'BC Sans, Normal';fill:#000000;stroke-width:0.598927;stroke-linecap:round;stroke-linejoin:round"
       d="m 149.47408,226.01619 c -0.15991,3.3e-4 -0.2895,0.13797 -0.28991,0.30798 V 237.524 c 4.1e-4,0.17001 0.12994,0.30768 0.28991,0.308 h 1.3286 c 0.15991,-3.3e-4 0.2895,-0.13798 0.2899,-0.308 v -4.31757 h 1.63814 l 2.46807,4.47467 c 0.0526,0.094 0.1482,0.15148 0.25114,0.15087 h 1.54875 c 0.22534,-8.4e-4 0.36401,-0.26227 0.24805,-0.46767 l -2.7218,-4.72634 c 0.16689,-0.077 0.337,-0.14177 0.49557,-0.24287 0.28351,-0.17387 0.53531,-0.39503 0.75241,-0.66043 0.21892,-0.26759 0.39226,-0.58178 0.5209,-0.93328 0.145,-0.3793 0.21446,-0.81014 0.21446,-1.29087 0,-1.13994 -0.34343,-2.05469 -1.03921,-2.64169 -0.69825,-0.58908 -1.7324,-0.85267 -3.08664,-0.85266 z m 1.6185,1.84173 h 1.21491 c 0.83262,0 1.41417,0.15747 1.74924,0.41188 9.4e-4,0.001 0.001,0.002 0.003,0.003 0.32322,0.23723 0.49557,0.62947 0.49557,1.29966 0,0.63793 -0.16728,1.0637 -0.49041,1.36529 -0.30207,0.27993 -0.85437,0.45941 -1.68259,0.45941 h -1.28984 z"
       sodipodi:nodetypes="ccccccccccccccscsssccsccscscc" />
    <path
       id="path18891"
       style="color:#000000;-inkscape-font-specification:'BC Sans, Normal';fill:#000000;stroke-width:0.598927;stroke-linecap:round;stroke-linejoin:round"
       d="m 158.65335,226.01619 c -0.16091,-0.001 -0.29207,0.13691 -0.29248,0.30798 V 237.524 c 4.1e-4,0.17107 0.13151,0.30918 0.29248,0.308 h 5.88699 c 0.15971,-6.4e-4 0.28899,-0.13828 0.28939,-0.308 v -1.23765 c 10e-4,-0.17097 -0.12852,-0.31043 -0.28939,-0.31108 h -4.27106 v -3.38172 h 4.00337 c 0.16092,0.001 0.2921,-0.13691 0.29249,-0.30799 v -1.22317 c -3.9e-4,-0.17107 -0.13151,-0.30918 -0.29249,-0.308 h -4.00337 v -2.88147 h 4.27106 c 0.15971,-6.4e-4 0.28899,-0.13828 0.28939,-0.308 v -1.24075 c -4.2e-4,-0.16976 -0.12966,-0.30733 -0.28939,-0.30798 z"
       sodipodi:nodetypes="ccccccccccccccccccccc" />
    <path
       id="path18897"
       style="color:#000000;-inkscape-font-specification:'BC Sans, Normal';fill:#000000;stroke-width:0.598927;stroke-linecap:round;stroke-linejoin:round"
       d="m 169.54107,225.96864 c -0.11996,4.5e-4 -0.2274,0.0793 -0.27027,0.19844 l -4.11758,11.24427 c -0.0743,0.20331 0.0676,0.42224 0.27285,0.42065 h 1.34308 c 0.11996,-4.6e-4 0.22738,-0.0793 0.27026,-0.19845 l 1.18081,-3.26646 h 3.77806 l 1.19786,3.26957 c 0.0438,0.11796 0.151,0.19538 0.27027,0.19534 h 1.37356 c 0.20409,-3.7e-4 0.3442,-0.21845 0.27026,-0.42065 l -4.10362,-11.24427 c -0.0429,-0.11917 -0.15027,-0.19799 -0.27027,-0.19844 z m 0.59065,2.85202 c 0.0365,0.12797 0.0725,0.2546 0.10285,0.37568 0.003,0.008 0.006,0.0161 0.009,0.0238 0.0496,0.14768 0.0826,0.24875 0.10598,0.31109 l 1.03353,2.96417 h -2.50165 l 1.05005,-2.97295 c 9.6e-4,-0.001 0.001,-0.002 0.003,-0.003 0.0589,-0.17756 0.12353,-0.41702 0.1974,-0.69866 z"
       sodipodi:nodetypes="ccccccccccccccccccccccccc" />
    <path
       id="path18903"
       style="color:#000000;-inkscape-font-specification:'BC Sans, Normal';fill:#000000;stroke-width:0.598927;stroke-linecap:round;stroke-linejoin:round"
       d="m 176.28587,226.01619 c -0.16091,-0.001 -0.29208,0.13691 -0.29249,0.30798 V 237.524 c 4.1e-4,0.17108 0.13151,0.3092 0.29249,0.308 h 2.93626 c 1.78131,0 3.21252,-0.49575 4.24005,-1.50998 1.04342,-1.0307 1.55184,-2.55885 1.55184,-4.50774 0,-1.23083 -0.21682,-2.28821 -0.66869,-3.15951 -0.4496,-0.86694 -1.10303,-1.53391 -1.93889,-1.97817 -0.82426,-0.44364 -1.78657,-0.66041 -2.87528,-0.66041 z m 1.6185,1.82727 h 1.43455 c 1.21863,0 2.11156,0.32714 2.73575,0.96221 9.4e-4,0.001 0.001,0.002 0.003,0.003 0.62178,0.61441 0.9555,1.60889 0.9555,3.05304 0,1.43224 -0.3394,2.45086 -0.9834,3.12126 -0.644,0.6704 -1.62711,1.02474 -3.00602,1.02474 h -1.13947 z"
       sodipodi:nodetypes="ccccscsscsccsscssscc" />
  </g>
</svg>
