<?xml version="1.0" encoding="UTF-8" standalone="no"?>
<svg
   width="1000"
   height="1000"
   viewBox="0 0 264.58333 264.58333"
   version="1.1"
   id="svg5"
   inkscape:version="1.2 (dc2aedaf03, 2022-05-15)"
   sodipodi:docname="one_D.svg"
   xmlns:inkscape="http://www.inkscape.org/namespaces/inkscape"
   xmlns:sodipodi="http://sodipodi.sourceforge.net/DTD/sodipodi-0.dtd"
   xmlns="http://www.w3.org/2000/svg"
   xmlns:svg="http://www.w3.org/2000/svg">
  <sodipodi:namedview
     id="namedview7"
     pagecolor="#ffffff"
     bordercolor="#000000"
     borderopacity="0.25"
     inkscape:showpageshadow="2"
     inkscape:pageopacity="0.0"
     inkscape:pagecheckerboard="0"
     inkscape:deskcolor="#d1d1d1"
     inkscape:document-units="px"
     showgrid="true"
     showguides="true"
     inkscape:zoom="1"
     inkscape:cx="615.5"
     inkscape:cy="645.5"
     inkscape:window-width="1649"
     inkscape:window-height="1259"
     inkscape:window-x="228"
     inkscape:window-y="228"
     inkscape:window-maximized="0"
     inkscape:current-layer="layer1">
    <inkscape:grid
       type="xygrid"
       id="grid182"
       originx="0"
       originy="0" />
    <sodipodi:guide
       position="0,264.58333"
       orientation="0,1000"
       id="guide1891"
       inkscape:locked="false" />
    <sodipodi:guide
       position="264.58333,264.58333"
       orientation="1000,0"
       id="guide1893"
       inkscape:locked="false" />
    <sodipodi:guide
       position="264.58333,0"
       orientation="0,-1000"
       id="guide1895"
       inkscape:locked="false" />
    <sodipodi:guide
       position="0,0"
       orientation="-1000,0"
       id="guide1897"
       inkscape:locked="false" />
    <sodipodi:guide
       position="0,264.58333"
       orientation="0,1000"
       id="guide1899"
       inkscape:locked="false" />
    <sodipodi:guide
       position="264.58333,264.58333"
       orientation="1000,0"
       id="guide1901"
       inkscape:locked="false" />
    <sodipodi:guide
       position="264.58333,0"
       orientation="0,-1000"
       id="guide1903"
       inkscape:locked="false" />
    <sodipodi:guide
       position="0,0"
       orientation="-1000,0"
       id="guide1905"
       inkscape:locked="false" />
    <sodipodi:guide
       position="529.16666,211.66666"
       orientation="0,1"
       id="guide1907"
       inkscape:locked="false"
       inkscape:label=""
       inkscape:color="rgb(0,134,229)" />
    <sodipodi:guide
       position="497.41666,52.916666"
       orientation="0,1"
       id="guide1909"
       inkscape:locked="false"
       inkscape:label=""
       inkscape:color="rgb(0,134,229)" />
    <sodipodi:guide
       position="465.66666,33.072916"
       orientation="0,1"
       id="guide1911"
       inkscape:locked="false"
       inkscape:label=""
       inkscape:color="rgb(0,134,229)" />
    <sodipodi:guide
       position="507.99999,88.635416"
       orientation="0,1"
       id="guide1913"
       inkscape:locked="false"
       inkscape:label=""
       inkscape:color="rgb(0,134,229)" />
    <sodipodi:guide
       position="196.85,46.831249"
       orientation="1,0"
       id="guide396"
       inkscape:locked="false" />
    <sodipodi:guide
       position="242.09375,96.572915"
       orientation="1,0"
       id="guide398"
       inkscape:locked="false" />
  </sodipodi:namedview>
  <defs
     id="defs2" />
  <g
     inkscape:label="Layer 1"
     inkscape:groupmode="layer"
     id="layer1">
    <path
       id="path5374"
       style="color:#000000;fill:#000000;stroke-width:1.51024;stroke-linecap:round;stroke-linejoin:round;-inkscape-stroke:none"
       d="M 51.889855 164.83335 A 1.5103878 1.5103878 0 0 0 50.37987 166.34385 L 50.37987 170.87432 L 50.37987 193.52772 A 1.5103878 1.5103878 0 0 0 51.889855 195.03822 L 171.19885 195.03822 A 1.5103878 1.5103878 0 0 0 172.65871 193.91736 L 178.40099 172.38431 L 213.97195 172.38431 L 222.65617 194.08841 A 1.5103878 1.5103878 0 0 0 224.05712 195.03822 L 233.11858 195.03822 A 1.5103878 1.5103878 0 0 0 234.55209 194.00573 L 242.10305 171.35233 A 1.5103878 1.5103878 0 0 0 242.18005 170.87432 L 242.18005 166.34385 A 1.5103878 1.5103878 0 0 0 240.66954 164.83335 L 51.889855 164.83335 z M 53.400357 167.85383 L 239.15956 167.85383 L 239.15956 170.62938 L 232.03028 192.01773 L 225.08083 192.01773 L 216.39661 170.31363 A 1.5103878 1.5103878 0 0 0 214.99566 169.36382 L 53.400357 169.36382 L 53.400357 167.85383 z M 53.400357 172.38431 L 175.27302 172.38431 L 170.03975 192.01773 L 53.400357 192.01773 L 53.400357 172.38431 z " />
    <path
       style="color:#000000;fill:#000000;stroke-width:1.51024;stroke-linecap:round"
       d="m 196.87282,175.97135 c -9.79783,0 -17.83967,8.04182 -17.83967,17.83968 0,9.79785 8.04184,17.83967 17.83967,17.83967 9.79789,0 17.83967,-8.04183 17.83967,-17.83967 0,-9.79785 -8.0418,-17.83968 -17.83967,-17.83968 z m 0,3.02048 c 8.14677,0 14.8192,6.67245 14.8192,14.8192 0,8.14676 -6.67243,14.8192 -14.8192,14.8192 -8.14672,0 -14.8192,-6.67246 -14.8192,-14.8192 0,-8.14675 6.67248,-14.8192 14.8192,-14.8192 z m 0,4.572 c -5.66815,0 -10.24719,4.57901 -10.24719,10.2472 0,5.66819 4.57904,10.24718 10.24719,10.24718 5.66819,0 10.24425,-4.57899 10.24425,-10.24718 0,-5.66819 -4.57605,-10.2472 -10.24425,-10.2472 z m 0,3.02047 c 4.06868,0 7.22378,3.15806 7.22378,7.22673 0,4.06868 -3.1551,7.22671 -7.22377,7.22671 -4.06861,0 -7.22672,-3.15804 -7.22672,-7.22671 0,-4.06867 3.15811,-7.22673 7.22671,-7.22673 z"
       id="path2031-5-7-6-3-8-92"
       sodipodi:nodetypes="ssssssssssssssssssss" />
    <path
       id="path3181"
       style="color:#000000;fill:#000000;stroke-width:3.02047;stroke-linecap:round;stroke-linejoin:round"
       d="M 196.86912 217.91848 C 196.03504 217.91848 195.35863 218.59438 195.35862 219.42846 L 195.35862 229.99991 L 147.03082 229.99991 C 146.19674 229.99991 145.52083 230.67633 145.52083 231.51041 C 145.52084 232.34449 146.19674 233.02041 147.03082 233.0204 L 195.35862 233.0204 L 195.35862 242.08186 C 195.35863 242.91594 196.03504 243.59237 196.86912 243.59236 C 197.7032 243.59236 198.3791 242.91594 198.3791 242.08186 L 198.3791 231.51041 L 198.3791 219.42846 C 198.3791 218.59439 197.7032 217.91849 196.86912 217.91848 z " />
    <path
       id="path3187"
       style="color:#000000;fill:#000000;stroke-width:3.02047;stroke-linecap:round;stroke-linejoin:round"
       d="M 18.660876 229.99991 C 17.826795 229.99991 17.15089 230.67633 17.150891 231.51041 C 17.150895 232.34449 17.826799 233.0204 18.660876 233.0204 L 66.988675 233.0204 C 67.822753 233.0204 68.498657 232.34449 68.49866 231.51041 C 68.498662 230.67633 67.822757 229.99991 66.988675 229.99991 L 18.660876 229.99991 z " />
    <path
       id="path18933"
       style="color:#000000;-inkscape-font-specification:'BC Sans, Normal';fill:#000000;stroke-width:0.607771;stroke-linecap:round;stroke-linejoin:round"
       d="m 78.843371,225.10072 c -0.710571,0 -1.347313,0.12282 -1.900153,0.37621 -0.551543,0.25293 -0.998674,0.62326 -1.320839,1.10742 -0.326016,0.48996 -0.487312,1.07825 -0.487312,1.72652 0,0.93857 0.251045,1.7267 0.768939,2.30115 0.502503,0.55741 1.232573,1.0049 2.175589,1.36528 0.631107,0.25157 1.126693,0.48302 1.4769,0.68421 0.340608,0.19573 0.557192,0.39946 0.668707,0.58911 0.115538,0.19664 0.17827,0.44649 0.17827,0.77307 0,0.48159 -0.151283,0.80965 -0.496084,1.08677 -0.336615,0.27054 -0.868473,0.42943 -1.618513,0.42943 -0.546579,0 -1.077653,-0.0663 -1.593693,-0.19845 -0.516867,-0.13479 -0.944199,-0.28193 -1.281584,-0.44131 -0.194274,-0.0922 -0.413668,0.0581 -0.414951,0.28422 v 1.37149 c 10e-4,0.12069 0.06718,0.23006 0.170011,0.28112 0.371475,0.18577 0.818193,0.32477 1.345658,0.42375 0.528564,0.0992 1.099391,0.14783 1.713068,0.14783 1.21239,0 2.211577,-0.2945 2.964155,-0.90899 0.75623,-0.61746 1.150841,-1.51909 1.150841,-2.60295 0,-0.63467 -0.124809,-1.18889 -0.387579,-1.64072 l -0.0029,-0.003 c -0.248207,-0.44221 -0.617172,-0.81083 -1.089336,-1.10742 -0.450939,-0.30009 -0.995179,-0.57211 -1.635557,-0.82062 v -5.2e-4 -5.1e-4 -5.3e-4 -5.2e-4 -5.1e-4 -5.2e-4 c -0.569544,-0.2192 -1.016846,-0.42431 -1.33429,-0.61288 -0.307601,-0.1934 -0.511489,-0.39911 -0.626842,-0.59531 -0.114539,-0.19496 -0.180866,-0.4491 -0.180866,-0.78755 0,-0.42316 0.124096,-0.70842 0.401016,-0.95084 0.0014,-0.002 0.0043,-0.005 0.0057,-0.006 0.26665,-0.24177 0.694068,-0.38499 1.32034,-0.38499 0.435691,0 0.860684,0.0553 1.276406,0.16587 0.42545,0.11311 0.813999,0.24915 1.16686,0.41135 0.15549,0.0711 0.335173,-0.0106 0.393256,-0.18035 l 0.420643,-1.22318 c 0.05292,-0.15533 -0.01669,-0.32763 -0.159157,-0.39379 -0.428617,-0.20002 -0.895475,-0.362 -1.400959,-0.48265 -0.513358,-0.12251 -1.068453,-0.18087 -1.66604,-0.18087 z"
       sodipodi:nodetypes="ccssscscssscccccssssccccccccccccsccssccccscc" />
    <path
       id="path18939"
       style="color:#000000;-inkscape-font-specification:'BC Sans, Normal';fill:#000000;stroke-width:0.607771;stroke-linecap:round;stroke-linejoin:round"
       d="m 84.203251,225.25782 c -0.163222,-1.7e-4 -0.29552,0.14071 -0.295078,0.3142 v 11.36571 c 0.0012,0.17231 0.13294,0.31127 0.295078,0.31109 h 1.345643 c 0.162095,1.8e-4 0.293908,-0.13874 0.295078,-0.31109 v -4.11344 h 0.933274 c 0.830516,0 1.535596,-0.10249 2.117706,-0.31988 0.578559,-0.21247 1.056114,-0.49543 1.423168,-0.86197 9.56e-4,-0.001 0.0014,-0.002 0.0029,-0.003 0.357938,-0.36896 0.621578,-0.79319 0.777212,-1.26452 v -0.003 c 0.160754,-0.46814 0.242372,-0.95578 0.242372,-1.45728 0,-1.1279 -0.355628,-2.05894 -1.061435,-2.70371 -0.719415,-0.65717 -1.809206,-0.95343 -3.245283,-0.95343 z m 1.640721,1.85416 h 1.070221 c 0.902764,0 1.526838,0.17859 1.885676,0.47335 0,0.001 0,0.002 0,0.003 0.372673,0.29932 0.55759,0.72502 0.55759,1.38906 0,0.77215 -0.20714,1.23556 -0.615987,1.52238 -9.55e-4,10e-4 -0.0014,0.002 -0.0029,0.003 -0.409773,0.29333 -1.115352,0.47128 -2.112015,0.47128 h -0.782903 z"
       sodipodi:nodetypes="cccccccscscccsscccsccsccscc" />
    <path
       id="path18945"
       style="color:#000000;-inkscape-font-specification:'BC Sans, Normal';fill:#000000;stroke-width:0.607771;stroke-linecap:round;stroke-linejoin:round"
       d="m 95.23823,225.21029 c -0.12239,-2.5e-4 -0.23226,0.0799 -0.27595,0.20154 l -4.175976,11.41015 c -0.07474,0.2046 0.06633,0.42543 0.272855,0.42684 h 1.362703 c 0.121528,5.3e-4 0.230876,-0.0782 0.275436,-0.19843 l 1.200965,-3.31712 h 3.833357 l 1.21491,3.31712 c 0.0442,0.11918 0.15228,0.19784 0.27286,0.19843 h 1.3932 c 0.20758,5e-4 0.35062,-0.22116 0.27542,-0.42684 L 96.726,225.41183 c -0.0436,-0.12161 -0.15352,-0.20179 -0.27595,-0.20154 z m 0.59945,2.8975 c 0.0367,0.12888 0.0722,0.25651 0.10285,0.37827 0.003,0.008 0.006,0.0156 0.009,0.0232 0.0503,0.1498 0.0851,0.25116 0.10897,0.31419 l 1.04749,3.0086 h -2.53266 l 1.06142,-3.0148 c 9.7e-4,-0.002 0.001,-0.005 0.003,-0.006 0.0596,-0.17953 0.12581,-0.41944 0.20051,-0.70383 z"
       sodipodi:nodetypes="ccccccccccccccccccccccccc" />
    <path
       id="path18951"
       style="color:#000000;-inkscape-font-specification:'BC Sans, Normal';fill:#000000;stroke-width:0.607771;stroke-linecap:round;stroke-linejoin:round"
       d="m 106.37657,225.10072 c -1.13998,0 -2.13142,0.26049 -2.9533,0.79376 -0.81464,0.51828 -1.44189,1.25299 -1.86345,2.18281 0,0.001 0,0.002 0,0.003 -0.41085,0.91826 -0.61341,1.97583 -0.61341,3.1595 0,1.22199 0.18416,2.30031 0.56276,3.22823 9.4e-4,0.001 0.001,0.002 0.003,0.003 0.39063,0.93147 0.98194,1.66638 1.76061,2.17661 0.78446,0.51404 1.75237,0.76069 2.88097,0.76069 0.6006,0 1.11879,-0.037 1.56012,-0.11523 0.44785,-0.0775 0.88042,-0.19784 1.2981,-0.36431 0.11625,-0.046 0.19316,-0.16423 0.19223,-0.29611 v -1.24076 c -7.1e-4,-0.20909 -0.19022,-0.35879 -0.37878,-0.2992 -0.40017,0.12448 -0.80494,0.22806 -1.21491,0.31109 -0.3998,0.081 -0.81986,0.12145 -1.26194,0.12145 -1.16475,0 -1.97874,-0.3686 -2.53782,-1.10484 v -0.003 c -0.55788,-0.75941 -0.85267,-1.80045 -0.85267,-3.1626 0,-1.36924 0.3165,-2.40252 0.91932,-3.15122 0.13037,-0.13798 0.67256,-0.6358 1.36219,-0.95654 0.69809,-0.32469 1.51474,-0.47539 2.29599,-0.0121 0.0194,0.0106 0.0398,0.0203 0.061,0.0268 0.39795,0.12388 0.7552,0.2625 1.06969,0.41444 0.1463,0.0704 0.31859,0.003 0.38758,-0.15087 l 0.54053,-1.21129 c 0.0672,-0.15318 0.009,-0.3354 -0.13379,-0.41186 -0.88578,-0.4708 -1.91958,-0.70178 -3.08406,-0.70178 z"
       sodipodi:nodetypes="ccccsccsscccccssccscscccccccc" />
    <path
       id="path18957"
       style="color:#000000;-inkscape-font-specification:'BC Sans, Normal';fill:#000000;stroke-width:0.607771;stroke-linecap:round;stroke-linejoin:round"
       d="m 110.39081,225.25782 c -0.16322,-1.7e-4 -0.29552,0.14071 -0.29508,0.3142 v 0.82888 c -1.5e-4,0.1448 0.093,0.2708 0.22532,0.3049 l 1.03093,0.26097 v 8.5881 l -1.02784,0.24856 c -0.13351,0.0328 -0.22824,0.15917 -0.22841,0.3049 v 0.8294 c 10e-4,0.17231 0.13294,0.31127 0.29508,0.31109 h 3.86126 c 0.16229,4.9e-4 0.29442,-0.13858 0.29559,-0.31109 v -0.8294 c -1.7e-4,-0.14571 -0.0949,-0.27209 -0.22841,-0.3049 l -1.02836,-0.24856 v -8.5881 l 1.03094,-0.26097 c 0.13251,-0.0338 0.22594,-0.15997 0.22583,-0.3049 v -0.82888 c 4.5e-4,-0.17372 -0.13223,-0.31467 -0.29559,-0.3142 z"
       sodipodi:nodetypes="ccccccccccccccccccccc" />
    <path
       id="path18963"
       style="color:#000000;-inkscape-font-specification:'BC Sans, Normal';fill:#000000;stroke-width:0.607771;stroke-linecap:round;stroke-linejoin:round"
       d="m 116.31912,225.25782 c -0.16322,-1.7e-4 -0.2955,0.14071 -0.29506,0.3142 v 11.36571 c 10e-4,0.17231 0.13294,0.31127 0.29506,0.31109 h 1.24282 c 0.16209,1.8e-4 0.2939,-0.13874 0.29507,-0.31109 v -6.35207 c 0,-0.58928 -0.0143,-1.16273 -0.0445,-1.72081 -0.007,-0.12145 -0.01,-0.19222 -0.0166,-0.3049 l 5.17902,8.54677 c 0.0546,0.089 0.14804,0.14252 0.24805,0.14207 h 1.57095 c 0.1623,4.9e-4 0.29443,-0.13858 0.29559,-0.31109 v -11.36623 c 1.9e-4,-0.17352 -0.13236,-0.31415 -0.29559,-0.31368 h -1.25625 c -0.16303,-1.7e-4 -0.29523,0.1404 -0.29506,0.31368 v 6.4146 c 0,0.25897 0.004,0.53789 0.0143,0.83819 0.01,0.29722 0.0205,0.58981 0.0305,0.87642 0.003,0.0833 0.006,0.15163 0.009,0.231 l -5.17074,-8.52868 c -0.0541,-0.0904 -0.14781,-0.1451 -0.24857,-0.14526 z"
       sodipodi:nodetypes="ccccccsccccccccccscscccc" />
    <path
       id="path18969"
       style="color:#000000;-inkscape-font-specification:'BC Sans, Normal';fill:#000000;stroke-width:0.607771;stroke-linecap:round;stroke-linejoin:round"
       d="m 132.70056,225.10072 c -1.2055,0 -2.25477,0.25252 -3.13418,0.76998 -0.87607,0.5049 -1.55781,1.23271 -2.02261,2.16473 -0.45461,0.92159 -0.67955,2.00119 -0.67955,3.21944 0,1.23506 0.20169,2.32125 0.61288,3.25149 9.2e-4,0.002 0.001,0.005 0.003,0.006 0.42223,0.92004 1.04335,1.64513 1.85002,2.15284 9.5e-4,2e-5 0.001,2e-5 0.003,0 0.81247,0.50005 1.80016,0.74311 2.94711,0.74311 0.76042,0 1.44315,-0.0461 2.05051,-0.14465 0.60524,-0.0981 1.20591,-0.25256 1.79989,-0.4594 0.12139,-0.0423 0.20346,-0.16285 0.20309,-0.29869 v -5.57073 c -0.001,-0.17229 -0.13294,-0.31127 -0.29508,-0.31109 h -3.69692 c -0.16229,-4.7e-4 -0.29442,0.13859 -0.29559,0.31109 v 1.27331 c -4.4e-4,0.17374 0.13208,0.31469 0.29559,0.3142 h 2.0562 v 2.80448 c -0.20457,0.0494 -0.40983,0.10037 -0.64956,0.13904 -0.3089,0.0497 -0.69473,0.0738 -1.15343,0.0738 -0.92142,0 -1.63905,-0.18448 -2.16731,-0.52711 -0.53794,-0.35956 -0.92409,-0.84211 -1.18133,-1.47484 -0.2527,-0.6567 -0.38447,-1.41435 -0.38447,-2.28307 0,-1.35547 0.33511,-2.37911 0.98651,-3.13004 0.65965,-0.75966 1.5598,-1.14049 2.77761,-1.14049 0.48406,0 0.94479,0.0657 1.38751,0.19585 0.003,0.001 0.006,0.002 0.009,0.003 0.46697,0.12403 0.88267,0.26711 1.2454,0.42943 0.14847,0.0666 0.31971,-0.006 0.38447,-0.16278 l 0.50953,-1.24385 c 0.0643,-0.15849 -0.004,-0.34242 -0.15296,-0.41134 -0.47896,-0.22135 -0.99826,-0.39198 -1.55443,-0.51263 h -0.003 c -0.54995,-0.12115 -1.13327,-0.18036 -1.74924,-0.18036 z"
       sodipodi:nodetypes="cccsscccscsccccccccccsccscscccccccccc" />
  </g>
</svg>
