<?xml version="1.0" encoding="UTF-8" standalone="no"?>
<svg
   width="1000"
   height="1000"
   viewBox="0 0 264.58333 264.58333"
   version="1.1"
   id="svg5"
   inkscape:version="1.2 (dc2aedaf03, 2022-05-15)"
   sodipodi:docname="one_A.svg"
   xmlns:inkscape="http://www.inkscape.org/namespaces/inkscape"
   xmlns:sodipodi="http://sodipodi.sourceforge.net/DTD/sodipodi-0.dtd"
   xmlns="http://www.w3.org/2000/svg"
   xmlns:svg="http://www.w3.org/2000/svg">
  <sodipodi:namedview
     id="namedview7"
     pagecolor="#ffffff"
     bordercolor="#000000"
     borderopacity="0.25"
     inkscape:showpageshadow="2"
     inkscape:pageopacity="0.0"
     inkscape:pagecheckerboard="0"
     inkscape:deskcolor="#d1d1d1"
     inkscape:document-units="px"
     showgrid="true"
     showguides="true"
     inkscape:zoom="2.8284271"
     inkscape:cx="579.82756"
     inkscape:cy="756.2507"
     inkscape:window-width="3072"
     inkscape:window-height="1622"
     inkscape:window-x="-11"
     inkscape:window-y="-11"
     inkscape:window-maximized="1"
     inkscape:current-layer="layer1">
    <inkscape:grid
       type="xygrid"
       id="grid182"
       originx="0"
       originy="0" />
    <sodipodi:guide
       position="-99.999999,52.916666"
       orientation="0,1"
       id="guide184"
       inkscape:locked="false"
       inkscape:label=""
       inkscape:color="rgb(0,134,229)" />
    <sodipodi:guide
       position="-99.999999,211.66666"
       orientation="0,1"
       id="guide186"
       inkscape:locked="false"
       inkscape:label=""
       inkscape:color="rgb(0,134,229)" />
    <sodipodi:guide
       position="500,-835.41666"
       orientation="-1,0"
       id="guide188"
       inkscape:locked="false"
       inkscape:label=""
       inkscape:color="rgb(0,134,229)" />
    <sodipodi:guide
       position="0,264.58333"
       orientation="0,3779.5276"
       id="guide1770"
       inkscape:locked="false" />
    <sodipodi:guide
       position="999.99999,264.58333"
       orientation="3779.5276,0"
       id="guide1772"
       inkscape:locked="false" />
    <sodipodi:guide
       position="999.99999,33.072916"
       orientation="0,1"
       id="guide1774"
       inkscape:locked="false"
       inkscape:label=""
       inkscape:color="rgb(0,134,229)" />
    <sodipodi:guide
       position="0,-735.41666"
       orientation="-3779.5276,0"
       id="guide1776"
       inkscape:locked="false" />
    <sodipodi:guide
       position="-99.999999,88.635416"
       orientation="0,1"
       id="guide31317"
       inkscape:locked="false"
       inkscape:label="Wheel Top"
       inkscape:color="rgb(0,134,229)" />
    <sodipodi:guide
       position="0,264.58333"
       orientation="0,1000"
       id="guide9139"
       inkscape:locked="false" />
    <sodipodi:guide
       position="264.58333,264.58333"
       orientation="1000,0"
       id="guide9141"
       inkscape:locked="false" />
    <sodipodi:guide
       position="264.58333,0"
       orientation="0,-1000"
       id="guide9143"
       inkscape:locked="false" />
    <sodipodi:guide
       position="0,0"
       orientation="-1000,0"
       id="guide9145"
       inkscape:locked="false" />
    <sodipodi:guide
       position="153.45833,46.566666"
       orientation="1,0"
       id="guide715"
       inkscape:locked="false" />
    <sodipodi:guide
       position="198.70208,96.308332"
       orientation="1,0"
       id="guide717"
       inkscape:locked="false" />
  </sodipodi:namedview>
  <defs
     id="defs2" />
  <g
     inkscape:label="Layer 1"
     inkscape:groupmode="layer"
     id="layer1">
    <path
       style="color:#000000;fill:#000000;stroke-width:1.51024;stroke-linecap:round"
       d="m 153.45833,175.98732 c -9.79782,0 -17.83967,8.04181 -17.83967,17.83967 0,9.79786 8.04185,17.83967 17.83967,17.83967 9.79789,0 17.83968,-8.04183 17.83968,-17.83967 0,-9.79784 -8.0418,-17.83967 -17.83968,-17.83967 z m 0,3.02047 c 8.14678,0 14.8192,6.67245 14.8192,14.8192 0,8.14676 -6.67242,14.8192 -14.8192,14.8192 -8.14671,0 -14.8192,-6.67246 -14.8192,-14.8192 0,-8.14675 6.67249,-14.8192 14.8192,-14.8192 z m 0,4.572 c -5.66814,0 -10.24718,4.57901 -10.24718,10.2472 0,5.66819 4.57904,10.24718 10.24718,10.24718 5.66819,0 10.24426,-4.57899 10.24426,-10.24718 0,-5.66819 -4.57605,-10.2472 -10.24426,-10.2472 z m 0,3.02047 c 4.06869,0 7.22378,3.15806 7.22378,7.22673 0,4.06868 -3.15509,7.22671 -7.22376,7.22671 -4.06861,0 -7.22673,-3.15804 -7.22673,-7.22671 0,-4.06867 3.15812,-7.22673 7.22671,-7.22673 z"
       id="path2031-5-7-6-3-8-9"
       sodipodi:nodetypes="ssssssssssssssssssss" />
    <path
       style="color:#000000;fill:#000000;stroke-width:1.51024;stroke-linecap:round;stroke-linejoin:round;-inkscape-stroke:none"
       d="m 132.31502,164.84932 a 1.5103878,1.5103878 0 0 0 -1.51024,1.51024 v 4.53071 a 1.5103878,1.5103878 0 0 0 1.51024,1.51023 h 38.24262 l 8.68386,21.70375 a 1.5103878,1.5103878 0 0 0 1.4011,0.94981 h 9.06142 a 1.5103878,1.5103878 0 0 0 1.43354,-1.03239 l 7.55119,-22.65355 a 1.5103878,1.5103878 0 0 0 0.0767,-0.47785 v -4.53071 a 1.5103878,1.5103878 0 0 0 -1.51024,-1.51024 z m 1.51024,3.02047 h 61.9197 v 2.77565 l -7.12937,21.38814 h -6.94946 l -8.68386,-21.70375 a 1.5103878,1.5103878 0 0 0 -1.40109,-0.9498 h -37.75592 z"
       id="path8001-0-7-3-3-2" />
    <path
       id="path9197"
       style="color:#000000;fill:#000000;stroke-width:3.02047;stroke-linecap:round;stroke-linejoin:round"
       d="m 153.49812,217.95982 c -0.83388,1.5e-4 -1.50984,0.6761 -1.50998,1.50998 v 10.53063 h -10.57197 c -0.83388,1.5e-4 -1.50984,0.6761 -1.50998,1.50998 -1.4e-4,0.83409 0.6759,1.51036 1.50998,1.5105 h 10.57197 v 9.10281 c 1.4e-4,0.83388 0.6761,1.50984 1.50998,1.50998 0.83388,-1.3e-4 1.50985,-0.67609 1.50999,-1.50998 V 219.4698 c -1.4e-4,-0.83388 -0.67611,-1.50984 -1.50999,-1.50998 z"
       sodipodi:nodetypes="ccccsccccccc" />
    <path
       id="path9221"
       style="color:#000000;fill:#000000;stroke-width:3.02047;stroke-linecap:round;stroke-linejoin:round"
       d="m 88.557901,230.00043 c -0.833883,1.4e-4 -1.509844,0.6761 -1.509985,1.50998 -1.46e-4,0.83409 0.675899,1.51036 1.509985,1.5105 h 12.081949 c 0.83409,-1.3e-4 1.51014,-0.67641 1.50999,-1.5105 -1.4e-4,-0.83388 -0.67611,-1.50984 -1.50999,-1.50998 z"
       sodipodi:nodetypes="csccscc" />
    <path
       id="path4549"
       style="color:#000000;-inkscape-font-specification:'BC Sans, Normal';fill:#000000;stroke-width:0.623128;stroke-linecap:round;stroke-linejoin:round"
       d="m 113.19991,225.64204 c -1.28116,0.0475 -1.42429,0.12253 -2.00867,0.37466 -0.58305,0.25151 -1.05472,0.62183 -1.39526,1.10329 -0.3446,0.48721 -0.51626,1.072 -0.51625,1.71669 0,0.93334 0.26646,1.7175 0.81391,2.28875 0.53249,0.55566 1.30332,1.00129 2.30373,1.36012 0.66496,0.2495 1.1851,0.47577 1.55443,0.67541 0.36002,0.19461 0.59009,0.39845 0.70797,0.58705 0.12217,0.19551 0.19172,0.44519 0.19172,0.76997 0,0.4789 -0.16314,0.80394 -0.52762,1.07953 -0.35581,0.26903 -0.91819,0.42736 -1.71101,0.42736 -0.57676,0 -1.1369,-0.0635 -1.68155,-0.1943 h -0.003 c -0.54492,-0.13381 -0.998,-0.28417 -1.35392,-0.44235 -0.20692,-0.0934 -0.44105,0.0588 -0.43977,0.28577 v 1.36012 c -3.2e-4,0.12137 0.0699,0.23187 0.17984,0.28319 0.39272,0.18484 0.86715,0.32015 1.42472,0.41858 0.55875,0.0986 1.16259,0.14779 1.81126,0.14779 1.28158,0 2.33709,-0.29173 3.13262,-0.90279 0.27116,-0.20828 0.42983,-0.52515 0.57516,-0.87023 0.11723,-0.35037 0.36096,-1.00026 0.42303,-1.16065 0.0655,-0.32091 0.1783,-0.65202 0.12305,-0.97486 -0.0308,-0.19943 -0.07,-0.43098 -0.11834,-0.64596 -0.0477,-0.21266 -0.0927,-0.39809 -0.1974,-0.56896 -0.26237,-0.44128 -0.65299,-0.81069 -1.15342,-1.10639 -0.47666,-0.29842 -1.05166,-0.56986 -1.72857,-0.817 -0.60205,-0.21797 -1.07418,-0.42278 -1.40974,-0.6103 -0.32515,-0.19232 -0.54209,-0.39504 -0.66404,-0.59015 -0.12112,-0.19388 -0.19172,-0.44786 -0.19172,-0.78445 0,-0.42078 0.13202,-0.70617 0.42478,-0.94722 0.002,-8.4e-4 0.004,-0.002 0.006,-0.003 0.28187,-0.24042 0.73327,-0.38344 1.39527,-0.38344 0.46057,0 0.9083,0.0517 1.34772,0.16175 0.44971,0.11236 0.86311,0.25211 1.2361,0.41341 0.16472,0.0708 0.35503,-0.0118 0.41599,-0.18035 l 0.44235,-1.21801 c 0.0564,-0.15458 -0.0172,-0.32633 -0.16795,-0.39223 -0.45308,-0.19893 -0.94675,-0.35798 -1.48104,-0.478 -0.4857,0.0641 -0.39571,-0.13526 -1.76038,-0.1828 z"
       sodipodi:nodetypes="ccssscsssssccccccssscccccccccsccsccccccc" />
    <path
       id="path4555"
       style="color:#000000;-inkscape-font-specification:'BC Sans, Normal';fill:#000000;stroke-width:0.623128;stroke-linecap:round;stroke-linejoin:round"
       d="m 121.85726,225.8012 -2.99103,5.2e-4 c -0.17291,-5.8e-4 -0.31323,0.13974 -0.31264,0.31264 v 11.30009 c 0.001,0.1717 0.14094,0.31012 0.31264,0.30954 h 1.42472 c 0.17049,-10e-4 0.30842,-0.13905 0.30954,-0.30954 v -4.08812 h 0.98805 c 0.87905,0 1.62334,-0.10222 2.23914,-0.31885 0.61159,-0.21127 1.12786,-0.48189 1.5043,-0.85834 l 0.003,-0.003 c 0.379,-0.36747 0.65523,-0.79278 0.81959,-1.26246 0.1693,-0.4647 0.25682,-0.95025 0.25683,-1.44797 0,-1.12162 -0.37786,-2.04601 -1.12396,-2.68718 -0.76046,-0.65353 -1.91224,-0.94723 -3.43028,-0.94723 z m -1.25677,1.84072 h 1.12965 c 0.95427,0 1.61485,0.1818 1.99419,0.47491 l 0.003,0.003 c 0.34912,0.34912 0.58704,0.71995 0.58704,1.38027 0,0.76784 -0.21997,1.22835 -0.65215,1.51361 -0.43314,0.2917 -1.17942,0.4687 -2.23294,0.4687 h -0.82889 z"
       sodipodi:nodetypes="ccccccccscsccssccsccscsccs" />
    <path
       id="path4561"
       style="color:#000000;-inkscape-font-specification:'BC Sans, Normal';fill:#000000;stroke-width:0.623128;stroke-linecap:round;stroke-linejoin:round"
       d="m 133.29894,225.64204 c -1.20335,0.0388 -2.2493,0.26129 -3.11764,0.79065 -0.86289,0.5155 -1.5273,1.24809 -1.97352,2.17403 -0.4343,0.91315 -0.64906,1.96433 -0.64906,3.14141 0,1.21515 0.19562,2.28639 0.59583,3.2091 l 0.003,0.003 c 0.4129,0.92625 1.03829,1.65786 1.86138,2.16524 0.82923,0.51117 1.85075,0.75809 3.04375,0.75809 0.6349,0 1.18253,-0.0375 1.64899,-0.11524 0.47343,-0.077 0.92998,-0.1972 1.37149,-0.36277 0.12225,-0.0452 0.20348,-0.16164 0.20361,-0.29197 v -1.2361 c -10e-4,-0.20659 -0.1994,-0.35488 -0.39791,-0.29765 -0.42299,0.12384 -0.85286,0.22697 -1.28623,0.30954 -0.42258,0.0805 -0.86591,0.12092 -1.33325,0.12092 -1.2312,0 -2.09306,-0.36804 -2.68407,-1.10019 v -0.003 c -0.58972,-0.75518 -0.89969,-1.78996 -0.89969,-3.14451 0,-1.36278 0.33222,-2.39055 0.97049,-3.13521 0.63822,-0.74458 1.48436,-1.10898 2.62826,-1.10898 0.4805,0 0.91453,0.0601 1.30379,0.17674 8.7e-4,1e-5 0.002,1e-5 0.003,0 0.42065,0.12308 0.79719,0.25867 1.12965,0.40979 0.15489,0.0703 0.3375,0.003 0.41031,-0.15038 l 0.56948,-1.20044 c 0.0732,-0.15322 0.0102,-0.33684 -0.1416,-0.4129 -0.93633,-0.46817 -2.02945,-0.73886 -3.25975,-0.69918 z"
       sodipodi:nodetypes="sccsccsscccccssccsssccccccss" />
  </g>
</svg>
