<?xml version="1.0" encoding="UTF-8" standalone="no"?>
<svg
   width="1000"
   height="1000"
   viewBox="0 0 264.58333 264.58333"
   version="1.1"
   id="svg5"
   inkscape:version="1.2 (dc2aedaf03, 2022-05-15)"
   sodipodi:docname="one_B.svg"
   xmlns:inkscape="http://www.inkscape.org/namespaces/inkscape"
   xmlns:sodipodi="http://sodipodi.sourceforge.net/DTD/sodipodi-0.dtd"
   xmlns="http://www.w3.org/2000/svg"
   xmlns:svg="http://www.w3.org/2000/svg">
  <sodipodi:namedview
     id="namedview7"
     pagecolor="#ffffff"
     bordercolor="#000000"
     borderopacity="0.25"
     inkscape:showpageshadow="2"
     inkscape:pageopacity="0.0"
     inkscape:pagecheckerboard="0"
     inkscape:deskcolor="#d1d1d1"
     inkscape:document-units="px"
     showgrid="true"
     showguides="true"
     inkscape:zoom="2.587745"
     inkscape:cx="610.95665"
     inkscape:cy="776.35162"
     inkscape:window-width="3072"
     inkscape:window-height="1622"
     inkscape:window-x="-11"
     inkscape:window-y="-11"
     inkscape:window-maximized="1"
     inkscape:current-layer="layer1">
    <inkscape:grid
       type="xygrid"
       id="grid182"
       originx="0"
       originy="0" />
    <sodipodi:guide
       position="-99.999999,52.916666"
       orientation="0,1"
       id="guide184"
       inkscape:locked="false"
       inkscape:label=""
       inkscape:color="rgb(0,134,229)" />
    <sodipodi:guide
       position="-99.999999,211.66666"
       orientation="0,1"
       id="guide186"
       inkscape:locked="false"
       inkscape:label=""
       inkscape:color="rgb(0,134,229)" />
    <sodipodi:guide
       position="500,-835.41666"
       orientation="-1,0"
       id="guide188"
       inkscape:locked="false"
       inkscape:label=""
       inkscape:color="rgb(0,134,229)" />
    <sodipodi:guide
       position="0,264.58333"
       orientation="0,3779.5276"
       id="guide1770"
       inkscape:locked="false" />
    <sodipodi:guide
       position="999.99999,264.58333"
       orientation="3779.5276,0"
       id="guide1772"
       inkscape:locked="false" />
    <sodipodi:guide
       position="999.99999,33.072916"
       orientation="0,1"
       id="guide1774"
       inkscape:locked="false"
       inkscape:label=""
       inkscape:color="rgb(0,134,229)" />
    <sodipodi:guide
       position="0,-735.41666"
       orientation="-3779.5276,0"
       id="guide1776"
       inkscape:locked="false" />
    <sodipodi:guide
       position="-99.999999,88.635416"
       orientation="0,1"
       id="guide31317"
       inkscape:locked="false"
       inkscape:label="Wheel Top"
       inkscape:color="rgb(0,134,229)" />
    <sodipodi:guide
       position="0,264.58333"
       orientation="0,1000"
       id="guide6648"
       inkscape:locked="false" />
    <sodipodi:guide
       position="264.58333,264.58333"
       orientation="1000,0"
       id="guide6650"
       inkscape:locked="false" />
    <sodipodi:guide
       position="264.58333,0"
       orientation="0,-1000"
       id="guide6652"
       inkscape:locked="false" />
    <sodipodi:guide
       position="0,0"
       orientation="-1000,0"
       id="guide6654"
       inkscape:locked="false" />
  </sodipodi:namedview>
  <defs
     id="defs2" />
  <g
     inkscape:label="Layer 1"
     inkscape:groupmode="layer"
     id="layer1">
    <path
       style="color:#000000;fill:#000000;stroke-width:1.51024;stroke-linecap:round"
       d="m 177.27083,175.98732 c -9.79783,0 -17.83967,8.04181 -17.83967,17.83967 0,9.79786 8.04184,17.83967 17.83967,17.83967 9.79789,0 17.83967,-8.04183 17.83967,-17.83967 0,-9.79784 -8.0418,-17.83967 -17.83967,-17.83967 z m 0,3.02047 c 8.14677,0 14.8192,6.67245 14.8192,14.8192 0,8.14676 -6.67243,14.8192 -14.8192,14.8192 -8.14672,0 -14.8192,-6.67245 -14.8192,-14.8192 0,-8.14675 6.67248,-14.8192 14.8192,-14.8192 z m 0,4.572 c -5.66815,0 -10.24719,4.57901 -10.24719,10.2472 0,5.66819 4.57904,10.24718 10.24719,10.24718 5.66819,0 10.24425,-4.57899 10.24425,-10.24718 0,-5.66819 -4.57605,-10.2472 -10.24425,-10.2472 z m 0,3.02048 c 4.06868,0 7.22378,3.15805 7.22378,7.22672 0,4.06868 -3.1551,7.22671 -7.22377,7.22671 -4.06861,0 -7.22672,-3.15804 -7.22672,-7.22671 0,-4.06867 3.15811,-7.22672 7.22671,-7.22672 z"
       id="path2031-5-7-6-3-8-1"
       sodipodi:nodetypes="ssssssssssssssssssss" />
    <path
       style="color:#000000;fill:#000000;stroke-width:1.51024;stroke-linecap:round;stroke-linejoin:round;-inkscape-stroke:none"
       d="m 113.84088,164.84934 a 1.5103878,1.5103878 0 0 0 -1.51023,1.51023 v 4.53071 a 1.5103878,1.5103878 0 0 0 1.51023,1.51024 h 80.52926 l 8.68386,21.70375 a 1.5103878,1.5103878 0 0 0 1.40109,0.9498 h 9.06142 a 1.5103878,1.5103878 0 0 0 1.43355,-1.03238 l 7.55118,-22.65355 a 1.5103878,1.5103878 0 0 0 0.0767,-0.47786 v -4.53071 a 1.5103878,1.5103878 0 0 0 -1.51023,-1.51023 z m 1.51024,3.02047 h 104.20634 v 2.77565 l -7.12938,21.38814 h -6.94946 l -8.68386,-21.70375 a 1.5103878,1.5103878 0 0 0 -1.40109,-0.9498 h -80.04255 z"
       id="path8001-0-7-3-3-0" />
    <path
       id="path5861"
       style="color:#000000;fill:#000000;stroke-width:3.02047;stroke-linecap:round;stroke-linejoin:round"
       d="m 177.21967,217.91848 c -0.83388,1.5e-4 -1.50984,0.6761 -1.50998,1.50998 v 10.57197 h -12.08195 c -0.83409,-1.5e-4 -1.51037,0.6759 -1.51051,1.50998 -1.5e-4,0.8343 0.67622,1.51066 1.51051,1.51051 h 12.08195 v 9.06146 c 1.4e-4,0.83388 0.6761,1.50984 1.50998,1.50998 0.83388,-1.3e-4 1.50985,-0.67609 1.50999,-1.50998 v -22.65392 c -1.4e-4,-0.83388 -0.67611,-1.50984 -1.50999,-1.50998 z"
       sodipodi:nodetypes="ccccsccccccc" />
    <path
       id="path5909"
       style="color:#000000;fill:#000000;stroke-width:3.02047;stroke-linecap:round;stroke-linejoin:round"
       d="m 63.951651,230.00043 c -0.833882,1.4e-4 -1.509843,0.6761 -1.509985,1.50998 -1.51e-4,0.83409 0.675896,1.51037 1.509985,1.51051 H 80.56459 c 0.834089,-1.4e-4 1.510136,-0.67642 1.509985,-1.51051 -1.42e-4,-0.83388 -0.676103,-1.50984 -1.509985,-1.50998 z"
       sodipodi:nodetypes="csccscc" />
    <path
       id="path18933"
       style="color:#000000;-inkscape-font-specification:'BC Sans, Normal';fill:#000000;stroke-width:0.607771;stroke-linecap:round;stroke-linejoin:round"
       d="m 95.990036,225.31156 c -0.710571,0 -1.347313,0.12282 -1.900153,0.37621 -0.551543,0.25293 -0.998674,0.62326 -1.320839,1.10742 -0.326016,0.48996 -0.487312,1.07825 -0.487312,1.72652 0,0.93857 0.251045,1.7267 0.768939,2.30115 0.502503,0.55741 1.232573,1.0049 2.175589,1.36528 0.631107,0.25157 1.126693,0.48302 1.4769,0.68421 0.340608,0.19573 0.557192,0.39946 0.668707,0.58911 0.115538,0.19664 0.17827,0.44649 0.17827,0.77307 0,0.48159 -0.151283,0.80965 -0.496084,1.08677 -0.336615,0.27054 -0.868473,0.42943 -1.618513,0.42943 -0.546579,0 -1.077653,-0.0663 -1.593693,-0.19845 -0.516867,-0.13479 -0.944199,-0.28193 -1.281584,-0.44131 -0.194274,-0.0922 -0.413668,0.0581 -0.414951,0.28422 v 1.37149 c 10e-4,0.12069 0.06718,0.23006 0.170011,0.28112 0.371475,0.18577 0.818193,0.32477 1.345658,0.42375 0.528564,0.0992 1.099391,0.14783 1.713068,0.14783 1.21239,0 2.211577,-0.2945 2.964155,-0.90899 0.75623,-0.61746 1.150843,-1.51909 1.150843,-2.60295 0,-0.63467 -0.12481,-1.18889 -0.387581,-1.64072 l -0.0029,-0.003 c -0.248207,-0.44221 -0.617172,-0.81083 -1.089336,-1.10742 -0.450939,-0.30009 -0.995179,-0.57211 -1.635557,-0.82062 v -5.2e-4 -5.1e-4 -5.3e-4 -5.2e-4 -5.1e-4 -5.2e-4 c -0.569544,-0.2192 -1.016846,-0.42431 -1.33429,-0.61288 -0.307601,-0.1934 -0.511489,-0.39911 -0.626842,-0.59531 -0.114539,-0.19496 -0.180866,-0.4491 -0.180866,-0.78755 0,-0.42316 0.124096,-0.70842 0.401016,-0.95084 0.0014,-0.002 0.0043,-0.005 0.0057,-0.006 0.26665,-0.24177 0.694068,-0.38499 1.32034,-0.38499 0.435691,0 0.860684,0.0553 1.276406,0.16587 0.42545,0.11311 0.813999,0.24915 1.16686,0.41135 0.15549,0.0711 0.335173,-0.0106 0.393256,-0.18035 l 0.420643,-1.22318 c 0.05292,-0.15533 -0.01669,-0.32763 -0.159157,-0.39379 -0.428617,-0.20002 -0.895475,-0.362 -1.400959,-0.48265 -0.513358,-0.12251 -1.068453,-0.18087 -1.66604,-0.18087 z"
       sodipodi:nodetypes="ccssscscssscccccssssccccccccccccsccssccccscc" />
    <path
       id="path18939"
       style="color:#000000;-inkscape-font-specification:'BC Sans, Normal';fill:#000000;stroke-width:0.607771;stroke-linecap:round;stroke-linejoin:round"
       d="m 101.34991,225.46866 c -0.16322,-1.7e-4 -0.29552,0.14071 -0.29508,0.3142 v 11.36571 c 0.001,0.17231 0.13294,0.31127 0.29508,0.31109 h 1.34564 c 0.1621,1.8e-4 0.29391,-0.13874 0.29508,-0.31109 v -4.11344 h 0.93327 c 0.83052,0 1.5356,-0.10249 2.11771,-0.31988 0.57856,-0.21247 1.05611,-0.49543 1.42317,-0.86197 9.5e-4,-0.001 10e-4,-0.002 0.003,-0.003 0.35794,-0.36896 0.62158,-0.79319 0.77721,-1.26452 v -0.003 c 0.16075,-0.46814 0.24237,-0.95578 0.24237,-1.45728 0,-1.1279 -0.35563,-2.05894 -1.06143,-2.70371 -0.71942,-0.65717 -1.80921,-0.95343 -3.24529,-0.95343 z m 1.64072,1.85416 h 1.07022 c 0.90276,0 1.52684,0.17859 1.88568,0.47335 v 0.003 c 0.37267,0.29932 0.55759,0.72502 0.55759,1.38906 0,0.77215 -0.20714,1.23556 -0.61599,1.52238 -9.6e-4,0.001 -0.001,0.002 -0.003,0.003 -0.40977,0.29333 -1.11535,0.47128 -2.11202,0.47128 h -0.7829 z"
       sodipodi:nodetypes="cccccccscscccsscccsccsccscc" />
    <path
       id="path18945"
       style="color:#000000;-inkscape-font-specification:'BC Sans, Normal';fill:#000000;stroke-width:0.607771;stroke-linecap:round;stroke-linejoin:round"
       d="m 112.38489,225.42113 c -0.12239,-2.5e-4 -0.23226,0.0799 -0.27595,0.20154 l -4.17598,11.41015 c -0.0747,0.2046 0.0663,0.42543 0.27286,0.42684 h 1.3627 c 0.12153,5.3e-4 0.23088,-0.0782 0.27544,-0.19843 l 1.20096,-3.31712 h 3.83336 l 1.21491,3.31712 c 0.0442,0.11918 0.15228,0.19784 0.27286,0.19843 h 1.39319 c 0.20759,5e-4 0.35063,-0.22116 0.27543,-0.42684 l -4.16201,-11.41015 c -0.0436,-0.12161 -0.15353,-0.20179 -0.27595,-0.20154 z m 0.59945,2.8975 c 0.0367,0.12888 0.0722,0.25651 0.10284,0.37827 0.003,0.008 0.006,0.0156 0.009,0.0232 0.0503,0.1498 0.0852,0.25116 0.10898,0.31419 l 1.04749,3.0086 h -2.53266 l 1.06142,-3.0148 c 9.7e-4,-0.002 0.001,-0.005 0.003,-0.006 0.0596,-0.17953 0.12581,-0.41944 0.20051,-0.70383 z"
       sodipodi:nodetypes="ccccccccccccccccccccccccc" />
    <path
       id="path18951"
       style="color:#000000;-inkscape-font-specification:'BC Sans, Normal';fill:#000000;stroke-width:0.607771;stroke-linecap:round;stroke-linejoin:round"
       d="m 123.52322,225.31156 c -1.13999,0 -2.13143,0.26049 -2.9533,0.79376 -0.81464,0.51828 -1.4419,1.25299 -1.86345,2.18281 v 0.003 c -0.41085,0.91826 -0.61341,1.97583 -0.61341,3.1595 0,1.22199 0.18416,2.30031 0.56276,3.22823 9.4e-4,0.001 10e-4,0.002 0.003,0.003 0.39063,0.93147 0.98194,1.66638 1.76061,2.17661 0.78446,0.51404 1.75236,0.76069 2.88097,0.76069 0.60059,0 1.11879,-0.037 1.56011,-0.11523 0.44786,-0.0775 0.88043,-0.19784 1.2981,-0.36431 0.11625,-0.046 0.19317,-0.16423 0.19224,-0.29611 v -1.24076 c -7.2e-4,-0.20909 -0.19023,-0.35879 -0.37878,-0.2992 -0.40017,0.12448 -0.80494,0.22806 -1.21491,0.31109 -0.39981,0.081 -0.81987,0.12145 -1.26195,0.12145 -1.16475,0 -1.97873,-0.3686 -2.53782,-1.10484 v -0.003 c -0.55788,-0.75941 -0.85267,-1.80045 -0.85267,-3.1626 0,-1.36924 0.3165,-2.40252 0.91933,-3.15122 0.13037,-0.13798 0.67255,-0.6358 1.36219,-0.95654 0.69809,-0.32469 1.51474,-0.47539 2.29599,-0.0121 0.0194,0.0106 0.0398,0.0203 0.0611,0.0268 0.39795,0.12388 0.7552,0.2625 1.06969,0.41444 0.14629,0.0703 0.31858,0.003 0.38758,-0.15087 l 0.54053,-1.21129 c 0.0672,-0.15318 0.009,-0.3354 -0.1338,-0.41186 -0.88577,-0.4708 -1.91958,-0.70178 -3.08405,-0.70178 z"
       sodipodi:nodetypes="ccccsccsscccccssccscscccccccc" />
    <path
       id="path18957"
       style="color:#000000;-inkscape-font-specification:'BC Sans, Normal';fill:#000000;stroke-width:0.607771;stroke-linecap:round;stroke-linejoin:round"
       d="m 127.53746,225.46866 c -0.16322,-1.7e-4 -0.29552,0.14071 -0.29508,0.3142 v 0.82888 c -1.6e-4,0.1448 0.093,0.2708 0.22531,0.3049 l 1.03094,0.26097 v 8.5881 l -1.02784,0.24856 c -0.13351,0.0327 -0.22824,0.15917 -0.22841,0.3049 v 0.8294 c 0.001,0.17231 0.13294,0.31127 0.29508,0.31109 h 3.86126 c 0.16229,4.9e-4 0.29442,-0.13858 0.29559,-0.31109 v -0.8294 c -1.7e-4,-0.14571 -0.0949,-0.27209 -0.22841,-0.3049 l -1.02836,-0.24856 v -8.5881 l 1.03094,-0.26097 c 0.13251,-0.0338 0.22594,-0.15997 0.22583,-0.3049 v -0.82888 c 4.5e-4,-0.17372 -0.13223,-0.31467 -0.29559,-0.3142 z"
       sodipodi:nodetypes="ccccccccccccccccccccc" />
    <path
       id="path18963"
       style="color:#000000;-inkscape-font-specification:'BC Sans, Normal';fill:#000000;stroke-width:0.607771;stroke-linecap:round;stroke-linejoin:round"
       d="m 133.46577,225.46866 c -0.16322,-1.7e-4 -0.2955,0.14071 -0.29506,0.3142 v 11.36571 c 10e-4,0.17231 0.13294,0.31127 0.29506,0.31109 h 1.24282 c 0.16209,1.8e-4 0.2939,-0.13874 0.29507,-0.31109 v -6.35207 c 0,-0.58928 -0.0143,-1.16273 -0.0445,-1.72081 -0.007,-0.12145 -0.01,-0.19222 -0.0165,-0.3049 l 5.17902,8.54677 c 0.0546,0.089 0.14804,0.14252 0.24805,0.14207 h 1.57095 c 0.1623,4.9e-4 0.29443,-0.13858 0.29559,-0.31109 v -11.36623 c 1.9e-4,-0.17352 -0.13236,-0.31415 -0.29559,-0.31368 h -1.25625 c -0.16303,-1.7e-4 -0.29523,0.1404 -0.29506,0.31368 v 6.4146 c 0,0.25897 0.004,0.53789 0.0143,0.83819 0.01,0.29722 0.0205,0.58981 0.0305,0.87642 0.003,0.0833 0.006,0.15163 0.009,0.231 l -5.17074,-8.52868 c -0.0541,-0.0904 -0.14781,-0.1451 -0.24857,-0.14526 z"
       sodipodi:nodetypes="ccccccsccccccccccscscccc" />
    <path
       id="path18969"
       style="color:#000000;-inkscape-font-specification:'BC Sans, Normal';fill:#000000;stroke-width:0.607771;stroke-linecap:round;stroke-linejoin:round"
       d="m 149.84721,225.31156 c -1.2055,0 -2.25477,0.25252 -3.13418,0.76998 -0.87607,0.5049 -1.55781,1.23271 -2.02261,2.16473 -0.45461,0.92159 -0.67955,2.00119 -0.67955,3.21944 0,1.23506 0.20169,2.32125 0.61288,3.25149 9.2e-4,0.002 0.001,0.005 0.003,0.006 0.42223,0.92004 1.04335,1.64513 1.85002,2.15284 9.5e-4,2e-5 0.001,2e-5 0.003,0 0.81247,0.50005 1.80016,0.74311 2.94711,0.74311 0.76042,0 1.44315,-0.0461 2.05051,-0.14465 0.60524,-0.0981 1.20591,-0.25256 1.79989,-0.4594 0.12139,-0.0423 0.20346,-0.16285 0.20309,-0.29869 v -5.57073 c -0.001,-0.17229 -0.13294,-0.31127 -0.29508,-0.31109 h -3.69692 c -0.16229,-4.7e-4 -0.29442,0.13859 -0.29559,0.31109 v 1.27331 c -4.4e-4,0.17374 0.13208,0.31469 0.29559,0.3142 h 2.0562 v 2.80448 c -0.20457,0.0494 -0.40983,0.10037 -0.64956,0.13904 -0.3089,0.0497 -0.69473,0.0738 -1.15343,0.0738 -0.92142,0 -1.63905,-0.18448 -2.16731,-0.52711 -0.53794,-0.35956 -0.92409,-0.84211 -1.18133,-1.47484 -0.2527,-0.6567 -0.38447,-1.41435 -0.38447,-2.28307 0,-1.35547 0.33511,-2.37911 0.98651,-3.13004 0.65965,-0.75966 1.5598,-1.14049 2.77761,-1.14049 0.48406,0 0.94479,0.0657 1.38751,0.19585 l 0.009,0.003 c 0.46697,0.12403 0.88267,0.26711 1.2454,0.42943 0.14847,0.0666 0.31971,-0.006 0.38447,-0.16278 l 0.50953,-1.24385 c 0.0643,-0.15849 -0.004,-0.34242 -0.15296,-0.41134 -0.47896,-0.22135 -0.99826,-0.39198 -1.55443,-0.51263 h -0.003 c -0.54995,-0.12115 -1.13327,-0.18036 -1.74924,-0.18036 z"
       sodipodi:nodetypes="cccsscccscsccccccccccsccscscccccccccc" />
  </g>
</svg>
