<?xml version="1.0" encoding="UTF-8" standalone="no"?>
<svg
   width="1000"
   height="1000"
   viewBox="0 0 264.58333 264.58333"
   version="1.1"
   id="svg5"
   inkscape:version="1.2 (dc2aedaf03, 2022-05-15)"
   sodipodi:docname="S_U.svg"
   xmlns:inkscape="http://www.inkscape.org/namespaces/inkscape"
   xmlns:sodipodi="http://sodipodi.sourceforge.net/DTD/sodipodi-0.dtd"
   xmlns="http://www.w3.org/2000/svg"
   xmlns:svg="http://www.w3.org/2000/svg">
  <sodipodi:namedview
     id="namedview7"
     pagecolor="#ffffff"
     bordercolor="#000000"
     borderopacity="0.25"
     inkscape:showpageshadow="2"
     inkscape:pageopacity="0.0"
     inkscape:pagecheckerboard="0"
     inkscape:deskcolor="#d1d1d1"
     inkscape:document-units="px"
     showgrid="true"
     showguides="true"
     inkscape:zoom="0.914906"
     inkscape:cx="671.10719"
     inkscape:cy="944.35931"
     inkscape:window-width="3072"
     inkscape:window-height="1622"
     inkscape:window-x="-11"
     inkscape:window-y="-11"
     inkscape:window-maximized="1"
     inkscape:current-layer="layer1">
    <inkscape:grid
       type="xygrid"
       id="grid182"
       originx="0"
       originy="0" />
    <sodipodi:guide
       position="-99.999999,-535.41666"
       orientation="0,1"
       id="guide184"
       inkscape:locked="false"
       inkscape:label=""
       inkscape:color="rgb(0,134,229)" />
    <sodipodi:guide
       position="-99.999999,80.697916"
       orientation="0,1"
       id="guide186"
       inkscape:locked="false"
       inkscape:label=""
       inkscape:color="rgb(0,134,229)" />
    <sodipodi:guide
       position="500,-835.41666"
       orientation="-1,0"
       id="guide188"
       inkscape:locked="false"
       inkscape:label=""
       inkscape:color="rgb(0,134,229)" />
    <sodipodi:guide
       position="0,264.58333"
       orientation="0,3779.5276"
       id="guide1770"
       inkscape:locked="false" />
    <sodipodi:guide
       position="999.99999,264.58333"
       orientation="3779.5276,0"
       id="guide1772"
       inkscape:locked="false" />
    <sodipodi:guide
       position="999.99999,-735.41666"
       orientation="0,-3779.5276"
       id="guide1774"
       inkscape:locked="false" />
    <sodipodi:guide
       position="0,-735.41666"
       orientation="-3779.5276,0"
       id="guide1776"
       inkscape:locked="false" />
    <sodipodi:guide
       position="-99.999999,-462.91666"
       orientation="0,1"
       id="guide31317"
       inkscape:locked="false"
       inkscape:label="Wheel Top"
       inkscape:color="rgb(0,134,229)" />
    <sodipodi:guide
       position="296.33333,-525.41666"
       orientation="0,1"
       id="guide11678"
       inkscape:locked="false"
       inkscape:label="Middle Universal Line"
       inkscape:color="rgb(0,134,229)" />
    <sodipodi:guide
       position="0,264.58333"
       orientation="0,1000"
       id="guide14417"
       inkscape:locked="false" />
    <sodipodi:guide
       position="264.58333,264.58333"
       orientation="1000,0"
       id="guide14419"
       inkscape:locked="false" />
    <sodipodi:guide
       position="264.58333,0"
       orientation="0,-1000"
       id="guide14421"
       inkscape:locked="false" />
    <sodipodi:guide
       position="0,0"
       orientation="-1000,0"
       id="guide14423"
       inkscape:locked="false" />
  </sodipodi:namedview>
  <defs
     id="defs2" />
  <g
     inkscape:label="Layer 1"
     inkscape:groupmode="layer"
     id="layer1">
    <path
       id="path15465"
       style="color:#000000;fill:#000000;stroke-width:6.89381;stroke-linecap:round;stroke-linejoin:round"
       d="m 127.02583,169.9152 v 5.2e-4 c -1.71427,0 -3.24427,0.2799 -4.57801,0.85524 -1.33075,0.57405 -2.41381,1.41882 -3.19102,2.51768 -0.78651,1.11198 -1.17822,2.44 -1.17822,3.91139 0,2.13022 0.60881,3.9207 1.85828,5.22448 1.21417,1.26699 2.97072,2.28511 5.25084,3.10369 1.52267,0.571 2.71671,1.09154 3.56154,1.54823 0.82175,0.44417 1.34018,0.90902 1.60921,1.33945 0.27885,0.44623 0.43718,1.0162 0.43718,1.75752 0,1.09297 -0.36602,1.83494 -1.19786,2.46393 -0.81213,0.61404 -2.09515,0.97617 -3.90467,0.97617 -1.31862,0 -2.59905,-0.15147 -3.84421,-0.45114 -1.24702,-0.30588 -2.28306,-0.64128 -3.09697,-1.00304 a 0.71117278,0.71117278 0 0 0 -0.99632,0.64596 v 3.1104 a 0.71117278,0.71117278 0 0 0 0.40411,0.63975 c 0.89633,0.42185 1.97892,0.7381 3.25148,0.96274 1.27525,0.22512 2.65308,0.33641 4.1336,0.33641 2.92504,0 5.34046,-0.6652 7.15615,-2.05982 a 0.71117278,0.71117278 0 0 0 0.0403,-0.0403 c 2.91725,-2.61638 2.79576,-6.50454 1.865,-9.44542 a 0.71117278,0.71117278 0 0 0 -0.0672,-0.14831 c -0.59649,-1.00318 -1.48324,-1.84413 -2.61896,-2.51768 l -0.0139,-0.007 c -1.08881,-0.68223 -2.40456,-1.29965 -3.9517,-1.86449 -1.37404,-0.4975 -2.45202,-0.96571 -3.21789,-1.39371 -0.74208,-0.43893 -1.23634,-0.90138 -1.51464,-1.34669 -0.27644,-0.44251 -0.43098,-1.02239 -0.43098,-1.79059 0,-0.96038 0.30126,-1.61091 0.96945,-2.1611 a 0.71117278,0.71117278 0 0 0 0.007,-0.007 c 0.64337,-0.54872 1.67335,-0.88212 3.1843,-0.88212 1.05117,0 2.0801,0.12583 3.08301,0.37672 1.02642,0.25659 1.96299,0.57445 2.8143,0.94258 a 0.71117278,0.71117278 0 0 0 0.9493,-0.41031 l 1.00976,-2.78743 a 0.71117278,0.71117278 0 0 0 -0.37724,-0.88831 c -1.0341,-0.45403 -2.16691,-0.81697 -3.38636,-1.09089 -1.23864,-0.27817 -2.57717,-0.41755 -4.01888,-0.41755 z m 45.88041,5.2e-4 c -2.75035,0 -5.1469,0.59419 -7.1298,1.80454 -1.96535,1.1763 -3.47984,2.84441 -4.49688,4.95473 a 0.71117278,0.71117278 0 0 0 0,0.007 c -0.99123,2.08411 -1.47433,4.48307 -1.47433,7.16959 0,2.77341 0.44618,5.21864 1.35961,7.32461 a 0.71117278,0.71117278 0 0 0 0,0.007 c 0.94242,2.11405 2.36972,3.78327 4.24832,4.9413 1.89261,1.16667 4.22454,1.73013 6.94737,1.73013 1.44646,0 2.7002,-0.0858 3.7636,-0.26252 1.08054,-0.17589 2.12958,-0.44998 3.13728,-0.82786 a 0.71117278,0.71117278 0 0 0 0.45785,-0.66662 v -2.82102 a 0.71117278,0.71117278 0 0 0 -0.90899,-0.67954 c -0.96537,0.28264 -1.94613,0.51851 -2.93522,0.70693 -0.96452,0.18372 -1.97658,0.27595 -3.04323,0.27595 -2.81004,0 -4.77061,-0.84045 -6.11952,-2.51147 v -0.007 c -1.34591,-1.72358 -2.0531,-4.08526 -2.0531,-7.17682 0,-3.11035 0.75133,-5.45659 2.20813,-7.15616 1.45666,-1.69941 3.38733,-2.53834 5.99808,-2.53834 1.09666,0 2.08761,0.13771 2.97605,0.40411 a 0.71117278,0.71117278 0 0 0 0.007,0 c 0.96007,0.28099 1.81985,0.59769 2.57865,0.94258 a 0.71117278,0.71117278 0 0 0 0.93586,-0.34314 l 1.29915,-2.74711 a 0.71117278,0.71117278 0 0 0 -0.32298,-0.93586 c -2.13704,-1.06853 -4.62318,-1.59526 -7.43262,-1.59526 z m -32.94786,0.3638 a 0.71117278,0.71117278 0 0 0 -0.71365,0.70693 v 25.79791 a 0.71117278,0.71117278 0 0 0 0.71365,0.70693 h 3.252 a 0.71117278,0.71117278 0 0 0 0.71365,-0.70693 v -9.33121 h 2.24844 c 2.00631,0 3.7043,-0.23257 5.10977,-0.72709 1.39585,-0.48221 2.54781,-1.12713 3.43338,-1.95905 a 0.71117278,0.71117278 0 0 0 0.007,-0.0134 c 0.86495,-0.83873 1.4966,-1.80228 1.87172,-2.87424 0.38637,-1.06063 0.58549,-2.16977 0.58549,-3.30574 0,-2.55995 -0.85515,-4.6763 -2.55798,-6.13968 -1.73565,-1.49159 -4.37149,-2.15439 -7.83622,-2.15439 z m 3.96565,4.20078 h 2.57142 c 2.17803,0 3.68538,0.41517 4.55114,1.08417 a 0.71117278,0.71117278 0 0 0 0.007,0 c 0.89909,0.67934 1.34669,1.65034 1.34669,3.15743 0,1.7525 -0.50137,2.80248 -1.48777,3.45353 a 0.71117278,0.71117278 0 0 0 -0.007,0 c -0.98857,0.66576 -2.69177,1.07022 -5.09633,1.07022 h -1.88516 z m -55.810546,5.95829 a 3.446905,3.446905 0 0 0 -3.446818,3.44682 3.446905,3.446905 0 0 0 3.446818,3.44682 h 20.270596 a 3.446905,3.446905 0 0 0 3.44733,-3.44682 3.446905,3.446905 0 0 0 -3.44733,-3.44682 z m 99.960306,0 a 3.446905,3.446905 0 0 0 -3.44682,3.44682 3.446905,3.446905 0 0 0 3.44682,3.44682 h 19.86028 a 3.446905,3.446905 0 0 0 3.44682,-3.44682 3.446905,3.446905 0 0 0 -3.44682,-3.44682 z" />
  </g>
</svg>
