<?xml version="1.0" encoding="UTF-8" standalone="no"?>
<svg
   sodipodi:docname="T_T_two_S.svg"
   inkscape:version="1.2 (dc2aedaf03, 2022-05-15)"
   id="svg5"
   version="1.1"
   viewBox="0 0 264.58333 264.58333"
   height="1000"
   width="1000"
   xmlns:inkscape="http://www.inkscape.org/namespaces/inkscape"
   xmlns:sodipodi="http://sodipodi.sourceforge.net/DTD/sodipodi-0.dtd"
   xmlns="http://www.w3.org/2000/svg"
   xmlns:svg="http://www.w3.org/2000/svg">
  <sodipodi:namedview
     id="namedview7"
     pagecolor="#ffffff"
     bordercolor="#000000"
     borderopacity="0.25"
     inkscape:showpageshadow="2"
     inkscape:pageopacity="0.0"
     inkscape:pagecheckerboard="0"
     inkscape:deskcolor="#d1d1d1"
     inkscape:document-units="px"
     showgrid="true"
     showguides="true"
     inkscape:zoom="1.829812"
     inkscape:cx="767.83844"
     inkscape:cy="698.4324"
     inkscape:window-width="3072"
     inkscape:window-height="1622"
     inkscape:window-x="-11"
     inkscape:window-y="-11"
     inkscape:window-maximized="1"
     inkscape:current-layer="layer1">
    <sodipodi:guide
       position="-26.458333,52.916666"
       orientation="0,1"
       id="guide184"
       inkscape:locked="false"
       inkscape:label=""
       inkscape:color="rgb(0,134,229)" />
    <sodipodi:guide
       position="-26.458333,88.635416"
       orientation="0,1"
       id="guide186"
       inkscape:locked="false"
       inkscape:label=""
       inkscape:color="rgb(0,134,229)" />
    <sodipodi:guide
       position="264.58333,-835.41666"
       orientation="-1,0"
       id="guide188"
       inkscape:locked="false"
       inkscape:label=""
       inkscape:color="rgb(0,134,229)" />
    <sodipodi:guide
       position="0,264.58333"
       orientation="0,3779.5276"
       id="guide1770"
       inkscape:locked="false" />
    <sodipodi:guide
       position="999.99999,264.58333"
       orientation="3779.5276,0"
       id="guide1772"
       inkscape:locked="false" />
    <sodipodi:guide
       position="-26.458333,0"
       orientation="0,1"
       id="guide1774"
       inkscape:locked="false"
       inkscape:label=""
       inkscape:color="rgb(0,134,229)" />
    <sodipodi:guide
       position="0,-735.41666"
       orientation="-3779.5276,0"
       id="guide1776"
       inkscape:locked="false" />
    <sodipodi:guide
       position="-26.458333,33.072916"
       orientation="0,1"
       id="guide31317"
       inkscape:locked="false"
       inkscape:label="Wheel Top"
       inkscape:color="rgb(0,134,229)" />
    <inkscape:grid
       type="xygrid"
       id="grid182"
       originx="0"
       originy="0" />
    <sodipodi:guide
       position="179.91666,211.66666"
       orientation="0,1"
       id="guide2549"
       inkscape:locked="false"
       inkscape:label=""
       inkscape:color="rgb(0,134,229)" />
  </sodipodi:namedview>
  <defs
     id="defs2" />
  <g
     inkscape:label="Layer 1"
     inkscape:groupmode="layer"
     id="layer1">
    <path
       style="color:#000000;fill:#000000;stroke-width:1.51024;stroke-linecap:round"
       d="m 105.11908,175.98732 c -9.797827,0 -17.839671,8.04181 -17.839671,17.83967 0,9.79786 8.041844,17.83967 17.839671,17.83967 9.79789,0 17.83969,-8.04183 17.83969,-17.83967 0,-9.79784 -8.0418,-17.83967 -17.83969,-17.83967 z m 0,3.02047 c 8.14678,0 14.81921,6.67246 14.81921,14.8192 0,8.14676 -6.67243,14.8192 -14.81921,14.8192 -8.146715,0 -14.819198,-6.67245 -14.819198,-14.8192 0,-8.14674 6.672483,-14.8192 14.819198,-14.8192 z m 0,4.572 c -5.668144,0 -10.247167,4.57901 -10.247167,10.2472 0,5.66819 4.579023,10.24718 10.247167,10.24718 5.66822,0 10.24425,-4.57899 10.24425,-10.24718 0,-5.66819 -4.57603,-10.2472 -10.24425,-10.2472 z m 0,3.02048 c 4.0687,0 7.22378,3.15804 7.22378,7.22672 0,4.06869 -3.15508,7.22671 -7.22378,7.22671 -4.06861,0 -7.226694,-3.15804 -7.226694,-7.22671 0,-4.06867 3.158104,-7.22672 7.226694,-7.22672 z"
       id="path2045"
       sodipodi:nodetypes="ssssssssssssssssssss" />
    <path
       style="color:#000000;fill:#000000;stroke-width:1.51024;stroke-linecap:round"
       d="m 142.875,175.98732 c -9.79783,0 -17.83967,8.04181 -17.83967,17.83967 0,9.79786 8.04184,17.83967 17.83967,17.83967 9.79789,0 17.83969,-8.04183 17.83969,-17.83967 0,-9.79784 -8.0418,-17.83967 -17.83969,-17.83967 z m 0,3.02047 c 8.14678,0 14.81921,6.67246 14.81921,14.8192 0,8.14676 -6.67243,14.8192 -14.81921,14.8192 -8.14671,0 -14.8192,-6.67245 -14.8192,-14.8192 0,-8.14674 6.67249,-14.8192 14.8192,-14.8192 z m 0,4.572 c -5.66813,0 -10.24717,4.57901 -10.24717,10.2472 0,5.66819 4.57904,10.24718 10.24717,10.24718 5.66821,0 10.24425,-4.57899 10.24425,-10.24718 0,-5.66819 -4.57604,-10.2472 -10.24425,-10.2472 z m 0,3.02048 c 4.06871,0 7.22378,3.15804 7.22378,7.22672 0,4.06869 -3.15508,7.22671 -7.22378,7.22671 -4.06861,0 -7.22669,-3.15804 -7.22669,-7.22671 0,-4.06867 3.15808,-7.22672 7.22669,-7.22672 z"
       id="path2042"
       sodipodi:nodetypes="ssssssssssssssssssss" />
    <path
       style="color:#000000;fill:#000000;stroke-width:1.51024;stroke-linecap:round;stroke-linejoin:round;-inkscape-stroke:none"
       d="m 131.95233,131.62411 a 1.5103878,1.5103878 0 0 0 -1.39225,0.92325 l -9.89027,23.38508 -38.434351,5.91411 a 1.5103878,1.5103878 0 0 0 -1.265412,1.28016 l -2.887739,20.21711 -3.645817,1.21527 a 1.5103878,1.5103878 0 0 0 -1.032383,1.43355 v 7.55118 a 1.5103878,1.5103878 0 0 0 1.504332,1.51024 l 7.893358,0.0324 a 1.5102368,1.5102368 0 0 0 1.516127,-1.50434 1.5102368,1.5102368 0 0 0 -1.504332,-1.51613 l -6.389011,-0.0266 v -4.95841 l 3.498327,-1.16512 a 1.5103878,1.5103878 0 0 0 1.017628,-1.22117 l 2.861204,-20.03424 38.160019,-5.86986 a 1.5103878,1.5103878 0 0 0 1.16218,-0.90555 l 9.82834,-23.24054 h 37.10698 v 57.389 h -6.04094 a 1.5102368,1.5102368 0 0 0 -1.51024,1.51023 1.5102368,1.5102368 0 0 0 1.51024,1.51024 h 7.55118 a 1.5103878,1.5103878 0 0 0 1.51024,-1.51024 v -60.40947 a 1.5103878,1.5103878 0 0 0 -1.51024,-1.51024 z"
       id="path2039" />
    <path
       style="color:#000000;fill:#000000;stroke-width:1.51024;stroke-linecap:round;stroke-linejoin:round;-inkscape-stroke:none"
       d="m 135.32382,136.15482 a 1.5103878,1.5103878 0 0 0 -1.40995,0.9675 l -7.55118,19.63308 a 1.5103878,1.5103878 0 0 0 1.40994,2.05298 h 25.67403 a 1.5103878,1.5103878 0 0 0 1.51024,-1.51024 v -19.63308 a 1.5103878,1.5103878 0 0 0 -1.51024,-1.51024 z m 1.03828,3.02048 h 15.57432 v 16.6126 h -21.96333 z"
       id="path2036" />
    <path
       style="color:#000000;fill:#000000;stroke-width:1.51024;stroke-linecap:round;stroke-linejoin:round;-inkscape-stroke:none"
       d="m 159.48761,136.15482 a 1.5103878,1.5103878 0 0 0 -1.51024,1.51024 v 19.63308 a 1.5103878,1.5103878 0 0 0 1.51024,1.51024 h 7.55118 a 1.5103878,1.5103878 0 0 0 1.51024,-1.51024 v -19.63308 a 1.5103878,1.5103878 0 0 0 -1.51024,-1.51024 z m 1.51023,3.02048 h 4.53071 v 16.6126 h -4.53071 z"
       id="path2033" />
    <path
       id="path2030"
       style="color:#000000;-inkscape-font-specification:'BC Sans, Normal';fill:#000000;stroke-width:0.637315;stroke-linecap:round;stroke-linejoin:round"
       d="M 113.33365 225.14078 C 112.56565 225.14083 111.8786 225.26333 111.28106 225.52112 C 110.68474 225.77835 110.20154 226.15887 109.85324 226.65128 C 109.50076 227.14959 109.32511 227.74686 109.32511 228.40621 C 109.32511 229.3608 109.59718 230.16084 110.1571 230.74509 C 110.70171 231.31338 111.49088 231.77024 112.51406 232.13725 C 113.19421 232.39246 113.72589 232.62656 114.10363 232.83075 C 114.47186 233.02978 114.70911 233.23627 114.82968 233.42916 C 114.95472 233.62914 115.0214 233.88505 115.0214 234.21723 C 115.0214 234.70702 114.85725 235.04124 114.48448 235.3231 C 114.12055 235.59826 113.54612 235.75977 112.73524 235.75977 C 112.14533 235.75977 111.57249 235.69314 111.01544 235.55926 L 111.01234 235.55926 C 110.45498 235.42242 109.99042 235.2694 109.62638 235.10761 A 0.31868958 0.31868958 0 0 0 109.17783 235.397 L 109.17783 236.78916 A 0.31868958 0.31868958 0 0 0 109.36077 237.07803 C 109.76236 237.26698 110.24774 237.40839 110.81804 237.50901 C 111.38945 237.60983 112.00666 237.65939 112.67012 237.65939 C 113.98087 237.65939 115.063 237.3609 115.87665 236.73593 C 116.69422 236.10794 117.11533 235.18937 117.11533 234.087 C 117.11533 233.44144 116.98339 232.87742 116.69934 232.41785 L 116.69623 232.41475 C 116.42892 231.9667 116.03293 231.59187 115.52525 231.29079 L 115.51956 231.28769 C 115.03163 230.98196 114.44301 230.70624 113.74964 230.45311 C 113.13393 230.23018 112.65056 230.01963 112.30736 229.82783 C 111.97473 229.63111 111.75357 229.42279 111.62884 229.22321 C 111.50485 229.02492 111.43402 228.76493 111.43402 228.42068 C 111.43402 227.99031 111.56825 227.69986 111.86759 227.4533 A 0.31868958 0.31868958 0 0 0 111.87379 227.4502 C 112.16208 227.2043 112.62453 227.05487 113.30161 227.05487 C 113.77264 227.05487 114.2324 227.11354 114.68189 227.22592 C 115.14185 227.34091 115.56285 227.48006 115.94434 227.64502 A 0.31868958 0.31868958 0 0 0 116.36912 227.46208 L 116.82336 226.2141 A 0.31868958 0.31868958 0 0 0 116.65231 225.81309 C 116.18894 225.60967 115.68263 225.44898 115.13612 225.3263 C 114.58124 225.20172 113.98004 225.14081 113.33417 225.14078 L 113.33365 225.14078 z " />
    <path
       id="path2024"
       style="color:#000000;-inkscape-font-specification:'BC Sans, Normal';fill:#000000;stroke-width:0.637315;stroke-linecap:round;stroke-linejoin:round"
       d="M 119.13019 225.30304 A 0.31868958 0.31868958 0 0 0 118.81135 225.62137 L 118.81135 237.17828 A 0.31868958 0.31868958 0 0 0 119.13019 237.49713 L 120.58695 237.49713 A 0.31868958 0.31868958 0 0 0 120.9058 237.17828 L 120.9058 232.99559 L 121.91452 232.99559 C 122.81358 232.99559 123.57346 232.89319 124.20327 232.67158 C 124.82878 232.4555 125.34328 232.16794 125.74013 231.79515 A 0.31868958 0.31868958 0 0 0 125.74633 231.78947 C 126.13392 231.41362 126.4159 230.9805 126.584 230.50014 C 126.75717 230.02481 126.84652 229.52869 126.84652 229.01961 C 126.84652 227.87244 126.46238 226.9262 125.6993 226.27042 C 124.92152 225.60201 123.7415 225.30304 122.18892 225.30304 L 119.13019 225.30304 z M 120.9058 227.1851 L 122.05921 227.1851 C 123.03524 227.1851 123.70936 227.369 124.09733 227.66879 A 0.31868958 0.31868958 0 0 0 124.10043 227.67189 C 124.50334 227.9763 124.70195 228.40936 124.70195 229.08472 C 124.70195 229.87005 124.47734 230.34121 124.03532 230.63295 C 123.59231 230.93129 122.82978 231.11406 121.75226 231.11406 L 120.9058 231.11406 L 120.9058 227.1851 z " />
    <path
       id="path2018"
       style="color:#000000;-inkscape-font-specification:'BC Sans, Normal';fill:#000000;stroke-width:0.637315;stroke-linecap:round;stroke-linejoin:round"
       d="M 128.92288 225.30304 A 0.31868958 0.31868958 0 0 0 128.60455 225.62137 L 128.60455 237.17828 A 0.31868958 0.31868958 0 0 0 128.92288 237.49713 L 132.14387 237.49713 C 134.09815 237.49713 135.66848 236.98639 136.79578 235.9396 C 137.94048 234.87582 138.50059 233.29653 138.50059 231.2851 C 138.50061 230.01477 138.262 228.92459 137.76627 228.02536 C 137.27336 227.13124 136.55535 226.44316 135.63926 225.98465 L 135.63668 225.98465 C 134.73293 225.52761 133.67675 225.30304 132.48338 225.30304 L 128.92288 225.30304 z M 130.69848 227.1851 L 132.2741 227.1851 C 133.61107 227.1851 134.58911 227.52649 135.27391 228.18193 A 0.31868958 0.31868958 0 0 0 135.2765 228.18504 C 135.95866 228.81917 136.32656 229.84473 136.32656 231.33523 C 136.32656 232.81344 135.95358 233.8643 135.24704 234.55622 C 134.54051 235.24814 133.46238 235.61507 131.94957 235.61507 L 130.699 235.61507 L 130.69848 227.1851 z " />
    <path
       id="path2012"
       style="color:#000000;fill:#000000;stroke-width:3.02047;stroke-linecap:round;stroke-linejoin:round"
       d="M 105.11916 217.70764 A 1.5102368 1.5102368 0 0 0 103.60866 219.21762 L 103.60866 241.87154 A 1.5102368 1.5102368 0 0 0 105.11916 243.38152 A 1.5102368 1.5102368 0 0 0 106.62915 241.87154 L 106.62915 219.21762 A 1.5102368 1.5102368 0 0 0 105.11916 217.70764 z " />
    <path
       id="path2006"
       style="color:#000000;fill:#000000;stroke-width:3.02047;stroke-linecap:round;stroke-linejoin:round"
       d="M 142.875 217.70764 A 1.5102368 1.5102368 0 0 0 141.36501 219.21762 L 141.36501 241.87154 A 1.5102368 1.5102368 0 0 0 142.875 243.38152 A 1.5102368 1.5102368 0 0 0 144.38498 241.87154 L 144.38498 219.21762 A 1.5102368 1.5102368 0 0 0 142.875 217.70764 z " />
  </g>
</svg>
