<?xml version="1.0" encoding="UTF-8" standalone="no"?>
<svg
   width="1000"
   height="1000"
   viewBox="0 0 264.58333 264.58333"
   version="1.1"
   id="svg5"
   inkscape:version="1.2 (dc2aedaf03, 2022-05-15)"
   sodipodi:docname="T_T_four_S.svg"
   xmlns:inkscape="http://www.inkscape.org/namespaces/inkscape"
   xmlns:sodipodi="http://sodipodi.sourceforge.net/DTD/sodipodi-0.dtd"
   xmlns="http://www.w3.org/2000/svg"
   xmlns:svg="http://www.w3.org/2000/svg">
  <sodipodi:namedview
     id="namedview7"
     pagecolor="#ffffff"
     bordercolor="#000000"
     borderopacity="0.25"
     inkscape:showpageshadow="2"
     inkscape:pageopacity="0.0"
     inkscape:pagecheckerboard="0"
     inkscape:deskcolor="#d1d1d1"
     inkscape:document-units="px"
     showgrid="true"
     showguides="true"
     inkscape:zoom="0.914906"
     inkscape:cx="500.59787"
     inkscape:cy="1140.0078"
     inkscape:window-width="3072"
     inkscape:window-height="1622"
     inkscape:window-x="-11"
     inkscape:window-y="-11"
     inkscape:window-maximized="1"
     inkscape:current-layer="layer1">
    <inkscape:grid
       type="xygrid"
       id="grid182"
       originx="0"
       originy="0" />
    <sodipodi:guide
       position="-99.999999,88.635416"
       orientation="0,1"
       id="guide184"
       inkscape:locked="false"
       inkscape:label=""
       inkscape:color="rgb(0,134,229)" />
    <sodipodi:guide
       position="-99.999999,33.072916"
       orientation="0,1"
       id="guide186"
       inkscape:locked="false"
       inkscape:label=""
       inkscape:color="rgb(0,134,229)" />
    <sodipodi:guide
       position="500,-835.41666"
       orientation="-1,0"
       id="guide188"
       inkscape:locked="false"
       inkscape:label=""
       inkscape:color="rgb(0,134,229)" />
    <sodipodi:guide
       position="0,264.58333"
       orientation="0,3779.5276"
       id="guide1770"
       inkscape:locked="false" />
    <sodipodi:guide
       position="999.99999,264.58333"
       orientation="3779.5276,0"
       id="guide1772"
       inkscape:locked="false" />
    <sodipodi:guide
       position="999.99999,52.916666"
       orientation="0,1"
       id="guide1774"
       inkscape:locked="false"
       inkscape:label=""
       inkscape:color="rgb(0,134,229)" />
    <sodipodi:guide
       position="0,-735.41666"
       orientation="-3779.5276,0"
       id="guide1776"
       inkscape:locked="false" />
    <sodipodi:guide
       position="-99.999999,211.66666"
       orientation="0,1"
       id="guide31317"
       inkscape:locked="false"
       inkscape:label="Wheel Top"
       inkscape:color="rgb(0,134,229)" />
    <sodipodi:guide
       position="0,264.58333"
       orientation="0,1000"
       id="guide3584"
       inkscape:locked="false" />
    <sodipodi:guide
       position="264.58333,264.58333"
       orientation="1000,0"
       id="guide3586"
       inkscape:locked="false" />
    <sodipodi:guide
       position="264.58333,0"
       orientation="0,-1000"
       id="guide3588"
       inkscape:locked="false" />
    <sodipodi:guide
       position="0,0"
       orientation="-1000,0"
       id="guide3590"
       inkscape:locked="false" />
  </sodipodi:namedview>
  <defs
     id="defs2" />
  <g
     inkscape:label="Layer 1"
     inkscape:groupmode="layer"
     id="layer1">
    <path
       style="color:#000000;fill:#000000;stroke-width:1.51024;stroke-linecap:round;stroke-linejoin:round;-inkscape-stroke:none"
       d="m 128.15895,131.6241 a 1.5103878,1.5103878 0 0 0 -1.38341,0.90555 l -10.21474,23.34672 -64.052329,5.95837 a 1.5103878,1.5103878 0 0 0 -1.368652,1.39815 l -1.436492,20.13452 -3.575017,1.19167 a 1.5103878,1.5103878 0 0 0 -1.032383,1.43354 v 7.55119 a 1.5103878,1.5103878 0 0 0 1.510237,1.51023 h 6.040947 a 1.5102368,1.5102368 0 0 0 1.510237,-1.51023 1.5102368,1.5102368 0 0 0 -1.510237,-1.51024 H 48.1164 v -4.95252 l 3.498328,-1.16512 a 1.5103878,1.5103878 0 0 0 1.029438,-1.32736 l 1.418792,-19.86315 63.662972,-5.92296 a 1.5103878,1.5103878 0 0 0 1.24477,-0.89965 l 10.1764,-23.25824 h 86.60559 v 57.389 h -4.53072 a 1.5102368,1.5102368 0 0 0 -1.51023,1.51024 1.5102368,1.5102368 0 0 0 1.51023,1.51023 h 6.04095 a 1.5103878,1.5103878 0 0 0 1.51024,-1.51023 v -60.40947 a 1.5103878,1.5103878 0 0 0 -1.51024,-1.51024 z"
       id="path1006-1-0-3-5-7-5" />
    <path
       style="color:#000000;fill:#000000;stroke-width:1.51024;stroke-linecap:round;stroke-linejoin:round;-inkscape-stroke:none"
       d="m 131.17942,136.15481 a 1.5103878,1.5103878 0 0 0 -1.40994,0.96749 l -7.55118,19.63308 a 1.5103878,1.5103878 0 0 0 1.40994,2.05298 h 28.6945 a 1.5103878,1.5103878 0 0 0 1.51024,-1.51024 v -19.63307 a 1.5103878,1.5103878 0 0 0 -1.51024,-1.51024 z m 1.03829,3.02047 h 18.59479 v 16.61261 h -24.9838 z"
       id="path1158-9-2-8-0-3-9" />
    <path
       style="color:#000000;fill:#000000;stroke-width:1.51024;stroke-linecap:round;stroke-linejoin:round;-inkscape-stroke:none"
       d="m 197.62984,136.15481 a 1.5103878,1.5103878 0 0 0 -1.51023,1.51024 v 19.63307 a 1.5103878,1.5103878 0 0 0 1.51023,1.51024 h 15.10237 a 1.5103878,1.5103878 0 0 0 1.51024,-1.51024 v -19.63307 a 1.5103878,1.5103878 0 0 0 -1.51024,-1.51024 z m 1.51024,3.02047 h 12.08189 v 16.61261 h -12.08189 z"
       id="path1160-3-0-7-0-7-0" />
    <path
       style="color:#000000;fill:#000000;stroke-width:1.51024;stroke-linecap:round"
       d="m 188.56842,175.98734 c -9.79781,0 -17.83967,8.04179 -17.83967,17.83965 0,9.79786 8.04186,17.83967 17.83967,17.83967 9.79789,0 17.83968,-8.04183 17.83968,-17.83967 0,-9.79784 -8.0418,-17.83965 -17.83968,-17.83965 z m 0,3.02045 c 8.14679,0 14.8192,6.67246 14.8192,14.8192 0,8.14676 -6.67241,14.8192 -14.8192,14.8192 -8.14671,0 -14.8192,-6.67245 -14.8192,-14.8192 0,-8.14674 6.67249,-14.8192 14.8192,-14.8192 z m 0,4.572 c -5.66814,0 -10.24718,4.57901 -10.24718,10.2472 0,5.66819 4.57905,10.24719 10.24718,10.24719 5.66819,0 10.24426,-4.579 10.24426,-10.24719 0,-5.66819 -4.57605,-10.2472 -10.24426,-10.2472 z m 0,3.02048 c 4.06869,0 7.22378,3.15805 7.22378,7.22672 0,4.06869 -3.15509,7.22671 -7.22376,7.22671 -4.06861,0 -7.22673,-3.15804 -7.22673,-7.22671 0,-4.06867 3.15812,-7.22672 7.22671,-7.22672 z"
       id="path2031-5-7-7-1-1-1-0-3-1-4-0-6-5"
       sodipodi:nodetypes="ssssssssssssssssssss" />
    <path
       style="color:#000000;fill:#000000;stroke-width:1.51024;stroke-linecap:round"
       d="m 150.8125,175.98734 c -9.79782,0 -17.83967,8.04179 -17.83967,17.83965 0,9.79786 8.04185,17.83967 17.83967,17.83967 9.79788,0 17.83968,-8.04183 17.83968,-17.83967 0,-9.79784 -8.0418,-17.83965 -17.83968,-17.83965 z m 0,3.02045 c 8.14679,0 14.8192,6.67246 14.8192,14.8192 0,8.14676 -6.67241,14.8192 -14.8192,14.8192 -8.14673,0 -14.8192,-6.67245 -14.8192,-14.8192 0,-8.14674 6.67247,-14.8192 14.8192,-14.8192 z m 0,4.572 c -5.66814,0 -10.24718,4.57901 -10.24718,10.2472 0,5.66819 4.57904,10.24719 10.24718,10.24719 5.66818,0 10.24426,-4.579 10.24426,-10.24719 0,-5.66819 -4.57607,-10.2472 -10.24426,-10.2472 z m 0,3.02048 c 4.06869,0 7.22378,3.15804 7.22378,7.22672 0,4.06869 -3.15509,7.22671 -7.22378,7.22671 -4.06862,0 -7.22671,-3.15804 -7.22671,-7.22671 0,-4.06867 3.15809,-7.22672 7.22671,-7.22672 z"
       id="path2031-7-1-4-3-5-8-4-4-4-8-8-6-8"
       sodipodi:nodetypes="ssssssssssssssssssss" />
    <path
       style="color:#000000;fill:#000000;stroke-width:1.51024;stroke-linecap:round"
       d="m 113.05658,175.98734 c -9.79782,0 -17.839669,8.04179 -17.839669,17.83965 0,9.79786 8.041849,17.83967 17.839669,17.83967 9.79789,0 17.83969,-8.04183 17.83969,-17.83967 0,-9.79784 -8.0418,-17.83965 -17.83969,-17.83965 z m 0,3.02045 c 8.14679,0 14.81922,6.67246 14.81922,14.8192 0,8.14676 -6.67243,14.8192 -14.81922,14.8192 -8.14671,0 -14.819196,-6.67245 -14.819196,-14.8192 0,-8.14674 6.672486,-14.8192 14.819196,-14.8192 z m 0,4.572 c -5.66816,0 -10.24718,4.57901 -10.24718,10.2472 0,5.66819 4.57904,10.24719 10.24718,10.24719 5.66818,0 10.24424,-4.579 10.24424,-10.24719 0,-5.66819 -4.57605,-10.2472 -10.24424,-10.2472 z m 0,3.02048 c 4.0687,0 7.22377,3.15804 7.22377,7.22672 0,4.06869 -3.15508,7.22671 -7.22377,7.22671 -4.06861,0 -7.22671,-3.15804 -7.22671,-7.22671 0,-4.06867 3.1581,-7.22672 7.22671,-7.22672 z"
       id="path2031-7-1-4-1-7-7-7-2-4-2-1-7-5-4"
       sodipodi:nodetypes="ssssssssssssssssssss" />
    <path
       style="color:#000000;fill:#000000;stroke-width:1.51024;stroke-linecap:round"
       d="m 75.300663,175.98734 c -9.797828,0 -17.839672,8.04179 -17.839672,17.83965 0,9.79786 8.041844,17.83967 17.839672,17.83967 9.797903,0 17.839702,-8.04183 17.839702,-17.83967 0,-9.79784 -8.041799,-17.83965 -17.839702,-17.83965 z m 0,3.02045 c 8.146806,0 14.819229,6.67246 14.819229,14.8192 0,8.14676 -6.672423,14.8192 -14.819229,14.8192 -8.146716,0 -14.819199,-6.67245 -14.819199,-14.8192 0,-8.14674 6.672483,-14.8192 14.819199,-14.8192 z m 0,4.572 c -5.668161,0 -10.247183,4.57901 -10.247183,10.2472 0,5.66819 4.579038,10.24719 10.247183,10.24719 5.668175,0 10.244253,-4.579 10.244253,-10.24719 0,-5.66819 -4.576063,-10.2472 -10.244253,-10.2472 z m 0,3.02048 c 4.068699,0 7.223764,3.15804 7.223764,7.22672 0,4.06869 -3.155081,7.22671 -7.223764,7.22671 -4.068608,0 -7.22671,-3.15804 -7.22671,-7.22671 0,-4.06867 3.158102,-7.22672 7.22671,-7.22672 z"
       id="path2031-7-1-4-1-7-7-5-9-6-0-5-8-1-9-1"
       sodipodi:nodetypes="ssssssssssssssssssss" />
    <path
       id="path2786"
       style="color:#000000;fill:#000000;stroke-width:3.02047;stroke-linecap:round;stroke-linejoin:round"
       d="M 75.300829 217.70764 A 1.5102368 1.5102368 0 0 0 73.790327 219.21762 L 73.790327 231.29957 L 73.790327 241.87154 A 1.5102368 1.5102368 0 0 0 75.300829 243.38152 A 1.5102368 1.5102368 0 0 0 76.810814 241.87154 L 76.810814 232.81008 L 97.954226 232.81008 A 1.5102368 1.5102368 0 0 0 99.464212 231.29957 A 1.5102368 1.5102368 0 0 0 97.954226 229.78959 L 76.810814 229.78959 L 76.810814 219.21762 A 1.5102368 1.5102368 0 0 0 75.300829 217.70764 z " />
    <path
       id="path2792"
       style="color:#000000;fill:#000000;stroke-width:3.02047;stroke-linecap:round;stroke-linejoin:round"
       d="M 188.56833 217.70764 A 1.5102368 1.5102368 0 0 0 187.05835 219.21762 L 187.05835 229.78959 L 167.42492 229.78959 A 1.5102368 1.5102368 0 0 0 165.91494 231.29957 A 1.5102368 1.5102368 0 0 0 167.42492 232.81008 L 187.05835 232.81008 L 187.05835 241.87154 A 1.5102368 1.5102368 0 0 0 188.56833 243.38152 A 1.5102368 1.5102368 0 0 0 190.07883 241.87154 L 190.07883 231.29957 L 190.07883 219.21762 A 1.5102368 1.5102368 0 0 0 188.56833 217.70764 z " />
    <path
       id="path18873"
       style="color:#000000;-inkscape-font-specification:'BC Sans, Normal';fill:#000000;stroke-width:0.598927;stroke-linecap:round;stroke-linejoin:round"
       d="m 110.51081,225.33793 c -0.70023,0 -1.32747,0.12024 -1.87224,0.36999 -0.54355,0.24923 -0.98322,0.61586 -1.30069,1.09296 -0.32124,0.48283 -0.48214,1.06078 -0.48214,1.69965 0,0.92491 0.25033,1.70251 0.76068,2.26859 0.49642,0.55062 1.21506,0.99212 2.14768,1.34771 h -0.006 c 0.62192,0.24793 1.1096,0.47353 1.45469,0.67181 0.33564,0.19286 0.55002,0.39654 0.6599,0.58342 0.11397,0.19371 0.17571,0.43931 0.17571,0.7612 0,0.47457 -0.14803,0.79915 -0.48783,1.07227 -0.33172,0.2666 -0.85719,0.42323 -1.59629,0.42323 -0.53865,0 -1.05986,-0.065 -1.56837,-0.19532 -0.50935,-0.13282 -0.93208,-0.28116 -1.26453,-0.43823 -0.19207,-0.092 -0.4095,0.0572 -0.40978,0.28113 v 1.35029 c 4.2e-4,0.11948 0.0656,0.22796 0.16743,0.27855 0.36609,0.18313 0.80882,0.31999 1.32859,0.41755 0.52091,0.0978 1.08356,0.14525 1.68827,0.14525 1.19474,0 2.17808,-0.28898 2.91972,-0.89452 0.74523,-0.60847 1.13379,-1.49919 1.13379,-2.56729 0,-0.62539 -0.12253,-1.16859 -0.38138,-1.61385 l -0.003,-0.003 c -0.24332,-0.43345 -0.60539,-0.79838 -1.06713,-1.08985 -0.44562,-0.29744 -0.98438,-0.56833 -1.6185,-0.81442 -0.56124,-0.216 -1.00234,-0.41827 -1.31516,-0.6041 -0.30307,-0.19056 -0.50437,-0.3932 -0.61806,-0.58653 -0.11297,-0.19213 -0.1757,-0.44208 -0.1757,-0.77567 0,-0.41698 0.12296,-0.70008 0.39584,-0.93895 9.5e-4,-0.001 0.001,-0.002 0.003,-0.003 0.26277,-0.23823 0.68407,-0.38188 1.30121,-0.38188 0.42937,0 0.84917,0.0538 1.25883,0.16278 0.41925,0.11145 0.80312,0.24891 1.15083,0.40875 0.15311,0.0696 0.32984,-0.0121 0.38707,-0.17776 l 0.41237,-1.20819 c 0.0522,-0.15286 -0.016,-0.32261 -0.15607,-0.3881 -0.42236,-0.1971 -0.88062,-0.35494 -1.37872,-0.47387 -0.50591,-0.12085 -1.05496,-0.18035 -1.64383,-0.18035 z"
       sodipodi:nodetypes="cssssccssssscccccsssscccccssccssccccscc" />
    <path
       id="path18879"
       style="color:#000000;-inkscape-font-specification:'BC Sans, Normal';fill:#000000;stroke-width:0.598927;stroke-linecap:round;stroke-linejoin:round"
       d="m 115.79319,225.49503 c -0.15992,3.3e-4 -0.2895,0.13797 -0.28992,0.30798 v 11.19983 c 4.2e-4,0.17001 0.12995,0.30768 0.28992,0.308 h 1.32859 c 0.15992,-3.3e-4 0.28951,-0.13798 0.2899,-0.308 v -4.0509 h 0.91933 c 0.81947,0 1.51521,-0.10265 2.08928,-0.31731 0.56834,-0.20921 1.03802,-0.4892 1.39889,-0.84955 10e-4,-9.9e-4 0.004,-0.002 0.006,-0.003 0.35331,-0.36419 0.60996,-0.78471 0.76326,-1.25006 0.15785,-0.46053 0.23927,-0.93983 0.23927,-1.43299 0,-1.11149 -0.35195,-2.03008 -1.04749,-2.66546 -0.70893,-0.64762 -1.78307,-0.93844 -3.19825,-0.93844 z m 1.61849,1.82727 h 1.05318 c 0.88964,0 1.50464,0.17719 1.85827,0.46767 9.5e-4,10e-4 10e-4,0.002 0.003,0.003 0.36724,0.29494 0.5488,0.71353 0.5488,1.36787 0,0.76091 -0.20427,1.21595 -0.60718,1.49862 -9.6e-4,0.001 -0.001,0.002 -0.003,0.003 -0.40378,0.28905 -1.09885,0.46509 -2.081,0.46509 h -0.77154 z"
       sodipodi:nodetypes="cccccccsccccsscccsccsccscc" />
    <path
       id="path18885"
       style="color:#000000;-inkscape-font-specification:'BC Sans, Normal';fill:#000000;stroke-width:0.598927;stroke-linecap:round;stroke-linejoin:round"
       d="m 124.71926,225.49503 c -0.15991,3.3e-4 -0.2895,0.13797 -0.28991,0.30798 v 11.19983 c 4.1e-4,0.17001 0.12994,0.30768 0.28991,0.308 h 1.3286 c 0.15991,-3.3e-4 0.2895,-0.13798 0.2899,-0.308 v -4.31757 h 1.63814 l 2.46807,4.47467 c 0.0526,0.094 0.1482,0.15148 0.25114,0.15087 h 1.54875 c 0.22534,-8.4e-4 0.36401,-0.26227 0.24805,-0.46767 l -2.7218,-4.72634 c 0.16689,-0.077 0.337,-0.14177 0.49557,-0.24287 0.28351,-0.17387 0.53531,-0.39503 0.75241,-0.66043 0.21892,-0.26759 0.39226,-0.58178 0.5209,-0.93328 0.145,-0.3793 0.21446,-0.81014 0.21446,-1.29087 0,-1.13994 -0.34343,-2.05469 -1.03921,-2.64169 -0.69825,-0.58908 -1.7324,-0.85266 -3.08664,-0.85266 z m 1.6185,1.84173 h 1.21491 c 0.83262,0 1.41417,0.15747 1.74924,0.41188 9.4e-4,0.001 0.001,0.002 0.003,0.003 0.32322,0.23723 0.49557,0.62947 0.49557,1.29966 0,0.63793 -0.16728,1.0637 -0.49041,1.36529 -0.30207,0.27993 -0.85437,0.45941 -1.68259,0.45941 h -1.28984 z"
       sodipodi:nodetypes="ccccccccccccccscsssccsccscscc" />
    <path
       id="path18891"
       style="color:#000000;-inkscape-font-specification:'BC Sans, Normal';fill:#000000;stroke-width:0.598927;stroke-linecap:round;stroke-linejoin:round"
       d="m 133.89853,225.49503 c -0.16091,-0.001 -0.29207,0.13691 -0.29248,0.30798 v 11.19983 c 4.1e-4,0.17107 0.13151,0.30918 0.29248,0.308 h 5.88699 c 0.15971,-6.4e-4 0.28899,-0.13828 0.28939,-0.308 v -1.23765 c 0.001,-0.17097 -0.12852,-0.31043 -0.28939,-0.31108 h -4.27106 v -3.38172 h 4.00337 c 0.16092,10e-4 0.2921,-0.13691 0.29249,-0.30799 v -1.22317 c -3.9e-4,-0.17107 -0.13151,-0.30918 -0.29249,-0.308 h -4.00337 v -2.88147 h 4.27106 c 0.15971,-6.4e-4 0.28899,-0.13828 0.28939,-0.308 v -1.24075 c -4.2e-4,-0.16976 -0.12966,-0.30733 -0.28939,-0.30798 z"
       sodipodi:nodetypes="ccccccccccccccccccccc" />
    <path
       id="path18897"
       style="color:#000000;-inkscape-font-specification:'BC Sans, Normal';fill:#000000;stroke-width:0.598927;stroke-linecap:round;stroke-linejoin:round"
       d="m 144.78625,225.44748 c -0.11996,4.5e-4 -0.2274,0.0793 -0.27027,0.19844 l -4.11758,11.24427 c -0.0743,0.20331 0.0676,0.42224 0.27285,0.42065 h 1.34308 c 0.11996,-4.6e-4 0.22738,-0.0793 0.27026,-0.19845 l 1.18081,-3.26646 h 3.77806 l 1.19786,3.26957 c 0.0438,0.11796 0.151,0.19538 0.27027,0.19534 h 1.37356 c 0.20409,-3.7e-4 0.3442,-0.21845 0.27026,-0.42065 l -4.10362,-11.24427 c -0.0429,-0.11917 -0.15027,-0.19799 -0.27027,-0.19844 z m 0.59065,2.85202 c 0.0365,0.12797 0.0725,0.2546 0.10285,0.37568 0.003,0.008 0.006,0.0161 0.009,0.0238 0.0496,0.14768 0.0826,0.24875 0.10598,0.31109 l 1.03353,2.96417 h -2.50165 l 1.05005,-2.97295 c 9.6e-4,-0.001 0.001,-0.002 0.003,-0.003 0.0589,-0.17756 0.12353,-0.41702 0.1974,-0.69866 z"
       sodipodi:nodetypes="ccccccccccccccccccccccccc" />
    <path
       id="path18903"
       style="color:#000000;-inkscape-font-specification:'BC Sans, Normal';fill:#000000;stroke-width:0.598927;stroke-linecap:round;stroke-linejoin:round"
       d="m 151.53105,225.49503 c -0.16091,-0.001 -0.29208,0.13691 -0.29249,0.30798 v 11.19983 c 4.1e-4,0.17108 0.13151,0.3092 0.29249,0.308 h 2.93626 c 1.78131,0 3.21252,-0.49575 4.24005,-1.50998 1.04342,-1.0307 1.55184,-2.55885 1.55184,-4.50774 0,-1.23083 -0.21682,-2.28821 -0.66869,-3.15951 -0.4496,-0.86694 -1.10303,-1.53391 -1.93889,-1.97817 -0.82426,-0.44364 -1.78657,-0.66041 -2.87528,-0.66041 z m 1.6185,1.82727 h 1.43455 c 1.21863,0 2.11156,0.32714 2.73575,0.96221 9.4e-4,10e-4 0.001,0.002 0.003,0.003 0.62178,0.61441 0.9555,1.60889 0.9555,3.05304 0,1.43224 -0.3394,2.45086 -0.9834,3.12126 -0.644,0.6704 -1.62711,1.02474 -3.00602,1.02474 h -1.13947 z"
       sodipodi:nodetypes="ccccscsscsccsscssscc" />
  </g>
</svg>
