<?xml version="1.0" encoding="UTF-8" standalone="no"?>
<svg
   width="1000"
   height="1000"
   viewBox="0 0 264.58333 264.58333"
   version="1.1"
   id="svg5"
   inkscape:version="1.2 (dc2aedaf03, 2022-05-15)"
   sodipodi:docname="three_D.svg"
   xmlns:inkscape="http://www.inkscape.org/namespaces/inkscape"
   xmlns:sodipodi="http://sodipodi.sourceforge.net/DTD/sodipodi-0.dtd"
   xmlns="http://www.w3.org/2000/svg"
   xmlns:svg="http://www.w3.org/2000/svg">
  <sodipodi:namedview
     id="namedview7"
     pagecolor="#ffffff"
     bordercolor="#000000"
     borderopacity="0.25"
     inkscape:showpageshadow="2"
     inkscape:pageopacity="0.0"
     inkscape:pagecheckerboard="0"
     inkscape:deskcolor="#d1d1d1"
     inkscape:document-units="px"
     showgrid="true"
     showguides="true"
     inkscape:zoom="0.64693624"
     inkscape:cx="-89.653348"
     inkscape:cy="1080.4774"
     inkscape:window-width="3072"
     inkscape:window-height="1622"
     inkscape:window-x="-11"
     inkscape:window-y="-11"
     inkscape:window-maximized="1"
     inkscape:current-layer="layer1">
    <inkscape:grid
       type="xygrid"
       id="grid182"
       originx="0"
       originy="0" />
    <sodipodi:guide
       position="-99.999999,52.916666"
       orientation="0,1"
       id="guide184"
       inkscape:locked="false"
       inkscape:label=""
       inkscape:color="rgb(0,134,229)" />
    <sodipodi:guide
       position="-99.999999,211.66666"
       orientation="0,1"
       id="guide186"
       inkscape:locked="false"
       inkscape:label=""
       inkscape:color="rgb(0,134,229)" />
    <sodipodi:guide
       position="132.29166,-835.41666"
       orientation="-1,0"
       id="guide188"
       inkscape:locked="false"
       inkscape:label=""
       inkscape:color="rgb(0,134,229)" />
    <sodipodi:guide
       position="0,264.58333"
       orientation="0,3779.5276"
       id="guide1770"
       inkscape:locked="false" />
    <sodipodi:guide
       position="999.99999,264.58333"
       orientation="3779.5276,0"
       id="guide1772"
       inkscape:locked="false" />
    <sodipodi:guide
       position="999.99999,33.072916"
       orientation="0,1"
       id="guide1774"
       inkscape:locked="false"
       inkscape:label=""
       inkscape:color="rgb(0,134,229)" />
    <sodipodi:guide
       position="0,-735.41666"
       orientation="-3779.5276,0"
       id="guide1776"
       inkscape:locked="false" />
    <sodipodi:guide
       position="-99.999999,88.635416"
       orientation="0,1"
       id="guide31317"
       inkscape:locked="false"
       inkscape:label="Wheel Top"
       inkscape:color="rgb(0,134,229)" />
    <sodipodi:guide
       position="0,264.58333"
       orientation="0,1000"
       id="guide4243"
       inkscape:locked="false" />
    <sodipodi:guide
       position="264.58333,264.58333"
       orientation="1000,0"
       id="guide4245"
       inkscape:locked="false" />
    <sodipodi:guide
       position="264.58333,0"
       orientation="0,-1000"
       id="guide4247"
       inkscape:locked="false" />
    <sodipodi:guide
       position="0,0"
       orientation="-1000,0"
       id="guide4249"
       inkscape:locked="false" />
  </sodipodi:namedview>
  <defs
     id="defs2" />
  <g
     inkscape:label="Layer 1"
     inkscape:groupmode="layer"
     id="layer1">
    <path
       id="path5378"
       style="color:#000000;fill:#000000;stroke-width:1.51024;stroke-linecap:round;stroke-linejoin:round;-inkscape-stroke:none"
       d="M 52.845869 164.84937 A 1.5103878 1.5103878 0 0 0 51.335884 166.35935 L 51.335884 170.89034 L 51.335884 193.54374 A 1.5103878 1.5103878 0 0 0 52.845869 195.05424 L 98.153181 195.05424 A 1.5103878 1.5103878 0 0 0 99.61304 193.93338 L 105.35533 172.40033 L 214.92796 172.40033 L 223.61219 194.10443 A 1.5103878 1.5103878 0 0 0 225.01314 195.05424 L 234.0746 195.05424 A 1.5103878 1.5103878 0 0 0 235.5081 194.02175 L 243.05906 171.36835 A 1.5103878 1.5103878 0 0 0 243.13606 170.89034 L 243.13606 166.35935 A 1.5103878 1.5103878 0 0 0 241.62556 164.84937 L 52.845869 164.84937 z M 54.356371 167.86985 L 240.11557 167.86985 L 240.11557 170.6454 L 232.98629 192.03375 L 226.03685 192.03375 L 217.35262 170.32965 A 1.5103878 1.5103878 0 0 0 215.95167 169.37984 L 104.19984 169.37984 A 1.5102368 1.5102368 0 0 0 104.18434 169.37984 L 54.356371 169.37984 L 54.356371 167.86985 z M 54.356371 172.40033 L 102.22787 172.40033 L 96.994078 192.03375 L 54.356371 192.03375 L 54.356371 172.40033 z " />
    <path
       style="color:#000000;fill:#000000;stroke-width:1.51024;stroke-linecap:round"
       d="m 197.82883,175.98733 c -9.79783,0 -17.83967,8.0418 -17.83967,17.83966 0,9.79786 8.04184,17.83967 17.83967,17.83967 9.79787,0 17.83967,-8.04183 17.83967,-17.83967 0,-9.79784 -8.0418,-17.83966 -17.83967,-17.83966 z m 0,3.02046 c 8.14678,0 14.8192,6.67246 14.8192,14.8192 0,8.14676 -6.67242,14.8192 -14.8192,14.8192 -8.14671,0 -14.8192,-6.67245 -14.8192,-14.8192 0,-8.14674 6.67249,-14.8192 14.8192,-14.8192 z m 0,4.572 c -5.66814,0 -10.24718,4.57901 -10.24718,10.2472 0,5.66819 4.57904,10.24719 10.24718,10.24719 5.66819,0 10.24424,-4.579 10.24424,-10.24719 0,-5.66819 -4.57605,-10.2472 -10.24424,-10.2472 z m 0,3.02048 c 4.06868,0 7.22377,3.15804 7.22377,7.22672 0,4.06869 -3.15509,7.22671 -7.22377,7.22671 -4.06861,0 -7.22671,-3.15804 -7.22671,-7.22671 0,-4.06867 3.1581,-7.22672 7.22671,-7.22672 z"
       id="path2031-2-3-3"
       sodipodi:nodetypes="ssssssssssssssssssss" />
    <path
       style="color:#000000;fill:#000000;stroke-width:1.51024;stroke-linecap:round"
       d="m 160.07291,175.98732 c -9.79783,0 -17.83967,8.04181 -17.83967,17.83967 0,9.79786 8.04184,17.83967 17.83967,17.83967 9.79787,0 17.83967,-8.04183 17.83967,-17.83967 0,-9.79784 -8.0418,-17.83967 -17.83967,-17.83967 z m 0,3.02047 c 8.14678,0 14.8192,6.67246 14.8192,14.8192 0,8.14676 -6.67242,14.8192 -14.8192,14.8192 -8.14671,0 -14.8192,-6.67245 -14.8192,-14.8192 0,-8.14674 6.67249,-14.8192 14.8192,-14.8192 z m 0,4.572 c -5.66814,0 -10.24718,4.57901 -10.24718,10.2472 0,5.66819 4.57904,10.24719 10.24718,10.24719 5.66819,0 10.24424,-4.579 10.24424,-10.24719 0,-5.66819 -4.57605,-10.2472 -10.24424,-10.2472 z m 0,3.02048 c 4.06868,0 7.22377,3.15805 7.22377,7.22672 0,4.06869 -3.15509,7.22671 -7.22377,7.22671 -4.06861,0 -7.22671,-3.15804 -7.22671,-7.22671 0,-4.06867 3.1581,-7.22672 7.22671,-7.22672 z"
       id="path2031-5-1-4"
       sodipodi:nodetypes="ssssssssssssssssssss" />
    <path
       style="color:#000000;fill:#000000;stroke-width:1.51024;stroke-linecap:round"
       d="m 122.31699,175.98732 c -9.79783,0 -17.83967,8.04181 -17.83967,17.83967 0,9.79786 8.04184,17.83967 17.83967,17.83967 9.79787,0 17.83967,-8.04183 17.83967,-17.83967 0,-9.79784 -8.0418,-17.83967 -17.83967,-17.83967 z m 0,3.02047 c 8.14678,0 14.8192,6.67246 14.8192,14.8192 0,8.14676 -6.67242,14.8192 -14.8192,14.8192 -8.14671,0 -14.8192,-6.67245 -14.8192,-14.8192 0,-8.14674 6.67249,-14.8192 14.8192,-14.8192 z m 0,4.572 c -5.66814,0 -10.24718,4.57901 -10.24718,10.2472 0,5.66819 4.57904,10.24719 10.24718,10.24719 5.66819,0 10.24424,-4.579 10.24424,-10.24719 0,-5.66819 -4.57605,-10.2472 -10.24424,-10.2472 z m 0,3.02048 c 4.06868,0 7.22377,3.15804 7.22377,7.22672 0,4.06869 -3.15509,7.22671 -7.22377,7.22671 -4.06861,0 -7.22671,-3.15804 -7.22671,-7.22671 0,-4.06867 3.1581,-7.22672 7.22671,-7.22672 z"
       id="path2031-7-7-2"
       sodipodi:nodetypes="ssssssssssssssssssss" />
    <path
       id="path4063"
       style="color:#000000;fill:#000000;stroke-width:3.02047;stroke-linecap:round;stroke-linejoin:round"
       d="m 122.19822,217.91848 c -0.83408,-1.4e-4 -1.51035,0.6759 -1.5105,1.50998 v 10.57197 h -10.21178 c -0.83388,1.4e-4 -1.50984,0.6761 -1.50999,1.50998 -1.5e-4,0.8341 0.6759,1.51038 1.50999,1.51051 h 10.21178 v 9.06146 c 1.5e-4,0.83409 0.67642,1.51013 1.5105,1.50998 0.83389,-1.3e-4 1.50985,-0.67609 1.50999,-1.50998 v -22.65392 c -1.4e-4,-0.83388 -0.6761,-1.50984 -1.50999,-1.50998 z"
       sodipodi:nodetypes="scccscccsccs" />
    <path
       id="path4069"
       style="color:#000000;fill:#000000;stroke-width:3.02047;stroke-linecap:round;stroke-linejoin:round"
       d="m 197.70989,217.91848 c -0.83388,1.4e-4 -1.50984,0.6761 -1.50999,1.50998 v 22.65392 c 1.5e-4,0.83389 0.67611,1.50985 1.50999,1.50998 0.83409,1.5e-4 1.51036,-0.67589 1.5105,-1.50998 v -22.65392 c -1.4e-4,-0.83408 -0.67641,-1.51012 -1.5105,-1.50998 z"
       sodipodi:nodetypes="sccsccs" />
    <path
       id="path4117"
       style="color:#000000;fill:#000000;stroke-width:3.02047;stroke-linecap:round;stroke-linejoin:round"
       d="m 19.502168,230.00043 c -0.834084,-1.4e-4 -1.51036,0.6759 -1.510502,1.50998 -1.5e-4,0.8343 0.676211,1.51066 1.510502,1.51051 h 13.591935 c 0.834291,1.5e-4 1.510653,-0.67621 1.510502,-1.51051 -1.41e-4,-0.83408 -0.676418,-1.51012 -1.510502,-1.50998 z"
       sodipodi:nodetypes="csccscc" />
    <path
       id="path18933"
       style="color:#000000;-inkscape-font-specification:'BC Sans, Normal';fill:#000000;stroke-width:0.607771;stroke-linecap:round;stroke-linejoin:round"
       d="m 45.534181,225.70611 c -0.710571,0 -1.347313,0.12282 -1.900153,0.37621 -0.551543,0.25293 -0.998674,0.62326 -1.320839,1.10742 -0.326016,0.48996 -0.487312,1.07825 -0.487312,1.72652 0,0.93857 0.251045,1.7267 0.768939,2.30115 0.502503,0.55741 1.232573,1.0049 2.175589,1.36528 0.631107,0.25157 1.126693,0.48302 1.4769,0.68421 0.340608,0.19573 0.557192,0.39946 0.668707,0.58911 0.115538,0.19664 0.17827,0.44649 0.17827,0.77307 0,0.48159 -0.151283,0.80965 -0.496084,1.08677 -0.336615,0.27054 -0.868473,0.42943 -1.618513,0.42943 -0.546579,0 -1.077653,-0.0663 -1.593693,-0.19845 -0.516867,-0.13479 -0.944199,-0.28193 -1.281584,-0.44131 -0.194274,-0.0922 -0.413668,0.0581 -0.414951,0.28422 v 1.37149 c 0.001,0.12069 0.06718,0.23006 0.170011,0.28112 0.371475,0.18577 0.818193,0.32477 1.345658,0.42375 0.528564,0.0992 1.099391,0.14783 1.713068,0.14783 1.21239,0 2.211577,-0.2945 2.964155,-0.90899 0.75623,-0.61746 1.150841,-1.51909 1.150841,-2.60295 0,-0.63467 -0.124809,-1.18889 -0.387579,-1.64072 l -0.0029,-0.003 c -0.248206,-0.44221 -0.617172,-0.81083 -1.089336,-1.10742 -0.450939,-0.30009 -0.995179,-0.57211 -1.635557,-0.82062 v -5.2e-4 -5.1e-4 -5.3e-4 -5.2e-4 -5.1e-4 -5.2e-4 c -0.569544,-0.2192 -1.016846,-0.42431 -1.33429,-0.61288 -0.307601,-0.1934 -0.511489,-0.39911 -0.626842,-0.59531 -0.114539,-0.19496 -0.180866,-0.4491 -0.180866,-0.78755 0,-0.42316 0.124096,-0.70842 0.401016,-0.95084 0.0014,-0.002 0.0043,-0.005 0.0057,-0.006 0.26665,-0.24177 0.694068,-0.38499 1.32034,-0.38499 0.435691,0 0.860684,0.0553 1.276405,0.16587 0.42545,0.11311 0.813999,0.24915 1.16686,0.41135 0.15549,0.0711 0.335173,-0.0106 0.393256,-0.18035 l 0.420643,-1.22318 c 0.05292,-0.15533 -0.01669,-0.32763 -0.159157,-0.39379 -0.428617,-0.20002 -0.895475,-0.362 -1.400959,-0.48265 -0.513358,-0.12251 -1.068453,-0.18087 -1.666039,-0.18087 z"
       sodipodi:nodetypes="ccssscscssscccccssssccccccccccccsccssccccscc" />
    <path
       id="path18939"
       style="color:#000000;-inkscape-font-specification:'BC Sans, Normal';fill:#000000;stroke-width:0.607771;stroke-linecap:round;stroke-linejoin:round"
       d="m 50.894061,225.86321 c -0.163222,-1.7e-4 -0.29552,0.14071 -0.295078,0.3142 v 11.36571 c 0.0012,0.17231 0.13294,0.31127 0.295078,0.31109 h 1.345643 c 0.162095,1.8e-4 0.293908,-0.13874 0.295078,-0.31109 v -4.11344 h 0.933274 c 0.830516,0 1.535596,-0.10249 2.117706,-0.31988 0.578559,-0.21247 1.056114,-0.49543 1.423168,-0.86197 9.56e-4,-0.001 0.0014,-0.002 0.0029,-0.003 0.357938,-0.36896 0.621578,-0.79319 0.777212,-1.26452 v -0.003 c 0.160754,-0.46814 0.242372,-0.95578 0.242372,-1.45728 0,-1.1279 -0.355628,-2.05894 -1.061435,-2.70371 -0.719415,-0.65717 -1.809206,-0.95343 -3.245283,-0.95343 z m 1.640721,1.85416 h 1.070221 c 0.902764,0 1.526838,0.17859 1.885676,0.47335 v 0.003 c 0.372673,0.29932 0.55759,0.72502 0.55759,1.38906 0,0.77215 -0.20714,1.23556 -0.615987,1.52238 -9.55e-4,10e-4 -0.0014,0.002 -0.0029,0.003 -0.409773,0.29333 -1.115352,0.47128 -2.112015,0.47128 h -0.782903 z"
       sodipodi:nodetypes="cccccccscscccsscccsccsccscc" />
    <path
       id="path18945"
       style="color:#000000;-inkscape-font-specification:'BC Sans, Normal';fill:#000000;stroke-width:0.607771;stroke-linecap:round;stroke-linejoin:round"
       d="m 61.929039,225.81568 c -0.122384,-2.5e-4 -0.232259,0.0799 -0.27595,0.20154 l -4.175975,11.41015 c -0.07474,0.2046 0.06633,0.42543 0.272855,0.42684 h 1.362703 c 0.121528,5.3e-4 0.230876,-0.0782 0.275436,-0.19843 l 1.200965,-3.31712 h 3.833355 l 1.214915,3.31712 c 0.04422,0.11918 0.152282,0.19784 0.272855,0.19843 h 1.393199 c 0.207583,5e-4 0.350621,-0.22116 0.275422,-0.42684 l -4.162011,-11.41015 c -0.04365,-0.12161 -0.153522,-0.20179 -0.275949,-0.20154 z m 0.599455,2.8975 c 0.03666,0.12888 0.07218,0.25651 0.102843,0.37827 0.0029,0.008 0.0057,0.0156 0.0086,0.0232 0.05035,0.1498 0.08516,0.25116 0.108976,0.31419 l 1.047485,3.0086 H 61.26374 l 1.06142,-3.0148 c 9.7e-4,-0.002 0.0014,-0.005 0.0029,-0.006 0.05962,-0.17953 0.125808,-0.41944 0.200508,-0.70383 z"
       sodipodi:nodetypes="ccccccccccccccccccccccccc" />
    <path
       id="path18951"
       style="color:#000000;-inkscape-font-specification:'BC Sans, Normal';fill:#000000;stroke-width:0.607771;stroke-linecap:round;stroke-linejoin:round"
       d="m 73.067374,225.70611 c -1.139987,0 -2.131429,0.26049 -2.953301,0.79376 -0.814641,0.51828 -1.441896,1.25299 -1.863452,2.18281 v 0.003 c -0.410844,0.91826 -0.613406,1.97583 -0.613406,3.1595 0,1.22199 0.184162,2.30031 0.562755,3.22823 9.41e-4,0.001 0.0014,0.002 0.0029,0.003 0.390632,0.93147 0.981943,1.66638 1.76061,2.17661 0.784458,0.51404 1.752364,0.76069 2.880968,0.76069 0.600597,0 1.11879,-0.037 1.560122,-0.11523 0.44785,-0.0775 0.88042,-0.19784 1.2981,-0.36431 0.11625,-0.046 0.19316,-0.16423 0.19223,-0.29611 v -1.24076 c -7.1e-4,-0.20909 -0.19022,-0.35879 -0.37878,-0.2992 -0.40017,0.12448 -0.80494,0.22806 -1.21491,0.31109 -0.399806,0.081 -0.819864,0.12145 -1.261945,0.12145 -1.164749,0 -1.978733,-0.3686 -2.537822,-1.10484 v -0.003 c -0.557876,-0.75941 -0.852668,-1.80045 -0.852668,-3.1626 0,-1.36924 0.316502,-2.40252 0.919324,-3.15122 0.130372,-0.13798 0.672557,-0.6358 1.362189,-0.95654 0.69809,-0.32469 1.514742,-0.47539 2.295992,-0.0121 0.0194,0.0106 0.0398,0.0203 0.061,0.0268 0.39795,0.12388 0.7552,0.2625 1.06969,0.41444 0.1463,0.0703 0.31859,0.003 0.38758,-0.15087 l 0.54053,-1.21129 c 0.0672,-0.15318 0.009,-0.3354 -0.13379,-0.41186 -0.88578,-0.4708 -1.91958,-0.70178 -3.084061,-0.70178 z"
       sodipodi:nodetypes="ccccsccsscccccssccscscccccccc" />
    <path
       id="path18957"
       style="color:#000000;-inkscape-font-specification:'BC Sans, Normal';fill:#000000;stroke-width:0.607771;stroke-linecap:round;stroke-linejoin:round"
       d="m 77.08161,225.86321 c -0.16322,-1.7e-4 -0.29552,0.14071 -0.29508,0.3142 v 0.82888 c -1.5e-4,0.1448 0.093,0.2708 0.22532,0.3049 l 1.03093,0.26097 v 8.5881 l -1.02784,0.24856 c -0.13351,0.0327 -0.22824,0.15917 -0.22841,0.3049 v 0.8294 c 0.001,0.17231 0.13294,0.31127 0.29508,0.31109 h 3.86126 c 0.16229,4.9e-4 0.29442,-0.13858 0.29559,-0.31109 v -0.8294 c -1.7e-4,-0.14571 -0.0949,-0.27209 -0.22841,-0.3049 l -1.02836,-0.24856 v -8.5881 l 1.03094,-0.26097 c 0.13251,-0.0338 0.22594,-0.15997 0.22583,-0.3049 v -0.82888 c 4.5e-4,-0.17372 -0.13223,-0.31467 -0.29559,-0.3142 z"
       sodipodi:nodetypes="ccccccccccccccccccccc" />
    <path
       id="path18963"
       style="color:#000000;-inkscape-font-specification:'BC Sans, Normal';fill:#000000;stroke-width:0.607771;stroke-linecap:round;stroke-linejoin:round"
       d="m 83.00992,225.86321 c -0.16322,-1.7e-4 -0.2955,0.14071 -0.29506,0.3142 v 11.36571 c 0.001,0.17231 0.13294,0.31127 0.29506,0.31109 h 1.24282 c 0.16209,1.8e-4 0.2939,-0.13874 0.29507,-0.31109 v -6.35207 c 0,-0.58928 -0.0143,-1.16273 -0.0445,-1.72081 -0.007,-0.12145 -0.01,-0.19222 -0.0165,-0.3049 l 5.17902,8.54677 c 0.0546,0.089 0.14804,0.14252 0.24805,0.14207 h 1.57095 c 0.1623,4.9e-4 0.29443,-0.13858 0.29559,-0.31109 v -11.36623 c 1.9e-4,-0.17352 -0.13236,-0.31415 -0.29559,-0.31368 h -1.25625 c -0.16303,-1.7e-4 -0.29523,0.1404 -0.29506,0.31368 v 6.4146 c 0,0.25897 0.004,0.53789 0.0143,0.83819 0.01,0.29722 0.0205,0.58981 0.0305,0.87642 0.003,0.0833 0.006,0.15163 0.009,0.231 l -5.17074,-8.52868 c -0.0541,-0.0904 -0.14781,-0.1451 -0.24857,-0.14526 z"
       sodipodi:nodetypes="ccccccsccccccccccscscccc" />
    <path
       id="path18969"
       style="color:#000000;-inkscape-font-specification:'BC Sans, Normal';fill:#000000;stroke-width:0.607771;stroke-linecap:round;stroke-linejoin:round"
       d="m 99.39136,225.70611 c -1.2055,0 -2.25477,0.25252 -3.13418,0.76998 -0.87607,0.5049 -1.55781,1.23271 -2.02261,2.16473 -0.45461,0.92159 -0.67955,2.00119 -0.67955,3.21944 0,1.23506 0.20169,2.32125 0.61288,3.25149 9.2e-4,0.002 10e-4,0.005 0.003,0.006 0.42223,0.92004 1.04335,1.64513 1.85002,2.15284 9.5e-4,2e-5 10e-4,2e-5 0.003,0 0.81247,0.50005 1.80016,0.74311 2.94711,0.74311 0.76042,0 1.44315,-0.0461 2.05051,-0.14465 0.60524,-0.0981 1.2059,-0.25256 1.79988,-0.4594 0.12139,-0.0423 0.20346,-0.16285 0.20309,-0.29869 v -5.57073 c -0.001,-0.17229 -0.13294,-0.31127 -0.29508,-0.31109 h -3.69691 c -0.16229,-4.7e-4 -0.29442,0.13859 -0.29559,0.31109 v 1.27331 c -4.4e-4,0.17374 0.13208,0.31469 0.29559,0.3142 h 2.0562 v 2.80448 c -0.20457,0.0494 -0.40983,0.10037 -0.64956,0.13904 -0.3089,0.0497 -0.69473,0.0738 -1.15343,0.0738 -0.92142,0 -1.63905,-0.18448 -2.16731,-0.52711 -0.53794,-0.35956 -0.92409,-0.84211 -1.18133,-1.47484 -0.2527,-0.6567 -0.38447,-1.41435 -0.38447,-2.28307 0,-1.35547 0.33511,-2.37911 0.98651,-3.13004 0.65965,-0.75966 1.5598,-1.14049 2.77761,-1.14049 0.48406,0 0.94479,0.0657 1.38751,0.19585 l 0.009,0.003 c 0.46697,0.12403 0.88267,0.26711 1.2454,0.42943 0.14846,0.0666 0.3197,-0.006 0.38446,-0.16278 l 0.50953,-1.24385 c 0.0643,-0.15849 -0.004,-0.34242 -0.15296,-0.41134 -0.47896,-0.22135 -0.99825,-0.39198 -1.55442,-0.51263 h -0.003 c -0.54995,-0.12115 -1.13327,-0.18036 -1.74924,-0.18036 z"
       sodipodi:nodetypes="cccsscccscsccccccccccsccscscccccccccc" />
    <path
       id="path18873"
       style="color:#000000;-inkscape-font-specification:'BC Sans, Normal';fill:#000000;stroke-width:0.598927;stroke-linecap:round;stroke-linejoin:round"
       d="m 138.91916,225.50304 c -0.70023,0 -1.32747,0.12024 -1.87224,0.36999 -0.54356,0.24923 -0.98323,0.61586 -1.3007,1.09296 -0.32124,0.48283 -0.48213,1.06078 -0.48213,1.69965 0,0.92491 0.25033,1.70251 0.76068,2.26859 0.49641,0.55062 1.21505,0.99212 2.14767,1.34771 h -0.006 c 0.62192,0.24793 1.1096,0.47353 1.45469,0.67181 0.33564,0.19286 0.55001,0.39654 0.6599,0.58342 0.11397,0.19371 0.1757,0.43931 0.1757,0.7612 0,0.47457 -0.14803,0.79915 -0.48782,1.07227 -0.33172,0.2666 -0.85719,0.42323 -1.59629,0.42323 -0.53865,0 -1.05987,-0.065 -1.56837,-0.19532 -0.50935,-0.13282 -0.93208,-0.28116 -1.26453,-0.43823 -0.19208,-0.092 -0.4095,0.0572 -0.40979,0.28113 v 1.35029 c 4.3e-4,0.11948 0.0656,0.22796 0.16743,0.27855 0.3661,0.18313 0.80882,0.31999 1.3286,0.41755 0.5209,0.0978 1.08356,0.14525 1.68826,0.14525 1.19475,0 2.17809,-0.28898 2.91973,-0.89452 0.74522,-0.60847 1.13378,-1.49919 1.13378,-2.56729 0,-0.62539 -0.12253,-1.16859 -0.38138,-1.61385 l -0.003,-0.003 c -0.24331,-0.43345 -0.60539,-0.79838 -1.06712,-1.08985 -0.44562,-0.29744 -0.98439,-0.56833 -1.6185,-0.81442 -0.56124,-0.216 -1.00234,-0.41827 -1.31516,-0.6041 -0.30307,-0.19056 -0.50438,-0.3932 -0.61806,-0.58653 -0.11297,-0.19213 -0.1757,-0.44208 -0.1757,-0.77567 0,-0.41698 0.12295,-0.70008 0.39584,-0.93895 9.5e-4,-0.001 10e-4,-0.002 0.003,-0.003 0.26277,-0.23823 0.68407,-0.38188 1.30121,-0.38188 0.42937,0 0.84917,0.0538 1.25883,0.16278 0.41925,0.11145 0.80312,0.24891 1.15083,0.40875 0.15311,0.0696 0.32984,-0.0121 0.38707,-0.17776 l 0.41237,-1.20819 c 0.0522,-0.15286 -0.016,-0.32261 -0.15607,-0.3881 -0.42237,-0.1971 -0.88062,-0.35494 -1.37872,-0.47387 -0.50591,-0.12085 -1.05496,-0.18035 -1.64383,-0.18035 z"
       sodipodi:nodetypes="cssssccssssscccccsssscccccssccssccccscc" />
    <path
       id="path18879"
       style="color:#000000;-inkscape-font-specification:'BC Sans, Normal';fill:#000000;stroke-width:0.598927;stroke-linecap:round;stroke-linejoin:round"
       d="m 144.20153,225.66014 c -0.15992,3.3e-4 -0.2895,0.13797 -0.28992,0.30798 v 11.19983 c 4.2e-4,0.17001 0.12995,0.30768 0.28992,0.308 h 1.32859 c 0.15992,-3.3e-4 0.28951,-0.13798 0.2899,-0.308 v -4.0509 h 0.91933 c 0.81947,0 1.51521,-0.10265 2.08928,-0.31731 0.56834,-0.20921 1.03802,-0.4892 1.39889,-0.84955 0.001,-9.9e-4 0.004,-0.002 0.006,-0.003 0.35331,-0.36419 0.60996,-0.78471 0.76326,-1.25006 0.15785,-0.46053 0.23927,-0.93983 0.23927,-1.43299 0,-1.11149 -0.35195,-2.03008 -1.04749,-2.66546 -0.70893,-0.64762 -1.78307,-0.93844 -3.19825,-0.93844 z m 1.61849,1.82727 h 1.05318 c 0.88964,0 1.50464,0.17719 1.85827,0.46767 9.5e-4,10e-4 0.001,0.002 0.003,0.003 0.36724,0.29494 0.5488,0.71353 0.5488,1.36787 0,0.76091 -0.20427,1.21595 -0.60718,1.49862 -9.6e-4,0.001 -10e-4,0.002 -0.003,0.003 -0.40378,0.28905 -1.09885,0.46509 -2.081,0.46509 h -0.77154 z"
       sodipodi:nodetypes="cccccccsccccsscccsccsccscc" />
    <path
       id="path18885"
       style="color:#000000;-inkscape-font-specification:'BC Sans, Normal';fill:#000000;stroke-width:0.598927;stroke-linecap:round;stroke-linejoin:round"
       d="m 153.1276,225.66014 c -0.15991,3.3e-4 -0.2895,0.13797 -0.28991,0.30798 v 11.19983 c 4.1e-4,0.17001 0.12994,0.30768 0.28991,0.308 h 1.3286 c 0.15991,-3.3e-4 0.2895,-0.13798 0.2899,-0.308 v -4.31757 h 1.63814 l 2.46807,4.47467 c 0.0526,0.094 0.1482,0.15148 0.25114,0.15087 h 1.54875 c 0.22534,-8.4e-4 0.36401,-0.26227 0.24805,-0.46767 l -2.7218,-4.72634 c 0.16689,-0.077 0.337,-0.14177 0.49557,-0.24287 0.28351,-0.17387 0.53531,-0.39503 0.75241,-0.66043 0.21892,-0.26759 0.39226,-0.58178 0.5209,-0.93328 0.145,-0.3793 0.21446,-0.81014 0.21446,-1.29087 0,-1.13994 -0.34343,-2.05469 -1.03921,-2.64169 -0.69825,-0.58908 -1.7324,-0.85267 -3.08664,-0.85266 z m 1.6185,1.84173 h 1.21491 c 0.83262,0 1.41417,0.15747 1.74924,0.41188 9.4e-4,0.001 0.001,0.002 0.003,0.003 0.32322,0.23723 0.49557,0.62947 0.49557,1.29966 0,0.63793 -0.16728,1.0637 -0.49041,1.36529 -0.30207,0.27993 -0.85437,0.45941 -1.68259,0.45941 h -1.28984 z"
       sodipodi:nodetypes="ccccccccccccccscsssccsccscscc" />
    <path
       id="path18891"
       style="color:#000000;-inkscape-font-specification:'BC Sans, Normal';fill:#000000;stroke-width:0.598927;stroke-linecap:round;stroke-linejoin:round"
       d="m 162.30687,225.66014 c -0.16091,-0.001 -0.29207,0.13691 -0.29248,0.30798 v 11.19983 c 4.1e-4,0.17107 0.13151,0.30918 0.29248,0.308 h 5.88699 c 0.15971,-6.4e-4 0.28899,-0.13828 0.28939,-0.308 v -1.23765 c 0.001,-0.17097 -0.12852,-0.31043 -0.28939,-0.31108 h -4.27106 v -3.38172 h 4.00337 c 0.16092,10e-4 0.2921,-0.13691 0.29249,-0.30799 v -1.22317 c -3.9e-4,-0.17107 -0.13151,-0.30918 -0.29249,-0.308 h -4.00337 v -2.88147 h 4.27106 c 0.15971,-6.4e-4 0.28899,-0.13828 0.28939,-0.308 v -1.24075 c -4.2e-4,-0.16976 -0.12966,-0.30733 -0.28939,-0.30798 z"
       sodipodi:nodetypes="ccccccccccccccccccccc" />
    <path
       id="path18897"
       style="color:#000000;-inkscape-font-specification:'BC Sans, Normal';fill:#000000;stroke-width:0.598927;stroke-linecap:round;stroke-linejoin:round"
       d="m 173.19459,225.61259 c -0.11996,4.5e-4 -0.2274,0.0793 -0.27027,0.19844 l -4.11758,11.24427 c -0.0743,0.20331 0.0676,0.42224 0.27285,0.42065 h 1.34308 c 0.11996,-4.6e-4 0.22738,-0.0793 0.27026,-0.19845 l 1.18081,-3.26646 h 3.77806 l 1.19786,3.26957 c 0.0438,0.11796 0.151,0.19538 0.27027,0.19534 h 1.37356 c 0.20409,-3.7e-4 0.3442,-0.21845 0.27026,-0.42065 l -4.10362,-11.24427 c -0.0429,-0.11917 -0.15027,-0.19799 -0.27027,-0.19844 z m 0.59065,2.85202 c 0.0365,0.12797 0.0725,0.2546 0.10285,0.37568 0.003,0.008 0.006,0.0161 0.009,0.0238 0.0496,0.14768 0.0826,0.24875 0.10598,0.31109 l 1.03353,2.96417 h -2.50165 l 1.05005,-2.97295 c 9.6e-4,-0.001 0.001,-0.002 0.003,-0.003 0.0589,-0.17756 0.12353,-0.41702 0.1974,-0.69866 z"
       sodipodi:nodetypes="ccccccccccccccccccccccccc" />
    <path
       id="path18903"
       style="color:#000000;-inkscape-font-specification:'BC Sans, Normal';fill:#000000;stroke-width:0.598927;stroke-linecap:round;stroke-linejoin:round"
       d="m 179.93939,225.66014 c -0.16091,-0.001 -0.29208,0.13691 -0.29249,0.30798 v 11.19983 c 4.1e-4,0.17108 0.13151,0.3092 0.29249,0.308 h 2.93626 c 1.78131,0 3.21252,-0.49575 4.24005,-1.50998 1.04342,-1.0307 1.55184,-2.55885 1.55184,-4.50774 0,-1.23083 -0.21682,-2.28821 -0.66869,-3.15951 -0.4496,-0.86694 -1.10303,-1.53391 -1.93889,-1.97817 -0.82426,-0.44364 -1.78657,-0.66041 -2.87528,-0.66041 z m 1.6185,1.82727 h 1.43455 c 1.21863,0 2.11156,0.32714 2.73575,0.96221 9.4e-4,10e-4 10e-4,0.002 0.003,0.003 0.62178,0.61441 0.9555,1.60889 0.9555,3.05304 0,1.43224 -0.3394,2.45086 -0.9834,3.12126 -0.644,0.6704 -1.62711,1.02474 -3.00602,1.02474 h -1.13947 z"
       sodipodi:nodetypes="ccccscsscsccsscssscc" />
  </g>
</svg>
