<?xml version="1.0" encoding="UTF-8" standalone="no"?>
<svg
   width="1000"
   height="1000"
   viewBox="0 0 264.58333 264.58333"
   version="1.1"
   id="svg5"
   inkscape:version="1.2 (dc2aedaf03, 2022-05-15)"
   sodipodi:docname="three_T.svg"
   xmlns:inkscape="http://www.inkscape.org/namespaces/inkscape"
   xmlns:sodipodi="http://sodipodi.sourceforge.net/DTD/sodipodi-0.dtd"
   xmlns="http://www.w3.org/2000/svg"
   xmlns:svg="http://www.w3.org/2000/svg">
  <sodipodi:namedview
     id="namedview7"
     pagecolor="#ffffff"
     bordercolor="#000000"
     borderopacity="0.25"
     inkscape:showpageshadow="2"
     inkscape:pageopacity="0.0"
     inkscape:pagecheckerboard="0"
     inkscape:deskcolor="#d1d1d1"
     inkscape:document-units="px"
     showgrid="true"
     showguides="true"
     inkscape:zoom="0.914906"
     inkscape:cx="502.78389"
     inkscape:cy="447.04046"
     inkscape:window-width="3072"
     inkscape:window-height="1622"
     inkscape:window-x="-11"
     inkscape:window-y="-11"
     inkscape:window-maximized="1"
     inkscape:current-layer="layer1">
    <inkscape:grid
       type="xygrid"
       id="grid182"
       originx="0"
       originy="0" />
    <sodipodi:guide
       position="-99.999999,88.635416"
       orientation="0,1"
       id="guide184"
       inkscape:locked="false"
       inkscape:label=""
       inkscape:color="rgb(0,134,229)" />
    <sodipodi:guide
       position="-99.999999,211.66666"
       orientation="0,1"
       id="guide186"
       inkscape:locked="false"
       inkscape:label=""
       inkscape:color="rgb(0,134,229)" />
    <sodipodi:guide
       position="132.29166,-835.41666"
       orientation="-1,0"
       id="guide188"
       inkscape:locked="false"
       inkscape:label=""
       inkscape:color="rgb(0,134,229)" />
    <sodipodi:guide
       position="0,264.58333"
       orientation="0,3779.5276"
       id="guide1770"
       inkscape:locked="false" />
    <sodipodi:guide
       position="999.99999,264.58333"
       orientation="3779.5276,0"
       id="guide1772"
       inkscape:locked="false" />
    <sodipodi:guide
       position="999.99999,52.916666"
       orientation="0,1"
       id="guide1774"
       inkscape:locked="false"
       inkscape:label=""
       inkscape:color="rgb(0,134,229)" />
    <sodipodi:guide
       position="0,-735.41666"
       orientation="-3779.5276,0"
       id="guide1776"
       inkscape:locked="false" />
    <sodipodi:guide
       position="0,264.58333"
       orientation="0,1000"
       id="guide12290"
       inkscape:locked="false" />
    <sodipodi:guide
       position="264.58333,74.083332"
       orientation="1000,0"
       id="guide12292"
       inkscape:locked="false" />
    <sodipodi:guide
       position="264.58333,0"
       orientation="0,-1000"
       id="guide12294"
       inkscape:locked="false" />
    <sodipodi:guide
       position="0,0"
       orientation="-1000,0"
       id="guide12296"
       inkscape:locked="false" />
    <sodipodi:guide
       position="63.499999,33.072916"
       orientation="0,1"
       id="guide12298"
       inkscape:locked="false"
       inkscape:label=""
       inkscape:color="rgb(0,134,229)" />
  </sodipodi:namedview>
  <defs
     id="defs2" />
  <g
     inkscape:label="Layer 1"
     inkscape:groupmode="layer"
     id="layer1">
    <path
       id="path8001-0-3-4-2"
       style="color:#000000;fill:#000000;stroke-width:1.51048;stroke-linecap:round;stroke-linejoin:round"
       d="M -42.97102 148.22661 A 1.5106264 1.5106264 0 0 0 -44.481522 149.73711 L -44.481522 154.26862 A 1.5106264 1.5106264 0 0 0 -42.97102 155.77912 L -39.950016 155.77912 A 1.5104754 1.5104754 0 0 0 -38.439514 157.28962 L -32.397505 157.28962 A 1.5104754 1.5104754 0 0 0 -30.887003 155.77912 L 25.741064 155.77912 L 37.373429 171.77194 A 1.5106264 1.5106264 0 0 0 38.594543 172.39413 L 336.64508 172.39413 L 345.33034 194.10133 A 1.5106264 1.5106264 0 0 0 346.7318 195.05166 L 355.7943 195.05166 A 1.5106264 1.5106264 0 0 0 357.22832 194.01865 L 364.78083 171.36163 A 1.5106264 1.5106264 0 0 0 364.85731 170.88362 L 364.85731 166.35263 A 1.5106264 1.5106264 0 0 0 363.34681 164.84213 L 54.168269 164.84213 L 30.387292 148.49223 A 1.5106264 1.5106264 0 0 0 29.532047 148.22661 L -42.97102 148.22661 z M -41.460518 151.24761 L 29.062825 151.24761 L 52.843802 167.59752 A 1.5106264 1.5106264 0 0 0 53.699564 167.86262 L 361.83631 167.86262 L 361.83631 170.63919 L 354.70599 192.03065 L 347.75551 192.03065 L 339.07026 170.32345 A 1.5106264 1.5106264 0 0 0 337.66879 169.37312 L 39.364522 169.37312 L 27.732157 153.38082 A 1.5106264 1.5106264 0 0 0 26.511043 152.75812 L -41.460518 152.75812 L -41.460518 151.24761 z " />
    <path
       style="color:#000000;fill:#000000;stroke-width:1.51048;stroke-linecap:round"
       d="m 319.54313,175.9817 c -9.79938,0 -17.84249,8.04307 -17.84249,17.84248 0,9.7994 8.04311,17.84249 17.84249,17.84249 9.79942,0 17.84249,-8.0431 17.84249,-17.84249 0,-9.7994 -8.04307,-17.84248 -17.84249,-17.84248 z m 0,3.02094 c 8.14806,0 14.82154,6.6735 14.82154,14.82154 0,8.14804 -6.67348,14.82153 -14.82154,14.82153 -8.14801,0 -14.82154,-6.6735 -14.82154,-14.82153 0,-8.14804 6.67353,-14.82154 14.82154,-14.82154 z m 0,4.57272 c -5.66904,0 -10.24881,4.57973 -10.24881,10.24882 0,5.66908 4.57977,10.2488 10.24881,10.2488 5.66908,0 10.24585,-4.57972 10.24585,-10.2488 0,-5.66909 -4.57677,-10.24882 -10.24585,-10.24882 z m 0,3.02095 c 4.06932,0 7.2249,3.15854 7.2249,7.22787 0,4.06932 -3.15558,7.22785 -7.2249,7.22785 -4.06925,0 -7.22785,-3.15854 -7.22785,-7.22785 0,-4.06932 3.1586,-7.22787 7.22785,-7.22787 z"
       id="path2031-2-3"
       sodipodi:nodetypes="ssssssssssssssssssss" />
    <path
       style="color:#000000;fill:#000000;stroke-width:1.51048;stroke-linecap:round"
       d="m 281.78124,175.98168 c -9.79937,0 -17.84249,8.04309 -17.84249,17.8425 0,9.7994 8.04312,17.84249 17.84249,17.84249 9.79942,0 17.84249,-8.0431 17.84249,-17.84249 0,-9.7994 -8.04307,-17.8425 -17.84249,-17.8425 z m 0,3.02096 c 8.14806,0 14.82154,6.6735 14.82154,14.82154 0,8.14804 -6.67348,14.82153 -14.82154,14.82153 -8.148,0 -14.82154,-6.6735 -14.82154,-14.82153 0,-8.14804 6.67354,-14.82154 14.82154,-14.82154 z m 0,4.57272 c -5.66904,0 -10.2488,4.57973 -10.2488,10.24882 0,5.66908 4.57976,10.2488 10.2488,10.2488 5.66909,0 10.24586,-4.57972 10.24586,-10.2488 0,-5.66909 -4.57677,-10.24882 -10.24586,-10.24882 z m 0,3.02095 c 4.06933,0 7.22491,3.15855 7.22491,7.22787 0,4.06932 -3.15558,7.22785 -7.22491,7.22785 -4.06925,0 -7.22785,-3.15854 -7.22785,-7.22785 0,-4.06932 3.1586,-7.22787 7.22785,-7.22787 z"
       id="path2031-5-1"
       sodipodi:nodetypes="ssssssssssssssssssss" />
    <path
       style="color:#000000;fill:#000000;stroke-width:1.51048;stroke-linecap:round"
       d="m 244.01936,175.98168 c -9.79938,0 -17.84249,8.04309 -17.84249,17.8425 0,9.7994 8.04311,17.84249 17.84249,17.84249 9.79942,0 17.84249,-8.0431 17.84249,-17.84249 0,-9.7994 -8.04307,-17.8425 -17.84249,-17.8425 z m 0,3.02096 c 8.14806,0 14.82154,6.6735 14.82154,14.82154 0,8.14804 -6.67348,14.82153 -14.82154,14.82153 -8.14801,0 -14.82154,-6.6735 -14.82154,-14.82153 0,-8.14804 6.67353,-14.82154 14.82154,-14.82154 z m 0,4.57272 c -5.66904,0 -10.24881,4.57973 -10.24881,10.24882 0,5.66908 4.57977,10.2488 10.24881,10.2488 5.66908,0 10.24585,-4.57972 10.24585,-10.2488 0,-5.66909 -4.57677,-10.24882 -10.24585,-10.24882 z m 0,3.02095 c 4.06932,0 7.2249,3.15854 7.2249,7.22787 0,4.06932 -3.15558,7.22785 -7.2249,7.22785 -4.06925,0 -7.22785,-3.15854 -7.22785,-7.22785 0,-4.06932 3.1586,-7.22787 7.22785,-7.22787 z"
       id="path2031-7-7"
       sodipodi:nodetypes="ssssssssssssssssssss" />
    <path
       id="path23737"
       style="color:#000000;fill:#000000;stroke-width:3.02095;stroke-linecap:round;stroke-linejoin:round"
       d="m 244.07089,217.91641 c -0.83424,-1e-5 -1.51052,0.67627 -1.5105,1.5105 v 10.573 H 146.5833 c -0.83424,-1e-5 -1.51052,0.67627 -1.5105,1.5105 -2e-5,0.83424 0.67626,1.51053 1.5105,1.51051 h 95.97709 v 9.06301 c -2e-5,0.83424 0.67626,1.51052 1.5105,1.5105 0.83423,2e-5 1.51051,-0.67626 1.5105,-1.5105 v -22.65702 c 1e-5,-0.83423 -0.67627,-1.51051 -1.5105,-1.5105 z"
       sodipodi:nodetypes="scccscccsccs" />
    <path
       id="path23743"
       style="color:#000000;fill:#000000;stroke-width:3.02095;stroke-linecap:round;stroke-linejoin:round"
       d="m 319.59496,217.91641 c -0.83424,-1e-5 -1.51052,0.67627 -1.5105,1.5105 v 22.65702 c -2e-5,0.83424 0.67626,1.51052 1.5105,1.5105 0.83423,2e-5 1.51051,-0.67626 1.5105,-1.5105 v -22.65702 c 1e-5,-0.83423 -0.67627,-1.51051 -1.5105,-1.5105 z"
       sodipodi:nodetypes="sccsccs" />
    <path
       id="path23791"
       style="color:#000000;fill:#000000;stroke-width:3.02095;stroke-linecap:round;stroke-linejoin:round"
       d="m -21.772831,229.99991 c -0.834233,-1e-5 -1.510516,0.67627 -1.510502,1.5105 -1.9e-5,0.83424 0.676266,1.51053 1.510502,1.51051 h 83.769562 c 0.834236,2e-5 1.510521,-0.67627 1.510502,-1.51051 1.4e-5,-0.83423 -0.67627,-1.51051 -1.510502,-1.5105 z"
       sodipodi:nodetypes="csccscc" />
    <path
       id="path5063-4"
       style="color:#000000;fill:#000000;stroke-width:1.51048;stroke-linecap:round;stroke-linejoin:round;-inkscape-stroke:none"
       d="M -92.816556 66.661047 A 1.5106264 1.5106264 0 0 0 -94.327058 68.171549 L -94.327058 142.1846 A 1.5106264 1.5106264 0 0 0 -92.816556 143.6951 L 32.083829 143.6951 L 55.864806 160.04501 A 1.5104754 1.5104754 0 0 0 56.304573 160.13648 A 1.5104754 1.5104754 0 0 0 56.720568 160.31063 L 281.78125 160.31063 L 396.57734 160.31063 A 1.5106264 1.5106264 0 0 0 398.08784 158.80012 L 398.08784 68.171549 A 1.5106264 1.5106264 0 0 0 396.57734 66.661047 L -92.816556 66.661047 z M -91.306054 69.682051 L -36.929012 69.682051 A 1.5104754 1.5104754 0 0 0 -35.418509 71.192553 A 1.5104754 1.5104754 0 0 0 -33.908007 69.682051 L 281.78125 69.682051 L 395.06684 69.682051 L 395.06684 157.28962 L 283.29175 157.28962 L 283.29175 155.77912 A 1.5104754 1.5104754 0 0 0 281.78125 154.26862 A 1.5104754 1.5104754 0 0 0 280.27074 155.77912 L 280.27074 157.28962 L 57.189273 157.28962 L 33.408296 140.93972 A 1.5106264 1.5106264 0 0 0 32.552535 140.6741 L -33.908007 140.6741 L -33.908007 139.1636 A 1.5104754 1.5104754 0 0 0 -35.418509 137.65361 A 1.5104754 1.5104754 0 0 0 -36.929012 139.1636 L -36.929012 140.6741 L -91.306054 140.6741 L -91.306054 69.682051 z M 281.78125 69.682051 A 1.5104754 1.5104754 0 0 0 280.27074 71.192553 L 280.27074 74.213557 A 1.5104754 1.5104754 0 0 0 281.78125 75.724059 A 1.5104754 1.5104754 0 0 0 283.29175 74.213557 L 283.29175 71.192553 A 1.5104754 1.5104754 0 0 0 281.78125 69.682051 z M -35.418509 77.234561 A 1.5104754 1.5104754 0 0 0 -36.929012 78.745063 L -36.929012 81.765551 A 1.5104754 1.5104754 0 0 0 -35.418509 83.276053 A 1.5104754 1.5104754 0 0 0 -33.908007 81.765551 L -33.908007 78.745063 A 1.5104754 1.5104754 0 0 0 -35.418509 77.234561 z M 281.78125 81.765551 A 1.5104754 1.5104754 0 0 0 280.27074 83.276053 L 280.27074 86.297057 A 1.5104754 1.5104754 0 0 0 281.78125 87.807559 A 1.5104754 1.5104754 0 0 0 283.29175 86.297057 L 283.29175 83.276053 A 1.5104754 1.5104754 0 0 0 281.78125 81.765551 z M -35.418509 89.318061 A 1.5104754 1.5104754 0 0 0 -36.929012 90.828563 L -36.929012 93.849568 A 1.5104754 1.5104754 0 0 0 -35.418509 95.36007 A 1.5104754 1.5104754 0 0 0 -33.908007 93.849568 L -33.908007 90.828563 A 1.5104754 1.5104754 0 0 0 -35.418509 89.318061 z M 281.78125 93.849568 A 1.5104754 1.5104754 0 0 0 280.27074 95.36007 L 280.27074 98.381074 A 1.5104754 1.5104754 0 0 0 281.78125 99.891576 A 1.5104754 1.5104754 0 0 0 283.29175 98.381074 L 283.29175 95.36007 A 1.5104754 1.5104754 0 0 0 281.78125 93.849568 z M -35.418509 101.40208 A 1.5104754 1.5104754 0 0 0 -36.929012 102.91258 L -36.929012 105.93358 A 1.5104754 1.5104754 0 0 0 -35.418509 107.44409 A 1.5104754 1.5104754 0 0 0 -33.908007 105.93358 L -33.908007 102.91258 A 1.5104754 1.5104754 0 0 0 -35.418509 101.40208 z M 281.78125 105.93358 A 1.5104754 1.5104754 0 0 0 280.27074 107.44409 L 280.27074 110.46457 A 1.5104754 1.5104754 0 0 0 281.78125 111.97508 A 1.5104754 1.5104754 0 0 0 283.29175 110.46457 L 283.29175 107.44409 A 1.5104754 1.5104754 0 0 0 281.78125 105.93358 z M -35.418509 113.48558 A 1.5104754 1.5104754 0 0 0 -36.929012 114.99608 L -36.929012 118.01708 A 1.5104754 1.5104754 0 0 0 -35.418509 119.52759 A 1.5104754 1.5104754 0 0 0 -33.908007 118.01708 L -33.908007 114.99608 A 1.5104754 1.5104754 0 0 0 -35.418509 113.48558 z M 281.78125 118.01708 A 1.5104754 1.5104754 0 0 0 280.27074 119.52759 L 280.27074 122.54859 A 1.5104754 1.5104754 0 0 0 281.78125 124.05909 A 1.5104754 1.5104754 0 0 0 283.29175 122.54859 L 283.29175 119.52759 A 1.5104754 1.5104754 0 0 0 281.78125 118.01708 z M -35.418509 125.56959 A 1.5104754 1.5104754 0 0 0 -36.929012 127.0801 L -36.929012 130.1011 A 1.5104754 1.5104754 0 0 0 -35.418509 131.6116 A 1.5104754 1.5104754 0 0 0 -33.908007 130.1011 L -33.908007 127.0801 A 1.5104754 1.5104754 0 0 0 -35.418509 125.56959 z M 281.78125 130.1011 A 1.5104754 1.5104754 0 0 0 280.27074 131.6116 L 280.27074 134.63261 A 1.5104754 1.5104754 0 0 0 281.78125 136.14311 A 1.5104754 1.5104754 0 0 0 283.29175 134.63261 L 283.29175 131.6116 A 1.5104754 1.5104754 0 0 0 281.78125 130.1011 z M 281.78125 142.1846 A 1.5104754 1.5104754 0 0 0 280.27074 143.6951 L 280.27074 146.71611 A 1.5104754 1.5104754 0 0 0 281.78125 148.22661 A 1.5104754 1.5104754 0 0 0 283.29175 146.71611 L 283.29175 143.6951 A 1.5104754 1.5104754 0 0 0 281.78125 142.1846 z " />
    <path
       id="path23929"
       style="color:#000000;fill:#000000;stroke-width:3.02095;stroke-linecap:round;stroke-linejoin:round"
       d="M -92.816556 45.514534 A 1.5104754 1.5104754 0 0 0 -94.327058 47.025036 L -94.327058 59.108536 A 1.5104754 1.5104754 0 0 0 -92.816556 60.619038 A 1.5104754 1.5104754 0 0 0 -91.306054 59.108536 L -91.306054 54.57703 L -36.929012 54.57703 L -36.929012 59.108536 A 1.5104754 1.5104754 0 0 0 -35.418509 60.619038 A 1.5104754 1.5104754 0 0 0 -33.908007 59.108536 L -33.908007 47.025036 A 1.5104754 1.5104754 0 0 0 -35.418509 45.514534 A 1.5104754 1.5104754 0 0 0 -36.929012 47.025036 L -36.929012 51.556026 L -91.306054 51.556026 L -91.306054 47.025036 A 1.5104754 1.5104754 0 0 0 -92.816556 45.514534 z " />
    <path
       id="path23947"
       style="color:#000000;fill:#000000;stroke-width:3.02095;stroke-linecap:round;stroke-linejoin:round"
       d="M 281.78125 45.514534 A 1.5104754 1.5104754 0 0 0 280.27074 47.025036 L 280.27074 59.108536 A 1.5104754 1.5104754 0 0 0 281.78125 60.619038 A 1.5104754 1.5104754 0 0 0 283.29175 59.108536 L 283.29175 54.57703 L 394.76608 54.57703 L 394.76608 59.108536 A 1.5104754 1.5104754 0 0 0 396.27658 60.619038 A 1.5104754 1.5104754 0 0 0 397.78708 59.108536 L 397.78708 47.025036 A 1.5104754 1.5104754 0 0 0 396.27658 45.514534 A 1.5104754 1.5104754 0 0 0 394.76608 47.025036 L 394.76608 51.556026 L 283.29175 51.556026 L 283.29175 47.025036 A 1.5104754 1.5104754 0 0 0 281.78125 45.514534 z " />
    <path
       id="path9566"
       style="color:#000000;-inkscape-font-specification:'BC Sans, Normal';fill:#000000;stroke-width:0.574428"
       d="m -94.663975,9.4682587 c -0.153865,1.51e-5 -0.278546,0.1325198 -0.278546,0.2961076 V 20.505312 c 0,0.163558 0.124667,0.296093 0.278546,0.296093 h 1.272783 c 0.153851,0 0.279045,-0.13252 0.279059,-0.296093 v -4.261756 h 3.825083 c 0.153865,0 0.278517,-0.13252 0.278531,-0.296108 v -1.187523 c 0,-0.163558 -0.124809,-0.296108 -0.278531,-0.296108 h -3.825083 v -3.213243 h 4.092246 c 0.153865,0 0.278531,-0.132519 0.278546,-0.296107 V 9.7643663 c -1.5e-5,-0.1635574 -0.12481,-0.2961076 -0.278546,-0.2961076 z" />
    <path
       id="path9572"
       style="color:#000000;-inkscape-font-specification:'BC Sans, Normal';fill:#000000;stroke-width:0.574428"
       d="m -87.320242,9.4682587 c -0.153865,1.51e-5 -0.278531,0.1325198 -0.278531,0.2961076 V 20.505312 c 0,0.163558 0.124666,0.296093 0.278531,0.296093 h 1.272784 c 0.15385,0 0.279045,-0.13252 0.279059,-0.296093 v -4.14032 h 1.570956 l 2.368337,4.291202 c 0.05021,0.08991 0.140928,0.145256 0.239263,0.145256 h 1.48777 c 0.216811,-9.85e-4 0.349394,-0.253228 0.236666,-0.450097 l -2.610168,-4.530981 c 0.161011,-0.0743 0.326102,-0.136614 0.47904,-0.234094 h -0.0057 c 0.271884,-0.166741 0.513173,-0.379031 0.721411,-0.633563 0.210422,-0.257246 0.378265,-0.556568 0.501776,-0.894509 0.139074,-0.363762 0.20309,-0.779699 0.20309,-1.240759 0,-1.093334 -0.327,-1.969162 -0.994252,-2.532144 -0.669696,-0.5649837 -1.66275,-0.8169988 -2.961593,-0.8169988 z m 1.551843,1.7678503 h 1.164263 c 0.798566,0 1.358653,0.149654 1.680004,0.393769 9.41e-4,10e-4 0.0012,0.0015 0.0029,0.003 0.309998,0.227528 0.473876,0.603663 0.473876,1.246445 0,0.612987 -0.159685,1.022722 -0.470766,1.312068 -0.289714,0.268466 -0.819006,0.43821 -1.613349,0.43821 h -1.23666 z" />
    <path
       id="path9578"
       style="color:#000000;-inkscape-font-specification:'BC Sans, Normal';fill:#000000;stroke-width:0.574428"
       d="m -74.343774,9.3023663 c -1.094784,0 -2.028542,0.2407494 -2.780194,0.7374257 -1.4e-5,0.001 -1.4e-5,0.0011 0,0.003 -0.735176,0.492447 -1.289486,1.192179 -1.648994,2.073254 -0.357225,0.866003 -0.532272,1.866392 -0.532272,2.991037 0,1.145205 0.17459,2.158875 0.532272,3.035462 0.359508,0.881106 0.913818,1.580322 1.648994,2.072753 0.751181,0.496374 1.68056,0.737411 2.766244,0.737411 1.048384,0 1.954171,-0.242265 2.694411,-0.737411 0.742893,-0.490869 1.307202,-1.182201 1.676894,-2.052071 v -0.003 c 0.377352,-0.877239 0.562754,-1.892683 0.562754,-3.038571 0,-1.145902 -0.184803,-2.158117 -0.562754,-3.026168 -0.368637,-0.877088 -0.92724,-1.571225 -1.660362,-2.052617 -0.74064,-0.496116 -1.647597,-0.7400192 -2.696993,-0.7400192 z m 0,1.7823307 v 5.16e-4 c 1.08246,0 1.806739,0.345961 2.278932,1.036111 9.41e-4,1.5e-5 0.0014,1.5e-5 0.0029,0 0.481592,0.694774 0.737943,1.686884 0.737943,2.999816 0,1.312189 -0.262413,2.313275 -0.754989,3.029792 -0.472192,0.690165 -1.195958,1.036627 -2.278418,1.036627 -1.080876,0 -1.811189,-0.346978 -2.292881,-1.036627 v -0.003 c -0.491706,-0.71638 -0.754989,-1.715692 -0.754989,-3.026683 0,-1.312205 0.261628,-2.301873 0.751879,-2.996723 v -0.003 c 0.481158,-0.690998 1.21699,-1.036626 2.309378,-1.036626 z" />
    <path
       id="path9584"
       style="color:#000000;-inkscape-font-specification:'BC Sans, Normal';fill:#000000;stroke-width:0.574428"
       d="m -60.645381,9.4677432 c -0.153865,1.51e-5 -0.278545,0.1331263 -0.278545,0.2966231 v 6.0616457 c 0,0.244828 0.0043,0.509898 0.01455,0.793739 0.01,0.281006 0.01854,0.558434 0.02796,0.829417 0.0029,0.07718 0.0057,0.139343 0.0086,0.212896 l -4.886578,-8.0579042 c -0.05121,-0.084758 -0.139358,-0.135704 -0.234085,-0.1358556 h -1.471237 c -0.153865,1.51e-5 -0.278531,0.1325198 -0.278531,0.2961075 V 20.505358 c 0,0.163557 0.124666,0.296092 0.278531,0.296092 h 1.173064 c 0.153851,0 0.278518,-0.13252 0.278532,-0.296092 v -6.00274 c 0,-0.556963 -0.01284,-1.098262 -0.04194,-1.625749 -0.0057,-0.115689 -0.01141,-0.183162 -0.01655,-0.290422 l 4.894791,8.078587 c 0.05121,0.08476 0.139501,0.13631 0.234099,0.136462 h 1.487241 c 0.153851,0 0.278518,-0.13252 0.278532,-0.296093 V 9.7644572 c -6e-6,-0.1635422 -0.124659,-0.2966079 -0.278524,-0.2966231 z" />
    <path
       id="path9590"
       style="color:#000000;-inkscape-font-specification:'BC Sans, Normal';fill:#000000;stroke-width:0.574428"
       d="m -57.942711,9.4682587 c -0.153865,1.51e-5 -0.278532,0.1325198 -0.278532,0.2961076 v 1.1901007 c 0,0.163557 0.124667,0.296107 0.278532,0.296107 h 2.877859 v 9.254738 c 0,0.163558 0.124666,0.296093 0.278531,0.296093 h 1.272798 c 0.153865,0 0.279045,-0.13252 0.279059,-0.296093 v -9.254738 h 2.863895 c 0.15385,0 0.278531,-0.132519 0.278546,-0.296107 V 9.7643663 c -1.5e-5,-0.1635423 -0.124667,-0.2960925 -0.278546,-0.2961076 z" />
    <path
       id="path9617"
       style="color:#000000;-inkscape-font-specification:'BC Sans, Normal';fill:#000000;stroke-width:0.574428"
       d="m -94.663975,25.560293 c -0.153865,1.5e-5 -0.278546,0.13252 -0.278546,0.296108 v 10.740946 c 0,0.163558 0.124667,0.296623 0.278546,0.296623 h 1.272783 c 0.153851,0 0.279045,-0.132974 0.279059,-0.296623 v -3.888138 h 0.880041 c 0.78597,0 1.45238,-0.09583 2.002982,-0.301794 0.546821,-0.200812 0.99873,-0.467989 1.345657,-0.814421 9.56e-4,-0.001 0.0014,-0.0015 0.0029,-0.003 0.33884,-0.349268 0.585805,-0.753029 0.73278,-1.199411 0.151312,-0.441576 0.228408,-0.904244 0.228408,-1.377176 0,-1.066042 -0.335943,-1.946525 -1.003038,-2.55592 -0.679947,-0.621145 -1.710229,-0.897101 -3.067512,-0.897101 z m 1.551842,1.750278 h 1.008202 c 0.853225,0 1.443665,0.171533 1.782833,0.450113 9.41e-4,1.5e-5 0.0014,1.5e-5 0.0029,0 0.352219,0.282901 0.526581,0.687041 0.526581,1.314645 0,0.729784 -0.195987,1.165493 -0.582396,1.436597 -9.56e-4,0.001 -0.0012,0.0015 -0.0028,0.003 -0.387251,0.277245 -1.05272,0.443896 -1.994709,0.443896 h -0.741039 z" />
    <path
       id="path9623"
       style="color:#000000;-inkscape-font-specification:'BC Sans, Normal';fill:#000000;stroke-width:0.574428"
       d="m -86.102745,25.560293 c -0.153865,0 -0.279059,0.13252 -0.279059,0.296108 v 10.740946 c 0,0.163558 0.125094,0.296623 0.279059,0.296623 h 1.272783 c 0.153865,0 0.278532,-0.132974 0.278546,-0.296623 v -4.142898 h 1.571469 l 2.367824,4.291202 c 0.0495,0.09098 0.140785,0.147228 0.239777,0.147834 h 1.487769 c 0.219065,4.7e-4 0.352761,-0.255214 0.236667,-0.45269 l -2.613278,-4.530981 c 0.160369,-0.07384 0.324091,-0.134037 0.476458,-0.231 l 0.0029,-0.003 c 0.270501,-0.166423 0.511461,-0.377484 0.718816,-0.63097 0.209922,-0.25661 0.377851,-0.557584 0.501262,-0.894524 0.139073,-0.363763 0.203603,-0.779684 0.203603,-1.240759 0,-1.093304 -0.330537,-1.971741 -0.997875,-2.534723 -0.669691,-0.565017 -1.659621,-0.814454 -2.958478,-0.814454 z m 1.551329,1.765274 h 1.164777 c 0.798579,1.5e-5 1.355556,0.152883 1.676908,0.396862 0.0014,10e-4 0.0043,0.0011 0.0057,0.003 0.310012,0.227528 0.473876,0.60107 0.473876,1.243852 0,0.612988 -0.159685,1.022738 -0.470766,1.312068 -0.289715,0.268482 -0.819006,0.43821 -1.613349,0.43821 h -1.2366 z" />
    <path
       id="path9629"
       style="color:#000000;-inkscape-font-specification:'BC Sans, Normal';fill:#000000;stroke-width:0.574428"
       d="m -73.126277,25.394416 c -1.094784,0 -2.028529,0.240749 -2.780194,0.737426 -0.735148,0.492431 -1.289986,1.192163 -1.649508,2.073253 -0.357896,0.86658 -0.531759,1.865316 -0.531759,2.991037 0,1.14519 0.174091,2.158876 0.531759,3.035463 0.359522,0.88109 0.914346,1.580322 1.649508,2.072753 -1.5e-5,0.001 -1.5e-5,0.0015 0,0.003 0.75118,0.496374 1.680546,0.734318 2.766244,0.734318 1.049382,0 1.953229,-0.241295 2.693882,-0.737411 0.742594,-0.491203 1.308044,-1.181898 1.677422,-2.052071 0.378065,-0.8778 0.562754,-1.894701 0.562754,-3.04168 0,-1.145887 -0.184817,-2.15554 -0.562754,-3.02359 v -0.003 c -0.368636,-0.877952 -0.926712,-1.570846 -1.660362,-2.052588 -0.740639,-0.496115 -1.647596,-0.737426 -2.696992,-0.737426 z m 0,1.779738 c 1.08246,0 1.806738,0.346462 2.278931,1.036627 9.42e-4,10e-4 0.0014,0.0015 0.0028,0.003 0.481606,0.694774 0.735361,1.683805 0.735361,2.996722 0,1.31219 -0.259817,2.313275 -0.752406,3.029792 -0.472193,0.690165 -1.196472,1.036627 -2.278932,1.036627 -1.082474,0 -1.813799,-0.344946 -2.295477,-1.036627 -0.49259,-0.716517 -0.75188,-1.717602 -0.75188,-3.029792 0,-1.312174 0.261629,-2.301857 0.75188,-2.996722 0.481207,-0.690999 1.21704,-1.039205 2.309427,-1.039205 z" />
    <path
       id="path9635"
       style="color:#000000;-inkscape-font-specification:'BC Sans, Normal';fill:#000000;stroke-width:0.574428"
       d="m -66.31998,25.560293 c -0.153865,0 -0.278531,0.13252 -0.278531,0.296108 v 10.678932 c 0,0.431281 -0.06619,0.73685 -0.159171,0.906411 -9.56e-4,10e-4 -0.0012,0.0015 -0.0029,0.003 -0.107978,0.205102 -0.234656,0.326402 -0.392743,0.399455 -9.55e-4,10e-4 -0.0014,0.0015 -0.0029,0.003 -0.171381,0.08279 -0.352661,0.121451 -0.551386,0.121451 -0.174748,0 -0.337114,-0.01061 -0.490408,-0.03821 -0.0057,-0.0012 -0.01141,-0.0015 -0.01655,-0.003 -0.153466,-0.01804 -0.29368,-0.05095 -0.42632,-0.09507 -0.180168,-0.0602 -0.363402,0.08339 -0.362261,0.28422 v 1.143598 c -3.85e-4,0.118116 0.06504,0.225087 0.166917,0.272333 0.15221,0.06929 0.322179,0.117509 0.504372,0.150866 0.0014,3.79e-4 0.0043,-3.94e-4 0.0057,0 0.0029,5.46e-4 0.0057,0.003 0.0086,0.003 0.192149,0.04412 0.404082,0.06505 0.640792,0.06505 0.846649,0 1.566991,-0.272409 2.103228,-0.820092 0.551472,-0.563225 0.805113,-1.41775 0.805113,-2.499591 v -10.57507 c -1.5e-5,-0.163542 -0.124667,-0.296092 -0.278532,-0.296107 z" />
    <path
       id="path9641"
       style="color:#000000;-inkscape-font-specification:'BC Sans, Normal';fill:#000000;stroke-width:0.574428"
       d="m -62.386363,25.560293 c -0.153865,1.5e-5 -0.278546,0.13252 -0.278546,0.296108 v 10.740946 c 0,0.163558 0.124667,0.296623 0.278546,0.296623 h 5.647198 c 0.153865,0 0.278517,-0.132974 0.278532,-0.296623 v -1.190116 c -1.5e-5,-0.163557 -0.124667,-0.296092 -0.278532,-0.296092 h -4.092773 v -3.242704 h 3.839047 c 0.15385,0 0.278517,-0.132974 0.278531,-0.296623 v -1.172543 c -1.4e-5,-0.163542 -0.124666,-0.296077 -0.278531,-0.296092 h -3.839047 v -2.763145 h 4.092773 c 0.153865,0 0.278517,-0.13252 0.278532,-0.296108 v -1.187523 c -1.5e-5,-0.163558 -0.124667,-0.296108 -0.278532,-0.296108 z" />
    <path
       id="path9647"
       style="color:#000000;-inkscape-font-specification:'BC Sans, Normal';fill:#000000;stroke-width:0.574428"
       d="m -50.173157,25.409396 c -1.07644,0 -2.012096,0.246254 -2.788467,0.749314 -0.771535,0.489959 -1.364728,1.187008 -1.763718,2.067052 -0.388293,0.867899 -0.579287,1.866104 -0.579287,2.984835 0,1.154939 0.174434,2.173477 0.532273,3.050458 -1.5e-5,10e-4 -1.5e-5,0.0015 0,0.003 0.369178,0.880347 0.930093,1.576031 1.666039,2.058273 0.741424,0.485835 1.655128,0.719337 2.721798,0.719337 0.567646,0 1.056685,-0.03563 1.473819,-0.109473 v 0.003 c 0.423296,-0.07324 0.833597,-0.189379 1.228351,-0.346735 0.109262,-0.04337 0.181237,-0.154081 0.180866,-0.278019 v -1.173059 c -1.4e-5,-0.197415 -0.17827,-0.339487 -0.356569,-0.28422 -0.378236,0.117661 -0.762848,0.215034 -1.150313,0.293515 -0.37788,0.07657 -0.77436,0.115235 -1.192178,0.115235 -1.100761,0 -1.870385,-0.349662 -2.39882,-1.045406 v -0.003 c -0.527223,-0.717714 -0.805127,-1.700575 -0.805127,-2.987928 0,-1.295223 0.298501,-2.274475 0.869201,-2.982243 0.570642,-0.707677 1.325417,-1.0542 2.348182,-1.0542 0.429629,0 0.816766,0.05792 1.164777,0.168986 9.42e-4,1.5e-5 0.0012,1.5e-5 0.0029,0 0.376097,0.117054 0.714052,0.247057 1.011297,0.390676 0.13779,0.0655 0.299999,0.003 0.365356,-0.142073 l 0.509536,-1.143082 c 0.06462,-0.144953 0.0086,-0.317957 -0.125095,-0.390676 -0.837177,-0.444957 -1.813442,-0.663524 -2.914032,-0.663524 z" />
    <path
       id="path9653"
       style="color:#000000;-inkscape-font-specification:'BC Sans, Normal';fill:#000000;stroke-width:0.574428"
       d="m -46.80489,25.560293 c -0.153865,1.5e-5 -0.278531,0.13252 -0.278531,0.296108 v 1.187523 c 0,0.163557 0.124666,0.296108 0.278531,0.296108 h 2.877859 v 9.257315 c 0,0.163558 0.124667,0.296623 0.278546,0.296623 h 1.273297 c 0.15385,0 0.278531,-0.132974 0.278545,-0.296623 v -9.257315 h 2.863895 c 0.153851,0 0.278531,-0.13252 0.278546,-0.296108 v -1.187523 c -1.5e-5,-0.163543 -0.12481,-0.296093 -0.278546,-0.296108 z" />
    <path
       id="path9659"
       style="color:#000000;-inkscape-font-specification:'BC Sans, Normal';fill:#000000;stroke-width:0.574428"
       d="m -38.510823,25.560293 c -0.153865,1.5e-5 -0.279045,0.13252 -0.279045,0.296108 v 0.781867 c 4.14e-4,0.136917 0.08958,0.255821 0.214972,0.287313 l 0.972028,0.245981 v 8.119919 l -0.969447,0.234093 c -0.127519,0.03063 -0.218138,0.151473 -0.217553,0.290422 v 0.781351 c 0,0.163558 0.125095,0.296623 0.279045,0.296623 h 3.649394 c 0.153865,0 0.278518,-0.132974 0.278532,-0.296623 v -0.781351 c 5.7e-4,-0.138889 -0.09015,-0.259855 -0.217553,-0.290422 l -0.969447,-0.234093 v -8.119919 l 0.972542,-0.245981 c 0.12538,-0.03154 0.214044,-0.15026 0.214458,-0.287313 v -0.781867 c -1.4e-5,-0.163558 -0.124809,-0.296108 -0.278532,-0.296108 z" />
    <path
       id="path9665"
       style="color:#000000;-inkscape-font-specification:'BC Sans, Normal';fill:#000000;stroke-width:0.574428"
       d="m -28.73261,25.394416 c -1.094784,0 -2.028528,0.240749 -2.780193,0.737426 -0.735163,0.492431 -1.29,1.192163 -1.649508,2.073253 -0.35791,0.86658 -0.534854,1.865316 -0.534854,2.991037 0,1.14519 0.177172,2.158876 0.534854,3.035463 0.359508,0.88109 0.914331,1.580322 1.649508,2.072753 -1.5e-5,0.001 -1.5e-5,0.0015 0,0.003 0.75118,0.496374 1.68056,0.734318 2.766243,0.734318 1.049397,0 1.953244,-0.241295 2.693898,-0.737411 0.742579,-0.491203 1.308043,-1.181898 1.677407,-2.052071 0.378066,-0.8778 0.562755,-1.894701 0.562755,-3.04168 0,-1.145887 -0.184804,-2.15554 -0.562755,-3.02359 v -0.003 c -0.368893,-0.878588 -0.929023,-1.5708 -1.663457,-2.052587 -0.74064,-0.4961 -1.644501,-0.737426 -2.693898,-0.737426 z m 0,1.779738 c 1.082475,0 1.806739,0.346478 2.278932,1.036627 -1.4e-5,10e-4 -1.4e-5,0.0015 0,0.003 0.481592,0.694774 0.738457,1.683805 0.738457,2.996722 0,1.31219 -0.259817,2.313275 -0.752407,3.029792 -0.472179,0.690165 -1.196457,1.036627 -2.278932,1.036627 -1.082445,0 -1.813785,-0.344946 -2.295463,-1.036627 -0.49259,-0.716517 -0.752407,-1.717602 -0.752407,-3.029792 0,-1.312174 0.262156,-2.301857 0.752407,-2.996722 0.481207,-0.690999 1.21704,-1.039205 2.309413,-1.039205 z" />
    <path
       id="path9671"
       style="color:#000000;-inkscape-font-specification:'BC Sans, Normal';fill:#000000;stroke-width:0.574428"
       d="m -21.853951,25.560293 c -0.153864,0 -0.278545,0.13252 -0.278545,0.296108 v 10.740946 c 0,0.163558 0.124666,0.296623 0.278545,0.296623 h 1.172537 c 0.153851,0 0.279031,-0.132974 0.279045,-0.296623 v -6.00274 c 0,-0.556962 -0.01284,-1.098247 -0.04179,-1.625733 -0.0057,-0.114477 -0.01141,-0.181101 -0.01712,-0.287329 l 4.895304,8.075994 c 0.05121,0.08476 0.138931,0.135704 0.233586,0.135855 h 1.487755 c 0.153851,0 0.278531,-0.13252 0.278546,-0.296107 V 25.85634 c -1.5e-5,-0.163542 -0.124667,-0.296093 -0.278546,-0.296108 h -1.189582 c -0.153865,0 -0.278546,0.13252 -0.278546,0.296108 v 6.062162 c 0,0.244843 0.0043,0.509898 0.01455,0.793754 0.01,0.280991 0.01854,0.555325 0.02796,0.826309 0.0029,0.07687 0.0057,0.139494 0.0086,0.212896 l -4.886518,-8.054797 c -0.05106,-0.08476 -0.139358,-0.13631 -0.234099,-0.136462 z" />
    <path
       id="path9686"
       style="color:#000000;-inkscape-font-specification:'BC Sans, Normal';fill:#000000;stroke-width:0.574428"
       d="m 280.01903,9.462975 a 0.27860142,0.29615162 0 0 0 -0.27853,0.296108 v 10.740946 a 0.27860142,0.29615162 0 0 0 0.27853,0.296108 h 1.27278 a 0.27860142,0.29615162 0 0 0 0.27855,-0.296108 v -4.13979 h 1.57147 l 2.36782,4.290687 a 0.27860142,0.29615162 0 0 0 0.23978,0.145256 h 1.48517 a 0.27860142,0.29615162 0 0 0 0.23926,-0.450097 l -2.61017,-4.530997 c 0.15943,-0.07369 0.32184,-0.137523 0.47335,-0.234093 0.27189,-0.166741 0.5137,-0.379 0.72193,-0.633548 0.21073,-0.25761 0.37771,-0.555977 0.50126,-0.894524 v -0.003 c 0.13836,-0.363156 0.20309,-0.777652 0.20309,-1.237651 0,-1.093334 -0.33004,-1.969163 -0.99736,-2.532145 -0.66971,-0.564983 -1.66222,-0.817014 -2.96106,-0.817014 z m 1.55133,1.767851 h 1.16477 c 0.79857,0 1.35555,0.149654 1.67691,0.393784 a 0.27860142,0.29615162 0 0 0 0.006,0.003 c 0.30999,0.227528 0.47387,0.604178 0.47387,1.24696 0,0.612988 -0.1597,1.022192 -0.47076,1.311537 -0.28972,0.268467 -0.82159,0.438226 -1.61593,0.438226 h -1.23403 z" />
    <path
       id="path9692"
       style="color:#000000;-inkscape-font-specification:'BC Sans, Normal';fill:#000000;stroke-width:0.574428"
       d="m 288.81952,9.462975 a 0.27860142,0.29615162 0 0 0 -0.27853,0.296108 v 10.740946 a 0.27860142,0.29615162 0 0 0 0.27853,0.296108 h 5.6472 a 0.27860142,0.29615162 0 0 0 0.27854,-0.296108 v -1.187523 a 0.27860142,0.29615162 0 0 0 -0.27854,-0.296108 h -4.09536 V 15.77371 h 3.84163 a 0.27860142,0.29615162 0 0 0 0.27853,-0.296107 v -1.175637 a 0.27860142,0.29615162 0 0 0 -0.27853,-0.296107 h -3.84163 v -2.760037 h 4.09536 a 0.27860142,0.29615162 0 0 0 0.27854,-0.296108 V 9.759083 a 0.27860142,0.29615162 0 0 0 -0.27854,-0.296108 z" />
    <path
       id="path9698"
       style="color:#000000;-inkscape-font-specification:'BC Sans, Normal';fill:#000000;stroke-width:0.574428"
       d="m 299.26384,9.418534 a 0.27860142,0.29615162 0 0 0 -0.2589,0.189652 l -3.94755,10.785388 a 0.27860142,0.29615162 0 0 0 0.25889,0.402563 h 1.28726 a 0.27860142,0.29615162 0 0 0 0.2589,-0.189652 l 1.13378,-3.133139 h 3.62459 l 1.14773,3.133139 a 0.27860142,0.29615162 0 0 0 0.25942,0.189652 h 1.31775 a 0.27860142,0.29615162 0 0 0 0.2589,-0.402563 L 300.67099,9.608186 a 0.27860142,0.29615162 0 0 0 -0.262,-0.189652 z m 0.56587,2.736277 c 0.0349,0.122361 0.0713,0.242463 0.10027,0.358107 a 0.27860142,0.29615162 0 0 0 0.006,0.0238 c 0.0476,0.141617 0.0806,0.236807 0.10284,0.296108 l 0.98909,2.843233 h -2.39314 l 1.00305,-2.848919 a 0.27860142,0.29615162 0 0 0 0.003,-0.0061 c 0.0564,-0.169895 0.11896,-0.396847 0.18966,-0.666102 z" />
    <path
       id="path9704"
       style="color:#000000;-inkscape-font-specification:'BC Sans, Normal';fill:#000000;stroke-width:0.574428"
       d="m 305.73012,9.462975 a 0.27860142,0.29615162 0 0 0 -0.27853,0.296108 v 10.740946 a 0.27860142,0.29615162 0 0 0 0.27853,0.296108 h 1.27589 a 0.27860142,0.29615162 0 0 0 0.27853,-0.296108 v -4.13979 h 1.57149 l 2.36523,4.290687 a 0.27860142,0.29615162 0 0 0 0.24235,0.145256 h 1.48468 a 0.27860142,0.29615162 0 0 0 0.23719,-0.450097 l -2.60811,-4.530997 c 0.15943,-0.07369 0.32236,-0.137523 0.47387,-0.234093 0.2719,-0.166741 0.51316,-0.379016 0.7214,-0.633548 0.21042,-0.257246 0.37518,-0.556583 0.49868,-0.894524 0.13908,-0.363762 0.20619,-0.779684 0.20619,-1.240744 0,-1.093334 -0.33001,-1.969163 -0.99735,-2.532145 -0.66969,-0.564983 -1.66273,-0.817013 -2.96159,-0.817013 z m 1.55442,1.767851 h 1.16479 c 0.79858,0 1.35553,0.149654 1.6769,0.393784 a 0.27860142,0.29615162 0 0 0 0.003,0.003 c 0.31,0.227528 0.47335,0.604178 0.47335,1.24696 0,0.612988 -0.15968,1.022192 -0.47077,1.311537 -0.29001,0.267724 -0.81976,0.438226 -1.61282,0.438226 h -1.23455 z" />
    <path
       id="path9727"
       style="color:#000000;-inkscape-font-specification:'BC Sans, Normal';fill:#000000;stroke-width:0.574428"
       d="m 284.19189,25.389148 c -1.09477,0 -2.02543,0.240734 -2.77708,0.737411 a 0.27860142,0.29615162 0 0 0 -0.003,0 c -0.73517,0.492431 -1.28949,1.192178 -1.649,2.073268 -0.35791,0.86658 -0.53226,1.865301 -0.53226,2.991022 0,1.14519 0.17458,2.158891 0.53226,3.035478 0.35951,0.88109 0.91383,1.580307 1.649,2.072738 a 0.27860142,0.29615162 0 0 0 0.003,0.003 c 0.75118,0.496374 1.67795,0.734318 2.76365,0.734318 1.04939,0 1.95584,-0.24131 2.69647,-0.737426 0.74181,-0.491142 1.30522,-1.18252 1.67432,-2.052071 0.37808,-0.8778 0.56277,-1.89417 0.56277,-3.041149 0,-1.146964 -0.18409,-2.158103 -0.56277,-3.026699 -0.36864,-0.877072 -0.92723,-1.571179 -1.66037,-2.052587 -0.74065,-0.496101 -1.64759,-0.736896 -2.69699,-0.736896 z m 0,1.780254 h 5.3e-4 c 1.08217,1.06e-4 1.80631,0.346068 2.2784,1.036111 a 0.27860142,0.29615162 0 0 0 0.003,0.003 c 0.4816,0.694774 0.73845,1.684321 0.73845,2.997238 0,1.312189 -0.26242,2.31276 -0.755,3.029261 -0.47219,0.690165 -1.19647,1.036642 -2.27893,1.036642 -1.08135,0 -1.81119,-0.346386 -2.29288,-1.036642 -0.49259,-0.716501 -0.75499,-1.717072 -0.75499,-3.029261 0,-1.312174 0.26164,-2.302373 0.75189,-2.997238 0.48115,-0.690893 1.21733,-1.039099 2.30942,-1.039205 z" />
    <path
       id="path9733"
       style="color:#000000;-inkscape-font-specification:'BC Sans, Normal';fill:#000000;stroke-width:0.574428"
       d="m 289.55488,25.555025 a 0.27860142,0.29615162 0 0 0 -0.26148,0.393769 l 3.61011,10.741462 a 0.27860142,0.29615162 0 0 0 0.262,0.198446 h 1.27331 a 0.27860142,0.29615162 0 0 0 0.262,-0.198446 l 3.60753,-10.741462 a 0.27860142,0.29615162 0 0 0 -0.262,-0.393769 h -1.34255 a 0.27860142,0.29615162 0 0 0 -0.26458,0.198431 l -2.2624,6.859025 c -0.1509,0.451143 -0.27942,0.872538 -0.38447,1.267096 -0.0957,-0.382594 -0.21561,-0.791526 -0.36484,-1.237651 l -2.27894,-6.88847 a 0.27860142,0.29615162 0 0 0 -0.26199,-0.198431 z" />
    <path
       id="path9739"
       style="color:#000000;-inkscape-font-specification:'BC Sans, Normal';fill:#000000;stroke-width:0.574428"
       d="m 299.41991,25.555025 a 0.27860142,0.29615162 0 0 0 -0.27854,0.296108 v 10.741462 a 0.27860142,0.29615162 0 0 0 0.27854,0.296107 h 5.64719 a 0.27860142,0.29615162 0 0 0 0.27855,-0.296107 v -1.190632 a 0.27860142,0.29615162 0 0 0 -0.27855,-0.296108 h -4.09535 v -3.242688 h 3.83905 a 0.27860142,0.29615162 0 0 0 0.27853,-0.296107 v -1.173059 a 0.27860142,0.29615162 0 0 0 -0.27853,-0.296107 h -3.83905 v -2.76313 h 4.09535 a 0.27860142,0.29615162 0 0 0 0.27855,-0.296108 v -1.187523 a 0.27860142,0.29615162 0 0 0 -0.27855,-0.296108 z" />
    <path
       id="path9745"
       style="color:#000000;-inkscape-font-specification:'BC Sans, Normal';fill:#000000;stroke-width:0.574428"
       d="m 307.28764,25.555025 a 0.27860142,0.29615162 0 0 0 -0.27905,0.296108 v 10.741462 a 0.27860142,0.29615162 0 0 0 0.27905,0.296107 h 1.2728 a 0.27860142,0.29615162 0 0 0 0.27853,-0.296107 v -4.143414 h 1.57148 l 2.36781,4.291202 a 0.27860142,0.29615162 0 0 0 0.23978,0.148289 h 1.48777 a 0.27860142,0.29615162 0 0 0 0.23668,-0.453206 l -2.61018,-4.527888 c 0.15947,-0.07354 0.32178,-0.137827 0.47336,-0.234093 0.2719,-0.166741 0.51316,-0.379516 0.7214,-0.634079 0.20992,-0.256609 0.37836,-0.557053 0.50177,-0.893993 0.13907,-0.363763 0.2062,-0.779684 0.2062,-1.240759 0,-1.093319 -0.33004,-1.972256 -0.99736,-2.535238 -0.66969,-0.564984 -1.66273,-0.814421 -2.96157,-0.814421 z m 1.55133,1.765259 h 1.16479 c 0.79856,1.5e-5 1.35865,0.152883 1.68,0.396877 a 0.27860142,0.29615162 0 0 0 0.003,0.003 c 0.30999,0.227528 0.47387,0.600555 0.47387,1.243337 0,0.612987 -0.1597,1.022723 -0.47078,1.312052 -0.28971,0.268482 -0.81899,0.438226 -1.61333,0.438226 h -1.23663 z" />
    <path
       id="path9751"
       style="color:#000000;-inkscape-font-specification:'BC Sans, Normal';fill:#000000;stroke-width:0.574428"
       d="m 316.09073,25.555025 a 0.27860142,0.29615162 0 0 0 -0.27855,0.296108 v 10.741462 a 0.27860142,0.29615162 0 0 0 0.27855,0.296107 h 1.27331 a 0.27860142,0.29615162 0 0 0 0.27853,-0.296107 v -4.714963 h 4.62194 v 4.714963 a 0.27860142,0.29615162 0 0 0 0.27853,0.296107 h 1.27331 a 0.27860142,0.29615162 0 0 0 0.27853,-0.296107 V 25.851133 a 0.27860142,0.29615162 0 0 0 -0.27853,-0.296108 h -1.27331 a 0.27860142,0.29615162 0 0 0 -0.27853,0.296108 v 4.246761 h -4.62194 v -4.246761 a 0.27860142,0.29615162 0 0 0 -0.27853,-0.296108 z" />
    <path
       id="path9757"
       style="color:#000000;-inkscape-font-specification:'BC Sans, Normal';fill:#000000;stroke-width:0.574428"
       d="m 329.15142,25.510584 a 0.27860142,0.29615162 0 0 0 -0.25941,0.186544 l -3.94756,10.785903 a 0.27860142,0.29615162 0 0 0 0.25941,0.405671 h 1.28675 a 0.27860142,0.29615162 0 0 0 0.26199,-0.189652 l 1.13379,-3.136247 h 3.622 l 1.14774,3.136247 a 0.27860142,0.29615162 0 0 0 0.25889,0.189652 h 1.31775 a 0.27860142,0.29615162 0 0 0 0.25942,-0.405671 l -3.93413,-10.785903 a 0.27860142,0.29615162 0 0 0 -0.2589,-0.186544 z m 0.56534,2.7342 c 0.035,0.122361 0.0712,0.24504 0.10028,0.3607 a 0.27860142,0.29615162 0 0 0 0.006,0.02381 c 0.0476,0.141617 0.081,0.236792 0.10341,0.296107 l 0.99167,2.842718 h -2.39572 l 1.00253,-2.848919 a 0.27860142,0.29615162 0 0 0 0.003,-0.0061 c 0.0562,-0.169729 0.11867,-0.399819 0.18912,-0.668695 z" />
    <path
       id="path9763"
       style="color:#000000;-inkscape-font-specification:'BC Sans, Normal';fill:#000000;stroke-width:0.574428"
       d="m 335.62028,25.555025 a 0.27860142,0.29615162 0 0 0 -0.27853,0.296108 v 10.741462 a 0.27860142,0.29615162 0 0 0 0.27853,0.296107 h 1.17305 a 0.27860142,0.29615162 0 0 0 0.27855,-0.296107 v -6.003256 c 0,-0.556962 -0.0128,-1.098247 -0.0418,-1.625733 -0.006,-0.114477 -0.0114,-0.181086 -0.0165,-0.287329 l 4.89479,8.075994 a 0.27860142,0.29615162 0 0 0 0.2341,0.136462 h 1.48724 a 0.27860142,0.29615162 0 0 0 0.27853,-0.296623 V 25.851163 a 0.27860142,0.29615162 0 0 0 -0.27853,-0.296108 h -1.1896 a 0.27860142,0.29615162 0 0 0 -0.27853,0.296108 v 6.062162 c 0,0.244843 0.004,0.509883 0.0144,0.793739 0.01,0.280991 0.0185,0.555325 0.028,0.826308 0.003,0.07794 0.006,0.141769 0.009,0.21602 l -4.88651,-8.05792 a 0.27860142,0.29615162 0 0 0 -0.2341,-0.136462 z" />
    <path
       id="path9769"
       style="color:#000000;-inkscape-font-specification:'BC Sans, Normal';fill:#000000;stroke-width:0.574428"
       d="m 351.10151,25.404128 c -1.66854,-0.03457 -3.43093,0.621282 -4.45644,2.077878 -1.1185,1.572908 -1.24531,3.701535 -0.87723,5.574052 0.30424,1.606478 1.36249,3.072657 2.83892,3.62034 1.29073,0.492598 2.69717,0.399894 4.03522,0.224616 0.61615,-0.137523 1.29914,-0.200963 1.84207,-0.541224 0.10555,-0.301187 0.0291,-0.643252 0.0523,-0.962452 0,-1.49194 0,-2.983865 0,-4.475805 -0.0745,-0.422683 -0.50768,-0.265327 -0.79103,-0.296107 -0.99465,0 -1.98929,0 -2.98393,0 -0.39763,0.07915 -0.24959,0.539677 -0.27854,0.840894 0.0228,0.289937 -0.0625,0.602753 0.0816,0.867081 0.30675,0.160661 0.66282,0.05777 0.9942,0.08673 0.3814,0 0.76282,0 1.14424,0 0,0.883501 0,1.766987 0,2.650488 -1.03429,0.254229 -2.14507,0.305933 -3.17103,-0.01638 -1.03924,-0.332179 -1.74175,-1.374324 -1.92926,-2.479319 -0.25634,-1.406211 -0.19462,-3.021073 0.68993,-4.176634 0.79832,-1.073836 2.19292,-1.347185 3.40826,-1.166948 0.62577,0.102195 1.23858,0.293211 1.82428,0.548168 0.39332,0.09082 0.42923,-0.392723 0.569,-0.656807 0.0933,-0.27573 0.26049,-0.532127 0.2962,-0.823261 -0.29348,-0.51146 -1.03381,-0.508185 -1.53584,-0.701461 -0.57498,-0.135097 -1.16527,-0.193442 -1.753,-0.193912 z" />
    <path
       id="path18933"
       style="color:#000000;-inkscape-font-specification:'BC Sans, Normal';fill:#000000;stroke-width:0.607771;stroke-linecap:round;stroke-linejoin:round"
       d="m 76.385004,226.02515 c -0.710571,0 -1.347313,0.12282 -1.900153,0.37621 -0.551543,0.25293 -0.998674,0.62326 -1.320839,1.10742 -0.326016,0.48996 -0.487312,1.07825 -0.487312,1.72652 0,0.93857 0.251045,1.7267 0.768939,2.30115 0.502503,0.55741 1.232573,1.0049 2.175589,1.36528 0.631107,0.25157 1.126693,0.48302 1.4769,0.68421 0.340608,0.19573 0.557192,0.39946 0.668707,0.58911 0.115538,0.19664 0.17827,0.44649 0.17827,0.77307 0,0.48159 -0.151283,0.80965 -0.496084,1.08677 -0.336615,0.27054 -0.868473,0.42943 -1.618513,0.42943 -0.546579,0 -1.077653,-0.0663 -1.593693,-0.19845 -0.516867,-0.13479 -0.944199,-0.28193 -1.281584,-0.44131 -0.194274,-0.0922 -0.413668,0.0581 -0.414951,0.28422 v 1.37149 c 0.001,0.12069 0.06718,0.23006 0.170011,0.28112 0.371475,0.18577 0.818193,0.32477 1.345658,0.42375 0.528564,0.0992 1.099391,0.14783 1.713068,0.14783 1.21239,0 2.211577,-0.2945 2.964155,-0.90899 0.75623,-0.61746 1.150841,-1.51909 1.150841,-2.60295 0,-0.63467 -0.124809,-1.18889 -0.387579,-1.64072 l -0.0029,-0.003 c -0.248207,-0.44221 -0.617172,-0.81083 -1.089336,-1.10742 -0.450939,-0.30009 -0.995179,-0.57211 -1.635557,-0.82062 v -5.2e-4 -5.1e-4 -5.3e-4 -5.2e-4 -5.1e-4 -5.2e-4 c -0.569544,-0.2192 -1.016846,-0.42431 -1.33429,-0.61288 -0.307601,-0.1934 -0.511489,-0.39911 -0.626842,-0.59531 -0.114539,-0.19496 -0.180866,-0.4491 -0.180866,-0.78755 0,-0.42316 0.124096,-0.70842 0.401016,-0.95084 0.0014,-0.002 0.0043,-0.005 0.0057,-0.006 0.26665,-0.24177 0.694068,-0.38499 1.32034,-0.38499 0.435691,0 0.860684,0.0553 1.276406,0.16587 0.42545,0.11311 0.813999,0.24915 1.16686,0.41135 0.15549,0.0711 0.335173,-0.0106 0.393256,-0.18035 l 0.420643,-1.22318 c 0.05292,-0.15533 -0.01669,-0.32763 -0.159157,-0.39379 -0.428617,-0.20002 -0.895475,-0.362 -1.400959,-0.48265 -0.513358,-0.12251 -1.068453,-0.18087 -1.66604,-0.18087 z"
       sodipodi:nodetypes="ccssscscssscccccssssccccccccccccsccssccccscc" />
    <path
       id="path18939"
       style="color:#000000;-inkscape-font-specification:'BC Sans, Normal';fill:#000000;stroke-width:0.607771;stroke-linecap:round;stroke-linejoin:round"
       d="m 81.744884,226.18225 c -0.163222,-1.7e-4 -0.29552,0.14071 -0.295078,0.3142 v 11.36571 c 0.0012,0.17231 0.13294,0.31127 0.295078,0.31109 h 1.345643 c 0.162095,1.8e-4 0.293908,-0.13874 0.295078,-0.31109 v -4.11344 h 0.933274 c 0.830516,0 1.535596,-0.10249 2.117706,-0.31988 0.578559,-0.21247 1.056114,-0.49543 1.423168,-0.86197 9.56e-4,-0.001 0.0014,-0.002 0.0029,-0.003 0.357938,-0.36896 0.621578,-0.79319 0.777212,-1.26452 v -0.003 c 0.160754,-0.46814 0.242372,-0.95578 0.242372,-1.45728 0,-1.1279 -0.355628,-2.05894 -1.061435,-2.70371 -0.719415,-0.65717 -1.809206,-0.95343 -3.245283,-0.95343 z m 1.640721,1.85416 h 1.070221 c 0.902764,0 1.526838,0.17859 1.885676,0.47335 v 0.003 c 0.372673,0.29932 0.55759,0.72502 0.55759,1.38906 0,0.77215 -0.20714,1.23556 -0.615987,1.52238 -9.55e-4,10e-4 -0.0014,0.002 -0.0029,0.003 -0.409773,0.29333 -1.115352,0.47128 -2.112015,0.47128 h -0.782903 z"
       sodipodi:nodetypes="cccccccscscccsscccsccsccscc" />
    <path
       id="path18945"
       style="color:#000000;-inkscape-font-specification:'BC Sans, Normal';fill:#000000;stroke-width:0.607771;stroke-linecap:round;stroke-linejoin:round"
       d="m 92.779862,226.13472 c -0.122384,-2.5e-4 -0.232259,0.0799 -0.27595,0.20154 l -4.175975,11.41015 c -0.07474,0.2046 0.06633,0.42543 0.272855,0.42684 h 1.362703 c 0.121528,5.3e-4 0.230876,-0.0782 0.275436,-0.19843 l 1.200965,-3.31712 h 3.833355 l 1.214915,3.31712 c 0.04422,0.11918 0.152282,0.19784 0.272855,0.19843 h 1.393199 c 0.207583,5e-4 0.350621,-0.22116 0.275422,-0.42684 l -4.162011,-11.41015 c -0.04365,-0.12161 -0.153522,-0.20179 -0.275949,-0.20154 z m 0.599455,2.8975 c 0.03666,0.12888 0.07218,0.25651 0.102843,0.37827 0.0029,0.008 0.0057,0.0156 0.0086,0.0232 0.05035,0.1498 0.08516,0.25116 0.108976,0.31419 l 1.047485,3.0086 h -2.532658 l 1.06142,-3.0148 c 9.7e-4,-0.002 0.0014,-0.005 0.0029,-0.006 0.05962,-0.17953 0.125808,-0.41944 0.200508,-0.70383 z"
       sodipodi:nodetypes="ccccccccccccccccccccccccc" />
    <path
       id="path18951"
       style="color:#000000;-inkscape-font-specification:'BC Sans, Normal';fill:#000000;stroke-width:0.607771;stroke-linecap:round;stroke-linejoin:round"
       d="m 103.91821,226.02515 c -1.13999,0 -2.13143,0.26049 -2.95331,0.79376 -0.81464,0.51828 -1.4419,1.25299 -1.863456,2.18281 v 0.003 c -0.410844,0.91826 -0.613406,1.97583 -0.613406,3.1595 0,1.22199 0.184162,2.30031 0.562755,3.22823 9.41e-4,0.001 0.0014,0.002 0.0029,0.003 0.390632,0.93147 0.981947,1.66638 1.760617,2.17661 0.78446,0.51404 1.75237,0.76069 2.88097,0.76069 0.6006,0 1.11879,-0.037 1.56012,-0.11523 0.44785,-0.0775 0.88042,-0.19784 1.2981,-0.36431 0.11625,-0.046 0.19316,-0.16423 0.19223,-0.29611 v -1.24076 c -7.1e-4,-0.20909 -0.19022,-0.35879 -0.37878,-0.2992 -0.40017,0.12448 -0.80494,0.22806 -1.21491,0.31109 -0.3998,0.081 -0.81986,0.12145 -1.26194,0.12145 -1.16475,0 -1.97874,-0.3686 -2.53783,-1.10484 v -0.003 c -0.55788,-0.75941 -0.85267,-1.80045 -0.85267,-3.1626 0,-1.36924 0.3165,-2.40252 0.91933,-3.15122 0.13037,-0.13798 0.67256,-0.6358 1.36219,-0.95654 0.69809,-0.32469 1.51474,-0.47539 2.29599,-0.0121 0.0194,0.0106 0.0398,0.0203 0.061,0.0268 0.39795,0.12388 0.7552,0.2625 1.06969,0.41444 0.14629,0.0704 0.31859,0.003 0.38758,-0.15087 l 0.54053,-1.21129 c 0.0672,-0.15318 0.009,-0.3354 -0.13379,-0.41186 -0.88578,-0.4708 -1.91958,-0.70178 -3.08406,-0.70178 z"
       sodipodi:nodetypes="ccccsccsscccccssccscscccccccc" />
    <path
       id="path18957"
       style="color:#000000;-inkscape-font-specification:'BC Sans, Normal';fill:#000000;stroke-width:0.607771;stroke-linecap:round;stroke-linejoin:round"
       d="m 107.93244,226.18225 c -0.16322,-1.7e-4 -0.29552,0.14071 -0.29508,0.3142 v 0.82888 c -1.5e-4,0.1448 0.093,0.2708 0.22532,0.3049 l 1.03094,0.26097 v 8.5881 l -1.02785,0.24856 c -0.13351,0.0328 -0.22823,0.15917 -0.22841,0.3049 v 0.8294 c 0.001,0.17231 0.13294,0.31127 0.29508,0.31109 h 3.86126 c 0.16229,4.9e-4 0.29442,-0.13858 0.29559,-0.31109 v -0.8294 c -1.7e-4,-0.14571 -0.0949,-0.27209 -0.22841,-0.3049 l -1.02836,-0.24856 v -8.5881 l 1.03094,-0.26097 c 0.13251,-0.0338 0.22594,-0.15997 0.22583,-0.3049 v -0.82888 c 4.5e-4,-0.17372 -0.13223,-0.31467 -0.29559,-0.3142 z"
       sodipodi:nodetypes="ccccccccccccccccccccc" />
    <path
       id="path18963"
       style="color:#000000;-inkscape-font-specification:'BC Sans, Normal';fill:#000000;stroke-width:0.607771;stroke-linecap:round;stroke-linejoin:round"
       d="m 113.86075,226.18225 c -0.16322,-1.7e-4 -0.2955,0.14071 -0.29506,0.3142 v 11.36571 c 10e-4,0.17231 0.13294,0.31127 0.29506,0.31109 h 1.24282 c 0.16209,1.8e-4 0.2939,-0.13874 0.29507,-0.31109 v -6.35207 c 0,-0.58928 -0.0143,-1.16273 -0.0445,-1.72081 -0.007,-0.12145 -0.01,-0.19222 -0.0165,-0.3049 l 5.17902,8.54677 c 0.0546,0.089 0.14804,0.14252 0.24805,0.14207 h 1.57095 c 0.1623,4.9e-4 0.29443,-0.13858 0.29559,-0.31109 V 226.4959 c 1.9e-4,-0.17352 -0.13236,-0.31415 -0.29559,-0.31368 h -1.25625 c -0.16303,-1.7e-4 -0.29523,0.1404 -0.29506,0.31368 v 6.4146 c 0,0.25897 0.004,0.53789 0.0143,0.83819 0.01,0.29722 0.0205,0.58981 0.0305,0.87642 0.003,0.0833 0.006,0.15163 0.009,0.231 l -5.17074,-8.52868 c -0.0541,-0.0904 -0.14781,-0.1451 -0.24857,-0.14526 z"
       sodipodi:nodetypes="ccccccsccccccccccscscccc" />
    <path
       id="path18969"
       style="color:#000000;-inkscape-font-specification:'BC Sans, Normal';fill:#000000;stroke-width:0.607771;stroke-linecap:round;stroke-linejoin:round"
       d="m 130.24219,226.02515 c -1.2055,0 -2.25477,0.25252 -3.13418,0.76998 -0.87607,0.5049 -1.55781,1.23271 -2.02261,2.16473 -0.45461,0.92159 -0.67955,2.00119 -0.67955,3.21944 0,1.23506 0.20169,2.32125 0.61288,3.25149 9.2e-4,0.002 10e-4,0.005 0.003,0.006 0.42223,0.92004 1.04335,1.64513 1.85002,2.15284 9.5e-4,2e-5 10e-4,2e-5 0.003,0 0.81247,0.50005 1.80016,0.74311 2.94711,0.74311 0.76042,0 1.44315,-0.0461 2.05051,-0.14465 0.60524,-0.0981 1.20591,-0.25256 1.79989,-0.4594 0.12139,-0.0423 0.20346,-0.16285 0.20309,-0.29869 v -5.57073 c -0.001,-0.17229 -0.13294,-0.31127 -0.29508,-0.31109 h -3.69692 c -0.16229,-4.7e-4 -0.29442,0.13859 -0.29559,0.31109 v 1.27331 c -4.4e-4,0.17374 0.13208,0.31469 0.29559,0.3142 h 2.0562 v 2.80448 c -0.20457,0.0494 -0.40983,0.10037 -0.64956,0.13904 -0.3089,0.0497 -0.69473,0.0738 -1.15343,0.0738 -0.92142,0 -1.63905,-0.18448 -2.16731,-0.52711 -0.53794,-0.35956 -0.92409,-0.84211 -1.18133,-1.47484 -0.2527,-0.6567 -0.38447,-1.41435 -0.38447,-2.28307 0,-1.35547 0.33511,-2.37911 0.98651,-3.13004 0.65965,-0.75966 1.5598,-1.14049 2.77761,-1.14049 0.48406,0 0.94479,0.0657 1.38751,0.19585 l 0.009,0.003 c 0.46697,0.12403 0.88267,0.26711 1.2454,0.42943 0.14847,0.0666 0.31971,-0.006 0.38447,-0.16278 l 0.50953,-1.24385 c 0.0643,-0.15849 -0.004,-0.34242 -0.15296,-0.41134 -0.47896,-0.22135 -0.99826,-0.39198 -1.55443,-0.51263 h -0.003 c -0.54995,-0.12115 -1.13327,-0.18036 -1.74924,-0.18036 z"
       sodipodi:nodetypes="cccsscccscsccccccccccsccscscccccccccc" />
    <path
       id="path18873"
       style="color:#000000;-inkscape-font-specification:'BC Sans, Normal';fill:#000000;stroke-width:0.598927;stroke-linecap:round;stroke-linejoin:round"
       d="m 259.65237,225.85599 c -0.70023,0 -1.32747,0.12024 -1.87224,0.36999 -0.54356,0.24923 -0.98323,0.61586 -1.3007,1.09296 -0.32124,0.48283 -0.48213,1.06078 -0.48213,1.69965 0,0.92491 0.25033,1.70251 0.76068,2.26859 0.49641,0.55062 1.21505,0.99212 2.14767,1.34771 h -0.006 c 0.62192,0.24793 1.1096,0.47353 1.45469,0.67181 0.33564,0.19286 0.55001,0.39654 0.6599,0.58342 0.11397,0.19371 0.1757,0.43931 0.1757,0.7612 0,0.47457 -0.14803,0.79915 -0.48782,1.07227 -0.33172,0.2666 -0.85719,0.42323 -1.59629,0.42323 -0.53865,0 -1.05987,-0.065 -1.56837,-0.19532 -0.50935,-0.13282 -0.93208,-0.28116 -1.26453,-0.43823 -0.19208,-0.092 -0.4095,0.0572 -0.40979,0.28113 v 1.35029 c 4.3e-4,0.11948 0.0656,0.22796 0.16743,0.27855 0.3661,0.18313 0.80882,0.31999 1.3286,0.41755 0.5209,0.0978 1.08356,0.14525 1.68826,0.14525 1.19475,0 2.17809,-0.28898 2.91973,-0.89452 0.74522,-0.60847 1.13378,-1.49919 1.13378,-2.56729 0,-0.62539 -0.12253,-1.16859 -0.38138,-1.61385 l -0.003,-0.003 c -0.24331,-0.43345 -0.60539,-0.79838 -1.06712,-1.08985 -0.44562,-0.29744 -0.98439,-0.56833 -1.6185,-0.81442 -0.56124,-0.216 -1.00234,-0.41827 -1.31516,-0.6041 -0.30307,-0.19056 -0.50438,-0.3932 -0.61806,-0.58653 -0.11297,-0.19213 -0.1757,-0.44208 -0.1757,-0.77567 0,-0.41698 0.12295,-0.70008 0.39584,-0.93895 9.5e-4,-0.001 10e-4,-0.002 0.003,-0.003 0.26277,-0.23823 0.68407,-0.38188 1.30121,-0.38188 0.42937,0 0.84917,0.0538 1.25883,0.16278 0.41925,0.11145 0.80312,0.24891 1.15083,0.40875 0.15311,0.0696 0.32984,-0.0121 0.38707,-0.17776 l 0.41237,-1.20819 c 0.0522,-0.15286 -0.016,-0.32261 -0.15607,-0.3881 -0.42237,-0.1971 -0.88062,-0.35494 -1.37872,-0.47387 -0.50591,-0.12085 -1.05496,-0.18035 -1.64383,-0.18035 z"
       sodipodi:nodetypes="cssssccssssscccccsssscccccssccssccccscc" />
    <path
       id="path18879"
       style="color:#000000;-inkscape-font-specification:'BC Sans, Normal';fill:#000000;stroke-width:0.598927;stroke-linecap:round;stroke-linejoin:round"
       d="m 264.93474,226.01309 c -0.15992,3.3e-4 -0.2895,0.13797 -0.28992,0.30798 v 11.19983 c 4.2e-4,0.17001 0.12995,0.30768 0.28992,0.308 h 1.32859 c 0.15992,-3.3e-4 0.28951,-0.13798 0.2899,-0.308 V 233.47 h 0.91933 c 0.81947,0 1.51521,-0.10265 2.08928,-0.31731 0.56834,-0.20921 1.03802,-0.4892 1.39889,-0.84955 10e-4,-9.9e-4 0.004,-0.002 0.006,-0.003 0.35331,-0.36419 0.60996,-0.78471 0.76326,-1.25006 0.15785,-0.46053 0.23927,-0.93983 0.23927,-1.43299 0,-1.11149 -0.35195,-2.03008 -1.04749,-2.66546 -0.70893,-0.64762 -1.78307,-0.93844 -3.19825,-0.93844 z m 1.61849,1.82727 h 1.05318 c 0.88964,0 1.50464,0.17719 1.85827,0.46767 9.5e-4,0.001 0.001,0.002 0.003,0.003 0.36724,0.29494 0.5488,0.71353 0.5488,1.36787 0,0.76091 -0.20427,1.21595 -0.60718,1.49862 -9.6e-4,0.001 -10e-4,0.002 -0.003,0.003 -0.40378,0.28905 -1.09885,0.46509 -2.081,0.46509 h -0.77154 z"
       sodipodi:nodetypes="cccccccsccccsscccsccsccscc" />
    <path
       id="path18885"
       style="color:#000000;-inkscape-font-specification:'BC Sans, Normal';fill:#000000;stroke-width:0.598927;stroke-linecap:round;stroke-linejoin:round"
       d="m 273.86081,226.01309 c -0.15991,3.3e-4 -0.2895,0.13797 -0.28991,0.30798 v 11.19983 c 4.1e-4,0.17001 0.12994,0.30768 0.28991,0.308 h 1.3286 c 0.15991,-3.3e-4 0.2895,-0.13798 0.2899,-0.308 v -4.31757 h 1.63814 l 2.46807,4.47467 c 0.0526,0.094 0.1482,0.15148 0.25114,0.15087 h 1.54875 c 0.22534,-8.4e-4 0.36401,-0.26227 0.24805,-0.46767 l -2.7218,-4.72634 c 0.16689,-0.077 0.337,-0.14177 0.49557,-0.24287 0.28351,-0.17387 0.53531,-0.39503 0.75241,-0.66043 0.21892,-0.26759 0.39226,-0.58178 0.5209,-0.93328 0.145,-0.3793 0.21446,-0.81014 0.21446,-1.29087 0,-1.13994 -0.34343,-2.05469 -1.03921,-2.64169 -0.69825,-0.58908 -1.7324,-0.85267 -3.08664,-0.85266 z m 1.6185,1.84173 h 1.21491 c 0.83262,0 1.41417,0.15747 1.74924,0.41188 9.4e-4,0.001 10e-4,0.002 0.003,0.003 0.32322,0.23723 0.49557,0.62947 0.49557,1.29966 0,0.63793 -0.16728,1.0637 -0.49041,1.36529 -0.30207,0.27993 -0.85437,0.45941 -1.68259,0.45941 h -1.28984 z"
       sodipodi:nodetypes="ccccccccccccccscsssccsccscscc" />
    <path
       id="path18891"
       style="color:#000000;-inkscape-font-specification:'BC Sans, Normal';fill:#000000;stroke-width:0.598927;stroke-linecap:round;stroke-linejoin:round"
       d="m 283.04008,226.01309 c -0.16091,-0.001 -0.29207,0.13691 -0.29248,0.30798 v 11.19983 c 4.1e-4,0.17107 0.13151,0.30918 0.29248,0.308 h 5.88699 c 0.15971,-6.4e-4 0.28899,-0.13828 0.28939,-0.308 v -1.23765 c 0.001,-0.17097 -0.12852,-0.31043 -0.28939,-0.31108 h -4.27106 v -3.38172 h 4.00337 c 0.16092,0.001 0.2921,-0.13691 0.29249,-0.30799 v -1.22317 c -3.9e-4,-0.17107 -0.13151,-0.30918 -0.29249,-0.308 h -4.00337 v -2.88147 h 4.27106 c 0.15971,-6.4e-4 0.28899,-0.13828 0.28939,-0.308 v -1.24075 c -4.2e-4,-0.16976 -0.12966,-0.30733 -0.28939,-0.30798 z"
       sodipodi:nodetypes="ccccccccccccccccccccc" />
    <path
       id="path18897"
       style="color:#000000;-inkscape-font-specification:'BC Sans, Normal';fill:#000000;stroke-width:0.598927;stroke-linecap:round;stroke-linejoin:round"
       d="m 293.9278,225.96554 c -0.11996,4.5e-4 -0.2274,0.0793 -0.27027,0.19844 l -4.11758,11.24427 c -0.0743,0.20331 0.0676,0.42224 0.27285,0.42065 h 1.34308 c 0.11996,-4.6e-4 0.22738,-0.0793 0.27026,-0.19845 l 1.18081,-3.26646 h 3.77806 l 1.19786,3.26957 c 0.0438,0.11796 0.151,0.19538 0.27027,0.19534 h 1.37356 c 0.20409,-3.7e-4 0.3442,-0.21845 0.27026,-0.42065 l -4.10362,-11.24427 c -0.0429,-0.11917 -0.15027,-0.19799 -0.27027,-0.19844 z m 0.59065,2.85202 c 0.0365,0.12797 0.0725,0.2546 0.10285,0.37568 0.003,0.008 0.006,0.0161 0.009,0.0238 0.0496,0.14768 0.0826,0.24875 0.10598,0.31109 l 1.03353,2.96417 h -2.50165 l 1.05005,-2.97295 c 9.6e-4,-0.001 10e-4,-0.002 0.003,-0.003 0.0589,-0.17756 0.12353,-0.41702 0.1974,-0.69866 z"
       sodipodi:nodetypes="ccccccccccccccccccccccccc" />
    <path
       id="path18903"
       style="color:#000000;-inkscape-font-specification:'BC Sans, Normal';fill:#000000;stroke-width:0.598927;stroke-linecap:round;stroke-linejoin:round"
       d="m 300.6726,226.01309 c -0.16091,-0.001 -0.29208,0.13691 -0.29249,0.30798 v 11.19983 c 4.1e-4,0.17108 0.13151,0.3092 0.29249,0.308 h 2.93626 c 1.78131,0 3.21252,-0.49575 4.24005,-1.50998 1.04342,-1.0307 1.55184,-2.55885 1.55184,-4.50774 0,-1.23083 -0.21682,-2.28821 -0.66869,-3.15951 -0.4496,-0.86694 -1.10303,-1.53391 -1.93889,-1.97817 -0.82426,-0.44364 -1.78657,-0.66041 -2.87528,-0.66041 z m 1.6185,1.82727 h 1.43455 c 1.21863,0 2.11156,0.32714 2.73575,0.96221 9.4e-4,0.001 10e-4,0.002 0.003,0.003 0.62178,0.61441 0.9555,1.60889 0.9555,3.05304 0,1.43224 -0.3394,2.45086 -0.9834,3.12126 -0.644,0.6704 -1.62711,1.02474 -3.00602,1.02474 h -1.13947 z"
       sodipodi:nodetypes="ccccscsscsccsscssscc" />
  </g>
</svg>
