<?xml version="1.0" encoding="UTF-8" standalone="no"?>
<svg
   width="1000"
   height="1000"
   viewBox="0 0 264.58333 264.58332"
   version="1.1"
   id="svg5"
   inkscape:version="1.2 (dc2aedaf03, 2022-05-15)"
   sodipodi:docname="two_D.svg"
   xmlns:inkscape="http://www.inkscape.org/namespaces/inkscape"
   xmlns:sodipodi="http://sodipodi.sourceforge.net/DTD/sodipodi-0.dtd"
   xmlns="http://www.w3.org/2000/svg"
   xmlns:svg="http://www.w3.org/2000/svg">
  <sodipodi:namedview
     id="namedview7"
     pagecolor="#ffffff"
     bordercolor="#000000"
     borderopacity="0.25"
     inkscape:showpageshadow="2"
     inkscape:pageopacity="0.0"
     inkscape:pagecheckerboard="0"
     inkscape:deskcolor="#d1d1d1"
     inkscape:document-units="px"
     showgrid="true"
     showguides="true"
     inkscape:zoom="1"
     inkscape:cx="453"
     inkscape:cy="562"
     inkscape:window-width="3072"
     inkscape:window-height="1622"
     inkscape:window-x="-11"
     inkscape:window-y="-11"
     inkscape:window-maximized="1"
     inkscape:current-layer="layer1">
    <inkscape:grid
       type="xygrid"
       id="grid182"
       originx="0"
       originy="0" />
    <sodipodi:guide
       position="-99.999997,52.916665"
       orientation="0,1"
       id="guide184"
       inkscape:locked="false"
       inkscape:label=""
       inkscape:color="rgb(0,134,229)" />
    <sodipodi:guide
       position="-99.999997,211.66666"
       orientation="0,1"
       id="guide186"
       inkscape:locked="false"
       inkscape:label=""
       inkscape:color="rgb(0,134,229)" />
    <sodipodi:guide
       position="132.29166,-835.41664"
       orientation="-1,0"
       id="guide188"
       inkscape:locked="false"
       inkscape:label=""
       inkscape:color="rgb(0,134,229)" />
    <sodipodi:guide
       position="0,264.58331"
       orientation="0,3779.5276"
       id="guide1770"
       inkscape:locked="false" />
    <sodipodi:guide
       position="999.99997,264.58331"
       orientation="3779.5276,0"
       id="guide1772"
       inkscape:locked="false" />
    <sodipodi:guide
       position="999.99997,33.072916"
       orientation="0,1"
       id="guide1774"
       inkscape:locked="false"
       inkscape:label=""
       inkscape:color="rgb(0,134,229)" />
    <sodipodi:guide
       position="0,-735.41664"
       orientation="-3779.5276,0"
       id="guide1776"
       inkscape:locked="false" />
    <sodipodi:guide
       position="-99.999997,88.635414"
       orientation="0,1"
       id="guide31317"
       inkscape:locked="false"
       inkscape:label="Wheel Top"
       inkscape:color="rgb(0,134,229)" />
    <sodipodi:guide
       position="0,264.58333"
       orientation="0,1000"
       id="guide3895"
       inkscape:locked="false" />
    <sodipodi:guide
       position="264.58333,264.58333"
       orientation="1000,0"
       id="guide3897"
       inkscape:locked="false" />
    <sodipodi:guide
       position="264.58333,0"
       orientation="0,-1000"
       id="guide3899"
       inkscape:locked="false" />
    <sodipodi:guide
       position="0,0"
       orientation="-1000,0"
       id="guide3901"
       inkscape:locked="false" />
  </sodipodi:namedview>
  <defs
     id="defs2" />
  <g
     inkscape:label="Layer 1"
     inkscape:groupmode="layer"
     id="layer1">
    <path
       id="path5376"
       style="color:#000000;fill:#000000;stroke-width:1.51024;stroke-linecap:round;stroke-linejoin:round;-inkscape-stroke:none"
       d="M 45.517117 164.84936 A 1.5103878 1.5103878 0 0 0 44.007132 166.35935 L 44.007132 170.89034 L 44.007132 193.54374 A 1.5103878 1.5103878 0 0 0 45.517117 195.05424 L 127.07028 195.05424 A 1.5103878 1.5103878 0 0 0 128.53014 193.93338 L 134.27242 172.40032 L 207.59921 172.40032 L 216.28292 194.10443 A 1.5103878 1.5103878 0 0 0 217.68438 195.05424 L 226.74584 195.05424 A 1.5103878 1.5103878 0 0 0 228.17935 194.02174 L 235.73031 171.36835 A 1.5103878 1.5103878 0 0 0 235.8073 170.89034 L 235.8073 166.35935 A 1.5103878 1.5103878 0 0 0 234.2968 164.84936 L 45.517117 164.84936 z M 47.027619 167.86985 L 232.78682 167.86985 L 232.78682 170.64539 L 225.65702 192.03375 L 218.70757 192.03375 L 210.02387 170.32965 A 1.5103878 1.5103878 0 0 0 208.62292 169.37984 L 47.027619 169.37984 L 47.027619 167.86985 z M 47.027619 172.40032 L 131.14445 172.40032 L 125.91066 192.03375 L 47.027619 192.03375 L 47.027619 172.40032 z " />
    <path
       style="color:#000000;fill:#000000;stroke-width:1.51024;stroke-linecap:round"
       d="m 190.5,175.98733 c -9.79783,0 -17.83966,8.0418 -17.83966,17.83966 0,9.79786 8.04183,17.83967 17.83966,17.83967 9.79786,0 17.83965,-8.04183 17.83965,-17.83967 0,-9.79784 -8.04179,-17.83966 -17.83965,-17.83966 z m 0,3.02046 c 8.14676,0 14.81918,6.67245 14.81918,14.8192 0,8.14676 -6.67242,14.8192 -14.81918,14.8192 -8.14672,0 -14.8192,-6.67246 -14.8192,-14.8192 0,-8.14675 6.67248,-14.8192 14.8192,-14.8192 z m 0,4.572 c -5.66815,0 -10.24717,4.57901 -10.24717,10.2472 0,5.66819 4.57902,10.24718 10.24717,10.24718 5.6682,0 10.24422,-4.57899 10.24422,-10.24718 0,-5.66819 -4.57602,-10.2472 -10.24422,-10.2472 z m 0,3.02047 c 4.06868,0 7.22375,3.15806 7.22375,7.22673 0,4.06868 -3.15507,7.22671 -7.22375,7.22671 -4.06861,0 -7.2267,-3.15804 -7.2267,-7.22671 0,-4.06867 3.15809,-7.22673 7.2267,-7.22673 z"
       id="path2031-5-0-2-9"
       sodipodi:nodetypes="ssssssssssssssssssss" />
    <path
       style="color:#000000;fill:#000000;stroke-width:1.51024;stroke-linecap:round"
       d="m 152.74408,175.98732 c -9.79783,0 -17.83967,8.04181 -17.83967,17.83967 0,9.79786 8.04184,17.83967 17.83967,17.83967 9.7979,0 17.8397,-8.04183 17.8397,-17.83967 0,-9.79784 -8.0418,-17.83967 -17.8397,-17.83967 z m 0,3.02047 c 8.14677,0 14.81923,6.67245 14.81923,14.8192 0,8.14676 -6.67246,14.8192 -14.81923,14.8192 -8.14672,0 -14.8192,-6.67246 -14.8192,-14.8192 0,-8.14675 6.67248,-14.8192 14.8192,-14.8192 z m 0,4.572 c -5.66815,0 -10.24719,4.57901 -10.24719,10.2472 0,5.66819 4.57904,10.24718 10.24719,10.24718 5.6682,0 10.24427,-4.57899 10.24427,-10.24718 0,-5.66819 -4.57607,-10.2472 -10.24427,-10.2472 z m 0,3.02047 c 4.0687,0 7.22378,3.15804 7.22378,7.22673 0,4.06868 -3.15508,7.22671 -7.22378,7.22671 -4.06861,0 -7.22671,-3.15804 -7.22671,-7.22671 0,-4.06867 3.1581,-7.22673 7.22671,-7.22673 z"
       id="path2031-7-2-69-0"
       sodipodi:nodetypes="ssssssssssssssssssss" />
    <path
       id="path3547"
       style="color:#000000;-inkscape-font-specification:'BC Sans, Normal';fill:#000000;stroke-width:0.637315;stroke-linecap:round;stroke-linejoin:round"
       d="m 160.76072,225.35161 c -0.76822,0 -1.45543,0.12246 -2.0531,0.38034 -0.59631,0.25723 -1.07951,0.63774 -1.42782,1.13016 -0.35246,0.4983 -0.52814,1.09559 -0.52814,1.75494 0,0.9546 0.27209,1.75462 0.832,2.33887 0.54461,0.56831 1.33378,1.02514 2.35696,1.39216 0.68014,0.2552 1.21182,0.48932 1.58956,0.6935 0.36822,0.19903 0.6055,0.40554 0.72606,0.59842 0.12497,0.19997 0.19172,0.45589 0.19172,0.78806 0,0.4898 -0.16415,0.82402 -0.53692,1.10588 -0.36393,0.27517 -0.93837,0.43666 -1.74925,0.43666 -0.58991,0 -1.16274,-0.0666 -1.71979,-0.2005 h -0.003 c -0.55737,-0.13682 -1.02191,-0.28984 -1.38596,-0.45165 -0.21014,-0.0938 -0.44736,0.0593 -0.44855,0.28938 V 237 c -2.1e-4,0.12362 0.0711,0.23621 0.18293,0.28887 0.4016,0.18895 0.88699,0.33035 1.45728,0.43098 0.57142,0.10073 1.18861,0.15038 1.85208,0.15038 1.31076,0 2.39288,-0.29848 3.20652,-0.92346 0.81758,-0.628 1.23869,-1.54655 1.23869,-2.64893 0,-0.64555 -0.13194,-1.20957 -0.416,-1.66915 l -0.003,-0.003 c -0.2673,-0.44805 -0.6633,-0.82289 -1.17099,-1.12397 l -0.006,-0.003 c -0.48793,-0.30575 -1.07656,-0.58144 -1.76992,-0.83457 -0.61573,-0.22293 -1.09908,-0.43349 -1.44229,-0.62529 -0.33263,-0.19672 -0.55377,-0.40504 -0.67851,-0.60461 -0.12393,-0.1983 -0.19482,-0.45828 -0.19482,-0.80253 0,-0.43037 0.13419,-0.72083 0.43357,-0.96739 0.002,-0.001 0.004,-0.002 0.006,-0.003 0.2883,-0.2459 0.75074,-0.39532 1.42782,-0.39532 0.47102,0 0.93078,0.0587 1.38027,0.17105 0.45995,0.11492 0.88097,0.25413 1.26246,0.41909 0.16786,0.072 0.36177,-0.0115 0.42478,-0.18293 l 0.45424,-1.24747 c 0.0576,-0.15786 -0.0172,-0.33335 -0.17105,-0.40101 -0.46337,-0.20343 -0.96968,-0.3641 -1.51619,-0.48679 -0.55503,-0.12459 -1.1559,-0.18605 -1.80196,-0.18604 z"
       sodipodi:nodetypes="scssscssssscccccccsssccccccssccscccccss" />
    <path
       id="path3553"
       style="color:#000000;-inkscape-font-specification:'BC Sans, Normal';fill:#000000;stroke-width:0.637315;stroke-linecap:round;stroke-linejoin:round"
       d="m 166.55675,225.51388 c -0.17592,-8e-5 -0.31863,0.1424 -0.31884,0.31832 v 11.55692 c -8e-5,0.17612 0.14272,0.31892 0.31884,0.31884 h 1.45728 c 0.17592,-2e-4 0.31841,-0.14292 0.31832,-0.31884 v -4.18269 h 1.00873 c 0.89906,0 1.65894,-0.10239 2.28875,-0.32401 0.62552,-0.21609 1.14001,-0.50364 1.53685,-0.87643 0.002,-0.002 0.004,-0.004 0.006,-0.006 0.3876,-0.37585 0.66956,-0.80898 0.83768,-1.28932 0.17316,-0.47531 0.26252,-0.97145 0.26252,-1.48053 0,-1.14716 -0.38414,-2.09341 -1.14722,-2.74919 -0.77778,-0.66841 -1.95779,-0.96738 -3.51038,-0.96738 z m 1.7756,1.88205 h 1.15342 c 0.97602,0 1.65017,0.1839 2.03812,0.48369 0.001,0.001 0.002,0.002 0.003,0.003 0.40291,0.3044 0.60151,0.73748 0.60151,1.41284 0,0.78534 -0.22459,1.25648 -0.66662,1.54822 -0.443,0.29834 -1.20556,0.48111 -2.28307,0.48111 h -0.84646 z"
       sodipodi:nodetypes="cccccccsccccsssccsccscscc" />
    <path
       id="path3559"
       style="color:#000000;-inkscape-font-specification:'BC Sans, Normal';fill:#000000;stroke-width:0.637315;stroke-linecap:round;stroke-linejoin:round"
       d="m 176.34943,225.51388 c -0.17572,2e-4 -0.31811,0.1426 -0.31832,0.31832 v 11.55692 c -8e-5,0.17592 0.1424,0.31864 0.31832,0.31884 h 3.221 c 1.95427,0 3.52461,-0.51074 4.65191,-1.55752 1.14472,-1.06378 1.7048,-2.64307 1.7048,-4.6545 0,-1.27033 -0.23858,-2.36051 -0.73432,-3.25975 -0.49291,-0.8941 -1.21091,-1.5822 -2.127,-2.0407 h -0.003 c -0.90375,-0.45705 -1.95993,-0.68161 -3.1533,-0.68161 z m 1.77561,1.88205 h 1.57561 c 1.33698,0 2.31502,0.34138 2.99982,0.99684 8.6e-4,0.001 0.002,0.002 0.003,0.003 0.68216,0.63413 1.05007,1.65971 1.05007,3.1502 0,1.4782 -0.37298,2.52908 -1.07952,3.22099 -0.70654,0.69192 -1.78467,1.05885 -3.29748,1.05885 h -1.25108 z"
       sodipodi:nodetypes="ccccscssccsccsccssscc" />
    <path
       id="path3565"
       style="color:#000000;fill:#000000;stroke-width:3.02047;stroke-linecap:round;stroke-linejoin:round"
       d="m 152.54572,217.91847 c -0.83408,-1.5e-4 -1.51036,0.6759 -1.5105,1.50999 v 10.57196 h -27.18387 c -0.83408,-1.5e-4 -1.51036,0.6759 -1.5105,1.50999 -1.4e-4,0.83429 0.67622,1.51064 1.5105,1.5105 h 27.18387 v 9.06146 c 1.4e-4,0.83409 0.67642,1.51013 1.5105,1.50999 0.83389,-1.4e-4 1.50986,-0.6761 1.50999,-1.50999 v -10.57196 -12.08195 c -1.3e-4,-0.83389 -0.6761,-1.50985 -1.50999,-1.50999 z"
       sodipodi:nodetypes="scccscccscccs" />
    <path
       id="path3571"
       style="color:#000000;fill:#000000;stroke-width:3.02047;stroke-linecap:round;stroke-linejoin:round"
       d="m 190.30155,217.91847 c -0.83388,1.4e-4 -1.50984,0.6761 -1.50998,1.50999 v 22.65391 c 1.4e-4,0.83388 0.6761,1.50985 1.50998,1.50999 0.83389,-1.4e-4 1.50986,-0.6761 1.50999,-1.50999 v -22.65391 c -1.3e-4,-0.83389 -0.6761,-1.50985 -1.50999,-1.50999 z"
       sodipodi:nodetypes="ccccccc" />
    <path
       id="path3619"
       style="color:#000000;fill:#000000;stroke-width:3.02047;stroke-linecap:round;stroke-linejoin:round"
       d="m 12.093836,230.00042 c -0.834088,-1.5e-4 -1.510367,0.6759 -1.510503,1.50999 -1.45e-4,0.83429 0.676215,1.51065 1.510503,1.5105 h 27.183869 c 0.834287,1.5e-4 1.510647,-0.67621 1.510502,-1.5105 -1.36e-4,-0.83409 -0.676414,-1.51014 -1.510502,-1.50999 z"
       sodipodi:nodetypes="csccscc" />
    <path
       id="path18933"
       style="color:#000000;-inkscape-font-specification:'BC Sans, Normal';fill:#000000;stroke-width:0.607771;stroke-linecap:round;stroke-linejoin:round"
       d="m 54.996647,225.73453 c -0.710571,0 -1.347313,0.12282 -1.900153,0.37621 -0.551543,0.25293 -0.998674,0.62326 -1.320839,1.10742 -0.326016,0.48996 -0.487312,1.07825 -0.487312,1.72652 0,0.93857 0.251045,1.7267 0.768939,2.30115 0.502503,0.55741 1.232573,1.0049 2.175589,1.36528 0.631107,0.25157 1.126693,0.48302 1.4769,0.68421 0.340608,0.19573 0.557192,0.39946 0.668707,0.58911 0.115538,0.19664 0.17827,0.44649 0.17827,0.77307 0,0.48159 -0.151283,0.80965 -0.496084,1.08677 -0.336615,0.27054 -0.868473,0.42943 -1.618513,0.42943 -0.546579,0 -1.077653,-0.0663 -1.593693,-0.19845 -0.516867,-0.13479 -0.944199,-0.28193 -1.281584,-0.44131 -0.194274,-0.0922 -0.413668,0.0581 -0.414951,0.28422 v 1.37149 c 0.001,0.12069 0.06718,0.23006 0.170011,0.28112 0.371475,0.18577 0.818193,0.32477 1.345658,0.42375 0.528564,0.0992 1.099391,0.14783 1.713068,0.14783 1.21239,0 2.211577,-0.2945 2.964155,-0.90899 0.75623,-0.61746 1.150841,-1.51909 1.150841,-2.60295 0,-0.63467 -0.124809,-1.18889 -0.387579,-1.64072 l -0.0029,-0.003 c -0.248207,-0.44221 -0.617172,-0.81083 -1.089336,-1.10742 -0.450939,-0.30009 -0.995179,-0.57211 -1.635557,-0.82062 v -5.2e-4 -5.1e-4 -5.3e-4 -5.2e-4 -5.1e-4 -5.2e-4 c -0.569544,-0.2192 -1.016846,-0.42431 -1.33429,-0.61288 -0.307601,-0.1934 -0.511489,-0.39911 -0.626842,-0.59531 -0.114539,-0.19496 -0.180866,-0.4491 -0.180866,-0.78755 0,-0.42316 0.124096,-0.70842 0.401016,-0.95084 0.0014,-0.002 0.0043,-0.005 0.0057,-0.006 0.26665,-0.24177 0.694068,-0.38499 1.32034,-0.38499 0.435691,0 0.860684,0.0553 1.276406,0.16587 0.42545,0.11311 0.813999,0.24915 1.16686,0.41135 0.15549,0.0711 0.335173,-0.0106 0.393256,-0.18035 l 0.420643,-1.22318 c 0.05292,-0.15533 -0.01669,-0.32763 -0.159157,-0.39379 -0.428617,-0.20002 -0.895475,-0.362 -1.400959,-0.48265 -0.513358,-0.12251 -1.068453,-0.18087 -1.66604,-0.18087 z"
       sodipodi:nodetypes="ccssscscssscccccssssccccccccccccsccssccccscc" />
    <path
       id="path18939"
       style="color:#000000;-inkscape-font-specification:'BC Sans, Normal';fill:#000000;stroke-width:0.607771;stroke-linecap:round;stroke-linejoin:round"
       d="m 60.356527,225.89163 c -0.163222,-1.7e-4 -0.29552,0.14071 -0.295078,0.3142 v 11.36571 c 0.0012,0.17231 0.13294,0.31127 0.295078,0.31109 h 1.345643 c 0.162095,1.8e-4 0.293908,-0.13874 0.295078,-0.31109 v -4.11344 h 0.933274 c 0.830516,0 1.535596,-0.10249 2.117706,-0.31988 0.578559,-0.21247 1.056114,-0.49543 1.423168,-0.86197 9.56e-4,-0.001 0.0014,-0.002 0.0029,-0.003 0.357938,-0.36896 0.621578,-0.79319 0.777212,-1.26452 v -0.003 c 0.160754,-0.46814 0.242372,-0.95578 0.242372,-1.45728 0,-1.1279 -0.355628,-2.05894 -1.061435,-2.70371 -0.719415,-0.65717 -1.809206,-0.95343 -3.245283,-0.95343 z m 1.640721,1.85416 h 1.070221 c 0.902764,0 1.526838,0.17859 1.885676,0.47335 v 0.003 c 0.372674,0.29932 0.557591,0.72502 0.557591,1.38906 0,0.77215 -0.20714,1.23556 -0.615988,1.52238 -9.55e-4,0.001 -0.0014,0.002 -0.0029,0.003 -0.409774,0.29333 -1.115353,0.47128 -2.112015,0.47128 h -0.782904 z"
       sodipodi:nodetypes="cccccccscscccsscccsccsccscc" />
    <path
       id="path18945"
       style="color:#000000;-inkscape-font-specification:'BC Sans, Normal';fill:#000000;stroke-width:0.607771;stroke-linecap:round;stroke-linejoin:round"
       d="m 71.391505,225.8441 c -0.122384,-2.5e-4 -0.232259,0.0799 -0.27595,0.20154 l -4.175975,11.41015 c -0.07474,0.2046 0.06633,0.42543 0.272856,0.42684 h 1.362702 c 0.121528,5.3e-4 0.230876,-0.0782 0.275436,-0.19843 l 1.200965,-3.31712 h 3.833355 l 1.214915,3.31712 c 0.04422,0.11918 0.152282,0.19784 0.272856,0.19843 h 1.393198 c 0.207583,5e-4 0.350622,-0.22116 0.275423,-0.42684 l -4.162011,-11.41015 c -0.04365,-0.12161 -0.153522,-0.20179 -0.275949,-0.20154 z m 0.599455,2.8975 c 0.03666,0.12888 0.07218,0.25651 0.102843,0.37827 0.0029,0.008 0.0057,0.0156 0.0086,0.0232 0.05035,0.1498 0.08516,0.25116 0.108976,0.31419 l 1.047485,3.0086 h -2.532658 l 1.06142,-3.0148 c 9.7e-4,-0.002 0.0014,-0.005 0.0029,-0.006 0.05962,-0.17953 0.125808,-0.41944 0.200508,-0.70383 z"
       sodipodi:nodetypes="ccccccccccccccccccccccccc" />
    <path
       id="path18951"
       style="color:#000000;-inkscape-font-specification:'BC Sans, Normal';fill:#000000;stroke-width:0.607771;stroke-linecap:round;stroke-linejoin:round"
       d="m 82.52984,225.73453 c -1.139987,0 -2.131429,0.26049 -2.953301,0.79376 -0.814641,0.51828 -1.441896,1.25299 -1.863452,2.18281 v 0.003 c -0.410844,0.91826 -0.613406,1.97583 -0.613406,3.1595 0,1.22199 0.184162,2.30031 0.562755,3.22823 9.41e-4,0.001 0.0014,0.002 0.0029,0.003 0.390632,0.93147 0.981943,1.66638 1.76061,2.17661 0.784458,0.51404 1.752364,0.76069 2.880968,0.76069 0.600597,0 1.11879,-0.037 1.560116,-0.11523 0.447858,-0.0775 0.880426,-0.19784 1.298102,-0.36431 0.116251,-0.046 0.193162,-0.16423 0.192235,-0.29611 v -1.24076 c -7.14e-4,-0.20909 -0.190224,-0.35879 -0.378779,-0.2992 -0.400174,0.12448 -0.804941,0.22806 -1.214914,0.31109 -0.399804,0.081 -0.819862,0.12145 -1.261943,0.12145 -1.164749,0 -1.978733,-0.3686 -2.537822,-1.10484 v -0.003 c -0.557876,-0.75941 -0.852668,-1.80045 -0.852668,-3.1626 0,-1.36924 0.316502,-2.40252 0.919324,-3.15122 0.130372,-0.13798 0.672557,-0.6358 1.362189,-0.95654 0.69809,-0.32469 1.514742,-0.47539 2.295991,-0.0121 0.0194,0.0106 0.0398,0.0203 0.06105,0.0268 0.397949,0.12388 0.755203,0.2625 1.069694,0.41444 0.14629,0.0704 0.318584,0.003 0.387579,-0.15087 l 0.540531,-1.21129 c 0.06718,-0.15318 0.0086,-0.3354 -0.133796,-0.41186 -0.885775,-0.4708 -1.91958,-0.70178 -3.084058,-0.70178 z"
       sodipodi:nodetypes="ccccsccsscccccssccscscccccccc" />
    <path
       id="path18957"
       style="color:#000000;-inkscape-font-specification:'BC Sans, Normal';fill:#000000;stroke-width:0.607771;stroke-linecap:round;stroke-linejoin:round"
       d="m 86.544076,225.89163 c -0.163222,-1.7e-4 -0.29552,0.14071 -0.295077,0.3142 v 0.82888 c -1.57e-4,0.1448 0.093,0.2708 0.225312,0.3049 l 1.030939,0.26097 v 8.5881 l -1.027843,0.24856 c -0.133511,0.0328 -0.228237,0.15917 -0.228408,0.3049 v 0.8294 c 0.0012,0.17231 0.132939,0.31127 0.295077,0.31109 h 3.861256 c 0.162295,4.9e-4 0.294422,-0.13858 0.295591,-0.31109 v -0.8294 c -1.71e-4,-0.14571 -0.09485,-0.27209 -0.228408,-0.3049 l -1.028357,-0.24856 v -8.5881 l 1.030939,-0.26097 c 0.132512,-0.0338 0.225941,-0.15997 0.225826,-0.3049 v -0.82888 c 4.57e-4,-0.17372 -0.132226,-0.31467 -0.295591,-0.3142 z"
       sodipodi:nodetypes="ccccccccccccccccccccc" />
    <path
       id="path18963"
       style="color:#000000;-inkscape-font-specification:'BC Sans, Normal';fill:#000000;stroke-width:0.607771;stroke-linecap:round;stroke-linejoin:round"
       d="m 92.472388,225.89163 c -0.163222,-1.7e-4 -0.295506,0.14071 -0.295064,0.3142 v 11.36571 c 0.0012,0.17231 0.13294,0.31127 0.295064,0.31109 h 1.242814 c 0.162096,1.8e-4 0.293908,-0.13874 0.295078,-0.31109 v -6.35207 c 0,-0.58928 -0.01426,-1.16273 -0.0445,-1.72081 -0.0071,-0.12145 -0.01,-0.19222 -0.01655,-0.3049 l 5.17901,8.54677 c 0.0546,0.089 0.14805,0.14252 0.248051,0.14207 h 1.570959 c 0.16229,4.9e-4 0.29442,-0.13858 0.29559,-0.31109 v -11.36623 c 1.8e-4,-0.17352 -0.13237,-0.31415 -0.29559,-0.31368 h -1.256249 c -0.16304,-1.7e-4 -0.295241,0.1404 -0.29507,0.31368 v 6.4146 c 0,0.25897 0.004,0.53789 0.0143,0.83819 0.01,0.29722 0.0205,0.58981 0.0305,0.87642 0.003,0.0832 0.006,0.15163 0.009,0.231 l -5.170736,-8.52868 c -0.05406,-0.0904 -0.147803,-0.1451 -0.248563,-0.14526 z"
       sodipodi:nodetypes="ccccccsccccccccccscscccc" />
    <path
       id="path18969"
       style="color:#000000;-inkscape-font-specification:'BC Sans, Normal';fill:#000000;stroke-width:0.607771;stroke-linecap:round;stroke-linejoin:round"
       d="m 108.85382,225.73453 c -1.2055,0 -2.25477,0.25252 -3.13418,0.76998 -0.87606,0.5049 -1.5578,1.23271 -2.02261,2.16473 -0.4546,0.92159 -0.67954,2.00119 -0.67954,3.21944 0,1.23506 0.20169,2.32125 0.61287,3.25149 9.3e-4,0.002 0.001,0.005 0.003,0.006 0.42223,0.92004 1.04335,1.64513 1.85002,2.15284 9.6e-4,2e-5 0.001,2e-5 0.003,0 0.81247,0.50005 1.80016,0.74311 2.94711,0.74311 0.76042,0 1.44315,-0.0461 2.05051,-0.14465 0.60524,-0.0981 1.20591,-0.25256 1.79989,-0.4594 0.12139,-0.0423 0.20346,-0.16285 0.20309,-0.29869 v -5.57073 c -0.001,-0.17229 -0.13294,-0.31127 -0.29508,-0.31109 h -3.69692 c -0.16229,-4.7e-4 -0.29442,0.13859 -0.29559,0.31109 v 1.27331 c -4.4e-4,0.17374 0.13208,0.31469 0.29559,0.3142 h 2.0562 v 2.80448 c -0.20457,0.0494 -0.40983,0.10037 -0.64956,0.13904 -0.3089,0.0497 -0.69473,0.0738 -1.15343,0.0738 -0.92142,0 -1.63905,-0.18448 -2.16731,-0.52711 -0.53794,-0.35956 -0.92409,-0.84211 -1.18133,-1.47484 -0.25269,-0.6567 -0.38446,-1.41435 -0.38446,-2.28307 0,-1.35547 0.3351,-2.37911 0.9865,-3.13004 0.65965,-0.75966 1.5598,-1.14049 2.77761,-1.14049 0.48406,0 0.94479,0.0656 1.38751,0.19585 l 0.009,0.003 c 0.46697,0.12403 0.88267,0.26711 1.2454,0.42943 0.14847,0.0666 0.31971,-0.006 0.38447,-0.16278 l 0.50953,-1.24385 c 0.0643,-0.15849 -0.004,-0.34242 -0.15296,-0.41134 -0.47896,-0.22135 -0.99826,-0.39198 -1.55443,-0.51263 h -0.003 c -0.54994,-0.12115 -1.13326,-0.18036 -1.74924,-0.18036 z"
       sodipodi:nodetypes="cccsscccscsccccccccccsccscscccccccccc" />
  </g>
</svg>
