<?xml version="1.0" encoding="UTF-8" standalone="no"?>
<svg
   width="1000"
   height="1000"
   viewBox="0 0 264.58333 264.58333"
   version="1.1"
   id="svg5"
   inkscape:version="1.2 (dc2aedaf03, 2022-05-15)"
   sodipodi:docname="two_T.svg"
   xmlns:inkscape="http://www.inkscape.org/namespaces/inkscape"
   xmlns:sodipodi="http://sodipodi.sourceforge.net/DTD/sodipodi-0.dtd"
   xmlns="http://www.w3.org/2000/svg"
   xmlns:svg="http://www.w3.org/2000/svg">
  <sodipodi:namedview
     id="namedview7"
     pagecolor="#ffffff"
     bordercolor="#000000"
     borderopacity="0.25"
     inkscape:showpageshadow="2"
     inkscape:pageopacity="0.0"
     inkscape:pagecheckerboard="0"
     inkscape:deskcolor="#d1d1d1"
     inkscape:document-units="px"
     showgrid="true"
     showguides="true"
     inkscape:zoom="0.914906"
     inkscape:cx="512.62097"
     inkscape:cy="513.71398"
     inkscape:window-width="3072"
     inkscape:window-height="1622"
     inkscape:window-x="-11"
     inkscape:window-y="-11"
     inkscape:window-maximized="1"
     inkscape:current-layer="layer1">
    <inkscape:grid
       type="xygrid"
       id="grid182"
       originx="0"
       originy="0" />
    <sodipodi:guide
       position="-99.999999,88.635416"
       orientation="0,1"
       id="guide184"
       inkscape:locked="false"
       inkscape:label=""
       inkscape:color="rgb(0,134,229)" />
    <sodipodi:guide
       position="-99.999999,211.66666"
       orientation="0,1"
       id="guide186"
       inkscape:locked="false"
       inkscape:label=""
       inkscape:color="rgb(0,134,229)" />
    <sodipodi:guide
       position="132.29166,-835.41666"
       orientation="-1,0"
       id="guide188"
       inkscape:locked="false"
       inkscape:label=""
       inkscape:color="rgb(0,134,229)" />
    <sodipodi:guide
       position="0,264.58333"
       orientation="0,3779.5276"
       id="guide1770"
       inkscape:locked="false" />
    <sodipodi:guide
       position="999.99999,264.58333"
       orientation="3779.5276,0"
       id="guide1772"
       inkscape:locked="false" />
    <sodipodi:guide
       position="999.99999,52.916666"
       orientation="0,1"
       id="guide1774"
       inkscape:locked="false"
       inkscape:label=""
       inkscape:color="rgb(0,134,229)" />
    <sodipodi:guide
       position="0,-735.41666"
       orientation="-3779.5276,0"
       id="guide1776"
       inkscape:locked="false" />
    <sodipodi:guide
       position="0,264.58333"
       orientation="0,1000"
       id="guide11314"
       inkscape:locked="false" />
    <sodipodi:guide
       position="264.58333,264.58333"
       orientation="1000,0"
       id="guide11316"
       inkscape:locked="false" />
    <sodipodi:guide
       position="264.58333,0"
       orientation="0,-1000"
       id="guide11318"
       inkscape:locked="false" />
    <sodipodi:guide
       position="0,0"
       orientation="-1000,0"
       id="guide11320"
       inkscape:locked="false" />
    <sodipodi:guide
       position="116.41667,33.072916"
       orientation="0,1"
       id="guide11322"
       inkscape:locked="false"
       inkscape:label=""
       inkscape:color="rgb(0,134,229)" />
  </sodipodi:namedview>
  <defs
     id="defs2" />
  <g
     inkscape:label="Layer 1"
     inkscape:groupmode="layer"
     id="layer1">
    <path
       id="path8001-0-35-8"
       style="color:#000000;fill:#000000;stroke-width:1.51048;stroke-linecap:round;stroke-linejoin:round"
       d="M -74.118472 148.18527 A 1.5106264 1.5106264 0 0 0 -75.628974 149.69577 L -75.628974 154.22728 A 1.5106264 1.5106264 0 0 0 -74.118472 155.73778 L -71.097468 155.73778 A 1.5104754 1.5104754 0 0 0 -69.586966 157.24828 L -63.544958 157.24828 A 1.5104754 1.5104754 0 0 0 -62.034456 155.73778 L -5.4063883 155.73778 L 6.2259765 171.7306 A 1.5106264 1.5106264 0 0 0 7.4476073 172.35279 L 305.49763 172.35279 L 314.18289 194.05999 A 1.5106264 1.5106264 0 0 0 315.58435 195.01032 L 324.64736 195.01032 A 1.5106264 1.5106264 0 0 0 326.08087 193.9773 L 333.63338 171.32029 A 1.5106264 1.5106264 0 0 0 333.70986 170.84228 L 333.70986 166.31129 A 1.5106264 1.5106264 0 0 0 332.19936 164.80079 L 23.021334 164.80079 L -0.76016031 148.45089 A 1.5106264 1.5106264 0 0 0 -1.6154053 148.18527 L -74.118472 148.18527 z M -72.60797 151.20627 L -2.0846273 151.20627 L 21.69635 167.55618 A 1.5106264 1.5106264 0 0 0 22.552112 167.8218 L 330.68885 167.8218 L 330.68885 170.59785 L 323.55854 191.98931 L 316.60806 191.98931 L 307.9228 170.28211 A 1.5106264 1.5106264 0 0 0 306.52134 169.33178 L 8.2175862 169.33178 L -3.4152954 153.33948 A 1.5106264 1.5106264 0 0 0 -4.6364094 152.71677 L -72.60797 152.71677 L -72.60797 151.20627 z " />
    <path
       style="color:#000000;fill:#000000;stroke-width:1.51048;stroke-linecap:round"
       d="m 288.39583,175.9817 c -9.79937,0 -17.84247,8.04307 -17.84247,17.84247 0,9.79941 8.0431,17.8425 17.84247,17.8425 9.79941,0 17.84248,-8.04311 17.84248,-17.8425 0,-9.79939 -8.04307,-17.84247 -17.84248,-17.84247 z m 0,3.02093 c 8.14805,0 14.82153,6.67351 14.82153,14.82154 0,8.14805 -6.67348,14.82154 -14.82153,14.82154 -8.148,0 -14.82154,-6.6735 -14.82154,-14.82154 0,-8.14803 6.67354,-14.82154 14.82154,-14.82154 z m 0,4.57273 c -5.66904,0 -10.24879,4.57973 -10.24879,10.24881 0,5.66909 4.57975,10.24881 10.24879,10.24881 5.6691,0 10.24584,-4.57972 10.24584,-10.24881 0,-5.66908 -4.57674,-10.24881 -10.24584,-10.24881 z m 0,3.02095 c 4.06933,0 7.22489,3.15855 7.22489,7.22786 0,4.06933 -3.15556,7.22786 -7.22489,7.22786 -4.06925,0 -7.22783,-3.15854 -7.22783,-7.22786 0,-4.06931 3.15858,-7.22786 7.22783,-7.22786 z"
       id="path2031-5-0-2"
       sodipodi:nodetypes="ssssssssssssssssssss" />
    <path
       style="color:#000000;fill:#000000;stroke-width:1.51048;stroke-linecap:round"
       d="m 250.6339,175.98168 c -9.79937,0 -17.84249,8.04309 -17.84249,17.84249 0,9.79941 8.04312,17.8425 17.84249,17.8425 9.79945,0 17.84252,-8.04311 17.84252,-17.8425 0,-9.79939 -8.04307,-17.84249 -17.84252,-17.84249 z m 0,3.02095 c 8.14806,0 14.82157,6.67351 14.82157,14.82154 0,8.14805 -6.67351,14.82154 -14.82157,14.82154 -8.148,0 -14.82154,-6.6735 -14.82154,-14.82154 0,-8.14803 6.67354,-14.82154 14.82154,-14.82154 z m 0,4.57273 c -5.66904,0 -10.2488,4.57973 -10.2488,10.24881 0,5.66909 4.57976,10.24881 10.2488,10.24881 5.6691,0 10.24589,-4.57972 10.24589,-10.24881 0,-5.66908 -4.57679,-10.24881 -10.24589,-10.24881 z m 0,3.02095 c 4.06934,0 7.22492,3.15854 7.22492,7.22786 0,4.06933 -3.15558,7.22786 -7.22492,7.22786 -4.06925,0 -7.22785,-3.15854 -7.22785,-7.22786 0,-4.06931 3.1586,-7.22786 7.22785,-7.22786 z"
       id="path2031-7-2-69"
       sodipodi:nodetypes="ssssssssssssssssssss" />
    <path
       id="path26291"
       style="color:#000000;fill:#000000;stroke-width:3.02095;stroke-linecap:round;stroke-linejoin:round"
       d="m 250.61157,217.91641 c -0.83423,-1e-5 -1.51051,0.67627 -1.5105,1.5105 v 10.573 H 135.88318 c -0.83403,2.7e-4 -1.51,0.67647 -1.50999,1.5105 -2e-5,0.83404 0.67595,1.51025 1.50999,1.51051 h 113.21789 v 9.06301 c -1e-5,0.83424 0.67627,1.51052 1.5105,1.5105 0.83423,2e-5 1.51052,-0.67626 1.51051,-1.5105 v -22.65702 c 10e-6,-0.83423 -0.67628,-1.51052 -1.51051,-1.5105 z"
       sodipodi:nodetypes="scccscccsccs" />
    <path
       id="path26297"
       style="color:#000000;fill:#000000;stroke-width:3.02095;stroke-linecap:round;stroke-linejoin:round"
       d="m 288.37361,217.91641 c -0.83423,-1e-5 -1.51051,0.67627 -1.5105,1.5105 v 22.65702 c -1e-5,0.83424 0.67627,1.51052 1.5105,1.5105 0.83423,2e-5 1.51051,-0.67626 1.5105,-1.5105 v -22.65702 c 10e-6,-0.83423 -0.67627,-1.51051 -1.5105,-1.5105 z"
       sodipodi:nodetypes="sccsccs" />
    <path
       id="path26345"
       style="color:#000000;fill:#000000;stroke-width:3.02095;stroke-linecap:round;stroke-linejoin:round"
       d="m -52.993664,229.99991 c -0.834233,-1e-5 -1.510516,0.67627 -1.510502,1.5105 -1.9e-5,0.83424 0.676266,1.51053 1.510502,1.51051 H 51.29661 c 0.834236,2e-5 1.510521,-0.67627 1.510502,-1.51051 1.4e-5,-0.83423 -0.676269,-1.51051 -1.510502,-1.5105 z"
       sodipodi:nodetypes="csccscc" />
    <path
       id="path5063-5"
       style="color:#000000;fill:#000000;stroke-width:1.51048;stroke-linecap:round;stroke-linejoin:round;-inkscape-stroke:none"
       d="M -123.96401 66.619705 A 1.5106264 1.5106264 0 0 0 -125.47451 68.130207 L -125.47451 142.14326 A 1.5106264 1.5106264 0 0 0 -123.96401 143.65376 L -66.565962 143.65376 L 0.93637694 143.65376 L 24.717354 160.00367 A 1.5104754 1.5104754 0 0 0 25.15712 160.09514 A 1.5104754 1.5104754 0 0 0 25.573116 160.26929 L 270.27032 160.26929 L 365.42989 160.26929 A 1.5106264 1.5106264 0 0 0 366.94039 158.75878 L 366.94039 68.130207 A 1.5106264 1.5106264 0 0 0 365.42989 66.619705 L -66.565962 66.619705 L -123.96401 66.619705 z M -122.45351 69.64071 L -68.076464 69.64071 A 1.5104754 1.5104754 0 0 0 -66.565962 71.151212 A 1.5104754 1.5104754 0 0 0 -65.05546 69.64071 L 270.27032 69.64071 L 363.91938 69.64071 L 363.91938 157.24828 L 271.78082 157.24828 L 271.78082 155.73778 A 1.5104754 1.5104754 0 0 0 270.27032 154.22728 A 1.5104754 1.5104754 0 0 0 268.75982 155.73778 L 268.75982 157.24828 L 26.042338 157.24828 L 2.2608439 140.89837 A 1.5106264 1.5106264 0 0 0 1.4055989 140.63276 L -65.05546 140.63276 L -65.05546 139.12277 A 1.5104754 1.5104754 0 0 0 -66.565962 137.61227 A 1.5104754 1.5104754 0 0 0 -68.076464 139.12277 L -68.076464 140.63276 L -122.45351 140.63276 L -122.45351 69.64071 z M 270.27032 69.64071 A 1.5104754 1.5104754 0 0 0 268.75982 71.151212 L 268.75982 74.172216 A 1.5104754 1.5104754 0 0 0 270.27032 75.682718 A 1.5104754 1.5104754 0 0 0 271.78082 74.172216 L 271.78082 71.151212 A 1.5104754 1.5104754 0 0 0 270.27032 69.64071 z M -66.565962 77.19322 A 1.5104754 1.5104754 0 0 0 -68.076464 78.703722 L -68.076464 81.72421 A 1.5104754 1.5104754 0 0 0 -66.565962 83.234712 A 1.5104754 1.5104754 0 0 0 -65.05546 81.72421 L -65.05546 78.703722 A 1.5104754 1.5104754 0 0 0 -66.565962 77.19322 z M 270.27032 81.72421 A 1.5104754 1.5104754 0 0 0 268.75982 83.234712 L 268.75982 86.255716 A 1.5104754 1.5104754 0 0 0 270.27032 87.766218 A 1.5104754 1.5104754 0 0 0 271.78082 86.255716 L 271.78082 83.234712 A 1.5104754 1.5104754 0 0 0 270.27032 81.72421 z M -66.565962 89.27672 A 1.5104754 1.5104754 0 0 0 -68.076464 90.787222 L -68.076464 93.808226 A 1.5104754 1.5104754 0 0 0 -66.565962 95.318728 A 1.5104754 1.5104754 0 0 0 -65.05546 93.808226 L -65.05546 90.787222 A 1.5104754 1.5104754 0 0 0 -66.565962 89.27672 z M 270.27032 93.808226 A 1.5104754 1.5104754 0 0 0 268.75982 95.318728 L 268.75982 98.339733 A 1.5104754 1.5104754 0 0 0 270.27032 99.850235 A 1.5104754 1.5104754 0 0 0 271.78082 98.339733 L 271.78082 95.318728 A 1.5104754 1.5104754 0 0 0 270.27032 93.808226 z M -66.565962 101.36074 A 1.5104754 1.5104754 0 0 0 -68.076464 102.87124 L -68.076464 105.89224 A 1.5104754 1.5104754 0 0 0 -66.565962 107.40275 A 1.5104754 1.5104754 0 0 0 -65.05546 105.89224 L -65.05546 102.87124 A 1.5104754 1.5104754 0 0 0 -66.565962 101.36074 z M 270.27032 105.89224 A 1.5104754 1.5104754 0 0 0 268.75982 107.40275 L 268.75982 110.42323 A 1.5104754 1.5104754 0 0 0 270.27032 111.93373 A 1.5104754 1.5104754 0 0 0 271.78082 110.42323 L 271.78082 107.40275 A 1.5104754 1.5104754 0 0 0 270.27032 105.89224 z M -66.565962 113.44424 A 1.5104754 1.5104754 0 0 0 -68.076464 114.95474 L -68.076464 117.97574 A 1.5104754 1.5104754 0 0 0 -66.565962 119.48625 A 1.5104754 1.5104754 0 0 0 -65.05546 117.97574 L -65.05546 114.95474 A 1.5104754 1.5104754 0 0 0 -66.565962 113.44424 z M 270.27032 117.97574 A 1.5104754 1.5104754 0 0 0 268.75982 119.48625 L 268.75982 122.50725 A 1.5104754 1.5104754 0 0 0 270.27032 124.01775 A 1.5104754 1.5104754 0 0 0 271.78082 122.50725 L 271.78082 119.48625 A 1.5104754 1.5104754 0 0 0 270.27032 117.97574 z M -66.565962 125.52825 A 1.5104754 1.5104754 0 0 0 -68.076464 127.03876 L -68.076464 130.05976 A 1.5104754 1.5104754 0 0 0 -66.565962 131.57026 A 1.5104754 1.5104754 0 0 0 -65.05546 130.05976 L -65.05546 127.03876 A 1.5104754 1.5104754 0 0 0 -66.565962 125.52825 z M 270.27032 130.05976 A 1.5104754 1.5104754 0 0 0 268.75982 131.57026 L 268.75982 134.59127 A 1.5104754 1.5104754 0 0 0 270.27032 136.10177 A 1.5104754 1.5104754 0 0 0 271.78082 134.59127 L 271.78082 131.57026 A 1.5104754 1.5104754 0 0 0 270.27032 130.05976 z M 270.27032 142.14326 A 1.5104754 1.5104754 0 0 0 268.75982 143.65376 L 268.75982 146.67477 A 1.5104754 1.5104754 0 0 0 270.27032 148.18527 A 1.5104754 1.5104754 0 0 0 271.78082 146.67477 L 271.78082 143.65376 A 1.5104754 1.5104754 0 0 0 270.27032 142.14326 z " />
    <path
       id="path26483"
       style="color:#000000;fill:#000000;stroke-width:3.02095;stroke-linecap:round;stroke-linejoin:round"
       d="M -123.96401 45.473193 A 1.5104754 1.5104754 0 0 0 -125.47451 46.983695 L -125.47451 59.067195 A 1.5104754 1.5104754 0 0 0 -123.96401 60.577697 A 1.5104754 1.5104754 0 0 0 -122.45351 59.067195 L -122.45351 54.535689 L -68.076464 54.535689 L -68.076464 59.067195 A 1.5104754 1.5104754 0 0 0 -66.565962 60.577697 A 1.5104754 1.5104754 0 0 0 -65.05546 59.067195 L -65.05546 46.983695 A 1.5104754 1.5104754 0 0 0 -66.565962 45.473193 A 1.5104754 1.5104754 0 0 0 -68.076464 46.983695 L -68.076464 51.515201 L -122.45351 51.515201 L -122.45351 46.983695 A 1.5104754 1.5104754 0 0 0 -123.96401 45.473193 z " />
    <path
       id="path26501"
       style="color:#000000;fill:#000000;stroke-width:3.02095;stroke-linecap:round;stroke-linejoin:round"
       d="M 270.27032 45.473193 A 1.5104754 1.5104754 0 0 0 268.75982 46.983695 L 268.75982 59.067195 A 1.5104754 1.5104754 0 0 0 270.27032 60.577697 A 1.5104754 1.5104754 0 0 0 271.78082 59.067195 L 271.78082 54.535689 L 363.91938 54.535689 L 363.91938 59.067195 A 1.5104754 1.5104754 0 0 0 365.42989 60.577697 A 1.5104754 1.5104754 0 0 0 366.94039 59.067195 L 366.94039 46.983695 A 1.5104754 1.5104754 0 0 0 365.42989 45.473193 A 1.5104754 1.5104754 0 0 0 363.91938 46.983695 L 363.91938 51.515201 L 271.78082 51.515201 L 271.78082 46.983695 A 1.5104754 1.5104754 0 0 0 270.27032 45.473193 z " />
    <path
       id="path9566"
       style="color:#000000;-inkscape-font-specification:'BC Sans, Normal';fill:#000000;stroke-width:0.574428"
       d="m -124.46681,9.4682584 c -0.15387,1.51e-5 -0.27855,0.1325198 -0.27855,0.2961076 v 10.740946 c 0,0.163558 0.12467,0.296093 0.27855,0.296093 h 1.27278 c 0.15385,0 0.27905,-0.13252 0.27906,-0.296093 v -4.261756 h 3.82508 c 0.15387,0 0.27852,-0.13252 0.27854,-0.296108 v -1.187523 c 0,-0.163558 -0.12481,-0.296108 -0.27854,-0.296108 h -3.82508 v -3.213243 h 4.09225 c 0.15386,0 0.27853,-0.132519 0.27854,-0.296107 V 9.764366 c -1e-5,-0.1635574 -0.12481,-0.2961076 -0.27854,-0.2961076 z" />
    <path
       id="path9572"
       style="color:#000000;-inkscape-font-specification:'BC Sans, Normal';fill:#000000;stroke-width:0.574428"
       d="m -117.12308,9.4682584 c -0.15386,1.51e-5 -0.27853,0.1325198 -0.27853,0.2961076 v 10.740946 c 0,0.163558 0.12467,0.296093 0.27853,0.296093 h 1.27279 c 0.15385,0 0.27904,-0.13252 0.27906,-0.296093 v -4.14032 h 1.57095 l 2.36834,4.291202 c 0.0502,0.08991 0.14093,0.145256 0.23926,0.145256 h 1.48777 c 0.21681,-9.85e-4 0.3494,-0.253228 0.23667,-0.450097 l -2.61017,-4.530981 c 0.16101,-0.0743 0.3261,-0.136614 0.47904,-0.234094 h -0.006 c 0.27188,-0.166741 0.51317,-0.379031 0.72141,-0.633563 0.21042,-0.257246 0.37827,-0.556568 0.50178,-0.894509 0.13907,-0.363762 0.20309,-0.779699 0.20309,-1.240759 0,-1.093334 -0.327,-1.969163 -0.99425,-2.532145 -0.66969,-0.564983 -1.66274,-0.8169981 -2.96159,-0.8169981 z m 1.55185,1.7678506 h 1.16426 c 0.79856,0 1.35865,0.149654 1.68,0.393769 9.4e-4,10e-4 0.001,0.0015 0.003,0.003 0.31,0.227528 0.47388,0.603663 0.47388,1.246445 0,0.612987 -0.15969,1.022722 -0.47077,1.312068 -0.28971,0.268466 -0.819,0.43821 -1.61335,0.43821 h -1.23661 z" />
    <path
       id="path9578"
       style="color:#000000;-inkscape-font-specification:'BC Sans, Normal';fill:#000000;stroke-width:0.574428"
       d="m -104.14661,9.302366 c -1.09478,0 -2.02854,0.2407494 -2.78019,0.737426 -2e-5,0.001 -2e-5,0.0011 0,0.003 -0.73518,0.492446 -1.28949,1.192179 -1.649,2.073254 -0.35722,0.866003 -0.53227,1.866392 -0.53227,2.991037 0,1.145205 0.17459,2.158875 0.53227,3.035462 0.35951,0.881106 0.91382,1.580322 1.649,2.072753 0.75118,0.496374 1.68056,0.737411 2.76624,0.737411 1.04838,0 1.95417,-0.242265 2.69441,-0.737411 0.7429,-0.490869 1.3072,-1.182201 1.676897,-2.052071 v -0.003 c 0.377351,-0.877239 0.562754,-1.892683 0.562754,-3.038571 0,-1.145902 -0.184803,-2.158117 -0.562754,-3.026168 -0.368637,-0.877088 -0.927237,-1.571225 -1.660367,-2.052618 -0.74064,-0.4961153 -1.64759,-0.7400185 -2.69699,-0.7400185 z m 0,1.782331 v 5.16e-4 c 1.08246,0 1.80674,0.345961 2.27893,1.036111 9.4e-4,1.5e-5 0.001,1.5e-5 0.003,0 0.4816,0.694774 0.73795,1.686884 0.73795,2.999816 0,1.312189 -0.26242,2.313275 -0.75499,3.029792 -0.47219,0.690165 -1.19596,1.036627 -2.27842,1.036627 -1.08088,0 -1.81119,-0.346978 -2.29288,-1.036627 v -0.003 c -0.49171,-0.71638 -0.75499,-1.715692 -0.75499,-3.026683 0,-1.312205 0.26163,-2.301873 0.75188,-2.996723 v -0.003 c 0.48121,-0.690998 1.21704,-1.036626 2.30943,-1.036626 z" />
    <path
       id="path9584"
       style="color:#000000;-inkscape-font-specification:'BC Sans, Normal';fill:#000000;stroke-width:0.574428"
       d="m -90.448215,9.4677429 c -0.153865,1.51e-5 -0.278545,0.1331263 -0.278545,0.2966231 v 6.061646 c 0,0.244828 0.0043,0.509898 0.01455,0.793739 0.01,0.281006 0.01854,0.558434 0.02796,0.829417 0.0029,0.07718 0.0057,0.139343 0.0086,0.212896 l -4.886578,-8.0579045 c -0.05121,-0.084758 -0.139358,-0.135704 -0.234085,-0.1358556 h -1.471237 c -0.153865,1.51e-5 -0.278531,0.1325198 -0.278531,0.2961075 V 20.505358 c 0,0.163557 0.124666,0.296092 0.278531,0.296092 h 1.173064 c 0.153851,0 0.278518,-0.13252 0.278532,-0.296092 v -6.00274 c 0,-0.556963 -0.01284,-1.098262 -0.04194,-1.625749 -0.0057,-0.115689 -0.01141,-0.183162 -0.01655,-0.290422 l 4.894791,8.078587 c 0.05121,0.08476 0.139501,0.13631 0.234099,0.136462 h 1.487241 c 0.153851,0 0.278518,-0.13252 0.278532,-0.296093 V 9.7644569 c -6e-6,-0.1635422 -0.124659,-0.2966079 -0.278524,-0.2966231 z" />
    <path
       id="path9590"
       style="color:#000000;-inkscape-font-specification:'BC Sans, Normal';fill:#000000;stroke-width:0.574428"
       d="m -87.745545,9.4682584 c -0.153865,1.51e-5 -0.278532,0.1325198 -0.278532,0.2961076 v 1.190101 c 0,0.163557 0.124667,0.296107 0.278532,0.296107 h 2.877859 v 9.254738 c 0,0.163558 0.124666,0.296093 0.278531,0.296093 h 1.272798 c 0.153865,0 0.279045,-0.13252 0.279059,-0.296093 v -9.254738 h 2.863895 c 0.15385,0 0.278531,-0.132519 0.278546,-0.296107 V 9.764366 c -1.5e-5,-0.1635423 -0.124667,-0.2960925 -0.278546,-0.2961076 z" />
    <path
       id="path9617"
       style="color:#000000;-inkscape-font-specification:'BC Sans, Normal';fill:#000000;stroke-width:0.574428"
       d="m -124.46681,25.560293 c -0.15387,1.5e-5 -0.27855,0.13252 -0.27855,0.296108 v 10.740946 c 0,0.163558 0.12467,0.296623 0.27855,0.296623 h 1.27278 c 0.15385,0 0.27905,-0.132974 0.27906,-0.296623 v -3.888138 h 0.88004 c 0.78597,0 1.45238,-0.09583 2.00298,-0.301794 0.54683,-0.200812 0.99874,-0.467989 1.34566,-0.814421 9.6e-4,-0.001 0.001,-0.0015 0.003,-0.003 0.33884,-0.349268 0.58581,-0.753029 0.73278,-1.199411 0.15131,-0.441576 0.22841,-0.904244 0.22841,-1.377176 0,-1.066042 -0.33594,-1.946525 -1.00304,-2.55592 -0.67995,-0.621145 -1.71023,-0.897101 -3.06751,-0.897101 z m 1.55184,1.750278 h 1.0082 c 0.85323,0 1.44367,0.171533 1.78284,0.450113 9.4e-4,1.5e-5 0.001,1.5e-5 0.003,0 0.35221,0.282901 0.52658,0.687041 0.52658,1.314645 0,0.729784 -0.19599,1.165493 -0.5824,1.436597 -9.5e-4,0.001 -0.001,0.0015 -0.003,0.003 -0.38725,0.277245 -1.05272,0.443896 -1.99471,0.443896 h -0.74104 z" />
    <path
       id="path9623"
       style="color:#000000;-inkscape-font-specification:'BC Sans, Normal';fill:#000000;stroke-width:0.574428"
       d="m -115.90558,25.560293 c -0.15387,0 -0.27906,0.13252 -0.27906,0.296108 v 10.740946 c 0,0.163558 0.1251,0.296623 0.27906,0.296623 h 1.27278 c 0.15387,0 0.27853,-0.132974 0.27855,-0.296623 v -4.142898 h 1.57147 l 2.36782,4.291202 c 0.0495,0.09098 0.14079,0.147228 0.23978,0.147834 h 1.48777 c 0.21906,4.7e-4 0.35276,-0.255214 0.23667,-0.45269 l -2.61328,-4.530981 c 0.16037,-0.07384 0.32409,-0.134037 0.47646,-0.231 l 0.003,-0.003 c 0.2705,-0.166423 0.51146,-0.377484 0.71881,-0.63097 0.20992,-0.25661 0.37785,-0.557584 0.50126,-0.894524 0.13908,-0.363763 0.20361,-0.779684 0.20361,-1.240759 0,-1.093304 -0.33054,-1.971741 -0.99788,-2.534723 -0.66969,-0.564984 -1.65962,-0.814421 -2.95848,-0.814421 z m 1.55133,1.765274 h 1.16478 c 0.79858,1.5e-5 1.35555,0.152883 1.6769,0.396862 0.001,10e-4 0.004,0.0011 0.006,0.003 0.31002,0.227528 0.47388,0.60107 0.47388,1.243852 0,0.612988 -0.15968,1.022738 -0.47077,1.312068 -0.28971,0.268482 -0.819,0.43821 -1.61334,0.43821 h -1.23661 z" />
    <path
       id="path9629"
       style="color:#000000;-inkscape-font-specification:'BC Sans, Normal';fill:#000000;stroke-width:0.574428"
       d="m -102.92911,25.394416 c -1.09479,0 -2.02853,0.240749 -2.7802,0.737426 -0.73514,0.492431 -1.28998,1.192163 -1.6495,2.073253 -0.3579,0.86658 -0.53176,1.865316 -0.53176,2.991037 0,1.14519 0.17409,2.158876 0.53176,3.035463 0.35952,0.88109 0.91434,1.580322 1.6495,2.072753 -1e-5,0.001 -1e-5,0.0015 0,0.003 0.75118,0.496374 1.68055,0.734318 2.76625,0.734318 1.04938,0 1.95323,-0.241295 2.69388,-0.737411 0.742595,-0.491203 1.308045,-1.181898 1.677423,-2.052071 0.378065,-0.8778 0.562754,-1.894701 0.562754,-3.04168 0,-1.145887 -0.184817,-2.15554 -0.562754,-3.02359 v -0.003 c -0.368637,-0.877952 -0.926712,-1.570846 -1.660363,-2.052588 -0.74064,-0.496115 -1.6476,-0.737426 -2.69699,-0.737426 z m 0,1.779738 c 1.08246,0 1.80674,0.346462 2.27893,1.036627 9.4e-4,10e-4 0.001,0.0015 0.003,0.003 0.48161,0.694774 0.735361,1.683805 0.735361,2.996722 0,1.31219 -0.259821,2.313275 -0.752411,3.029792 -0.47219,0.690165 -1.19647,1.036627 -2.27893,1.036627 -1.08247,0 -1.8138,-0.344946 -2.29547,-1.036627 -0.49259,-0.716517 -0.75188,-1.717602 -0.75188,-3.029792 0,-1.312174 0.26162,-2.301857 0.75188,-2.996722 0.4812,-0.690999 1.21704,-1.039205 2.30942,-1.039205 z" />
    <path
       id="path9635"
       style="color:#000000;-inkscape-font-specification:'BC Sans, Normal';fill:#000000;stroke-width:0.574428"
       d="m -96.122814,25.560293 c -0.153865,0 -0.278531,0.13252 -0.278531,0.296108 v 10.678932 c 0,0.431281 -0.06618,0.73685 -0.159171,0.906411 -9.56e-4,10e-4 -0.0012,0.0015 -0.0029,0.003 -0.107978,0.205102 -0.234656,0.326402 -0.392743,0.399455 -9.55e-4,10e-4 -0.0014,0.0015 -0.0029,0.003 -0.171381,0.08279 -0.352661,0.121451 -0.551386,0.121451 -0.174748,0 -0.337114,-0.01061 -0.490408,-0.03821 -0.0057,-0.0012 -0.01141,-0.0015 -0.01655,-0.003 -0.153466,-0.01804 -0.29368,-0.05095 -0.42632,-0.09507 -0.180168,-0.0602 -0.363402,0.08339 -0.362261,0.28422 v 1.143598 c -3.85e-4,0.118116 0.06504,0.225087 0.166917,0.272333 0.15221,0.06929 0.322179,0.117509 0.504372,0.150866 0.0014,3.79e-4 0.0043,-3.94e-4 0.0057,0 0.0028,5.46e-4 0.0057,0.003 0.0086,0.003 0.192149,0.04412 0.404082,0.06505 0.640792,0.06505 0.846649,0 1.566991,-0.272409 2.103228,-0.820092 0.551472,-0.563225 0.805113,-1.41775 0.805113,-2.499591 v -10.57507 c -1.5e-5,-0.163542 -0.124667,-0.296092 -0.278532,-0.296107 z" />
    <path
       id="path9641"
       style="color:#000000;-inkscape-font-specification:'BC Sans, Normal';fill:#000000;stroke-width:0.574428"
       d="m -92.189197,25.560293 c -0.153865,1.5e-5 -0.278546,0.13252 -0.278546,0.296108 v 10.740946 c 0,0.163558 0.124667,0.296623 0.278546,0.296623 h 5.647198 c 0.153865,0 0.278517,-0.132974 0.278532,-0.296623 v -1.190116 c -1.5e-5,-0.163557 -0.124667,-0.296092 -0.278532,-0.296092 h -4.092773 v -3.242704 h 3.839047 c 0.15385,0 0.278517,-0.132974 0.278531,-0.296623 v -1.172543 c -1.4e-5,-0.163542 -0.124666,-0.296077 -0.278531,-0.296092 h -3.839047 v -2.763145 h 4.092773 c 0.153865,0 0.278517,-0.13252 0.278532,-0.296108 v -1.187523 c -1.5e-5,-0.163558 -0.124667,-0.296108 -0.278532,-0.296108 z" />
    <path
       id="path9647"
       style="color:#000000;-inkscape-font-specification:'BC Sans, Normal';fill:#000000;stroke-width:0.574428"
       d="m -79.975991,25.409396 c -1.07644,0 -2.012096,0.246254 -2.788467,0.749314 -0.771535,0.489959 -1.364728,1.187008 -1.763718,2.067052 -0.388293,0.867899 -0.579287,1.866104 -0.579287,2.984835 0,1.154939 0.174434,2.173477 0.532273,3.050458 -1.5e-5,10e-4 -1.5e-5,0.0015 0,0.003 0.369178,0.880347 0.930093,1.576031 1.666039,2.058273 0.741424,0.485835 1.655128,0.719337 2.721798,0.719337 0.567646,0 1.056685,-0.03563 1.473819,-0.109473 v 0.003 c 0.423296,-0.07324 0.833597,-0.189379 1.228351,-0.346735 0.109262,-0.04337 0.181237,-0.154081 0.180866,-0.278019 v -1.173059 c -1.4e-5,-0.197415 -0.17827,-0.339487 -0.356569,-0.28422 -0.378236,0.117661 -0.762848,0.215034 -1.150313,0.293515 -0.37788,0.07657 -0.77436,0.115235 -1.192178,0.115235 -1.100761,0 -1.870385,-0.349662 -2.39882,-1.045406 v -0.003 c -0.527223,-0.717714 -0.805127,-1.700575 -0.805127,-2.987928 0,-1.295223 0.298501,-2.274475 0.869201,-2.982243 0.570642,-0.707677 1.325417,-1.0542 2.348182,-1.0542 0.429629,0 0.816766,0.05792 1.164777,0.168986 9.42e-4,1.5e-5 0.0012,1.5e-5 0.0029,0 0.376097,0.117054 0.714052,0.247057 1.011297,0.390676 0.13779,0.0655 0.299999,0.003 0.365356,-0.142073 l 0.509536,-1.143082 c 0.06461,-0.144953 0.0086,-0.317957 -0.125095,-0.390676 -0.837177,-0.444957 -1.813442,-0.663524 -2.914032,-0.663524 z" />
    <path
       id="path9653"
       style="color:#000000;-inkscape-font-specification:'BC Sans, Normal';fill:#000000;stroke-width:0.574428"
       d="m -76.607724,25.560293 c -0.153865,1.5e-5 -0.278531,0.13252 -0.278531,0.296108 v 1.187523 c 0,0.163557 0.124666,0.296108 0.278531,0.296108 h 2.877859 v 9.257315 c 0,0.163558 0.124667,0.296623 0.278546,0.296623 h 1.273297 c 0.15385,0 0.278531,-0.132974 0.278545,-0.296623 v -9.257315 h 2.863895 c 0.153851,0 0.278531,-0.13252 0.278546,-0.296108 v -1.187523 c -1.5e-5,-0.163543 -0.12481,-0.296093 -0.278546,-0.296108 z" />
    <path
       id="path9659"
       style="color:#000000;-inkscape-font-specification:'BC Sans, Normal';fill:#000000;stroke-width:0.574428"
       d="m -68.313657,25.560293 c -0.153865,1.5e-5 -0.279045,0.13252 -0.279045,0.296108 v 0.781867 c 4.14e-4,0.136917 0.08958,0.255821 0.214972,0.287313 l 0.972028,0.245981 v 8.119919 l -0.969447,0.234093 c -0.127519,0.03063 -0.218138,0.151473 -0.217553,0.290422 v 0.781351 c 0,0.163558 0.125095,0.296623 0.279045,0.296623 h 3.649394 c 0.153865,0 0.278518,-0.132974 0.278532,-0.296623 v -0.781351 c 5.7e-4,-0.138889 -0.09015,-0.259855 -0.217553,-0.290422 l -0.969447,-0.234093 v -8.119919 l 0.972542,-0.245981 c 0.12538,-0.03154 0.214044,-0.15026 0.214458,-0.287313 v -0.781867 c -1.4e-5,-0.163558 -0.124809,-0.296108 -0.278532,-0.296108 z" />
    <path
       id="path9665"
       style="color:#000000;-inkscape-font-specification:'BC Sans, Normal';fill:#000000;stroke-width:0.574428"
       d="m -58.535444,25.394416 c -1.094784,0 -2.028528,0.240749 -2.780193,0.737426 -0.735163,0.492431 -1.29,1.192163 -1.649508,2.073253 -0.35791,0.86658 -0.534854,1.865316 -0.534854,2.991037 0,1.14519 0.177172,2.158876 0.534854,3.035463 0.359508,0.88109 0.914331,1.580322 1.649508,2.072753 -1.5e-5,0.001 -1.5e-5,0.0015 0,0.003 0.75118,0.496374 1.68056,0.734318 2.766243,0.734318 1.049397,0 1.953244,-0.241295 2.693898,-0.737411 0.742579,-0.491203 1.308043,-1.181898 1.677407,-2.052071 0.378066,-0.8778 0.562755,-1.894701 0.562755,-3.04168 0,-1.145887 -0.184804,-2.15554 -0.562755,-3.02359 v -0.003 c -0.368893,-0.878588 -0.929023,-1.5708 -1.663457,-2.052587 -0.74064,-0.4961 -1.644501,-0.737426 -2.693898,-0.737426 z m 0,1.779738 c 1.082475,0 1.806739,0.346478 2.278932,1.036627 -1.4e-5,10e-4 -1.4e-5,0.0015 0,0.003 0.481592,0.694774 0.738457,1.683805 0.738457,2.996722 0,1.31219 -0.259817,2.313275 -0.752407,3.029792 -0.472179,0.690165 -1.196457,1.036627 -2.278932,1.036627 -1.082445,0 -1.813785,-0.344946 -2.295463,-1.036627 -0.49259,-0.716517 -0.752407,-1.717602 -0.752407,-3.029792 0,-1.312174 0.262156,-2.301857 0.752407,-2.996722 0.481207,-0.690999 1.21704,-1.039205 2.309413,-1.039205 z" />
    <path
       id="path9671"
       style="color:#000000;-inkscape-font-specification:'BC Sans, Normal';fill:#000000;stroke-width:0.574428"
       d="m -51.656785,25.560293 c -0.153864,0 -0.278545,0.13252 -0.278545,0.296108 v 10.740946 c 0,0.163558 0.124666,0.296623 0.278545,0.296623 h 1.172537 c 0.153851,0 0.279031,-0.132974 0.279045,-0.296623 v -6.00274 c 0,-0.556962 -0.01284,-1.098247 -0.04179,-1.625733 -0.0057,-0.114477 -0.01141,-0.181101 -0.01712,-0.287329 l 4.895304,8.075994 c 0.05121,0.08476 0.138931,0.135704 0.233586,0.135855 h 1.487755 c 0.153851,0 0.278531,-0.13252 0.278546,-0.296107 V 25.85634 c -1.5e-5,-0.163542 -0.124667,-0.296093 -0.278546,-0.296108 h -1.189582 c -0.153865,0 -0.278546,0.13252 -0.278546,0.296108 v 6.062162 c 0,0.244843 0.0043,0.509898 0.01455,0.793754 0.01,0.280991 0.01854,0.555325 0.02796,0.826309 0.0029,0.07687 0.0057,0.139494 0.0086,0.212896 l -4.886518,-8.054797 c -0.05106,-0.08476 -0.139358,-0.13631 -0.234099,-0.136462 z" />
    <path
       id="path9686"
       style="color:#000000;-inkscape-font-specification:'BC Sans, Normal';fill:#000000;stroke-width:0.574428"
       d="m 267.46894,9.6159086 a 0.27860142,0.29615162 0 0 0 -0.27853,0.2961076 V 20.652962 a 0.27860142,0.29615162 0 0 0 0.27853,0.296108 h 1.27278 a 0.27860142,0.29615162 0 0 0 0.27855,-0.296108 v -4.13979 h 1.57147 l 2.36782,4.290687 a 0.27860142,0.29615162 0 0 0 0.23978,0.145256 h 1.48517 a 0.27860142,0.29615162 0 0 0 0.23926,-0.450097 l -2.61017,-4.530997 c 0.15943,-0.07369 0.32184,-0.137523 0.47335,-0.234093 0.27189,-0.166741 0.5137,-0.379 0.72193,-0.633548 0.21073,-0.25761 0.37771,-0.555977 0.50126,-0.894524 v -0.003 c 0.13836,-0.363156 0.20309,-0.777652 0.20309,-1.237651 0,-1.093334 -0.33004,-1.969163 -0.99736,-2.532145 -0.66971,-0.5649828 -1.66222,-0.8170134 -2.96106,-0.8170134 z m 1.55133,1.7678504 h 1.16477 c 0.79857,0 1.35555,0.149654 1.67691,0.393784 a 0.27860142,0.29615162 0 0 0 0.006,0.003 c 0.30999,0.227528 0.47387,0.604178 0.47387,1.24696 0,0.612988 -0.1597,1.022192 -0.47076,1.311537 -0.28972,0.268467 -0.82159,0.438226 -1.61593,0.438226 h -1.23403 z" />
    <path
       id="path9692"
       style="color:#000000;-inkscape-font-specification:'BC Sans, Normal';fill:#000000;stroke-width:0.574428"
       d="M 276.26943,9.6159086 A 0.27860142,0.29615162 0 0 0 275.9909,9.9120162 V 20.652962 a 0.27860142,0.29615162 0 0 0 0.27853,0.296108 h 5.6472 a 0.27860142,0.29615162 0 0 0 0.27854,-0.296108 v -1.187523 a 0.27860142,0.29615162 0 0 0 -0.27854,-0.296108 h -4.09536 v -3.242688 h 3.84163 a 0.27860142,0.29615162 0 0 0 0.27853,-0.296107 v -1.175637 a 0.27860142,0.29615162 0 0 0 -0.27853,-0.296107 h -3.84163 v -2.760037 h 4.09536 a 0.27860142,0.29615162 0 0 0 0.27854,-0.296108 V 9.9120162 a 0.27860142,0.29615162 0 0 0 -0.27854,-0.2961076 z" />
    <path
       id="path9698"
       style="color:#000000;-inkscape-font-specification:'BC Sans, Normal';fill:#000000;stroke-width:0.574428"
       d="m 286.71375,9.5714676 a 0.27860142,0.29615162 0 0 0 -0.2589,0.189652 L 282.5073,20.546507 a 0.27860142,0.29615162 0 0 0 0.25889,0.402563 h 1.28726 a 0.27860142,0.29615162 0 0 0 0.2589,-0.189652 l 1.13378,-3.133139 h 3.62459 l 1.14773,3.133139 a 0.27860142,0.29615162 0 0 0 0.25942,0.189652 h 1.31775 a 0.27860142,0.29615162 0 0 0 0.2589,-0.402563 L 288.1209,9.7611196 a 0.27860142,0.29615162 0 0 0 -0.262,-0.189652 z m 0.56587,2.7362764 c 0.0349,0.122361 0.0713,0.242463 0.10027,0.358107 a 0.27860142,0.29615162 0 0 0 0.006,0.0238 c 0.0476,0.141617 0.0806,0.236807 0.10284,0.296108 l 0.98909,2.843233 h -2.39314 l 1.00305,-2.848919 a 0.27860142,0.29615162 0 0 0 0.003,-0.0061 c 0.0564,-0.169895 0.11896,-0.396847 0.18966,-0.666102 z" />
    <path
       id="path9704"
       style="color:#000000;-inkscape-font-specification:'BC Sans, Normal';fill:#000000;stroke-width:0.574428"
       d="M 293.18003,9.6159086 A 0.27860142,0.29615162 0 0 0 292.9015,9.9120162 V 20.652962 a 0.27860142,0.29615162 0 0 0 0.27853,0.296108 h 1.27589 a 0.27860142,0.29615162 0 0 0 0.27853,-0.296108 v -4.13979 h 1.57149 l 2.36523,4.290687 a 0.27860142,0.29615162 0 0 0 0.24235,0.145256 h 1.48468 a 0.27860142,0.29615162 0 0 0 0.23719,-0.450097 l -2.60811,-4.530997 c 0.15943,-0.07369 0.32236,-0.137523 0.47387,-0.234093 0.2719,-0.166741 0.51316,-0.379016 0.7214,-0.633548 0.21042,-0.257246 0.37518,-0.556583 0.49868,-0.894524 0.13908,-0.363762 0.20619,-0.779684 0.20619,-1.240744 0,-1.093334 -0.33001,-1.969163 -0.99735,-2.532145 -0.66969,-0.5649828 -1.66273,-0.8170124 -2.96159,-0.8170124 z m 1.55442,1.7678504 h 1.16479 c 0.79858,0 1.35553,0.149654 1.6769,0.393784 a 0.27860142,0.29615162 0 0 0 0.003,0.003 c 0.31,0.227528 0.47335,0.604178 0.47335,1.24696 0,0.612988 -0.15968,1.022192 -0.47077,1.311537 -0.29001,0.267724 -0.81976,0.438226 -1.61282,0.438226 h -1.23455 z" />
    <path
       id="path9727"
       style="color:#000000;-inkscape-font-specification:'BC Sans, Normal';fill:#000000;stroke-width:0.574428"
       d="m 271.6418,25.542081 c -1.09477,0 -2.02543,0.240734 -2.77708,0.737411 a 0.27860142,0.29615162 0 0 0 -0.003,0 c -0.73517,0.492431 -1.28949,1.192178 -1.649,2.073268 -0.35791,0.86658 -0.53226,1.865301 -0.53226,2.991022 0,1.14519 0.17458,2.158891 0.53226,3.035478 0.35951,0.88109 0.91383,1.580307 1.649,2.072738 a 0.27860142,0.29615162 0 0 0 0.003,0.003 c 0.75118,0.496374 1.67795,0.734318 2.76365,0.734318 1.04939,0 1.95584,-0.24131 2.69647,-0.737426 0.74181,-0.491142 1.30522,-1.18252 1.67432,-2.052071 0.37808,-0.8778 0.56277,-1.89417 0.56277,-3.041149 0,-1.146964 -0.18409,-2.158103 -0.56277,-3.026699 -0.36864,-0.877072 -0.92723,-1.571179 -1.66037,-2.052587 -0.74065,-0.496101 -1.64759,-0.736896 -2.69699,-0.736896 z m 0,1.780254 h 5.3e-4 c 1.08217,1.06e-4 1.80631,0.346068 2.2784,1.036111 a 0.27860142,0.29615162 0 0 0 0.003,0.003 c 0.4816,0.694774 0.73845,1.684321 0.73845,2.997238 0,1.312189 -0.26242,2.31276 -0.755,3.029261 -0.47219,0.690165 -1.19647,1.036642 -2.27893,1.036642 -1.08135,0 -1.81119,-0.346386 -2.29288,-1.036642 -0.49259,-0.716501 -0.75499,-1.717072 -0.75499,-3.029261 0,-1.312174 0.26164,-2.302373 0.75189,-2.997238 0.48115,-0.690893 1.21733,-1.039099 2.30942,-1.039205 z" />
    <path
       id="path9733"
       style="color:#000000;-inkscape-font-specification:'BC Sans, Normal';fill:#000000;stroke-width:0.574428"
       d="m 277.00479,25.707958 a 0.27860142,0.29615162 0 0 0 -0.26148,0.393769 l 3.61011,10.741462 a 0.27860142,0.29615162 0 0 0 0.262,0.198446 h 1.27331 a 0.27860142,0.29615162 0 0 0 0.262,-0.198446 l 3.60753,-10.741462 a 0.27860142,0.29615162 0 0 0 -0.262,-0.393769 h -1.34255 a 0.27860142,0.29615162 0 0 0 -0.26458,0.198431 l -2.2624,6.859025 c -0.1509,0.451143 -0.27942,0.872538 -0.38447,1.267096 -0.0957,-0.382594 -0.21561,-0.791526 -0.36484,-1.237651 l -2.27894,-6.88847 a 0.27860142,0.29615162 0 0 0 -0.26199,-0.198431 z" />
    <path
       id="path9739"
       style="color:#000000;-inkscape-font-specification:'BC Sans, Normal';fill:#000000;stroke-width:0.574428"
       d="m 286.86982,25.707958 a 0.27860142,0.29615162 0 0 0 -0.27854,0.296108 v 10.741462 a 0.27860142,0.29615162 0 0 0 0.27854,0.296107 h 5.64719 a 0.27860142,0.29615162 0 0 0 0.27855,-0.296107 v -1.190632 a 0.27860142,0.29615162 0 0 0 -0.27855,-0.296108 h -4.09535 V 32.0161 h 3.83905 a 0.27860142,0.29615162 0 0 0 0.27853,-0.296107 v -1.173059 a 0.27860142,0.29615162 0 0 0 -0.27853,-0.296107 h -3.83905 v -2.76313 h 4.09535 a 0.27860142,0.29615162 0 0 0 0.27855,-0.296108 v -1.187523 a 0.27860142,0.29615162 0 0 0 -0.27855,-0.296108 z" />
    <path
       id="path9745"
       style="color:#000000;-inkscape-font-specification:'BC Sans, Normal';fill:#000000;stroke-width:0.574428"
       d="m 294.73755,25.707958 a 0.27860142,0.29615162 0 0 0 -0.27905,0.296108 v 10.741462 a 0.27860142,0.29615162 0 0 0 0.27905,0.296107 h 1.2728 a 0.27860142,0.29615162 0 0 0 0.27853,-0.296107 v -4.143414 h 1.57148 l 2.36781,4.291202 a 0.27860142,0.29615162 0 0 0 0.23978,0.148289 h 1.48777 a 0.27860142,0.29615162 0 0 0 0.23668,-0.453206 l -2.61018,-4.527888 c 0.15947,-0.07354 0.32178,-0.137827 0.47336,-0.234093 0.2719,-0.166741 0.51316,-0.379516 0.7214,-0.634079 0.20992,-0.256609 0.37836,-0.557053 0.50177,-0.893993 0.13907,-0.363763 0.2062,-0.779684 0.2062,-1.240759 0,-1.093319 -0.33004,-1.972256 -0.99736,-2.535238 -0.66969,-0.564984 -1.66273,-0.814421 -2.96157,-0.814421 z m 1.55133,1.765259 h 1.16479 c 0.79856,1.5e-5 1.35865,0.152883 1.68,0.396877 a 0.27860142,0.29615162 0 0 0 0.003,0.003 c 0.30999,0.227528 0.47387,0.600555 0.47387,1.243337 0,0.612987 -0.1597,1.022723 -0.47078,1.312052 -0.28971,0.268482 -0.81899,0.438226 -1.61333,0.438226 h -1.23663 z" />
    <path
       id="path9751"
       style="color:#000000;-inkscape-font-specification:'BC Sans, Normal';fill:#000000;stroke-width:0.574428"
       d="m 303.54064,25.707958 a 0.27860142,0.29615162 0 0 0 -0.27855,0.296108 v 10.741462 a 0.27860142,0.29615162 0 0 0 0.27855,0.296107 h 1.27331 a 0.27860142,0.29615162 0 0 0 0.27853,-0.296107 v -4.714963 h 4.62194 v 4.714963 a 0.27860142,0.29615162 0 0 0 0.27853,0.296107 h 1.27331 a 0.27860142,0.29615162 0 0 0 0.27853,-0.296107 V 26.004066 a 0.27860142,0.29615162 0 0 0 -0.27853,-0.296108 h -1.27331 a 0.27860142,0.29615162 0 0 0 -0.27853,0.296108 v 4.246761 h -4.62194 v -4.246761 a 0.27860142,0.29615162 0 0 0 -0.27853,-0.296108 z" />
    <path
       id="path9757"
       style="color:#000000;-inkscape-font-specification:'BC Sans, Normal';fill:#000000;stroke-width:0.574428"
       d="m 316.60133,25.663517 a 0.27860142,0.29615162 0 0 0 -0.25941,0.186544 l -3.94756,10.785903 a 0.27860142,0.29615162 0 0 0 0.25941,0.405671 h 1.28675 a 0.27860142,0.29615162 0 0 0 0.26199,-0.189652 l 1.13379,-3.136247 h 3.622 l 1.14774,3.136247 a 0.27860142,0.29615162 0 0 0 0.25889,0.189652 h 1.31775 a 0.27860142,0.29615162 0 0 0 0.25942,-0.405671 l -3.93413,-10.785903 a 0.27860142,0.29615162 0 0 0 -0.2589,-0.186544 z m 0.56534,2.7342 c 0.0349,0.122361 0.0712,0.24504 0.10028,0.3607 a 0.27860142,0.29615162 0 0 0 0.006,0.02381 c 0.0476,0.141617 0.081,0.236792 0.10341,0.296107 l 0.99167,2.842718 h -2.39572 l 1.00253,-2.848919 a 0.27860142,0.29615162 0 0 0 0.003,-0.0061 c 0.0562,-0.169729 0.11867,-0.399819 0.18912,-0.668695 z" />
    <path
       id="path9763"
       style="color:#000000;-inkscape-font-specification:'BC Sans, Normal';fill:#000000;stroke-width:0.574428"
       d="m 323.07019,25.707958 a 0.27860142,0.29615162 0 0 0 -0.27853,0.296108 v 10.741462 a 0.27860142,0.29615162 0 0 0 0.27853,0.296107 h 1.17305 a 0.27860142,0.29615162 0 0 0 0.27855,-0.296107 v -6.003256 c 0,-0.556962 -0.0128,-1.098247 -0.0418,-1.625733 -0.006,-0.114477 -0.0114,-0.181086 -0.0165,-0.287329 l 4.89479,8.075994 a 0.27860142,0.29615162 0 0 0 0.2341,0.136462 h 1.48724 a 0.27860142,0.29615162 0 0 0 0.27853,-0.296623 V 26.004096 a 0.27860142,0.29615162 0 0 0 -0.27853,-0.296108 h -1.1896 a 0.27860142,0.29615162 0 0 0 -0.27853,0.296108 v 6.062162 c 0,0.244843 0.004,0.509883 0.0144,0.793739 0.01,0.280991 0.0185,0.555325 0.028,0.826308 0.003,0.07793 0.006,0.141769 0.009,0.21602 l -4.88651,-8.05792 a 0.27860142,0.29615162 0 0 0 -0.2341,-0.136462 z" />
    <path
       id="path9769"
       style="color:#000000;-inkscape-font-specification:'BC Sans, Normal';fill:#000000;stroke-width:0.574428"
       d="m 338.55142,25.557061 c -1.66854,-0.03457 -3.43093,0.621282 -4.45644,2.077878 -1.1185,1.572908 -1.24531,3.701535 -0.87723,5.574052 0.30424,1.606478 1.36249,3.072657 2.83892,3.62034 1.29073,0.492598 2.69717,0.399894 4.03522,0.224616 0.61615,-0.137523 1.29914,-0.200963 1.84207,-0.541224 0.10555,-0.301187 0.0291,-0.643252 0.0523,-0.962452 0,-1.49194 0,-2.983865 0,-4.475805 -0.0745,-0.422683 -0.50768,-0.265327 -0.79103,-0.296107 -0.99465,0 -1.98929,0 -2.98393,0 -0.39763,0.07915 -0.24959,0.539677 -0.27854,0.840894 0.0228,0.289937 -0.0625,0.602753 0.0816,0.867081 0.30675,0.160661 0.66282,0.05777 0.9942,0.08673 0.3814,0 0.76282,0 1.14424,0 0,0.883501 0,1.766987 0,2.650488 -1.03429,0.254229 -2.14507,0.305933 -3.17103,-0.01638 -1.03924,-0.332179 -1.74175,-1.374324 -1.92926,-2.479319 -0.25634,-1.406211 -0.19462,-3.021073 0.68993,-4.176634 0.79832,-1.073836 2.19292,-1.347185 3.40826,-1.166948 0.62577,0.102195 1.23858,0.293211 1.82428,0.548168 0.39332,0.09082 0.42923,-0.392723 0.569,-0.656807 0.0933,-0.27573 0.26049,-0.532127 0.2962,-0.823261 -0.29348,-0.51146 -1.03381,-0.508185 -1.53584,-0.701461 -0.57498,-0.135097 -1.16527,-0.193442 -1.753,-0.193912 z" />
    <path
       id="path18933"
       style="color:#000000;-inkscape-font-specification:'BC Sans, Normal';fill:#000000;stroke-width:0.607771;stroke-linecap:round;stroke-linejoin:round"
       d="m 64.562469,225.46685 c -0.710571,0 -1.347313,0.12282 -1.900153,0.37621 -0.551543,0.25293 -0.998674,0.62326 -1.320839,1.10742 -0.326016,0.48996 -0.487312,1.07825 -0.487312,1.72652 0,0.93857 0.251045,1.7267 0.768939,2.30115 0.502503,0.55741 1.232573,1.0049 2.175589,1.36528 0.631107,0.25157 1.126693,0.48302 1.4769,0.68421 0.340608,0.19573 0.557192,0.39946 0.668707,0.58911 0.115538,0.19664 0.17827,0.44649 0.17827,0.77307 0,0.48159 -0.151283,0.80965 -0.496084,1.08677 -0.336615,0.27054 -0.868473,0.42943 -1.618513,0.42943 -0.546579,0 -1.077653,-0.0663 -1.593693,-0.19845 -0.516867,-0.13479 -0.944199,-0.28193 -1.281584,-0.44131 -0.194274,-0.0922 -0.413668,0.0581 -0.414951,0.28422 v 1.37149 c 10e-4,0.12069 0.06718,0.23006 0.170011,0.28112 0.371475,0.18577 0.818193,0.32477 1.345658,0.42375 0.528564,0.0992 1.099391,0.14783 1.713068,0.14783 1.21239,0 2.211577,-0.2945 2.964155,-0.90899 0.75623,-0.61746 1.150841,-1.51909 1.150841,-2.60295 0,-0.63467 -0.124809,-1.18889 -0.387579,-1.64072 l -0.0029,-0.003 c -0.248207,-0.44221 -0.617172,-0.81083 -1.089336,-1.10742 -0.450939,-0.30009 -0.995179,-0.57211 -1.635557,-0.82062 v -5.2e-4 -5.1e-4 -5.3e-4 -5.2e-4 -5.1e-4 -5.2e-4 c -0.569544,-0.2192 -1.016846,-0.42431 -1.33429,-0.61288 -0.307601,-0.1934 -0.511489,-0.39911 -0.626842,-0.59531 -0.114539,-0.19496 -0.180866,-0.4491 -0.180866,-0.78755 0,-0.42316 0.124096,-0.70842 0.401016,-0.95084 0.0014,-0.002 0.0043,-0.005 0.0057,-0.006 0.26665,-0.24177 0.694068,-0.38499 1.32034,-0.38499 0.435691,0 0.860684,0.0553 1.276406,0.16587 0.42545,0.11311 0.813999,0.24915 1.16686,0.41135 0.15549,0.0711 0.335173,-0.0106 0.393256,-0.18035 l 0.420643,-1.22318 c 0.05292,-0.15533 -0.01669,-0.32763 -0.159157,-0.39379 -0.428617,-0.20002 -0.895475,-0.362 -1.400959,-0.48265 -0.513358,-0.12251 -1.068453,-0.18087 -1.66604,-0.18087 z"
       sodipodi:nodetypes="ccssscscssscccccssssccccccccccccsccssccccscc" />
    <path
       id="path18939"
       style="color:#000000;-inkscape-font-specification:'BC Sans, Normal';fill:#000000;stroke-width:0.607771;stroke-linecap:round;stroke-linejoin:round"
       d="m 69.922349,225.62395 c -0.163222,-1.7e-4 -0.29552,0.14071 -0.295078,0.3142 v 11.36571 c 0.0012,0.17231 0.13294,0.31127 0.295078,0.31109 h 1.345643 c 0.162095,1.8e-4 0.293908,-0.13874 0.295078,-0.31109 v -4.11344 h 0.933274 c 0.830516,0 1.535596,-0.10249 2.117706,-0.31988 0.578559,-0.21247 1.056114,-0.49543 1.423168,-0.86197 9.56e-4,-0.001 0.0014,-0.002 0.0029,-0.003 0.357938,-0.36896 0.621578,-0.79319 0.777212,-1.26452 v -0.003 c 0.160754,-0.46814 0.242372,-0.95578 0.242372,-1.45728 0,-1.1279 -0.355628,-2.05894 -1.061435,-2.70371 -0.719415,-0.65717 -1.809206,-0.95343 -3.245283,-0.95343 z m 1.640721,1.85416 h 1.070221 c 0.902764,0 1.526838,0.17859 1.885676,0.47335 v 0.003 c 0.372673,0.29932 0.55759,0.72502 0.55759,1.38906 0,0.77215 -0.20714,1.23556 -0.615987,1.52238 -9.55e-4,10e-4 -0.0014,0.002 -0.0029,0.003 -0.409773,0.29333 -1.115352,0.47128 -2.112015,0.47128 h -0.782903 z"
       sodipodi:nodetypes="cccccccscscccsscccsccsccscc" />
    <path
       id="path18945"
       style="color:#000000;-inkscape-font-specification:'BC Sans, Normal';fill:#000000;stroke-width:0.607771;stroke-linecap:round;stroke-linejoin:round"
       d="m 80.957327,225.57642 c -0.122384,-2.5e-4 -0.232259,0.0799 -0.27595,0.20154 l -4.175975,11.41015 c -0.07474,0.2046 0.06633,0.42543 0.272855,0.42684 h 1.362703 c 0.121528,5.3e-4 0.230876,-0.0782 0.275436,-0.19843 l 1.200965,-3.31712 h 3.833355 l 1.214915,3.31712 c 0.04422,0.11918 0.152282,0.19784 0.272855,0.19843 h 1.393199 c 0.207583,5e-4 0.350621,-0.22116 0.275422,-0.42684 l -4.162011,-11.41015 c -0.04365,-0.12161 -0.153522,-0.20179 -0.275949,-0.20154 z m 0.599455,2.8975 c 0.03666,0.12888 0.07218,0.25651 0.102843,0.37827 0.0029,0.008 0.0057,0.0156 0.0086,0.0232 0.05035,0.1498 0.08516,0.25116 0.108976,0.31419 l 1.047485,3.0086 h -2.532658 l 1.06142,-3.0148 c 9.7e-4,-0.002 0.0014,-0.005 0.0029,-0.006 0.05962,-0.17953 0.125808,-0.41944 0.200508,-0.70383 z"
       sodipodi:nodetypes="ccccccccccccccccccccccccc" />
    <path
       id="path18951"
       style="color:#000000;-inkscape-font-specification:'BC Sans, Normal';fill:#000000;stroke-width:0.607771;stroke-linecap:round;stroke-linejoin:round"
       d="m 92.095662,225.46685 c -1.139987,0 -2.131429,0.26049 -2.953301,0.79376 -0.814641,0.51828 -1.441896,1.25299 -1.863452,2.18281 v 0.003 c -0.410844,0.91826 -0.613406,1.97583 -0.613406,3.1595 0,1.22199 0.184162,2.30031 0.562755,3.22823 9.41e-4,0.001 0.0014,0.002 0.0029,0.003 0.390632,0.93147 0.981943,1.66638 1.76061,2.17661 0.784458,0.51404 1.752364,0.76069 2.880968,0.76069 0.600597,0 1.11879,-0.037 1.560116,-0.11523 0.447858,-0.0775 0.880426,-0.19784 1.298102,-0.36431 0.116251,-0.0459 0.193162,-0.16423 0.192235,-0.29611 v -1.24076 c -7.14e-4,-0.20909 -0.190224,-0.35879 -0.378779,-0.2992 -0.400174,0.12448 -0.804941,0.22806 -1.214914,0.31109 -0.399804,0.081 -0.819862,0.12145 -1.261943,0.12145 -1.164749,0 -1.978733,-0.3686 -2.537822,-1.10484 v -0.003 c -0.557876,-0.75941 -0.852668,-1.80045 -0.852668,-3.1626 0,-1.36924 0.316502,-2.40252 0.919324,-3.15122 0.130372,-0.13798 0.672557,-0.6358 1.362189,-0.95654 0.69809,-0.32469 1.514742,-0.47539 2.295991,-0.0121 0.0194,0.0106 0.0398,0.0203 0.06105,0.0268 0.397949,0.12388 0.755203,0.2625 1.069694,0.41444 0.14629,0.0703 0.318584,0.003 0.387579,-0.15087 l 0.540531,-1.21129 c 0.06718,-0.15318 0.0086,-0.3354 -0.133796,-0.41186 -0.885775,-0.4708 -1.91958,-0.70178 -3.084058,-0.70178 z"
       sodipodi:nodetypes="ccccsccsscccccssccscscccccccc" />
    <path
       id="path18957"
       style="color:#000000;-inkscape-font-specification:'BC Sans, Normal';fill:#000000;stroke-width:0.607771;stroke-linecap:round;stroke-linejoin:round"
       d="m 96.109898,225.62395 c -0.163222,-1.7e-4 -0.29552,0.14071 -0.295077,0.3142 v 0.82888 c -1.57e-4,0.1448 0.093,0.2708 0.225312,0.3049 l 1.030939,0.26097 v 8.5881 l -1.027843,0.24856 c -0.133511,0.0327 -0.228237,0.15917 -0.228408,0.3049 v 0.8294 c 0.0012,0.17231 0.132939,0.31127 0.295077,0.31109 h 3.861256 c 0.162296,4.9e-4 0.294416,-0.13858 0.295586,-0.31109 v -0.8294 c -1.7e-4,-0.14571 -0.0948,-0.27209 -0.2284,-0.3049 L 99.00998,235.921 v -8.5881 l 1.03094,-0.26097 c 0.13251,-0.0338 0.22594,-0.15997 0.22582,-0.3049 v -0.82888 c 4.6e-4,-0.17372 -0.13222,-0.31467 -0.295586,-0.3142 z"
       sodipodi:nodetypes="ccccccccccccccccccccc" />
    <path
       id="path18963"
       style="color:#000000;-inkscape-font-specification:'BC Sans, Normal';fill:#000000;stroke-width:0.607771;stroke-linecap:round;stroke-linejoin:round"
       d="m 102.03821,225.62395 c -0.16322,-1.7e-4 -0.29551,0.14071 -0.29507,0.3142 v 11.36571 c 0.001,0.17231 0.13294,0.31127 0.29507,0.31109 h 1.24281 c 0.1621,1.8e-4 0.29391,-0.13874 0.29508,-0.31109 v -6.35207 c 0,-0.58928 -0.0143,-1.16273 -0.0445,-1.72081 -0.007,-0.12145 -0.01,-0.19222 -0.0165,-0.3049 l 5.17901,8.54677 c 0.0546,0.089 0.14805,0.14252 0.24805,0.14207 h 1.57096 c 0.16229,4.9e-4 0.29442,-0.13858 0.29559,-0.31109 V 225.9376 c 1.8e-4,-0.17352 -0.13237,-0.31415 -0.29559,-0.31368 h -1.25625 c -0.16304,-1.7e-4 -0.29524,0.1404 -0.29507,0.31368 v 6.4146 c 0,0.25897 0.004,0.53789 0.0143,0.83819 0.01,0.29722 0.0205,0.58981 0.0305,0.87642 0.003,0.0833 0.006,0.15163 0.009,0.231 l -5.17074,-8.52868 c -0.0541,-0.0904 -0.1478,-0.1451 -0.24856,-0.14526 z"
       sodipodi:nodetypes="ccccccsccccccccccscscccc" />
    <path
       id="path18969"
       style="color:#000000;-inkscape-font-specification:'BC Sans, Normal';fill:#000000;stroke-width:0.607771;stroke-linecap:round;stroke-linejoin:round"
       d="m 118.41964,225.46685 c -1.2055,0 -2.25477,0.25252 -3.13418,0.76998 -0.87606,0.5049 -1.5578,1.23271 -2.02261,2.16473 -0.4546,0.92159 -0.67954,2.00119 -0.67954,3.21944 0,1.23506 0.20169,2.32125 0.61287,3.25149 9.3e-4,0.002 0.001,0.005 0.003,0.006 0.42223,0.92004 1.04335,1.64513 1.85002,2.15284 9.6e-4,2e-5 0.001,2e-5 0.003,0 0.81247,0.50005 1.80016,0.74311 2.94711,0.74311 0.76042,0 1.44315,-0.0461 2.05051,-0.14465 0.60524,-0.0981 1.20591,-0.25256 1.79989,-0.4594 0.12139,-0.0423 0.20346,-0.16285 0.20309,-0.29869 v -5.57073 c -0.001,-0.17229 -0.13294,-0.31127 -0.29508,-0.31109 h -3.69692 c -0.16229,-4.7e-4 -0.29442,0.13859 -0.29559,0.31109 v 1.27331 c -4.4e-4,0.17374 0.13208,0.31469 0.29559,0.3142 h 2.0562 v 2.80448 c -0.20457,0.0494 -0.40983,0.10037 -0.64956,0.13904 -0.3089,0.0497 -0.69473,0.0738 -1.15343,0.0738 -0.92142,0 -1.63905,-0.18448 -2.16731,-0.52711 -0.53794,-0.35956 -0.92409,-0.84211 -1.18133,-1.47484 -0.25269,-0.6567 -0.38446,-1.41435 -0.38446,-2.28307 0,-1.35547 0.3351,-2.37911 0.9865,-3.13004 0.65965,-0.75966 1.5598,-1.14049 2.77761,-1.14049 0.48406,0 0.94479,0.0656 1.38751,0.19585 l 0.009,0.003 c 0.46697,0.12403 0.88267,0.26711 1.2454,0.42943 0.14847,0.0666 0.31971,-0.006 0.38447,-0.16278 l 0.50953,-1.24385 c 0.0643,-0.15849 -0.004,-0.34242 -0.15296,-0.41134 -0.47896,-0.22135 -0.99826,-0.39198 -1.55443,-0.51263 h -0.003 c -0.54994,-0.12115 -1.13326,-0.18036 -1.74924,-0.18036 z"
       sodipodi:nodetypes="cccsscccscsccccccccccsccscscccccccccc" />
    <path
       id="path2030"
       style="color:#000000;-inkscape-font-specification:'BC Sans, Normal';fill:#000000;stroke-width:0.637315;stroke-linecap:round;stroke-linejoin:round"
       d="m 259.63479,225.18626 c -0.768,5e-5 -1.45505,0.12255 -2.05259,0.38034 -0.59632,0.25723 -1.07952,0.63775 -1.42782,1.13016 -0.35248,0.49831 -0.52813,1.09558 -0.52813,1.75493 0,0.95459 0.27207,1.75463 0.83199,2.33888 0.54461,0.56829 1.33378,1.02515 2.35696,1.39216 0.68015,0.25521 1.21183,0.48931 1.58957,0.6935 0.36823,0.19903 0.60548,0.40552 0.72605,0.59841 0.12504,0.19998 0.19172,0.45589 0.19172,0.78807 0,0.48979 -0.16415,0.82401 -0.53692,1.10587 -0.36393,0.27516 -0.93836,0.43667 -1.74924,0.43667 -0.58991,0 -1.16275,-0.0666 -1.7198,-0.20051 h -0.003 c -0.55736,-0.13684 -1.02192,-0.28986 -1.38596,-0.45165 -0.21015,-0.0938 -0.44737,0.0593 -0.44855,0.28939 v 1.39216 c -2.1e-4,0.12363 0.0711,0.23622 0.18294,0.28887 0.40159,0.18895 0.88697,0.33036 1.45727,0.43098 0.57141,0.10082 1.18862,0.15038 1.85208,0.15038 1.31075,0 2.39288,-0.29849 3.20653,-0.92346 0.81757,-0.62799 1.23868,-1.54656 1.23868,-2.64893 0,-0.64556 -0.13194,-1.20958 -0.41599,-1.66915 l -0.003,-0.003 c -0.26731,-0.44805 -0.6633,-0.82288 -1.17098,-1.12396 l -0.006,-0.003 c -0.48793,-0.30573 -1.07655,-0.58145 -1.76992,-0.83458 -0.61571,-0.22293 -1.09908,-0.43348 -1.44228,-0.62528 -0.33263,-0.19672 -0.55379,-0.40504 -0.67852,-0.60462 -0.12399,-0.19829 -0.19482,-0.45828 -0.19482,-0.80253 0,-0.43037 0.13423,-0.72082 0.43357,-0.96738 0.002,-9.8e-4 0.004,-0.002 0.006,-0.003 0.28829,-0.2459 0.75074,-0.39533 1.42782,-0.39533 0.47103,0 0.93079,0.0587 1.38028,0.17105 0.45996,0.11499 0.88096,0.25414 1.26245,0.4191 0.16785,0.072 0.36177,-0.0115 0.42478,-0.18294 l 0.45424,-1.24798 c 0.0576,-0.15786 -0.0172,-0.33334 -0.17105,-0.40101 -0.46337,-0.20342 -0.96968,-0.36411 -1.51619,-0.48679 -0.55488,-0.12458 -1.15608,-0.18549 -1.80195,-0.18552 z"
       sodipodi:nodetypes="csssscsssssccccccssssccccccssccssccccscc" />
    <path
       id="path2024"
       style="color:#000000;-inkscape-font-specification:'BC Sans, Normal';fill:#000000;stroke-width:0.637315;stroke-linecap:round;stroke-linejoin:round"
       d="m 265.43133,225.34852 c -0.17593,-8e-5 -0.31864,0.14241 -0.31884,0.31833 v 11.55691 c -9e-5,0.17613 0.14271,0.31894 0.31884,0.31885 h 1.45676 c 0.17613,9e-5 0.31894,-0.14271 0.31885,-0.31885 v -4.18269 h 1.00872 c 0.89906,0 1.65894,-0.1024 2.28875,-0.32401 0.62551,-0.21608 1.14001,-0.50364 1.53686,-0.87643 0.002,-0.002 0.004,-0.004 0.006,-0.006 0.38759,-0.37585 0.66957,-0.80897 0.83767,-1.28933 0.17317,-0.47533 0.26252,-0.97145 0.26252,-1.48053 0,-1.14717 -0.38414,-2.09341 -1.14722,-2.74919 -0.77778,-0.66841 -1.9578,-0.96738 -3.51038,-0.96738 z m 1.77561,1.88206 h 1.15341 c 0.97603,0 1.65015,0.1839 2.03812,0.48369 9.9e-4,0.001 0.002,0.002 0.003,0.003 0.40291,0.30441 0.60152,0.73747 0.60152,1.41283 0,0.78533 -0.22461,1.25649 -0.66663,1.54823 -0.44301,0.29834 -1.20554,0.48111 -2.28306,0.48111 h -0.84646 z"
       sodipodi:nodetypes="cccccccscsccsscccsccscscc" />
    <path
       id="path2018"
       style="color:#000000;-inkscape-font-specification:'BC Sans, Normal';fill:#000000;stroke-width:0.637315;stroke-linecap:round;stroke-linejoin:round"
       d="m 275.22402,225.34852 c -0.17573,2e-4 -0.31813,0.14261 -0.31833,0.31833 v 11.55691 c -9e-5,0.17593 0.1424,0.31866 0.31833,0.31885 h 3.22099 c 1.95428,0 3.52461,-0.51074 4.65191,-1.55753 1.1447,-1.06378 1.70481,-2.64307 1.70481,-4.6545 2e-5,-1.27033 -0.23859,-2.36051 -0.73432,-3.25974 -0.49291,-0.89412 -1.21092,-1.5822 -2.12701,-2.04071 h -0.003 c -0.90375,-0.45704 -1.95993,-0.68161 -3.1533,-0.68161 z m 1.7756,1.88206 h 1.57562 c 1.33697,0 2.31501,0.34139 2.99981,0.99683 9.9e-4,0.001 0.002,0.002 0.003,0.003 0.68216,0.63413 1.05006,1.65969 1.05006,3.15019 0,1.47821 -0.37298,2.52907 -1.07952,3.22099 -0.70653,0.69192 -1.78466,1.05885 -3.29747,1.05885 h -1.25098 z"
       sodipodi:nodetypes="ccccscssccsccsscssscc" />
  </g>
</svg>
