<?xml version="1.0" encoding="UTF-8" standalone="no"?>
<svg
   width="1000"
   height="1000"
   viewBox="0 0 264.58333 264.58333"
   version="1.1"
   id="svg5"
   inkscape:version="1.2 (dc2aedaf03, 2022-05-15)"
   sodipodi:docname="two_B.svg"
   xmlns:inkscape="http://www.inkscape.org/namespaces/inkscape"
   xmlns:sodipodi="http://sodipodi.sourceforge.net/DTD/sodipodi-0.dtd"
   xmlns="http://www.w3.org/2000/svg"
   xmlns:svg="http://www.w3.org/2000/svg">
  <sodipodi:namedview
     id="namedview7"
     pagecolor="#ffffff"
     bordercolor="#000000"
     borderopacity="0.25"
     inkscape:showpageshadow="2"
     inkscape:pageopacity="0.0"
     inkscape:pagecheckerboard="0"
     inkscape:deskcolor="#d1d1d1"
     inkscape:document-units="px"
     showgrid="true"
     showguides="true"
     inkscape:zoom="1.829812"
     inkscape:cx="328.44904"
     inkscape:cy="721.93209"
     inkscape:window-width="3072"
     inkscape:window-height="1622"
     inkscape:window-x="-11"
     inkscape:window-y="-11"
     inkscape:window-maximized="1"
     inkscape:current-layer="layer1">
    <inkscape:grid
       type="xygrid"
       id="grid182"
       originx="0"
       originy="0" />
    <sodipodi:guide
       position="-99.999999,52.916666"
       orientation="0,1"
       id="guide184"
       inkscape:locked="false"
       inkscape:label=""
       inkscape:color="rgb(0,134,229)" />
    <sodipodi:guide
       position="-99.999999,211.66666"
       orientation="0,1"
       id="guide186"
       inkscape:locked="false"
       inkscape:label=""
       inkscape:color="rgb(0,134,229)" />
    <sodipodi:guide
       position="132.29166,-835.41666"
       orientation="-1,0"
       id="guide188"
       inkscape:locked="false"
       inkscape:label=""
       inkscape:color="rgb(0,134,229)" />
    <sodipodi:guide
       position="0,264.58333"
       orientation="0,3779.5276"
       id="guide1770"
       inkscape:locked="false" />
    <sodipodi:guide
       position="999.99999,264.58333"
       orientation="3779.5276,0"
       id="guide1772"
       inkscape:locked="false" />
    <sodipodi:guide
       position="999.99999,33.072916"
       orientation="0,1"
       id="guide1774"
       inkscape:locked="false"
       inkscape:label=""
       inkscape:color="rgb(0,134,229)" />
    <sodipodi:guide
       position="0,-735.41666"
       orientation="-3779.5276,0"
       id="guide1776"
       inkscape:locked="false" />
    <sodipodi:guide
       position="-99.999999,88.635416"
       orientation="0,1"
       id="guide31317"
       inkscape:locked="false"
       inkscape:label="Wheel Top"
       inkscape:color="rgb(0,134,229)" />
    <sodipodi:guide
       position="0,264.58333"
       orientation="0,1000"
       id="guide6952"
       inkscape:locked="false" />
    <sodipodi:guide
       position="264.58333,264.58333"
       orientation="1000,0"
       id="guide6954"
       inkscape:locked="false" />
    <sodipodi:guide
       position="264.58333,0"
       orientation="0,-1000"
       id="guide6956"
       inkscape:locked="false" />
    <sodipodi:guide
       position="0,0"
       orientation="-1000,0"
       id="guide6958"
       inkscape:locked="false" />
  </sodipodi:namedview>
  <defs
     id="defs2" />
  <g
     inkscape:label="Layer 1"
     inkscape:groupmode="layer"
     id="layer1">
    <path
       style="color:#000000;fill:#000000;stroke-width:1.51024;stroke-linecap:round;stroke-linejoin:round;-inkscape-stroke:none"
       d="m 76.084992,164.84932 a 1.5103878,1.5103878 0 0 0 -1.510237,1.51024 v 4.53071 a 1.5103878,1.5103878 0 0 0 1.510237,1.51023 H 194.37016 l 8.68386,21.70375 a 1.5103878,1.5103878 0 0 0 1.4011,0.94981 h 9.06142 a 1.5103878,1.5103878 0 0 0 1.43355,-1.03239 l 7.55118,-22.65355 a 1.5103878,1.5103878 0 0 0 0.0767,-0.47785 v -4.53071 a 1.5103878,1.5103878 0 0 0 -1.51024,-1.51024 z m 1.510236,3.02047 H 219.55749 v 2.77565 l -7.12938,21.38814 h -6.94945 l -8.68386,-21.70375 a 1.5103878,1.5103878 0 0 0 -1.4011,-0.9498 H 77.595228 Z"
       id="path8001-0-35-8-64" />
    <path
       style="color:#000000;fill:#000000;stroke-width:1.51024;stroke-linecap:round"
       d="m 177.27083,175.98733 c -9.79783,0 -17.83966,8.0418 -17.83966,17.83966 0,9.79786 8.04183,17.83967 17.83966,17.83967 9.79786,0 17.83966,-8.04183 17.83966,-17.83967 0,-9.79784 -8.0418,-17.83966 -17.83966,-17.83966 z m 0,3.02046 c 8.14676,0 14.81919,6.67245 14.81919,14.8192 0,8.14676 -6.67243,14.8192 -14.81919,14.8192 -8.14671,0 -14.8192,-6.67246 -14.8192,-14.8192 0,-8.14675 6.67249,-14.8192 14.8192,-14.8192 z m 0,4.572 c -5.66814,0 -10.24717,4.57901 -10.24717,10.2472 0,5.66819 4.57903,10.24718 10.24717,10.24718 5.66821,0 10.24422,-4.57899 10.24422,-10.24718 0,-5.66819 -4.57601,-10.2472 -10.24422,-10.2472 z m 0,3.02047 c 4.06869,0 7.22375,3.15806 7.22375,7.22673 0,4.06868 -3.15506,7.22671 -7.22375,7.22671 -4.06861,0 -7.22669,-3.15804 -7.22669,-7.22671 0,-4.06867 3.15808,-7.22673 7.22669,-7.22673 z"
       id="path2031-5-0-2-2"
       sodipodi:nodetypes="ssssssssssssssssssss" />
    <path
       style="color:#000000;fill:#000000;stroke-width:1.51024;stroke-linecap:round"
       d="m 139.51491,175.98732 c -9.79783,0 -17.83967,8.04181 -17.83967,17.83967 0,9.79786 8.04184,17.83967 17.83967,17.83967 9.7979,0 17.8397,-8.04183 17.8397,-17.83967 0,-9.79784 -8.0418,-17.83967 -17.8397,-17.83967 z m 0,3.02047 c 8.14678,0 14.81923,6.67245 14.81923,14.8192 0,8.14676 -6.67245,14.8192 -14.81923,14.8192 -8.14671,0 -14.8192,-6.67246 -14.8192,-14.8192 0,-8.14675 6.67249,-14.8192 14.8192,-14.8192 z m 0,4.572 c -5.66814,0 -10.24718,4.57901 -10.24718,10.2472 0,5.66819 4.57904,10.24718 10.24718,10.24718 5.66821,0 10.24427,-4.57899 10.24427,-10.24718 0,-5.66819 -4.57606,-10.2472 -10.24427,-10.2472 z m 0,3.02047 c 4.0687,0 7.22378,3.15804 7.22378,7.22673 0,4.06868 -3.15508,7.22671 -7.22378,7.22671 -4.06861,0 -7.22671,-3.15804 -7.22671,-7.22671 0,-4.06867 3.1581,-7.22673 7.22671,-7.22673 z"
       id="path2031-7-2-69-3"
       sodipodi:nodetypes="ssssssssssssssssssss" />
    <path
       id="path6276"
       style="color:#000000;fill:#000000;stroke-width:3.02047;stroke-linecap:round;stroke-linejoin:round"
       d="m 139.64884,217.91848 c -0.83409,-1.5e-4 -1.51037,0.6759 -1.51051,1.50998 v 10.57197 H 126.0569 c -0.83408,-1.4e-4 -1.51036,0.6759 -1.5105,1.50998 -1.5e-4,0.83429 0.67621,1.51066 1.5105,1.51051 h 12.08143 v 9.06146 c 1.4e-4,0.83409 0.67642,1.51013 1.51051,1.50998 0.83388,-1.4e-4 1.50984,-0.6761 1.50998,-1.50998 v -22.65392 c -1.4e-4,-0.83388 -0.6761,-1.50983 -1.50998,-1.50998 z"
       sodipodi:nodetypes="scccscccsccs" />
    <path
       id="path6282"
       style="color:#000000;fill:#000000;stroke-width:3.02047;stroke-linecap:round;stroke-linejoin:round"
       d="m 177.40467,217.91848 c -0.83388,1.5e-4 -1.50984,0.6761 -1.50998,1.50998 v 22.65392 c 1.4e-4,0.83388 0.6761,1.50984 1.50998,1.50998 0.83409,1.5e-4 1.51036,-0.67589 1.5105,-1.50998 v -22.65392 c -1.4e-4,-0.83408 -0.67641,-1.51012 -1.5105,-1.50998 z"
       sodipodi:nodetypes="sccsccs" />
    <path
       id="path6330"
       style="color:#000000;fill:#000000;stroke-width:3.02047;stroke-linecap:round;stroke-linejoin:round"
       d="m 26.380818,230.00043 c -0.833882,1.4e-4 -1.509843,0.6761 -1.509985,1.50998 -1.51e-4,0.83409 0.675896,1.51037 1.509985,1.51051 h 16.61294 c 0.834089,-1.4e-4 1.510136,-0.67642 1.509985,-1.51051 -1.42e-4,-0.83388 -0.676103,-1.50984 -1.509985,-1.50998 z"
       sodipodi:nodetypes="csccscc" />
    <path
       id="path18933"
       style="color:#000000;-inkscape-font-specification:'BC Sans, Normal';fill:#000000;stroke-width:0.607771;stroke-linecap:round;stroke-linejoin:round"
       d="m 58.290496,225.23585 c -0.710571,0 -1.347313,0.12282 -1.900153,0.37621 -0.551543,0.25293 -0.998674,0.62326 -1.320839,1.10742 -0.326016,0.48996 -0.487312,1.07825 -0.487312,1.72652 0,0.93857 0.251045,1.7267 0.768939,2.30115 0.502503,0.55741 1.232573,1.0049 2.175589,1.36528 0.631107,0.25157 1.126693,0.48302 1.4769,0.68421 0.340608,0.19573 0.557192,0.39946 0.668707,0.58911 0.115538,0.19664 0.17827,0.44649 0.17827,0.77307 0,0.48159 -0.151283,0.80965 -0.496084,1.08677 -0.336615,0.27054 -0.868473,0.42943 -1.618513,0.42943 -0.546579,0 -1.077653,-0.0663 -1.593693,-0.19845 -0.516867,-0.13479 -0.944199,-0.28193 -1.281584,-0.44131 -0.194274,-0.0922 -0.413668,0.0581 -0.414951,0.28422 v 1.37149 c 0.001,0.12069 0.06718,0.23006 0.170011,0.28112 0.371475,0.18577 0.818193,0.32477 1.345658,0.42375 0.528564,0.0992 1.099391,0.14783 1.713068,0.14783 1.21239,0 2.211577,-0.2945 2.964155,-0.90899 0.75623,-0.61746 1.150841,-1.51909 1.150841,-2.60295 0,-0.63467 -0.124809,-1.18889 -0.387579,-1.64072 l -0.0029,-0.003 c -0.248207,-0.44221 -0.617172,-0.81083 -1.089336,-1.10742 -0.450939,-0.30009 -0.995179,-0.57211 -1.635557,-0.82062 v -5.2e-4 -5.1e-4 -5.3e-4 -5.2e-4 -5.1e-4 -5.2e-4 c -0.569544,-0.2192 -1.016846,-0.42431 -1.33429,-0.61288 -0.307601,-0.1934 -0.511489,-0.39911 -0.626842,-0.59531 -0.114539,-0.19496 -0.180866,-0.4491 -0.180866,-0.78755 0,-0.42316 0.124096,-0.70842 0.401016,-0.95084 0.0014,-0.002 0.0043,-0.005 0.0057,-0.006 0.26665,-0.24177 0.694068,-0.38499 1.32034,-0.38499 0.435691,0 0.860684,0.0553 1.276406,0.16587 0.42545,0.11311 0.813999,0.24915 1.16686,0.41135 0.15549,0.0711 0.335173,-0.0106 0.393256,-0.18035 l 0.420643,-1.22318 c 0.05292,-0.15533 -0.01669,-0.32763 -0.159157,-0.39379 -0.428617,-0.20002 -0.895475,-0.362 -1.400959,-0.48265 -0.513358,-0.12251 -1.068453,-0.18087 -1.66604,-0.18087 z"
       sodipodi:nodetypes="ccssscscssscccccssssccccccccccccsccssccccscc" />
    <path
       id="path18939"
       style="color:#000000;-inkscape-font-specification:'BC Sans, Normal';fill:#000000;stroke-width:0.607771;stroke-linecap:round;stroke-linejoin:round"
       d="m 63.650376,225.39295 c -0.163222,-1.7e-4 -0.29552,0.14071 -0.295078,0.3142 v 11.36571 c 0.0012,0.17231 0.13294,0.31127 0.295078,0.31109 h 1.345643 c 0.162095,1.8e-4 0.293908,-0.13874 0.295078,-0.31109 v -4.11344 h 0.933274 c 0.830516,0 1.535596,-0.10249 2.117706,-0.31988 0.578559,-0.21247 1.056114,-0.49543 1.423168,-0.86197 9.56e-4,-0.001 0.0014,-0.002 0.0029,-0.003 0.357938,-0.36896 0.621578,-0.79319 0.777212,-1.26452 v -0.003 c 0.160754,-0.46814 0.242372,-0.95578 0.242372,-1.45728 0,-1.1279 -0.355628,-2.05894 -1.061435,-2.70371 -0.719415,-0.65717 -1.809206,-0.95343 -3.245283,-0.95343 z m 1.640721,1.85416 h 1.070221 c 0.902764,0 1.526838,0.17859 1.885676,0.47335 v 0.003 c 0.372674,0.29932 0.557591,0.72502 0.557591,1.38906 0,0.77215 -0.20714,1.23556 -0.615988,1.52238 -9.55e-4,0.001 -0.0014,0.002 -0.0029,0.003 -0.409774,0.29333 -1.115353,0.47128 -2.112015,0.47128 h -0.782904 z"
       sodipodi:nodetypes="cccccccscscccsscccsccsccscc" />
    <path
       id="path18945"
       style="color:#000000;-inkscape-font-specification:'BC Sans, Normal';fill:#000000;stroke-width:0.607771;stroke-linecap:round;stroke-linejoin:round"
       d="m 74.685354,225.34542 c -0.122383,-2.5e-4 -0.232258,0.0799 -0.275949,0.20154 l -4.175975,11.41015 c -0.07474,0.2046 0.06633,0.42543 0.272855,0.42684 h 1.362703 c 0.121528,5.3e-4 0.230876,-0.0782 0.275436,-0.19843 l 1.200965,-3.31712 h 3.833355 l 1.214915,3.31712 c 0.04422,0.11918 0.152282,0.19784 0.272855,0.19843 h 1.393199 c 0.207583,5e-4 0.350621,-0.22116 0.275422,-0.42684 l -4.162011,-11.41015 c -0.04365,-0.12161 -0.153522,-0.20179 -0.275949,-0.20154 z m 0.599456,2.8975 c 0.03666,0.12888 0.07218,0.25651 0.102842,0.37827 0.0029,0.008 0.0057,0.0156 0.0086,0.0232 0.05035,0.1498 0.08516,0.25116 0.108975,0.31419 l 1.047485,3.0086 h -2.532658 l 1.06142,-3.0148 c 9.7e-4,-0.002 0.0014,-0.005 0.0029,-0.006 0.05962,-0.17953 0.125808,-0.41944 0.200508,-0.70383 z"
       sodipodi:nodetypes="ccccccccccccccccccccccccc" />
    <path
       id="path18951"
       style="color:#000000;-inkscape-font-specification:'BC Sans, Normal';fill:#000000;stroke-width:0.607771;stroke-linecap:round;stroke-linejoin:round"
       d="m 85.823689,225.23585 c -1.139987,0 -2.131428,0.26049 -2.9533,0.79376 -0.814641,0.51828 -1.441896,1.25299 -1.863452,2.18281 v 0.003 c -0.410844,0.91826 -0.613406,1.97583 -0.613406,3.1595 0,1.22199 0.184162,2.30031 0.562755,3.22823 9.41e-4,0.001 0.0014,0.002 0.0029,0.003 0.390631,0.93147 0.981943,1.66638 1.76061,2.17661 0.784458,0.51404 1.752364,0.76069 2.880967,0.76069 0.600597,0 1.118791,-0.037 1.560116,-0.11523 0.447858,-0.0775 0.880426,-0.19784 1.298102,-0.36431 0.116251,-0.0459 0.193162,-0.16423 0.192235,-0.29611 v -1.24076 c -7.14e-4,-0.20909 -0.190224,-0.35879 -0.378779,-0.2992 -0.400174,0.12448 -0.804941,0.22806 -1.214914,0.31109 -0.399804,0.081 -0.819862,0.12145 -1.261943,0.12145 -1.164749,0 -1.978733,-0.3686 -2.537822,-1.10484 v -0.003 c -0.557876,-0.75941 -0.852668,-1.80045 -0.852668,-3.1626 0,-1.36924 0.316502,-2.40252 0.919325,-3.15122 0.130371,-0.13798 0.672556,-0.6358 1.362189,-0.95654 0.698089,-0.32469 1.514741,-0.47539 2.295991,-0.0121 0.0194,0.0106 0.0398,0.0203 0.06105,0.0268 0.397949,0.12388 0.755203,0.2625 1.069694,0.41444 0.14629,0.0703 0.318584,0.003 0.387579,-0.15087 l 0.540531,-1.21129 c 0.06718,-0.15318 0.0086,-0.3354 -0.133796,-0.41186 -0.885775,-0.4708 -1.91958,-0.70178 -3.084058,-0.70178 z"
       sodipodi:nodetypes="ccccsccsscccccssccscscccccccc" />
    <path
       id="path18957"
       style="color:#000000;-inkscape-font-specification:'BC Sans, Normal';fill:#000000;stroke-width:0.607771;stroke-linecap:round;stroke-linejoin:round"
       d="m 89.837925,225.39295 c -0.163222,-1.7e-4 -0.29552,0.14071 -0.295077,0.3142 v 0.82888 c -1.57e-4,0.1448 0.093,0.2708 0.225312,0.3049 l 1.030939,0.26097 v 8.5881 l -1.027843,0.24856 c -0.133511,0.0327 -0.228237,0.15917 -0.228408,0.3049 v 0.8294 c 0.0012,0.17231 0.132939,0.31127 0.295077,0.31109 h 3.861256 c 0.162295,4.9e-4 0.294422,-0.13858 0.295591,-0.31109 v -0.8294 c -1.71e-4,-0.14571 -0.09485,-0.27209 -0.228408,-0.3049 L 92.738007,235.69 v -8.5881 l 1.030939,-0.26097 c 0.132513,-0.0338 0.225942,-0.15997 0.225826,-0.3049 v -0.82888 c 4.57e-4,-0.17372 -0.132226,-0.31467 -0.295591,-0.3142 z"
       sodipodi:nodetypes="ccccccccccccccccccccc" />
    <path
       id="path18963"
       style="color:#000000;-inkscape-font-specification:'BC Sans, Normal';fill:#000000;stroke-width:0.607771;stroke-linecap:round;stroke-linejoin:round"
       d="m 95.766237,225.39295 c -0.163222,-1.7e-4 -0.295506,0.14071 -0.295064,0.3142 v 11.36571 c 0.0012,0.17231 0.13294,0.31127 0.295064,0.31109 h 1.242814 c 0.162096,1.8e-4 0.293908,-0.13874 0.295078,-0.31109 v -6.35207 c 0,-0.58928 -0.01426,-1.16273 -0.0445,-1.72081 -0.0071,-0.12145 -0.01,-0.19222 -0.01655,-0.3049 l 5.179011,8.54677 c 0.0546,0.089 0.14805,0.14252 0.24805,0.14207 h 1.57096 c 0.16229,4.9e-4 0.29442,-0.13858 0.29559,-0.31109 V 225.7066 c 1.8e-4,-0.17352 -0.13237,-0.31415 -0.29559,-0.31368 h -1.25625 c -0.16304,-1.7e-4 -0.29524,0.1404 -0.29507,0.31368 v 6.4146 c 0,0.25897 0.004,0.53789 0.0143,0.83819 0.01,0.29722 0.0205,0.58981 0.0305,0.87642 0.003,0.0833 0.006,0.15163 0.009,0.231 l -5.171157,-8.52868 c -0.05406,-0.0904 -0.147803,-0.1451 -0.248563,-0.14526 z"
       sodipodi:nodetypes="ccccccsccccccccccscscccc" />
    <path
       id="path18969"
       style="color:#000000;-inkscape-font-specification:'BC Sans, Normal';fill:#000000;stroke-width:0.607771;stroke-linecap:round;stroke-linejoin:round"
       d="m 112.14767,225.23585 c -1.2055,0 -2.25477,0.25252 -3.13418,0.76998 -0.87606,0.5049 -1.5578,1.23271 -2.02261,2.16473 -0.4546,0.92159 -0.67954,2.00119 -0.67954,3.21944 0,1.23506 0.20169,2.32125 0.61287,3.25149 9.3e-4,0.002 0.001,0.005 0.003,0.006 0.42223,0.92004 1.04335,1.64513 1.85002,2.15284 9.6e-4,2e-5 10e-4,2e-5 0.003,0 0.81247,0.50005 1.80016,0.74311 2.94711,0.74311 0.76042,0 1.44315,-0.0461 2.05051,-0.14465 0.60524,-0.0981 1.20591,-0.25256 1.79989,-0.4594 0.12139,-0.0423 0.20346,-0.16285 0.20309,-0.29869 v -5.57073 c -10e-4,-0.17229 -0.13294,-0.31127 -0.29508,-0.31109 h -3.69692 c -0.16229,-4.7e-4 -0.29442,0.13859 -0.29559,0.31109 v 1.27331 c -4.4e-4,0.17374 0.13208,0.31469 0.29559,0.3142 h 2.0562 v 2.80448 c -0.20457,0.0494 -0.40983,0.10037 -0.64956,0.13904 -0.3089,0.0497 -0.69473,0.0738 -1.15343,0.0738 -0.92142,0 -1.63905,-0.18448 -2.16731,-0.52711 -0.53794,-0.35956 -0.92409,-0.84211 -1.18133,-1.47484 -0.25269,-0.6567 -0.38446,-1.41435 -0.38446,-2.28307 0,-1.35547 0.3351,-2.37911 0.9865,-3.13004 0.65965,-0.75966 1.5598,-1.14049 2.77761,-1.14049 0.48406,0 0.94479,0.0656 1.38751,0.19585 l 0.009,0.003 c 0.46697,0.12403 0.88267,0.26711 1.2454,0.42943 0.14847,0.0666 0.31971,-0.006 0.38447,-0.16278 l 0.50953,-1.24385 c 0.0643,-0.15849 -0.004,-0.34242 -0.15296,-0.41134 -0.47896,-0.22135 -0.99826,-0.39198 -1.55443,-0.51263 h -0.003 c -0.54994,-0.12115 -1.13326,-0.18036 -1.74924,-0.18036 z"
       sodipodi:nodetypes="cccsscccscsccccccccccsccscscccccccccc" />
    <path
       id="path2030"
       style="color:#000000;-inkscape-font-specification:'BC Sans, Normal';fill:#000000;stroke-width:0.637315;stroke-linecap:round;stroke-linejoin:round"
       d="m 148.13333,225.462 c -0.768,5e-5 -1.45505,0.12255 -2.05259,0.38034 -0.59632,0.25723 -1.07952,0.63775 -1.42782,1.13016 -0.35248,0.49831 -0.52813,1.09558 -0.52813,1.75493 0,0.95459 0.27207,1.75463 0.83199,2.33888 0.54461,0.56829 1.33378,1.02515 2.35696,1.39216 0.68015,0.25521 1.21183,0.48931 1.58957,0.6935 0.36823,0.19903 0.60548,0.40552 0.72605,0.59841 0.12504,0.19998 0.19172,0.45589 0.19172,0.78807 0,0.48979 -0.16415,0.82401 -0.53692,1.10587 -0.36393,0.27516 -0.93836,0.43667 -1.74924,0.43667 -0.58991,0 -1.16275,-0.0666 -1.7198,-0.20051 h -0.003 c -0.55736,-0.13684 -1.02192,-0.28986 -1.38596,-0.45165 -0.21014,-0.0938 -0.44736,0.0593 -0.44855,0.28939 v 1.39216 c -2.1e-4,0.12363 0.0711,0.23622 0.18294,0.28887 0.40159,0.18895 0.88697,0.33036 1.45727,0.43098 0.57141,0.10082 1.18862,0.15038 1.85208,0.15038 1.31075,0 2.39288,-0.29849 3.20653,-0.92346 0.81757,-0.62799 1.23868,-1.54656 1.23868,-2.64893 0,-0.64556 -0.13194,-1.20958 -0.41599,-1.66915 l -0.003,-0.003 c -0.26731,-0.44805 -0.6633,-0.82288 -1.17098,-1.12396 l -0.006,-0.003 c -0.48793,-0.30573 -1.07655,-0.58145 -1.76992,-0.83458 -0.61571,-0.22293 -1.09908,-0.43348 -1.44228,-0.62528 -0.33263,-0.19672 -0.55379,-0.40504 -0.67852,-0.60462 -0.12399,-0.19829 -0.19482,-0.45828 -0.19482,-0.80253 0,-0.43037 0.13423,-0.72082 0.43357,-0.96738 0.002,-9.7e-4 0.004,-0.002 0.006,-0.003 0.28829,-0.2459 0.75074,-0.39533 1.42782,-0.39533 0.47103,0 0.93079,0.0587 1.38028,0.17105 0.45996,0.11499 0.88096,0.25414 1.26245,0.4191 0.16786,0.072 0.36178,-0.0115 0.42478,-0.18294 l 0.45424,-1.24798 c 0.0576,-0.15786 -0.0172,-0.33334 -0.17105,-0.40101 -0.46337,-0.20342 -0.96968,-0.36411 -1.51619,-0.48679 -0.55488,-0.12458 -1.15608,-0.18549 -1.80195,-0.18552 z"
       sodipodi:nodetypes="csssscsssssccccccsssscccccccsccssccccscc" />
    <path
       id="path2024"
       style="color:#000000;-inkscape-font-specification:'BC Sans, Normal';fill:#000000;stroke-width:0.637315;stroke-linecap:round;stroke-linejoin:round"
       d="m 153.92987,225.62426 c -0.17592,-8e-5 -0.31864,0.14241 -0.31884,0.31833 v 11.55691 c -9e-5,0.17613 0.14271,0.31894 0.31884,0.31885 h 1.45676 c 0.17613,9e-5 0.31894,-0.14271 0.31885,-0.31885 v -4.18269 h 1.00872 c 0.89906,0 1.65894,-0.1024 2.28875,-0.32401 0.62551,-0.21608 1.14001,-0.50364 1.53686,-0.87643 0.002,-0.002 0.004,-0.004 0.006,-0.006 0.38759,-0.37585 0.66957,-0.80897 0.83767,-1.28933 0.17317,-0.47533 0.26252,-0.97145 0.26252,-1.48053 0,-1.14717 -0.38414,-2.09341 -1.14722,-2.74919 -0.77778,-0.66841 -1.9578,-0.96738 -3.51038,-0.96738 z m 1.77561,1.88206 h 1.15341 c 0.97603,0 1.65015,0.1839 2.03812,0.48369 0.001,0.001 0.002,0.002 0.003,0.003 0.40291,0.30441 0.60152,0.73747 0.60152,1.41283 0,0.78533 -0.22461,1.25649 -0.66663,1.54823 -0.44301,0.29834 -1.20554,0.48111 -2.28306,0.48111 h -0.84646 z"
       sodipodi:nodetypes="cccccccscsccsscccsccscscc" />
    <path
       id="path2018"
       style="color:#000000;-inkscape-font-specification:'BC Sans, Normal';fill:#000000;stroke-width:0.637315;stroke-linecap:round;stroke-linejoin:round"
       d="m 163.72256,225.62426 c -0.17572,2e-4 -0.31813,0.14261 -0.31833,0.31833 v 11.55691 c -9e-5,0.17593 0.1424,0.31866 0.31833,0.31885 h 3.22099 c 1.95428,0 3.52461,-0.51074 4.65191,-1.55753 1.1447,-1.06378 1.70481,-2.64307 1.70481,-4.6545 2e-5,-1.27033 -0.23859,-2.36051 -0.73432,-3.25974 -0.49291,-0.89412 -1.21092,-1.5822 -2.12701,-2.04071 h -0.003 c -0.90375,-0.45704 -1.95993,-0.68161 -3.1533,-0.68161 z m 1.7756,1.88206 h 1.57562 c 1.33697,0 2.31501,0.34139 2.99981,0.99683 0.001,0.001 0.002,0.002 0.003,0.003 0.68216,0.63413 1.05006,1.65969 1.05006,3.15019 0,1.47821 -0.37298,2.52907 -1.07952,3.22099 -0.70653,0.69192 -1.78466,1.05885 -3.29747,1.05885 h -1.25098 z"
       sodipodi:nodetypes="ccccscssccsccsscssscc" />
  </g>
</svg>
