<?xml version="1.0" encoding="UTF-8" standalone="no"?>
<svg
   width="1000"
   height="1000"
   viewBox="0 0 264.58333 264.58333"
   version="1.1"
   id="svg5"
   inkscape:version="1.2 (dc2aedaf03, 2022-05-15)"
   sodipodi:docname="X_U.svg"
   xmlns:inkscape="http://www.inkscape.org/namespaces/inkscape"
   xmlns:sodipodi="http://sodipodi.sourceforge.net/DTD/sodipodi-0.dtd"
   xmlns="http://www.w3.org/2000/svg"
   xmlns:svg="http://www.w3.org/2000/svg">
  <sodipodi:namedview
     id="namedview7"
     pagecolor="#ffffff"
     bordercolor="#000000"
     borderopacity="0.25"
     inkscape:showpageshadow="2"
     inkscape:pageopacity="0.0"
     inkscape:pagecheckerboard="0"
     inkscape:deskcolor="#d1d1d1"
     inkscape:document-units="px"
     showgrid="true"
     showguides="true"
     inkscape:zoom="0.914906"
     inkscape:cx="455.78453"
     inkscape:cy="729.03664"
     inkscape:window-width="3072"
     inkscape:window-height="1622"
     inkscape:window-x="-11"
     inkscape:window-y="-11"
     inkscape:window-maximized="1"
     inkscape:current-layer="layer1">
    <inkscape:grid
       type="xygrid"
       id="grid182"
       originx="0"
       originy="0" />
    <sodipodi:guide
       position="-99.999999,-535.41666"
       orientation="0,1"
       id="guide184"
       inkscape:locked="false"
       inkscape:label=""
       inkscape:color="rgb(0,134,229)" />
    <sodipodi:guide
       position="-99.999999,80.697916"
       orientation="0,1"
       id="guide186"
       inkscape:locked="false"
       inkscape:label=""
       inkscape:color="rgb(0,134,229)" />
    <sodipodi:guide
       position="500,-835.41666"
       orientation="-1,0"
       id="guide188"
       inkscape:locked="false"
       inkscape:label=""
       inkscape:color="rgb(0,134,229)" />
    <sodipodi:guide
       position="0,264.58333"
       orientation="0,3779.5276"
       id="guide1770"
       inkscape:locked="false" />
    <sodipodi:guide
       position="999.99999,264.58333"
       orientation="3779.5276,0"
       id="guide1772"
       inkscape:locked="false" />
    <sodipodi:guide
       position="999.99999,-735.41666"
       orientation="0,-3779.5276"
       id="guide1774"
       inkscape:locked="false" />
    <sodipodi:guide
       position="0,-735.41666"
       orientation="-3779.5276,0"
       id="guide1776"
       inkscape:locked="false" />
    <sodipodi:guide
       position="-99.999999,-462.91666"
       orientation="0,1"
       id="guide31317"
       inkscape:locked="false"
       inkscape:label="Wheel Top"
       inkscape:color="rgb(0,134,229)" />
    <sodipodi:guide
       position="296.33333,-525.41666"
       orientation="0,1"
       id="guide11678"
       inkscape:locked="false"
       inkscape:label="Middle Universal Line"
       inkscape:color="rgb(0,134,229)" />
    <sodipodi:guide
       position="0,264.58333"
       orientation="0,1000"
       id="guide15049"
       inkscape:locked="false" />
    <sodipodi:guide
       position="264.58333,264.58333"
       orientation="1000,0"
       id="guide15051"
       inkscape:locked="false" />
    <sodipodi:guide
       position="264.58333,0"
       orientation="0,-1000"
       id="guide15053"
       inkscape:locked="false" />
    <sodipodi:guide
       position="0,0"
       orientation="-1000,0"
       id="guide15055"
       inkscape:locked="false" />
  </sodipodi:namedview>
  <defs
     id="defs2" />
  <g
     inkscape:label="Layer 1"
     inkscape:groupmode="layer"
     id="layer1">
    <path
       style="color:#000000;fill:#000000;stroke-width:3.4469;stroke-linecap:round"
       d="m 172.96319,57.642731 c -22.36217,0 -40.71656,18.354321 -40.71656,40.716565 0,22.362244 18.35439,40.716564 40.71656,40.716564 22.36231,0 40.7166,-18.35436 40.7166,-40.716564 0,-22.36221 -18.35429,-40.716565 -40.7166,-40.716565 z m 0,6.89381 c 18.59388,0 33.82279,15.228943 33.82279,33.822755 0,18.593844 -15.22891,33.822754 -33.82279,33.822754 -18.59374,0 -33.82275,-15.22895 -33.82275,-33.822754 0,-18.593812 15.22901,-33.822755 33.82275,-33.822755 z m 0,10.434953 c -12.93675,0 -23.38777,10.450947 -23.38777,23.387802 0,12.936854 10.45102,23.387764 23.38777,23.387764 12.93689,0 23.38108,-10.45091 23.38108,-23.387764 0,-12.936855 -10.44419,-23.387802 -23.38108,-23.387802 z m 0,6.89381 c 9.28624,0 16.48727,7.207789 16.48727,16.493992 0,9.286204 -7.20103,16.493954 -16.48727,16.493954 -9.28603,0 -16.49396,-7.20779 -16.49396,-16.493954 0,-9.286169 7.20793,-16.493992 16.49396,-16.493992 z"
       id="path2031-7-2-6-5-0-3-3-3"
       sodipodi:nodetypes="ssssssssssssssssssss" />
    <path
       id="path12569"
       style="color:#000000;fill:#000000;stroke-width:6.89381;stroke-linecap:round;stroke-linejoin:round"
       d="m 86.790567,180.43859 c -1.903606,5e-5 -3.446771,1.54322 -3.446818,3.44682 -2.35e-4,1.90381 1.543013,3.44729 3.446818,3.44733 h 86.172523 c 1.9038,-5e-5 3.44704,-1.54352 3.44681,-3.44733 -5e-5,-1.9036 -1.54321,-3.44676 -3.44681,-3.44682 z"
       sodipodi:nodetypes="ccccccc" />
  </g>
</svg>
