<svg xmlns="http://www.w3.org/2000/svg" xmlns:xlink="http://www.w3.org/1999/xlink" width="210" height="64" viewBox="0 0 210 64">
  <defs>
    <clipPath id="clip-path">
      <rect id="Rectangle_3470" data-name="Rectangle 3470" width="85.808" height="64" fill="none"/>
    </clipPath>
    <clipPath id="clip-path-2">
      <rect id="Rectangle_3471" data-name="Rectangle 3471" width="113.093" height="45.754" fill="none"/>
    </clipPath>
  </defs>
  <g id="BC_Logo_MOTI" transform="translate(9229.67 8415)">
    <g id="Group_1697" data-name="Group 1697" transform="translate(-9229.67 -8415)">
      <rect id="Rectangle_3469" data-name="Rectangle 3469" width="0.672" height="63.837" transform="translate(85.135)" fill="#e3a82b"/>
      <g id="Group_1696" data-name="Group 1696">
        <g id="Group_1695" data-name="Group 1695" clip-path="url(#clip-path)">
          <path id="Path_1533" data-name="Path 1533" d="M21.788,96.089c0-1.159-.081-1.467-.862-1.529l-.543-.038c-.088-.07-.063-.385.017-.391.936-.084,2.115-.126,3.728-.126a7.231,7.231,0,0,1,2.913.438A2.051,2.051,0,0,1,28.36,96.4c0,1.127-.728,1.707-1.769,2.145,0,.158.139.205.33.236a2.686,2.686,0,0,1,2.324,2.616c0,1.818-1.491,3.04-4.613,3.04-.5,0-1.352-.046-2.08-.046-.763,0-1.352.032-1.994.046a.283.283,0,0,1-.035-.391l.312-.046c.919-.141.954-.314.954-1.959Zm1.422,2.083c0,.44.017.47.9.44,1.768-.065,2.722-.534,2.722-2.006,0-1.536-1.266-2.115-2.583-2.115a2.351,2.351,0,0,0-.8.094c-.173.047-.243.126-.243.408Zm0,3.635a2.822,2.822,0,0,0,.364,1.708,1.792,1.792,0,0,0,1.37.439c1.544,0,2.723-.626,2.723-2.192,0-1.238-.693-2.679-3.45-2.679-.937,0-1.006.094-1.006.407Z" transform="translate(-11.534 -53.217)" fill="#234075"/>
          <path id="Path_1534" data-name="Path 1534" d="M67.053,99.656c0-1.419-.029-1.646-.9-1.713l-.371-.026c-.089-.053-.059-.295.029-.335.741.026,1.244.04,1.866.04.593,0,1.1-.014,1.837-.04.089.04.119.281.03.335l-.37.026c-.874.068-.9.294-.9,1.713v4.764c0,1.418.029,1.607.9,1.7l.37.04c.089.053.059.294-.03.334-.741-.026-1.244-.04-1.837-.04-.622,0-1.125.013-1.866.04a.242.242,0,0,1-.029-.334l.371-.04c.873-.093.9-.281.9-1.7Z" transform="translate(-37.291 -55.242)" fill="#234075"/>
          <path id="Path_1535" data-name="Path 1535" d="M81.217,103.925c0,1.406.028,1.606.832,1.674l.445.04c.083.053.055.294-.028.334-.791-.026-1.262-.04-1.818-.04s-1.041.013-1.929.04a.228.228,0,0,1,0-.334l.5-.04c.791-.068.86-.268.86-1.674V97.943c0-.414,0-.427-.416-.427H78.9a2.922,2.922,0,0,0-1.707.335,2.431,2.431,0,0,0-.624.923.274.274,0,0,1-.361-.093,13.7,13.7,0,0,0,.527-1.994.365.365,0,0,1,.263,0c.083.428.541.415,1.18.415H83.8c.749,0,.874-.027,1.082-.375.069-.027.222-.013.25.041a7.859,7.859,0,0,0-.209,2.034c-.055.107-.291.107-.36.026-.041-.335-.138-.83-.347-.976a2.849,2.849,0,0,0-1.61-.335H81.62c-.416,0-.4.013-.4.455Z" transform="translate(-43.238 -54.72)" fill="#234075"/>
          <path id="Path_1536" data-name="Path 1536" d="M99.794,99.656c0-1.419-.029-1.646-.9-1.713l-.371-.026c-.089-.053-.059-.295.03-.335.74.026,1.244.04,1.866.04.592,0,1.1-.014,1.837-.04.089.04.118.281.029.335l-.37.026c-.874.068-.9.294-.9,1.713v4.764c0,1.418.03,1.607.9,1.7l.37.04c.089.053.059.294-.029.334-.741-.026-1.245-.04-1.837-.04-.623,0-1.126.013-1.866.04a.241.241,0,0,1-.03-.334l.371-.04c.873-.093.9-.281.9-1.7Z" transform="translate(-55.867 -55.242)" fill="#234075"/>
          <path id="Path_1537" data-name="Path 1537" d="M113.1,106.356a5.611,5.611,0,0,1-2.456-.5,5.4,5.4,0,0,1-.426-1.874c.078-.095.315-.121.379-.04a2.727,2.727,0,0,0,2.708,1.993c1.323,0,1.968-.735,1.968-1.538,0-.588-.141-1.245-1.291-1.873l-1.5-.83a2.859,2.859,0,0,1-1.7-2.3c0-1.271,1.165-2.3,3.212-2.3a7.054,7.054,0,0,1,1.464.175,2.467,2.467,0,0,0,.551.079,5.049,5.049,0,0,1,.284,1.633.354.354,0,0,1-.394.04,1.977,1.977,0,0,0-2.141-1.513c-1.543,0-1.873.87-1.873,1.486,0,.777.755,1.339,1.339,1.647l1.259.669a3.038,3.038,0,0,1,1.968,2.568c0,1.471-1.307,2.476-3.353,2.476" transform="translate(-62.533 -54.966)" fill="#234075"/>
          <path id="Path_1538" data-name="Path 1538" d="M131.039,102.132c-.689,0-.717.027-.717.428v1.887c0,1.406.072,1.593.875,1.674l.417.04c.086.053.058.294-.029.334-.775-.026-1.263-.04-1.824-.04-.618,0-1.105.026-1.666.04a.246.246,0,0,1-.029-.334l.244-.04c.8-.134.832-.268.832-1.674V99.63c0-1.406-.1-1.633-.847-1.687l-.373-.026c-.086-.053-.058-.295.029-.335.7.013,1.191.04,1.809.04.56,0,1.049-.014,1.665-.04.087.04.115.281.029.335l-.273.026c-.833.08-.861.281-.861,1.687v1.538c0,.415.029.428.717.428h4.106c.69,0,.719-.013.719-.428V99.63c0-1.406-.029-1.607-.876-1.687l-.273-.026c-.087-.053-.058-.295.028-.335.661.026,1.149.04,1.737.04.56,0,1.048-.014,1.694-.04.086.04.115.281.029.335l-.3.026c-.832.08-.861.281-.861,1.687v4.816c0,1.406.029,1.581.861,1.674l.345.04c.087.053.058.294-.028.334-.69-.026-1.178-.04-1.738-.04-.588,0-1.105.013-1.737.04a.246.246,0,0,1-.028-.334l.273-.04c.876-.134.876-.268.876-1.674V102.56c0-.4-.029-.428-.719-.428Z" transform="translate(-72.551 -55.242)" fill="#234075"/>
          <path id="Path_1539" data-name="Path 1539" d="M2.037,123.107A6.973,6.973,0,0,1,6.4,121.734a12.441,12.441,0,0,1,2.862.388,1.217,1.217,0,0,0,.452.065c.017.372.1,1.39.226,2.376a.342.342,0,0,1-.436.032c-.242-1.1-.97-2.36-3.314-2.36-2.474,0-4.575,1.567-4.575,4.912,0,3.392,2.15,5.267,4.8,5.267A3.448,3.448,0,0,0,9.8,130.1a.341.341,0,0,1,.421.065,6.063,6.063,0,0,1-.777,2.214,3.293,3.293,0,0,0-.566.162,9.545,9.545,0,0,1-2.554.371A7.077,7.077,0,0,1,2.3,131.831,5.2,5.2,0,0,1,0,127.389a5.368,5.368,0,0,1,2.038-4.282" transform="translate(0.001 -68.915)" fill="#234075"/>
          <path id="Path_1540" data-name="Path 1540" d="M25.146,130.781a4.74,4.74,0,0,1,4.988-4.724A4.508,4.508,0,0,1,35,130.647a4.679,4.679,0,0,1-4.861,4.67c-3.11,0-4.988-2.127-4.988-4.536m8.448.281c0-2.209-1.023-4.591-3.7-4.591-1.457,0-3.348.95-3.348,3.882,0,1.98,1.008,4.549,3.768,4.549,1.682,0,3.279-1.2,3.279-3.841" transform="translate(-14.267 -71.362)" fill="#234075"/>
          <path id="Path_1541" data-name="Path 1541" d="M73.807,129.856a9.15,9.15,0,0,0-.269-2.77.9.9,0,0,0-.707-.28l-.353-.027a.232.232,0,0,1,.028-.321c.537.027,1.06.041,1.612.041.594,0,.976-.013,1.485-.041a.223.223,0,0,1,.029.321l-.34.027a.842.842,0,0,0-.707.321,11.346,11.346,0,0,0-.2,2.73v1.513a4.488,4.488,0,0,1-.99,3.2,3.845,3.845,0,0,1-2.7.976,4.18,4.18,0,0,1-2.644-.735c-.75-.588-1.1-1.565-1.1-3.157v-3.159c0-1.392-.028-1.619-.848-1.686l-.353-.027c-.085-.053-.057-.28.028-.321.707.027,1.188.041,1.754.041s1.047-.013,1.74-.041c.085.041.113.269.028.321l-.34.027c-.82.067-.848.294-.848,1.686v2.891c0,2.155.707,3.574,2.871,3.574,2.051,0,2.829-1.526,2.829-3.56Z" transform="translate(-37.273 -71.588)" fill="#234075"/>
          <path id="Path_1542" data-name="Path 1542" d="M120.718,128.095c0-1-.063-1.257-.766-1.311l-.5-.049c-.057-.051-.087-.322.016-.33.844-.063,1.907-.108,3.361-.108a6.808,6.808,0,0,1,2.626.378,1.773,1.773,0,0,1,1.187,1.69c0,.974-.656,1.473-1.594,1.852,0,.135.125.176.3.2a2.362,2.362,0,0,1,2.095,2.258c0,1.568-1.344,2.621-4.159,2.621-.453,0-1.219-.04-1.875-.04-.687,0-1.219.028-1.8.04a.235.235,0,0,1-.031-.336l.282-.042c.828-.121.86-.27.86-1.689Zm1.282,1.8c0,.379.015.405.812.379,1.595-.054,2.455-.459,2.455-1.732,0-1.324-1.141-1.824-2.329-1.824a2.231,2.231,0,0,0-.72.081c-.156.041-.218.108-.218.351Zm0,3.137a2.347,2.347,0,0,0,.328,1.472,1.659,1.659,0,0,0,1.235.379c1.391,0,2.455-.541,2.455-1.892,0-1.068-.626-2.312-3.111-2.312-.844,0-.907.082-.907.351Z" transform="translate(-67.744 -71.498)" fill="#234075"/>
          <path id="Path_1543" data-name="Path 1543" d="M51.911,106.034,51.541,106c-.074-.008-.141-.017-.2-.027-.542-.1-.758-.581-1.014-1.03l-1.28-2.237c-.222-.373-.459-.875-.965-.946,1.312-.158,2.5-.918,2.5-2.223,0-1.506-1.487-2.179-2.989-2.179-.9,0-1.722.024-2.639.024-.506,0-1.108-.024-1.614-.024-.281,0-.284.057-.284.215,0,.233.1.167.4.184,1.068.061,1.027.261,1.027,1.178V104.8c0,.839.072,1.09-.806,1.168l-.211.022-.372.039a.24.24,0,0,0,.03.334l.549-.021c.487-.015.973-.052,1.46-.052s.957.038,1.438.052h0c.171.006.351.011.549.019a.243.243,0,0,0,.029-.335l-.374-.036-.208-.02c-.888-.06-.834-.311-.834-1.171v-2.208c0-.131-.016-.474.08-.574.079-.086.221-.071.347-.071,1.2,0,1.186.114,1.756,1.118l1.549,2.8c.127.215.222.488.538.488h1.345l.546.017a.241.241,0,0,0,.029-.334m-5.4-4.4c-.268,0-.807.1-.807-.258V98.812c0-1,.032-1.147,1.233-1.147,1.408,0,2.278.717,2.278,2.036a1.687,1.687,0,0,1-.727,1.463,3.255,3.255,0,0,1-1.977.473" transform="translate(-24.413 -55.116)" fill="#234075"/>
          <path id="Path_1544" data-name="Path 1544" d="M49.952,128.579c0-1.4-.029-1.618-.954-1.686l-.367-.027c-.087-.053-.058-.293.03-.335.822.027,1.321.041,1.908.041s1.071-.013,1.805-.04c.088.041.118.281.03.334l-.353.027c-.866.067-.9.282-.9,1.686v4.657c0,.843.044,1.191.308,1.445.161.148.44.308,1.6.308a4.156,4.156,0,0,0,1.791-.174,2.862,2.862,0,0,0,.968-1.326c.088-.066.367-.013.367.081a9.974,9.974,0,0,1-.616,1.874c-.748-.026-2.143-.04-3.655-.04h-1.35c-.616,0-1.086.014-1.908.04a.243.243,0,0,1-.03-.334l.441-.041c.851-.081.88-.268.88-1.673Z" transform="translate(-27.562 -71.63)" fill="#234075"/>
          <path id="Path_1545" data-name="Path 1545" d="M140.945,128.605c0-1.419-.029-1.646-.879-1.713l-.36-.027c-.087-.053-.058-.293.029-.335.721.027,1.211.041,1.816.041.576,0,1.066-.014,1.787-.04.087.04.115.28.029.334l-.36.027c-.85.067-.879.294-.879,1.713v4.764c0,1.418.029,1.606.879,1.7l.36.041c.087.053.058.294-.029.334-.721-.026-1.211-.04-1.787-.04-.606,0-1.1.013-1.816.04a.245.245,0,0,1-.029-.334l.36-.041c.851-.093.879-.281.879-1.7Z" transform="translate(-79.235 -71.63)" fill="#234075"/>
          <path id="Path_1546" data-name="Path 1546" d="M100.881,135.05l-.212-.02a.56.56,0,0,1-.4-.154c-.187-.2-.171-.767-.171-.994v-5.864c0-.255-.062-.808.124-1.007a.7.7,0,0,1,.462-.133c.105-.008.108-.008.2-.013l.37-.026c.089-.052.059-.295-.03-.335-.2.007-.377.005-.549.01H99.1c-.171,0-.327,0-.421.185l-3.208,6.7-2.834-6.474c-.094-.228-.109-.413-.405-.413H90.6c-.17,0-.359,0-.557-.01-.089.04-.119.282-.029.335l.37.026.215.016c.615.04.652.177.6.825l-.482,6.291c-.042.631-.077.965-.736,1.027l-.216.026-.37.04a.24.24,0,0,0,.03.334l.542-.017c.334-.016.674-.046,1.015-.046.367,0,.735.035,1.1.05h0l.549.018a.242.242,0,0,0,.029-.335l-.37-.04-.206-.018c-.952-.066-.931-.74-.872-1.564l.452-5.85h.109l3.068,7.2c.031.1.077.269.233.269.141,0,.187-.156.234-.256l3.457-7.384h.109v6.433c0,.255.031.781-.234.979a1.928,1.928,0,0,1-.588.165c-.062.01-.127.019-.2.026l-.37.041a.24.24,0,0,0,.03.334l.541-.019c.5-.013,1.012-.051,1.522-.051.367,0,1.086.036,1.086.036.171.005.366.024.564.03a.24.24,0,0,0,.029-.334Z" transform="translate(-50.686 -71.614)" fill="#234075"/>
          <path id="Path_1547" data-name="Path 1547" d="M159.493,134.928l-.05-.04c-.074-.009-.139-.019-.2-.028-.577-.129-.8-.827-1.015-1.322l-2.97-7.049c-.029-.085-.088-.267-.206-.267-.161,0-.206.2-.25.308l-2.837,7.036a4.7,4.7,0,0,1-.559,1.109.808.808,0,0,1-.541.2l-.236.023-.349.036a.241.241,0,0,0,.03.334l.549-.02c.388-.005.776-.054,1.165-.054.326,0,.653.035.98.049l.549.02a.242.242,0,0,0,.029-.335l-.37-.04-.2-.02c-.341-.037-.767-.1-.767-.475a2.329,2.329,0,0,1,.206-.772l.441-1.053c.22-.505.132-.562.72-.562h2c.7,0,.6,0,.911.717l.47,1.066a2.332,2.332,0,0,1,.205.688c0,.353-.384.376-.743.407,0,0-.119.011-.222.018l-.356.026a.241.241,0,0,0,.029.334l.549-.02c.418-.015.839-.047,1.243-.047.515,0,1.03.035,1.544.049.169,0,.026.011.222.018a.241.241,0,0,0,.029-.334m-3.889-3.313h-1.733c-.061,0-.542.057-.542-.085a.719.719,0,0,1,.046-.17l1.04-2.583c.03-.07.135-.425.256-.425.09,0,.211.368.241.425l1.024,2.413c0,.029.106.254.106.312,0,.157-.347.114-.437.114" transform="translate(-85.235 -71.455)" fill="#234075"/>
          <path id="Path_1548" data-name="Path 1548" d="M27.5,33.5c9.38,0,22.354,5.3,31.769,5.3,6.718,0,13.273-1.8,17.005-4.446a28.968,28.968,0,0,0,.4-4.781,28.544,28.544,0,1,0-57.088,0,28.943,28.943,0,0,0,.389,4.726,46.4,46.4,0,0,1,7.526-.8" transform="translate(-11.112 -0.536)" fill="#fff"/>
          <path id="Path_1549" data-name="Path 1549" d="M128.187,50l1.128.469,2.5-1.751Z" transform="translate(-72.73 -27.579)" fill="#e3a82b"/>
          <path id="Path_1550" data-name="Path 1550" d="M24.874,20.614l-2.967-1.047.148-.365L25.4,20.32l.015-.008.441-.25.176-.111L22.385,18.4l.154-.382,8.132,3.3.268-.112L22.874,17.26l.18-.371L31.6,20.878l.118-.06L23.431,16.1l.17-.354,11.966,6.53c.1-.181.3-.512.409-.69a106.894,106.894,0,0,0-8.94-7.512,106.444,106.444,0,0,0,10.087,5.853c.184-.231.335-.416.532-.635L27.447,10.283,27.721,10l8.239,7.043L28.327,9.377l.286-.3,8.57,8.307-7.977-8.88.305-.276,7.373,7.919-6.729-8.5.29-.264L39.07,17.91c.223-.194.408-.339.642-.518a106.892,106.892,0,0,0-5.459-10.27,106.74,106.74,0,0,0,7.125,9.167c.25-.141.5-.276.762-.4l-.043-.029-6.046-12.1.36-.159,5.009,9.625L37.205,3.247l.376-.167L42.425,14,38.344,2.77l.386-.141,3.879,10.112L39.546,2.327l.367-.136,4.033,12.916-.008.034.01,0c.268-.09.541-.17.815-.245A107.231,107.231,0,0,0,43.542,3.382a107.169,107.169,0,0,0,3.164,11.125c.283-.034.568-.064.855-.084l-.009-.013h.035l-.02-.03L46.482.89l.392-.012,1.049,10.806L47.742.851l.411-.014.411,11.946L48.976.837l.411.014-.18,10.833L50.255.878l.392.012L49.562,14.38l-.02.03h.006l0,0h.018c.281.018.559.046.836.079a106.994,106.994,0,0,0,3.16-11.111,107.332,107.332,0,0,0-1.221,11.483c.277.074.551.154.821.243L57.177,2.237l.368.136L54.481,12.787,58.36,2.675l.385.141-4.08,11.23L59.509,3.125l.376.167-4.214,9.976L60.68,3.644l.36.158L55.015,15.859l.01,0c.248.121.491.251.732.384a106.844,106.844,0,0,0,7.09-9.126,106.965,106.965,0,0,0-5.432,10.211c.232.176.46.358.681.546L66.621,7.466l.291.264-6.73,8.5,7.373-7.919.305.276-7.978,8.88,8.57-8.307.286.3L61.1,17.129l8.239-7.043.274.282L59.535,19.28l.006.006c.176.2.346.4.512.606a106.469,106.469,0,0,0,10.011-5.814,106.719,106.719,0,0,0-8.874,7.449c.124.208.324.562.439.776l11.8-6.442.171.355-9.417,5.356L73.973,17l.18.37L65.03,21.83l.176.061,9.282-3.765.154.382-8.629,3.681.161.067,5.75-1.922.867-.607.288.22,1.892-.633.149.364-1.637.578,2.366,1.81.758.423a28.9,28.9,0,0,0-56.386.675l.106-.051.347-.158.212-.1Z" transform="translate(-11.472 -0.15)" fill="#e3a82b"/>
          <path id="Path_1551" data-name="Path 1551" d="M19.214,60.666a47.455,47.455,0,0,1,7.824-.854c9.38,0,22.355,5.3,31.769,5.3,6.906,0,13.642-1.9,17.313-4.67a29.312,29.312,0,0,0-.357-11.815l-3.925-2.2-4.6,3.24-3.1-1.21c-1.049.531-7.519,4.87-7.519,4.87l-2.484-1.8-2.664-.53L47.917,48.4l-4.075,2.806s-4.546,2.648-4.7,2.648-5.485-4.237-5.485-4.237L31.2,47.024c-.418.265-2.088,1.034-2.088,1.034l-.086.023-1.616-.5-1.962-1.044-5.961,2.711-.106.051a29.276,29.276,0,0,0-.164,11.369" transform="translate(-10.63 -26.283)" fill="#234075"/>
        </g>
      </g>
    </g>
    <g id="Group_1699" data-name="Group 1699" transform="translate(-9132.763 -8396.974)">
      <g id="Group_1698" data-name="Group 1698" clip-path="url(#clip-path-2)">
        <path id="Path_1552" data-name="Path 1552" d="M6.742,8.617c.383.785.749,1.554,1.149,2.288h.033c.45-.785.866-1.654,1.283-2.505l1.565-3.191A9.793,9.793,0,0,0,12.038,2a12.489,12.489,0,0,0,1.249.05c.417,0,.966-.017,1.482-.05a.353.353,0,0,1,.017.418l-.35.033c-1.05.1-1.182.417-1.166,1.587.034,1.77.05,4.861.183,7.266.05.835.033,1.286.816,1.353l.533.051a.309.309,0,0,1-.034.417c-.683-.034-1.366-.05-1.965-.05-.583,0-1.332.016-2.016.05a.31.31,0,0,1-.033-.417l.483-.051c.816-.083.816-.35.816-1.419L12,4.274h-.033c-.117.184-.75,1.52-1.083,2.172L9.407,9.368c-.75,1.47-1.5,3.04-1.8,3.809a.193.193,0,0,1-.167.066.2.2,0,0,1-.15-.066c-.283-.886-1.082-2.523-1.465-3.341l-1.5-3.224c-.35-.769-.7-1.638-1.066-2.405H3.228c-.067,1.036-.117,2-.167,2.973-.05,1.019-.116,2.506-.116,3.925,0,1.236.1,1.5.749,1.553l.633.051c.117.1.1.367-.017.417-.566-.034-1.216-.05-1.849-.05-.533,0-1.133.016-1.7.05a.331.331,0,0,1-.033-.417l.366-.051c.7-.1.933-.2,1.033-1.369.1-1.1.183-2.021.283-3.675.083-1.386.15-2.806.183-3.725.033-1.052-.1-1.3-1.116-1.436L1.212,2.42A.313.313,0,0,1,1.279,2c.5.033.9.05,1.316.05.383,0,.833,0,1.382-.05a6.4,6.4,0,0,0,.866,2.756Z" transform="translate(-0.38 -1.133)" fill="#234075"/>
        <path id="Path_1553" data-name="Path 1553" d="M36.384,9.133c0-.652,0-.735-.45-1.036l-.15-.1a.229.229,0,0,1,.017-.3,11.426,11.426,0,0,0,1.715-.819.154.154,0,0,1,.167.1c-.034.585-.067,1.387-.067,2.071v3.007c0,1.2.033,1.369.633,1.453l.35.05a.293.293,0,0,1-.033.417c-.5-.033-.983-.05-1.566-.05-.6,0-1.1.016-1.566.05a.293.293,0,0,1-.033-.417l.35-.05c.616-.084.633-.251.633-1.453Zm1.382-4.761a.866.866,0,0,1-1.732.033.867.867,0,0,1,.9-.9.834.834,0,0,1,.833.869" transform="translate(-20.045 -1.984)" fill="#234075"/>
        <path id="Path_1554" data-name="Path 1554" d="M45.892,13.535c0-.652,0-.735-.449-1.036l-.15-.1a.229.229,0,0,1,.017-.3,9.1,9.1,0,0,0,1.666-.818.194.194,0,0,1,.183.117c-.033.384-.033.635-.033.785a.175.175,0,0,0,.183.184,4.56,4.56,0,0,1,2.332-.852,1.851,1.851,0,0,1,1.949,2.071v2.873c0,1.2.033,1.37.633,1.453l.366.05a.293.293,0,0,1-.034.417c-.5-.033-.983-.05-1.566-.05-.6,0-1.1.016-1.549.05a.293.293,0,0,1-.033-.417l.316-.05c.616-.1.633-.25.633-1.453V13.969a1.447,1.447,0,0,0-1.565-1.654,1.814,1.814,0,0,0-1.416.585,1.409,1.409,0,0,0-.25,1v2.556c0,1.2.033,1.353.632,1.453l.3.05a.293.293,0,0,1-.033.417c-.45-.033-.933-.05-1.515-.05-.6,0-1.1.016-1.566.05a.293.293,0,0,1-.033-.417l.35-.05c.616-.083.633-.25.633-1.453Z" transform="translate(-25.44 -6.386)" fill="#234075"/>
        <path id="Path_1555" data-name="Path 1555" d="M65.721,9.133c0-.652,0-.735-.449-1.036l-.15-.1a.229.229,0,0,1,.017-.3,11.427,11.427,0,0,0,1.715-.819.154.154,0,0,1,.167.1c-.034.585-.067,1.387-.067,2.071v3.007c0,1.2.033,1.369.633,1.453l.35.05a.293.293,0,0,1-.033.417c-.5-.033-.983-.05-1.566-.05-.6,0-1.1.016-1.566.05a.293.293,0,0,1-.033-.417l.35-.05c.616-.084.633-.251.633-1.453ZM67.1,4.373a.866.866,0,0,1-1.732.033.867.867,0,0,1,.9-.9.834.834,0,0,1,.833.869" transform="translate(-36.69 -1.984)" fill="#234075"/>
        <path id="Path_1556" data-name="Path 1556" d="M78.052,12.119a3.919,3.919,0,0,1,.266,1.354.289.289,0,0,1-.4.049A1.624,1.624,0,0,0,76.453,12.3a.986.986,0,0,0-1.066,1.019c0,.684.7,1.051,1.283,1.386.883.5,1.7,1.069,1.7,2.255,0,1.27-1.166,1.9-2.4,1.9a2.765,2.765,0,0,1-1.782-.5,4.981,4.981,0,0,1-.2-1.687.282.282,0,0,1,.383-.017c.283.919.816,1.721,1.766,1.721a1.027,1.027,0,0,0,1.116-1.069c0-.768-.666-1.186-1.282-1.537-.966-.551-1.649-1.135-1.649-2.055,0-1.219,1-1.9,2.265-1.9a2.943,2.943,0,0,1,1.466.3" transform="translate(-41.975 -6.691)" fill="#234075"/>
        <path id="Path_1557" data-name="Path 1557" d="M88.622,11.531c-.283,0-.3.05-.3.4v3.124c0,.968.116,1.854,1.216,1.854a1.274,1.274,0,0,0,.45-.084c.15-.05.366-.234.416-.234.133,0,.2.184.167.284a2.3,2.3,0,0,1-1.749.769c-1.432,0-1.732-.8-1.732-1.8V12.015c0-.451-.016-.484-.35-.484h-.466a.28.28,0,0,1-.05-.351,3.306,3.306,0,0,0,1.066-.518,4.145,4.145,0,0,0,.7-.985c.083-.034.283-.034.35.083v.752c0,.3.016.318.3.318h1.849a.535.535,0,0,1,.017.7Z" transform="translate(-48.899 -5.467)" fill="#234075"/>
        <path id="Path_1558" data-name="Path 1558" d="M98.758,13.535c0-.652,0-.735-.449-1.036l-.15-.1a.229.229,0,0,1,.017-.3,12.909,12.909,0,0,0,1.682-.818c.083.016.134.05.134.117v.969c0,.084.016.134.05.15a3.362,3.362,0,0,1,1.832-1,.691.691,0,0,1,.75.668.74.74,0,0,1-.716.768.638.638,0,0,1-.366-.117,1.365,1.365,0,0,0-.733-.267.737.737,0,0,0-.6.334,2.547,2.547,0,0,0-.216,1.286v2.272c0,1.2.033,1.4.666,1.453l.6.05a.292.292,0,0,1-.033.417c-.783-.033-1.265-.05-1.849-.05-.6,0-1.1.016-1.532.05a.292.292,0,0,1-.033-.417l.316-.05c.616-.1.633-.25.633-1.453Z" transform="translate(-55.453 -6.386)" fill="#234075"/>
        <path id="Path_1559" data-name="Path 1559" d="M109.839,22.315a.621.621,0,0,1,.666-.668h.316a.6.6,0,0,0,.55-.3,10.618,10.618,0,0,0,.966-1.854,2.514,2.514,0,0,0,.167-.719,3.18,3.18,0,0,0-.283-1.152l-1.3-3.575c-.283-.785-.4-1.186-.983-1.3l-.416-.084c-.1-.083-.084-.368.05-.417.533.033,1.033.05,1.582.05.45,0,.916-.017,1.449-.05.133.05.15.334.033.417l-.417.084c-.233.05-.366.1-.366.217a12.742,12.742,0,0,0,.483,1.57l.533,1.537a9.311,9.311,0,0,0,.483,1.186,8.221,8.221,0,0,0,.617-1.236l.566-1.319a7.787,7.787,0,0,0,.583-1.67c0-.117-.1-.234-.4-.284l-.516-.084c-.117-.083-.1-.368.033-.417.533.033,1.033.05,1.466.05.416,0,.8-.017,1.266-.05a.28.28,0,0,1,.033.417l-.284.05c-.549.1-.849.585-1.416,1.771l-.932,1.921c-.55,1.119-1.916,4.026-2.732,5.846a1.108,1.108,0,0,1-1.066.785.67.67,0,0,1-.733-.718" transform="translate(-62.104 -6.931)" fill="#234075"/>
        <path id="Path_1560" data-name="Path 1560" d="M143.408,15.276a3.407,3.407,0,0,1-3.514,3.592,3.3,3.3,0,0,1-3.414-3.441,3.505,3.505,0,0,1,3.548-3.608,3.332,3.332,0,0,1,3.381,3.457m-3.58-2.956c-1.1,0-1.916,1.052-1.916,2.89,0,1.52.683,3.157,2.148,3.157s1.916-1.537,1.916-2.823c0-1.42-.566-3.224-2.148-3.224" transform="translate(-77.435 -6.691)" fill="#234075"/>
        <path id="Path_1561" data-name="Path 1561" d="M157.2,6.063c-.283,0-.283.033-.283.484v3.525c0,1.2.033,1.4.633,1.453l.6.05a.293.293,0,0,1-.033.417c-.749-.033-1.233-.05-1.815-.05-.6,0-1.1.016-1.6.05a.293.293,0,0,1-.034-.417l.383-.05c.616-.083.633-.25.633-1.453V6.547c0-.451,0-.484-.333-.484h-.583a.234.234,0,0,1-.05-.318l.716-.351a.38.38,0,0,0,.25-.335,7.516,7.516,0,0,1,.516-2.94A3.278,3.278,0,0,1,159.2,0c.883,0,1.632.4,1.632,1a.639.639,0,0,1-.633.6.475.475,0,0,1-.4-.2,1.859,1.859,0,0,0-1.332-.735,1.284,1.284,0,0,0-1.183.919,8.889,8.889,0,0,0-.366,2.823v.484c0,.451,0,.468.283.468h1.9a.517.517,0,0,1-.117.7Z" transform="translate(-87.715 0.001)" fill="#234075"/>
        <path id="Path_1562" data-name="Path 1562" d="M6.013,48.42c0,1.754.033,2,1,2.087l.533.051c.1.066.067.367-.034.417-.95-.034-1.515-.05-2.182-.05s-1.249.016-2.315.05a.292.292,0,0,1,0-.417l.6-.051c.95-.083,1.032-.334,1.032-2.087V40.953c0-.518,0-.535-.5-.535H3.231a3.4,3.4,0,0,0-2.048.417,3.045,3.045,0,0,0-.749,1.153A.321.321,0,0,1,0,41.872a17.59,17.59,0,0,0,.633-2.489.419.419,0,0,1,.317,0c.1.535.65.518,1.416.518H9.11c.9,0,1.05-.033,1.3-.468.083-.033.266-.017.3.05a10.156,10.156,0,0,0-.249,2.539.313.313,0,0,1-.433.033c-.05-.418-.166-1.036-.417-1.22a3.311,3.311,0,0,0-1.932-.417H6.5c-.5,0-.483.017-.483.568Z" transform="translate(0 -22.277)" fill="#234075"/>
        <path id="Path_1563" data-name="Path 1563" d="M22.184,52.035c0-.652,0-.735-.45-1.036l-.15-.1a.229.229,0,0,1,.016-.3,12.878,12.878,0,0,0,1.682-.818c.084.016.134.05.134.117v.969c0,.084.017.134.05.15a3.364,3.364,0,0,1,1.832-1,.69.69,0,0,1,.749.668.739.739,0,0,1-.716.768.636.636,0,0,1-.366-.117,1.368,1.368,0,0,0-.734-.267.737.737,0,0,0-.6.334,2.547,2.547,0,0,0-.216,1.286v2.272c0,1.2.033,1.4.666,1.453l.6.05a.292.292,0,0,1-.033.417c-.782-.033-1.266-.05-1.849-.05-.6,0-1.1.016-1.532.05a.292.292,0,0,1-.033-.417l.316-.05c.616-.1.633-.25.633-1.453Z" transform="translate(-12.006 -28.181)" fill="#234075"/>
        <path id="Path_1564" data-name="Path 1564" d="M36.859,53.677c.25-.084.283-.234.283-.485l.016-.768c.016-.618-.183-1.454-1.216-1.454-.467,0-1.033.234-1.066.752-.016.267-.033.468-.167.568a1.789,1.789,0,0,1-.949.318.211.211,0,0,1-.233-.234c0-.869,1.882-2.055,3.1-2.055,1.2,0,1.782.7,1.732,1.954l-.1,2.907c-.033.768.117,1.453.766,1.453a.957.957,0,0,0,.416-.1c.083-.05.167-.117.216-.117.067,0,.117.1.117.217a1.746,1.746,0,0,1-1.4.735,1.328,1.328,0,0,1-1.083-.518c-.067-.1-.167-.234-.267-.234a2.566,2.566,0,0,0-.649.334,2.46,2.46,0,0,1-1.2.417,1.72,1.72,0,0,1-1.166-.384,1.565,1.565,0,0,1-.517-1.169c0-.652.317-1.035,1.383-1.42Zm-1.033,2.94a1.877,1.877,0,0,0,1.016-.418c.2-.2.2-.434.217-.784l.033-.986c0-.184-.067-.217-.167-.217a3.134,3.134,0,0,0-.683.167c-.983.334-1.466.585-1.466,1.236a1,1,0,0,0,1.049,1" transform="translate(-19.004 -28.486)" fill="#234075"/>
        <path id="Path_1565" data-name="Path 1565" d="M49.7,52.035c0-.652,0-.735-.45-1.036l-.15-.1a.229.229,0,0,1,.017-.3,9.1,9.1,0,0,0,1.666-.818.194.194,0,0,1,.183.117c-.033.384-.033.635-.033.785a.175.175,0,0,0,.183.184,4.56,4.56,0,0,1,2.332-.852A1.851,1.851,0,0,1,55.4,52.085v2.873c0,1.2.033,1.37.633,1.453l.366.05a.293.293,0,0,1-.034.417c-.5-.033-.982-.05-1.566-.05-.6,0-1.1.016-1.549.05a.293.293,0,0,1-.033-.417l.316-.05c.616-.1.633-.25.633-1.453V52.469A1.447,1.447,0,0,0,52.6,50.815a1.814,1.814,0,0,0-1.416.585,1.409,1.409,0,0,0-.25,1v2.556c0,1.2.033,1.353.633,1.453l.3.05a.293.293,0,0,1-.033.417c-.45-.033-.933-.05-1.515-.05-.6,0-1.1.016-1.566.05a.292.292,0,0,1-.033-.417l.35-.05c.616-.083.633-.25.633-1.453Z" transform="translate(-27.602 -28.181)" fill="#234075"/>
        <path id="Path_1566" data-name="Path 1566" d="M72.353,50.619a3.918,3.918,0,0,1,.266,1.353.289.289,0,0,1-.4.05A1.624,1.624,0,0,0,70.754,50.8a.986.986,0,0,0-1.066,1.019c0,.685.7,1.052,1.283,1.386.883.5,1.7,1.069,1.7,2.255,0,1.27-1.166,1.9-2.4,1.9a2.763,2.763,0,0,1-1.783-.5,4.966,4.966,0,0,1-.2-1.687.281.281,0,0,1,.382-.017c.283.919.816,1.721,1.766,1.721a1.027,1.027,0,0,0,1.116-1.069c0-.769-.666-1.186-1.281-1.537-.966-.551-1.65-1.136-1.65-2.055,0-1.219,1-1.9,2.265-1.9a2.943,2.943,0,0,1,1.466.3" transform="translate(-38.742 -28.486)" fill="#234075"/>
        <path id="Path_1567" data-name="Path 1567" d="M81.081,51.926c0-.652,0-.735-.45-1.036l-.149-.1a.228.228,0,0,1,.016-.3,10.056,10.056,0,0,0,1.649-.9.189.189,0,0,1,.2.117,7.471,7.471,0,0,0-.067.768c0,.117.033.217.15.217a5.285,5.285,0,0,1,2.331-.785,2.825,2.825,0,0,1,2.765,3.057,3.886,3.886,0,0,1-4.065,3.992,6.2,6.2,0,0,1-.915-.067c-.15.034-.234.117-.234.468v1.754c0,1.186.034,1.336.633,1.42l.65.083a.293.293,0,0,1-.033.418c-.8-.033-1.283-.05-1.866-.05-.6,0-1.1.016-1.565.05a.293.293,0,0,1-.033-.418l.35-.05c.615-.083.632-.25.632-1.453Zm1.233,3.107a1.079,1.079,0,0,0,.5,1,2.191,2.191,0,0,0,1.2.367c1.365,0,2.165-1.27,2.165-3.007a2.417,2.417,0,0,0-2.248-2.689,2.046,2.046,0,0,0-1.416.468c-.15.184-.2.434-.2.986Z" transform="translate(-45.405 -28.072)" fill="#234075"/>
        <path id="Path_1568" data-name="Path 1568" d="M106.6,53.776a3.407,3.407,0,0,1-3.514,3.592,3.3,3.3,0,0,1-3.414-3.441,3.505,3.505,0,0,1,3.548-3.608,3.332,3.332,0,0,1,3.381,3.457m-3.58-2.956c-1.1,0-1.916,1.052-1.916,2.89,0,1.52.683,3.157,2.148,3.157s1.916-1.537,1.916-2.823c0-1.42-.566-3.224-2.148-3.224" transform="translate(-56.553 -28.486)" fill="#234075"/>
        <path id="Path_1569" data-name="Path 1569" d="M119.086,52.035c0-.652,0-.735-.449-1.036l-.15-.1a.229.229,0,0,1,.017-.3,12.909,12.909,0,0,0,1.682-.818c.083.016.134.05.134.117v.969c0,.084.016.134.05.15a3.362,3.362,0,0,1,1.832-1,.691.691,0,0,1,.75.668.74.74,0,0,1-.716.768.638.638,0,0,1-.366-.117,1.365,1.365,0,0,0-.733-.267.737.737,0,0,0-.6.334,2.547,2.547,0,0,0-.216,1.286v2.272c0,1.2.033,1.4.666,1.453l.6.05a.292.292,0,0,1-.033.417c-.783-.033-1.265-.05-1.849-.05-.6,0-1.1.016-1.532.05a.292.292,0,0,1-.033-.417l.316-.05c.616-.1.633-.25.633-1.453Z" transform="translate(-66.986 -28.181)" fill="#234075"/>
        <path id="Path_1570" data-name="Path 1570" d="M133.089,50.031c-.283,0-.3.05-.3.4v3.124c0,.969.116,1.854,1.216,1.854a1.275,1.275,0,0,0,.45-.084c.15-.05.366-.234.416-.234.133,0,.2.184.167.284a2.3,2.3,0,0,1-1.749.769c-1.432,0-1.732-.8-1.732-1.8V50.515c0-.451-.016-.484-.35-.484h-.466a.28.28,0,0,1-.05-.351,3.306,3.306,0,0,0,1.066-.518,4.144,4.144,0,0,0,.7-.985c.083-.034.283-.034.35.083v.752c0,.3.016.318.3.318h1.849a.535.535,0,0,1,.017.7Z" transform="translate(-74.128 -27.262)" fill="#234075"/>
        <path id="Path_1571" data-name="Path 1571" d="M145.5,53.677c.25-.084.283-.234.283-.485l.017-.768c.016-.618-.183-1.454-1.216-1.454-.467,0-1.033.234-1.066.752-.017.267-.033.468-.167.568a1.79,1.79,0,0,1-.949.318.211.211,0,0,1-.233-.234c0-.869,1.882-2.055,3.1-2.055,1.2,0,1.782.7,1.732,1.954l-.1,2.907c-.033.768.117,1.453.767,1.453a.959.959,0,0,0,.416-.1c.083-.05.167-.117.217-.117.067,0,.116.1.116.217a1.748,1.748,0,0,1-1.4.735,1.327,1.327,0,0,1-1.082-.518c-.067-.1-.167-.234-.267-.234a2.559,2.559,0,0,0-.649.334,2.463,2.463,0,0,1-1.2.417,1.718,1.718,0,0,1-1.165-.384,1.565,1.565,0,0,1-.517-1.169c0-.652.317-1.035,1.383-1.42Zm-1.033,2.94a1.88,1.88,0,0,0,1.016-.418c.2-.2.2-.434.216-.784l.033-.986c0-.184-.067-.217-.167-.217a3.131,3.131,0,0,0-.683.167c-.983.334-1.466.585-1.466,1.236a1,1,0,0,0,1.05,1" transform="translate(-80.645 -28.486)" fill="#234075"/>
        <path id="Path_1572" data-name="Path 1572" d="M159.692,50.031c-.283,0-.3.05-.3.4v3.124c0,.969.116,1.854,1.216,1.854a1.274,1.274,0,0,0,.45-.084c.15-.05.366-.234.416-.234.133,0,.2.184.167.284a2.3,2.3,0,0,1-1.749.769c-1.432,0-1.732-.8-1.732-1.8V50.515c0-.451-.016-.484-.35-.484h-.466a.279.279,0,0,1-.05-.351,3.306,3.306,0,0,0,1.066-.518,4.144,4.144,0,0,0,.7-.985c.084-.034.283-.034.35.083v.752c0,.3.016.318.3.318h1.849a.536.536,0,0,1,.017.7Z" transform="translate(-89.222 -27.262)" fill="#234075"/>
        <path id="Path_1573" data-name="Path 1573" d="M169.783,47.633c0-.652,0-.735-.449-1.036l-.15-.1a.229.229,0,0,1,.017-.3,11.423,11.423,0,0,0,1.715-.819.154.154,0,0,1,.167.1c-.033.585-.067,1.387-.067,2.071v3.007c0,1.2.033,1.369.633,1.453l.35.05a.293.293,0,0,1-.033.417c-.5-.033-.983-.05-1.566-.05-.6,0-1.1.016-1.566.05a.293.293,0,0,1-.033-.417l.35-.05c.616-.084.633-.251.633-1.453Zm1.382-4.761a.866.866,0,0,1-1.732.033.867.867,0,0,1,.9-.9.833.833,0,0,1,.833.869" transform="translate(-95.732 -23.779)" fill="#234075"/>
        <path id="Path_1574" data-name="Path 1574" d="M185.179,53.776a3.407,3.407,0,0,1-3.514,3.592,3.3,3.3,0,0,1-3.414-3.441,3.505,3.505,0,0,1,3.548-3.608,3.332,3.332,0,0,1,3.381,3.457M181.6,50.82c-1.1,0-1.916,1.052-1.916,2.89,0,1.52.683,3.157,2.148,3.157s1.916-1.537,1.916-2.823c0-1.42-.566-3.224-2.148-3.224" transform="translate(-101.135 -28.486)" fill="#234075"/>
        <path id="Path_1575" data-name="Path 1575" d="M197.618,52.035c0-.652,0-.735-.449-1.036l-.15-.1a.229.229,0,0,1,.017-.3,9.1,9.1,0,0,0,1.666-.818.194.194,0,0,1,.183.117c-.033.384-.033.635-.033.785a.175.175,0,0,0,.183.184,4.56,4.56,0,0,1,2.332-.852,1.851,1.851,0,0,1,1.949,2.071v2.873c0,1.2.033,1.37.633,1.453l.366.05a.292.292,0,0,1-.034.417c-.5-.033-.982-.05-1.566-.05-.6,0-1.1.016-1.549.05a.293.293,0,0,1-.033-.417l.316-.05c.617-.1.633-.25.633-1.453V52.469a1.447,1.447,0,0,0-1.565-1.654,1.814,1.814,0,0,0-1.416.585,1.409,1.409,0,0,0-.25,1v2.556c0,1.2.033,1.353.633,1.453l.3.05a.293.293,0,0,1-.033.417c-.45-.033-.933-.05-1.516-.05-.6,0-1.1.016-1.566.05a.292.292,0,0,1-.033-.417l.35-.05c.616-.083.633-.25.633-1.453Z" transform="translate(-111.525 -28.181)" fill="#234075"/>
        <path id="Path_1576" data-name="Path 1576" d="M4.443,92.177c.25-.084.283-.234.283-.485l.017-.768c.016-.618-.183-1.454-1.216-1.454-.467,0-1.033.234-1.066.752-.017.267-.033.468-.167.568a1.787,1.787,0,0,1-.949.318.211.211,0,0,1-.233-.234c0-.869,1.882-2.055,3.1-2.055,1.2,0,1.782.7,1.732,1.954l-.1,2.907c-.033.768.116,1.453.766,1.453a.959.959,0,0,0,.416-.1c.083-.05.167-.117.216-.117.067,0,.117.1.117.217a1.748,1.748,0,0,1-1.4.735,1.327,1.327,0,0,1-1.082-.518c-.067-.1-.167-.234-.267-.234a2.565,2.565,0,0,0-.649.334,2.46,2.46,0,0,1-1.2.417,1.719,1.719,0,0,1-1.166-.384,1.565,1.565,0,0,1-.517-1.169c0-.652.317-1.035,1.383-1.42ZM3.41,95.117A1.877,1.877,0,0,0,4.426,94.7c.2-.2.2-.434.217-.784l.033-.986c0-.184-.067-.217-.167-.217a3.14,3.14,0,0,0-.683.167c-.982.334-1.466.585-1.466,1.236a1.006,1.006,0,0,0,1.05,1" transform="translate(-0.612 -50.281)" fill="#234075"/>
        <path id="Path_1577" data-name="Path 1577" d="M17.288,90.535c0-.652,0-.735-.45-1.036l-.15-.1a.229.229,0,0,1,.016-.3,9.09,9.09,0,0,0,1.666-.818.2.2,0,0,1,.183.117c-.033.384-.033.635-.033.785a.175.175,0,0,0,.183.184,4.559,4.559,0,0,1,2.332-.852,1.851,1.851,0,0,1,1.949,2.071v2.873c0,1.2.033,1.37.633,1.453l.366.05a.293.293,0,0,1-.033.417c-.5-.033-.982-.05-1.566-.05-.6,0-1.1.016-1.549.05a.293.293,0,0,1-.033-.417l.316-.05c.616-.1.633-.25.633-1.453V90.969a1.447,1.447,0,0,0-1.566-1.654,1.813,1.813,0,0,0-1.415.585,1.409,1.409,0,0,0-.25,1v2.556c0,1.2.033,1.353.633,1.453l.3.05a.293.293,0,0,1-.033.417c-.45-.033-.933-.05-1.516-.05-.6,0-1.1.016-1.565.05a.292.292,0,0,1-.033-.417l.35-.05c.616-.083.633-.25.633-1.453Z" transform="translate(-9.21 -49.976)" fill="#234075"/>
        <path id="Path_1578" data-name="Path 1578" d="M42.553,86.5c0,1.32.016,1.938.483,1.938a2.7,2.7,0,0,0,.716-.167c.117.034.134.452-.016.535a12.475,12.475,0,0,0-2.2.534c-.1,0-.183-.05-.183-.133v-.284a1.891,1.891,0,0,0-.033-.518h-.067a3.464,3.464,0,0,1-2.1.769,3.065,3.065,0,0,1-3.081-3.207,3.785,3.785,0,0,1,4.03-3.842,3.408,3.408,0,0,1,1.116.151c.083,0,.1-.1.1-.234V79.523c0-.986-.017-1.086-.516-1.387l-.167-.1a.256.256,0,0,1,0-.335,11.72,11.72,0,0,0,1.8-.7.183.183,0,0,1,.167.1c-.016.5-.05,1.336-.05,2.071ZM41.32,84a.978.978,0,0,0-.183-.651,1.734,1.734,0,0,0-1.4-.7c-1.516,0-2.3,1.319-2.3,2.773,0,1.52.85,2.957,2.482,2.957a2.033,2.033,0,0,0,1.282-.468,1.017,1.017,0,0,0,.117-.618Z" transform="translate(-20.467 -43.59)" fill="#234075"/>
        <path id="Path_1579" data-name="Path 1579" d="M66.148,81.59c0-1.771-.033-2.054-1.016-2.138l-.416-.033c-.1-.067-.067-.368.033-.418.833.033,1.4.05,2.1.05.666,0,1.233-.017,2.065-.05.1.05.133.351.034.418l-.417.033c-.983.084-1.016.368-1.016,2.138v5.946c0,1.771.033,2,1.016,2.121l.417.05c.1.066.067.368-.034.417-.832-.033-1.4-.05-2.065-.05-.7,0-1.265.016-2.1.05a.324.324,0,0,1-.033-.417l.416-.05c.982-.117,1.016-.351,1.016-2.121Z" transform="translate(-36.684 -44.723)" fill="#234075"/>
        <path id="Path_1580" data-name="Path 1580" d="M77.732,90.535c0-.652,0-.735-.449-1.036l-.15-.1a.229.229,0,0,1,.017-.3,9.1,9.1,0,0,0,1.666-.818A.194.194,0,0,1,79,88.4c-.033.384-.033.635-.033.785a.175.175,0,0,0,.183.184,4.56,4.56,0,0,1,2.332-.852,1.851,1.851,0,0,1,1.949,2.071v2.873c0,1.2.033,1.37.633,1.453l.366.05a.293.293,0,0,1-.034.417c-.5-.033-.983-.05-1.566-.05-.6,0-1.1.016-1.549.05a.293.293,0,0,1-.033-.417l.316-.05c.616-.1.633-.25.633-1.453V90.969a1.447,1.447,0,0,0-1.565-1.654,1.814,1.814,0,0,0-1.416.585,1.409,1.409,0,0,0-.25,1v2.556c0,1.2.033,1.353.632,1.453l.3.05a.293.293,0,0,1-.033.417c-.449-.033-.933-.05-1.515-.05-.6,0-1.1.016-1.566.05a.292.292,0,0,1-.033-.417l.35-.05c.617-.083.633-.25.633-1.453Z" transform="translate(-43.505 -49.976)" fill="#234075"/>
        <path id="Path_1581" data-name="Path 1581" d="M98.916,83.063c-.283,0-.283.033-.283.484v3.525c0,1.2.033,1.4.633,1.453l.6.05a.293.293,0,0,1-.033.417c-.749-.033-1.233-.05-1.815-.05-.6,0-1.1.016-1.6.05a.293.293,0,0,1-.034-.417l.383-.05c.616-.084.633-.25.633-1.453V83.547c0-.451,0-.484-.333-.484h-.583a.234.234,0,0,1-.05-.318l.716-.351a.38.38,0,0,0,.25-.335,7.516,7.516,0,0,1,.516-2.94,3.278,3.278,0,0,1,3-2.122c.883,0,1.632.4,1.632,1a.639.639,0,0,1-.633.6.476.476,0,0,1-.4-.2,1.859,1.859,0,0,0-1.332-.735A1.285,1.285,0,0,0,99,78.586a8.887,8.887,0,0,0-.366,2.823v.485c0,.451,0,.468.283.468h1.9a.517.517,0,0,1-.117.7Z" transform="translate(-54.645 -43.59)" fill="#234075"/>
        <path id="Path_1582" data-name="Path 1582" d="M108.383,90.535c0-.652,0-.735-.449-1.036l-.15-.1a.229.229,0,0,1,.017-.3,12.909,12.909,0,0,0,1.682-.818c.083.016.134.05.134.117v.969c0,.084.016.134.05.15a3.362,3.362,0,0,1,1.832-1,.691.691,0,0,1,.75.668.74.74,0,0,1-.716.768.637.637,0,0,1-.366-.117,1.365,1.365,0,0,0-.733-.267.737.737,0,0,0-.6.334,2.547,2.547,0,0,0-.216,1.286v2.272c0,1.2.033,1.4.666,1.453l.6.05a.292.292,0,0,1-.033.417c-.783-.033-1.265-.05-1.849-.05-.6,0-1.1.016-1.532.05a.292.292,0,0,1-.033-.417l.316-.05c.617-.1.633-.25.633-1.453Z" transform="translate(-60.914 -49.976)" fill="#234075"/>
        <path id="Path_1583" data-name="Path 1583" d="M123.059,92.177c.25-.084.283-.234.283-.485l.017-.768c.016-.618-.183-1.454-1.216-1.454-.467,0-1.033.234-1.066.752-.017.267-.033.468-.167.568a1.79,1.79,0,0,1-.949.318.211.211,0,0,1-.233-.234c0-.869,1.881-2.055,3.1-2.055,1.2,0,1.782.7,1.732,1.954l-.1,2.907c-.033.768.117,1.453.767,1.453a.959.959,0,0,0,.416-.1c.083-.05.167-.117.217-.117.067,0,.116.1.116.217a1.748,1.748,0,0,1-1.4.735,1.327,1.327,0,0,1-1.082-.518c-.067-.1-.167-.234-.267-.234a2.558,2.558,0,0,0-.649.334,2.463,2.463,0,0,1-1.2.417,1.718,1.718,0,0,1-1.165-.384,1.565,1.565,0,0,1-.517-1.169c0-.652.317-1.035,1.383-1.42Zm-1.033,2.94a1.88,1.88,0,0,0,1.016-.418c.2-.2.2-.434.216-.784l.033-.986c0-.184-.067-.217-.167-.217a3.136,3.136,0,0,0-.683.167c-.982.334-1.466.585-1.466,1.236a1.006,1.006,0,0,0,1.05,1" transform="translate(-67.911 -50.281)" fill="#234075"/>
        <path id="Path_1584" data-name="Path 1584" d="M138.726,89.119a3.919,3.919,0,0,1,.267,1.353.29.29,0,0,1-.4.05,1.624,1.624,0,0,0-1.465-1.219.986.986,0,0,0-1.066,1.019c0,.685.7,1.052,1.283,1.386.883.5,1.7,1.069,1.7,2.255,0,1.27-1.166,1.9-2.4,1.9a2.766,2.766,0,0,1-1.783-.5,4.981,4.981,0,0,1-.2-1.687.281.281,0,0,1,.382-.017c.283.919.817,1.721,1.766,1.721a1.027,1.027,0,0,0,1.115-1.069c0-.769-.666-1.186-1.281-1.537-.967-.551-1.649-1.136-1.649-2.055,0-1.219,1-1.9,2.265-1.9a2.941,2.941,0,0,1,1.466.3" transform="translate(-76.4 -50.281)" fill="#234075"/>
        <path id="Path_1585" data-name="Path 1585" d="M149.3,88.531c-.283,0-.3.05-.3.4v3.124c0,.968.116,1.854,1.216,1.854a1.275,1.275,0,0,0,.45-.083c.15-.05.366-.234.416-.234.133,0,.2.184.167.284a2.3,2.3,0,0,1-1.749.769c-1.432,0-1.732-.8-1.732-1.8V89.015c0-.451-.016-.484-.35-.484h-.467a.28.28,0,0,1-.05-.351,3.307,3.307,0,0,0,1.066-.518,4.146,4.146,0,0,0,.7-.985c.083-.034.283-.034.35.083v.751c0,.3.016.318.3.318h1.849a.536.536,0,0,1,.017.7Z" transform="translate(-83.325 -49.057)" fill="#234075"/>
        <path id="Path_1586" data-name="Path 1586" d="M159.433,90.535c0-.652,0-.735-.45-1.036l-.15-.1a.229.229,0,0,1,.017-.3,12.908,12.908,0,0,0,1.682-.818c.083.016.134.05.134.117v.969c0,.084.016.134.05.15a3.362,3.362,0,0,1,1.832-1,.691.691,0,0,1,.75.668.74.74,0,0,1-.716.768.64.64,0,0,1-.366-.117,1.363,1.363,0,0,0-.733-.267.737.737,0,0,0-.6.334,2.547,2.547,0,0,0-.216,1.286v2.272c0,1.2.033,1.4.665,1.453l.6.05a.292.292,0,0,1-.033.417c-.783-.033-1.265-.05-1.849-.05-.6,0-1.1.016-1.532.05a.292.292,0,0,1-.033-.417l.316-.05c.617-.1.633-.25.633-1.453Z" transform="translate(-89.878 -49.976)" fill="#234075"/>
        <path id="Path_1587" data-name="Path 1587" d="M173.205,93.179c0,1.152.283,1.921,1.549,1.921a2.174,2.174,0,0,0,1.349-.5,1.166,1.166,0,0,0,.334-.969V90.89c0-1.086-.117-1.119-.617-1.319l-.216-.084a.228.228,0,0,1,.016-.367,6.647,6.647,0,0,0,1.949-.3c.083.016.133.05.15.117-.033.317-.05.835-.05,1.453V93.2c0,1.32.05,1.821.517,1.821a3.134,3.134,0,0,0,.65-.083c.1.083.116.418-.017.485a8.635,8.635,0,0,0-2.182.618.23.23,0,0,1-.2-.117v-.685c0-.15-.05-.234-.15-.234a4.344,4.344,0,0,1-2.3.869c-1.466,0-2.016-.735-2.016-2.088V90.991c0-1.053,0-1.2-.5-1.42l-.2-.084a.249.249,0,0,1,.033-.367,5.883,5.883,0,0,0,1.782-.3c.1.016.15.05.167.117a12.636,12.636,0,0,0-.05,1.453Z" transform="translate(-97.139 -50.281)" fill="#234075"/>
        <path id="Path_1588" data-name="Path 1588" d="M195.93,89.1a.949.949,0,0,1,.25.668c0,.3-.167.618-.366.618a.291.291,0,0,1-.233-.117,2.268,2.268,0,0,0-1.665-.886,2.408,2.408,0,0,0-2.3,2.69,2.742,2.742,0,0,0,2.681,2.856,2.03,2.03,0,0,0,1.849-1,.263.263,0,0,1,.3.234,3.033,3.033,0,0,1-2.781,1.7,3.22,3.22,0,0,1-2.282-.852,3.331,3.331,0,0,1-.966-2.472,3.71,3.71,0,0,1,4.03-3.725,4.144,4.144,0,0,1,1.483.284" transform="translate(-108.038 -50.281)" fill="#234075"/>
        <path id="Path_1589" data-name="Path 1589" d="M207.778,88.531c-.283,0-.3.05-.3.4v3.124c0,.968.116,1.854,1.216,1.854a1.275,1.275,0,0,0,.45-.083c.15-.05.366-.234.416-.234.133,0,.2.184.167.284a2.3,2.3,0,0,1-1.749.769c-1.432,0-1.732-.8-1.732-1.8V89.015c0-.451-.016-.484-.35-.484h-.466a.279.279,0,0,1-.05-.351,3.307,3.307,0,0,0,1.066-.518,4.145,4.145,0,0,0,.7-.985c.083-.034.283-.034.35.083v.751c0,.3.016.318.3.318h1.849a.536.536,0,0,1,.017.7Z" transform="translate(-116.504 -49.057)" fill="#234075"/>
        <path id="Path_1590" data-name="Path 1590" d="M218.982,93.179c0,1.152.283,1.921,1.549,1.921a2.174,2.174,0,0,0,1.349-.5,1.166,1.166,0,0,0,.334-.969V90.89c0-1.086-.117-1.119-.617-1.319l-.216-.084a.227.227,0,0,1,.016-.367,6.648,6.648,0,0,0,1.949-.3c.083.016.133.05.15.117-.033.317-.05.835-.05,1.453V93.2c0,1.32.05,1.821.517,1.821a3.135,3.135,0,0,0,.65-.083c.1.083.116.418-.017.485a8.635,8.635,0,0,0-2.182.618.23.23,0,0,1-.2-.117v-.685c0-.15-.05-.234-.15-.234a4.344,4.344,0,0,1-2.3.869c-1.466,0-2.016-.735-2.016-2.088V90.991c0-1.053,0-1.2-.5-1.42l-.2-.084a.249.249,0,0,1,.033-.367,5.884,5.884,0,0,0,1.782-.3c.1.016.15.05.167.117a12.755,12.755,0,0,0-.05,1.453Z" transform="translate(-123.111 -50.281)" fill="#234075"/>
        <path id="Path_1591" data-name="Path 1591" d="M237.239,90.535c0-.652,0-.735-.45-1.036l-.15-.1a.229.229,0,0,1,.017-.3,12.911,12.911,0,0,0,1.682-.818c.083.016.134.05.134.117v.969c0,.084.016.134.05.15a3.362,3.362,0,0,1,1.832-1,.691.691,0,0,1,.75.668.74.74,0,0,1-.716.768.638.638,0,0,1-.366-.117,1.365,1.365,0,0,0-.733-.267.737.737,0,0,0-.6.334,2.547,2.547,0,0,0-.216,1.286v2.272c0,1.2.033,1.4.666,1.453l.6.05a.292.292,0,0,1-.033.417c-.783-.033-1.266-.05-1.849-.05-.6,0-1.1.016-1.532.05a.292.292,0,0,1-.033-.417l.316-.05c.617-.1.633-.25.633-1.453Z" transform="translate(-134.023 -49.976)" fill="#234075"/>
        <path id="Path_1592" data-name="Path 1592" d="M249.748,91.358c-.433,0-.45.033-.45.451a2.825,2.825,0,0,0,2.765,3.124,1.794,1.794,0,0,0,1.532-.818.22.22,0,0,1,.3.2,2.91,2.91,0,0,1-2.615,1.553,2.982,2.982,0,0,1-2.415-1.1,3.556,3.556,0,0,1-.7-2.172,3.5,3.5,0,0,1,3.348-3.775,2.184,2.184,0,0,1,2.365,1.988,1.039,1.039,0,0,1-.066.434c-.05.1-.283.117-.983.117Zm1.033-.5c1.233,0,1.6-.066,1.732-.167.05-.033.1-.1.1-.317,0-.468-.316-1.052-1.282-1.052a1.957,1.957,0,0,0-1.849,1.453c0,.033,0,.083.117.083Z" transform="translate(-140.803 -50.281)" fill="#234075"/>
      </g>
    </g>
  </g>
</svg>
