<svg id="onRouteBC_Logo" xmlns="http://www.w3.org/2000/svg" xmlns:xlink="http://www.w3.org/1999/xlink" width="249" height="64" viewBox="0 0 249 64">
  <defs>
    <clipPath id="clip-path">
      <rect id="Rectangle_3473" data-name="Rectangle 3473" width="249" height="64" fill="none"/>
    </clipPath>
  </defs>
  <rect id="Rectangle_3472" data-name="Rectangle 3472" width="0.749" height="63.295" transform="translate(84.67 0)" fill="#e3a82b"/>
  <g id="Group_1704" data-name="Group 1704" transform="translate(0 0)">
    <g id="Group_1703" data-name="Group 1703" transform="translate(0 0)" clip-path="url(#clip-path)">
      <path id="Path_1593" data-name="Path 1593" d="M71.978,22.121a28.812,28.812,0,0,0-56.072.8,27.66,27.66,0,0,0-.7,6.234,26.47,26.47,0,0,0,.527,5.177c.255-.055.36-.08.645-.137v-.005a37.806,37.806,0,0,1,10.3-.542,142.011,142.011,0,0,1,15.078,3c5.937,1.34,10.311,2.6,16.717,1.893,5.609-.622,9.45-1.494,13.188-3.952v0l.3-.2c.064-.046.317-.232.4-.291a28.5,28.5,0,0,0,.48-4.873,31.338,31.338,0,0,0-.861-7.1" transform="translate(-6.975 -0.154)" fill="#fff"/>
      <path id="Path_1594" data-name="Path 1594" d="M15.894,39.872a28.585,28.585,0,0,0-.684,6.159,26.469,26.469,0,0,0,.526,5.177c.256-.055.362-.08.646-.137v0a37.683,37.683,0,0,1,10.3-.54,141.3,141.3,0,0,1,15.078,2.995c5.936,1.34,10.311,2.6,16.717,1.893,5.608-.621,9.448-1.494,13.187-3.952v0s.3-.2.3-.2c.064-.041.319-.232.4-.291a28.609,28.609,0,0,0,.479-4.874,31.3,31.3,0,0,0-.794-6.813l-3.968-2.21-4.59,3.215-3.087-1.2c-1.047.528-7.5,4.837-7.5,4.837l-2.475-1.79-2.657-.525-3.54-2.578-4.063,2.786s-4.531,2.629-4.687,2.629-5.469-4.207-5.469-4.207L27.57,37.667c-.417.262-2.081,1.026-2.081,1.026l-.086.024-1.611-.5-1.956-1.033Z" transform="translate(-6.977 -17.033)" fill="#234075"/>
      <path id="Path_1595" data-name="Path 1595" d="M17.6,76.828c0-1.153-.069-1.449-.847-1.509l-.553-.048a.233.233,0,0,1,.018-.388c.932-.078,2.107-.123,3.713-.123a7.186,7.186,0,0,1,2.9.434,2.032,2.032,0,0,1,1.314,1.942c0,1.121-.725,1.693-1.762,2.129,0,.158.137.2.329.232a2.668,2.668,0,0,1,2.315,2.593c0,1.806-1.487,3.018-4.6,3.018-.5,0-1.348-.049-2.073-.049-.759,0-1.347.032-1.986.049a.28.28,0,0,1-.035-.388l.311-.047c.916-.141.95-.311.95-1.943Zm1.416,2.062c0,.436.016.469.9.436,1.762-.061,2.712-.529,2.712-1.987,0-1.524-1.261-2.1-2.573-2.1a2.424,2.424,0,0,0-.794.091c-.174.048-.242.129-.242.407Zm0,3.607a2.8,2.8,0,0,0,.362,1.7,1.794,1.794,0,0,0,1.365.434c1.538,0,2.711-.621,2.711-2.174,0-1.228-.691-2.658-3.437-2.658-.933,0-1,.092-1,.4Z" transform="translate(-7.39 -34.346)" fill="#234075"/>
      <path id="Path_1596" data-name="Path 1596" d="M53.649,79.665c0-1.407-.029-1.633-.9-1.7l-.369-.026c-.089-.055-.058-.292.03-.329.738.022,1.239.037,1.86.037.589,0,1.09-.015,1.829-.037.088.037.117.275.028.329l-.367.026c-.872.068-.9.294-.9,1.7v4.724c0,1.409.029,1.6.9,1.687l.367.042c.089.052.06.289-.028.33-.739-.027-1.24-.041-1.829-.041-.621,0-1.122.014-1.86.041a.236.236,0,0,1-.03-.33l.369-.042c.87-.092.9-.278.9-1.687Z" transform="translate(-24.004 -35.654)" fill="#234075"/>
      <path id="Path_1597" data-name="Path 1597" d="M65.662,84.078c0,1.4.028,1.593.829,1.66l.442.042c.083.051.057.289-.027.329-.788-.027-1.258-.04-1.812-.04s-1.035.013-1.92.04a.223.223,0,0,1,0-.329l.5-.042c.788-.066.857-.264.857-1.66V78.145c0-.411,0-.425-.415-.425h-.759a2.916,2.916,0,0,0-1.7.332,2.407,2.407,0,0,0-.622.917.281.281,0,0,1-.359-.092A13.424,13.424,0,0,0,61.2,76.9a.344.344,0,0,1,.262,0c.084.425.541.408,1.175.408h5.6c.748,0,.871-.025,1.079-.371.07-.026.221-.015.249.039a7.729,7.729,0,0,0-.207,2.019c-.055.108-.29.108-.36.025-.041-.33-.137-.822-.345-.967a2.866,2.866,0,0,0-1.6-.332h-.983c-.415,0-.4.014-.4.45Z" transform="translate(-27.832 -35.316)" fill="#234075"/>
      <path id="Path_1598" data-name="Path 1598" d="M79.717,79.665c0-1.407-.03-1.633-.9-1.7l-.368-.026c-.088-.055-.06-.292.029-.329.737.022,1.239.037,1.858.037.591,0,1.093-.015,1.83-.037.088.037.118.275.03.329l-.369.026c-.871.068-.9.294-.9,1.7v4.724c0,1.409.029,1.6.9,1.687l.369.042c.088.052.057.289-.03.33-.737-.027-1.239-.041-1.83-.041-.619,0-1.12.014-1.858.041a.237.237,0,0,1-.029-.33l.368-.042c.87-.092.9-.278.9-1.687Z" transform="translate(-35.962 -35.654)" fill="#234075"/>
      <path id="Path_1599" data-name="Path 1599" d="M90.618,86.4a5.592,5.592,0,0,1-2.445-.491,5.3,5.3,0,0,1-.423-1.857c.078-.094.313-.121.376-.041a2.712,2.712,0,0,0,2.7,1.975c1.319,0,1.961-.729,1.961-1.523,0-.585-.142-1.237-1.288-1.862l-1.489-.822A2.838,2.838,0,0,1,88.315,79.5c0-1.26,1.159-2.283,3.2-2.283a6.979,6.979,0,0,1,1.458.172,2.483,2.483,0,0,0,.549.078,4.989,4.989,0,0,1,.283,1.619.346.346,0,0,1-.392.042,1.967,1.967,0,0,0-2.133-1.5c-1.537,0-1.866.862-1.866,1.475,0,.769.752,1.327,1.333,1.633L92,81.4a3.015,3.015,0,0,1,1.961,2.545c0,1.462-1.3,2.458-3.342,2.458" transform="translate(-40.253 -35.475)" fill="#234075"/>
      <path id="Path_1600" data-name="Path 1600" d="M104.962,82.122c-.686,0-.716.024-.716.421v1.874c0,1.4.073,1.582.873,1.66l.416.042c.086.052.058.289-.03.33-.772-.027-1.258-.041-1.817-.041-.614,0-1.1.028-1.658.041a.241.241,0,0,1-.028-.33l.243-.042c.8-.135.83-.264.83-1.66v-4.78c0-1.392-.1-1.619-.844-1.672l-.372-.026c-.087-.055-.057-.293.028-.329.7.011,1.188.036,1.8.036.558,0,1.045-.014,1.66-.036.086.036.114.275.029.329l-.272.026c-.83.08-.859.28-.859,1.672v1.527c0,.411.029.427.716.427h4.091c.686,0,.714-.015.714-.427V79.636c0-1.392-.028-1.592-.871-1.672l-.272-.026c-.087-.055-.057-.293.029-.329.659.022,1.144.036,1.73.036.558,0,1.044-.014,1.688-.036.086.036.114.275.029.329l-.3.026c-.829.08-.858.28-.858,1.672v4.78c0,1.4.029,1.568.858,1.66l.343.042c.087.052.058.289-.028.33-.687-.027-1.173-.041-1.731-.041-.586,0-1.1.014-1.73.041a.241.241,0,0,1-.029-.33l.272-.042c.871-.135.871-.264.871-1.66V82.542c0-.4-.028-.421-.714-.421Z" transform="translate(-46.701 -35.654)" fill="#234075"/>
      <path id="Path_1601" data-name="Path 1601" d="M2.029,98.193a6.979,6.979,0,0,1,4.348-1.361,12.465,12.465,0,0,1,2.85.386,1.223,1.223,0,0,0,.451.064c.016.367.1,1.377.225,2.356a.345.345,0,0,1-.434.032c-.242-1.091-.966-2.341-3.3-2.341-2.464,0-4.556,1.554-4.556,4.872,0,3.366,2.141,5.224,4.782,5.224a3.432,3.432,0,0,0,3.365-2.292.343.343,0,0,1,.419.064,5.964,5.964,0,0,1-.773,2.194,3.377,3.377,0,0,0-.563.163,9.544,9.544,0,0,1-2.544.369,7.061,7.061,0,0,1-4.011-1.077A5.156,5.156,0,0,1,0,102.443a5.329,5.329,0,0,1,2.029-4.25" transform="translate(0 -44.486)" fill="#234075"/>
      <path id="Path_1602" data-name="Path 1602" d="M20.017,104.961a4.713,4.713,0,0,1,4.971-4.685,4.481,4.481,0,0,1,4.842,4.552,4.651,4.651,0,0,1-4.842,4.633c-3.1,0-4.971-2.11-4.971-4.5m8.416.28c0-2.19-1.019-4.555-3.683-4.555-1.452,0-3.336.944-3.336,3.854,0,1.962,1,4.513,3.754,4.513,1.674,0,3.265-1.2,3.265-3.812" transform="translate(-9.182 -46.068)" fill="#234075"/>
      <path id="Path_1603" data-name="Path 1603" d="M60.383,103.964a9.046,9.046,0,0,0-.267-2.747.888.888,0,0,0-.705-.278l-.353-.025a.235.235,0,0,1,.03-.322c.535.028,1.056.039,1.6.039.593,0,.973-.011,1.48-.039a.223.223,0,0,1,.027.322l-.338.025a.841.841,0,0,0-.7.317,11.193,11.193,0,0,0-.2,2.708v1.5a4.43,4.43,0,0,1-.987,3.171,3.835,3.835,0,0,1-2.691.969,4.163,4.163,0,0,1-2.635-.732c-.745-.581-1.1-1.551-1.1-3.127v-3.134c0-1.384-.029-1.6-.846-1.673l-.352-.025a.236.236,0,0,1,.029-.322c.7.028,1.183.039,1.747.039s1.042-.011,1.733-.039a.236.236,0,0,1,.028.322l-.338.025c-.817.069-.845.289-.845,1.673v2.867c0,2.137.7,3.542,2.86,3.542,2.043,0,2.817-1.512,2.817-3.529Z" transform="translate(-23.992 -46.213)" fill="#234075"/>
      <path id="Path_1604" data-name="Path 1604" d="M96.332,102.358c0-.982-.063-1.232-.756-1.285l-.494-.042a.2.2,0,0,1,.017-.331c.831-.067,1.88-.106,3.314-.106a6.722,6.722,0,0,1,2.591.372,1.743,1.743,0,0,1,1.171,1.66c0,.957-.647,1.447-1.572,1.819,0,.134.123.172.294.2a2.323,2.323,0,0,1,2.066,2.216c0,1.54-1.327,2.575-4.1,2.575-.447,0-1.2-.041-1.851-.041-.677,0-1.2.027-1.772.041a.23.23,0,0,1-.031-.33l.278-.042c.817-.119.848-.265.848-1.659Zm1.263,1.767c0,.372.016.4.8.372,1.572-.053,2.421-.45,2.421-1.7,0-1.3-1.125-1.788-2.3-1.788a2.1,2.1,0,0,0-.708.078c-.155.039-.217.1-.217.342Zm0,3.08a2.287,2.287,0,0,0,.325,1.446,1.634,1.634,0,0,0,1.217.371c1.372,0,2.421-.53,2.421-1.856,0-1.047-.618-2.272-3.069-2.272-.833,0-.9.081-.9.348Z" transform="translate(-43.578 -46.214)" fill="#234075"/>
      <path id="Path_1605" data-name="Path 1605" d="M43.105,86.033,42.736,86c-.075-.006-.141-.016-.2-.024-.54-.1-.757-.579-1.01-1.021l-1.276-2.22c-.22-.371-.456-.867-.961-.94,1.307-.156,2.488-.909,2.488-2.2,0-1.494-1.481-2.165-2.976-2.165-.9,0-1.781.061-2.7.061-.5,0-1.038-.061-1.543-.061-.28,0-.284.061-.284.217,0,.228.1.167.395.167,1.1,0,1.024.274,1.024,1.184v5.817c0,.83.071,1.081-.8,1.158l-.21.024-.371.036a.239.239,0,0,0,.03.332c.2-.005.547-.018.547-.018.484-.017.969-.054,1.453-.054s.954.037,1.433.054c.171,0,.349.009.546.015a.235.235,0,0,0,.03-.329l-.373-.036c-.076-.009-.208-.02-.208-.02-.883-.058-.829-.311-.829-1.162V82.618c0-.127-.016-.47.078-.569.079-.085.221-.071.347-.071,1.2,0,1.181.112,1.749,1.108l1.543,2.774c.126.216.221.484.537.484h1.34c.17.005.347.009.543.018a.237.237,0,0,0,.03-.33m-5.378-4.364c-.268,0-.8.1-.8-.255V78.866c0-1,.031-1.137,1.229-1.137,1.4,0,2.267.711,2.267,2.019A1.673,1.673,0,0,1,39.7,81.2a3.273,3.273,0,0,1-1.97.468" transform="translate(-15.714 -35.57)" fill="#234075"/>
      <path id="Path_1606" data-name="Path 1606" d="M40.045,102.684c0-1.393-.031-1.609-.95-1.673l-.365-.025c-.088-.052-.058-.291.029-.332.819.025,1.316.039,1.9.039s1.068-.014,1.8-.039c.088.041.117.28.029.332l-.35.025c-.864.064-.893.28-.893,1.673V107.3c0,.838.044,1.182.307,1.437.161.145.439.3,1.592.3a4.2,4.2,0,0,0,1.785-.172,2.858,2.858,0,0,0,.966-1.317c.087-.065.366-.014.366.081a9.9,9.9,0,0,1-.615,1.859c-.745-.025-2.134-.039-3.641-.039H40.658c-.613,0-1.081.014-1.9.039a.241.241,0,0,1-.029-.332l.438-.039c.847-.079.878-.263.878-1.659Z" transform="translate(-17.741 -46.241)" fill="#234075"/>
      <path id="Path_1607" data-name="Path 1607" d="M112.472,102.709c0-1.4-.028-1.634-.874-1.7l-.36-.025c-.085-.052-.057-.291.03-.332.718.025,1.2.039,1.809.039.573,0,1.063-.014,1.78-.039.085.041.114.28.029.332l-.36.025c-.846.064-.875.294-.875,1.7v4.73c0,1.4.029,1.59.875,1.684l.36.039c.086.052.056.294-.029.332-.717-.025-1.207-.039-1.78-.039-.605,0-1.091.014-1.809.039a.245.245,0,0,1-.03-.332l.36-.039c.846-.095.874-.28.874-1.684Z" transform="translate(-51.004 -46.241)" fill="#234075"/>
      <path id="Path_1608" data-name="Path 1608" d="M82.625,109.109l-.212-.019a.569.569,0,0,1-.394-.157c-.187-.194-.171-.758-.171-.984V102.13c0-.252-.062-.8.123-1a.7.7,0,0,1,.461-.134c.1-.009.106-.009.2-.011l.368-.026c.089-.054.06-.292-.03-.333-.2.009-.376,0-.546.009v.005H80.857c-.172,0-.325,0-.419.181l-3.2,6.648-2.822-6.423c-.094-.224-.109-.4-.4-.4H72.383c-.171-.008-.358-.005-.556-.014-.087.041-.117.279-.028.333l.368.026c.076.008.214.017.214.017.612.039.652.174.594.819l-.48,6.239c-.042.624-.076.957-.733,1.02l-.215.024-.368.04a.237.237,0,0,0,.029.331c.195-.009.539-.018.539-.018.335-.016.674-.045,1.013-.045.365,0,.731.034,1.1.048v0c.169,0,.348.009.546.018a.239.239,0,0,0,.029-.332l-.368-.039c-.1-.009-.206-.021-.206-.021-.948-.062-.927-.731-.867-1.551l.449-5.8h.108l3.057,7.141c.03.1.076.267.232.267s.186-.154.233-.256l3.442-7.322h.11v6.381c0,.256.03.775-.233.972a2,2,0,0,1-.586.165c-.062.009-.126.017-.2.025l-.369.039a.24.24,0,0,0,.029.332c.195-.009.54-.018.54-.018.5-.015,1.007-.051,1.517-.051.365,0,1.081.034,1.081.034.17,0,.366.025.562.029a.237.237,0,0,0,.03-.331Z" transform="translate(-32.627 -46.229)" fill="#234075"/>
      <path id="Path_1609" data-name="Path 1609" d="M128.835,109.045l-.049-.04c-.073-.011-.139-.018-.2-.029-.574-.13-.8-.822-1.011-1.311l-2.958-6.993c-.029-.084-.088-.265-.206-.265-.161,0-.206.192-.248.307l-2.827,6.977a4.582,4.582,0,0,1-.556,1.1.786.786,0,0,1-.54.2s-.159.016-.235.025l-.348.035a.24.24,0,0,0,.03.332c.2-.009.545-.021.545-.021.388,0,.774-.053,1.161-.053.326,0,.652.035.977.048,0,0,.35.011.547.02a.238.238,0,0,0,.029-.331l-.369-.04-.2-.02c-.339-.039-.764-.1-.764-.471a2.311,2.311,0,0,1,.206-.768l.438-1.042c.221-.5.132-.558.719-.558h1.991c.7,0,.6,0,.908.708l.468,1.061a2.265,2.265,0,0,1,.205.682c0,.349-.382.374-.739.4l-.222.018-.355.025a.238.238,0,0,0,.03.331c.2-.009.547-.02.547-.02.417-.017.835-.048,1.237-.048.513,0,1.026.035,1.538.048.168,0,.027.011.22.016a.232.232,0,0,0,.03-.328m-3.874-3.288h-1.727c-.059,0-.541.057-.541-.083a.735.735,0,0,1,.046-.17l1.036-2.561c.029-.07.134-.422.254-.422.091,0,.209.364.241.422l1.021,2.391c0,.028.1.255.1.312,0,.154-.345.11-.435.11" transform="translate(-54.865 -46.128)" fill="#234075"/>
      <path id="Path_1610" data-name="Path 1610" d="M106.806,36.964l-5.83,2.155,1.84.627Z" transform="translate(-46.32 -16.982)" fill="#e3a82b"/>
      <path id="Path_1611" data-name="Path 1611" d="M21.537,20.189l-3.273-1.2c.039-.1.076-.2.114-.3l3.6,1.255.346-.216,1.719.935,2.137.778.127-.058-7.625-3.426.132-.3,8.4,3.352.12-.061L19.144,16.93c.047-.1.093-.192.139-.289l8.893,3.875-8.527-4.591c.045-.088.09-.175.137-.262L31.765,22c.172-.32.355-.634.547-.937l-9.76-7.616,10.417,6.676c.257-.341.529-.669.814-.983L23.762,10.066l.22-.234,7.28,6.425-6.732-7c.077-.078.154-.156.232-.234l7.594,7.283-7.02-7.836c.078-.071.155-.145.234-.216l6.8,6.928-6.2-7.464.227-.191L35.1,17.85c.337-.288.685-.568,1.047-.823L29.94,6.287,37.108,16.4c.389-.235.79-.45,1.2-.648L32.436,3.628c.1-.052.2-.1.307-.145l4.346,8.7L33.467,3.16c.1-.044.2-.085.3-.126l4.316,9.6-3.571-9.9c.1-.036.2-.075.3-.111L38.52,11.6,35.568,2.357c.087-.03.174-.055.261-.088l4.187,12.787c.389-.129.784-.246,1.187-.344L39.474,2.437l2.855,12.049c.476-.076.961-.126,1.449-.156L42.885.94l.3-.019.923,9.63L43.976.9c.112,0,.223,0,.333,0l.4,10.133L45.1.894l.32.008-.084,9.649L46.222.938c.1.007.2.012.3.018l-.911,13.381c.466.03.924.081,1.375.149l2.849-12.01L48.11,14.711c.423.1.839.226,1.246.364L53.525,2.343c.1.037.2.071.294.105L50.9,11.6l3.672-8.884c.1.039.2.076.3.115l-3.54,9.8,4.271-9.5.3.135L52.329,12.18l4.292-8.587c.092.044.182.088.274.134L51.058,15.773c.4.2.785.4,1.162.632L59.369,6.326l-6.192,10.71q.556.4,1.072.849L62.876,7.655c.08.068.159.135.237.2l-6.135,7.386L63.7,8.4c.081.071.16.145.239.221l-6.952,7.751,7.515-7.2c.078.077.154.158.232.238l-6.651,6.913,7.19-6.347c.067.074.136.149.2.223l-9.922,8.979c.283.313.55.636.8.974l10.4-6.659-9.743,7.6c.194.3.377.619.549.939L69.4,15.768c.049.089.1.184.147.276l-8.381,4.511L69.9,16.749l.138.3L60.755,21.6l9.608-3.842c.045.1.09.2.134.305l-8.708,3.9,9-3.176c.036.091.071.186.106.278l-1.924.709,2.857,2.168.791.443v0h0a33.454,33.454,0,0,0-1.21-3.819A29.167,29.167,0,0,0,44.566.289,28.74,28.74,0,0,0,16.5,22.821h0c0,.009-.019.09-.031.158l.562-.262Z" transform="translate(-7.552 -0.133)" fill="#e3a82b"/>
      <path id="Path_1612" data-name="Path 1612" d="M193.845,99.183a6.629,6.629,0,0,1-6.852,6.974,6.416,6.416,0,0,1-6.658-6.682,6.821,6.821,0,0,1,6.918-7.006,6.484,6.484,0,0,1,6.592,6.714m-6.982-5.741c-2.143,0-3.735,2.043-3.735,5.611,0,2.952,1.332,6.13,4.189,6.13s3.734-2.984,3.734-5.482c0-2.757-1.1-6.259-4.189-6.259" transform="translate(-82.724 -42.481)" fill="#234075"/>
      <path id="Path_1613" data-name="Path 1613" d="M211.285,96.008c0-1.265,0-1.427-.877-2.011l-.292-.194a.443.443,0,0,1,.032-.584,17.707,17.707,0,0,0,3.248-1.59.38.38,0,0,1,.357.227c-.065.747-.065,1.233-.065,1.525a.341.341,0,0,0,.358.357,8.9,8.9,0,0,1,4.546-1.655c2.7,0,3.8,1.849,3.8,4.023v5.578c0,2.335.064,2.66,1.234,2.822l.715.1a.567.567,0,0,1-.065.811c-.974-.065-1.917-.1-3.053-.1-1.169,0-2.143.032-3.02.1a.567.567,0,0,1-.065-.811l.617-.1c1.2-.2,1.234-.487,1.234-2.822V96.852c0-1.849-.844-3.211-3.053-3.211a3.541,3.541,0,0,0-2.76,1.135,2.728,2.728,0,0,0-.488,1.946v4.963c0,2.335.065,2.627,1.235,2.822l.585.1a.567.567,0,0,1-.065.811c-.877-.065-1.819-.1-2.955-.1-1.169,0-2.143.032-3.053.1a.567.567,0,0,1-.065-.811l.682-.1c1.2-.162,1.234-.487,1.234-2.822Z" transform="translate(-95.977 -42.095)" fill="#234075"/>
      <path id="Path_1614" data-name="Path 1614" d="M245.45,82.166c0-3.081-.1-3.633-1.429-3.795l-1.039-.13a.542.542,0,0,1,.032-.811c1.819-.162,4.06-.259,7.242-.259a11.508,11.508,0,0,1,5.423.973,4.833,4.833,0,0,1,2.7,4.541,6,6,0,0,1-4.06,5.416c-.162.2,0,.519.163.779,2.6,4.184,4.319,6.778,6.527,8.627a3.89,3.89,0,0,0,2.241.908.272.272,0,0,1,.032.454,5.061,5.061,0,0,1-1.429.162c-2.761,0-4.417-.811-6.723-4.086-.844-1.2-2.176-3.439-3.182-4.9a2.319,2.319,0,0,0-2.306-1.038c-1.461,0-1.526.032-1.526.713v4.087c0,3.406.065,3.795,1.949,4.054l.681.1a.632.632,0,0,1-.065.811c-1.461-.065-2.565-.1-3.864-.1-1.364,0-2.533.032-4.059.1a.624.624,0,0,1-.065-.811l.812-.1c1.884-.227,1.949-.649,1.949-4.054Zm2.663,4.638a2.546,2.546,0,0,0,.1,1.07c.1.1.585.163,2.24.163a5.446,5.446,0,0,0,3.345-.843c.877-.681,1.624-1.816,1.624-4.022,0-2.562-1.591-5-5.2-5-2.013,0-2.11.13-2.11,1.038Z" transform="translate(-111.273 -35.453)" fill="#234075"/>
      <path id="Path_1615" data-name="Path 1615" d="M295.525,99.183a6.629,6.629,0,0,1-6.852,6.974,6.417,6.417,0,0,1-6.658-6.682,6.821,6.821,0,0,1,6.918-7.006,6.483,6.483,0,0,1,6.592,6.714m-6.982-5.741c-2.143,0-3.734,2.043-3.734,5.611,0,2.952,1.332,6.13,4.189,6.13s3.735-2.984,3.735-5.482c0-2.757-1.1-6.259-4.189-6.259" transform="translate(-129.366 -42.481)" fill="#234075"/>
      <path id="Path_1616" data-name="Path 1616" d="M315.273,100.935c0,2.238.552,3.73,3.02,3.73a4.254,4.254,0,0,0,2.631-.973,2.258,2.258,0,0,0,.65-1.882V96.491c0-2.108-.227-2.173-1.2-2.562l-.422-.162a.44.44,0,0,1,.032-.714,12.984,12.984,0,0,0,3.8-.584c.162.032.26.1.292.228-.065.616-.1,1.621-.1,2.821v5.449c0,2.562.1,3.535,1.006,3.535a6.194,6.194,0,0,0,1.267-.162c.2.162.228.811-.032.94a16.882,16.882,0,0,0-4.254,1.2.451.451,0,0,1-.39-.228v-1.33c0-.291-.1-.454-.292-.454a8.5,8.5,0,0,1-4.482,1.687c-2.857,0-3.929-1.427-3.929-4.054V96.686c0-2.043,0-2.335-.974-2.757l-.39-.162a.481.481,0,0,1,.065-.714,11.509,11.509,0,0,0,3.475-.584c.194.032.292.1.325.228a24.384,24.384,0,0,0-.1,2.821Z" transform="translate(-142.836 -42.481)" fill="#234075"/>
      <path id="Path_1617" data-name="Path 1617" d="M346.416,92.738c-.553,0-.585.1-.585.778v6.065c0,1.882.227,3.6,2.371,3.6a2.5,2.5,0,0,0,.877-.162c.292-.1.714-.454.812-.454.259,0,.39.356.325.551a4.5,4.5,0,0,1-3.41,1.492c-2.793,0-3.378-1.557-3.378-3.5V93.679c0-.876-.032-.941-.682-.941h-.909a.539.539,0,0,1-.1-.681,6.451,6.451,0,0,0,2.078-1.005,8.043,8.043,0,0,0,1.364-1.914c.162-.064.552-.064.681.163v1.459c0,.584.033.616.585.616h3.6a1.036,1.036,0,0,1,.032,1.362Z" transform="translate(-156.727 -40.934)" fill="#234075"/>
      <path id="Path_1618" data-name="Path 1618" d="M363.783,97.4c-.844,0-.877.065-.877.876,0,3.275,1.916,6.065,5.391,6.065a3.5,3.5,0,0,0,2.988-1.59.43.43,0,0,1,.585.389,5.678,5.678,0,0,1-5.1,3.016,5.821,5.821,0,0,1-4.709-2.141A6.88,6.88,0,0,1,360.7,99.8c0-3.989,2.631-7.33,6.528-7.33,2.793,0,4.611,1.914,4.611,3.86a2,2,0,0,1-.129.843c-.1.195-.553.227-1.916.227Zm2.014-.973c2.4,0,3.118-.13,3.377-.324.1-.065.2-.195.2-.616,0-.908-.617-2.043-2.5-2.043-1.916,0-3.572,1.752-3.6,2.822,0,.065,0,.162.227.162Z" transform="translate(-165.46 -42.481)" fill="#234075"/>
      <path id="Path_1619" data-name="Path 1619" d="M387.987,81.484c0-2.4-.13-3.016-1.591-3.146l-1.039-.1a.518.518,0,0,1,.032-.811c1.754-.162,3.962-.259,6.983-.259a12.37,12.37,0,0,1,5.456.908,4.258,4.258,0,0,1,2.468,4.054c0,2.335-1.364,3.535-3.313,4.444,0,.324.26.422.617.486a5.369,5.369,0,0,1,4.352,5.416c0,3.763-2.792,6.292-8.638,6.292-.942,0-2.533-.1-3.9-.1-1.429,0-2.533.065-3.735.1a.629.629,0,0,1-.065-.811l.585-.1c1.721-.292,1.786-.649,1.786-4.054ZM390.65,85.8c0,.909.033.973,1.689.909,3.312-.13,5.1-1.1,5.1-4.152,0-3.179-2.371-4.379-4.838-4.379a4,4,0,0,0-1.494.2c-.325.1-.455.259-.455.843Zm0,7.525c0,1.168.065,2.822.682,3.535a3.153,3.153,0,0,0,2.566.909c2.89,0,5.1-1.3,5.1-4.541,0-2.562-1.3-5.546-6.463-5.546-1.753,0-1.883.194-1.883.843Z" transform="translate(-176.689 -35.453)" fill="#e3a82b"/>
      <path id="Path_1620" data-name="Path 1620" d="M426.194,79.147a14.01,14.01,0,0,1,8.768-2.757,25.088,25.088,0,0,1,5.748.779,2.453,2.453,0,0,0,.909.13c.033.746.195,2.789.455,4.767a.686.686,0,0,1-.877.065c-.487-2.206-1.949-4.736-6.657-4.736-4.969,0-9.191,3.146-9.191,9.86,0,6.811,4.319,10.573,9.646,10.573a6.922,6.922,0,0,0,6.787-4.638.684.684,0,0,1,.844.13,12.181,12.181,0,0,1-1.559,4.443,6.56,6.56,0,0,0-1.137.324,19.157,19.157,0,0,1-5.131.746,14.24,14.24,0,0,1-8.086-2.173,10.451,10.451,0,0,1-4.612-8.92,10.769,10.769,0,0,1,4.092-8.595" transform="translate(-193.627 -35.094)" fill="#e3a82b"/>
    </g>
  </g>
</svg>
