<svg xmlns="http://www.w3.org/2000/svg" width="24" height="24" viewBox="0 0 24 24">
  <path id="Amex_Logo" d="M22.192,15.76,24,17.6V13.944Zm-.776-3.168-1.928,2.072-1.92-2.072H10.1v6.376H15.44V17.584H11.728V16.472h3.64V15.1h-3.64v-1.12H15.44V12.592l2.984,3.2L15.44,18.968H17.5l1.944-2.08,1.936,2.08H23.5l-2.992-3.2L23.5,12.592ZM11.192,7.208l.32-.8.32.8L12.5,8.824H10.528ZM10.44,5.04l-2.832,6.4H9.464l.5-1.232h3.1l.5,1.232h1.88l-2.816-6.4Zm10.848,0L20.056,8.288l-.328.88-.336-.88L18.152,5.04H15.44v6.4h1.632V7.272l-.008-.84.32.84,1.56,4.168H20.5l1.568-4.168.3-.832v5H24V5.04ZM0,0V24H24V20.208H20.688l-1.224-1.432-1.272,1.432H8.784V12.584H5.68L9.56,3.8h3.776l.912,1.992V3.8h4.688l.784,2.088L20.488,3.8H24V0Z" fill="#006fcf"/>
</svg>
