<svg id="BC_Logo_Reverse" xmlns="http://www.w3.org/2000/svg" xmlns:xlink="http://www.w3.org/1999/xlink" width="175" height="46" viewBox="0 0 175 46">
  <defs>
    <clipPath id="clip-path">
      <rect id="Rectangle_3321" data-name="Rectangle 3321" width="175" height="46" fill="none"/>
    </clipPath>
  </defs>
  <g id="Group_1361" data-name="Group 1361" clip-path="url(#clip-path)">
    <path id="Path_1399" data-name="Path 1399" d="M10.986,39.567c11.062,0,26.363,6.2,37.466,6.2,7.923,0,15.654-2.106,20.054-5.208A33.662,33.662,0,1,0,2.112,40.5a55,55,0,0,1,8.875-.933" transform="translate(-1.243 -1.078)" fill="#fff"/>
    <rect id="Rectangle_3320" data-name="Rectangle 3320" width="77.864" height="0.941" transform="translate(85.415 45.059)" fill="#e3a82b"/>
    <path id="Path_1400" data-name="Path 1400" d="M347.178,37.812c0-1.574-.112-1.992-1.178-2.077l-.742-.051c-.121-.1-.087-.522.024-.532,1.28-.114,2.892-.17,5.1-.17a9.948,9.948,0,0,1,3.983.6,2.785,2.785,0,0,1,1.8,2.659c0,1.532-1,2.32-2.418,2.915,0,.213.19.277.45.319a3.659,3.659,0,0,1,3.177,3.554c0,2.468-2.039,4.128-6.307,4.128-.687,0-1.849-.064-2.845-.064-1.043,0-1.849.043-2.726.064a.383.383,0,0,1-.047-.532l.427-.064c1.256-.192,1.3-.425,1.3-2.659Zm1.944,2.83c0,.6.024.638,1.233.6,2.418-.086,3.722-.724,3.722-2.724,0-2.085-1.731-2.872-3.532-2.872a3.229,3.229,0,0,0-1.091.127c-.237.064-.332.171-.332.553Zm0,4.936a3.809,3.809,0,0,0,.5,2.319,2.461,2.461,0,0,0,1.873.6c2.11,0,3.722-.851,3.722-2.978,0-1.681-.948-3.639-4.718-3.639-1.28,0-1.375.128-1.375.553Z" transform="translate(-259.766 -26.359)" fill="#fff"/>
    <path id="Path_1401" data-name="Path 1401" d="M455.521,46.347c0-1.926-.041-2.235-1.236-2.326l-.506-.036c-.122-.073-.081-.4.041-.455,1.013.036,1.7.055,2.551.055.81,0,1.5-.018,2.511-.055.122.055.162.382.041.455l-.506.036c-1.2.091-1.235.4-1.235,2.326v6.47c0,1.926.04,2.181,1.235,2.308l.506.054c.121.073.081.4-.041.454-1.012-.036-1.7-.055-2.511-.055-.85,0-1.539.018-2.551.055a.326.326,0,0,1-.041-.454l.506-.054c1.195-.127,1.236-.382,1.236-2.308Z" transform="translate(-341.436 -32.8)" fill="#fff"/>
    <path id="Path_1402" data-name="Path 1402" d="M485.613,51.193c0,1.908.038,2.181,1.139,2.272l.607.054c.114.073.076.4-.038.455-1.082-.036-1.727-.055-2.486-.055s-1.423.018-2.637.055a.308.308,0,0,1,0-.455l.683-.054c1.082-.091,1.176-.364,1.176-2.272V43.069c0-.563,0-.581-.569-.581h-1.043a4.029,4.029,0,0,0-2.334.454,3.3,3.3,0,0,0-.854,1.254.376.376,0,0,1-.493-.127,18.476,18.476,0,0,0,.721-2.708.5.5,0,0,1,.361,0c.114.581.741.563,1.613.563h7.684c1.024,0,1.2-.036,1.48-.509.1-.036.3-.018.342.054a10.541,10.541,0,0,0-.285,2.763c-.076.145-.4.145-.493.036-.057-.455-.19-1.127-.475-1.327a3.913,3.913,0,0,0-2.2-.454h-1.347c-.569,0-.551.018-.551.617Z" transform="translate(-360.294 -31.14)" fill="#fff"/>
    <path id="Path_1403" data-name="Path 1403" d="M533.789,46.347c0-1.926-.041-2.235-1.235-2.326l-.506-.036c-.121-.073-.081-.4.041-.455,1.013.036,1.7.055,2.552.055.81,0,1.5-.018,2.511-.055.122.055.162.382.041.455l-.507.036c-1.195.091-1.235.4-1.235,2.326v6.47c0,1.926.04,2.181,1.235,2.308l.507.054c.121.073.081.4-.041.454-1.013-.036-1.7-.055-2.511-.055-.851,0-1.539.018-2.552.055a.327.327,0,0,1-.041-.454l.506-.054c1.195-.127,1.235-.382,1.235-2.308Z" transform="translate(-400.337 -32.8)" fill="#fff"/>
    <path id="Path_1404" data-name="Path 1404" d="M564,54.945a7.707,7.707,0,0,1-3.358-.672,7.263,7.263,0,0,1-.581-2.545c.108-.127.431-.163.517-.054a3.727,3.727,0,0,0,3.7,2.708c1.809,0,2.691-1,2.691-2.09,0-.8-.194-1.69-1.766-2.544l-2.045-1.127c-1.076-.6-2.325-1.636-2.325-3.126,0-1.727,1.593-3.126,4.392-3.126a9.767,9.767,0,0,1,2,.236,3.382,3.382,0,0,0,.754.109,6.821,6.821,0,0,1,.388,2.218.487.487,0,0,1-.538.054,2.7,2.7,0,0,0-2.928-2.054c-2.11,0-2.562,1.181-2.562,2.017,0,1.054,1.033,1.818,1.83,2.236l1.722.909c1.357.709,2.692,1.763,2.692,3.489,0,2-1.787,3.362-4.586,3.362" transform="translate(-421.474 -31.924)" fill="#fff"/>
    <path id="Path_1405" data-name="Path 1405" d="M606.6,49.709c-.942,0-.981.036-.981.581v2.563c0,1.908.1,2.163,1.2,2.272l.569.054c.118.073.079.4-.039.454-1.06-.036-1.727-.055-2.494-.055-.844,0-1.512.036-2.277.055a.334.334,0,0,1-.039-.454l.334-.054c1.1-.182,1.139-.364,1.139-2.272V46.311c0-1.908-.137-2.217-1.158-2.29l-.51-.036c-.118-.073-.079-.4.039-.455.962.018,1.629.054,2.474.054.766,0,1.433-.018,2.278-.054.118.054.157.382.04.455l-.374.036c-1.138.109-1.177.381-1.177,2.29V48.4c0,.563.039.582.981.582h5.615c.943,0,.982-.018.982-.582v-2.09c0-1.908-.039-2.181-1.2-2.29l-.373-.036c-.118-.073-.079-.4.039-.455.9.036,1.571.054,2.375.054.766,0,1.433-.018,2.317-.054.118.054.157.382.039.455l-.412.036c-1.139.109-1.178.381-1.178,2.29v6.543c0,1.908.04,2.145,1.178,2.272l.471.054c.117.073.078.4-.039.454-.943-.036-1.61-.055-2.376-.055-.8,0-1.512.018-2.375.055a.334.334,0,0,1-.039-.454l.373-.054c1.2-.182,1.2-.364,1.2-2.272V50.291c0-.545-.039-.581-.982-.581Z" transform="translate(-453.237 -32.8)" fill="#fff"/>
    <path id="Path_1406" data-name="Path 1406" d="M299.372,103.133a9.575,9.575,0,0,1,5.969-1.865,17.168,17.168,0,0,1,3.912.527,1.674,1.674,0,0,0,.619.088c.022.5.133,1.887.309,3.225a.468.468,0,0,1-.6.044c-.332-1.492-1.326-3.2-4.532-3.2-3.382,0-6.256,2.129-6.256,6.671,0,4.608,2.94,7.153,6.565,7.153a4.709,4.709,0,0,0,4.62-3.138.468.468,0,0,1,.575.088,8.206,8.206,0,0,1-1.061,3.006,4.522,4.522,0,0,0-.774.219,13.083,13.083,0,0,1-3.493.505,9.734,9.734,0,0,1-5.5-1.47,7.058,7.058,0,0,1-3.139-6.034,7.27,7.27,0,0,1,2.785-5.815" transform="translate(-223.196 -76.305)" fill="#fff"/>
    <path id="Path_1407" data-name="Path 1407" d="M356.7,118.016c0-3.635,2.874-6.415,6.82-6.415,4.425,0,6.647,3.035,6.647,6.234a6.379,6.379,0,0,1-6.647,6.343c-4.253,0-6.82-2.89-6.82-6.161m11.551.382c0-3-1.4-6.234-5.057-6.234-1.992,0-4.578,1.29-4.578,5.271,0,2.69,1.379,6.179,5.153,6.179,2.3,0,4.483-1.636,4.483-5.216" transform="translate(-268.433 -84.091)" fill="#fff"/>
    <path id="Path_1408" data-name="Path 1408" d="M464.724,117.175a12.326,12.326,0,0,0-.368-3.762,1.23,1.23,0,0,0-.967-.382l-.484-.036a.315.315,0,0,1,.038-.437c.735.036,1.451.055,2.2.055.812,0,1.335-.018,2.031-.054a.3.3,0,0,1,.039.436l-.464.036a1.155,1.155,0,0,0-.967.437,15.291,15.291,0,0,0-.271,3.708v2.054a6.067,6.067,0,0,1-1.354,4.344,5.276,5.276,0,0,1-3.694,1.327,5.748,5.748,0,0,1-3.617-1c-1.025-.8-1.508-2.126-1.508-4.289v-4.29c0-1.89-.039-2.2-1.16-2.29l-.484-.036c-.116-.073-.078-.381.038-.437.968.036,1.625.055,2.4.055.793,0,1.431-.018,2.378-.054.116.054.155.363.039.436l-.464.036c-1.122.091-1.16.4-1.16,2.29v3.926c0,2.926.967,4.853,3.926,4.853,2.8,0,3.868-2.073,3.868-4.834Z" transform="translate(-341.379 -84.813)" fill="#fff"/>
    <path id="Path_1409" data-name="Path 1409" d="M583.816,114.615c0-1.358-.086-1.707-1.047-1.78l-.684-.066c-.078-.07-.119-.438.021-.448,1.155-.086,2.608-.146,4.6-.146a9.343,9.343,0,0,1,3.591.513,2.409,2.409,0,0,1,1.624,2.3c0,1.321-.9,2-2.18,2.515,0,.184.17.239.406.275a3.217,3.217,0,0,1,2.865,3.065c0,2.129-1.839,3.561-5.686,3.561-.62,0-1.667-.055-2.565-.055-.941,0-1.667.036-2.458.055a.319.319,0,0,1-.043-.458l.385-.055c1.133-.165,1.176-.367,1.176-2.294Zm1.753,2.441c0,.514.021.551,1.111.514,2.181-.073,3.356-.624,3.356-2.35,0-1.8-1.56-2.478-3.185-2.478a3.02,3.02,0,0,0-.983.11c-.214.055-.3.147-.3.477Zm0,4.259a3.174,3.174,0,0,0,.448,2,2.285,2.285,0,0,0,1.689.514c1.9,0,3.356-.734,3.356-2.57,0-1.45-.855-3.138-4.253-3.138-1.155,0-1.24.109-1.24.477Z" transform="translate(-437.993 -84.523)" fill="#fff"/>
    <path id="Path_1410" data-name="Path 1410" d="M411.594,54.78l-.507-.044c-.1-.011-.193-.024-.28-.038-.741-.131-1.038-.788-1.386-1.4l-1.751-3.038c-.3-.506-.627-1.188-1.319-1.285,1.794-.214,3.416-1.246,3.416-3.018,0-2.045-2.033-2.96-4.087-2.96-1.233,0-2.356.033-3.61.033-.692,0-1.515-.033-2.206-.033-.384,0-.389.078-.389.292,0,.316.134.228.541.25,1.461.082,1.405.353,1.405,1.6v7.965c0,1.14.1,1.48-1.1,1.587l-.289.03-.509.052a.326.326,0,0,0,.041.454l.75-.029c.665-.02,1.33-.07,2-.07s1.309.051,1.966.07h0l.75.025a.325.325,0,0,0,.041-.454l-.512-.048c-.1-.011-.284-.027-.284-.027-1.213-.082-1.139-.423-1.139-1.591v-3c0-.175-.022-.642.108-.779.108-.117.3-.1.476-.1,1.644,0,1.621.156,2.4,1.519l2.119,3.8c.173.292.3.662.736.662h1.84l.745.025a.327.327,0,0,0,.041-.454m-7.381-5.972c-.368,0-1.1.136-1.1-.35V44.971c0-1.363.044-1.558,1.687-1.558,1.924,0,3.113.973,3.113,2.765a2.283,2.283,0,0,1-.995,1.987,4.473,4.473,0,0,1-2.7.643" transform="translate(-300.605 -32.4)" fill="#fff"/>
    <path id="Path_1411" data-name="Path 1411" d="M414.593,115.516c0-1.908-.04-2.2-1.3-2.29l-.5-.036c-.12-.073-.08-.4.04-.455,1.124.036,1.806.054,2.609.054.783,0,1.465-.018,2.469-.054.12.054.16.381.04.454l-.482.036c-1.184.091-1.224.382-1.224,2.29v6.325c0,1.145.061,1.618.422,1.963.221.2.6.418,2.187.418a5.732,5.732,0,0,0,2.449-.236,3.9,3.9,0,0,0,1.324-1.8c.121-.09.5-.018.5.109a13.548,13.548,0,0,1-.843,2.544c-1.023-.036-2.93-.054-5-.054h-1.846c-.843,0-1.485.018-2.609.054a.329.329,0,0,1-.04-.454l.6-.054c1.164-.109,1.2-.364,1.2-2.272Z" transform="translate(-310.588 -84.946)" fill="#fff"/>
    <path id="Path_1412" data-name="Path 1412" d="M632.2,115.552c0-1.926-.039-2.236-1.2-2.326l-.493-.036c-.118-.073-.079-.4.04-.455.984.037,1.654.055,2.482.055.788,0,1.458-.018,2.444-.054.118.054.157.381.039.454l-.493.036c-1.162.091-1.2.4-1.2,2.326v6.471c0,1.926.039,2.181,1.2,2.308l.493.054c.118.073.079.4-.039.454-.986-.036-1.655-.055-2.444-.055-.828,0-1.5.018-2.482.055a.333.333,0,0,1-.04-.454l.493-.054c1.162-.127,1.2-.382,1.2-2.308Z" transform="translate(-474.434 -84.946)" fill="#fff"/>
    <path id="Path_1413" data-name="Path 1413" d="M525.932,124.275c-.1-.011-.29-.026-.29-.026a.77.77,0,0,1-.541-.211c-.256-.271-.235-1.042-.235-1.35v-7.964c0-.347-.085-1.1.171-1.37a.955.955,0,0,1,.631-.179h0c.144-.011.147-.011.273-.018l.507-.036c.121-.073.081-.4-.041-.455-.271.009-.517.006-.75.013H523.5c-.234,0-.447,0-.575.251l-4.386,9.1-3.875-8.793c-.128-.309-.149-.559-.554-.559h-2.24c-.234-.007-.491,0-.762-.014-.121.055-.162.382-.041.455l.507.036.294.021c.84.054.893.241.816,1.122l-.66,8.542c-.058.858-.1,1.311-1.007,1.395,0,0-.19.024-.3.035l-.506.055a.326.326,0,0,0,.041.454c.267-.01.741-.024.741-.024.457-.022.923-.063,1.388-.063.5,0,1.005.047,1.508.067h0l.75.025a.325.325,0,0,0,.041-.454l-.506-.054c-.133-.01-.283-.025-.283-.025-1.3-.089-1.273-1-1.191-2.124l.618-7.944h.149l4.195,9.776c.042.135.106.366.319.366.192,0,.256-.212.319-.347l4.727-10.027h.149v8.735c0,.347.043,1.061-.319,1.33a2.668,2.668,0,0,1-.8.225c-.085.013-.174.026-.275.036l-.506.054a.326.326,0,0,0,.041.454l.74-.024c.686-.019,1.383-.07,2.082-.07.5,0,1.484.048,1.484.048.234.007.5.033.771.042a.326.326,0,0,0,.041-.454Z" transform="translate(-383.909 -84.895)" fill="#fff"/>
    <path id="Path_1414" data-name="Path 1414" d="M668.381,123.82l-.068-.054c-.1-.011-.191-.023-.275-.037-.789-.175-1.1-1.122-1.388-1.8l-4.06-9.573c-.041-.115-.121-.363-.282-.363-.221,0-.281.267-.342.419l-3.879,9.554a6.343,6.343,0,0,1-.764,1.506,1.114,1.114,0,0,1-.739.272l-.323.032-.477.048a.327.327,0,0,0,.041.454l.751-.027c.531-.007,1.061-.074,1.593-.074.447,0,.894.047,1.34.067l.75.027a.327.327,0,0,0,.041-.455l-.507-.055-.274-.027c-.467-.052-1.048-.135-1.048-.646a3.144,3.144,0,0,1,.281-1.049l.6-1.43c.3-.686.181-.763.985-.763h2.734c.965,0,.823,0,1.246.973l.643,1.448a3.145,3.145,0,0,1,.281.935c0,.479-.526.51-1.016.552l-.3.024-.487.035a.327.327,0,0,0,.041.454l.75-.029c.572-.021,1.147-.065,1.7-.065.7,0,1.409.048,2.112.068h0c.231.007.036.015.3.025a.327.327,0,0,0,.041-.454m-5.319-4.5h-2.369c-.083,0-.742.077-.742-.115a.948.948,0,0,1,.062-.231l1.422-3.507c.041-.1.185-.578.35-.578.124,0,.289.5.33.578l1.4,3.275c0,.039.144.347.144.424,0,.212-.474.154-.6.154" transform="translate(-493.454 -84.39)" fill="#fff"/>
    <path id="Path_1415" data-name="Path 1415" d="M225.669,101.4l1.331.55,2.952-2.051Z" transform="translate(-169.827 -75.276)" fill="#e3a82b"/>
    <path id="Path_1416" data-name="Path 1416" d="M8.547,23.837l-3.5-1.226.175-.427,3.94,1.309.017-.01.52-.294.208-.129-4.3-1.821.182-.448,9.59,3.864.316-.131L6.189,19.907l.212-.434,10.079,4.673.139-.071L6.846,18.554l.2-.415,14.112,7.649c.116-.213.358-.6.482-.809a125.606,125.606,0,0,0-10.543-8.8,125.74,125.74,0,0,0,11.9,6.854c.217-.27.4-.487.627-.743L11.582,11.735l.323-.331,9.717,8.25-9-8.98.337-.348,10.107,9.73-9.408-10.4.36-.323,8.7,9.275L14.774,8.645l.342-.31L25.289,20.668c.263-.226.482-.4.757-.606a125.009,125.009,0,0,0-6.438-12.03,125.222,125.222,0,0,0,8.4,10.738c.295-.165.594-.324.9-.473l-.051-.033L21.729,4.09l.424-.186L28.06,15.179,23.091,3.493l.443-.2L29.246,16.09,24.434,2.934l.455-.165,4.574,11.845-3.613-12.2.434-.159L31.04,17.386l-.009.04.012,0c.316-.106.638-.2.961-.287A124.747,124.747,0,0,0,30.563,3.651,124.83,124.83,0,0,0,34.3,16.683c.334-.041.669-.076,1.008-.1l-.01-.016h.041l-.024-.035L34.03.732l.463-.015L35.73,13.376,35.517.687,36,.67l.486,13.993L36.972.67l.485.017-.213,12.689L38.481.718l.462.014-1.28,15.8-.024.035h.007l0,0h.021c.331.021.659.054.985.093A124.77,124.77,0,0,0,42.375,3.651,124.766,124.766,0,0,0,40.936,17.1q.49.129.968.284L46.643,2.31l.434.159-3.613,12.2L48.039,2.823l.455.165L43.682,16.143,49.394,3.35l.444.2-4.97,11.686L50.775,3.958l.424.186-7.1,14.123.012,0c.293.142.58.294.863.45a125.23,125.23,0,0,0,8.361-10.69,125.05,125.05,0,0,0-6.406,11.961q.411.309.8.641l10.053-12.2.343.31-7.937,9.962,8.7-9.275.359.323-9.408,10.4,10.107-9.73.337.348-9,8.98L60.992,11.5l.323.33L49.423,22.273l.007.007c.208.23.408.468.6.71A125.819,125.819,0,0,0,61.84,16.181a125.509,125.509,0,0,0-10.464,8.725c.146.243.382.658.517.909L65.805,18.27l.2.415L54.9,24.959,66.451,19.6l.212.434L55.9,25.261l.206.072,10.947-4.411.182.448L57.065,25.681l.19.079,6.781-2.252,1.022-.711.339.258,2.231-.741.175.426-1.93.677,2.789,2.12.894.5a34.131,34.131,0,0,0-66.5.79l.125-.06.409-.184.251-.117Z" transform="translate(-2.302)" fill="#e3a82b"/>
    <path id="Path_1417" data-name="Path 1417" d="M.564,111.861a56.343,56.343,0,0,1,9.227-1c11.062,0,26.363,6.2,37.466,6.2,8.145,0,16.088-2.226,20.418-5.471a34.079,34.079,0,0,0-.421-13.84l-4.629-2.571-5.431,3.794L53.541,97.56c-1.237.623-8.867,5.706-8.867,5.706l-2.929-2.112-3.142-.62L34.413,97.5l-4.806,3.287s-5.362,3.1-5.546,3.1-6.469-4.963-6.469-4.963l-2.9-3.039c-.493.31-2.463,1.21-2.463,1.21l-.1.027-1.906-.587L7.912,95.309.882,98.484l-.125.06a34.07,34.07,0,0,0-.193,13.316" transform="translate(0 -71.72)" fill="#65799e"/>
  </g>
</svg>
