<svg xmlns="http://www.w3.org/2000/svg" xmlns:xlink="http://www.w3.org/1999/xlink" width="178" height="160" viewBox="0 0 178 160">
  <defs>
    <clipPath id="clip-path">
      <rect id="Rectangle_3359" data-name="Rectangle 3359" width="178" height="160" fill="none"/>
    </clipPath>
  </defs>
  <g id="Error_Screen_Graphic" transform="translate(-871 -255)">
    <g id="Group_1660" data-name="Group 1660" transform="translate(871 255)">
      <g id="Group_1659" data-name="Group 1659" clip-path="url(#clip-path)">
        <path id="Path_1418" data-name="Path 1418" d="M108.789,165.861c-9.352,6.435-20.341,6.488-29.382-.214C56.388,148.6,57.5,160.86,37.556,155.493c-30.959-8.34-3.96-36.98-26.033-54.131C-2,90.854-7.515,58.942,17.034,55.272,45.025,51.1,41.362,36.565,61.2,26.375c23.045-11.85,32.95,3.17,43.545,10.056,11.241,7.308,30.816-2.533,41.841,13.361,8.736,12.607-6.417,23.041,14.715,48.842,11.749,14.354,3.639,39.055-14.2,42.994-27.724,6.126-23.529,14.057-38.312,24.233" transform="translate(0 -17.164)" fill="#f2f2f2" fill-rule="evenodd"/>
        <path id="Path_1419" data-name="Path 1419" d="M747.661,284.945a6.143,6.143,0,0,0-3.6-2.937,5.992,5.992,0,0,0-4.659.434,1.814,1.814,0,0,1-2.458-.761,1.839,1.839,0,0,1,.729-2.486,6.029,6.029,0,0,0,2.947-3.648,6.177,6.177,0,0,0-.469-4.707,1.818,1.818,0,1,1,3.2-1.719,6.14,6.14,0,0,0,3.639,3.006,5.99,5.99,0,0,0,4.66-.434,1.84,1.84,0,0,1,1.729,3.248,6.028,6.028,0,0,0-2.947,3.648,6.184,6.184,0,0,0,.432,4.638c.013.023.025.047.037.07a1.838,1.838,0,0,1-.746,2.48,1.814,1.814,0,0,1-2.458-.761c-.012-.023-.025-.047-.036-.069" transform="translate(-576.994 -209.547)" fill="#b2b5b6"/>
        <path id="Path_1420" data-name="Path 1420" d="M252.621,686.9a4.317,4.317,0,0,0-2.5-2.05,4.268,4.268,0,0,0-3.259.3,1.274,1.274,0,0,1-1.2-2.25,4.3,4.3,0,0,0,2.061-2.553,4.37,4.37,0,0,0-.339-3.287,1.265,1.265,0,1,1,2.23-1.2,4.351,4.351,0,0,0,2.546,2.1,4.226,4.226,0,0,0,3.259-.3,1.274,1.274,0,0,1,1.2,2.249,4.251,4.251,0,0,0-2.061,2.552,4.357,4.357,0,0,0,.3,3.235l.031.057a1.266,1.266,0,1,1-2.23,1.2l-.03-.057" transform="translate(-191.66 -527.63)" fill="#b2b5b6"/>
        <path id="Path_1421" data-name="Path 1421" d="M493.827,11.72a4.351,4.351,0,0,0-2.509-2.062,4.255,4.255,0,0,0-3.253.315,1.281,1.281,0,0,1-1.2-2.261,4.319,4.319,0,0,0,1.729-5.827,1.28,1.28,0,0,1,.515-1.738,1.267,1.267,0,0,1,1.714.541,4.32,4.32,0,0,0,2.54,2.09,4.217,4.217,0,0,0,3.247-.3,1.281,1.281,0,0,1,1.2,2.261,4.229,4.229,0,0,0-2.055,2.534,4.385,4.385,0,0,0,.3,3.247l.024.046a1.266,1.266,0,1,1-2.231,1.2l-.024-.045" transform="translate(-380.35 0)" fill="#dbdcdc"/>
        <path id="Path_1422" data-name="Path 1422" d="M90.7,69.056A5.2,5.2,0,0,0,87.685,66.6a5.051,5.051,0,0,0-3.913.359,1.513,1.513,0,0,1-2.057-.638,1.534,1.534,0,0,1,.615-2.071,5.126,5.126,0,0,0,2.476-3.055,5.222,5.222,0,0,0-.393-3.936,1.516,1.516,0,1,1,2.671-1.433,5.188,5.188,0,0,0,3.042,2.514,5.093,5.093,0,0,0,3.907-.371,1.535,1.535,0,0,1,1.442,2.709A5.085,5.085,0,0,0,93,63.744a5.233,5.233,0,0,0,.362,3.878l.031.058a1.516,1.516,0,1,1-2.671,1.433l-.03-.058" transform="translate(-63.783 -42.979)" fill="#b2b5b6"/>
        <path id="Path_1423" data-name="Path 1423" d="M16.673,464.2a5.558,5.558,0,0,0-3.218-2.627,5.38,5.38,0,0,0-4.154.4,1.638,1.638,0,0,1-1.541-2.892,5.424,5.424,0,0,0,2.633-3.257,5.578,5.578,0,0,0-.419-4.2,1.619,1.619,0,1,1,2.852-1.53,5.54,5.54,0,0,0,3.249,2.683,5.388,5.388,0,0,0,4.16-.387,1.623,1.623,0,0,1,2.2.681,1.644,1.644,0,0,1-.656,2.211,5.413,5.413,0,0,0-2.638,3.245,5.537,5.537,0,0,0,.388,4.146l.037.068a1.619,1.619,0,1,1-2.852,1.53l-.036-.069" transform="translate(-5.404 -351.047)" fill="#dbdcdc"/>
        <path id="Path_1424" data-name="Path 1424" d="M631.36,617.828a3.756,3.756,0,0,0-2.185-1.779,3.649,3.649,0,0,0-2.811.269,1.112,1.112,0,0,1-1.045-1.963,3.683,3.683,0,0,0,1.778-2.208,3.771,3.771,0,0,0-.284-2.858,1.1,1.1,0,1,1,1.935-1.039,3.8,3.8,0,0,0,2.209,1.825,3.688,3.688,0,0,0,2.828-.264,1.093,1.093,0,0,1,1.482.46,1.113,1.113,0,0,1-.436,1.5,3.7,3.7,0,0,0-1.8,2.2,3.847,3.847,0,0,0,.261,2.813c.011.022.019.034.024.046a1.1,1.1,0,1,1-1.935,1.039l-.025-.046" transform="translate(-488.725 -474.855)" fill="#dbdcdc"/>
      </g>
    </g>
    <path id="Path_1425" data-name="Path 1425" d="M32-56A32,32,0,0,0,0-24,32,32,0,0,0,32,8,32,32,0,0,0,64-24,32,32,0,0,0,32-56ZM32,2A26.029,26.029,0,0,1,6-24,26.029,26.029,0,0,1,32-50,26.029,26.029,0,0,1,58-24,26.029,26.029,0,0,1,32,2Zm0-20a3,3,0,0,0,3-3V-37a3,3,0,0,0-3-3,3,3,0,0,0-3,3v16A3,3,0,0,0,32-18Zm0,4.138a3.931,3.931,0,0,0-3.93,3.93A3.933,3.933,0,0,0,32-6a3.927,3.927,0,0,0,3.93-3.93A3.933,3.933,0,0,0,32-13.862Z" transform="translate(928 359)" fill="#606060"/>
  </g>
</svg>
