<svg xmlns="http://www.w3.org/2000/svg" xmlns:xlink="http://www.w3.org/1999/xlink" width="178" height="160" viewBox="0 0 178 160">
  <defs>
    <clipPath id="clip-path">
      <rect id="Rectangle_3359" data-name="Rectangle 3359" width="178" height="160" fill="none"/>
    </clipPath>
    <clipPath id="clip-path-2">
      <rect id="Rectangle_3429" data-name="Rectangle 3429" width="64" height="80" fill="none"/>
    </clipPath>
    <clipPath id="clip-path-4">
      <rect id="Rectangle_3422" data-name="Rectangle 3422" width="32" height="20.663" fill="none"/>
    </clipPath>
    <clipPath id="clip-path-5">
      <rect id="Rectangle_3423" data-name="Rectangle 3423" width="46.395" height="11.193" fill="none"/>
    </clipPath>
    <clipPath id="clip-path-6">
      <rect id="Rectangle_3424" data-name="Rectangle 3424" width="40.626" height="68.583" fill="none"/>
    </clipPath>
    <clipPath id="clip-path-7">
      <rect id="Rectangle_3425" data-name="Rectangle 3425" width="20.261" height="66.976" fill="none"/>
    </clipPath>
    <clipPath id="clip-path-8">
      <rect id="Rectangle_3426" data-name="Rectangle 3426" width="19.197" height="63.096" fill="none"/>
    </clipPath>
    <clipPath id="clip-path-9">
      <rect id="Rectangle_3427" data-name="Rectangle 3427" width="13.188" height="65.618" fill="none"/>
    </clipPath>
  </defs>
  <g id="Error_Service_Unavailable_Graphic" transform="translate(-871 -255)">
    <g id="Group_1660" data-name="Group 1660" transform="translate(871 255)">
      <g id="Group_1659" data-name="Group 1659" clip-path="url(#clip-path)">
        <path id="Path_1418" data-name="Path 1418" d="M108.789,165.861c-9.352,6.435-20.341,6.488-29.382-.214C56.388,148.6,57.5,160.86,37.556,155.493c-30.959-8.34-3.96-36.98-26.033-54.131C-2,90.854-7.515,58.942,17.034,55.272,45.025,51.1,41.362,36.565,61.2,26.375c23.045-11.85,32.95,3.17,43.545,10.056,11.241,7.308,30.816-2.533,41.841,13.361,8.736,12.607-6.417,23.041,14.715,48.842,11.749,14.354,3.639,39.055-14.2,42.994-27.724,6.126-23.529,14.057-38.312,24.233" transform="translate(0 -17.164)" fill="#f2dede" fill-rule="evenodd"/>
        <path id="Path_1419" data-name="Path 1419" d="M747.661,284.945a6.143,6.143,0,0,0-3.6-2.937,5.992,5.992,0,0,0-4.659.434,1.814,1.814,0,0,1-2.458-.761,1.839,1.839,0,0,1,.729-2.486,6.029,6.029,0,0,0,2.947-3.648,6.177,6.177,0,0,0-.469-4.707,1.818,1.818,0,1,1,3.2-1.719,6.14,6.14,0,0,0,3.639,3.006,5.99,5.99,0,0,0,4.66-.434,1.84,1.84,0,0,1,1.729,3.248,6.028,6.028,0,0,0-2.947,3.648,6.184,6.184,0,0,0,.432,4.638c.013.023.025.047.037.07a1.838,1.838,0,0,1-.746,2.48,1.814,1.814,0,0,1-2.458-.761c-.012-.023-.025-.047-.036-.069" transform="translate(-576.994 -209.547)" fill="#a12722" opacity="0.495"/>
        <path id="Path_1420" data-name="Path 1420" d="M252.621,686.9a4.317,4.317,0,0,0-2.5-2.05,4.268,4.268,0,0,0-3.259.3,1.274,1.274,0,0,1-1.2-2.25,4.3,4.3,0,0,0,2.061-2.553,4.37,4.37,0,0,0-.339-3.287,1.265,1.265,0,1,1,2.23-1.2,4.351,4.351,0,0,0,2.546,2.1,4.226,4.226,0,0,0,3.259-.3,1.274,1.274,0,0,1,1.2,2.249,4.251,4.251,0,0,0-2.061,2.552,4.357,4.357,0,0,0,.3,3.235l.031.057a1.266,1.266,0,1,1-2.23,1.2l-.03-.057" transform="translate(-191.66 -527.63)" fill="#a12722" opacity="0.495"/>
        <path id="Path_1421" data-name="Path 1421" d="M493.827,11.72a4.351,4.351,0,0,0-2.509-2.062,4.255,4.255,0,0,0-3.253.315,1.281,1.281,0,0,1-1.2-2.261,4.319,4.319,0,0,0,1.729-5.827,1.28,1.28,0,0,1,.515-1.738,1.267,1.267,0,0,1,1.714.541,4.32,4.32,0,0,0,2.54,2.09,4.217,4.217,0,0,0,3.247-.3,1.281,1.281,0,0,1,1.2,2.261,4.229,4.229,0,0,0-2.055,2.534,4.385,4.385,0,0,0,.3,3.247l.024.046a1.266,1.266,0,1,1-2.231,1.2l-.024-.045" transform="translate(-380.35 0)" fill="#f2dede"/>
        <path id="Path_1422" data-name="Path 1422" d="M90.7,69.056A5.2,5.2,0,0,0,87.685,66.6a5.051,5.051,0,0,0-3.913.359,1.513,1.513,0,0,1-2.057-.638,1.534,1.534,0,0,1,.615-2.071,5.126,5.126,0,0,0,2.476-3.055,5.222,5.222,0,0,0-.393-3.936,1.516,1.516,0,1,1,2.671-1.433,5.188,5.188,0,0,0,3.042,2.514,5.093,5.093,0,0,0,3.907-.371,1.535,1.535,0,0,1,1.442,2.709A5.085,5.085,0,0,0,93,63.744a5.233,5.233,0,0,0,.362,3.878l.031.058a1.516,1.516,0,1,1-2.671,1.433l-.03-.058" transform="translate(-63.783 -42.979)" fill="#a12722" opacity="0.495"/>
        <path id="Path_1423" data-name="Path 1423" d="M16.673,464.2a5.558,5.558,0,0,0-3.218-2.627,5.38,5.38,0,0,0-4.154.4,1.638,1.638,0,0,1-1.541-2.892,5.424,5.424,0,0,0,2.633-3.257,5.578,5.578,0,0,0-.419-4.2,1.619,1.619,0,1,1,2.852-1.53,5.54,5.54,0,0,0,3.249,2.683,5.388,5.388,0,0,0,4.16-.387,1.623,1.623,0,0,1,2.2.681,1.644,1.644,0,0,1-.656,2.211,5.413,5.413,0,0,0-2.638,3.245,5.537,5.537,0,0,0,.388,4.146l.037.068a1.619,1.619,0,1,1-2.852,1.53l-.036-.069" transform="translate(-5.404 -351.047)" fill="#f2dede"/>
        <path id="Path_1424" data-name="Path 1424" d="M631.36,617.828a3.756,3.756,0,0,0-2.185-1.779,3.649,3.649,0,0,0-2.811.269,1.112,1.112,0,0,1-1.045-1.963,3.683,3.683,0,0,0,1.778-2.208,3.771,3.771,0,0,0-.284-2.858,1.1,1.1,0,1,1,1.935-1.039,3.8,3.8,0,0,0,2.209,1.825,3.688,3.688,0,0,0,2.828-.264,1.093,1.093,0,0,1,1.482.46,1.113,1.113,0,0,1-.436,1.5,3.7,3.7,0,0,0-1.8,2.2,3.847,3.847,0,0,0,.261,2.813c.011.022.019.034.024.046a1.1,1.1,0,1,1-1.935,1.039l-.025-.046" transform="translate(-488.725 -474.855)" fill="#f2dede"/>
      </g>
    </g>
    <g id="Group_1675" data-name="Group 1675" transform="translate(928 295)">
      <g id="Group_1695" data-name="Group 1695" clip-path="url(#clip-path-2)">
        <g id="Group_1694" data-name="Group 1694" transform="translate(0 0)">
          <g id="Group_1693" data-name="Group 1693" clip-path="url(#clip-path-2)">
            <path id="Path_1426" data-name="Path 1426" d="M64.007,2225.079l-.52.519a1.464,1.464,0,0,0-.339-.207l-31.142-13.677L.866,2225.391a1.485,1.485,0,0,0-.338.207l-.519-.518v1.568c0,.035,0,.071,0,.107v0h0a1.413,1.413,0,0,0,.755,1.208l29.449,15.806a3.8,3.8,0,0,0,3.589,0l29.449-15.806a1.413,1.413,0,0,0,.755-1.209h0Z" transform="translate(-0.008 -2164.224)" fill="#d8292f"/>
            <g id="Group_1677" data-name="Group 1677" transform="translate(32 59.337)" opacity="0.39">
              <g id="Group_1676" data-name="Group 1676">
                <g id="Group_1675-2" data-name="Group 1675" clip-path="url(#clip-path-4)">
                  <path id="Path_1427" data-name="Path 1427" d="M1519.851,2764.96v1.679h0a1.415,1.415,0,0,1-.755,1.209l-29.449,15.806a3.792,3.792,0,0,1-1.794.451v-7.02l26.974-13.643,4.167,1.83a1.468,1.468,0,0,1,.338.207Z" transform="translate(-1487.851 -2763.441)" fill="#a12722"/>
                </g>
              </g>
            </g>
            <path id="Path_1428" data-name="Path 1428" d="M63.244,2331.272l-29.449,15.806a3.793,3.793,0,0,1-3.589,0L.756,2331.272a1.433,1.433,0,0,1,.1-2.576l7.764-3.409,14.666-6.441H40.713l14.305,6.283,8.124,3.568a1.433,1.433,0,0,1,.1,2.576" transform="translate(0 -2269.056)" fill="#d8292f"/>
            <g id="Group_1680" data-name="Group 1680" transform="translate(8.622 49.79)" opacity="0.39">
              <g id="Group_1679" data-name="Group 1679">
                <g id="Group_1678" data-name="Group 1678" clip-path="url(#clip-path-5)">
                  <path id="Path_1429" data-name="Path 1429" d="M447.274,2325.128l-2.739,4.91-40.581-.336-3.075-4.415,14.666-6.441h17.425Z" transform="translate(-400.878 -2318.846)" fill="#a12722"/>
                </g>
              </g>
            </g>
            <g id="Group_1683" data-name="Group 1683" transform="translate(11.688 0.269)" opacity="0.6">
              <g id="Group_1682" data-name="Group 1682">
                <g id="Group_1681" data-name="Group 1681" clip-path="url(#clip-path-6)">
                  <path id="Path_1430" data-name="Path 1430" d="M569.372,80.7a36.437,36.437,0,0,1-4.768.4,39.931,39.931,0,0,1-12.054-1.75c-.8-.242-1.559-.5-2.277-.769-4.285-1.6-7.042-4.3-6.846-5.345h.011l9.283-33.227,2.7-9.881,1.6-5.84L560.1,13.041l.9-.128,2.459-.351.269-.038h0l.052.007,3.578.51,3.077,11.248,1.6,5.841,2.7,9.88L584.008,72.9h.024c.312,1.636-6.256,6.551-14.66,7.8" transform="translate(-543.417 -12.523)" fill="#a12722"/>
                </g>
              </g>
            </g>
            <path id="Path_1431" data-name="Path 1431" d="M569.372,79.506a37.075,37.075,0,0,1-4.768.392,40.593,40.593,0,0,1-12.054-1.719c-.8-.238-1.559-.492-2.277-.756-4.285-1.574-7.042-3.5-6.846-4.522l.011-.039,9.283-33.334,2.7-9.707,1.6-5.738L560.1,13.032l.9-.126,2.459-.345.269-.037h0l.052.007,3.578.5,3.077,11.051,1.6,5.739,2.7,9.707,9.269,33.286.024.087c.312,1.607-6.256,5.377-14.66,6.605" transform="translate(-531.73 -12.254)" fill="#d8292f"/>
            <path id="Path_1432" data-name="Path 1432" d="M998.031,827.805a27.488,27.488,0,0,1-22.017,0l2.7-9.707a28.731,28.731,0,0,0,16.611,0Z" transform="translate(-955.021 -800.532)" fill="#ededed"/>
            <path id="Path_1433" data-name="Path 1433" d="M710.809,1793.352c-3.759,3.126-10.178,5.186-17.464,5.186s-13.7-2.06-17.463-5.185l3.4-12.209a27.9,27.9,0,0,0,28.128,0Z" transform="translate(-661.344 -1742.898)" fill="#ededed"/>
            <g id="Group_1686" data-name="Group 1686" transform="translate(32.053 0.276)" opacity="0.39">
              <g id="Group_1685" data-name="Group 1685">
                <g id="Group_1684" data-name="Group 1684" clip-path="url(#clip-path-7)">
                  <path id="Path_1434" data-name="Path 1434" d="M1495.89,79.836,1490.3,12.86l3.578.5,3.078,11.051,1.6,5.739,2.7,9.707,9.269,33.286.025.087c.312,1.607-6.256,5.377-14.66,6.605" transform="translate(-1490.3 -12.86)" fill="#a12722"/>
                </g>
              </g>
            </g>
            <g id="Group_1689" data-name="Group 1689" transform="translate(33.116 0.425)" opacity="0.39">
              <g id="Group_1688" data-name="Group 1688">
                <g id="Group_1687" data-name="Group 1687" clip-path="url(#clip-path-8)">
                  <path id="Path_1435" data-name="Path 1435" d="M1555.978,82.9,1546.8,47.213,1544.1,36.7l-1.6-6.218-2.743-10.67,2.514.352,3.078,11.051,1.6,5.739,2.7,9.707,9.269,33.286.024.087c.133.686-.987,1.766-2.969,2.875" transform="translate(-1539.761 -19.808)" fill="#a12722"/>
                </g>
              </g>
            </g>
            <g id="Group_1692" data-name="Group 1692" transform="translate(18.543 0.306)" opacity="0.28">
              <g id="Group_1691" data-name="Group 1691">
                <g id="Group_1690" data-name="Group 1690" clip-path="url(#clip-path-9)">
                  <path id="Path_1436" data-name="Path 1436" d="M875.374,14.268,864.463,79.886c-.8-.238-1.559-.492-2.277-.756l10.729-64.517Z" transform="translate(-862.186 -14.268)" fill="#ededed"/>
                </g>
              </g>
            </g>
            <path id="Path_1437" data-name="Path 1437" d="M1326.349.779c0,.429-1.625.777-3.63.777s-3.63-.348-3.63-.777,1.625-.777,3.63-.777,3.63.348,3.63.777" transform="translate(-1290.718 -0.002)" fill="#ef827b"/>
            <path id="Path_1438" data-name="Path 1438" d="M1351.739,12.95c0,.235-1.37.426-3.059.426s-3.059-.191-3.059-.426,1.37-.426,3.059-.426,3.059.191,3.059.426" transform="translate(-1316.68 -12.255)" fill="#d73315"/>
            <path id="Path_1439" data-name="Path 1439" d="M1351.739,26.247c0,.236-1.37.427-3.06.427s-3.059-.191-3.059-.427c0-.047.054-.092.155-.134a14.6,14.6,0,0,0,5.809,0c.1.042.155.087.155.134" transform="translate(-1316.68 -25.552)" fill="#c71618"/>
          </g>
        </g>
      </g>
    </g>
  </g>
</svg>
