<svg id="ICEPAY_Logo" xmlns="http://www.w3.org/2000/svg" xmlns:xlink="http://www.w3.org/1999/xlink" width="80" height="24" viewBox="0 0 80 24">
  <defs>
    <clipPath id="clip-path">
      <rect id="Rectangle_3431" data-name="Rectangle 3431" width="80" height="24" fill="none"/>
    </clipPath>
  </defs>
  <path id="Path_1440" data-name="Path 1440" d="M0,26.182l10.158,6.081v-3.3l-7.43-4.038v-8.8L0,14.67Z" transform="translate(0 -8.263)" fill="#658399"/>
  <path id="Path_1441" data-name="Path 1441" d="M31.61,16.152v8.8l-7.473,4.038v3.3l9.972-6.11V14.726Z" transform="translate(-13.643 -8.295)" fill="#6d8ea7"/>
  <path id="Path_1442" data-name="Path 1442" d="M10.326,0,0,5.936l2.728,1.4,7.6-4.261,7.642,4.244,2.5-1.36Z" transform="translate(0 0)" fill="#7092ab"/>
  <g id="Group_1694" data-name="Group 1694">
    <g id="Group_1693" data-name="Group 1693" clip-path="url(#clip-path)">
      <path id="Path_1443" data-name="Path 1443" d="M18.322,24.05V20.294l4.355-2.466v-.366l-4.526,2.483-4.3-2.483v.366l4.137,2.45V24.05ZM32.143,14.6h2.735V26.069H32.143ZM41.519,26.07h4.1V23.831H41.633a2.477,2.477,0,0,1-2.006-.7,4.08,4.08,0,0,1-.58-2.5,5.419,5.419,0,0,1,.614-2.963,2.2,2.2,0,0,1,1.972-.865h3.989V14.6H41.587a5.258,5.258,0,0,0-4.072,1.458A6.527,6.527,0,0,0,36.2,20.534a7.427,7.427,0,0,0,.438,2.679,4.321,4.321,0,0,0,1.327,1.843,4.269,4.269,0,0,0,1.458.783,7.625,7.625,0,0,0,2.1.23m6.14-10.007a6.527,6.527,0,0,0-1.315,4.472,7.4,7.4,0,0,0,.437,2.679,4.327,4.327,0,0,0,1.327,1.843,4.252,4.252,0,0,0,1.456.783,7.625,7.625,0,0,0,2.1.23h4.1V23.831H51.776a2.592,2.592,0,0,1-1.924-.593,2.752,2.752,0,0,1-.573-1.85h6.48V19.151L49.3,19.143a2.616,2.616,0,0,1,.66-1.7,2.491,2.491,0,0,1,1.814-.6h3.983V14.606H51.73A5.249,5.249,0,0,0,47.66,16.063Zm19.7,4.11a4.392,4.392,0,0,0,.33-1.781,4.182,4.182,0,0,0-.405-1.877,3.322,3.322,0,0,0-1.2-1.332,3.5,3.5,0,0,0-1.27-.442,12.588,12.588,0,0,0-2.076-.136H57.518V26.07h2.629V22.163h2.692a10.63,10.63,0,0,0,2.2-.167,3.659,3.659,0,0,0,1.3-.574,3.049,3.049,0,0,0,1.017-1.249m-3.023-.653a2.4,2.4,0,0,1-1.483.375H60.147V16.889H62.71a2.874,2.874,0,0,1,1.643.348,1.36,1.36,0,0,1,.444,1.155,1.34,1.34,0,0,1-.459,1.128M71.261,14.6,66.432,26.069h2.8l.99-2.66h4.633l1.021,2.66H78.8L73.936,14.6Zm-.167,6.521,1.417-3.748,1.47,3.748ZM84.754,14.6l-2.7,4.142L79.381,14.6H76.393l4.375,6.432V26.07H83.4V21.037l4.43-6.432Z" transform="translate(-7.827 -8.227)" fill="#231f20"/>
    </g>
  </g>
</svg>
