<svg id="Mastercard_Logo" xmlns="http://www.w3.org/2000/svg" width="39" height="24" viewBox="0 0 39 24">
  <path id="rect887" d="M224.833,42.3h11.6V61.164h-11.6Z" transform="translate(-211.132 -39.732)" fill="#ff5f00"/>
  <path id="path889" d="M14.9,12.071A11.958,11.958,0,0,1,19.5,2.64,12.092,12.092,0,0,0,3.2,3.933a11.958,11.958,0,0,0,0,16.279,12.092,12.092,0,0,0,16.3,1.294,11.958,11.958,0,0,1-4.6-9.435Z" transform="translate(-0.001 -0.07)" fill="#eb001b"/>
  <path id="path891" d="M617.542,313.17v-.387h.167v-.08h-.4v.08h.157v.387Zm.773,0V312.7h-.12l-.141.333-.141-.333h-.12v.467h.087v-.353l.13.3h.09l.13-.3v.353Z" transform="translate(-579.694 -293.734)" fill="#f79e1b"/>
  <path id="path893" d="M339.486,12a12.056,12.056,0,0,1-19.5,9.431,11.964,11.964,0,0,0,0-18.866A12.056,12.056,0,0,1,339.486,12Z" transform="translate(-300.486 0.002)" fill="#f79e1b"/>
</svg>
