<svg xmlns="http://www.w3.org/2000/svg" width="240" height="118" viewBox="0 0 240 118">
  <g id="Group_1848" data-name="Group 1848" transform="translate(11 -3505)">
    <g id="Group_1802" data-name="Group 1802" transform="translate(17 3505)">
      <g id="Ellipse_177" data-name="Ellipse 177" fill="#fff" stroke="#313132" stroke-width="4">
        <circle cx="20" cy="20" r="20" stroke="none"/>
        <circle cx="20" cy="20" r="18" fill="none"/>
      </g>
      <g id="Ellipse_178" data-name="Ellipse 178" transform="translate(5.217 5.217)" fill="#fff" stroke="#313132" stroke-width="2">
        <circle cx="14.783" cy="14.783" r="14.783" stroke="none"/>
        <circle cx="14.783" cy="14.783" r="13.783" fill="none"/>
      </g>
      <circle id="Ellipse_179" data-name="Ellipse 179" cx="5.217" cy="5.217" r="5.217" transform="translate(14.783 14.783)" fill="#313132"/>
    </g>
    <g id="Group_1803" data-name="Group 1803" transform="translate(138 3505)">
      <g id="Ellipse_177-2" data-name="Ellipse 177" fill="#fff" stroke="#313132" stroke-width="4">
        <circle cx="20" cy="20" r="20" stroke="none"/>
        <circle cx="20" cy="20" r="18" fill="none"/>
      </g>
      <g id="Ellipse_178-2" data-name="Ellipse 178" transform="translate(5.217 5.217)" fill="#fff" stroke="#313132" stroke-width="2">
        <circle cx="14.783" cy="14.783" r="14.783" stroke="none"/>
        <circle cx="14.783" cy="14.783" r="13.783" fill="none"/>
      </g>
      <circle id="Ellipse_179-2" data-name="Ellipse 179" cx="5.217" cy="5.217" r="5.217" transform="translate(14.783 14.783)" fill="#313132"/>
    </g>
    <g id="Group_1804" data-name="Group 1804" transform="translate(182 3505)">
      <g id="Ellipse_177-3" data-name="Ellipse 177" fill="#fff" stroke="#313132" stroke-width="4">
        <circle cx="20" cy="20" r="20" stroke="none"/>
        <circle cx="20" cy="20" r="18" fill="none"/>
      </g>
      <g id="Ellipse_178-3" data-name="Ellipse 178" transform="translate(5.217 5.217)" fill="#fff" stroke="#313132" stroke-width="2">
        <circle cx="14.783" cy="14.783" r="14.783" stroke="none"/>
        <circle cx="14.783" cy="14.783" r="13.783" fill="none"/>
      </g>
      <circle id="Ellipse_179-3" data-name="Ellipse 179" cx="5.217" cy="5.217" r="5.217" transform="translate(14.783 14.783)" fill="#313132"/>
    </g>
    <line id="Line_1497" data-name="Line 1497" y2="16" transform="translate(37 3553)" fill="none" stroke="#313132" stroke-width="2"/>
    <line id="Line_1498" data-name="Line 1498" y2="16" transform="translate(158 3553)" fill="none" stroke="#313132" stroke-width="2"/>
    <line id="Line_1499" data-name="Line 1499" y2="16" transform="translate(202 3553)" fill="none" stroke="#313132" stroke-width="2"/>
    <text id="No._of_Axles_1" data-name="No. of Axles
1" transform="translate(37 3594)" fill="#313132" font-size="16" font-family="BCSans-Bold, BC Sans" font-weight="700"><tspan x="-47.232" y="0">No. of Axles</tspan><tspan x="-4.576" y="24">1</tspan></text>
    <text id="No._of_Axles_2" data-name="No. of Axles
2" transform="translate(181 3594)" fill="#313132" font-size="16" font-family="BCSans-Bold, BC Sans" font-weight="700"><tspan x="-47.232" y="0">No. of Axles</tspan><tspan x="-4.576" y="24">2</tspan></text>
  </g>
</svg>
