<?xml version="1.0" encoding="UTF-8" standalone="no"?>
<svg
   width="1000"
   height="1000"
   viewBox="0 0 264.58333 264.58333"
   version="1.1"
   id="svg5"
   xmlns="http://www.w3.org/2000/svg"
   xmlns:svg="http://www.w3.org/2000/svg">
  <defs
     id="defs2" />
  <g
     id="layer1">
    <path
       style="color:#000000;fill:#000000;stroke-width:3.4469;stroke-linecap:round"
       d="m 174.55059,57.642417 c -22.36218,0 -40.71657,18.354321 -40.71657,40.716566 0,22.362237 18.35439,40.716557 40.71657,40.716557 22.36231,0 40.7166,-18.35436 40.7166,-40.716557 0,-22.36221 -18.35429,-40.716566 -40.7166,-40.716566 z m 0,6.89381 c 18.59388,0 33.82279,15.228944 33.82279,33.822756 0,18.593837 -15.22891,33.822747 -33.82279,33.822747 -18.59375,0 -33.82276,-15.22894 -33.82276,-33.822747 0,-18.593812 15.22901,-33.822756 33.82276,-33.822756 z m 0,10.434954 c -12.93675,0 -23.38777,10.450947 -23.38777,23.387802 0,12.936847 10.45102,23.387757 23.38777,23.387757 12.93689,0 23.38108,-10.45091 23.38108,-23.387757 0,-12.936855 -10.44419,-23.387802 -23.38108,-23.387802 z m 0,6.89381 c 9.28624,0 16.48727,7.207788 16.48727,16.493992 0,9.286197 -7.20103,16.493947 -16.48727,16.493947 -9.28603,0 -16.49396,-7.20778 -16.49396,-16.493947 0,-9.286169 7.20793,-16.493992 16.49396,-16.493992 z"
       id="path2031-7-2-6-5-0-3-0" />
    <path
       id="path12783"
       style="color:#000000;fill:#000000;stroke-width:6.89381;stroke-linecap:round;stroke-linejoin:round"
       d="m 174.55059,152.86302 c -1.9036,5e-5 -3.44677,1.54321 -3.44682,3.44681 v 24.12876 H 88.378067 c -1.903606,5e-5 -3.446771,1.54322 -3.446818,3.44682 4.7e-5,1.90361 1.543212,3.44678 3.446818,3.44682 h 82.725703 v 20.68142 c 4e-5,1.90361 1.54321,3.44678 3.44682,3.44682 1.9036,-4e-5 3.44677,-1.54321 3.44682,-3.44682 v -24.12824 -27.57558 c -5e-5,-1.9036 -1.54322,-3.44676 -3.44682,-3.44681 z" />
  </g>
</svg>
