<?xml version="1.0" encoding="UTF-8" standalone="no"?>
<svg
   width="1000"
   height="1000"
   viewBox="0 0 264.58333 264.58333"
   version="1.1"
   id="svg5"
   xmlns="http://www.w3.org/2000/svg"
   xmlns:svg="http://www.w3.org/2000/svg">
  <defs
     id="defs2" />
  <g
     id="layer1">
    <path
       style="color:#000000;fill:#000000;stroke-width:3.4469;stroke-linecap:round"
       d="m 277.97992,57.642343 c -22.36214,0 -40.71657,18.354286 -40.71657,40.716531 0,22.362236 18.35443,40.716566 40.71657,40.716566 22.36231,0 40.71657,-18.35436 40.71657,-40.716566 0,-22.36221 -18.35429,-40.716531 -40.71657,-40.716531 z m 0,6.893775 c 18.59392,0 33.82276,15.228944 33.82276,33.822756 0,18.593846 -15.22884,33.822756 -33.82276,33.822756 -18.59374,0 -33.82276,-15.22895 -33.82276,-33.822756 0,-18.593812 15.22902,-33.822756 33.82276,-33.822756 z m 0,10.434954 c -12.93675,0 -23.38777,10.450947 -23.38777,23.387802 0,12.936846 10.45105,23.387766 23.38777,23.387766 12.93685,0 23.38108,-10.45092 23.38108,-23.387766 0,-12.936855 -10.44419,-23.387802 -23.38108,-23.387802 z m 0,6.89381 c 9.2862,0 16.48727,7.207823 16.48727,16.493992 0,9.286196 -7.20107,16.493956 -16.48724,16.493956 -9.28603,0 -16.49399,-7.20779 -16.49399,-16.493956 0,-9.286169 7.20796,-16.493992 16.49396,-16.493992 z"
       id="path2031-5-7-7-1-1-1-0-3-1-4-0-6-5-4-5" />
    <path
       style="color:#000000;fill:#000000;stroke-width:3.4469;stroke-linecap:round"
       d="m 191.80729,57.642343 c -22.36217,0 -40.71656,18.354286 -40.71656,40.716531 0,22.362236 18.35439,40.716566 40.71656,40.716566 22.36228,0 40.71657,-18.35436 40.71657,-40.716566 0,-22.36221 -18.35429,-40.716531 -40.71657,-40.716531 z m 0,6.893775 c 18.59392,0 33.82276,15.228944 33.82276,33.822756 0,18.593846 -15.22884,33.822756 -33.82276,33.822756 -18.59377,0 -33.82275,-15.22895 -33.82275,-33.822756 0,-18.593812 15.22898,-33.822756 33.82275,-33.822756 z m 0,10.434954 c -12.93675,0 -23.38776,10.450947 -23.38776,23.387802 0,12.936846 10.45101,23.387766 23.38776,23.387766 12.93683,0 23.38109,-10.45092 23.38109,-23.387766 0,-12.936855 -10.44423,-23.387802 -23.38109,-23.387802 z m 0,6.89381 c 9.28621,0 16.48728,7.207788 16.48728,16.493992 0,9.286196 -7.20107,16.493956 -16.48728,16.493956 -9.28606,0 -16.49395,-7.20779 -16.49395,-16.493956 0,-9.286169 7.20789,-16.493992 16.49395,-16.493992 z"
       id="path2031-7-1-4-3-5-8-4-4-4-8-8-6-8-8-3" />
    <path
       style="color:#000000;fill:#000000;stroke-width:3.4469;stroke-linecap:round"
       d="m 105.63467,57.642343 c -22.362175,0 -40.716565,18.354286 -40.716565,40.716531 0,22.362236 18.35439,40.716566 40.716565,40.716566 22.36231,0 40.7166,-18.35436 40.7166,-40.716566 0,-22.36221 -18.35429,-40.716531 -40.7166,-40.716531 z m 0,6.893775 c 18.59392,0 33.82279,15.228944 33.82279,33.822756 0,18.593846 -15.22887,33.822756 -33.82279,33.822756 -18.593743,0 -33.822755,-15.22895 -33.822755,-33.822756 0,-18.593812 15.229012,-33.822756 33.822755,-33.822756 z m 0,10.434954 c -12.936786,0 -23.387767,10.450947 -23.387767,23.387802 0,12.936846 10.451015,23.387766 23.387767,23.387766 12.93682,0 23.38105,-10.45092 23.38105,-23.387766 0,-12.936855 -10.4442,-23.387802 -23.38105,-23.387802 z m 0,6.89381 c 9.28624,0 16.48724,7.207788 16.48724,16.493992 0,9.286196 -7.20104,16.493956 -16.48724,16.493956 -9.286031,0 -16.493957,-7.20779 -16.493957,-16.493956 0,-9.286169 7.207926,-16.493992 16.493957,-16.493992 z"
       id="path2031-7-1-4-1-7-7-7-2-4-2-1-7-5-4-2-5" />
    <path
       style="color:#000000;fill:#000000;stroke-width:3.4469;stroke-linecap:round"
       d="m 19.462045,57.642343 c -22.3621752,0 -40.716565,18.354286 -40.716565,40.716531 0,22.362236 18.3543898,40.716566 40.716565,40.716566 22.362348,0 40.716634,-18.35436 40.716634,-40.716566 0,-22.36221 -18.354286,-40.716531 -40.716634,-40.716531 z m 0,6.893775 c 18.59395,0 33.822824,15.228944 33.822824,33.822756 0,18.593846 -15.228874,33.822756 -33.822824,33.822756 -18.59374299,0 -33.822755,-15.22895 -33.822755,-33.822756 0,-18.593812 15.22901201,-33.822756 33.822755,-33.822756 z m 0,10.434954 c -12.9367859,0 -23.3877674,10.450947 -23.3877674,23.387802 0,12.936846 10.451016,23.387766 23.3877674,23.387766 12.93682,0 23.38108,-10.45092 23.38108,-23.387766 0,-12.936855 -10.444225,-23.387802 -23.38108,-23.387802 z m 0,6.89381 c 9.286238,0 16.487236,7.207788 16.487236,16.493992 0,9.286196 -7.201033,16.493956 -16.487236,16.493956 -9.286031,0 -16.4939574,-7.20779 -16.4939574,-16.493956 0,-9.286169 7.2079264,-16.493992 16.4939574,-16.493992 z"
       id="path2031-7-1-4-1-7-7-5-9-6-0-5-8-1-9-1-3-1" />
    <path
       id="path11922"
       style="color:#000000;-inkscape-font-specification:'BC Sans, Normal';fill:#000000;stroke-width:1.40378;stroke-linecap:round;stroke-linejoin:round"
       d="m 96.754816,170.79681 v 0.001 c -1.692118,0 -3.201082,0.27341 -4.517553,0.84129 -1.313491,0.5666 -2.383018,1.39949 -3.150196,2.48409 -0.776294,1.0976 -1.164786,2.41204 -1.164786,3.86436 0,2.10265 0.604354,3.8704 1.837614,5.15731 1.198438,1.25053 2.933643,2.25487 5.184179,3.06286 1.502909,0.5636 2.673368,1.07732 3.50728,1.52807 0.811111,0.43844 1.330256,0.90171 1.595766,1.32654 0.27531,0.44041 0.43047,0.99835 0.43047,1.73013 0,1.0788 -0.36382,1.81621 -1.184944,2.43706 -0.801584,0.60607 -2.071069,0.96273 -3.857129,0.96273 -1.301636,0 -2.561618,-0.14833 -3.790466,-0.44442 -1.230851,-0.30195 -2.252778,-0.63929 -3.056144,-0.99632 -0.462479,-0.20241 -0.981018,0.13492 -0.983403,0.63975 v 3.06958 c 0.001,0.27139 0.15836,0.51789 0.40411,0.63304 0.884699,0.41636 1.948412,0.72752 3.204455,0.9493 1.258785,0.22232 2.618575,0.32969 4.079855,0.32969 2.887114,3e-5 5.269946,-0.65636 7.062096,-2.03295 1.80084,-1.38324 2.73317,-3.40872 2.73317,-5.83685 0,-1.42171 -0.2964,-2.65684 -0.92191,-3.66903 l -0.007,-0.007 c -0.58715,-0.98406 -1.4583,-1.81526 -2.57194,-2.47737 l -0.0134,-0.007 c -1.07466,-0.67338 -2.370951,-1.28686 -3.897956,-1.84433 -0.0022,-10e-6 -0.0045,-10e-6 -0.0067,0 -1.356263,-0.49108 -2.421641,-0.95111 -3.177584,-1.37356 -0.732366,-0.43321 -1.219757,-0.89322 -1.494482,-1.33273 -0.272961,-0.43669 -0.424264,-1.00596 -0.424264,-1.76424 0,-0.948 0.296612,-1.59066 0.956014,-2.13372 0.0023,-0.002 0.0045,-0.005 0.0067,-0.007 0.635006,-0.54161 1.659345,-0.86817 3.150712,-0.86817 1.037569,0 2.046557,0.12242 3.036507,0.37001 1.013113,0.25335 1.939933,0.56577 2.780193,0.92914 0.37012,0.15868 0.79757,-0.0259 0.93586,-0.40411 l 0.99632,-2.7466 c 0.12623,-0.34736 -0.0385,-0.7331 -0.37672,-0.88212 -1.02069,-0.44813 -2.12897,-0.8066 -3.33261,-1.07694 -1.222577,-0.27472 -2.548825,-0.41078 -3.971854,-0.41082 z" />
    <path
       id="path11928"
       style="color:#000000;-inkscape-font-specification:'BC Sans, Normal';fill:#000000;stroke-width:1.40378;stroke-linecap:round;stroke-linejoin:round"
       d="m 116.25854,171.15389 -6.73913,5.2e-4 c -0.38632,9.7e-4 -0.69925,0.3139 -0.70021,0.70021 v 25.4615 c 9.6e-4,0.38632 0.31389,0.69925 0.70021,0.70021 h 3.21118 c 0.38632,-9.6e-4 0.69925,-0.31389 0.70021,-0.70021 v -9.20978 h 2.22157 c 1.98029,0 3.66206,-0.23233 5.0493,-0.72037 1.3734,-0.4756 2.51381,-1.11299 3.38584,-1.93218 0.002,-0.002 0.005,-0.004 0.007,-0.007 0.84999,-0.82422 1.47378,-1.77543 1.84485,-2.82774 v -0.007 c 0.38298,-1.04882 0.57877,-2.14154 0.57877,-3.26492 0,-2.52679 -0.84359,-4.61464 -2.52439,-6.05906 -1.71316,-1.47228 -4.31565,-2.13424 -7.73544,-2.13424 z m -2.82774,4.15427 h 2.54455 c 2.14983,0 3.63614,0.40369 4.49068,1.06402 0.002,0.002 0.004,0.004 0.007,0.007 0.88746,0.67049 1.32653,1.62286 1.32653,3.11041 0,1.72979 -0.49452,2.76393 -1.46813,3.40651 -0.002,0.002 -0.004,0.005 -0.007,0.007 -0.97575,0.65715 -2.65575,1.05679 -5.02915,1.05679 h -1.86449 z" />
    <path
       id="path11934"
       style="color:#000000;-inkscape-font-specification:'BC Sans, Normal';fill:#000000;stroke-width:1.40378;stroke-linecap:round;stroke-linejoin:round"
       d="m 131.08915,171.15441 c -0.38632,9.7e-4 -0.69925,0.3139 -0.70021,0.70021 v 25.4615 c 9.6e-4,0.38632 0.31389,0.69925 0.70021,0.70021 h 3.21118 c 0.38632,-9.6e-4 0.69925,-0.31389 0.70021,-0.70021 v -9.81594 h 3.95893 l 5.97122,10.17251 c 0.1257,0.21177 0.35318,0.34218 0.59944,0.34364 h 3.74965 c 0.542,-0.007 0.87183,-0.59965 0.59221,-1.06401 l -6.57738,-10.74457 c 0.40592,-0.17613 0.82625,-0.32041 1.21181,-0.5519 h -0.0134 c 0.68511,-0.39522 1.29333,-0.89786 1.81797,-1.5012 0.53224,-0.61203 0.95415,-1.32925 1.26556,-2.13424 0.34718,-0.85952 0.5116,-1.83381 0.5116,-2.92178 0,-2.59148 -0.8296,-4.67089 -2.51096,-6.00532 -1.68734,-1.33916 -4.18695,-1.9389 -7.45949,-1.9389 z m 3.91139,4.18734 h 2.93522 c 2.01203,0 3.41849,0.3575 4.22817,0.93586 0.004,0.002 0.009,0.005 0.0134,0.007 0.78107,0.53934 1.19165,1.43184 1.19165,2.95538 0,1.45021 -0.40407,2.4181 -1.18494,3.10369 -0.72995,0.63635 -2.065,1.04334 -4.06641,1.04334 h -3.11713 z" />
    <path
       id="path11940"
       style="color:#000000;-inkscape-font-specification:'BC Sans, Normal';fill:#000000;stroke-width:1.40378;stroke-linecap:round;stroke-linejoin:round"
       d="m 153.27178,171.15441 c -0.38894,-0.003 -0.70597,0.31127 -0.70693,0.70021 v 25.4615 c 9.6e-4,0.38895 0.31799,0.70297 0.70693,0.70021 h 14.22549 c 0.38632,-9.6e-4 0.69925,-0.31389 0.70021,-0.70021 v -2.8143 c 0.003,-0.38893 -0.31126,-0.70597 -0.70021,-0.70693 h -10.3141 v -7.68791 h 9.67434 c 0.38632,-9.5e-4 0.69926,-0.31389 0.70022,-0.70021 v -2.78071 c -0.001,-0.38612 -0.3141,-0.69874 -0.70022,-0.6997 h -9.67434 v -6.5505 h 10.3141 c 0.38632,-9.6e-4 0.69925,-0.3139 0.70021,-0.70022 v -2.82102 c -9.6e-4,-0.38631 -0.31389,-0.69924 -0.70021,-0.70021 z" />
    <path
       id="path11946"
       style="color:#000000;-inkscape-font-specification:'BC Sans, Normal';fill:#000000;stroke-width:1.40378;stroke-linecap:round;stroke-linejoin:round"
       d="m 179.5818,171.04692 c -0.29002,0.001 -0.54956,0.18027 -0.65319,0.45114 l -9.94358,25.56226 c -0.17845,0.45964 0.16013,0.95518 0.65319,0.95601 h 3.24477 c 0.29002,-0.001 0.54956,-0.18025 0.65319,-0.45113 l 2.85408,-7.4259 h 9.12916 l 2.89492,7.43262 c 0.10579,0.26823 0.36485,0.44449 0.65319,0.44441 h 3.31866 c 0.49306,-8.3e-4 0.83164,-0.49637 0.65319,-0.95601 l -9.90999,-25.56226 c -0.1045,-0.27317 -0.36743,-0.45292 -0.65991,-0.45114 z m 1.4273,6.48384 c 0.0882,0.29055 0.17521,0.57926 0.24857,0.85421 0.006,0.0182 0.0131,0.0361 0.0207,0.0537 0.11991,0.33572 0.19909,0.56522 0.2558,0.70693 l 2.49752,6.73912 h -6.03891 l 2.53163,-6.75927 c 0.002,-0.002 0.004,-0.005 0.007,-0.007 0.14238,-0.40368 0.29953,-0.94717 0.478,-1.5875 z" />
    <path
       id="path11952"
       style="color:#000000;-inkscape-font-specification:'BC Sans, Normal';fill:#000000;stroke-width:1.40378;stroke-linecap:round;stroke-linejoin:round"
       d="m 195.88055,171.15441 c -0.38632,9.6e-4 -0.69926,0.31389 -0.70022,0.70021 v 25.4615 c 9.6e-4,0.38632 0.3139,0.69926 0.70022,0.70021 h 7.09569 c 4.30457,0 7.76335,-1.12775 10.2464,-3.43338 2.52144,-2.34314 3.75636,-5.81651 3.75636,-10.24692 0,-2.79809 -0.53019,-5.20229 -1.62212,-7.18302 -1.08647,-1.97081 -2.66613,-3.48746 -4.68602,-4.4974 -1.99181,-1.00853 -4.31648,-1.5012 -6.94738,-1.5012 z m 3.91139,4.15375 h 3.46697 c 2.94488,0 5.10264,0.74428 6.61096,2.18798 0.002,0.002 0.005,0.005 0.007,0.007 1.50256,1.39675 2.3089,3.65763 2.3089,6.94067 0,3.25593 -0.82035,5.57164 -2.3766,7.09569 -1.55624,1.52404 -3.93199,2.32957 -7.26415,2.32957 h -2.75332 z" />
    <path
       id="path11958"
       style="color:#000000;fill:#000000;stroke-width:6.89381;stroke-linecap:round;stroke-linejoin:round"
       d="m 19.461861,152.86302 c -1.903606,5e-5 -3.446771,1.54322 -3.446818,3.44682 v 51.70382 c 5.3e-5,1.90361 1.543216,3.44677 3.446818,3.44681 1.903804,2.4e-4 3.447283,-1.543 3.447335,-3.44681 v -20.68143 h 48.256485 c 1.903606,-4e-5 3.446771,-1.54321 3.446818,-3.44682 2.35e-4,-1.9038 -1.543013,-3.44728 -3.446818,-3.44733 H 22.909196 v -24.12824 c -4.7e-5,-1.9038 -1.543527,-3.44705 -3.447335,-3.44682 z" />
    <path
       id="path11970"
       style="color:#000000;fill:#000000;stroke-width:6.89381;stroke-linecap:round;stroke-linejoin:round"
       d="m 229.72344,180.43808 c -1.904,-2.3e-4 -3.44756,1.54333 -3.44733,3.44733 5e-5,1.90381 1.54352,3.44706 3.44733,3.44682 h 48.25649 c 1.90361,-4e-5 3.44677,-1.54321 3.44682,-3.44682 2.3e-4,-1.9038 -1.54301,-3.44728 -3.44682,-3.44733 z" />
  </g>
</svg>
