<?xml version="1.0" encoding="UTF-8" standalone="no"?>
<svg
   width="1000"
   height="1000"
   viewBox="0 0 264.58333 264.58333"
   version="1.1"
   id="svg5"
   xmlns="http://www.w3.org/2000/svg"
   xmlns:svg="http://www.w3.org/2000/svg">
  <defs
     id="defs2" />
  <g
     id="layer1">
    <path
       id="path8001-0-3-4-9-0-0"
       style="color:#000000;fill:#000000;stroke-width:1.51024;stroke-linecap:round;stroke-linejoin:round"
       d="M 63.274173 148.23539 L 63.274173 148.23591 L -9.2702351 148.2509 A 1.5103878 1.5103878 0 0 0 -10.780737 149.76088 L -10.780737 154.29187 A 1.5103878 1.5103878 0 0 0 -9.2702351 155.80186 L -6.2497476 155.80134 A 1.5102368 1.5102368 0 0 0 -6.2497476 155.80186 A 1.5102368 1.5102368 0 0 0 -4.7397623 157.31184 L 1.3012125 157.31184 A 1.5102368 1.5102368 0 0 0 2.8111979 155.80186 A 1.5102368 1.5102368 0 0 0 2.8111979 155.79927 L 59.483707 155.78687 L 71.114005 171.78021 A 1.5103878 1.5103878 0 0 0 72.335635 172.39929 L 238.7415 172.39929 L 247.42262 194.10598 A 1.5103878 1.5103878 0 0 0 248.82667 195.05321 L 257.88813 195.05321 A 1.5103878 1.5103878 0 0 0 259.31854 194.02071 L 266.87001 171.3668 A 1.5103878 1.5103878 0 0 0 266.94959 170.88931 L 266.94959 166.35832 A 1.5103878 1.5103878 0 0 0 265.43909 164.84833 L 87.906778 164.84833 L 64.129418 148.50101 A 1.5103878 1.5103878 0 0 0 63.274173 148.23539 z M 62.804951 151.2564 L 86.582311 167.60372 A 1.5103878 1.5103878 0 0 0 87.437556 167.86882 L 263.92911 167.86882 L 263.92911 170.64488 L 256.79983 192.03272 L 249.84728 192.03272 L 241.16616 170.32914 A 1.5103878 1.5103878 0 0 0 239.76521 169.37932 L 73.105098 169.37932 L 61.4748 153.38908 A 1.5103878 1.5103878 0 0 0 60.253686 152.76638 L -7.7602497 152.78137 L -7.7602497 151.27138 L 62.804951 151.2564 z " />
    <path
       style="color:#000000;fill:#000000;stroke-width:1.51024;stroke-linecap:round"
       d="m 221.64134,175.98733 c -9.79782,0 -17.83968,8.0418 -17.83968,17.83966 0,9.79786 8.04186,17.83967 17.83968,17.83967 9.79788,0 17.83967,-8.04183 17.83967,-17.83967 0,-9.79784 -8.0418,-17.83966 -17.83967,-17.83966 z m 0,3.02046 c 8.14679,0 14.8192,6.67245 14.8192,14.8192 0,8.14676 -6.67241,14.8192 -14.8192,14.8192 -8.14672,0 -14.8192,-6.67246 -14.8192,-14.8192 0,-8.14675 6.67248,-14.8192 14.8192,-14.8192 z m 0,4.572 c -5.66815,0 -10.24719,4.57901 -10.24719,10.2472 0,5.66819 4.57906,10.24718 10.24719,10.24718 5.66819,0 10.24425,-4.57899 10.24425,-10.24718 0,-5.66819 -4.57605,-10.2472 -10.24425,-10.2472 z m 0,3.02047 c 4.06868,0 7.22378,3.15806 7.22378,7.22673 0,4.06868 -3.1551,7.22671 -7.22377,7.22671 -4.06861,0 -7.22672,-3.15804 -7.22672,-7.22671 0,-4.06867 3.15811,-7.22673 7.22671,-7.22673 z"
       id="path2031-5-7-7-1-1-1-0-3-1-4-0-96" />
    <path
       style="color:#000000;fill:#000000;stroke-width:1.51024;stroke-linecap:round"
       d="m 183.88542,175.98733 c -9.79783,0 -17.83968,8.0418 -17.83968,17.83966 0,9.79786 8.04185,17.83967 17.83968,17.83967 9.79787,0 17.83967,-8.04183 17.83967,-17.83967 0,-9.79784 -8.0418,-17.83966 -17.83967,-17.83966 z m 0,3.02046 c 8.14679,0 14.8192,6.67245 14.8192,14.8192 0,8.14676 -6.67241,14.8192 -14.8192,14.8192 -8.14673,0 -14.8192,-6.67246 -14.8192,-14.8192 0,-8.14675 6.67247,-14.8192 14.8192,-14.8192 z m 0,4.572 c -5.66815,0 -10.24719,4.57901 -10.24719,10.2472 0,5.66819 4.57904,10.24718 10.24719,10.24718 5.66817,0 10.24425,-4.57899 10.24425,-10.24718 0,-5.66819 -4.57606,-10.2472 -10.24425,-10.2472 z m 0,3.02047 c 4.06868,0 7.22378,3.15804 7.22378,7.22673 0,4.06868 -3.1551,7.22671 -7.22378,7.22671 -4.06863,0 -7.22671,-3.15804 -7.22671,-7.22671 0,-4.06867 3.15808,-7.22673 7.22671,-7.22673 z"
       id="path2031-7-1-4-3-5-8-4-4-4-8-8-5" />
    <path
       style="color:#000000;fill:#000000;stroke-width:1.51024;stroke-linecap:round"
       d="m 146.1295,175.98733 c -9.79783,0 -17.83968,8.0418 -17.83968,17.83966 0,9.79786 8.04185,17.83967 17.83968,17.83967 9.79788,0 17.83968,-8.04183 17.83968,-17.83967 0,-9.79784 -8.0418,-17.83966 -17.83968,-17.83966 z m 0,3.02046 c 8.14679,0 14.81921,6.67245 14.81921,14.8192 0,8.14676 -6.67242,14.8192 -14.81921,14.8192 -8.14672,0 -14.8192,-6.67246 -14.8192,-14.8192 0,-8.14675 6.67248,-14.8192 14.8192,-14.8192 z m 0,4.572 c -5.66816,0 -10.24719,4.57901 -10.24719,10.2472 0,5.66819 4.57904,10.24718 10.24719,10.24718 5.66817,0 10.24423,-4.57899 10.24423,-10.24718 0,-5.66819 -4.57604,-10.2472 -10.24423,-10.2472 z m 0,3.02047 c 4.0687,0 7.22376,3.15804 7.22376,7.22673 0,4.06868 -3.15508,7.22671 -7.22376,7.22671 -4.06861,0 -7.22671,-3.15804 -7.22671,-7.22671 0,-4.06867 3.1581,-7.22673 7.22671,-7.22673 z"
       id="path2031-7-1-4-1-7-7-7-2-4-2-1-7-4" />
    <path
       style="color:#000000;fill:#000000;stroke-width:1.51024;stroke-linecap:round"
       d="m 108.37358,175.98733 c -9.797831,0 -17.839676,8.0418 -17.839676,17.83966 0,9.79786 8.041845,17.83967 17.839676,17.83967 9.7979,0 17.8397,-8.04183 17.8397,-17.83967 0,-9.79784 -8.0418,-17.83966 -17.8397,-17.83966 z m 0,3.02046 c 8.1468,0 14.81923,6.67245 14.81923,14.8192 0,8.14676 -6.67243,14.8192 -14.81923,14.8192 -8.14672,0 -14.819202,-6.67246 -14.819202,-14.8192 0,-8.14675 6.672482,-14.8192 14.819202,-14.8192 z m 0,4.572 c -5.66816,0 -10.247187,4.57901 -10.247187,10.2472 0,5.66819 4.579037,10.24718 10.247187,10.24718 5.66817,0 10.24425,-4.57899 10.24425,-10.24718 0,-5.66819 -4.57606,-10.2472 -10.24425,-10.2472 z m 0,3.02047 c 4.0687,0 7.22376,3.15804 7.22376,7.22673 0,4.06868 -3.15508,7.22671 -7.22376,7.22671 -4.06861,0 -7.22671,-3.15804 -7.22671,-7.22671 0,-4.06867 3.1581,-7.22673 7.22671,-7.22673 z"
       id="path2031-7-1-4-1-7-7-5-9-6-0-5-8-1-2" />
    <path
       id="path34824"
       style="color:#000000;fill:#000000;stroke-width:3.02047;stroke-linecap:round;stroke-linejoin:round"
       d="m 108.48433,217.93295 c -0.83428,-1.4e-4 -1.51064,0.67622 -1.5105,1.5105 v 10.58488 l -7.911144,0.0724 c -0.832882,0.008 -1.501971,0.68898 -1.495516,1.52187 0.0064,0.83431 0.688089,1.50536 1.522388,1.49862 l 7.884272,-0.0718 v 9.0475 c -1.5e-4,0.83429 0.67621,1.51066 1.5105,1.51051 0.83409,-1.4e-4 1.51013,-0.67642 1.50998,-1.51051 v -9.06146 h 21.14342 c 0.83388,-1.4e-4 1.50984,-0.6761 1.50998,-1.50998 1.5e-4,-0.83408 -0.67589,-1.51035 -1.50998,-1.5105 h -21.14342 v -10.57145 c 1.5e-4,-0.83408 -0.67589,-1.51035 -1.50998,-1.5105 z" />
    <path
       id="path34830"
       style="color:#000000;fill:#000000;stroke-width:3.02047;stroke-linecap:round;stroke-linejoin:round"
       d="m 221.75183,217.93295 c -0.83408,1.5e-4 -1.51012,0.67642 -1.50998,1.5105 v 10.57145 h -19.63343 c -0.83408,1.5e-4 -1.51012,0.67642 -1.50998,1.5105 1.5e-4,0.83388 0.6761,1.50984 1.50998,1.50998 h 19.63343 v 9.06146 c -1.5e-4,0.83409 0.6759,1.51037 1.50998,1.51051 0.83429,1.5e-4 1.51065,-0.67622 1.5105,-1.51051 v -22.65339 c 1.5e-4,-0.83428 -0.67621,-1.51064 -1.5105,-1.5105 z" />
    <path
       id="path34890"
       style="color:#000000;fill:#000000;stroke-width:3.02047;stroke-linecap:round;stroke-linejoin:round"
       d="m 11.843721,230.0149 c -0.8341,-0.008 -1.516877,0.66141 -1.524971,1.49551 -0.0082,0.83411 0.661413,1.51688 1.495516,1.52497 l 8.716263,0.0858 c 0.834104,0.008 1.516883,-0.66141 1.524972,-1.49552 0.0082,-0.8341 -0.661414,-1.51688 -1.495516,-1.52497 z" />
    <path
       id="path18933"
       style="color:#000000;-inkscape-font-specification:'BC Sans, Normal';fill:#000000;stroke-width:0.607771;stroke-linecap:round;stroke-linejoin:round"
       d="m 33.973714,225.32706 c -0.710571,0 -1.347313,0.12282 -1.900153,0.37621 -0.551543,0.25293 -0.998674,0.62326 -1.320839,1.10742 -0.326016,0.48996 -0.487312,1.07825 -0.487312,1.72652 0,0.93857 0.251045,1.7267 0.768939,2.30115 0.502503,0.55741 1.232573,1.0049 2.175589,1.36528 0.631107,0.25157 1.126693,0.48302 1.4769,0.68421 0.340608,0.19573 0.557192,0.39946 0.668707,0.58911 0.115538,0.19664 0.17827,0.44649 0.17827,0.77307 0,0.48159 -0.151283,0.80965 -0.496084,1.08677 -0.336615,0.27054 -0.868473,0.42943 -1.618513,0.42943 -0.546579,0 -1.077653,-0.0663 -1.593693,-0.19845 -0.516867,-0.13479 -0.944199,-0.28193 -1.281584,-0.44131 -0.194274,-0.0922 -0.413668,0.0581 -0.414951,0.28422 v 1.37149 c 10e-4,0.12069 0.06718,0.23006 0.170011,0.28112 0.371475,0.18577 0.818193,0.32477 1.345658,0.42375 0.528564,0.0992 1.099391,0.14783 1.713068,0.14783 1.21239,0 2.211577,-0.2945 2.964155,-0.90899 0.75623,-0.61746 1.150841,-1.51909 1.150841,-2.60295 0,-0.63467 -0.124809,-1.18889 -0.387579,-1.64072 l -0.0029,-0.003 c -0.248207,-0.44221 -0.617172,-0.81083 -1.089336,-1.10742 -0.450939,-0.30009 -0.995179,-0.57211 -1.635557,-0.82062 v -5.2e-4 -5.1e-4 -5.3e-4 -5.2e-4 -5.1e-4 -5.2e-4 c -0.569544,-0.2192 -1.016846,-0.42431 -1.33429,-0.61288 -0.307601,-0.1934 -0.511489,-0.39911 -0.626842,-0.59531 -0.114539,-0.19496 -0.180866,-0.4491 -0.180866,-0.78755 0,-0.42316 0.124096,-0.70842 0.401016,-0.95084 0.0014,-0.002 0.0043,-0.005 0.0057,-0.006 0.26665,-0.24177 0.694068,-0.38499 1.32034,-0.38499 0.435691,0 0.860684,0.0553 1.276406,0.16587 0.42545,0.11311 0.813999,0.24915 1.16686,0.41135 0.15549,0.0711 0.335173,-0.0106 0.393256,-0.18035 l 0.420643,-1.22318 c 0.05292,-0.15533 -0.01669,-0.32763 -0.159157,-0.39379 -0.428617,-0.20002 -0.895475,-0.362 -1.400959,-0.48265 -0.513358,-0.12251 -1.068453,-0.18087 -1.66604,-0.18087 z" />
    <path
       id="path18939"
       style="color:#000000;-inkscape-font-specification:'BC Sans, Normal';fill:#000000;stroke-width:0.607771;stroke-linecap:round;stroke-linejoin:round"
       d="m 39.333594,225.48416 c -0.163222,-1.7e-4 -0.29552,0.14071 -0.295078,0.3142 v 11.36571 c 0.0012,0.17231 0.13294,0.31127 0.295078,0.31109 h 1.345643 c 0.162095,1.8e-4 0.293908,-0.13874 0.295078,-0.31109 v -4.11344 h 0.933274 c 0.830516,0 1.535596,-0.10249 2.117706,-0.31988 0.578559,-0.21247 1.056114,-0.49543 1.423168,-0.86197 9.56e-4,-10e-4 0.0014,-0.002 0.0029,-0.003 0.357938,-0.36896 0.621578,-0.79319 0.777212,-1.26452 v -0.003 c 0.160754,-0.46814 0.242372,-0.95578 0.242372,-1.45728 0,-1.1279 -0.355628,-2.05894 -1.061435,-2.70371 -0.719415,-0.65717 -1.809206,-0.95343 -3.245283,-0.95343 z m 1.640721,1.85416 h 1.070221 c 0.902764,0 1.526838,0.17859 1.885676,0.47335 v 0.003 c 0.372673,0.29932 0.55759,0.72502 0.55759,1.38906 0,0.77215 -0.20714,1.23556 -0.615987,1.52238 -9.55e-4,0.001 -0.0014,0.002 -0.0029,0.003 -0.409773,0.29333 -1.115352,0.47128 -2.112015,0.47128 h -0.782903 z" />
    <path
       id="path18945"
       style="color:#000000;-inkscape-font-specification:'BC Sans, Normal';fill:#000000;stroke-width:0.607771;stroke-linecap:round;stroke-linejoin:round"
       d="m 50.368572,225.43663 c -0.122384,-2.5e-4 -0.232259,0.0799 -0.27595,0.20154 l -4.175975,11.41015 c -0.07474,0.2046 0.06633,0.42543 0.272855,0.42684 h 1.362703 c 0.121528,5.3e-4 0.230876,-0.0782 0.275436,-0.19843 l 1.200965,-3.31712 h 3.833355 l 1.214915,3.31712 c 0.04422,0.11918 0.152282,0.19784 0.272855,0.19843 h 1.393199 c 0.207583,5e-4 0.350621,-0.22116 0.275422,-0.42684 l -4.162011,-11.41015 c -0.04365,-0.12161 -0.153522,-0.20179 -0.275949,-0.20154 z m 0.599455,2.8975 c 0.03666,0.12888 0.07218,0.25651 0.102843,0.37827 0.0029,0.008 0.0057,0.0156 0.0086,0.0232 0.05035,0.1498 0.08516,0.25116 0.108976,0.31419 l 1.047485,3.0086 h -2.532658 l 1.06142,-3.0148 c 9.7e-4,-0.002 0.0014,-0.005 0.0029,-0.006 0.05962,-0.17953 0.125808,-0.41944 0.200508,-0.70383 z" />
    <path
       id="path18951"
       style="color:#000000;-inkscape-font-specification:'BC Sans, Normal';fill:#000000;stroke-width:0.607771;stroke-linecap:round;stroke-linejoin:round"
       d="m 61.506907,225.32706 c -1.139987,0 -2.131429,0.26049 -2.953301,0.79376 -0.814641,0.51828 -1.441896,1.25299 -1.863452,2.18281 v 0.003 c -0.410844,0.91826 -0.613406,1.97583 -0.613406,3.1595 0,1.22199 0.184162,2.30031 0.562755,3.22823 9.41e-4,0.001 0.0014,0.002 0.0029,0.003 0.390632,0.93147 0.981943,1.66638 1.76061,2.17661 0.784458,0.51404 1.752364,0.76069 2.880968,0.76069 0.600597,0 1.11879,-0.037 1.560116,-0.11523 0.447858,-0.0775 0.880426,-0.19784 1.298102,-0.36431 0.116251,-0.046 0.193162,-0.16423 0.192235,-0.29611 v -1.24076 c -7.14e-4,-0.20909 -0.190224,-0.35879 -0.378779,-0.2992 -0.400174,0.12448 -0.804941,0.22806 -1.214914,0.31109 -0.399804,0.081 -0.819862,0.12145 -1.261943,0.12145 -1.164749,0 -1.978733,-0.3686 -2.537822,-1.10484 v -0.003 c -0.557876,-0.75941 -0.852668,-1.80045 -0.852668,-3.1626 0,-1.36924 0.316502,-2.40252 0.919324,-3.15122 0.130372,-0.13798 0.672557,-0.6358 1.362189,-0.95654 0.69809,-0.32469 1.514742,-0.47539 2.295991,-0.0121 0.0194,0.0106 0.0398,0.0203 0.06105,0.0268 0.397949,0.12388 0.755203,0.2625 1.069694,0.41444 0.14629,0.0704 0.318584,0.003 0.387579,-0.15087 l 0.540531,-1.21129 c 0.06718,-0.15318 0.0086,-0.3354 -0.133796,-0.41186 -0.885775,-0.4708 -1.91958,-0.70178 -3.084058,-0.70178 z" />
    <path
       id="path18957"
       style="color:#000000;-inkscape-font-specification:'BC Sans, Normal';fill:#000000;stroke-width:0.607771;stroke-linecap:round;stroke-linejoin:round"
       d="m 65.521143,225.48416 c -0.163222,-1.7e-4 -0.29552,0.14071 -0.295077,0.3142 v 0.82888 c -1.57e-4,0.1448 0.093,0.2708 0.225312,0.3049 l 1.030939,0.26097 v 8.5881 l -1.027843,0.24856 c -0.133511,0.0328 -0.228237,0.15917 -0.228408,0.3049 v 0.8294 c 0.0012,0.17231 0.132939,0.31127 0.295077,0.31109 h 3.861256 c 0.162295,4.9e-4 0.294422,-0.13858 0.295591,-0.31109 v -0.8294 c -1.71e-4,-0.14571 -0.09486,-0.27209 -0.228408,-0.3049 l -1.028357,-0.24856 v -8.5881 l 1.030939,-0.26097 c 0.132512,-0.0338 0.225941,-0.15997 0.225826,-0.3049 v -0.82888 c 4.57e-4,-0.17372 -0.132226,-0.31467 -0.295591,-0.3142 z" />
    <path
       id="path18963"
       style="color:#000000;-inkscape-font-specification:'BC Sans, Normal';fill:#000000;stroke-width:0.607771;stroke-linecap:round;stroke-linejoin:round"
       d="m 71.449455,225.48416 c -0.163222,-1.7e-4 -0.295506,0.14071 -0.295064,0.3142 v 11.36571 c 0.0012,0.17231 0.13294,0.31127 0.295064,0.31109 h 1.242814 c 0.162096,1.8e-4 0.293908,-0.13874 0.295078,-0.31109 V 230.812 c 0,-0.58928 -0.01426,-1.16273 -0.0445,-1.72081 -0.0071,-0.12145 -0.01,-0.19222 -0.01655,-0.3049 l 5.179013,8.54677 c 0.05463,0.089 0.148045,0.14252 0.24805,0.14207 h 1.570956 c 0.162295,4.9e-4 0.294421,-0.13858 0.295591,-0.31109 v -11.36623 c 1.85e-4,-0.17352 -0.132369,-0.31415 -0.295591,-0.31368 h -1.256252 c -0.163036,-1.7e-4 -0.295234,0.1404 -0.295063,0.31368 v 6.4146 c 0,0.25897 0.0043,0.53789 0.01426,0.83819 0.01,0.29722 0.02054,0.58981 0.03052,0.87642 0.0029,0.0833 0.0057,0.15163 0.0086,0.231 l -5.17074,-8.52868 c -0.05406,-0.0904 -0.147803,-0.1451 -0.248563,-0.14526 z" />
    <path
       id="path18969"
       style="color:#000000;-inkscape-font-specification:'BC Sans, Normal';fill:#000000;stroke-width:0.607771;stroke-linecap:round;stroke-linejoin:round"
       d="m 87.830891,225.32706 c -1.205501,0 -2.254769,0.25252 -3.134182,0.76998 -0.876061,0.5049 -1.557805,1.23271 -2.022609,2.16473 -0.454605,0.92159 -0.679547,2.00119 -0.679547,3.21944 0,1.23506 0.201692,2.32125 0.612878,3.25149 9.27e-4,0.002 0.0014,0.005 0.0029,0.006 0.422227,0.92004 1.043349,1.64513 1.850016,2.15284 9.56e-4,2e-5 0.0014,2e-5 0.0029,0 0.812472,0.50005 1.800163,0.74311 2.94711,0.74311 0.760424,0 1.443152,-0.0461 2.050509,-0.14465 0.605246,-0.0981 1.205914,-0.25256 1.799892,-0.4594 0.121386,-0.0423 0.203461,-0.16285 0.20309,-0.29869 v -5.57073 c -0.0012,-0.17229 -0.13294,-0.31127 -0.295078,-0.31109 h -3.696921 c -0.162295,-4.7e-4 -0.294422,0.13859 -0.295591,0.31109 v 1.27331 c -4.43e-4,0.17374 0.132083,0.31469 0.295591,0.3142 h 2.0562 v 2.80448 c -0.204573,0.0494 -0.409831,0.10037 -0.649564,0.13904 -0.3089,0.0497 -0.694724,0.0738 -1.153423,0.0738 -0.921421,0 -1.639053,-0.18448 -2.167317,-0.52711 -0.537935,-0.35956 -0.924087,-0.84211 -1.181323,-1.47484 -0.252699,-0.6567 -0.384469,-1.41435 -0.384469,-2.28307 0,-1.35547 0.335102,-2.37911 0.986506,-3.13004 0.659649,-0.75966 1.559802,-1.14049 2.777612,-1.14049 0.484061,0 0.944785,0.0657 1.387509,0.19585 0.0029,0.001 0.0057,0.002 0.0086,0.003 0.466972,0.12403 0.882665,0.26711 1.245397,0.42943 0.148473,0.0666 0.319711,-0.006 0.384469,-0.16278 l 0.509536,-1.24385 c 0.06433,-0.15849 -0.0043,-0.34242 -0.152967,-0.41134 -0.478953,-0.22135 -0.99826,-0.39198 -1.554424,-0.51263 h -0.0029 c -0.549945,-0.12115 -1.133268,-0.18036 -1.749241,-0.18036 z" />
    <path
       id="path18873"
       style="color:#000000;-inkscape-font-specification:'BC Sans, Normal';fill:#000000;stroke-width:0.598927;stroke-linecap:round;stroke-linejoin:round"
       d="m 142.53677,225.87459 c -0.70023,0 -1.32747,0.12024 -1.87224,0.36999 -0.54356,0.24923 -0.98323,0.61586 -1.3007,1.09296 -0.32124,0.48283 -0.48213,1.06078 -0.48213,1.69965 0,0.92491 0.25033,1.70251 0.76068,2.26859 0.49641,0.55062 1.21505,0.99212 2.14767,1.34771 h -0.006 c 0.62192,0.24793 1.1096,0.47353 1.45469,0.67181 0.33564,0.19286 0.55001,0.39654 0.6599,0.58342 0.11397,0.19371 0.1757,0.43931 0.1757,0.7612 0,0.47457 -0.14803,0.79915 -0.48782,1.07227 -0.33172,0.2666 -0.85719,0.42323 -1.59629,0.42323 -0.53865,0 -1.05987,-0.065 -1.56837,-0.19532 -0.50935,-0.13282 -0.93208,-0.28116 -1.26453,-0.43823 -0.19208,-0.092 -0.4095,0.0572 -0.40979,0.28113 v 1.35029 c 4.3e-4,0.11948 0.0656,0.22796 0.16743,0.27855 0.3661,0.18313 0.80882,0.31999 1.3286,0.41755 0.5209,0.0978 1.08356,0.14525 1.68826,0.14525 1.19475,0 2.17809,-0.28898 2.91973,-0.89452 0.74522,-0.60847 1.13378,-1.49919 1.13378,-2.56729 0,-0.62539 -0.12253,-1.16859 -0.38138,-1.61385 l -0.003,-0.003 c -0.24331,-0.43345 -0.60539,-0.79838 -1.06712,-1.08985 -0.44562,-0.29744 -0.98439,-0.56833 -1.6185,-0.81442 -0.56124,-0.216 -1.00234,-0.41827 -1.31516,-0.6041 -0.30307,-0.19056 -0.50438,-0.3932 -0.61806,-0.58653 -0.11297,-0.19213 -0.1757,-0.44208 -0.1757,-0.77567 0,-0.41698 0.12295,-0.70008 0.39584,-0.93895 9.5e-4,-10e-4 0.001,-0.002 0.003,-0.003 0.26277,-0.23823 0.68407,-0.38188 1.30121,-0.38188 0.42937,0 0.84917,0.0538 1.25883,0.16278 0.41925,0.11145 0.80312,0.24891 1.15083,0.40875 0.15311,0.0696 0.32984,-0.0121 0.38707,-0.17776 l 0.41237,-1.20819 c 0.0522,-0.15286 -0.016,-0.32261 -0.15607,-0.3881 -0.42237,-0.1971 -0.88062,-0.35494 -1.37872,-0.47387 -0.50591,-0.12085 -1.05496,-0.18035 -1.64383,-0.18035 z" />
    <path
       id="path18879"
       style="color:#000000;-inkscape-font-specification:'BC Sans, Normal';fill:#000000;stroke-width:0.598927;stroke-linecap:round;stroke-linejoin:round"
       d="m 147.81914,226.03169 c -0.15992,3.3e-4 -0.2895,0.13797 -0.28992,0.30798 v 11.19983 c 4.2e-4,0.17001 0.12995,0.30768 0.28992,0.308 h 1.32859 c 0.15992,-3.3e-4 0.28951,-0.13798 0.2899,-0.308 v -4.0509 h 0.91933 c 0.81947,0 1.51521,-0.10265 2.08928,-0.31731 0.56834,-0.20921 1.03802,-0.4892 1.39889,-0.84955 10e-4,-9.9e-4 0.004,-0.002 0.006,-0.003 0.35331,-0.36419 0.60996,-0.78471 0.76326,-1.25006 0.15785,-0.46053 0.23927,-0.93983 0.23927,-1.43299 0,-1.11149 -0.35195,-2.03008 -1.04749,-2.66546 -0.70893,-0.64762 -1.78307,-0.93844 -3.19825,-0.93844 z m 1.61849,1.82727 h 1.05318 c 0.88964,0 1.50464,0.17719 1.85827,0.46767 9.5e-4,0.001 0.001,0.002 0.003,0.003 0.36724,0.29494 0.5488,0.71353 0.5488,1.36787 0,0.76091 -0.20427,1.21595 -0.60718,1.49862 -9.6e-4,0.001 -0.001,0.002 -0.003,0.003 -0.40378,0.28905 -1.09885,0.46509 -2.081,0.46509 h -0.77154 z" />
    <path
       id="path18885"
       style="color:#000000;-inkscape-font-specification:'BC Sans, Normal';fill:#000000;stroke-width:0.598927;stroke-linecap:round;stroke-linejoin:round"
       d="m 156.74521,226.03169 c -0.15991,3.3e-4 -0.2895,0.13797 -0.28991,0.30798 v 11.19983 c 4.1e-4,0.17001 0.12994,0.30768 0.28991,0.308 h 1.3286 c 0.15991,-3.3e-4 0.2895,-0.13798 0.2899,-0.308 v -4.31757 h 1.63814 l 2.46807,4.47467 c 0.0526,0.094 0.1482,0.15148 0.25114,0.15087 h 1.54875 c 0.22534,-8.4e-4 0.36401,-0.26227 0.24805,-0.46767 l -2.7218,-4.72634 c 0.16689,-0.077 0.337,-0.14177 0.49557,-0.24287 0.28351,-0.17387 0.53531,-0.39503 0.75241,-0.66043 0.21892,-0.26759 0.39226,-0.58178 0.5209,-0.93328 0.145,-0.3793 0.21446,-0.81014 0.21446,-1.29087 0,-1.13994 -0.34343,-2.05469 -1.03921,-2.64169 -0.69825,-0.58908 -1.7324,-0.85267 -3.08664,-0.85266 z m 1.6185,1.84173 h 1.21491 c 0.83262,0 1.41417,0.15747 1.74924,0.41188 9.4e-4,0.001 0.001,0.002 0.003,0.003 0.32322,0.23723 0.49557,0.62947 0.49557,1.29966 0,0.63793 -0.16728,1.0637 -0.49041,1.36529 -0.30207,0.27993 -0.85437,0.45941 -1.68259,0.45941 h -1.28984 z" />
    <path
       id="path18891"
       style="color:#000000;-inkscape-font-specification:'BC Sans, Normal';fill:#000000;stroke-width:0.598927;stroke-linecap:round;stroke-linejoin:round"
       d="m 165.92448,226.03169 c -0.16091,-0.001 -0.29207,0.13691 -0.29248,0.30798 v 11.19983 c 4.1e-4,0.17107 0.13151,0.30918 0.29248,0.308 h 5.88699 c 0.15971,-6.4e-4 0.28899,-0.13828 0.28939,-0.308 v -1.23765 c 10e-4,-0.17097 -0.12852,-0.31043 -0.28939,-0.31108 h -4.27106 v -3.38172 h 4.00337 c 0.16092,0.001 0.2921,-0.13691 0.29249,-0.30799 v -1.22317 c -3.9e-4,-0.17107 -0.13151,-0.30918 -0.29249,-0.308 h -4.00337 v -2.88147 h 4.27106 c 0.15971,-6.4e-4 0.28899,-0.13828 0.28939,-0.308 v -1.24075 c -4.2e-4,-0.16976 -0.12966,-0.30733 -0.28939,-0.30798 z" />
    <path
       id="path18897"
       style="color:#000000;-inkscape-font-specification:'BC Sans, Normal';fill:#000000;stroke-width:0.598927;stroke-linecap:round;stroke-linejoin:round"
       d="m 176.8122,225.98414 c -0.11996,4.5e-4 -0.2274,0.0793 -0.27027,0.19844 l -4.11758,11.24427 c -0.0743,0.20331 0.0676,0.42224 0.27285,0.42065 h 1.34308 c 0.11996,-4.6e-4 0.22738,-0.0793 0.27026,-0.19845 l 1.18081,-3.26646 h 3.77806 l 1.19786,3.26957 c 0.0438,0.11796 0.151,0.19538 0.27027,0.19534 h 1.37356 c 0.20409,-3.7e-4 0.3442,-0.21845 0.27026,-0.42065 l -4.10362,-11.24427 c -0.0429,-0.11917 -0.15027,-0.19799 -0.27027,-0.19844 z m 0.59065,2.85202 c 0.0365,0.12797 0.0725,0.2546 0.10285,0.37568 0.003,0.008 0.006,0.0161 0.009,0.0238 0.0496,0.14768 0.0826,0.24875 0.10598,0.31109 l 1.03353,2.96417 h -2.50165 l 1.05005,-2.97295 c 9.6e-4,-0.001 0.001,-0.002 0.003,-0.003 0.0589,-0.17756 0.12353,-0.41702 0.1974,-0.69866 z" />
    <path
       id="path18903"
       style="color:#000000;-inkscape-font-specification:'BC Sans, Normal';fill:#000000;stroke-width:0.598927;stroke-linecap:round;stroke-linejoin:round"
       d="m 183.557,226.03169 c -0.16091,-0.001 -0.29208,0.13691 -0.29249,0.30798 v 11.19983 c 4.1e-4,0.17108 0.13151,0.3092 0.29249,0.308 h 2.93626 c 1.78131,0 3.21252,-0.49575 4.24005,-1.50998 1.04342,-1.0307 1.55184,-2.55885 1.55184,-4.50774 0,-1.23083 -0.21682,-2.28821 -0.66869,-3.15951 -0.4496,-0.86694 -1.10303,-1.53391 -1.93889,-1.97817 -0.82426,-0.44364 -1.78657,-0.66041 -2.87528,-0.66041 z m 1.6185,1.82727 h 1.43455 c 1.21863,0 2.11156,0.32714 2.73575,0.96221 9.4e-4,0.001 0.001,0.002 0.003,0.003 0.62178,0.61441 0.9555,1.60889 0.9555,3.05304 0,1.43224 -0.3394,2.45086 -0.9834,3.12126 -0.644,0.6704 -1.62711,1.02474 -3.00602,1.02474 h -1.13947 z" />
  </g>
</svg>
