<?xml version="1.0" encoding="UTF-8" standalone="no"?>
<svg
   width="1000"
   height="1000"
   viewBox="0 0 264.58333 264.58333"
   version="1.1"
   id="svg5"
   xmlns="http://www.w3.org/2000/svg"
   xmlns:svg="http://www.w3.org/2000/svg">
  <defs
     id="defs2" />
  <g
     id="layer1">
    <path
       id="path8001-7-1-5"
       style="color:#000000;fill:#000000;stroke-width:1.51024;stroke-linecap:round;stroke-linejoin:round;-inkscape-stroke:none"
       d="M 136.08472 131.62401 A 1.5103878 1.5103878 0 0 0 134.57473 133.13451 L 134.57473 166.35935 L 134.57473 170.89034 A 1.5103878 1.5103878 0 0 0 136.08472 172.40033 L 165.26588 172.40033 L 173.94959 194.10443 A 1.5103878 1.5103878 0 0 0 175.35105 195.05424 L 184.41251 195.05424 A 1.5103878 1.5103878 0 0 0 185.84602 194.02175 L 193.39698 171.36835 A 1.5103878 1.5103878 0 0 0 193.47398 170.89034 L 193.47398 166.35935 A 1.5103878 1.5103878 0 0 0 191.96347 164.84937 L 184.41251 164.84937 L 176.50447 164.84937 L 167.74686 132.73608 A 1.5103878 1.5103878 0 0 0 166.28959 131.62401 L 136.08472 131.62401 z M 137.59522 134.64449 L 165.13617 134.64449 L 173.37339 164.84937 L 137.59522 164.84937 L 137.59522 134.64449 z M 137.59522 167.86985 L 175.35105 167.86985 L 184.41251 167.86985 L 190.45349 167.86985 L 190.45349 170.6454 L 183.32369 192.03375 L 176.37425 192.03375 L 167.69054 170.32965 A 1.5103878 1.5103878 0 0 0 166.28959 169.37984 L 137.59522 169.37984 L 137.59522 167.86985 z " />
    <path
       id="path1006-1-0-2"
       style="color:#000000;fill:#000000;stroke-width:1.51024;stroke-linecap:round;stroke-linejoin:round;-inkscape-stroke:none"
       d="M 90.77792 131.62401 A 1.5103878 1.5103878 0 0 0 89.412112 132.49114 L 77.330163 158.16554 A 1.5103878 1.5103878 0 0 0 77.185469 158.80839 L 77.185469 192.03375 A 1.5102368 1.5102368 0 0 0 77.208723 192.18103 A 1.5103878 1.5103878 0 0 0 77.240246 192.37844 A 1.5102368 1.5102368 0 0 0 77.305358 192.59031 A 1.5103878 1.5103878 0 0 0 77.401993 192.78048 A 1.5102368 1.5102368 0 0 0 77.50793 192.95514 A 1.5103878 1.5103878 0 0 0 77.785432 193.23265 A 1.5102368 1.5102368 0 0 0 77.921858 193.31326 A 1.5103878 1.5103878 0 0 0 78.166287 193.4378 A 1.5102368 1.5102368 0 0 0 78.326484 193.48535 A 1.5103878 1.5103878 0 0 0 78.454125 193.52307 L 117.42229 199.83534 A 1.5103878 1.5103878 0 0 0 119.17412 198.34603 L 119.17412 191.43689 L 132.67769 176.43264 A 1.5103878 1.5103878 0 0 0 133.06423 175.42081 L 133.06423 133.13451 A 1.5103878 1.5103878 0 0 0 131.55424 131.62401 L 90.77792 131.62401 z M 91.736518 134.64449 L 130.04374 134.64449 L 130.04374 174.84307 L 116.83834 189.51143 A 1.5102368 1.5102368 0 0 0 116.68177 189.75172 L 80.205956 190.49225 L 80.205956 159.14481 L 91.736518 134.64449 z M 116.15363 192.78565 L 116.15363 196.57043 L 95.37919 193.20474 L 116.15363 192.78565 z " />
    <path
       style="color:#000000;fill:#000000;stroke-width:1.51024;stroke-linecap:round;stroke-linejoin:round;-inkscape-stroke:none"
       d="m 93.798139,136.15482 a 1.5103878,1.5103878 0 0 0 -1.371597,0.87606 l -9.061421,19.63308 a 1.5103878,1.5103878 0 0 0 1.371597,2.14441 h 28.694502 a 1.5103878,1.5103878 0 0 0 1.51023,-1.51023 v -19.63308 a 1.5103878,1.5103878 0 0 0 -1.51023,-1.51024 z m 0.967503,3.02047 H 111.92098 V 155.7879 H 87.099408 Z"
       id="path1158-9-2-5" />
    <path
       style="color:#000000;fill:#000000;stroke-width:1.51024;stroke-linecap:round;stroke-linejoin:round;-inkscape-stroke:none"
       d="m 119.47216,136.15482 a 1.5103878,1.5103878 0 0 0 -1.51023,1.51024 v 19.63308 a 1.5103878,1.5103878 0 0 0 1.51023,1.51023 h 7.55119 a 1.5103878,1.5103878 0 0 0 1.51024,-1.51023 v -19.63308 a 1.5103878,1.5103878 0 0 0 -1.51024,-1.51024 z m 1.51024,3.02047 h 4.53071 v 16.61261 h -4.53071 z"
       id="path1160-3-0-11" />
    <path
       style="color:#000000;fill:#000000;stroke-width:1.51024;stroke-linecap:round"
       d="m 148.16666,175.98732 c -9.79782,0 -17.83967,8.04181 -17.83967,17.83967 0,9.79786 8.04185,17.83967 17.83967,17.83967 9.79789,0 17.83969,-8.04183 17.83969,-17.83967 0,-9.79784 -8.0418,-17.83967 -17.83969,-17.83967 z m 0,3.02047 c 8.14678,0 14.81922,6.67245 14.81922,14.8192 0,8.14676 -6.67244,14.8192 -14.81922,14.8192 -8.14671,0 -14.8192,-6.67246 -14.8192,-14.8192 0,-8.14675 6.67249,-14.8192 14.8192,-14.8192 z m 0,4.572 c -5.66814,0 -10.24718,4.57901 -10.24718,10.2472 0,5.66819 4.57904,10.24718 10.24718,10.24718 5.66821,0 10.24426,-4.57899 10.24426,-10.24718 0,-5.66819 -4.57605,-10.2472 -10.24426,-10.2472 z m 0,3.02047 c 4.0687,0 7.22378,3.15804 7.22378,7.22673 0,4.06868 -3.15508,7.22671 -7.22378,7.22671 -4.0686,0 -7.22671,-3.15804 -7.22671,-7.22671 0,-4.06867 3.15811,-7.22673 7.22671,-7.22673 z"
       id="path2031-7-2-6-6" />
    <path
       id="path7735"
       style="color:#000000;fill:#000000;stroke-width:3.02047;stroke-linecap:round;stroke-linejoin:round"
       d="M 148.16666 217.70764 A 1.5102368 1.5102368 0 0 0 146.65668 219.21762 L 146.65668 241.87154 A 1.5102368 1.5102368 0 0 0 148.16666 243.38152 A 1.5102368 1.5102368 0 0 0 149.67665 241.87154 L 149.67665 219.21762 A 1.5102368 1.5102368 0 0 0 148.16666 217.70764 z " />
  </g>
</svg>
