<?xml version="1.0" encoding="UTF-8" standalone="no"?>
<svg
   width="1000"
   height="1000"
   viewBox="0 0 264.58333 264.58332"
   version="1.1"
   id="svg5"
   xmlns="http://www.w3.org/2000/svg"
   xmlns:svg="http://www.w3.org/2000/svg">
  <defs
     id="defs2" />
  <g
     id="layer1">
    <path
       id="path1006-1-0-2-7"
       style="color:#000000;fill:#000000;stroke-width:1.51024;stroke-linecap:round;stroke-linejoin:round;-inkscape-stroke:none"
       d="M 137.25725 132.14593 L 96.48093 132.14645 A 1.5103878 1.5103878 0 0 0 95.115122 133.01358 L 83.033172 158.68747 A 1.5103878 1.5103878 0 0 0 82.888995 159.33032 L 82.888995 192.55568 A 1.5102368 1.5102368 0 0 0 82.911732 192.69934 A 1.5103878 1.5103878 0 0 0 82.944289 192.90398 A 1.5102368 1.5102368 0 0 0 83.007334 193.11017 A 1.5103878 1.5103878 0 0 0 83.107069 193.30499 A 1.5102368 1.5102368 0 0 0 83.211456 193.47759 A 1.5103878 1.5103878 0 0 0 83.487925 193.75406 A 1.5102368 1.5102368 0 0 0 83.62435 193.83467 A 1.5103878 1.5103878 0 0 0 83.87188 193.96076 A 1.5102368 1.5102368 0 0 0 84.025876 194.00676 A 1.5103878 1.5103878 0 0 0 84.157134 194.04551 L 123.1253 200.35779 A 1.5103878 1.5103878 0 0 0 124.87764 198.86796 L 124.87764 191.76503 A 1.5103878 1.5103878 0 0 0 124.84095 191.43844 L 138.36054 176.97265 A 1.5103878 1.5103878 0 0 0 138.76724 175.94326 L 138.76724 133.65644 A 1.5103878 1.5103878 0 0 0 137.25725 132.14593 z M 97.439527 135.16642 L 135.74727 135.16642 L 135.74727 175.34743 L 121.99255 190.06333 A 1.5102368 1.5102368 0 0 0 121.8432 190.28554 L 85.908965 191.01417 L 85.908965 159.66673 L 97.439527 135.16642 z M 121.85716 193.30499 L 121.85716 197.09236 L 101.0853 193.72667 L 121.85716 193.30499 z " />
    <path
       style="color:#000000;fill:#000000;stroke-width:1.51024;stroke-linecap:round;stroke-linejoin:round;-inkscape-stroke:none"
       d="m 99.501346,136.67691 a 1.5103878,1.5103878 0 0 0 -1.371613,0.87606 l -9.06142,19.63308 a 1.5103878,1.5103878 0 0 0 1.371612,2.14441 h 28.694495 a 1.5103878,1.5103878 0 0 0 1.51024,-1.51023 v -19.63308 a 1.5103878,1.5103878 0 0 0 -1.51024,-1.51024 z m 0.967484,3.02048 h 17.15536 v 16.6126 H 92.79967 Z"
       id="path1158-9-2-5-0" />
    <path
       style="color:#000000;fill:#000000;stroke-width:1.51024;stroke-linecap:round;stroke-linejoin:round;-inkscape-stroke:none"
       d="m 125.17537,136.67691 a 1.5103878,1.5103878 0 0 0 -1.51024,1.51024 v 19.63308 a 1.5103878,1.5103878 0 0 0 1.51024,1.51023 h 7.55119 a 1.5103878,1.5103878 0 0 0 1.51023,-1.51023 v -19.63308 a 1.5103878,1.5103878 0 0 0 -1.51023,-1.51024 z m 1.51024,3.02048 h 4.53071 v 16.6126 h -4.53071 z"
       id="path1160-3-0-11-4" />
    <path
       id="path8001-7"
       style="color:#000000;fill:#000000;stroke-width:1.51024;stroke-linecap:round;stroke-linejoin:round;-inkscape-stroke:none"
       d="M 174.37901 131.92786 L 141.77894 132.14645 A 1.5103878 1.5103878 0 0 0 140.27774 133.64765 L 140.08188 166.18055 A 1.5102368 1.5102368 0 0 0 140.05346 166.35935 A 1.5102368 1.5102368 0 0 0 140.07982 166.52523 L 140.05346 170.88155 A 1.5103878 1.5103878 0 0 0 141.56396 172.40032 L 206.99046 172.40032 L 215.67468 194.10443 A 1.5103878 1.5103878 0 0 0 217.07563 195.05424 L 226.13709 195.05424 A 1.5103878 1.5103878 0 0 0 227.5706 194.02174 L 235.12156 171.36835 A 1.5103878 1.5103878 0 0 0 235.19856 170.89034 L 235.19856 166.35935 A 1.5103878 1.5103878 0 0 0 233.68805 164.84936 L 227.64708 164.84936 L 186.44908 164.84936 L 175.8213 132.96036 A 1.5103878 1.5103878 0 0 0 174.37901 131.92786 z M 173.30259 134.95455 L 183.26478 164.84936 L 143.11012 164.84936 L 143.28944 135.15505 L 173.30259 134.95455 z M 143.09204 167.86985 L 185.36077 167.86985 L 227.64708 167.86985 L 232.17807 167.86985 L 232.17807 170.64539 L 225.04879 192.03375 L 218.09934 192.03375 L 209.41512 170.32965 A 1.5103878 1.5103878 0 0 0 208.01417 169.37984 L 143.08273 169.37984 L 143.09204 167.86985 z " />
    <path
       style="color:#000000;fill:#000000;stroke-width:1.51024;stroke-linecap:round"
       d="m 189.89137,175.98733 c -9.79782,0 -17.83965,8.0418 -17.83965,17.83966 0,9.79785 8.04183,17.83967 17.83965,17.83967 9.79786,0 17.83966,-8.04183 17.83966,-17.83967 0,-9.79785 -8.0418,-17.83966 -17.83966,-17.83966 z m 0,3.02046 c 8.14676,0 14.81919,6.67245 14.81919,14.8192 0,8.14676 -6.67243,14.8192 -14.81919,14.8192 -8.14671,0 -14.81919,-6.67246 -14.81919,-14.8192 0,-8.14675 6.67248,-14.8192 14.81919,-14.8192 z m 0,4.572 c -5.66814,0 -10.24716,4.57901 -10.24716,10.2472 0,5.66819 4.57902,10.24718 10.24716,10.24718 5.66821,0 10.24423,-4.57899 10.24423,-10.24718 0,-5.66819 -4.57602,-10.2472 -10.24423,-10.2472 z m 0,3.02047 c 4.06869,0 7.22375,3.15806 7.22375,7.22673 0,4.06868 -3.15506,7.22671 -7.22375,7.22671 -4.0686,0 -7.22669,-3.15804 -7.22669,-7.22671 0,-4.06867 3.15809,-7.22673 7.22669,-7.22673 z"
       id="path2031-5-0" />
    <path
       style="color:#000000;fill:#000000;stroke-width:1.51024;stroke-linecap:round"
       d="m 152.13541,175.98732 c -9.79783,0 -17.83967,8.04181 -17.83967,17.83967 0,9.79785 8.04184,17.83967 17.83967,17.83967 9.7979,0 17.8397,-8.04183 17.8397,-17.83967 0,-9.79785 -8.0418,-17.83967 -17.8397,-17.83967 z m 0,3.02047 c 8.14677,0 14.81923,6.67245 14.81923,14.8192 0,8.14676 -6.67246,14.8192 -14.81923,14.8192 -8.14672,0 -14.8192,-6.67246 -14.8192,-14.8192 0,-8.14675 6.67248,-14.8192 14.8192,-14.8192 z m 0,4.572 c -5.66815,0 -10.24718,4.57901 -10.24718,10.2472 0,5.66819 4.57903,10.24718 10.24718,10.24718 5.6682,0 10.24427,-4.57899 10.24427,-10.24718 0,-5.66819 -4.57607,-10.2472 -10.24427,-10.2472 z m 0,3.02047 c 4.0687,0 7.22378,3.15804 7.22378,7.22673 0,4.06868 -3.15508,7.22671 -7.22378,7.22671 -4.06861,0 -7.22671,-3.15804 -7.22671,-7.22671 0,-4.06867 3.1581,-7.22673 7.22671,-7.22673 z"
       id="path2031-7-2" />
    <path
       id="path8052"
       style="color:#000000;fill:#000000;stroke-width:3.02047;stroke-linecap:round;stroke-linejoin:round"
       d="M 152.13541 217.70763 A 1.5102368 1.5102368 0 0 0 150.62543 219.21762 L 150.62543 241.87153 A 1.5102368 1.5102368 0 0 0 152.13541 243.38152 A 1.5102368 1.5102368 0 0 0 153.64591 241.87153 L 153.64591 219.21762 A 1.5102368 1.5102368 0 0 0 152.13541 217.70763 z " />
    <path
       id="path8058"
       style="color:#000000;fill:#000000;stroke-width:3.02047;stroke-linecap:round;stroke-linejoin:round"
       d="M 189.89125 217.70763 A 1.5102368 1.5102368 0 0 0 188.38126 219.21762 L 188.38126 241.87153 A 1.5102368 1.5102368 0 0 0 189.89125 243.38152 A 1.5102368 1.5102368 0 0 0 191.40175 241.87153 L 191.40175 219.21762 A 1.5102368 1.5102368 0 0 0 189.89125 217.70763 z " />
    <path
       id="path2030"
       style="color:#000000;-inkscape-font-specification:'BC Sans, Normal';fill:#000000;stroke-width:0.637315;stroke-linecap:round;stroke-linejoin:round"
       d="m 159.90574,225.25116 c -0.768,5e-5 -1.45505,0.12255 -2.05259,0.38034 -0.59632,0.25723 -1.07952,0.63775 -1.42782,1.13016 -0.35248,0.49831 -0.52813,1.09558 -0.52813,1.75493 0,0.95459 0.27207,1.75463 0.83199,2.33888 0.54461,0.56829 1.33378,1.02515 2.35696,1.39216 0.68015,0.25521 1.21183,0.48931 1.58957,0.6935 0.36823,0.19903 0.60548,0.40552 0.72605,0.59841 0.12504,0.19998 0.19172,0.45589 0.19172,0.78807 0,0.48979 -0.16415,0.82401 -0.53692,1.10587 -0.36393,0.27516 -0.93836,0.43667 -1.74924,0.43667 -0.58991,0 -1.16275,-0.0666 -1.7198,-0.20051 h -0.003 c -0.55736,-0.13684 -1.02192,-0.28986 -1.38596,-0.45165 a 0.31868958,0.31868958 0 0 0 -0.44855,0.28939 v 1.39216 a 0.31868958,0.31868958 0 0 0 0.18294,0.28887 c 0.40159,0.18895 0.88697,0.33036 1.45727,0.43098 0.57141,0.10082 1.18862,0.15038 1.85208,0.15038 1.31075,0 2.39288,-0.29849 3.20653,-0.92346 0.81757,-0.62799 1.23868,-1.54656 1.23868,-2.64893 0,-0.64556 -0.13194,-1.20958 -0.41599,-1.66915 l -0.003,-0.003 c -0.26731,-0.44805 -0.6633,-0.82288 -1.17098,-1.12396 l -0.006,-0.003 c -0.48793,-0.30573 -1.07655,-0.58145 -1.76992,-0.83458 -0.61571,-0.22293 -1.09908,-0.43348 -1.44228,-0.62528 -0.33263,-0.19672 -0.55379,-0.40504 -0.67852,-0.60462 -0.12399,-0.19829 -0.19482,-0.45828 -0.19482,-0.80253 0,-0.43037 0.13423,-0.72082 0.43357,-0.96738 a 0.31868958,0.31868958 0 0 0 0.006,-0.003 c 0.28829,-0.2459 0.75074,-0.39533 1.42782,-0.39533 0.47103,0 0.93079,0.0587 1.38028,0.17105 0.45996,0.11499 0.88096,0.25414 1.26245,0.4191 a 0.31868958,0.31868958 0 0 0 0.42478,-0.18294 l 0.45424,-1.24798 a 0.31868958,0.31868958 0 0 0 -0.17105,-0.40101 c -0.46337,-0.20342 -0.96968,-0.36411 -1.51619,-0.48679 -0.55488,-0.12458 -1.15608,-0.18549 -1.80195,-0.18552 z" />
    <path
       id="path2024"
       style="color:#000000;-inkscape-font-specification:'BC Sans, Normal';fill:#000000;stroke-width:0.637315;stroke-linecap:round;stroke-linejoin:round"
       d="m 165.70228,225.41342 a 0.31868958,0.31868958 0 0 0 -0.31884,0.31833 v 11.55691 a 0.31868958,0.31868958 0 0 0 0.31884,0.31885 h 1.45676 a 0.31868958,0.31868958 0 0 0 0.31885,-0.31885 v -4.18269 h 1.00872 c 0.89906,0 1.65894,-0.1024 2.28875,-0.32401 0.62551,-0.21608 1.14001,-0.50364 1.53686,-0.87643 a 0.31868958,0.31868958 0 0 0 0.006,-0.006 c 0.38759,-0.37585 0.66957,-0.80897 0.83767,-1.28933 0.17317,-0.47533 0.26252,-0.97145 0.26252,-1.48053 0,-1.14717 -0.38414,-2.09341 -1.14722,-2.74919 -0.77778,-0.66841 -1.9578,-0.96738 -3.51038,-0.96738 z m 1.77561,1.88206 h 1.15341 c 0.97603,0 1.65015,0.1839 2.03812,0.48369 a 0.31868958,0.31868958 0 0 0 0.003,0.003 c 0.40291,0.30441 0.60152,0.73747 0.60152,1.41283 0,0.78533 -0.22461,1.25649 -0.66663,1.54823 -0.44301,0.29834 -1.20554,0.48111 -2.28306,0.48111 h -0.84646 z" />
    <path
       id="path2018"
       style="color:#000000;-inkscape-font-specification:'BC Sans, Normal';fill:#000000;stroke-width:0.637315;stroke-linecap:round;stroke-linejoin:round"
       d="m 175.49497,225.41342 a 0.31868958,0.31868958 0 0 0 -0.31833,0.31833 v 11.55691 a 0.31868958,0.31868958 0 0 0 0.31833,0.31885 h 3.22099 c 1.95428,0 3.52461,-0.51074 4.65191,-1.55753 1.1447,-1.06378 1.70481,-2.64307 1.70481,-4.6545 2e-5,-1.27033 -0.23859,-2.36051 -0.73432,-3.25974 -0.49291,-0.89412 -1.21092,-1.5822 -2.12701,-2.04071 h -0.003 c -0.90375,-0.45704 -1.95993,-0.68161 -3.1533,-0.68161 z m 1.7756,1.88206 h 1.57562 c 1.33697,0 2.31501,0.34139 2.99981,0.99683 a 0.31868958,0.31868958 0 0 0 0.003,0.003 c 0.68216,0.63413 1.05006,1.65969 1.05006,3.15019 0,1.47821 -0.37298,2.52907 -1.07952,3.22099 -0.70653,0.69192 -1.78466,1.05885 -3.29747,1.05885 h -1.25098 z" />
  </g>
</svg>
