<?xml version="1.0" encoding="UTF-8" standalone="no"?>
<svg
   width="1000"
   height="1000"
   viewBox="0 0 264.58333 264.58333"
   version="1.1"
   id="svg5"
   xmlns="http://www.w3.org/2000/svg"
   xmlns:svg="http://www.w3.org/2000/svg">
  <defs
     id="defs2" />
  <g
     id="layer1">
    <path
       id="path1006-1-0-2-7-8"
       style="color:#000000;fill:#000000;stroke-width:1.51024;stroke-linecap:round;stroke-linejoin:round;-inkscape-stroke:none"
       d="M 70.407071 133.13451 A 1.5103878 1.5103878 0 0 0 69.041263 134.00164 L 56.959313 159.67552 A 1.5103878 1.5103878 0 0 0 56.814619 160.31838 L 56.814619 193.54374 A 1.5102368 1.5102368 0 0 0 56.83839 193.69205 A 1.5103878 1.5103878 0 0 0 56.869396 193.88945 A 1.5102368 1.5102368 0 0 0 56.933992 194.09978 A 1.5103878 1.5103878 0 0 0 57.032177 194.2915 A 1.5102368 1.5102368 0 0 0 57.137597 194.46565 A 1.5103878 1.5103878 0 0 0 57.414066 194.74263 A 1.5102368 1.5102368 0 0 0 57.553075 194.8248 A 1.5103878 1.5103878 0 0 0 57.795438 194.9483 A 1.5102368 1.5102368 0 0 0 57.955635 194.99585 A 1.5103878 1.5103878 0 0 0 58.083276 195.03357 L 97.051439 201.34585 A 1.5103878 1.5103878 0 0 0 98.803787 199.85602 L 98.803787 192.75309 A 1.5103878 1.5103878 0 0 0 98.767097 192.42649 L 112.28668 177.96381 A 1.5103878 1.5103878 0 0 0 112.69338 176.93132 L 112.69338 134.64449 A 1.5103878 1.5103878 0 0 0 111.18339 133.13451 L 70.407071 133.13451 z M 71.365669 136.155 L 109.67289 136.155 L 109.67289 176.33549 L 95.918692 191.05139 A 1.5102368 1.5102368 0 0 0 95.76883 191.27359 L 59.835107 192.00275 L 59.835107 160.65479 L 71.365669 136.155 z M 95.7833 194.29615 L 95.7833 198.08041 L 75.008341 194.71473 L 95.7833 194.29615 z " />
    <path
       style="color:#000000;fill:#000000;stroke-width:1.51024;stroke-linecap:round;stroke-linejoin:round;-inkscape-stroke:none"
       d="m 73.427455,137.66506 a 1.5103878,1.5103878 0 0 0 -1.371597,0.87606 l -9.061421,19.63308 a 1.5103878,1.5103878 0 0 0 1.371597,2.14441 h 28.6945 a 1.5103878,1.5103878 0 0 0 1.510236,-1.51023 V 139.1753 a 1.5103878,1.5103878 0 0 0 -1.510236,-1.51024 z m 0.967488,3.02047 h 17.155354 v 16.61261 H 66.728724 Z"
       id="path1158-9-2-5-0-9" />
    <path
       style="color:#000000;fill:#000000;stroke-width:1.51024;stroke-linecap:round;stroke-linejoin:round;-inkscape-stroke:none"
       d="m 99.101481,137.66506 a 1.5103878,1.5103878 0 0 0 -1.510237,1.51024 v 19.63308 a 1.5103878,1.5103878 0 0 0 1.510237,1.51023 h 7.551179 a 1.5103878,1.5103878 0 0 0 1.51024,-1.51023 V 139.1753 a 1.5103878,1.5103878 0 0 0 -1.51024,-1.51024 z m 1.510239,3.02047 h 4.53071 v 16.61261 h -4.53071 z"
       id="path1160-3-0-11-4-5" />
    <path
       id="path8001"
       style="color:#000000;fill:#000000;stroke-width:1.51024;stroke-linecap:round;stroke-linejoin:round;-inkscape-stroke:none"
       d="M 173.87311 133.11642 L 115.71387 133.13451 A 1.5103878 1.5103878 0 0 0 114.20388 134.64449 L 114.20388 166.35935 L 114.20388 170.89034 A 1.5103878 1.5103878 0 0 0 115.71387 172.40033 L 218.89671 172.40033 L 227.58094 194.10443 A 1.5103878 1.5103878 0 0 0 228.98189 195.05424 L 238.04335 195.05424 A 1.5103878 1.5103878 0 0 0 239.47685 194.02175 L 247.02781 171.36835 A 1.5103878 1.5103878 0 0 0 247.10481 170.89034 L 247.10481 166.35935 A 1.5103878 1.5103878 0 0 0 245.59431 164.84937 L 184.81352 164.79356 L 175.31539 134.18147 A 1.5103878 1.5103878 0 0 0 173.87311 133.11694 L 173.87311 133.11642 z M 172.76103 136.13691 L 181.66901 164.84937 L 117.22437 164.84937 L 117.22437 136.155 L 172.76103 136.13691 z M 238.13171 167.86417 L 244.08432 167.86985 L 244.08432 170.6454 L 236.95504 192.03375 L 230.0056 192.03375 L 221.32137 170.32965 A 1.5103878 1.5103878 0 0 0 219.92042 169.37984 L 117.22437 169.37984 L 117.22437 167.86985 L 238.04335 167.86985 A 1.5102368 1.5102368 0 0 0 238.13171 167.86417 z " />
    <path
       style="color:#000000;fill:#000000;stroke-width:1.51024;stroke-linecap:round"
       d="m 201.79758,175.98733 c -9.79782,0 -17.83967,8.0418 -17.83967,17.83966 0,9.79786 8.04185,17.83967 17.83967,17.83967 9.79788,0 17.83968,-8.04183 17.83968,-17.83967 0,-9.79784 -8.0418,-17.83966 -17.83968,-17.83966 z m 0,3.02046 c 8.14678,0 14.8192,6.67246 14.8192,14.8192 0,8.14676 -6.67242,14.8192 -14.8192,14.8192 -8.14671,0 -14.8192,-6.67245 -14.8192,-14.8192 0,-8.14674 6.67249,-14.8192 14.8192,-14.8192 z m 0,4.572 c -5.66814,0 -10.24718,4.57901 -10.24718,10.2472 0,5.66819 4.57904,10.24718 10.24718,10.24718 5.66819,0 10.24424,-4.57899 10.24424,-10.24718 0,-5.66819 -4.57605,-10.2472 -10.24424,-10.2472 z m 0,3.02048 c 4.06869,0 7.22377,3.15804 7.22377,7.22672 0,4.06869 -3.15508,7.22671 -7.22377,7.22671 -4.0686,0 -7.22671,-3.15804 -7.22671,-7.22671 0,-4.06867 3.15811,-7.22672 7.22671,-7.22672 z"
       id="path2031-2" />
    <path
       style="color:#000000;fill:#000000;stroke-width:1.51024;stroke-linecap:round"
       d="m 164.04166,175.98732 c -9.79782,0 -17.83967,8.04181 -17.83967,17.83967 0,9.79786 8.04185,17.83967 17.83967,17.83967 9.79788,0 17.83968,-8.04183 17.83968,-17.83967 0,-9.79784 -8.0418,-17.83967 -17.83968,-17.83967 z m 0,3.02047 c 8.14678,0 14.8192,6.67246 14.8192,14.8192 0,8.14676 -6.67242,14.8192 -14.8192,14.8192 -8.14671,0 -14.8192,-6.67245 -14.8192,-14.8192 0,-8.14674 6.67249,-14.8192 14.8192,-14.8192 z m 0,4.572 c -5.66814,0 -10.24718,4.57901 -10.24718,10.2472 0,5.66819 4.57904,10.24718 10.24718,10.24718 5.66819,0 10.24424,-4.57899 10.24424,-10.24718 0,-5.66819 -4.57605,-10.2472 -10.24424,-10.2472 z m 0,3.02048 c 4.06869,0 7.22377,3.15805 7.22377,7.22672 0,4.06869 -3.15508,7.22671 -7.22377,7.22671 -4.0686,0 -7.22671,-3.15804 -7.22671,-7.22671 0,-4.06867 3.15811,-7.22672 7.22671,-7.22672 z"
       id="path2031-5" />
    <path
       style="color:#000000;fill:#000000;stroke-width:1.51024;stroke-linecap:round"
       d="m 126.28574,175.98732 c -9.79782,0 -17.83967,8.04181 -17.83967,17.83967 0,9.79786 8.04185,17.83967 17.83967,17.83967 9.79788,0 17.83968,-8.04183 17.83968,-17.83967 0,-9.79784 -8.0418,-17.83967 -17.83968,-17.83967 z m 0,3.02047 c 8.14678,0 14.8192,6.67246 14.8192,14.8192 0,8.14676 -6.67242,14.8192 -14.8192,14.8192 -8.14671,0 -14.8192,-6.67245 -14.8192,-14.8192 0,-8.14674 6.67249,-14.8192 14.8192,-14.8192 z m 0,4.572 c -5.66814,0 -10.24718,4.57901 -10.24718,10.2472 0,5.66819 4.57904,10.24718 10.24718,10.24718 5.66819,0 10.24424,-4.57899 10.24424,-10.24718 0,-5.66819 -4.57605,-10.2472 -10.24424,-10.2472 z m 0,3.02048 c 4.06869,0 7.22377,3.15804 7.22377,7.22672 0,4.06869 -3.15508,7.22671 -7.22377,7.22671 -4.0686,0 -7.22671,-3.15804 -7.22671,-7.22671 0,-4.06867 3.15811,-7.22672 7.22671,-7.22672 z"
       id="path2031-7" />
    <path
       id="path8441"
       style="color:#000000;fill:#000000;stroke-width:3.02047;stroke-linecap:round;stroke-linejoin:round"
       d="M 126.28583 217.70764 A 1.5102368 1.5102368 0 0 0 124.77533 219.21762 L 124.77533 241.87154 A 1.5102368 1.5102368 0 0 0 126.28583 243.38152 A 1.5102368 1.5102368 0 0 0 127.79582 241.87154 L 127.79582 219.21762 A 1.5102368 1.5102368 0 0 0 126.28583 217.70764 z " />
    <path
       id="path8447"
       style="color:#000000;fill:#000000;stroke-width:3.02047;stroke-linecap:round;stroke-linejoin:round"
       d="M 201.7975 217.70764 A 1.5102368 1.5102368 0 0 0 200.28751 219.21762 L 200.28751 241.87154 A 1.5102368 1.5102368 0 0 0 201.7975 243.38152 A 1.5102368 1.5102368 0 0 0 203.308 241.87154 L 203.308 219.21762 A 1.5102368 1.5102368 0 0 0 201.7975 217.70764 z " />
    <path
       id="path18873"
       style="color:#000000;-inkscape-font-specification:'BC Sans, Normal';fill:#000000;stroke-width:0.598927;stroke-linecap:round;stroke-linejoin:round"
       d="m 142.12388,225.58029 c -0.70023,0 -1.32747,0.12024 -1.87224,0.36999 -0.54356,0.24923 -0.98323,0.61586 -1.3007,1.09296 -0.32124,0.48283 -0.48213,1.06078 -0.48213,1.69965 0,0.92491 0.25033,1.70251 0.76068,2.26859 0.49641,0.55062 1.21505,0.99212 2.14767,1.34771 h -0.006 c 0.62192,0.24793 1.1096,0.47353 1.45469,0.67181 0.33564,0.19286 0.55001,0.39654 0.6599,0.58342 0.11397,0.19371 0.1757,0.43931 0.1757,0.7612 0,0.47457 -0.14803,0.79915 -0.48782,1.07227 -0.33172,0.2666 -0.85719,0.42323 -1.59629,0.42323 -0.53865,0 -1.05987,-0.0651 -1.56837,-0.19532 -0.50935,-0.13282 -0.93208,-0.28116 -1.26453,-0.43823 -0.19208,-0.092 -0.4095,0.0572 -0.40979,0.28113 v 1.35029 c 4.3e-4,0.11948 0.0656,0.22796 0.16743,0.27855 0.3661,0.18313 0.80882,0.31999 1.3286,0.41755 0.5209,0.0978 1.08356,0.14525 1.68826,0.14525 1.19475,0 2.17809,-0.28898 2.91973,-0.89452 0.74522,-0.60847 1.13378,-1.49919 1.13378,-2.56729 0,-0.62539 -0.12253,-1.16859 -0.38138,-1.61385 l -0.003,-0.003 c -0.24331,-0.43345 -0.60539,-0.79838 -1.06712,-1.08985 -0.44562,-0.29744 -0.98439,-0.56833 -1.6185,-0.81442 -0.56124,-0.216 -1.00234,-0.41827 -1.31516,-0.6041 -0.30307,-0.19056 -0.50438,-0.3932 -0.61806,-0.58653 -0.11297,-0.19213 -0.1757,-0.44208 -0.1757,-0.77567 0,-0.41698 0.12295,-0.70008 0.39584,-0.93895 9.5e-4,-0.001 0.001,-0.002 0.003,-0.003 0.26277,-0.23823 0.68407,-0.38188 1.30121,-0.38188 0.42937,0 0.84917,0.0538 1.25883,0.16278 0.41925,0.11145 0.80312,0.24891 1.15083,0.40875 0.15311,0.0696 0.32984,-0.0121 0.38707,-0.17776 l 0.41237,-1.20819 c 0.0522,-0.15286 -0.016,-0.32261 -0.15607,-0.3881 -0.42237,-0.1971 -0.88062,-0.35494 -1.37872,-0.47387 -0.50591,-0.12085 -1.05496,-0.18035 -1.64383,-0.18035 z" />
    <path
       id="path18879"
       style="color:#000000;-inkscape-font-specification:'BC Sans, Normal';fill:#000000;stroke-width:0.598927;stroke-linecap:round;stroke-linejoin:round"
       d="m 147.40625,225.73739 c -0.15992,3.3e-4 -0.2895,0.13797 -0.28992,0.30798 v 11.19983 c 4.2e-4,0.17001 0.12995,0.30768 0.28992,0.308 h 1.32859 c 0.15992,-3.3e-4 0.28951,-0.13798 0.2899,-0.308 v -4.0509 h 0.91933 c 0.81947,0 1.51521,-0.10265 2.08928,-0.31731 0.56834,-0.20921 1.03802,-0.4892 1.39889,-0.84955 0.001,-9.9e-4 0.004,-0.002 0.006,-0.003 0.35331,-0.36419 0.60996,-0.78471 0.76326,-1.25006 0.15785,-0.46053 0.23927,-0.93983 0.23927,-1.43299 0,-1.11149 -0.35195,-2.03008 -1.04749,-2.66546 -0.70893,-0.64762 -1.78307,-0.93844 -3.19825,-0.93844 z m 1.61849,1.82727 h 1.05318 c 0.88964,0 1.50464,0.17719 1.85827,0.46767 9.5e-4,0.001 10e-4,0.002 0.003,0.003 0.36724,0.29494 0.5488,0.71353 0.5488,1.36787 0,0.76091 -0.20427,1.21595 -0.60718,1.49862 -9.6e-4,0.001 -0.001,0.002 -0.003,0.003 -0.40378,0.28905 -1.09885,0.46509 -2.081,0.46509 h -0.77154 z" />
    <path
       id="path18885"
       style="color:#000000;-inkscape-font-specification:'BC Sans, Normal';fill:#000000;stroke-width:0.598927;stroke-linecap:round;stroke-linejoin:round"
       d="m 156.33232,225.73739 c -0.15991,3.3e-4 -0.2895,0.13797 -0.28991,0.30798 v 11.19983 c 4.1e-4,0.17001 0.12994,0.30768 0.28991,0.308 h 1.3286 c 0.15991,-3.3e-4 0.2895,-0.13798 0.2899,-0.308 v -4.31757 h 1.63814 l 2.46807,4.47467 c 0.0526,0.094 0.1482,0.15148 0.25114,0.15087 h 1.54875 c 0.22534,-8.4e-4 0.36401,-0.26227 0.24805,-0.46767 l -2.7218,-4.72634 c 0.16689,-0.077 0.337,-0.14177 0.49557,-0.24287 0.28351,-0.17387 0.53531,-0.39503 0.75241,-0.66043 0.21892,-0.26759 0.39226,-0.58178 0.5209,-0.93328 0.145,-0.3793 0.21446,-0.81014 0.21446,-1.29087 0,-1.13994 -0.34343,-2.05469 -1.03921,-2.64169 -0.69825,-0.58908 -1.7324,-0.85266 -3.08664,-0.85266 z m 1.6185,1.84173 h 1.21491 c 0.83262,0 1.41417,0.15747 1.74924,0.41188 9.4e-4,10e-4 10e-4,0.002 0.003,0.003 0.32322,0.23723 0.49557,0.62947 0.49557,1.29966 0,0.63793 -0.16728,1.0637 -0.49041,1.36529 -0.30207,0.27993 -0.85437,0.45941 -1.68259,0.45941 h -1.28984 z" />
    <path
       id="path18891"
       style="color:#000000;-inkscape-font-specification:'BC Sans, Normal';fill:#000000;stroke-width:0.598927;stroke-linecap:round;stroke-linejoin:round"
       d="m 165.51159,225.73739 c -0.16091,-0.001 -0.29207,0.13691 -0.29248,0.30798 v 11.19983 c 4.1e-4,0.17107 0.13151,0.30918 0.29248,0.308 h 5.88699 c 0.15971,-6.4e-4 0.28899,-0.13828 0.28939,-0.308 v -1.23765 c 0.001,-0.17097 -0.12852,-0.31043 -0.28939,-0.31108 h -4.27106 v -3.38172 h 4.00337 c 0.16092,0.001 0.2921,-0.13691 0.29249,-0.30799 v -1.22317 c -3.9e-4,-0.17107 -0.13151,-0.30918 -0.29249,-0.308 h -4.00337 v -2.88147 h 4.27106 c 0.15971,-6.4e-4 0.28899,-0.13828 0.28939,-0.308 v -1.24075 c -4.2e-4,-0.16976 -0.12966,-0.30733 -0.28939,-0.30798 z" />
    <path
       id="path18897"
       style="color:#000000;-inkscape-font-specification:'BC Sans, Normal';fill:#000000;stroke-width:0.598927;stroke-linecap:round;stroke-linejoin:round"
       d="m 176.39931,225.68984 c -0.11996,4.5e-4 -0.2274,0.0793 -0.27027,0.19844 l -4.11758,11.24427 c -0.0743,0.20331 0.0676,0.42224 0.27285,0.42065 h 1.34308 c 0.11996,-4.6e-4 0.22738,-0.0793 0.27026,-0.19845 l 1.18081,-3.26646 h 3.77806 l 1.19786,3.26957 c 0.0438,0.11796 0.151,0.19538 0.27027,0.19534 h 1.37356 c 0.20409,-3.7e-4 0.3442,-0.21845 0.27026,-0.42065 l -4.10362,-11.24427 c -0.0429,-0.11917 -0.15027,-0.19799 -0.27027,-0.19844 z m 0.59065,2.85202 c 0.0365,0.12797 0.0725,0.2546 0.10285,0.37568 0.003,0.008 0.006,0.0161 0.009,0.0238 0.0496,0.14768 0.0826,0.24875 0.10598,0.31109 l 1.03353,2.96417 h -2.50165 l 1.05005,-2.97295 c 9.6e-4,-0.001 0.001,-0.002 0.003,-0.003 0.0589,-0.17756 0.12353,-0.41702 0.1974,-0.69866 z" />
    <path
       id="path18903"
       style="color:#000000;-inkscape-font-specification:'BC Sans, Normal';fill:#000000;stroke-width:0.598927;stroke-linecap:round;stroke-linejoin:round"
       d="m 183.14411,225.73739 c -0.16091,-0.001 -0.29208,0.13691 -0.29249,0.30798 v 11.19983 c 4.1e-4,0.17108 0.13151,0.3092 0.29249,0.308 h 2.93626 c 1.78131,0 3.21252,-0.49575 4.24005,-1.50998 1.04342,-1.0307 1.55184,-2.55885 1.55184,-4.50774 0,-1.23083 -0.21682,-2.28821 -0.66869,-3.15951 -0.4496,-0.86694 -1.10303,-1.53391 -1.93889,-1.97817 -0.82426,-0.44364 -1.78657,-0.66041 -2.87528,-0.66041 z m 1.6185,1.82727 h 1.43455 c 1.21863,0 2.11156,0.32714 2.73575,0.96221 9.4e-4,0.001 0.001,0.002 0.003,0.003 0.62178,0.61441 0.9555,1.60889 0.9555,3.05304 0,1.43224 -0.3394,2.45086 -0.9834,3.12126 -0.644,0.6704 -1.62711,1.02474 -3.00602,1.02474 h -1.13947 z" />
  </g>
</svg>
