<?xml version="1.0" encoding="UTF-8" standalone="no"?>
<svg
   width="1000"
   height="1000"
   viewBox="0 0 264.58333 264.58333"
   version="1.1"
   id="svg5"
   xmlns="http://www.w3.org/2000/svg"
   xmlns:svg="http://www.w3.org/2000/svg">
  <defs
     id="defs2" />
  <g
     id="layer1">
    <path
       id="path12308"
       style="color:#000000;fill:#000000;stroke-width:6.89381;stroke-linecap:round;stroke-linejoin:round"
       d="m 225.60534,180.43859 c -1.9036,6e-5 -3.44676,1.54322 -3.44681,3.44682 -2.3e-4,1.90381 1.54301,3.44728 3.44681,3.44733 h 19.85977 c 1.90381,-4e-5 3.44706,-1.54352 3.44682,-3.44733 -4e-5,-1.9036 -1.54321,-3.44677 -3.44682,-3.44682 z" />
    <path
       id="path12314"
       style="color:#000000;fill:#000000;stroke-width:6.89381;stroke-linecap:round;stroke-linejoin:round"
       d="m 31.757234,180.43859 c -1.903606,5e-5 -3.446771,1.54322 -3.446818,3.44682 -2.34e-4,1.90381 1.543013,3.44729 3.446818,3.44733 h 20.270597 c 1.903805,-4e-5 3.447053,-1.54352 3.446818,-3.44733 -4.7e-5,-1.9036 -1.543212,-3.44677 -3.446818,-3.44682 z" />
    <path
       id="path15753"
       style="color:#000000;-inkscape-font-specification:'BC Sans, Normal';fill:#000000;stroke-width:1.42451;stroke-linecap:round;stroke-linejoin:round"
       d="m 73.276131,170.04078 5.17e-4,5.2e-4 c -1.717108,0 -3.248783,0.27858 -4.584733,0.85473 -1.332883,0.57498 -2.419255,1.42424 -3.197738,2.52491 -0.787859,1.1138 -1.178222,2.44434 -1.178222,3.9181 0,2.13363 0.613536,3.93148 1.865002,5.23741 1.21617,1.26901 2.973679,2.28378 5.25756,3.10369 1.525083,0.57188 2.715291,1.09133 3.56154,1.54874 0.823085,0.44493 1.346478,0.91506 1.615922,1.34617 0.2792,0.44703 0.437183,1.01453 0.437183,1.757 0,1.0948 -0.371325,1.84062 -1.204578,2.47065 -0.813435,0.61503 -2.099457,0.97617 -3.911906,0.97617 -1.318543,0 -2.598672,-0.15122 -3.843693,-0.45062 h -0.0072 c -1.245744,-0.30574 -2.282776,-0.64863 -3.096452,-1.01028 -0.470568,-0.20501 -0.996947,0.1399 -0.996839,0.65319 v 3.11041 c -0.0017,0.27551 0.155722,0.52727 0.40411,0.64647 0.897676,0.42238 1.984052,0.73775 3.258716,0.96273 1.277284,0.22543 2.65739,0.33642 4.140316,0.33642 2.929763,0 5.344216,-0.66963 7.16287,-2.06654 1.827444,-1.40369 2.773474,-3.454 2.773474,-5.91799 0,-1.44277 -0.293947,-2.70228 -0.928626,-3.72949 l -0.0072,-0.007 c -0.596659,-1.00008 -1.486517,-1.8385 -2.618962,-2.51096 -1.092771,-0.68614 -2.410166,-1.31077 -3.965133,-1.87844 -0.0022,-1e-5 -0.0045,-1e-5 -0.0067,0 -1.376313,-0.49836 -2.458018,-0.97122 -3.225127,-1.39991 -0.743289,-0.43965 -1.235885,-0.90069 -1.514636,-1.34669 -0.27713,-0.4432 -0.430981,-1.02117 -0.430981,-1.79059 0,-0.96196 0.300233,-1.61678 0.96945,-2.16783 0.0024,-0.002 0.0048,-0.005 0.0072,-0.007 0.644364,-0.54964 1.677659,-0.8816 3.19102,-0.8816 1.052857,0 2.078899,0.12554 3.083533,0.37672 1.028073,0.25713 1.967839,0.57386 2.820499,0.94258 0.377515,0.16544 0.816218,-0.0231 0.956014,-0.41083 l 1.009758,-2.78691 c 0.128195,-0.35292 -0.03957,-0.74474 -0.383439,-0.89555 -1.03576,-0.45475 -2.164844,-0.81606 -3.386357,-1.09037 -1.240574,-0.27851 -2.582031,-0.41755 -4.026111,-0.41755 z" />
    <path
       id="path15759"
       style="color:#000000;-inkscape-font-specification:'BC Sans, Normal';fill:#000000;stroke-width:1.42451;stroke-linecap:round;stroke-linejoin:round"
       d="m 93.069755,170.40407 -6.840409,5.1e-4 c -0.394442,-7.3e-4 -0.714386,0.31921 -0.713652,0.71365 v 25.8315 c -7.34e-4,0.39445 0.31921,0.71439 0.713652,0.71365 h 3.258715 c 0.394241,4.5e-4 0.713869,-0.31941 0.713135,-0.71365 v -9.34413 h 2.255676 c 2.009578,0 3.708732,-0.23166 5.116482,-0.72709 1.3981,-0.48301 2.553106,-1.13248 3.440096,-1.96577 l 0.007,-0.007 c 0.86259,-0.83646 1.49525,-1.79954 1.87172,-2.86753 v -0.007 c 0.38843,-1.06424 0.58601,-2.17915 0.58601,-3.31918 0,-2.56416 -0.85962,-4.68064 -2.56522,-6.1464 -1.738516,-1.49398 -4.372656,-2.1611 -7.842925,-2.1611 z m -2.868559,4.20852 h 2.578654 c 2.181579,0 3.690694,0.41358 4.557864,1.08366 0.002,0.002 0.004,0.005 0.007,0.007 0.90057,0.68046 1.34664,1.6479 1.34668,3.15743 0,1.75537 -0.49977,2.80821 -1.48776,3.46026 -0.002,-1e-5 -0.005,-1e-5 -0.007,0 -0.99019,0.66684 -2.69459,1.07022 -5.103044,1.07022 h -1.891874 z" />
    <path
       id="path15765"
       style="color:#000000;-inkscape-font-specification:'BC Sans, Normal';fill:#000000;stroke-width:1.42451;stroke-linecap:round;stroke-linejoin:round"
       d="m 112.89593,170.2971 c -0.29157,0.001 -0.553,0.17987 -0.65991,0.45113 l -10.09809,25.9457 c -0.18096,0.46752 0.1648,0.97073 0.66611,0.96945 h 3.29231 c 0.29557,6.3e-4 0.56081,-0.18134 0.66662,-0.45733 l 2.89492,-7.54011 h 9.26351 l 2.93522,7.54683 c 0.10791,0.27317 0.37241,0.4521 0.66611,0.45061 h 3.36621 c 0.49867,-0.003 0.83991,-0.50439 0.6599,-0.96945 l -10.05778,-25.9457 c -0.10691,-0.27126 -0.36834,-0.44998 -0.65991,-0.45113 z m 1.45418,6.5722 c 0.0898,0.29592 0.17441,0.59439 0.24908,0.87385 0.004,0.0181 0.008,0.036 0.0134,0.0538 0.12168,0.34056 0.20546,0.57033 0.26303,0.71365 l 2.53112,6.83989 h -6.11953 l 2.5647,-6.85333 c 0.002,-0.005 0.005,-0.009 0.007,-0.014 0.1453,-0.41176 0.30859,-0.95934 0.49093,-1.61386 z" />
    <path
       id="path15771"
       style="color:#000000;-inkscape-font-specification:'BC Sans, Normal';fill:#000000;stroke-width:1.42451;stroke-linecap:round;stroke-linejoin:round"
       d="m 140.22916,170.65625 c -2.75242,0 -5.55561,-0.0211 -7.54064,1.18907 -1.97267,1.1785 -3.49018,2.85191 -4.51032,4.96869 -0.002,0.002 -0.005,0.004 -0.007,0.007 -0.99281,2.08752 -1.47437,4.486 -1.47433,7.17682 0,2.778 0.44521,5.22866 1.36012,7.33805 -1e-5,0.002 -1e-5,0.004 0,0.007 0.94394,2.11747 2.37961,3.78866 4.26124,4.94854 1.8957,1.16857 4.22736,1.73684 6.95461,1.73684 1.45139,0 2.70333,-0.0847 3.7698,-0.26251 1.08233,-0.17614 2.12795,-0.45659 3.13728,-0.83509 0.27884,-0.10344 0.46406,-0.36922 0.46457,-0.66663 v -2.8205 c 0.003,-0.4783 -0.45731,-0.82335 -0.91571,-0.68678 -0.96703,0.28299 -1.94455,0.51818 -2.93522,0.70693 -0.96617,0.18406 -1.98113,0.28267 -3.04943,0.28267 -2.81463,0 -4.78235,-0.84393 -6.13347,-2.51767 v -0.007 c -1.34808,-1.72635 -2.05311,-4.08694 -2.05311,-7.18354 0,-3.11537 0.75568,-5.47395 2.21486,-7.1763 1.45896,-1.70218 3.39703,-2.53783 6.01203,-2.53783 1.09853,-3e-5 2.08582,0.14338 2.97553,0.41031 0.002,2e-5 0.005,2e-5 0.007,0 0.96165,0.28161 1.81819,0.59713 2.57813,0.94258 0.35512,0.16374 0.77584,0.0106 0.94258,-0.34314 l 1.29915,-2.75383 c 0.1662,-0.34961 -0.3973,-0.42667 -0.74308,-0.60077 -2.14049,-1.07023 -2.61933,-1.32291 -3.96875,-1.32291 z" />
    <path
       id="path15777"
       style="color:#000000;-inkscape-font-specification:'BC Sans, Normal';fill:#000000;stroke-width:1.42451;stroke-linecap:round;stroke-linejoin:round"
       d="m 149.5123,170.40458 c -0.39444,-7.3e-4 -0.71438,0.31921 -0.71365,0.71365 v 1.87844 c 3e-4,0.33156 0.22932,0.61907 0.55242,0.6935 l 2.4908,0.59221 v 19.53059 l -2.48408,0.56534 c -0.32577,0.0717 -0.55813,0.35993 -0.55914,0.6935 v 1.87792 c -7.3e-4,0.39445 0.31921,0.71439 0.71365,0.71365 h 9.33793 c 0.39444,7.4e-4 0.71438,-0.3192 0.71365,-0.71365 v -1.87792 c -0.001,-0.33357 -0.23337,-0.62176 -0.55914,-0.6935 l -2.48408,-0.56534 v -19.53059 l 2.4908,-0.59221 c 0.3231,-0.0744 0.55212,-0.36194 0.55242,-0.6935 v -1.87844 c 7.3e-4,-0.39444 -0.31921,-0.71438 -0.71365,-0.71365 z" />
    <path
       id="path15783"
       style="color:#000000;-inkscape-font-specification:'BC Sans, Normal';fill:#000000;stroke-width:1.42451;stroke-linecap:round;stroke-linejoin:round"
       d="m 163.84527,170.40458 c -0.39444,-7.3e-4 -0.71438,0.31921 -0.71365,0.71365 v 25.8315 c -7.3e-4,0.39445 0.31921,0.71439 0.71365,0.71365 h 3.00292 c 0.39162,-0.003 0.70716,-0.32202 0.70642,-0.71365 v -14.43374 c 0,-1.33964 -0.0344,-2.64266 -0.10749,-3.91139 -0.0172,-0.2761 -0.0241,-0.43729 -0.0403,-0.6935 l 12.51552,19.42931 c 0.13199,0.20222 0.35745,0.3238 0.59893,0.32297 h 3.8039 c 0.39182,-0.003 0.70768,-0.32182 0.70694,-0.71365 v -25.8315 c 7.4e-4,-0.39182 -0.31512,-0.71068 -0.70694,-0.71365 h -3.04322 c -0.39445,-7.4e-4 -0.71439,0.31921 -0.71366,0.71365 v 14.58206 c 0,0.58876 0.0172,1.22269 0.0403,1.90531 0.0241,0.67574 0.0431,1.34104 0.0672,1.99264 0.007,0.18441 0.0138,0.33533 0.0207,0.5116 l -12.49484,-19.37556 c -0.12912,-0.20279 -0.35182,-0.32677 -0.59221,-0.3297 z" />
    <path
       id="path15789"
       style="color:#000000;-inkscape-font-specification:'BC Sans, Normal';fill:#000000;stroke-width:1.42451;stroke-linecap:round;stroke-linejoin:round"
       d="m 203.42425,170.0413 c -2.9143,-0.0857 -5.45418,0.57861 -7.58041,1.757 -2.11284,1.14758 -3.75921,2.80526 -4.88084,4.92114 -1.09859,2.09507 -1.63608,4.54843 -1.63608,7.3179 0,2.80768 0.48745,5.27761 1.48105,7.39232 -1e-5,0.002 -1e-5,0.004 0,0.007 1.02032,2.09158 2.52743,3.74732 4.47673,4.90151 0.002,2e-5 0.005,2e-5 0.007,0 1.96336,1.13669 4.35098,1.68931 7.12257,1.68931 1.83763,0 3.48759,-0.11237 4.95525,-0.33642 1.46263,-0.22302 2.91321,-0.56641 4.34857,-1.03663 0.29431,-0.0957 0.49312,-0.37057 0.49196,-0.68006 v -12.66331 c 7.3e-4,-0.39444 -0.31921,-0.71438 -0.71365,-0.71365 h -8.94054 c -0.39181,0.003 -0.70767,0.32183 -0.70693,0.71365 v 2.89492 c -7.4e-4,0.39183 0.31512,0.71069 0.70693,0.71365 h 4.96817 v 6.37532 c -0.49257,0.11202 -0.98485,0.22198 -1.56166,0.30954 -0.74646,0.11305 -1.67897,0.17518 -2.78743,0.17518 -2.22665,0 -3.9608,-0.41944 -5.2374,-1.19837 -1.29841,-0.81644 -2.23975,-1.91686 -2.86133,-3.35277 v -0.007 c -0.60917,-1.49158 -0.92242,-3.21127 -0.92242,-5.18366 0,-3.08143 0.80246,-5.40924 2.3766,-7.11636 1.59405,-1.7269 3.76935,-2.59158 6.71225,-2.59158 1.16971,0 2.28908,0.14779 3.35897,0.44391 0.005,5e-5 0.009,5e-5 0.014,0 1.12848,0.28195 2.13316,0.61385 3.00964,0.98288 0.36047,0.15021 0.77467,-0.0178 0.92862,-0.37672 l 1.23197,-2.82102 c 0.15582,-0.36061 -0.01,-0.7793 -0.37001,-0.93586 -1.15929,-0.504 -2.40989,-0.8899 -3.75636,-1.16427 -1.3308,-0.2761 -2.74466,-0.37371 -4.23488,-0.41754 z" />
  </g>
</svg>
