<?xml version="1.0" encoding="UTF-8" standalone="no"?>
<svg
   width="1000"
   height="1000"
   viewBox="0 0 264.58333 264.58333"
   version="1.1"
   id="svg5"
   xmlns="http://www.w3.org/2000/svg"
   xmlns:svg="http://www.w3.org/2000/svg">
  <defs
     id="defs2" />
  <g
     id="layer1">
    <path
       style="color:#000000;fill:#000000;stroke-width:1.51067;stroke-linecap:round"
       d="m 264.58333,175.97714 c -9.80062,0 -17.84476,8.04411 -17.84476,17.84476 0,9.80066 8.04414,17.84477 17.84476,17.84477 9.80068,0 17.84476,-8.04413 17.84476,-17.84477 0,-9.80064 -8.04409,-17.84476 -17.84476,-17.84476 z m 0,3.02133 c 8.1491,0 14.82343,6.67436 14.82343,14.82343 0,8.14909 -6.67433,14.82343 -14.82343,14.82343 -8.14904,0 -14.82343,-6.67436 -14.82343,-14.82343 0,-8.14907 6.67439,-14.82343 14.82343,-14.82343 z m 0,4.57331 c -5.66976,0 -10.25011,4.58031 -10.25011,10.25012 0,5.66981 4.58035,10.25011 10.25011,10.25011 5.66981,0 10.24718,-4.5803 10.24718,-10.25011 0,-5.66981 -4.57736,-10.25012 -10.24718,-10.25012 z m 0,3.02134 c 4.06984,0 7.22584,3.15895 7.22584,7.22878 0,4.06985 -3.156,7.22877 -7.22583,7.22877 -4.06977,0 -7.22878,-3.15894 -7.22878,-7.22877 0,-4.06983 3.15901,-7.22878 7.22877,-7.22878 z"
       id="path2031-5-7-6-3-8" />
    <path
       id="path8001-0-7-3-3"
       style="color:#000000;fill:#000000;stroke-width:1.51067;stroke-linecap:round;stroke-linejoin:round"
       d="M -97.976964 148.21886 A 1.5108189 1.5108189 0 0 0 -99.487466 149.72936 L -99.487466 154.26138 A 1.5108189 1.5108189 0 0 0 -97.976964 155.77189 L -94.955443 155.77189 A 1.5106678 1.5106678 0 0 0 -93.444941 157.28239 L -87.402416 157.28239 A 1.5106678 1.5106678 0 0 0 -85.891397 155.77189 L -29.265397 155.77189 L -17.908467 171.75489 A 1.5108189 1.5108189 0 0 0 -16.675468 172.38948 L 281.68771 172.38948 L 290.374 194.09926 A 1.5108189 1.5108189 0 0 0 291.77547 195.04907 L 300.83951 195.04907 A 1.5108189 1.5108189 0 0 0 302.27354 194.01658 L 309.82656 171.35646 A 1.5108189 1.5108189 0 0 0 309.90356 170.87846 L 309.90356 166.34643 A 1.5108189 1.5108189 0 0 0 308.39254 164.83593 L -0.82527261 164.83593 L -24.60935 148.48396 A 1.5108189 1.5108189 0 0 0 -25.465112 148.21886 L -97.976964 148.21886 z M -96.466462 151.23986 L -25.933817 151.23986 L -2.1497396 167.59184 A 1.5108189 1.5108189 0 0 0 -1.2939778 167.85745 L 306.88204 167.85745 L 306.88204 170.63351 L 299.75069 192.02807 L 292.79918 192.02807 L 284.11289 170.31828 A 1.5108189 1.5108189 0 0 0 282.71142 169.36795 L -15.896187 169.36795 L -27.2557 153.38495 A 1.5108189 1.5108189 0 0 0 -28.486116 152.75036 L -96.466462 152.75036 L -96.466462 151.23986 z " />
    <path
       id="path28780"
       style="color:#000000;fill:#000000;stroke-width:3.02134;stroke-linecap:round;stroke-linejoin:round"
       d="m 264.60503,217.91434 c -0.83439,1e-4 -1.51069,0.67663 -1.5105,1.51102 v 10.57455 h -128.4335 c -0.83419,9e-5 -1.51041,0.67631 -1.51051,1.5105 1e-4,0.8342 0.67632,1.51042 1.51051,1.5105 h 128.4335 v 9.06405 c -1.9e-4,0.83439 0.67611,1.51093 1.5105,1.51102 0.8344,-9e-5 1.5107,-0.67663 1.5105,-1.51102 v -22.6596 c 2e-4,-0.83439 -0.6761,-1.51092 -1.5105,-1.51102 z" />
    <path
       id="path28828"
       style="color:#000000;fill:#000000;stroke-width:3.02134;stroke-linecap:round;stroke-linejoin:round"
       d="m -76.806164,229.99991 c -0.834188,1e-4 -1.510409,0.67632 -1.510502,1.5105 9.3e-5,0.83419 0.676314,1.51041 1.510502,1.5105 H 50.06361 c 0.834189,-9e-5 1.51041,-0.67631 1.510502,-1.5105 -9.2e-5,-0.83418 -0.676313,-1.5104 -1.510502,-1.5105 z" />
    <path
       id="path5063-8"
       style="color:#000000;fill:#000000;stroke-width:1.51067;stroke-linecap:round;stroke-linejoin:round;-inkscape-stroke:none"
       d="M -147.79356 65.078714 A 1.5108189 1.5108189 0 0 0 -149.30406 66.589216 L -149.30406 140.61209 A 1.5108189 1.5108189 0 0 0 -147.79356 142.12259 L -22.877156 142.12259 L 0.90692138 158.47146 A 1.5106678 1.5106678 0 0 0 1.3348022 158.56345 A 1.5106678 1.5106678 0 0 0 1.7626831 158.74018 L 264.24743 158.74018 A 1.5106678 1.5106678 0 0 0 264.58333 158.79341 A 1.5106678 1.5106678 0 0 0 264.97194 158.74018 L 341.66286 158.74018 A 1.5108189 1.5108189 0 0 0 343.17336 157.22968 L 343.17336 66.589733 A 1.5108189 1.5108189 0 0 0 341.66286 65.078714 L -90.38828 65.078714 L -147.79356 65.078714 z M -146.28306 68.100235 L -91.898265 68.100235 A 1.5106678 1.5106678 0 0 0 -90.38828 69.607637 A 1.5106678 1.5106678 0 0 0 -88.877778 68.100235 L 340.15184 68.100235 L 340.15184 155.71866 L 266.09383 155.71866 L 266.09383 154.26138 A 1.5106678 1.5106678 0 0 0 264.58333 152.75036 A 1.5106678 1.5106678 0 0 0 263.07283 154.26138 L 263.07283 155.71866 L 2.2313883 155.71866 L -21.552689 139.3672 A 1.5108189 1.5108189 0 0 0 -22.407934 139.10159 L -88.877778 139.10159 L -88.877778 137.58798 A 1.5106678 1.5106678 0 0 0 -90.38828 136.07696 A 1.5106678 1.5106678 0 0 0 -91.898782 137.58798 L -91.898782 139.10159 L -146.28306 139.10159 L -146.28306 68.100235 z M 264.58333 68.153462 A 1.5106678 1.5106678 0 0 0 263.07283 69.663964 L 263.07283 72.684968 A 1.5106678 1.5106678 0 0 0 264.58333 74.195987 A 1.5106678 1.5106678 0 0 0 266.09383 72.684968 L 266.09383 69.663964 A 1.5106678 1.5106678 0 0 0 264.58333 68.153462 z M -90.38828 75.650679 A 1.5106678 1.5106678 0 0 0 -91.898782 77.161181 L -91.898782 80.182702 A 1.5106678 1.5106678 0 0 0 -90.38828 81.693204 A 1.5106678 1.5106678 0 0 0 -88.877778 80.182702 L -88.877778 77.161181 A 1.5106678 1.5106678 0 0 0 -90.38828 75.650679 z M 264.58333 80.238512 A 1.5106678 1.5106678 0 0 0 263.07283 81.749014 L 263.07283 84.770535 A 1.5106678 1.5106678 0 0 0 264.58333 86.281037 A 1.5106678 1.5106678 0 0 0 266.09383 84.770535 L 266.09383 81.749014 A 1.5106678 1.5106678 0 0 0 264.58333 80.238512 z M -90.38828 87.735729 A 1.5106678 1.5106678 0 0 0 -91.898782 89.246748 L -91.898782 92.267752 A 1.5106678 1.5106678 0 0 0 -90.38828 93.778254 A 1.5106678 1.5106678 0 0 0 -88.877778 92.267752 L -88.877778 89.246748 A 1.5106678 1.5106678 0 0 0 -90.38828 87.735729 z M 264.58333 92.324079 A 1.5106678 1.5106678 0 0 0 263.07283 93.834581 L 263.07283 96.856102 A 1.5106678 1.5106678 0 0 0 264.58333 98.366604 A 1.5106678 1.5106678 0 0 0 266.09383 96.856102 L 266.09383 93.834581 A 1.5106678 1.5106678 0 0 0 264.58333 92.324079 z M -90.38828 99.821296 A 1.5106678 1.5106678 0 0 0 -91.898782 101.3318 L -91.898782 104.35332 A 1.5106678 1.5106678 0 0 0 -90.38828 105.86382 A 1.5106678 1.5106678 0 0 0 -88.877778 104.35332 L -88.877778 101.3318 A 1.5106678 1.5106678 0 0 0 -90.38828 99.821296 z M 264.58333 104.40913 A 1.5106678 1.5106678 0 0 0 263.07283 105.92015 L 263.07283 108.94115 A 1.5106678 1.5106678 0 0 0 264.58333 110.45165 A 1.5106678 1.5106678 0 0 0 266.09383 108.94115 L 266.09383 105.92015 A 1.5106678 1.5106678 0 0 0 264.58333 104.40913 z M -90.38828 111.90635 A 1.5106678 1.5106678 0 0 0 -91.898782 113.41737 L -91.898782 116.43837 A 1.5106678 1.5106678 0 0 0 -90.38828 117.94939 A 1.5106678 1.5106678 0 0 0 -88.877778 116.43837 L -88.877778 113.41737 A 1.5106678 1.5106678 0 0 0 -90.38828 111.90635 z M 264.58333 116.4947 A 1.5106678 1.5106678 0 0 0 263.07283 118.0052 L 263.07283 121.02672 A 1.5106678 1.5106678 0 0 0 264.58333 122.53722 A 1.5106678 1.5106678 0 0 0 266.09383 121.02672 L 266.09383 118.0052 A 1.5106678 1.5106678 0 0 0 264.58333 116.4947 z M -90.38828 123.99191 A 1.5106678 1.5106678 0 0 0 -91.898782 125.50242 L -91.898782 128.52394 A 1.5106678 1.5106678 0 0 0 -90.38828 130.03444 A 1.5106678 1.5106678 0 0 0 -88.877778 128.52394 L -88.877778 125.50242 A 1.5106678 1.5106678 0 0 0 -90.38828 123.99191 z M 264.58333 128.57975 A 1.5106678 1.5106678 0 0 0 263.07283 130.09077 L 263.07283 133.11177 A 1.5106678 1.5106678 0 0 0 264.58333 134.62279 A 1.5106678 1.5106678 0 0 0 266.09383 133.11177 L 266.09383 130.09077 A 1.5106678 1.5106678 0 0 0 264.58333 128.57975 z M 264.58333 140.66531 A 1.5106678 1.5106678 0 0 0 263.07283 142.17582 L 263.07283 145.19734 A 1.5106678 1.5106678 0 0 0 264.58333 146.70784 A 1.5106678 1.5106678 0 0 0 266.09383 145.19734 L 266.09383 142.17582 A 1.5106678 1.5106678 0 0 0 264.58333 140.66531 z " />
    <path
       id="path28966"
       style="color:#000000;fill:#000000;stroke-width:3.02134;stroke-linecap:round;stroke-linejoin:round"
       d="M -147.79356 43.926517 A 1.5106678 1.5106678 0 0 0 -149.30406 45.437019 L -149.30406 57.522586 A 1.5106678 1.5106678 0 0 0 -147.79356 59.033088 A 1.5106678 1.5106678 0 0 0 -146.28306 57.522586 L -146.28306 52.990563 L -91.898782 52.990563 L -91.898782 57.522586 A 1.5106678 1.5106678 0 0 0 -90.38828 59.033088 A 1.5106678 1.5106678 0 0 0 -88.877778 57.522586 L -88.877778 45.437019 A 1.5106678 1.5106678 0 0 0 -90.38828 43.926517 A 1.5106678 1.5106678 0 0 0 -91.898782 45.437019 L -91.898782 49.969042 L -146.28306 49.969042 L -146.28306 45.437019 A 1.5106678 1.5106678 0 0 0 -147.79356 43.926517 z " />
    <path
       id="path28984"
       style="color:#000000;fill:#000000;stroke-width:3.02134;stroke-linecap:round;stroke-linejoin:round"
       d="M 341.36159 43.929618 A 1.5106678 1.5106678 0 0 0 339.85109 45.44012 L 339.85109 49.973176 L 266.09383 50.024336 L 266.09383 45.493347 A 1.5106678 1.5106678 0 0 0 264.58333 43.982328 A 1.5106678 1.5106678 0 0 0 263.07283 45.493347 L 263.07283 57.578397 A 1.5106678 1.5106678 0 0 0 264.58333 59.089416 A 1.5106678 1.5106678 0 0 0 266.09383 57.578397 L 266.09383 53.04534 L 339.85109 52.994181 L 339.85109 57.52517 A 1.5106678 1.5106678 0 0 0 341.36159 59.036189 A 1.5106678 1.5106678 0 0 0 342.87261 57.52517 L 342.87261 45.44012 A 1.5106678 1.5106678 0 0 0 341.36159 43.929618 z " />
    <path
       id="path9566"
       style="color:#000000;-inkscape-font-specification:'BC Sans, Normal';fill:#000000;stroke-width:0.574428"
       d="m -149.32834,9.6159542 c -0.15387,1.5e-5 -0.27855,0.13252 -0.27855,0.296108 V 20.653008 c 0,0.163558 0.12467,0.296093 0.27855,0.296093 h 1.27278 c 0.15385,0 0.27905,-0.13252 0.27906,-0.296093 v -4.261756 h 3.82508 c 0.15387,0 0.27852,-0.13252 0.27853,-0.296108 v -1.187523 c 0,-0.163558 -0.1248,-0.296108 -0.27853,-0.296108 h -3.82508 V 11.39827 h 4.09225 c 0.15386,0 0.27853,-0.132519 0.27854,-0.296107 V 9.9120622 c -1e-5,-0.163558 -0.12481,-0.296108 -0.27854,-0.296108 z" />
    <path
       id="path9572"
       style="color:#000000;-inkscape-font-specification:'BC Sans, Normal';fill:#000000;stroke-width:0.574428"
       d="m -141.98461,9.6159542 c -0.15386,1.5e-5 -0.27853,0.13252 -0.27853,0.296108 V 20.653008 c 0,0.163558 0.12467,0.296093 0.27853,0.296093 h 1.27279 c 0.15385,0 0.27904,-0.13252 0.27905,-0.296093 v -4.14032 h 1.57096 l 2.36834,4.291202 c 0.0502,0.08991 0.14093,0.145256 0.23926,0.145256 h 1.48777 c 0.21681,-9.85e-4 0.3494,-0.253228 0.23667,-0.450097 l -2.61017,-4.530981 c 0.16101,-0.0743 0.3261,-0.136614 0.47904,-0.234094 h -0.006 c 0.27188,-0.166741 0.51317,-0.379031 0.72141,-0.633563 0.21042,-0.257246 0.37826,-0.556568 0.50178,-0.894509 0.13907,-0.363762 0.20309,-0.779699 0.20309,-1.240759 0,-1.093334 -0.327,-1.969163 -0.99426,-2.532145 -0.66969,-0.5649828 -1.66274,-0.8169978 -2.96158,-0.8169978 z m 1.55184,1.7678508 h 1.16427 c 0.79856,0 1.35865,0.149654 1.68,0.393769 9.4e-4,0.001 0.001,0.0015 0.003,0.003 0.31,0.227528 0.47388,0.603663 0.47388,1.246445 0,0.612987 -0.15969,1.022722 -0.47077,1.312068 -0.28971,0.268466 -0.819,0.43821 -1.61335,0.43821 h -1.23661 z" />
    <path
       id="path9578"
       style="color:#000000;-inkscape-font-specification:'BC Sans, Normal';fill:#000000;stroke-width:0.574428"
       d="m -129.00814,9.4500622 c -1.09478,0 -2.02854,0.240749 -2.78019,0.7374258 -2e-5,10e-4 -2e-5,0.0011 0,0.003 -0.73518,0.492446 -1.28949,1.192179 -1.649,2.073254 -0.35722,0.866003 -0.53227,1.866392 -0.53227,2.991037 0,1.145205 0.17459,2.158875 0.53227,3.035462 0.35951,0.881106 0.91382,1.580322 1.649,2.072753 0.75118,0.496374 1.68056,0.737411 2.76624,0.737411 1.04838,0 1.95417,-0.242265 2.69441,-0.737411 0.74289,-0.490869 1.3072,-1.182201 1.6769,-2.052071 v -0.003 c 0.37735,-0.877239 0.56275,-1.892683 0.56275,-3.038571 0,-1.145902 -0.1848,-2.158117 -0.56275,-3.026168 -0.36864,-0.877057 -0.92724,-1.571194 -1.66037,-2.052587 -0.74064,-0.4961148 -1.64759,-0.7400188 -2.69699,-0.7400188 z m 0,1.7823308 v 5.16e-4 c 1.08246,0 1.80674,0.345961 2.27893,1.036111 9.4e-4,1.5e-5 0.001,1.5e-5 0.003,0 0.48159,0.694774 0.73795,1.686884 0.73795,2.999816 0,1.312189 -0.26242,2.313275 -0.75499,3.029792 -0.4722,0.690165 -1.19596,1.036627 -2.27842,1.036627 -1.08088,0 -1.81119,-0.346978 -2.29288,-1.036627 v -0.003 c -0.49171,-0.71638 -0.75499,-1.715692 -0.75499,-3.026683 0,-1.312205 0.26163,-2.301873 0.75188,-2.996723 v -0.003 c 0.4812,-0.690998 1.21704,-1.036626 2.30942,-1.036626 z" />
    <path
       id="path9584"
       style="color:#000000;-inkscape-font-specification:'BC Sans, Normal';fill:#000000;stroke-width:0.574428"
       d="m -115.30975,9.6154392 c -0.15386,1.5e-5 -0.27854,0.133126 -0.27854,0.296623 v 6.0616458 c 0,0.244828 0.004,0.509898 0.0145,0.793739 0.01,0.281006 0.0185,0.558434 0.028,0.829417 0.003,0.07718 0.006,0.139343 0.009,0.212896 l -4.88653,-8.0579048 c -0.0512,-0.08476 -0.13936,-0.135704 -0.23409,-0.135855 h -1.47124 c -0.15386,1.5e-5 -0.27853,0.13252 -0.27853,0.296107 V 20.653054 c 0,0.163557 0.12467,0.296092 0.27853,0.296092 h 1.17307 c 0.15385,0 0.27852,-0.13252 0.27853,-0.296092 v -6.00274 c 0,-0.556963 -0.0128,-1.098262 -0.0419,-1.625749 -0.006,-0.115689 -0.0114,-0.183162 -0.0165,-0.290422 l 4.89479,8.078587 c 0.0512,0.08476 0.1395,0.13631 0.2341,0.136462 h 1.48724 c 0.15385,0 0.27852,-0.13252 0.27853,-0.296093 V 9.9121532 c -1e-5,-0.163543 -0.12466,-0.296608 -0.27853,-0.296623 z" />
    <path
       id="path9590"
       style="color:#000000;-inkscape-font-specification:'BC Sans, Normal';fill:#000000;stroke-width:0.574428"
       d="m -112.60708,9.6159542 c -0.15386,1.5e-5 -0.27853,0.13252 -0.27853,0.296108 v 1.1901008 c 0,0.163557 0.12467,0.296107 0.27853,0.296107 h 2.87786 v 9.254738 c 0,0.163558 0.12467,0.296093 0.27853,0.296093 h 1.2728 c 0.15387,0 0.27905,-0.13252 0.27906,-0.296093 V 11.39827 h 2.8639 c 0.15385,0 0.27853,-0.132519 0.27854,-0.296107 V 9.9120622 c -1e-5,-0.163542 -0.12467,-0.296093 -0.27854,-0.296108 z" />
    <path
       id="path9617"
       style="color:#000000;-inkscape-font-specification:'BC Sans, Normal';fill:#000000;stroke-width:0.574428"
       d="m -149.32834,25.707989 c -0.15387,1.5e-5 -0.27855,0.13252 -0.27855,0.296108 v 10.740946 c 0,0.163558 0.12467,0.296623 0.27855,0.296623 h 1.27278 c 0.15385,0 0.27905,-0.132974 0.27906,-0.296623 v -3.888138 h 0.88004 c 0.78597,0 1.45238,-0.09583 2.00298,-0.301794 0.54682,-0.200812 0.99873,-0.467989 1.34566,-0.814421 9.6e-4,-0.001 0.001,-0.0015 0.003,-0.003 0.33884,-0.349268 0.58581,-0.753029 0.73278,-1.199411 0.15131,-0.441576 0.22841,-0.904244 0.22841,-1.377176 0,-1.066042 -0.33594,-1.946525 -1.00304,-2.55592 -0.67995,-0.621145 -1.71023,-0.897101 -3.06751,-0.897101 z m 1.55184,1.750278 h 1.0082 c 0.85323,0 1.44367,0.171533 1.78284,0.450113 9.4e-4,1.5e-5 0.001,1.5e-5 0.003,0 0.35221,0.282901 0.52658,0.687041 0.52658,1.314645 0,0.729784 -0.19599,1.165493 -0.5824,1.436597 -9.6e-4,0.001 -0.001,0.0015 -0.003,0.003 -0.38725,0.277245 -1.05272,0.443896 -1.99471,0.443896 h -0.74104 z" />
    <path
       id="path9623"
       style="color:#000000;-inkscape-font-specification:'BC Sans, Normal';fill:#000000;stroke-width:0.574428"
       d="m -140.76711,25.707989 c -0.15387,0 -0.27906,0.13252 -0.27906,0.296108 v 10.740946 c 0,0.163558 0.12509,0.296623 0.27906,0.296623 h 1.27278 c 0.15387,0 0.27853,-0.132974 0.27855,-0.296623 v -4.142898 h 1.57147 l 2.36782,4.291202 c 0.0495,0.09098 0.14079,0.147228 0.23978,0.147834 h 1.48777 c 0.21906,4.7e-4 0.35276,-0.255214 0.23666,-0.45269 l -2.61327,-4.530981 c 0.16037,-0.07384 0.32409,-0.134037 0.47645,-0.231 l 0.003,-0.003 c 0.2705,-0.166423 0.51146,-0.377484 0.71882,-0.63097 0.20992,-0.25661 0.37785,-0.557584 0.50126,-0.894524 0.13908,-0.363763 0.2036,-0.779684 0.2036,-1.240759 0,-1.093304 -0.33053,-1.971741 -0.99787,-2.534723 -0.66969,-0.564984 -1.65962,-0.814421 -2.95848,-0.814421 z m 1.55133,1.765274 h 1.16477 c 0.79858,1.5e-5 1.35556,0.152883 1.67691,0.396862 0.001,10e-4 0.004,0.0011 0.006,0.003 0.31002,0.227528 0.47388,0.60107 0.47388,1.243852 0,0.612988 -0.15968,1.022738 -0.47077,1.312068 -0.28971,0.268482 -0.819,0.43821 -1.61335,0.43821 h -1.23661 z" />
    <path
       id="path9629"
       style="color:#000000;-inkscape-font-specification:'BC Sans, Normal';fill:#000000;stroke-width:0.574428"
       d="m -127.79064,25.542112 c -1.09479,0 -2.02853,0.240749 -2.7802,0.737426 -0.73515,0.492431 -1.28998,1.192163 -1.6495,2.073253 -0.3579,0.86658 -0.53176,1.865316 -0.53176,2.991037 0,1.14519 0.17409,2.158876 0.53176,3.035463 0.35952,0.88109 0.91434,1.580322 1.6495,2.072753 -1e-5,10e-4 -1e-5,0.0015 0,0.003 0.75118,0.496374 1.68055,0.734318 2.76625,0.734318 1.04938,0 1.95323,-0.241295 2.69388,-0.737411 0.74259,-0.491203 1.30804,-1.181898 1.67742,-2.052071 0.37807,-0.8778 0.56276,-1.894701 0.56276,-3.04168 0,-1.145887 -0.18482,-2.15554 -0.56276,-3.02359 v -0.003 c -0.36863,-0.877951 -0.92671,-1.570845 -1.66036,-2.052587 -0.74064,-0.496115 -1.6476,-0.737426 -2.69699,-0.737426 z m 0,1.779738 c 1.08246,0 1.80674,0.346462 2.27893,1.036627 9.4e-4,10e-4 0.001,0.0015 0.003,0.003 0.48161,0.694774 0.73536,1.683805 0.73536,2.996722 0,1.31219 -0.25982,2.313275 -0.75241,3.029792 -0.47219,0.690165 -1.19647,1.036627 -2.27893,1.036627 -1.08247,0 -1.8138,-0.344946 -2.29548,-1.036627 -0.49259,-0.716517 -0.75187,-1.717602 -0.75187,-3.029792 0,-1.312174 0.26162,-2.301857 0.75187,-2.996722 0.48121,-0.690999 1.21704,-1.039205 2.30943,-1.039205 z" />
    <path
       id="path9635"
       style="color:#000000;-inkscape-font-specification:'BC Sans, Normal';fill:#000000;stroke-width:0.574428"
       d="m -120.98435,25.707989 c -0.15386,0 -0.27853,0.13252 -0.27853,0.296108 v 10.678932 c 0,0.431281 -0.0662,0.73685 -0.15917,0.906411 -9.5e-4,10e-4 -0.001,0.0015 -0.003,0.003 -0.10798,0.205102 -0.23465,0.326402 -0.39274,0.399455 -9.6e-4,10e-4 -0.001,0.0015 -0.003,0.003 -0.17138,0.08279 -0.35266,0.121451 -0.55139,0.121451 -0.17474,0 -0.33711,-0.01061 -0.4904,-0.03821 -0.006,-0.0012 -0.0114,-0.0015 -0.0165,-0.003 -0.15347,-0.01804 -0.29368,-0.05095 -0.42632,-0.09507 -0.18017,-0.0602 -0.36341,0.08339 -0.36227,0.28422 v 1.143598 c -3.8e-4,0.118116 0.065,0.225087 0.16692,0.272333 0.15221,0.06929 0.32218,0.117509 0.50437,0.150866 0.001,3.79e-4 0.004,-3.94e-4 0.006,0 0.003,5.46e-4 0.006,0.003 0.009,0.003 0.19215,0.04412 0.40409,0.06505 0.6408,0.06505 0.84664,0 1.56699,-0.272409 2.10322,-0.820092 0.55148,-0.563225 0.80512,-1.41775 0.80512,-2.499591 V 26.00438 c -2e-5,-0.163542 -0.12467,-0.296092 -0.27854,-0.296107 z" />
    <path
       id="path9641"
       style="color:#000000;-inkscape-font-specification:'BC Sans, Normal';fill:#000000;stroke-width:0.574428"
       d="m -117.05073,25.707989 c -0.15386,1.5e-5 -0.27854,0.13252 -0.27854,0.296108 v 10.740946 c 0,0.163558 0.12466,0.296623 0.27854,0.296623 h 5.6472 c 0.15386,0 0.27852,-0.132974 0.27853,-0.296623 v -1.190116 c -1e-5,-0.163557 -0.12467,-0.296092 -0.27853,-0.296092 h -4.09277 v -3.242704 h 3.83904 c 0.15385,0 0.27852,-0.132974 0.27853,-0.296623 v -1.172543 c -10e-6,-0.163542 -0.12466,-0.296077 -0.27853,-0.296092 h -3.83904 v -2.763145 h 4.09277 c 0.15386,0 0.27852,-0.13252 0.27853,-0.296108 v -1.187523 c -1e-5,-0.163558 -0.12467,-0.296108 -0.27853,-0.296108 z" />
    <path
       id="path9647"
       style="color:#000000;-inkscape-font-specification:'BC Sans, Normal';fill:#000000;stroke-width:0.574428"
       d="m -104.83752,25.557092 c -1.07644,0 -2.0121,0.246254 -2.78847,0.749314 -0.77153,0.489959 -1.36473,1.187008 -1.76372,2.067052 -0.38829,0.867899 -0.57928,1.866104 -0.57928,2.984835 0,1.154939 0.17443,2.173477 0.53227,3.050458 -2e-5,10e-4 -2e-5,0.0015 0,0.003 0.36918,0.880347 0.93009,1.576031 1.66604,2.058273 0.74142,0.485835 1.65513,0.719337 2.7218,0.719337 0.56764,0 1.05668,-0.03563 1.47381,-0.109473 v 0.003 c 0.4233,-0.07324 0.8336,-0.189379 1.22836,-0.346735 0.10926,-0.04337 0.18123,-0.154081 0.18086,-0.278019 v -1.173059 c -10e-6,-0.197415 -0.17827,-0.339487 -0.35657,-0.28422 -0.37823,0.117661 -0.76285,0.215034 -1.15031,0.293515 -0.37788,0.07657 -0.77436,0.115235 -1.19218,0.115235 -1.10076,0 -1.87038,-0.349662 -2.39882,-1.045406 v -0.003 c -0.52722,-0.717714 -0.80513,-1.700575 -0.80513,-2.987928 0,-1.295223 0.29851,-2.274475 0.8692,-2.982243 0.57065,-0.707677 1.32542,-1.0542 2.34819,-1.0542 0.42963,0 0.81676,0.05792 1.16477,0.168986 9.5e-4,1.5e-5 0.001,1.5e-5 0.003,0 0.3761,0.117054 0.71406,0.247057 1.0113,0.390676 0.13779,0.0655 0.3,0.003 0.36536,-0.142073 l 0.50953,-1.143082 c 0.0646,-0.144953 0.009,-0.317957 -0.12509,-0.390676 -0.83718,-0.444957 -1.81344,-0.663524 -2.91403,-0.663524 z" />
    <path
       id="path9653"
       style="color:#000000;-inkscape-font-specification:'BC Sans, Normal';fill:#000000;stroke-width:0.574428"
       d="m -101.46926,25.707989 c -0.15386,1.5e-5 -0.27853,0.13252 -0.27853,0.296108 v 1.187523 c 0,0.163557 0.12467,0.296108 0.27853,0.296108 h 2.877863 v 9.257315 c 0,0.163558 0.124667,0.296623 0.278546,0.296623 h 1.273297 c 0.153851,0 0.278532,-0.132974 0.278546,-0.296623 v -9.257315 h 2.863894 c 0.153851,0 0.278532,-0.13252 0.278546,-0.296108 v -1.187523 c -1.4e-5,-0.163543 -0.124809,-0.296093 -0.278546,-0.296108 z" />
    <path
       id="path9659"
       style="color:#000000;-inkscape-font-specification:'BC Sans, Normal';fill:#000000;stroke-width:0.574428"
       d="m -93.175188,25.707989 c -0.153865,1.5e-5 -0.279045,0.13252 -0.279045,0.296108 v 0.781867 c 4.13e-4,0.136917 0.08958,0.255821 0.214971,0.287313 l 0.972029,0.245981 v 8.119919 l -0.969447,0.234093 c -0.12752,0.03063 -0.218138,0.151473 -0.217553,0.290422 v 0.781351 c 0,0.163558 0.125094,0.296623 0.279045,0.296623 h 3.649393 c 0.153865,0 0.278518,-0.132974 0.278532,-0.296623 v -0.781351 c 5.7e-4,-0.138889 -0.09015,-0.259855 -0.217553,-0.290422 l -0.969447,-0.234093 v -8.119919 l 0.972542,-0.245981 c 0.12538,-0.03154 0.214044,-0.15026 0.214458,-0.287313 v -0.781867 c -1.4e-5,-0.163558 -0.124809,-0.296108 -0.278532,-0.296108 z" />
    <path
       id="path9665"
       style="color:#000000;-inkscape-font-specification:'BC Sans, Normal';fill:#000000;stroke-width:0.574428"
       d="m -83.396976,25.542112 c -1.094784,0 -2.028528,0.240749 -2.780193,0.737426 -0.735163,0.492431 -1.29,1.192163 -1.649508,2.073253 -0.35791,0.86658 -0.534854,1.865316 -0.534854,2.991037 0,1.14519 0.177172,2.158876 0.534854,3.035463 0.359508,0.88109 0.914331,1.580322 1.649508,2.072753 -1.5e-5,10e-4 -1.5e-5,0.0015 0,0.003 0.75118,0.496374 1.68056,0.734318 2.766243,0.734318 1.049397,0 1.953244,-0.241295 2.693898,-0.737411 0.742579,-0.491203 1.308043,-1.181898 1.677407,-2.052071 0.378066,-0.8778 0.562755,-1.894701 0.562755,-3.04168 0,-1.145887 -0.184804,-2.15554 -0.562755,-3.02359 v -0.003 c -0.368893,-0.878588 -0.929023,-1.5708 -1.663457,-2.052587 -0.74064,-0.4961 -1.644501,-0.737426 -2.693898,-0.737426 z m 0,1.779738 c 1.082475,0 1.806739,0.346478 2.278932,1.036627 -1.4e-5,10e-4 -1.4e-5,0.0015 0,0.003 0.481592,0.694774 0.738457,1.683805 0.738457,2.996722 0,1.31219 -0.259817,2.313275 -0.752407,3.029792 -0.472179,0.690165 -1.196457,1.036627 -2.278932,1.036627 -1.082445,0 -1.813785,-0.344946 -2.295463,-1.036627 -0.49259,-0.716517 -0.752407,-1.717602 -0.752407,-3.029792 0,-1.312174 0.262156,-2.301857 0.752407,-2.996722 0.481207,-0.690999 1.21704,-1.039205 2.309413,-1.039205 z" />
    <path
       id="path9671"
       style="color:#000000;-inkscape-font-specification:'BC Sans, Normal';fill:#000000;stroke-width:0.574428"
       d="m -76.518317,25.707989 c -0.153864,0 -0.278545,0.13252 -0.278545,0.296108 v 10.740946 c 0,0.163558 0.124666,0.296623 0.278545,0.296623 h 1.172537 c 0.153851,0 0.279031,-0.132974 0.279045,-0.296623 v -6.00274 c 0,-0.556962 -0.01284,-1.098247 -0.04179,-1.625733 -0.0057,-0.114477 -0.01141,-0.181101 -0.01712,-0.287329 l 4.895304,8.075994 c 0.05121,0.08476 0.138931,0.135704 0.233586,0.135855 H -68.509 c 0.153851,0 0.278531,-0.13252 0.278546,-0.296107 V 26.004036 c -1.5e-5,-0.163542 -0.124667,-0.296093 -0.278546,-0.296108 h -1.189582 c -0.153865,0 -0.278546,0.13252 -0.278546,0.296108 v 6.062162 c 0,0.244843 0.0043,0.509898 0.01455,0.793754 0.01,0.280991 0.01854,0.555325 0.02796,0.826309 0.0029,0.07687 0.0057,0.139494 0.0086,0.212896 l -4.886518,-8.054797 c -0.05106,-0.08476 -0.139358,-0.13631 -0.234099,-0.136462 z" />
    <path
       id="path9686"
       style="color:#000000;-inkscape-font-specification:'BC Sans, Normal';fill:#000000;stroke-width:0.574428"
       d="m 264.19412,9.6159082 a 0.27860142,0.29615162 0 0 0 -0.27853,0.296108 V 20.652962 a 0.27860142,0.29615162 0 0 0 0.27853,0.296108 h 1.27278 a 0.27860142,0.29615162 0 0 0 0.27855,-0.296108 v -4.13979 h 1.57147 l 2.36782,4.290687 a 0.27860142,0.29615162 0 0 0 0.23978,0.145256 h 1.48517 a 0.27860142,0.29615162 0 0 0 0.23926,-0.450097 l -2.61017,-4.530997 c 0.15943,-0.07369 0.32184,-0.137523 0.47335,-0.234093 0.27189,-0.166741 0.5137,-0.379 0.72193,-0.633548 0.21073,-0.25761 0.37771,-0.555977 0.50126,-0.894524 v -0.003 c 0.13836,-0.363156 0.20309,-0.777652 0.20309,-1.237651 0,-1.093334 -0.33004,-1.969163 -0.99736,-2.532145 -0.66971,-0.5649828 -1.66222,-0.8170138 -2.96106,-0.8170138 z m 1.55133,1.7678508 h 1.16477 c 0.79857,0 1.35555,0.149654 1.67691,0.393784 a 0.27860142,0.29615162 0 0 0 0.006,0.003 c 0.30999,0.227528 0.47387,0.604178 0.47387,1.24696 0,0.612988 -0.1597,1.022192 -0.47076,1.311537 -0.28972,0.268467 -0.82159,0.438226 -1.61593,0.438226 h -1.23403 z" />
    <path
       id="path9692"
       style="color:#000000;-inkscape-font-specification:'BC Sans, Normal';fill:#000000;stroke-width:0.574428"
       d="m 272.99461,9.6159082 a 0.27860142,0.29615162 0 0 0 -0.27853,0.296108 V 20.652962 a 0.27860142,0.29615162 0 0 0 0.27853,0.296108 h 5.6472 a 0.27860142,0.29615162 0 0 0 0.27854,-0.296108 v -1.187523 a 0.27860142,0.29615162 0 0 0 -0.27854,-0.296108 h -4.09536 v -3.242688 h 3.84163 a 0.27860142,0.29615162 0 0 0 0.27853,-0.296107 v -1.175637 a 0.27860142,0.29615162 0 0 0 -0.27853,-0.296107 h -3.84163 v -2.760037 h 4.09536 a 0.27860142,0.29615162 0 0 0 0.27854,-0.296108 V 9.9120162 a 0.27860142,0.29615162 0 0 0 -0.27854,-0.296108 z" />
    <path
       id="path9698"
       style="color:#000000;-inkscape-font-specification:'BC Sans, Normal';fill:#000000;stroke-width:0.574428"
       d="m 283.43893,9.5714672 a 0.27860142,0.29615162 0 0 0 -0.2589,0.189652 l -3.94755,10.7853878 a 0.27860142,0.29615162 0 0 0 0.25889,0.402563 h 1.28726 a 0.27860142,0.29615162 0 0 0 0.2589,-0.189652 l 1.13378,-3.133139 h 3.62459 l 1.14773,3.133139 a 0.27860142,0.29615162 0 0 0 0.25942,0.189652 h 1.31775 a 0.27860142,0.29615162 0 0 0 0.2589,-0.402563 L 284.84608,9.7611192 a 0.27860142,0.29615162 0 0 0 -0.262,-0.189652 z m 0.56587,2.7362768 c 0.0349,0.122361 0.0713,0.242463 0.10027,0.358107 a 0.27860142,0.29615162 0 0 0 0.006,0.0238 c 0.0476,0.141617 0.0806,0.236807 0.10284,0.296108 l 0.98909,2.843233 h -2.39314 l 1.00305,-2.848919 a 0.27860142,0.29615162 0 0 0 0.003,-0.0061 c 0.0564,-0.169895 0.11896,-0.396847 0.18966,-0.666102 z" />
    <path
       id="path9704"
       style="color:#000000;-inkscape-font-specification:'BC Sans, Normal';fill:#000000;stroke-width:0.574428"
       d="m 289.90521,9.6159082 a 0.27860142,0.29615162 0 0 0 -0.27853,0.296108 V 20.652962 a 0.27860142,0.29615162 0 0 0 0.27853,0.296108 h 1.27589 a 0.27860142,0.29615162 0 0 0 0.27853,-0.296108 v -4.13979 h 1.57149 l 2.36523,4.290687 a 0.27860142,0.29615162 0 0 0 0.24235,0.145256 h 1.48468 a 0.27860142,0.29615162 0 0 0 0.23719,-0.450097 l -2.60811,-4.530997 c 0.15943,-0.07369 0.32236,-0.137523 0.47387,-0.234093 0.2719,-0.166741 0.51316,-0.379016 0.7214,-0.633548 0.21042,-0.257246 0.37518,-0.556583 0.49868,-0.894524 0.13908,-0.363762 0.20619,-0.779684 0.20619,-1.240744 0,-1.093334 -0.33001,-1.969163 -0.99735,-2.532145 -0.66969,-0.5649828 -1.66273,-0.8170128 -2.96159,-0.8170128 z m 1.55442,1.7678508 h 1.16479 c 0.79858,0 1.35553,0.149654 1.6769,0.393784 a 0.27860142,0.29615162 0 0 0 0.003,0.003 c 0.31,0.227528 0.47335,0.604178 0.47335,1.24696 0,0.612988 -0.15968,1.022192 -0.47077,1.311537 -0.29001,0.267724 -0.81976,0.438226 -1.61282,0.438226 h -1.23455 z" />
    <path
       id="path9727"
       style="color:#000000;-inkscape-font-specification:'BC Sans, Normal';fill:#000000;stroke-width:0.574428"
       d="m 268.36698,25.542081 c -1.09477,0 -2.02543,0.240734 -2.77708,0.737411 a 0.27860142,0.29615162 0 0 0 -0.003,0 c -0.73517,0.492431 -1.28949,1.192178 -1.649,2.073268 -0.35791,0.86658 -0.53226,1.865301 -0.53226,2.991022 0,1.14519 0.17458,2.158891 0.53226,3.035478 0.35951,0.88109 0.91383,1.580307 1.649,2.072738 a 0.27860142,0.29615162 0 0 0 0.003,0.003 c 0.75118,0.496374 1.67795,0.734318 2.76365,0.734318 1.04939,0 1.95584,-0.24131 2.69647,-0.737426 0.74181,-0.491142 1.30522,-1.18252 1.67432,-2.052071 0.37808,-0.8778 0.56277,-1.89417 0.56277,-3.041149 0,-1.146964 -0.18409,-2.158103 -0.56277,-3.026699 -0.36864,-0.877072 -0.92723,-1.571179 -1.66037,-2.052587 -0.74065,-0.496101 -1.64759,-0.736896 -2.69699,-0.736896 z m 0,1.780254 h 5.3e-4 c 1.08217,1.06e-4 1.80631,0.346068 2.2784,1.036111 a 0.27860142,0.29615162 0 0 0 0.003,0.003 c 0.4816,0.694774 0.73845,1.684321 0.73845,2.997238 0,1.312189 -0.26242,2.31276 -0.755,3.029261 -0.47219,0.690165 -1.19647,1.036642 -2.27893,1.036642 -1.08135,0 -1.81119,-0.346386 -2.29288,-1.036642 -0.49259,-0.716501 -0.75499,-1.717072 -0.75499,-3.029261 0,-1.312174 0.26164,-2.302373 0.75189,-2.997238 0.48115,-0.690893 1.21733,-1.039099 2.30942,-1.039205 z" />
    <path
       id="path9733"
       style="color:#000000;-inkscape-font-specification:'BC Sans, Normal';fill:#000000;stroke-width:0.574428"
       d="m 273.72997,25.707958 a 0.27860142,0.29615162 0 0 0 -0.26148,0.393769 l 3.61011,10.741462 a 0.27860142,0.29615162 0 0 0 0.262,0.198446 h 1.27331 a 0.27860142,0.29615162 0 0 0 0.262,-0.198446 l 3.60753,-10.741462 a 0.27860142,0.29615162 0 0 0 -0.262,-0.393769 h -1.34255 a 0.27860142,0.29615162 0 0 0 -0.26458,0.198431 l -2.2624,6.859025 c -0.1509,0.451143 -0.27942,0.872538 -0.38447,1.267096 -0.0957,-0.382594 -0.21561,-0.791526 -0.36484,-1.237651 l -2.27894,-6.88847 a 0.27860142,0.29615162 0 0 0 -0.26199,-0.198431 z" />
    <path
       id="path9739"
       style="color:#000000;-inkscape-font-specification:'BC Sans, Normal';fill:#000000;stroke-width:0.574428"
       d="m 283.595,25.707958 a 0.27860142,0.29615162 0 0 0 -0.27854,0.296108 v 10.741462 a 0.27860142,0.29615162 0 0 0 0.27854,0.296107 h 5.64719 a 0.27860142,0.29615162 0 0 0 0.27855,-0.296107 v -1.190632 a 0.27860142,0.29615162 0 0 0 -0.27855,-0.296108 h -4.09535 V 32.0161 h 3.83905 a 0.27860142,0.29615162 0 0 0 0.27853,-0.296107 v -1.173059 a 0.27860142,0.29615162 0 0 0 -0.27853,-0.296107 h -3.83905 v -2.76313 h 4.09535 a 0.27860142,0.29615162 0 0 0 0.27855,-0.296108 v -1.187523 a 0.27860142,0.29615162 0 0 0 -0.27855,-0.296108 z" />
    <path
       id="path9745"
       style="color:#000000;-inkscape-font-specification:'BC Sans, Normal';fill:#000000;stroke-width:0.574428"
       d="m 291.46273,25.707958 a 0.27860142,0.29615162 0 0 0 -0.27905,0.296108 v 10.741462 a 0.27860142,0.29615162 0 0 0 0.27905,0.296107 h 1.2728 a 0.27860142,0.29615162 0 0 0 0.27853,-0.296107 v -4.143414 h 1.57148 l 2.36781,4.291202 a 0.27860142,0.29615162 0 0 0 0.23978,0.148289 h 1.48777 a 0.27860142,0.29615162 0 0 0 0.23668,-0.453206 l -2.61018,-4.527888 c 0.15947,-0.07354 0.32178,-0.137827 0.47336,-0.234093 0.2719,-0.166741 0.51316,-0.379516 0.7214,-0.634079 0.20992,-0.256609 0.37836,-0.557053 0.50177,-0.893993 0.13907,-0.363763 0.2062,-0.779684 0.2062,-1.240759 0,-1.093319 -0.33004,-1.972256 -0.99736,-2.535238 -0.66969,-0.564984 -1.66273,-0.814421 -2.96157,-0.814421 z m 1.55133,1.765259 h 1.16479 c 0.79856,1.5e-5 1.35865,0.152883 1.68,0.396877 a 0.27860142,0.29615162 0 0 0 0.003,0.003 c 0.30999,0.227528 0.47387,0.600555 0.47387,1.243337 0,0.612987 -0.1597,1.022723 -0.47078,1.312052 -0.28971,0.268482 -0.81899,0.438226 -1.61333,0.438226 h -1.23663 z" />
    <path
       id="path9751"
       style="color:#000000;-inkscape-font-specification:'BC Sans, Normal';fill:#000000;stroke-width:0.574428"
       d="m 300.26582,25.707958 a 0.27860142,0.29615162 0 0 0 -0.27855,0.296108 v 10.741462 a 0.27860142,0.29615162 0 0 0 0.27855,0.296107 h 1.27331 a 0.27860142,0.29615162 0 0 0 0.27853,-0.296107 v -4.714963 h 4.62194 v 4.714963 a 0.27860142,0.29615162 0 0 0 0.27853,0.296107 h 1.27331 a 0.27860142,0.29615162 0 0 0 0.27853,-0.296107 V 26.004066 a 0.27860142,0.29615162 0 0 0 -0.27853,-0.296108 h -1.27331 a 0.27860142,0.29615162 0 0 0 -0.27853,0.296108 v 4.246761 h -4.62194 v -4.246761 a 0.27860142,0.29615162 0 0 0 -0.27853,-0.296108 z" />
    <path
       id="path9757"
       style="color:#000000;-inkscape-font-specification:'BC Sans, Normal';fill:#000000;stroke-width:0.574428"
       d="m 313.32651,25.663517 a 0.27860142,0.29615162 0 0 0 -0.25941,0.186544 l -3.94756,10.785903 a 0.27860142,0.29615162 0 0 0 0.25941,0.405671 h 1.28675 a 0.27860142,0.29615162 0 0 0 0.26199,-0.189652 l 1.13379,-3.136247 h 3.622 l 1.14774,3.136247 a 0.27860142,0.29615162 0 0 0 0.25889,0.189652 h 1.31775 a 0.27860142,0.29615162 0 0 0 0.25942,-0.405671 l -3.93413,-10.785903 a 0.27860142,0.29615162 0 0 0 -0.2589,-0.186544 z m 0.56534,2.7342 c 0.035,0.122361 0.0712,0.24504 0.10028,0.3607 a 0.27860142,0.29615162 0 0 0 0.006,0.02381 c 0.0476,0.141617 0.081,0.236792 0.10341,0.296107 l 0.99167,2.842718 h -2.39572 l 1.00253,-2.848919 a 0.27860142,0.29615162 0 0 0 0.003,-0.0061 c 0.0562,-0.169729 0.11867,-0.399819 0.18912,-0.668695 z" />
    <path
       id="path9763"
       style="color:#000000;-inkscape-font-specification:'BC Sans, Normal';fill:#000000;stroke-width:0.574428"
       d="m 319.79537,25.707958 a 0.27860142,0.29615162 0 0 0 -0.27853,0.296108 v 10.741462 a 0.27860142,0.29615162 0 0 0 0.27853,0.296107 h 1.17305 a 0.27860142,0.29615162 0 0 0 0.27855,-0.296107 v -6.003256 c 0,-0.556962 -0.0128,-1.098247 -0.0418,-1.625733 -0.006,-0.114477 -0.0114,-0.181086 -0.0165,-0.287329 l 4.89479,8.075994 a 0.27860142,0.29615162 0 0 0 0.2341,0.136462 h 1.48724 a 0.27860142,0.29615162 0 0 0 0.27853,-0.296623 V 26.004096 a 0.27860142,0.29615162 0 0 0 -0.27853,-0.296108 h -1.1896 a 0.27860142,0.29615162 0 0 0 -0.27853,0.296108 v 6.062162 c 0,0.244843 0.004,0.509883 0.0144,0.793739 0.01,0.280991 0.0185,0.555325 0.028,0.826308 0.003,0.07794 0.006,0.141769 0.009,0.21602 l -4.88651,-8.05792 a 0.27860142,0.29615162 0 0 0 -0.2341,-0.136462 z" />
    <path
       id="path9769"
       style="color:#000000;-inkscape-font-specification:'BC Sans, Normal';fill:#000000;stroke-width:0.574428"
       d="m 335.2766,25.557061 c -1.66854,-0.03457 -3.43093,0.621282 -4.45644,2.077878 -1.1185,1.572908 -1.24531,3.701535 -0.87723,5.574052 0.30424,1.606478 1.36249,3.072657 2.83892,3.62034 1.29073,0.492598 2.69717,0.399894 4.03522,0.224616 0.61615,-0.137523 1.29914,-0.200963 1.84207,-0.541224 0.10555,-0.301187 0.0291,-0.643252 0.0523,-0.962452 0,-1.49194 0,-2.983865 0,-4.475805 -0.0745,-0.422683 -0.50768,-0.265327 -0.79103,-0.296107 -0.99465,0 -1.98929,0 -2.98393,0 -0.39763,0.07915 -0.24959,0.539677 -0.27854,0.840894 0.0228,0.289937 -0.0625,0.602753 0.0816,0.867081 0.30675,0.160661 0.66282,0.05777 0.9942,0.08673 0.3814,0 0.76282,0 1.14424,0 0,0.883501 0,1.766987 0,2.650488 -1.03429,0.254229 -2.14507,0.305933 -3.17103,-0.01638 -1.03924,-0.332179 -1.74175,-1.374324 -1.92926,-2.479319 -0.25634,-1.406211 -0.19462,-3.021073 0.68993,-4.176634 0.79832,-1.073836 2.19292,-1.347185 3.40826,-1.166948 0.62577,0.102195 1.23858,0.293211 1.82428,0.548168 0.39332,0.09082 0.42923,-0.392723 0.569,-0.656807 0.0933,-0.27573 0.26049,-0.532127 0.2962,-0.823261 -0.29348,-0.51146 -1.03381,-0.508185 -1.53584,-0.701461 -0.57498,-0.135097 -1.16527,-0.193442 -1.753,-0.193912 z" />
    <path
       id="path18933"
       style="color:#000000;-inkscape-font-specification:'BC Sans, Normal';fill:#000000;stroke-width:0.607771;stroke-linecap:round;stroke-linejoin:round"
       d="m 65.800123,225.72885 c -0.710571,0 -1.347313,0.12282 -1.900153,0.37621 -0.551543,0.25293 -0.998674,0.62326 -1.320839,1.10742 -0.326016,0.48996 -0.487312,1.07825 -0.487312,1.72652 0,0.93857 0.251045,1.7267 0.768939,2.30115 0.502503,0.55741 1.232573,1.0049 2.175589,1.36528 0.631107,0.25157 1.126693,0.48302 1.4769,0.68421 0.340608,0.19573 0.557192,0.39946 0.668707,0.58911 0.115538,0.19664 0.17827,0.44649 0.17827,0.77307 0,0.48159 -0.151283,0.80965 -0.496084,1.08677 -0.336615,0.27054 -0.868473,0.42943 -1.618513,0.42943 -0.546579,0 -1.077653,-0.0663 -1.593693,-0.19845 -0.516867,-0.13479 -0.944199,-0.28193 -1.281584,-0.44131 -0.194274,-0.0922 -0.413668,0.0581 -0.414951,0.28422 v 1.37149 c 10e-4,0.12069 0.06718,0.23006 0.170011,0.28112 0.371475,0.18577 0.818193,0.32477 1.345658,0.42375 0.528564,0.0992 1.099391,0.14783 1.713068,0.14783 1.21239,0 2.211577,-0.2945 2.964155,-0.90899 0.75623,-0.61746 1.150841,-1.51909 1.150841,-2.60295 0,-0.63467 -0.124809,-1.18889 -0.387579,-1.64072 l -0.0029,-0.003 c -0.248207,-0.44221 -0.617172,-0.81083 -1.089336,-1.10742 -0.450939,-0.30009 -0.995179,-0.57211 -1.635557,-0.82062 v -5.2e-4 -5.1e-4 -5.3e-4 -5.2e-4 -5.1e-4 -5.2e-4 c -0.569544,-0.2192 -1.016846,-0.42431 -1.33429,-0.61288 -0.307601,-0.1934 -0.511489,-0.39911 -0.626842,-0.59531 -0.114539,-0.19496 -0.180866,-0.4491 -0.180866,-0.78755 0,-0.42316 0.124096,-0.70842 0.401016,-0.95084 0.0014,-0.002 0.0043,-0.005 0.0057,-0.006 0.26665,-0.24177 0.694068,-0.38499 1.32034,-0.38499 0.435691,0 0.860684,0.0553 1.276406,0.16587 0.42545,0.11311 0.813999,0.24915 1.16686,0.41135 0.15549,0.0711 0.335173,-0.0106 0.393256,-0.18035 l 0.420643,-1.22318 c 0.05292,-0.15533 -0.01669,-0.32763 -0.159157,-0.39379 -0.428617,-0.20002 -0.895475,-0.362 -1.400959,-0.48265 -0.513358,-0.12251 -1.068453,-0.18087 -1.66604,-0.18087 z" />
    <path
       id="path18939"
       style="color:#000000;-inkscape-font-specification:'BC Sans, Normal';fill:#000000;stroke-width:0.607771;stroke-linecap:round;stroke-linejoin:round"
       d="m 71.160003,225.88595 c -0.163222,-1.7e-4 -0.29552,0.14071 -0.295078,0.3142 v 11.36571 c 0.0012,0.17231 0.13294,0.31127 0.295078,0.31109 h 1.345643 c 0.162095,1.8e-4 0.293908,-0.13874 0.295078,-0.31109 v -4.11344 h 0.933274 c 0.830516,0 1.535596,-0.10249 2.117706,-0.31988 0.578559,-0.21247 1.056114,-0.49543 1.423168,-0.86197 9.56e-4,-0.001 0.0014,-0.002 0.0029,-0.003 0.357938,-0.36896 0.621578,-0.79319 0.777212,-1.26452 v -0.003 c 0.160754,-0.46814 0.242372,-0.95578 0.242372,-1.45728 0,-1.1279 -0.355628,-2.05894 -1.061435,-2.70371 -0.719415,-0.65717 -1.809206,-0.95343 -3.245283,-0.95343 z m 1.640721,1.85416 h 1.070221 c 0.902764,0 1.526838,0.17859 1.885676,0.47335 v 0.003 c 0.372673,0.29932 0.55759,0.72502 0.55759,1.38906 0,0.77215 -0.20714,1.23556 -0.615987,1.52238 -9.55e-4,10e-4 -0.0014,0.002 -0.0029,0.003 -0.409773,0.29333 -1.115352,0.47128 -2.112015,0.47128 h -0.782903 z" />
    <path
       id="path18945"
       style="color:#000000;-inkscape-font-specification:'BC Sans, Normal';fill:#000000;stroke-width:0.607771;stroke-linecap:round;stroke-linejoin:round"
       d="m 82.194981,225.83842 c -0.122384,-2.5e-4 -0.232259,0.0799 -0.27595,0.20154 l -4.175975,11.41015 c -0.07474,0.2046 0.06633,0.42543 0.272855,0.42684 h 1.362703 c 0.121528,5.3e-4 0.230876,-0.0782 0.275436,-0.19843 l 1.200965,-3.31712 h 3.833355 l 1.214915,3.31712 c 0.04422,0.11918 0.152282,0.19784 0.272855,0.19843 h 1.393199 c 0.207583,5e-4 0.350621,-0.22116 0.275422,-0.42684 L 83.68275,226.03996 c -0.04365,-0.12161 -0.153522,-0.20179 -0.275949,-0.20154 z m 0.599455,2.8975 c 0.03666,0.12888 0.07218,0.25651 0.102843,0.37827 0.0029,0.008 0.0057,0.0156 0.0086,0.0232 0.05035,0.1498 0.08516,0.25116 0.108976,0.31419 l 1.047485,3.0086 h -2.532658 l 1.06142,-3.0148 c 9.7e-4,-0.002 0.0014,-0.005 0.0029,-0.006 0.05962,-0.17953 0.125808,-0.41944 0.200508,-0.70383 z" />
    <path
       id="path18951"
       style="color:#000000;-inkscape-font-specification:'BC Sans, Normal';fill:#000000;stroke-width:0.607771;stroke-linecap:round;stroke-linejoin:round"
       d="m 93.333316,225.72885 c -1.139987,0 -2.131429,0.26049 -2.953301,0.79376 -0.814641,0.51828 -1.441896,1.25299 -1.863452,2.18281 v 0.003 c -0.410844,0.91826 -0.613406,1.97583 -0.613406,3.1595 0,1.22199 0.184162,2.30031 0.562755,3.22823 9.41e-4,0.001 0.0014,0.002 0.0029,0.003 0.390632,0.93147 0.981943,1.66638 1.76061,2.17661 0.784458,0.51404 1.752364,0.76069 2.880968,0.76069 0.600597,0 1.11879,-0.037 1.560116,-0.11523 0.447858,-0.0775 0.880426,-0.19784 1.298102,-0.36431 0.116251,-0.046 0.193162,-0.16423 0.192235,-0.29611 v -1.24076 c -7.14e-4,-0.20909 -0.190224,-0.35879 -0.378779,-0.2992 -0.400174,0.12448 -0.804941,0.22806 -1.214914,0.31109 -0.399804,0.081 -0.819862,0.12145 -1.261943,0.12145 -1.164749,0 -1.978733,-0.3686 -2.537822,-1.10484 v -0.003 c -0.557876,-0.75941 -0.852668,-1.80045 -0.852668,-3.1626 0,-1.36924 0.316502,-2.40252 0.919324,-3.15122 0.130372,-0.13798 0.672557,-0.6358 1.362189,-0.95654 0.69809,-0.32469 1.514742,-0.47539 2.295991,-0.0121 0.0194,0.0106 0.0398,0.0203 0.06105,0.0268 0.397949,0.12388 0.755203,0.2625 1.069694,0.41444 0.14629,0.0704 0.318584,0.003 0.387579,-0.15087 l 0.540531,-1.21129 c 0.06718,-0.15318 0.0086,-0.3354 -0.133796,-0.41186 -0.885775,-0.4708 -1.91958,-0.70178 -3.084058,-0.70178 z" />
    <path
       id="path18957"
       style="color:#000000;-inkscape-font-specification:'BC Sans, Normal';fill:#000000;stroke-width:0.607771;stroke-linecap:round;stroke-linejoin:round"
       d="m 97.347552,225.88595 c -0.163222,-1.7e-4 -0.29552,0.14071 -0.295077,0.3142 v 0.82888 c -1.57e-4,0.1448 0.093,0.2708 0.225312,0.3049 l 1.030939,0.26097 v 8.5881 l -1.027843,0.24856 c -0.133511,0.0328 -0.228237,0.15917 -0.228408,0.3049 v 0.8294 c 0.0012,0.17231 0.132939,0.31127 0.295077,0.31109 h 3.861258 c 0.16229,4.9e-4 0.29442,-0.13858 0.29559,-0.31109 v -0.8294 c -1.7e-4,-0.14571 -0.0948,-0.27209 -0.22841,-0.3049 l -1.02836,-0.24856 v -8.5881 l 1.03094,-0.26097 c 0.13251,-0.0338 0.22594,-0.15997 0.22583,-0.3049 v -0.82888 c 4.6e-4,-0.17372 -0.13223,-0.31467 -0.29559,-0.3142 z" />
    <path
       id="path18963"
       style="color:#000000;-inkscape-font-specification:'BC Sans, Normal';fill:#000000;stroke-width:0.607771;stroke-linecap:round;stroke-linejoin:round"
       d="m 103.27586,225.88595 c -0.16322,-1.7e-4 -0.2955,0.14071 -0.29506,0.3142 v 11.36571 c 0.001,0.17231 0.13294,0.31127 0.29506,0.31109 h 1.24282 c 0.16209,1.8e-4 0.2939,-0.13874 0.29507,-0.31109 v -6.35207 c 0,-0.58928 -0.0143,-1.16273 -0.0445,-1.72081 -0.007,-0.12145 -0.01,-0.19222 -0.0165,-0.3049 l 5.17902,8.54677 c 0.0546,0.089 0.14804,0.14252 0.24805,0.14207 h 1.57095 c 0.1623,4.9e-4 0.29443,-0.13858 0.29559,-0.31109 V 226.1996 c 1.9e-4,-0.17352 -0.13236,-0.31415 -0.29559,-0.31368 h -1.25625 c -0.16303,-1.7e-4 -0.29523,0.1404 -0.29506,0.31368 v 6.4146 c 0,0.25897 0.004,0.53789 0.0143,0.83819 0.01,0.29722 0.0205,0.58981 0.0305,0.87642 0.003,0.0833 0.006,0.15163 0.009,0.231 l -5.17074,-8.52868 c -0.0541,-0.0904 -0.14781,-0.1451 -0.24857,-0.14526 z" />
    <path
       id="path18969"
       style="color:#000000;-inkscape-font-specification:'BC Sans, Normal';fill:#000000;stroke-width:0.607771;stroke-linecap:round;stroke-linejoin:round"
       d="m 119.6573,225.72885 c -1.2055,0 -2.25477,0.25252 -3.13418,0.76998 -0.87607,0.5049 -1.55781,1.23271 -2.02261,2.16473 -0.45461,0.92159 -0.67955,2.00119 -0.67955,3.21944 0,1.23506 0.20169,2.32125 0.61288,3.25149 9.2e-4,0.002 10e-4,0.005 0.003,0.006 0.42223,0.92004 1.04335,1.64513 1.85002,2.15284 9.5e-4,2e-5 10e-4,2e-5 0.003,0 0.81247,0.50005 1.80016,0.74311 2.94711,0.74311 0.76042,0 1.44315,-0.0461 2.05051,-0.14465 0.60524,-0.0981 1.20591,-0.25256 1.79989,-0.4594 0.12139,-0.0423 0.20346,-0.16285 0.20309,-0.29869 v -5.57073 c -10e-4,-0.17229 -0.13294,-0.31127 -0.29508,-0.31109 h -3.69692 c -0.16229,-4.7e-4 -0.29442,0.13859 -0.29559,0.31109 v 1.27331 c -4.4e-4,0.17374 0.13208,0.31469 0.29559,0.3142 h 2.0562 v 2.80448 c -0.20457,0.0494 -0.40983,0.10037 -0.64956,0.13904 -0.3089,0.0497 -0.69473,0.0738 -1.15343,0.0738 -0.92142,0 -1.63905,-0.18448 -2.16731,-0.52711 -0.53794,-0.35956 -0.92409,-0.84211 -1.18133,-1.47484 -0.2527,-0.6567 -0.38447,-1.41435 -0.38447,-2.28307 0,-1.35547 0.33511,-2.37911 0.98651,-3.13004 0.65965,-0.75966 1.5598,-1.14049 2.77761,-1.14049 0.48406,0 0.94479,0.0657 1.38751,0.19585 l 0.009,0.003 c 0.46697,0.12403 0.88267,0.26711 1.2454,0.42943 0.14847,0.0666 0.31971,-0.006 0.38447,-0.16278 l 0.50953,-1.24385 c 0.0643,-0.15849 -0.004,-0.34242 -0.15296,-0.41134 -0.47896,-0.22135 -0.99826,-0.39198 -1.55443,-0.51263 h -0.003 c -0.54995,-0.12115 -1.13327,-0.18036 -1.74924,-0.18036 z" />
  </g>
</svg>
