<?xml version="1.0" encoding="UTF-8" standalone="no"?>
<svg
   width="1000"
   height="1000"
   viewBox="0 0 264.58333 264.58333"
   version="1.1"
   id="svg5"
   xmlns="http://www.w3.org/2000/svg"
   xmlns:svg="http://www.w3.org/2000/svg">
  <defs
     id="defs2" />
  <g
     id="layer1">
    <path
       style="color:#000000;fill:#000000;stroke-width:1.50998;stroke-linecap:round"
       d="m 140.22917,175.9935 c -9.79613,0 -17.83659,8.04042 -17.83659,17.83658 0,9.79616 8.04046,17.83659 17.83659,17.83659 9.79619,0 17.8366,-8.04044 17.8366,-17.83659 0,-9.79615 -8.04041,-17.83658 -17.8366,-17.83658 z m 0,3.01995 c 8.14536,0 14.81665,6.6713 14.81665,14.81663 0,8.14535 -6.67129,14.81664 -14.81665,14.81664 -8.14531,0 -14.81664,-6.6713 -14.81664,-14.81664 0,-8.14533 6.67133,-14.81663 14.81664,-14.81663 z m 0,4.57121 c -5.66717,0 -10.24541,4.57821 -10.24541,10.24542 0,5.66721 4.57824,10.24541 10.24541,10.24541 5.66722,0 10.24248,-4.5782 10.24248,-10.24541 0,-5.66721 -4.57526,-10.24542 -10.24248,-10.24542 z m 0,3.01995 c 4.06799,0 7.22253,3.15749 7.22253,7.22547 0,4.06798 -3.15454,7.22546 -7.22253,7.22546 -4.06791,0 -7.22546,-3.15749 -7.22546,-7.22546 0,-4.06796 3.15755,-7.22547 7.22546,-7.22547 z"
       id="path2031-7-2-6-5" />
    <path
       style="color:#000000;fill:#000000;stroke-width:1.50998;stroke-linecap:round;stroke-linejoin:round;-inkscape-stroke:none"
       d="m 128.14936,131.63797 a 1.5101265,1.5101265 0 0 0 -1.39496,0.93488 l -10.2631,24.92345 -21.856311,4.37067 a 1.5101265,1.5101265 0 0 0 -1.212118,1.37431 l -1.430339,20.04552 -4.978208,1.24455 a 1.5101265,1.5101265 0 0 0 -1.144274,1.46573 v 7.54988 a 1.5101265,1.5101265 0 0 0 1.509975,1.50998 h 30.199515 a 1.5099755,1.5099755 0 0 0 1.50997,-1.50998 1.5099755,1.5099755 0 0 0 -1.50997,-1.50997 H 88.890001 v -4.86024 l 4.895627,-1.2239 a 1.5101265,1.5101265 0 0 0 1.14133,-1.35957 l 1.427395,-19.98948 21.520097,-4.30579 a 1.5101265,1.5101265 0 0 0 1.10005,-0.9054 l 10.18643,-24.73469 h 38.2478 v 57.37907 h -3.01995 a 1.5099755,1.5099755 0 0 0 -1.50998,1.50997 1.5099755,1.5099755 0 0 0 1.50998,1.50998 h 4.52992 a 1.5101265,1.5101265 0 0 0 1.50998,-1.50998 v -60.39902 a 1.5101265,1.5101265 0 0 0 -1.50998,-1.50997 z"
       id="path1006-1-0-3" />
    <path
       style="color:#000000;fill:#000000;stroke-width:1.50998;stroke-linecap:round;stroke-linejoin:round;-inkscape-stroke:none"
       d="m 131.16931,136.16789 a 1.5101265,1.5101265 0 0 0 -1.40969,0.96733 l -7.54988,19.62968 a 1.5101265,1.5101265 0 0 0 1.4097,2.05262 h 25.66958 a 1.5101265,1.5101265 0 0 0 1.50998,-1.50997 v -19.62968 a 1.5101265,1.5101265 0 0 0 -1.50998,-1.50998 z m 1.03811,3.01995 h 15.57163 v 16.60973 h -21.95953 z"
       id="path1158-9-2-8" />
    <path
       style="color:#000000;fill:#000000;stroke-width:1.50998;stroke-linecap:round;stroke-linejoin:round;-inkscape-stroke:none"
       d="m 155.32892,136.16789 a 1.5101265,1.5101265 0 0 0 -1.50997,1.50998 v 19.62968 a 1.5101265,1.5101265 0 0 0 1.50997,1.50997 h 9.05986 a 1.5101265,1.5101265 0 0 0 1.50997,-1.50997 v -19.62968 a 1.5101265,1.5101265 0 0 0 -1.50997,-1.50998 z m 1.50998,3.01995 h 6.0399 v 16.60973 h -6.0399 z"
       id="path1160-3-0-7" />
    <path
       id="path45489"
       style="color:#000000;fill:#000000;stroke-width:3.01995;stroke-linecap:round;stroke-linejoin:round"
       d="M 140.22916 217.70661 A 1.5099755 1.5099755 0 0 0 138.71918 219.21659 L 138.71918 241.86637 A 1.5099755 1.5099755 0 0 0 140.22916 243.37636 A 1.5099755 1.5099755 0 0 0 141.73915 241.86637 L 141.73915 219.21659 A 1.5099755 1.5099755 0 0 0 140.22916 217.70661 z " />
  </g>
</svg>
