<?xml version="1.0" encoding="UTF-8" standalone="no"?>
<svg
   width="1000"
   height="1000"
   viewBox="0 0 264.58333 264.58333"
   version="1.1"
   id="svg5"
   xmlns="http://www.w3.org/2000/svg"
   xmlns:svg="http://www.w3.org/2000/svg">
  <defs
     id="defs2" />
  <g
     id="layer1">
    <path
       style="color:#000000;fill:#000000;stroke-width:1.51024;stroke-linecap:round;stroke-linejoin:round;-inkscape-stroke:none"
       d="m 142.86331,131.62411 a 1.5103878,1.5103878 0 0 0 -1.3834,0.90556 l -10.21769,23.35262 -61.037763,5.95246 a 1.5103878,1.5103878 0 0 0 -1.359802,1.39815 l -1.436492,20.13452 -3.575017,1.19167 a 1.5103878,1.5103878 0 0 0 -1.032383,1.43355 v 7.55118 a 1.5103878,1.5103878 0 0 0 1.510237,1.51024 h 7.551184 a 1.5102368,1.5102368 0 0 0 1.510236,-1.51024 1.5102368,1.5102368 0 0 0 -1.510236,-1.51023 h -6.040948 v -4.95252 l 3.498328,-1.16512 a 1.5103878,1.5103878 0 0 0 1.029438,-1.32736 l 1.418792,-19.86906 60.651356,-5.91706 a 1.5103878,1.5103878 0 0 0 1.23591,-0.89965 l 10.1764,-23.25823 h 53.38038 v 57.389 h -6.04095 a 1.5102368,1.5102368 0 0 0 -1.51024,1.51023 1.5102368,1.5102368 0 0 0 1.51024,1.51024 h 7.55118 a 1.5103878,1.5103878 0 0 0 1.51024,-1.51024 v -60.40947 a 1.5103878,1.5103878 0 0 0 -1.51024,-1.51024 z"
       id="path1006-1-0-3-5-7" />
    <path
       style="color:#000000;fill:#000000;stroke-width:1.51024;stroke-linecap:round;stroke-linejoin:round;-inkscape-stroke:none"
       d="m 147.39402,136.15482 a 1.5103878,1.5103878 0 0 0 -1.37159,0.87606 l -9.06142,19.63308 a 1.5103878,1.5103878 0 0 0 1.37159,2.14442 h 28.6945 a 1.5103878,1.5103878 0 0 0 1.51024,-1.51024 v -19.63308 a 1.5103878,1.5103878 0 0 0 -1.51024,-1.51024 z m 0.96751,3.02048 h 17.15534 v 16.6126 h -24.82158 z"
       id="path1158-9-2-8-0-3" />
    <path
       style="color:#000000;fill:#000000;stroke-width:1.51024;stroke-linecap:round;stroke-linejoin:round;-inkscape-stroke:none"
       d="m 185.14994,136.15482 a 1.5103878,1.5103878 0 0 0 -1.51023,1.51024 v 19.63308 a 1.5103878,1.5103878 0 0 0 1.51023,1.51024 h 9.06142 a 1.5103878,1.5103878 0 0 0 1.51024,-1.51024 v -19.63308 a 1.5103878,1.5103878 0 0 0 -1.51024,-1.51024 z m 1.51024,3.02048 h 6.04095 v 16.6126 h -6.04095 z"
       id="path1160-3-0-7-0-7" />
    <path
       style="color:#000000;fill:#000000;stroke-width:1.51024;stroke-linecap:round"
       d="m 170.04758,175.98733 c -9.79783,0 -17.83968,8.0418 -17.83968,17.83966 0,9.79786 8.04185,17.83967 17.83968,17.83967 9.79787,0 17.83967,-8.04183 17.83967,-17.83967 0,-9.79784 -8.0418,-17.83966 -17.83967,-17.83966 z m 0,3.02046 c 8.14677,0 14.81919,6.67246 14.81919,14.8192 0,8.14676 -6.67242,14.8192 -14.81919,14.8192 -8.14672,0 -14.8192,-6.67245 -14.8192,-14.8192 0,-8.14674 6.67248,-14.8192 14.8192,-14.8192 z m 0,4.572 c -5.66816,0 -10.24719,4.57901 -10.24719,10.2472 0,5.66819 4.57904,10.24718 10.24719,10.24718 5.66817,0 10.24422,-4.57899 10.24422,-10.24718 0,-5.66819 -4.57605,-10.2472 -10.24422,-10.2472 z m 0,3.02048 c 4.06868,0 7.22375,3.15804 7.22375,7.22672 0,4.06869 -3.15509,7.22671 -7.22375,7.22671 -4.06861,0 -7.22671,-3.15804 -7.22671,-7.22671 0,-4.06867 3.1581,-7.22672 7.22671,-7.22672 z"
       id="path2031-2-3-3-3" />
    <path
       style="color:#000000;fill:#000000;stroke-width:1.51024;stroke-linecap:round"
       d="m 132.29166,175.98732 c -9.79785,0 -17.83968,8.04181 -17.83968,17.83967 0,9.79786 8.04183,17.83967 17.83968,17.83967 9.79787,0 17.83967,-8.04183 17.83967,-17.83967 0,-9.79784 -8.0418,-17.83967 -17.83967,-17.83967 z m 0,3.02047 c 8.14676,0 14.81919,6.67246 14.81919,14.8192 0,8.14676 -6.67243,14.8192 -14.81919,14.8192 -8.14674,0 -14.8192,-6.67245 -14.8192,-14.8192 0,-8.14674 6.67246,-14.8192 14.8192,-14.8192 z m 0,4.572 c -5.66816,0 -10.24719,4.57901 -10.24719,10.2472 0,5.66819 4.57903,10.24718 10.24719,10.24718 5.66817,0 10.24423,-4.57899 10.24423,-10.24718 0,-5.66819 -4.57604,-10.2472 -10.24423,-10.2472 z m 0,3.02048 c 4.06868,0 7.22376,3.15805 7.22376,7.22672 0,4.06869 -3.15508,7.22671 -7.22376,7.22671 -4.06863,0 -7.22671,-3.15804 -7.22671,-7.22671 0,-4.06867 3.1581,-7.22672 7.22671,-7.22672 z"
       id="path2031-5-1-4-4" />
    <path
       style="color:#000000;fill:#000000;stroke-width:1.51024;stroke-linecap:round"
       d="m 94.535736,175.98732 c -9.797843,0 -17.839673,8.04181 -17.839673,17.83967 0,9.79786 8.04183,17.83967 17.839673,17.83967 9.797874,0 17.839674,-8.04183 17.839674,-17.83967 0,-9.79784 -8.0418,-17.83967 -17.839674,-17.83967 z m 0,3.02047 c 8.146764,0 14.819194,6.67246 14.819194,14.8192 0,8.14676 -6.67243,14.8192 -14.819194,14.8192 -8.146731,0 -14.819199,-6.67245 -14.819199,-14.8192 0,-8.14674 6.672468,-14.8192 14.819199,-14.8192 z m 0,4.572 c -5.668161,0 -10.247184,4.57901 -10.247184,10.2472 0,5.66819 4.579023,10.24718 10.247184,10.24718 5.668174,0 10.244234,-4.57899 10.244234,-10.24718 0,-5.66819 -4.57604,-10.2472 -10.244234,-10.2472 z m 0,3.02048 c 4.068683,0 7.223764,3.15804 7.223764,7.22672 0,4.06869 -3.155081,7.22671 -7.223764,7.22671 -4.068624,0 -7.22671,-3.15804 -7.22671,-7.22671 0,-4.06867 3.158101,-7.22672 7.22671,-7.22672 z"
       id="path2031-7-7-2-8" />
    <path
       id="path2393"
       style="color:#000000;fill:#000000;stroke-width:3.02047;stroke-linecap:round;stroke-linejoin:round"
       d="M 94.535831 217.70764 A 1.5102368 1.5102368 0 0 0 93.025328 219.21762 L 93.025328 241.87154 A 1.5102368 1.5102368 0 0 0 94.535831 243.38152 A 1.5102368 1.5102368 0 0 0 96.045816 241.87154 L 96.045816 219.21762 A 1.5102368 1.5102368 0 0 0 94.535831 217.70764 z " />
    <path
       id="path2399"
       style="color:#000000;fill:#000000;stroke-width:3.02047;stroke-linecap:round;stroke-linejoin:round"
       d="M 170.0475 217.70764 A 1.5102368 1.5102368 0 0 0 168.53751 219.21762 L 168.53751 241.87154 A 1.5102368 1.5102368 0 0 0 170.0475 243.38152 A 1.5102368 1.5102368 0 0 0 171.558 241.87154 L 171.558 219.21762 A 1.5102368 1.5102368 0 0 0 170.0475 217.70764 z " />
    <path
       id="path18873"
       style="color:#000000;-inkscape-font-specification:'BC Sans, Normal';fill:#000000;stroke-width:0.598927;stroke-linecap:round;stroke-linejoin:round"
       d="m 109.93386,226.09887 c -0.70023,0 -1.32747,0.12024 -1.87224,0.36999 -0.54356,0.24923 -0.98323,0.61586 -1.3007,1.09296 -0.32124,0.48283 -0.48213,1.06078 -0.48213,1.69965 0,0.92491 0.25033,1.70251 0.76068,2.26859 0.49641,0.55062 1.21505,0.99212 2.14767,1.34771 h -0.006 c 0.62192,0.24793 1.1096,0.47353 1.45469,0.67181 0.33564,0.19286 0.55001,0.39654 0.6599,0.58342 0.11397,0.19371 0.1757,0.43931 0.1757,0.7612 0,0.47457 -0.14803,0.79915 -0.48782,1.07227 -0.33172,0.2666 -0.85719,0.42323 -1.59629,0.42323 -0.53865,0 -1.05987,-0.065 -1.56837,-0.19532 -0.50935,-0.13282 -0.93208,-0.28116 -1.26453,-0.43823 -0.19208,-0.092 -0.4095,0.0572 -0.40979,0.28113 v 1.35029 c 4.3e-4,0.11948 0.0656,0.22796 0.16743,0.27855 0.3661,0.18313 0.80882,0.31999 1.3286,0.41755 0.5209,0.0978 1.08356,0.14525 1.68826,0.14525 1.19475,0 2.17809,-0.28898 2.91973,-0.89452 0.74522,-0.60847 1.13378,-1.49919 1.13378,-2.56729 0,-0.62539 -0.12253,-1.16859 -0.38138,-1.61385 l -0.003,-0.003 c -0.24331,-0.43345 -0.60539,-0.79838 -1.06712,-1.08985 -0.44562,-0.29744 -0.98439,-0.56833 -1.6185,-0.81442 -0.56124,-0.216 -1.00234,-0.41827 -1.31516,-0.6041 -0.30307,-0.19056 -0.50438,-0.3932 -0.61806,-0.58653 -0.11297,-0.19213 -0.1757,-0.44208 -0.1757,-0.77567 0,-0.41698 0.12295,-0.70008 0.39584,-0.93895 9.5e-4,-0.001 0.001,-0.002 0.003,-0.003 0.26277,-0.23823 0.68407,-0.38188 1.30121,-0.38188 0.42937,0 0.84917,0.0538 1.25883,0.16278 0.41925,0.11145 0.80312,0.24891 1.15083,0.40875 0.15311,0.0696 0.32984,-0.0121 0.38707,-0.17776 l 0.41237,-1.20819 c 0.0522,-0.15286 -0.016,-0.32261 -0.15607,-0.3881 -0.42237,-0.1971 -0.88062,-0.35494 -1.37872,-0.47387 -0.50591,-0.12085 -1.05496,-0.18035 -1.64383,-0.18035 z" />
    <path
       id="path18879"
       style="color:#000000;-inkscape-font-specification:'BC Sans, Normal';fill:#000000;stroke-width:0.598927;stroke-linecap:round;stroke-linejoin:round"
       d="m 115.21623,226.25597 c -0.15992,3.3e-4 -0.2895,0.13797 -0.28992,0.30798 v 11.19983 c 4.2e-4,0.17001 0.12995,0.30768 0.28992,0.308 h 1.32859 c 0.15992,-3.3e-4 0.28951,-0.13798 0.2899,-0.308 v -4.0509 h 0.91933 c 0.81947,0 1.51521,-0.10265 2.08928,-0.31731 0.56834,-0.20921 1.03802,-0.4892 1.39889,-0.84955 10e-4,-9.9e-4 0.004,-0.002 0.006,-0.003 0.35331,-0.36419 0.60996,-0.78471 0.76326,-1.25006 0.15785,-0.46053 0.23927,-0.93983 0.23927,-1.43299 0,-1.11149 -0.35195,-2.03008 -1.04749,-2.66546 -0.70893,-0.64762 -1.78307,-0.93844 -3.19825,-0.93844 z m 1.61849,1.82727 h 1.05318 c 0.88964,0 1.50464,0.17719 1.85827,0.46767 9.5e-4,0.001 10e-4,0.002 0.003,0.003 0.36724,0.29494 0.5488,0.71353 0.5488,1.36787 0,0.76091 -0.20427,1.21595 -0.60718,1.49862 -9.6e-4,0.001 -0.001,0.002 -0.003,0.003 -0.40378,0.28905 -1.09885,0.46509 -2.081,0.46509 h -0.77154 z" />
    <path
       id="path18885"
       style="color:#000000;-inkscape-font-specification:'BC Sans, Normal';fill:#000000;stroke-width:0.598927;stroke-linecap:round;stroke-linejoin:round"
       d="m 124.1423,226.25597 c -0.15991,3.3e-4 -0.2895,0.13797 -0.28991,0.30798 v 11.19983 c 4.1e-4,0.17001 0.12994,0.30768 0.28991,0.308 h 1.3286 c 0.15991,-3.3e-4 0.2895,-0.13798 0.2899,-0.308 v -4.31757 h 1.63814 l 2.46807,4.47467 c 0.0526,0.094 0.1482,0.15148 0.25114,0.15087 h 1.54875 c 0.22534,-8.4e-4 0.36401,-0.26227 0.24805,-0.46767 l -2.7218,-4.72634 c 0.16689,-0.077 0.337,-0.14177 0.49557,-0.24287 0.28351,-0.17387 0.53531,-0.39503 0.75241,-0.66043 0.21892,-0.26759 0.39226,-0.58178 0.5209,-0.93328 0.145,-0.3793 0.21446,-0.81014 0.21446,-1.29087 0,-1.13994 -0.34343,-2.05469 -1.03921,-2.64169 -0.69825,-0.58908 -1.7324,-0.85266 -3.08664,-0.85266 z m 1.6185,1.84173 h 1.21491 c 0.83262,0 1.41417,0.15747 1.74924,0.41188 9.4e-4,0.001 0.001,0.002 0.003,0.003 0.32322,0.23723 0.49557,0.62947 0.49557,1.29966 0,0.63793 -0.16728,1.0637 -0.49041,1.36529 -0.30207,0.27993 -0.85437,0.45941 -1.68259,0.45941 h -1.28984 z" />
    <path
       id="path18891"
       style="color:#000000;-inkscape-font-specification:'BC Sans, Normal';fill:#000000;stroke-width:0.598927;stroke-linecap:round;stroke-linejoin:round"
       d="m 133.32157,226.25597 c -0.16091,-0.001 -0.29207,0.13691 -0.29248,0.30798 v 11.19983 c 4.1e-4,0.17107 0.13151,0.30918 0.29248,0.308 h 5.88699 c 0.15971,-6.4e-4 0.28899,-0.13828 0.28939,-0.308 v -1.23765 c 0.001,-0.17097 -0.12852,-0.31043 -0.28939,-0.31108 h -4.27106 v -3.38172 h 4.00337 c 0.16092,0.001 0.2921,-0.13691 0.29249,-0.30799 v -1.22317 c -3.9e-4,-0.17107 -0.13151,-0.30918 -0.29249,-0.308 h -4.00337 v -2.88147 h 4.27106 c 0.15971,-6.4e-4 0.28899,-0.13828 0.28939,-0.308 v -1.24075 c -4.2e-4,-0.16976 -0.12966,-0.30733 -0.28939,-0.30798 z" />
    <path
       id="path18897"
       style="color:#000000;-inkscape-font-specification:'BC Sans, Normal';fill:#000000;stroke-width:0.598927;stroke-linecap:round;stroke-linejoin:round"
       d="m 144.20929,226.20842 c -0.11996,4.5e-4 -0.2274,0.0793 -0.27027,0.19844 l -4.11758,11.24427 c -0.0743,0.20331 0.0676,0.42224 0.27285,0.42065 h 1.34308 c 0.11996,-4.6e-4 0.22738,-0.0793 0.27026,-0.19845 l 1.18081,-3.26646 h 3.77806 l 1.19786,3.26957 c 0.0438,0.11796 0.151,0.19538 0.27027,0.19534 h 1.37356 c 0.20409,-3.7e-4 0.3442,-0.21845 0.27026,-0.42065 l -4.10362,-11.24427 c -0.0429,-0.11917 -0.15027,-0.19799 -0.27027,-0.19844 z m 0.59065,2.85202 c 0.0365,0.12797 0.0725,0.2546 0.10285,0.37568 0.003,0.008 0.006,0.0161 0.009,0.0238 0.0496,0.14768 0.0826,0.24875 0.10598,0.31109 l 1.03353,2.96417 h -2.50165 l 1.05005,-2.97295 c 9.6e-4,-10e-4 10e-4,-0.002 0.003,-0.003 0.0589,-0.17756 0.12353,-0.41702 0.1974,-0.69866 z" />
    <path
       id="path18903"
       style="color:#000000;-inkscape-font-specification:'BC Sans, Normal';fill:#000000;stroke-width:0.598927;stroke-linecap:round;stroke-linejoin:round"
       d="m 150.95409,226.25597 c -0.16091,-0.001 -0.29208,0.13691 -0.29249,0.30798 v 11.19983 c 4.1e-4,0.17108 0.13151,0.3092 0.29249,0.308 h 2.93626 c 1.78131,0 3.21252,-0.49575 4.24005,-1.50998 1.04342,-1.0307 1.55184,-2.55885 1.55184,-4.50774 0,-1.23083 -0.21682,-2.28821 -0.66869,-3.15951 -0.4496,-0.86694 -1.10303,-1.53391 -1.93889,-1.97817 -0.82426,-0.44364 -1.78657,-0.66041 -2.87528,-0.66041 z m 1.6185,1.82727 h 1.43455 c 1.21863,0 2.11156,0.32714 2.73575,0.96221 9.4e-4,0.001 0.001,0.002 0.003,0.003 0.62178,0.61441 0.9555,1.60889 0.9555,3.05304 0,1.43224 -0.3394,2.45086 -0.9834,3.12126 -0.644,0.6704 -1.62711,1.02474 -3.00602,1.02474 h -1.13947 z" />
  </g>
</svg>
