<?xml version="1.0" encoding="UTF-8" standalone="no"?>
<svg
   width="1000"
   height="1000"
   viewBox="0 0 264.58333 264.58333"
   version="1.1"
   id="svg5"
   xmlns="http://www.w3.org/2000/svg"
   xmlns:svg="http://www.w3.org/2000/svg">
  <defs
     id="defs2" />
  <g
     id="layer1">
    <path
       style="color:#000000;fill:#000000;stroke-width:3.4469;stroke-linecap:round"
       d="m 221.29305,57.848463 c -22.36217,0 -40.71656,18.354287 -40.71656,40.716531 0,22.362236 18.35439,40.716566 40.71656,40.716566 22.36228,0 40.71657,-18.35436 40.71657,-40.716566 0,-22.36221 -18.35429,-40.716531 -40.71657,-40.716531 z m 0,6.893776 c 18.59388,0 33.82276,15.228943 33.82276,33.822755 0,18.593846 -15.22888,33.822756 -33.82276,33.822756 -18.59374,0 -33.82275,-15.22895 -33.82275,-33.822756 0,-18.593812 15.22901,-33.822755 33.82275,-33.822755 z m 0,10.434953 c -12.93678,0 -23.38777,10.450947 -23.38777,23.387802 0,12.936846 10.45102,23.387766 23.38777,23.387766 12.93682,0 23.38101,-10.45092 23.38101,-23.387766 0,-12.936855 -10.44419,-23.387802 -23.38101,-23.387802 z m 0,6.89381 c 9.28621,0 16.4872,7.207789 16.4872,16.493992 0,9.286196 -7.20103,16.493956 -16.4872,16.493956 -9.28603,0 -16.49396,-7.20779 -16.49396,-16.493956 0,-9.286169 7.20793,-16.493992 16.49396,-16.493992 z"
       id="path2031-2-3-3-3-7" />
    <path
       style="color:#000000;fill:#000000;stroke-width:3.4469;stroke-linecap:round"
       d="m 135.12043,57.848429 c -22.36221,0 -40.716567,18.354321 -40.716567,40.716565 0,22.362236 18.354357,40.716566 40.716567,40.716566 22.36228,0 40.71656,-18.35436 40.71656,-40.716566 0,-22.36221 -18.35428,-40.716565 -40.71656,-40.716565 z m 0,6.89381 c 18.59384,0 33.82275,15.228943 33.82275,33.822755 0,18.593846 -15.22891,33.822756 -33.82275,33.822756 -18.59378,0 -33.82276,-15.22895 -33.82276,-33.822756 0,-18.593812 15.22898,-33.822755 33.82276,-33.822755 z m 0,10.434953 c -12.93679,0 -23.38777,10.450947 -23.38777,23.387802 0,12.936846 10.45098,23.387766 23.38777,23.387766 12.93682,0 23.38104,-10.45092 23.38104,-23.387766 0,-12.936855 -10.44419,-23.387802 -23.38104,-23.387802 z m 0,6.89381 c 9.2862,0 16.48723,7.207823 16.48723,16.493992 0,9.286196 -7.20103,16.493956 -16.48723,16.493956 -9.28607,0 -16.49396,-7.20779 -16.49396,-16.493956 0,-9.286169 7.20793,-16.493992 16.49396,-16.493992 z"
       id="path2031-5-1-4-4-3" />
    <path
       style="color:#000000;fill:#000000;stroke-width:3.4469;stroke-linecap:round"
       d="m 48.947803,57.848429 c -22.362209,0 -40.716565,18.354321 -40.716565,40.716565 0,22.362236 18.354356,40.716566 40.716565,40.716566 22.362279,0 40.716566,-18.35436 40.716566,-40.716566 0,-22.36221 -18.354287,-40.716565 -40.716566,-40.716565 z m 0,6.89381 c 18.593847,0 33.822756,15.228943 33.822756,33.822755 0,18.593846 -15.228909,33.822756 -33.822756,33.822756 -18.593777,0 -33.822755,-15.22895 -33.822755,-33.822756 0,-18.593812 15.228978,-33.822755 33.822755,-33.822755 z m 0,10.434953 c -12.936786,0 -23.387767,10.450947 -23.387767,23.387802 0,12.936846 10.450981,23.387766 23.387767,23.387766 12.936821,0 23.381046,-10.45092 23.381046,-23.387766 0,-12.936855 -10.444191,-23.387802 -23.381046,-23.387802 z m 0,6.89381 c 9.286204,0 16.487236,7.207789 16.487236,16.493992 0,9.286196 -7.201032,16.493956 -16.487236,16.493956 -9.286065,0 -16.493957,-7.20779 -16.493957,-16.493956 0,-9.286169 7.207926,-16.493992 16.493957,-16.493992 z"
       id="path2031-7-7-2-8-8" />
    <path
       id="path13196"
       style="color:#000000;-inkscape-font-specification:'BC Sans, Normal';fill:#000000;stroke-width:1.40378;stroke-linecap:round;stroke-linejoin:round"
       d="m 48.947916,153.06921 c -1.903602,5e-5 -3.446765,1.54321 -3.446818,3.44681 v 51.70382 c 4.7e-5,1.90361 1.543212,3.44678 3.446818,3.44682 1.903606,-4e-5 3.446771,-1.54321 3.446818,-3.44682 v -51.70382 c -5.2e-5,-1.9036 -1.543216,-3.44676 -3.446818,-3.44681 z m 172.345034,0 c -1.9036,5e-5 -3.44677,1.54321 -3.44682,3.44681 v 51.70382 c 5e-5,1.90361 1.54321,3.44678 3.44682,3.44682 1.90361,-4e-5 3.44677,-1.54321 3.44682,-3.44682 v -51.70382 c -5e-5,-1.9036 -1.54322,-3.44676 -3.44682,-3.44681 z m -139.862263,17.9343 v 5.2e-4 c -1.692115,0 -3.200572,0.27341 -4.517037,0.84129 -1.31351,0.5666 -2.383501,1.39949 -3.150712,2.48409 -0.776277,1.0976 -1.164787,2.41204 -1.164787,3.86436 0,2.10265 0.604864,3.86989 1.838131,5.15679 1.198419,1.25053 2.933125,2.25539 5.183663,3.06338 1.502908,0.5636 2.673367,1.07732 3.507279,1.52807 0.811112,0.43844 1.33025,0.90171 1.595769,1.32654 0.275303,0.44041 0.430977,0.99834 0.430981,1.73012 0,1.07881 -0.363819,1.81621 -1.18494,2.43706 -0.801585,0.60607 -2.071582,0.96274 -3.857646,0.96274 -1.301636,0 -2.561612,-0.14833 -3.790466,-0.44442 -1.230854,-0.30195 -2.252775,-0.63929 -3.056145,-0.99632 -0.46233,-0.2019 -0.98034,0.13527 -0.982885,0.63975 v 3.06958 c 9.1e-4,0.27128 0.158044,0.51774 0.403593,0.63304 0.884716,0.41636 1.948921,0.72751 3.204972,0.94929 1.258809,0.22232 2.618058,0.3297 4.079337,0.3297 2.887115,3e-5 5.26994,-0.65636 7.062102,-2.03295 1.80084,-1.38324 2.733683,-3.40872 2.733683,-5.83685 0,-1.42171 -0.296922,-2.65684 -0.922424,-3.66903 l -0.0072,-0.007 c -0.587146,-0.98405 -1.457782,-1.81525 -2.571419,-2.47736 l -0.01344,-0.007 c -1.074658,-0.67338 -2.370952,-1.28686 -3.897954,-1.84433 -0.0022,-1e-5 -0.0045,-1e-5 -0.0067,0 -1.356263,-0.49108 -2.422155,-0.95111 -3.178101,-1.37356 -0.732363,-0.43321 -1.219761,-0.89322 -1.494482,-1.33274 -0.272995,-0.43668 -0.423747,-1.00595 -0.423747,-1.76423 0,-0.948 0.296067,-1.59066 0.955497,-2.13372 0.0024,-0.002 0.0048,-0.005 0.0072,-0.007 0.635005,-0.54161 1.659344,-0.86868 3.150712,-0.86868 1.037572,0 2.046078,0.12293 3.03599,0.37052 1.01311,0.25335 1.940454,0.56577 2.780709,0.92914 0.369969,0.15872 0.797352,-0.0256 0.93586,-0.40359 l 0.996322,-2.74661 c 0.126156,-0.34749 -0.03883,-0.73328 -0.377238,-0.88211 -1.020686,-0.44813 -2.128452,-0.80659 -3.332097,-1.07694 -1.22257,-0.27471 -2.549337,-0.4108 -3.972367,-0.41083 z m 82.826983,0.2496 c -0.29002,0.001 -0.54956,0.18026 -0.65319,0.45113 l -9.94358,25.56227 c -0.17844,0.45964 0.16013,0.95518 0.65319,0.95601 h 3.24476 c 0.29002,-9.9e-4 0.54957,-0.18025 0.6532,-0.45113 l 2.8546,-7.42591 h 9.12864 l 2.89492,7.43262 c 0.10579,0.26824 0.36485,0.4445 0.65319,0.44442 h 3.31866 c 0.49306,-8.3e-4 0.83164,-0.49637 0.65319,-0.95601 l -9.90999,-25.56227 c -0.10444,-0.27299 -0.36711,-0.4527 -0.65939,-0.45113 z m -63.32326,0.10697 -6.739127,5.2e-4 c -0.386318,9.6e-4 -0.699254,0.3139 -0.700216,0.70021 v 25.4615 c 9.62e-4,0.38632 0.313898,0.69926 0.700216,0.70021 h 3.211173 c 0.386318,-9.6e-4 0.699253,-0.31389 0.700215,-0.70021 v -9.20978 h 2.221569 c 1.98029,0 3.66207,-0.23233 5.0493,-0.72037 1.37344,-0.47561 2.5143,-1.11303 3.38636,-1.93218 0.002,-0.002 0.004,-0.005 0.007,-0.007 0.85,-0.82425 1.47379,-1.77491 1.84485,-2.82722 v -0.007 c 0.38299,-1.04881 0.57877,-2.14153 0.57877,-3.26491 0,-2.52679 -0.84359,-4.61465 -2.52439,-6.05906 -1.71316,-1.47228 -4.31566,-2.13424 -7.73544,-2.13424 z m 14.83061,5.2e-4 c -0.38611,0.001 -0.69873,0.3141 -0.69969,0.70021 v 25.4615 c 9.6e-4,0.38612 0.31358,0.69897 0.69969,0.70021 h 3.21169 c 0.38632,-9.5e-4 0.69926,-0.31389 0.70022,-0.70021 v -9.81594 h 3.95841 l 5.97122,10.1725 c 0.12583,0.21158 0.35328,0.34178 0.59944,0.34314 h 3.74964 c 0.54184,-0.007 0.87188,-0.59905 0.59273,-1.06351 L 127.971,186.41394 c 0.40592,-0.17613 0.82624,-0.32041 1.21181,-0.5519 h -0.0134 c 0.68511,-0.39522 1.29282,-0.89838 1.81746,-1.50172 0.53223,-0.61203 0.95415,-1.32873 1.26556,-2.13372 0.34718,-0.85952 0.5116,-1.83381 0.5116,-2.92179 0,-2.59147 -0.82959,-4.67089 -2.51096,-6.00531 -1.68734,-1.33916 -4.18695,-1.9389 -7.45949,-1.9389 z m 22.18315,0 c -0.38894,-0.003 -0.70598,0.31126 -0.70694,0.70021 v 25.4615 c 9.6e-4,0.38895 0.318,0.70297 0.70694,0.70021 h 14.22497 c 0.38632,-9.6e-4 0.69925,-0.31389 0.70021,-0.70021 v -2.8143 c 0.003,-0.38894 -0.31126,-0.70598 -0.70021,-0.70694 h -10.31358 v -7.6879 h 9.67382 c 0.38632,-9.5e-4 0.69926,-0.31389 0.70022,-0.70021 v -2.78071 c -9.6e-4,-0.38632 -0.31389,-0.69926 -0.70022,-0.70022 h -9.67382 v -6.5505 h 10.31358 c 0.38612,-9.6e-4 0.69897,-0.31358 0.70021,-0.6997 v -2.82102 c -9.6e-4,-0.38631 -0.31389,-0.69924 -0.70021,-0.70021 z m 42.60825,0 c -0.38632,9.6e-4 -0.69926,0.31389 -0.70022,0.70021 v 25.4615 c 9.6e-4,0.38632 0.3139,0.69926 0.70022,0.70021 h 7.09569 c 4.30457,0 7.76338,-1.12823 10.2464,-3.4339 2.52145,-2.34313 3.75688,-5.81599 3.75688,-10.2464 0,-2.79809 -0.5307,-5.2023 -1.62264,-7.18302 -1.08647,-1.97081 -2.66563,-3.48746 -4.6855,-4.4974 -1.99179,-1.00853 -4.31701,-1.5012 -6.9479,-1.5012 z m -82.449749,4.15375 h 2.544549 c 2.14983,0 3.63614,0.40369 4.49068,1.06402 0.002,0.002 0.004,0.004 0.007,0.007 0.88746,0.67049 1.32653,1.62286 1.32653,3.11041 0,1.72979 -0.494,2.76394 -1.46761,3.40651 -0.002,0.002 -0.005,0.004 -0.007,0.007 -0.97574,0.65715 -2.65523,1.0573 -5.028639,1.0573 h -1.865 z m 86.361139,0 h 3.46697 c 2.94489,0 5.10264,0.74428 6.61096,2.18798 0.002,0.002 0.005,0.005 0.007,0.007 1.50257,1.39675 2.3089,3.65763 2.3089,6.94066 0,3.25594 -0.81983,5.57165 -2.37608,7.09569 -1.55624,1.52405 -3.93199,2.32958 -7.26416,2.32958 h -2.75383 z m -64.79088,0.0336 h 2.93522 c 2.012,0 3.41796,0.3575 4.22765,0.93586 0.004,0.002 0.009,0.005 0.0134,0.007 0.7811,0.53934 1.19165,1.43184 1.19165,2.95538 0,1.45021 -0.40406,2.41809 -1.18494,3.10368 -0.7299,0.63636 -2.06496,1.04335 -4.06641,1.04335 h -3.11713 z m 46.00804,2.18798 c 0.0883,0.29092 0.17563,0.57994 0.24908,0.85524 0.006,0.0182 0.0127,0.0361 0.0202,0.0538 0.11992,0.33572 0.1991,0.56522 0.2558,0.70693 l 2.49752,6.73912 h -6.03891 l 2.53163,-6.75927 c 0.002,-0.002 0.004,-0.005 0.007,-0.007 0.14246,-0.4039 0.29941,-0.94775 0.478,-1.58853 z" />
  </g>
</svg>
