<?xml version="1.0" encoding="UTF-8" standalone="no"?>
<svg
   width="1000"
   height="1000"
   viewBox="0 0 264.58333 264.58333"
   version="1.1"
   id="svg5"
   xmlns="http://www.w3.org/2000/svg"
   xmlns:svg="http://www.w3.org/2000/svg">
  <defs
     id="defs2" />
  <g
     id="layer1">
    <path
       id="path8001-0-35-8-3"
       style="color:#000000;fill:#000000;stroke-width:1.51024;stroke-linecap:round;stroke-linejoin:round"
       d="M 40.049751 148.23694 A 1.5103878 1.5103878 0 0 0 38.539766 149.74693 L 38.539766 154.27792 A 1.5103878 1.5103878 0 0 0 40.049751 155.7879 L 43.070239 155.7879 A 1.5102368 1.5102368 0 0 0 44.580741 157.29789 L 50.621716 157.29789 A 1.5102368 1.5102368 0 0 0 52.131701 155.7879 L 109.31736 155.7879 L 120.94817 171.77814 A 1.5103878 1.5103878 0 0 0 122.16929 172.40033 L 214.2138 172.40033 L 222.89802 194.10443 A 1.5103878 1.5103878 0 0 0 224.29897 195.05424 L 233.36043 195.05424 A 1.5103878 1.5103878 0 0 0 234.79393 194.02175 L 242.34489 171.36835 A 1.5103878 1.5103878 0 0 0 242.42189 170.89034 L 242.42189 166.35935 A 1.5103878 1.5103878 0 0 0 240.91139 164.84937 L 137.74043 164.84937 L 113.96307 148.50204 A 1.5103878 1.5103878 0 0 0 113.10782 148.23694 L 40.049751 148.23694 z M 41.560253 151.25743 L 112.6386 151.25743 L 136.41596 167.60424 A 1.5103878 1.5103878 0 0 0 137.27121 167.86985 L 239.4014 167.86985 L 239.4014 170.6454 L 232.27161 192.03375 L 225.32216 192.03375 L 216.63845 170.32965 A 1.5103878 1.5103878 0 0 0 215.23751 169.37984 L 122.93875 169.37984 L 111.30845 153.3896 A 1.5103878 1.5103878 0 0 0 110.08734 152.76742 L 41.560253 152.76742 L 41.560253 151.25743 z " />
    <path
       style="color:#000000;fill:#000000;stroke-width:1.51024;stroke-linecap:round"
       d="m 197.11458,175.98734 c -9.79783,0 -17.83966,8.0418 -17.83966,17.83966 0,9.79785 8.04183,17.83967 17.83966,17.83967 9.79786,0 17.83966,-8.04183 17.83966,-17.83967 0,-9.79785 -8.0418,-17.83966 -17.83966,-17.83966 z m 0,3.02046 c 8.14676,0 14.81918,6.67245 14.81918,14.8192 0,8.14676 -6.67242,14.81919 -14.81918,14.81919 -8.14672,0 -14.8192,-6.67245 -14.8192,-14.81919 0,-8.14675 6.67248,-14.8192 14.8192,-14.8192 z m 0,4.572 c -5.66815,0 -10.24717,4.579 -10.24717,10.2472 0,5.66819 4.57902,10.24718 10.24717,10.24718 5.66821,0 10.24422,-4.57899 10.24422,-10.24718 0,-5.6682 -4.57601,-10.2472 -10.24422,-10.2472 z m 0,3.02047 c 4.06868,0 7.22375,3.15806 7.22375,7.22673 0,4.06868 -3.15507,7.22671 -7.22375,7.22671 -4.06861,0 -7.22669,-3.15805 -7.22669,-7.22671 0,-4.06867 3.15808,-7.22673 7.22669,-7.22673 z"
       id="path2031-5-0-2-7" />
    <path
       style="color:#000000;fill:#000000;stroke-width:1.51024;stroke-linecap:round"
       d="m 159.35861,175.98732 c -9.79782,0 -17.83967,8.04182 -17.83967,17.83968 0,9.79785 8.04185,17.83967 17.83967,17.83967 9.79791,0 17.83971,-8.04183 17.83971,-17.83967 0,-9.79785 -8.0418,-17.83968 -17.83971,-17.83968 z m 0,3.02048 c 8.14678,0 14.81923,6.67245 14.81923,14.8192 0,8.14676 -6.67245,14.81919 -14.81923,14.81919 -8.14671,0 -14.81919,-6.67245 -14.81919,-14.81919 0,-8.14675 6.67248,-14.8192 14.81919,-14.8192 z m 0,4.572 c -5.66814,0 -10.24718,4.579 -10.24718,10.2472 0,5.66819 4.57904,10.24718 10.24718,10.24718 5.66821,0 10.24427,-4.57899 10.24427,-10.24718 0,-5.6682 -4.57606,-10.2472 -10.24427,-10.2472 z m 0,3.02047 c 4.0687,0 7.22378,3.15804 7.22378,7.22673 0,4.06868 -3.15508,7.22671 -7.22378,7.22671 -4.0686,0 -7.2267,-3.15805 -7.2267,-7.22671 0,-4.06867 3.1581,-7.22673 7.2267,-7.22673 z"
       id="path2031-7-2-69-1" />
    <path
       id="path38762"
       style="color:#000000;fill:#000000;stroke-width:3.02047;stroke-linecap:round;stroke-linejoin:round"
       d="m 159.4714,217.91848 c -0.83408,-1.5e-4 -1.51036,0.6759 -1.51051,1.50998 v 10.57197 h -9.06146 c -0.83388,1.5e-4 -1.50983,0.6761 -1.50998,1.50998 -1.5e-4,0.83409 0.6759,1.51037 1.50998,1.51051 h 9.06146 v 9.06146 c 1.5e-4,0.83409 0.67643,1.51013 1.51051,1.50998 0.83388,-1.4e-4 1.50984,-0.6761 1.50998,-1.50998 v -22.65392 c -1.4e-4,-0.83388 -0.6761,-1.50983 -1.50998,-1.50998 z" />
    <path
       id="path38768"
       style="color:#000000;fill:#000000;stroke-width:3.02047;stroke-linecap:round;stroke-linejoin:round"
       d="m 197.22723,217.91848 c -0.83388,1.5e-4 -1.50983,0.6761 -1.50998,1.50998 v 22.65392 c 1.5e-4,0.83388 0.6761,1.50984 1.50998,1.50998 0.83409,1.5e-4 1.51036,-0.67589 1.5105,-1.50998 v -22.65392 c -1.4e-4,-0.83408 -0.67641,-1.51012 -1.5105,-1.50998 z" />
    <path
       id="path38816"
       style="color:#000000;fill:#000000;stroke-width:3.02047;stroke-linecap:round;stroke-linejoin:round"
       d="m 61.305818,230.00043 c -0.833883,1.4e-4 -1.509844,0.6761 -1.509985,1.50998 -1.51e-4,0.83409 0.675895,1.51037 1.509985,1.51051 h 9.061463 c 0.834291,1.5e-4 1.510653,-0.67621 1.510502,-1.51051 -1.42e-4,-0.83408 -0.676418,-1.51012 -1.510502,-1.50998 z" />
    <path
       id="path18933"
       style="color:#000000;-inkscape-font-specification:'BC Sans, Normal';fill:#000000;stroke-width:0.607771;stroke-linecap:round;stroke-linejoin:round"
       d="m 82.839507,225.46601 c -0.71057,0 -1.34731,0.12282 -1.90015,0.37621 -0.55155,0.25293 -0.99868,0.62326 -1.32084,1.10742 -0.32602,0.48996 -0.48731,1.07825 -0.48731,1.72652 0,0.93857 0.25104,1.7267 0.76894,2.30115 0.5025,0.55741 1.23257,1.0049 2.17559,1.36528 0.6311,0.25157 1.12669,0.48302 1.4769,0.68421 0.3406,0.19573 0.55719,0.39946 0.6687,0.58911 0.11554,0.19664 0.17827,0.44649 0.17827,0.77307 0,0.48159 -0.15128,0.80965 -0.49608,1.08677 -0.33662,0.27054 -0.86848,0.42943 -1.61851,0.42943 -0.54658,0 -1.07766,-0.0663 -1.5937,-0.19845 -0.51686,-0.13479 -0.9442,-0.28193 -1.28158,-0.44131 -0.19428,-0.0922 -0.41367,0.0581 -0.41495,0.28422 v 1.37149 c 0.001,0.12069 0.0672,0.23006 0.17001,0.28112 0.37147,0.18577 0.81819,0.32477 1.34566,0.42375 0.52856,0.0992 1.09939,0.14783 1.71306,0.14783 1.21239,0 2.21158,-0.2945 2.96416,-0.90899 0.75623,-0.61746 1.15084,-1.51909 1.15084,-2.60295 0,-0.63467 -0.12481,-1.18889 -0.38758,-1.64072 l -0.003,-0.003 c -0.24821,-0.44221 -0.61717,-0.81083 -1.08934,-1.10742 -0.45094,-0.30009 -0.99518,-0.57211 -1.63555,-0.82062 v -5.2e-4 -5.1e-4 -5.3e-4 -5.2e-4 -5.1e-4 -5.2e-4 c -0.56955,-0.2192 -1.01685,-0.42431 -1.33429,-0.61288 -0.3076,-0.1934 -0.51149,-0.39911 -0.62685,-0.59531 -0.11453,-0.19496 -0.18086,-0.4491 -0.18086,-0.78755 0,-0.42316 0.12409,-0.70842 0.40101,-0.95084 0.001,-0.002 0.004,-0.005 0.006,-0.006 0.26665,-0.24177 0.69407,-0.38499 1.32034,-0.38499 0.43569,0 0.86068,0.0553 1.2764,0.16587 0.42545,0.11311 0.814,0.24915 1.16686,0.41135 0.1555,0.0711 0.33518,-0.0106 0.39326,-0.18035 l 0.42064,-1.22318 c 0.0529,-0.15533 -0.0167,-0.32763 -0.15915,-0.39379 -0.42862,-0.20002 -0.89548,-0.362 -1.40096,-0.48265 -0.51336,-0.12251 -1.06846,-0.18087 -1.66604,-0.18087 z" />
    <path
       id="path18939"
       style="color:#000000;-inkscape-font-specification:'BC Sans, Normal';fill:#000000;stroke-width:0.607771;stroke-linecap:round;stroke-linejoin:round"
       d="m 88.199387,225.62311 c -0.16322,-1.7e-4 -0.29552,0.14071 -0.29508,0.3142 v 11.36571 c 10e-4,0.17231 0.13294,0.31127 0.29508,0.31109 h 1.34564 c 0.1621,1.8e-4 0.29391,-0.13874 0.29508,-0.31109 v -4.11344 h 0.93328 c 0.83051,0 1.53559,-0.10249 2.1177,-0.31988 0.57856,-0.21247 1.05612,-0.49543 1.42317,-0.86197 9.6e-4,-0.001 0.001,-0.002 0.003,-0.003 0.35794,-0.36896 0.62158,-0.79319 0.77721,-1.26452 v -0.003 c 0.16076,-0.46814 0.24238,-0.95578 0.24238,-1.45728 0,-1.1279 -0.35563,-2.05894 -1.06144,-2.70371 -0.71941,-0.65717 -1.8092,-0.95343 -3.24528,-0.95343 z m 1.64072,1.85416 h 1.07022 c 0.90277,0 1.52684,0.17859 1.88568,0.47335 v 0.003 c 0.37267,0.29932 0.55759,0.72502 0.55759,1.38906 0,0.77215 -0.20714,1.23556 -0.61599,1.52238 -9.5e-4,0.001 -10e-4,0.002 -0.003,0.003 -0.40977,0.29333 -1.11535,0.47128 -2.11202,0.47128 h -0.7829 z" />
    <path
       id="path18945"
       style="color:#000000;-inkscape-font-specification:'BC Sans, Normal';fill:#000000;stroke-width:0.607771;stroke-linecap:round;stroke-linejoin:round"
       d="m 99.234368,225.57558 c -0.12239,-2.5e-4 -0.23226,0.0799 -0.27595,0.20154 l -4.175981,11.41015 c -0.0747,0.2046 0.0663,0.42543 0.27286,0.42684 h 1.3627 c 0.12153,5.3e-4 0.23088,-0.0782 0.27544,-0.19843 l 1.20096,-3.31712 h 3.833353 l 1.21491,3.31712 c 0.0442,0.11918 0.15228,0.19784 0.27286,0.19843 h 1.3932 c 0.20758,5e-4 0.35062,-0.22116 0.27542,-0.42684 l -4.16201,-11.41015 c -0.0437,-0.12161 -0.15352,-0.20179 -0.27595,-0.20154 z m 0.599446,2.8975 c 0.0367,0.12888 0.0722,0.25651 0.10285,0.37827 0.003,0.008 0.006,0.0156 0.009,0.0232 0.0504,0.1498 0.0851,0.25116 0.108966,0.31419 l 1.04749,3.0086 h -2.532652 l 1.06142,-3.0148 c 9.7e-4,-0.002 0.001,-0.005 0.003,-0.006 0.0596,-0.17953 0.125806,-0.41944 0.200506,-0.70383 z" />
    <path
       id="path18951"
       style="color:#000000;-inkscape-font-specification:'BC Sans, Normal';fill:#000000;stroke-width:0.607771;stroke-linecap:round;stroke-linejoin:round"
       d="m 110.37269,225.46601 c -1.13998,0 -2.13142,0.26049 -2.9533,0.79376 -0.81464,0.51828 -1.44189,1.25299 -1.86345,2.18281 v 0.003 c -0.41084,0.91826 -0.6134,1.97583 -0.6134,3.1595 0,1.22199 0.18416,2.30031 0.56275,3.22823 9.4e-4,10e-4 0.001,0.002 0.003,0.003 0.39063,0.93147 0.98194,1.66638 1.76061,2.17661 0.78446,0.51404 1.75237,0.76069 2.88097,0.76069 0.6006,0 1.11879,-0.037 1.56012,-0.11523 0.44785,-0.0775 0.88042,-0.19784 1.2981,-0.36431 0.11625,-0.046 0.19316,-0.16423 0.19223,-0.29611 v -1.24076 c -7.1e-4,-0.20909 -0.19022,-0.35879 -0.37878,-0.2992 -0.40017,0.12448 -0.80494,0.22806 -1.21491,0.31109 -0.3998,0.081 -0.81986,0.12145 -1.26194,0.12145 -1.16475,0 -1.97874,-0.3686 -2.53782,-1.10484 v -0.003 c -0.55788,-0.75941 -0.85267,-1.80045 -0.85267,-3.1626 0,-1.36924 0.3165,-2.40252 0.91932,-3.15122 0.13037,-0.13798 0.67256,-0.6358 1.36219,-0.95654 0.69809,-0.32469 1.51474,-0.47539 2.29599,-0.0121 0.0194,0.0106 0.0398,0.0203 0.061,0.0268 0.39795,0.12388 0.7552,0.2625 1.06969,0.41444 0.1463,0.0703 0.31859,0.003 0.38758,-0.15087 l 0.54053,-1.21129 c 0.0672,-0.15318 0.009,-0.3354 -0.13379,-0.41186 -0.88578,-0.4708 -1.91958,-0.70178 -3.08406,-0.70178 z" />
    <path
       id="path18957"
       style="color:#000000;-inkscape-font-specification:'BC Sans, Normal';fill:#000000;stroke-width:0.607771;stroke-linecap:round;stroke-linejoin:round"
       d="m 114.38693,225.62311 c -0.16322,-1.7e-4 -0.29552,0.14071 -0.29508,0.3142 v 0.82888 c -1.5e-4,0.1448 0.093,0.2708 0.22532,0.3049 l 1.03093,0.26097 v 8.5881 l -1.02784,0.24856 c -0.13351,0.0327 -0.22824,0.15917 -0.22841,0.3049 v 0.8294 c 0.001,0.17231 0.13294,0.31127 0.29508,0.31109 h 3.86126 c 0.16229,4.9e-4 0.29442,-0.13858 0.29559,-0.31109 v -0.8294 c -1.7e-4,-0.14571 -0.0949,-0.27209 -0.22841,-0.3049 l -1.02836,-0.24856 v -8.5881 l 1.03094,-0.26097 c 0.13251,-0.0338 0.22594,-0.15997 0.22583,-0.3049 v -0.82888 c 4.5e-4,-0.17372 -0.13223,-0.31467 -0.29559,-0.3142 z" />
    <path
       id="path18963"
       style="color:#000000;-inkscape-font-specification:'BC Sans, Normal';fill:#000000;stroke-width:0.607771;stroke-linecap:round;stroke-linejoin:round"
       d="m 120.31524,225.62311 c -0.16322,-1.7e-4 -0.2955,0.14071 -0.29506,0.3142 v 11.36571 c 0.001,0.17231 0.13294,0.31127 0.29506,0.31109 h 1.24282 c 0.16209,1.8e-4 0.2939,-0.13874 0.29507,-0.31109 v -6.35207 c 0,-0.58928 -0.0143,-1.16273 -0.0445,-1.72081 -0.007,-0.12145 -0.01,-0.19222 -0.0166,-0.3049 l 5.17902,8.54677 c 0.0546,0.089 0.14804,0.14252 0.24805,0.14207 h 1.57095 c 0.1623,4.9e-4 0.29443,-0.13858 0.29559,-0.31109 v -11.36623 c 1.9e-4,-0.17352 -0.13236,-0.31415 -0.29559,-0.31368 h -1.25625 c -0.16303,-1.7e-4 -0.29523,0.1404 -0.29506,0.31368 v 6.4146 c 0,0.25897 0.004,0.53789 0.0143,0.83819 0.01,0.29722 0.0205,0.58981 0.0305,0.87642 0.003,0.0833 0.006,0.15163 0.009,0.231 l -5.17074,-8.52868 c -0.0541,-0.0904 -0.14781,-0.1451 -0.24857,-0.14526 z" />
    <path
       id="path18969"
       style="color:#000000;-inkscape-font-specification:'BC Sans, Normal';fill:#000000;stroke-width:0.607771;stroke-linecap:round;stroke-linejoin:round"
       d="m 136.69668,225.46601 c -1.2055,0 -2.25477,0.25252 -3.13418,0.76998 -0.87607,0.5049 -1.55781,1.23271 -2.02261,2.16473 -0.45461,0.92159 -0.67955,2.00119 -0.67955,3.21944 0,1.23506 0.20169,2.32125 0.61288,3.25149 9.2e-4,0.002 0.001,0.005 0.003,0.006 0.42223,0.92004 1.04335,1.64513 1.85002,2.15284 9.5e-4,2e-5 10e-4,2e-5 0.003,0 0.81247,0.50005 1.80016,0.74311 2.94711,0.74311 0.76042,0 1.44315,-0.0461 2.05051,-0.14465 0.60524,-0.0981 1.20591,-0.25256 1.79989,-0.4594 0.12139,-0.0423 0.20346,-0.16285 0.20309,-0.29869 v -5.57073 c -10e-4,-0.17229 -0.13294,-0.31127 -0.29508,-0.31109 h -3.69692 c -0.16229,-4.7e-4 -0.29442,0.13859 -0.29559,0.31109 v 1.27331 c -4.4e-4,0.17374 0.13208,0.31469 0.29559,0.3142 h 2.0562 v 2.80448 c -0.20457,0.0494 -0.40983,0.10037 -0.64956,0.13904 -0.3089,0.0497 -0.69473,0.0738 -1.15343,0.0738 -0.92142,0 -1.63905,-0.18448 -2.16731,-0.52711 -0.53794,-0.35956 -0.92409,-0.84211 -1.18133,-1.47484 -0.2527,-0.6567 -0.38447,-1.41435 -0.38447,-2.28307 0,-1.35547 0.33511,-2.37911 0.98651,-3.13004 0.65965,-0.75966 1.5598,-1.14049 2.77761,-1.14049 0.48406,0 0.94479,0.0657 1.38751,0.19585 l 0.009,0.003 c 0.46697,0.12403 0.88267,0.26711 1.2454,0.42943 0.14847,0.0666 0.31971,-0.006 0.38447,-0.16278 l 0.50953,-1.24385 c 0.0643,-0.15849 -0.004,-0.34242 -0.15296,-0.41134 -0.47896,-0.22135 -0.99826,-0.39198 -1.55443,-0.51263 h -0.003 c -0.54995,-0.12115 -1.13327,-0.18036 -1.74924,-0.18036 z" />
    <path
       id="path2030"
       style="color:#000000;-inkscape-font-specification:'BC Sans, Normal';fill:#000000;stroke-width:0.637315;stroke-linecap:round;stroke-linejoin:round"
       d="m 168.00483,224.90627 c -0.768,5e-5 -1.45505,0.12255 -2.05259,0.38034 -0.59632,0.25723 -1.07952,0.63775 -1.42782,1.13016 -0.35248,0.49831 -0.52813,1.09558 -0.52813,1.75493 0,0.95459 0.27207,1.75463 0.83199,2.33888 0.54461,0.56829 1.33378,1.02515 2.35696,1.39216 0.68015,0.25521 1.21183,0.48931 1.58957,0.6935 0.36823,0.19903 0.60548,0.40552 0.72605,0.59841 0.12504,0.19998 0.19172,0.45589 0.19172,0.78807 0,0.48979 -0.16415,0.82401 -0.53692,1.10587 -0.36393,0.27516 -0.93836,0.43667 -1.74924,0.43667 -0.58991,0 -1.16275,-0.0666 -1.7198,-0.20051 h -0.003 c -0.55736,-0.13684 -1.02192,-0.28986 -1.38596,-0.45165 -0.21014,-0.0938 -0.44736,0.0593 -0.44855,0.28939 v 1.39216 c -2e-4,0.12363 0.0711,0.23622 0.18294,0.28887 0.40159,0.18895 0.88697,0.33036 1.45727,0.43098 0.57141,0.10082 1.18862,0.15038 1.85208,0.15038 1.31075,0 2.39288,-0.29849 3.20653,-0.92346 0.81757,-0.62799 1.23868,-1.54656 1.23868,-2.64893 0,-0.64556 -0.13194,-1.20958 -0.41599,-1.66915 l -0.003,-0.003 c -0.26731,-0.44805 -0.6633,-0.82288 -1.17098,-1.12396 l -0.006,-0.003 c -0.48793,-0.30573 -1.07655,-0.58145 -1.76992,-0.83458 -0.61571,-0.22293 -1.09908,-0.43348 -1.44228,-0.62528 -0.33263,-0.19672 -0.55379,-0.40504 -0.67852,-0.60462 -0.12399,-0.19829 -0.19482,-0.45828 -0.19482,-0.80253 0,-0.43037 0.13423,-0.72082 0.43357,-0.96738 0.002,-9.7e-4 0.004,-0.002 0.006,-0.003 0.28829,-0.2459 0.75074,-0.39533 1.42782,-0.39533 0.47103,0 0.93079,0.0587 1.38028,0.17105 0.45996,0.11499 0.88096,0.25414 1.26245,0.4191 0.16786,0.072 0.36178,-0.0115 0.42478,-0.18294 l 0.45424,-1.24798 c 0.0576,-0.15786 -0.0172,-0.33334 -0.17105,-0.40101 -0.46337,-0.20342 -0.96968,-0.36411 -1.51619,-0.48679 -0.55488,-0.12458 -1.15608,-0.18549 -1.80195,-0.18552 z" />
    <path
       id="path2024"
       style="color:#000000;-inkscape-font-specification:'BC Sans, Normal';fill:#000000;stroke-width:0.637315;stroke-linecap:round;stroke-linejoin:round"
       d="m 173.80137,225.06853 c -0.17592,-8e-5 -0.31864,0.14241 -0.31884,0.31833 v 11.55691 c -8e-5,0.17613 0.14272,0.31894 0.31884,0.31885 h 1.45676 c 0.17614,9e-5 0.31894,-0.14271 0.31885,-0.31885 v -4.18269 h 1.00872 c 0.89906,0 1.65894,-0.1024 2.28875,-0.32401 0.62551,-0.21608 1.14001,-0.50364 1.53686,-0.87643 0.002,-0.002 0.004,-0.004 0.006,-0.006 0.38759,-0.37585 0.66957,-0.80897 0.83767,-1.28933 0.17317,-0.47533 0.26252,-0.97145 0.26252,-1.48053 0,-1.14717 -0.38414,-2.09341 -1.14722,-2.74919 -0.77778,-0.66841 -1.9578,-0.96738 -3.51038,-0.96738 z m 1.77561,1.88206 h 1.15341 c 0.97603,0 1.65015,0.1839 2.03812,0.48369 0.001,0.001 0.002,0.002 0.003,0.003 0.40291,0.30441 0.60152,0.73747 0.60152,1.41283 0,0.78533 -0.22461,1.25649 -0.66663,1.54823 -0.44301,0.29834 -1.20554,0.48111 -2.28306,0.48111 h -0.84646 z" />
    <path
       id="path2018"
       style="color:#000000;-inkscape-font-specification:'BC Sans, Normal';fill:#000000;stroke-width:0.637315;stroke-linecap:round;stroke-linejoin:round"
       d="m 183.59406,225.06853 c -0.17572,2e-4 -0.31813,0.14261 -0.31833,0.31833 v 11.55691 c -8e-5,0.17593 0.1424,0.31866 0.31833,0.31885 h 3.22099 c 1.95428,0 3.52461,-0.51074 4.65191,-1.55753 1.1447,-1.06378 1.70481,-2.64307 1.70481,-4.6545 2e-5,-1.27033 -0.23859,-2.36051 -0.73432,-3.25974 -0.49291,-0.89412 -1.21092,-1.5822 -2.12701,-2.04071 h -0.003 c -0.90375,-0.45704 -1.95993,-0.68161 -3.1533,-0.68161 z m 1.7756,1.88206 h 1.57562 c 1.33697,0 2.31501,0.34139 2.99981,0.99683 0.001,0.001 0.002,0.002 0.003,0.003 0.68216,0.63413 1.05006,1.65969 1.05006,3.15019 0,1.47821 -0.37298,2.52907 -1.07952,3.22099 -0.70653,0.69192 -1.78466,1.05885 -3.29747,1.05885 h -1.25098 z" />
  </g>
</svg>
