<?xml version="1.0" encoding="UTF-8" standalone="no"?>
<svg
   width="1000"
   height="1000"
   viewBox="0 0 264.58333 264.58333"
   version="1.1"
   id="svg5"
   xmlns="http://www.w3.org/2000/svg"
   xmlns:svg="http://www.w3.org/2000/svg">
  <defs
     id="defs2" />
  <g
     id="layer1">
    <path
       style="color:#000000;fill:#000000;stroke-width:3.4469;stroke-linecap:round"
       d="m 93.926976,57.848589 c -22.362175,0 -40.716565,18.354321 -40.716565,40.716565 0,22.362236 18.35439,40.716566 40.716565,40.716566 22.362314,0 40.716594,-18.35436 40.716594,-40.716566 0,-22.36221 -18.35428,-40.716565 -40.716594,-40.716565 z m 0,6.89381 c 18.593874,0 33.822784,15.228943 33.822784,33.822755 0,18.593846 -15.22891,33.822756 -33.822784,33.822756 -18.593743,0 -33.822755,-15.22895 -33.822755,-33.822756 0,-18.593812 15.229012,-33.822755 33.822755,-33.822755 z m 0,10.434953 c -12.936751,0 -23.387733,10.450947 -23.387733,23.387802 0,12.936846 10.450982,23.387766 23.387733,23.387766 12.936924,0 23.381074,-10.45092 23.381074,-23.387766 0,-12.936855 -10.44415,-23.387802 -23.381074,-23.387802 z m 0,6.89381 c 9.286234,0 16.487264,7.207789 16.487264,16.493992 0,9.286196 -7.20103,16.493956 -16.487264,16.493956 -9.286031,0 -16.493923,-7.20779 -16.493923,-16.493956 0,-9.286169 7.207927,-16.493992 16.493923,-16.493992 z"
       id="path2031-7-2-6-5-29-5" />
    <path
       style="color:#000000;fill:#000000;stroke-width:3.4469;stroke-linecap:round"
       d="m 180.0996,57.848589 c -22.36218,0 -40.71657,18.354321 -40.71657,40.716565 0,22.362236 18.35439,40.716566 40.71657,40.716566 22.36231,0 40.7166,-18.35436 40.7166,-40.716566 0,-22.36221 -18.35429,-40.716565 -40.7166,-40.716565 z m 0,6.89381 c 18.59388,0 33.82279,15.228943 33.82279,33.822755 0,18.593846 -15.22891,33.822756 -33.82279,33.822756 -18.59375,0 -33.82276,-15.22895 -33.82276,-33.822756 0,-18.593812 15.22901,-33.822755 33.82276,-33.822755 z m 0,10.434953 c -12.93672,0 -23.38774,10.450947 -23.38774,23.387802 0,12.936846 10.45102,23.387766 23.38774,23.387766 12.93689,0 23.38108,-10.45092 23.38108,-23.387766 0,-12.936855 -10.44419,-23.387802 -23.38108,-23.387802 z m 0,6.89381 c 9.28627,0 16.48727,7.207789 16.48727,16.493992 0,9.286196 -7.20103,16.493956 -16.48727,16.493956 -9.28603,0 -16.49393,-7.20779 -16.49393,-16.493956 0,-9.286169 7.2079,-16.493992 16.49393,-16.493992 z"
       id="path2031-7-2-6-5-29-1-5" />
    <path
       id="path13524"
       style="color:#000000;-inkscape-font-specification:'BC Sans, Normal';fill:#000000;stroke-width:1.45458;stroke-linecap:round;stroke-linejoin:round"
       d="m 93.927082,153.06921 c -1.903606,5e-5 -3.446771,1.54322 -3.446818,3.44682 v 51.70382 c 5.3e-5,1.90361 1.543216,3.44677 3.446818,3.44681 1.903602,-4e-5 3.446766,-1.5432 3.446818,-3.44681 v -51.70382 c -4.7e-5,-1.9036 -1.543212,-3.44677 -3.446818,-3.44682 z m 86.172508,0 c -1.9036,6e-5 -3.44676,1.54322 -3.44681,3.44682 v 51.70382 c 6e-5,1.9036 1.54322,3.44676 3.44681,3.44681 1.90361,-4e-5 3.44677,-1.5432 3.44682,-3.44681 v -51.70382 c -4e-5,-1.9036 -1.54321,-3.44677 -3.44682,-3.44682 z m -67.42379,16.96434 5.2e-4,0.001 c -1.75335,0 -3.32139,0.28008 -4.6855,0.86868 -1.36098,0.58711 -2.46376,1.45428 -3.25872,2.57814 -0.80445,1.13734 -1.20509,2.50108 -1.20509,4.00596 0,2.17871 0.62067,4.00522 1.89859,5.33869 1.24301,1.29707 3.04375,2.33992 5.379,3.17758 1.55234,0.58246 2.76659,1.1158 3.62872,1.58182 0.84042,0.45427 1.38107,0.9266 1.65623,1.36684 0.28523,0.4564 0.4377,1.03916 0.4377,1.7973 0,1.1179 -0.37445,1.88111 -1.22525,2.5244 -0.83062,0.62803 -2.14181,0.99684 -3.99252,0.99684 -1.3464,0 -2.65343,-0.15243 -3.92483,-0.45786 h -0.007 c -1.27211,-0.31229 -2.33326,-0.66112 -3.16415,-1.03042 -0.47938,-0.21388 -1.02056,0.13498 -1.02371,0.6599 v 3.17759 c -7.1e-4,0.28237 0.16207,0.53964 0.41754,0.65991 0.9166,0.43124 2.02429,0.75322 3.3259,0.98288 1.30418,0.23026 2.71337,0.34313 4.22765,0.34313 2.99159,0 5.46085,-0.68045 7.3179,-2.10685 1.86601,-1.43332 2.82773,-3.52959 2.82773,-6.04562 0,-1.47338 -0.30097,-2.76169 -0.94929,-3.81062 l -0.007,-0.007 c -0.61009,-1.02259 -1.51399,-1.87804 -2.6727,-2.56522 l -0.0134,-0.007 c -1.11364,-0.69782 -2.45654,-1.32758 -4.03903,-1.90531 -1.40532,-0.50879 -2.50897,-0.98954 -3.29231,-1.4273 -0.75917,-0.44899 -1.26352,-0.92477 -1.54822,-1.38028 -0.28286,-0.45258 -0.44442,-1.0452 -0.44442,-1.83089 0,-0.98227 0.3063,-1.64537 0.9896,-2.20814 0.005,-0.002 0.009,-0.005 0.0134,-0.007 0.658,-0.56122 1.71338,-0.90227 3.25872,-0.90227 1.07505,0 2.12429,0.13428 3.15019,0.39067 1.04977,0.2623 2.01079,0.57952 2.88148,0.95602 0.3831,0.16433 0.82566,-0.0263 0.96945,-0.41755 l 1.03715,-2.84789 c 0.13147,-0.36035 -0.0395,-0.76086 -0.39068,-0.91519 -1.05758,-0.4643 -2.21291,-0.83101 -3.46025,-1.11104 -1.26678,-0.28437 -2.6389,-0.42426 -4.11345,-0.42426 z m 20.21066,0.37103 -6.98149,5.2e-4 c -0.40129,1.6e-4 -0.72665,0.32528 -0.72709,0.72657 v 26.3772 c 1.6e-4,0.4015 0.3256,0.72694 0.72709,0.72709 h 3.3259 c 0.4015,-1.5e-4 0.72693,-0.32559 0.72708,-0.72709 v -9.54619 h 2.30219 c 2.05197,0 3.78704,-0.23469 5.22449,-0.74052 1.42765,-0.49318 2.60155,-1.14901 3.50727,-1.99988 0.005,-0.004 0.009,-0.009 0.0134,-0.0134 0.8846,-0.85783 1.52835,-1.84558 1.91203,-2.94194 0.39522,-1.08485 0.59944,-2.21772 0.59944,-3.37964 0,-2.61823 -0.87733,-4.77784 -2.61896,-6.27455 -1.77517,-1.52557 -4.46785,-2.20814 -8.01139,-2.20814 z m 15.3696,5.2e-4 c -0.40129,1.6e-4 -0.72665,0.32528 -0.72709,0.72657 v 26.3772 c 1.6e-4,0.4015 0.3256,0.72694 0.72709,0.72709 h 7.35149 c 4.46038,0 8.04401,-1.1657 10.61692,-3.55482 2.61263,-2.42793 3.89124,-6.03233 3.89124,-10.62313 4e-5,-2.89935 -0.54494,-5.38695 -1.67639,-7.43934 -1.12499,-2.04066 -2.76311,-3.61214 -4.85396,-4.65863 h -0.007 c -2.06268,-1.04312 -4.47329,-1.55494 -7.19698,-1.55494 z m -18.29811,4.29483 h 2.6324 c 2.22763,0 3.76646,0.42011 4.65191,1.10432 0.002,0.002 0.004,0.005 0.007,0.007 0.9196,0.69476 1.37356,1.68319 1.37356,3.22461 0,1.79242 -0.51251,2.86883 -1.52135,3.53467 -1.01111,0.68094 -2.75178,1.09709 -5.21106,1.09709 h -1.93218 z m 22.35109,0 h 3.59513 c 3.05148,0 5.28365,0.77984 6.84661,2.27583 0.002,0.002 0.004,0.004 0.007,0.007 1.55695,1.44732 2.39675,3.7884 2.39675,7.19026 0,3.37378 -0.85136,5.77229 -2.46393,7.35148 -1.61257,1.5792 -4.07389,2.41691 -7.52667,2.41691 h -2.85461 z" />
  </g>
</svg>
