<?xml version="1.0" encoding="UTF-8" standalone="no"?>
<svg
   width="1000"
   height="1000"
   viewBox="0 0 264.58333 264.58333"
   version="1.1"
   id="svg5"
   xmlns="http://www.w3.org/2000/svg"
   xmlns:svg="http://www.w3.org/2000/svg">
  <defs
     id="defs2" />
  <g
     id="layer1">
    <path
       style="color:#000000;fill:#000000;stroke-width:1.51024;stroke-linecap:round;stroke-linejoin:round;-inkscape-stroke:none"
       d="m 102.4966,164.84932 a 1.5103878,1.5103878 0 0 0 -1.51024,1.51024 v 4.53071 a 1.5103878,1.5103878 0 0 0 1.51024,1.51023 h 75.99854 l 8.68386,21.70375 a 1.5103878,1.5103878 0 0 0 1.4011,0.94981 h 9.06142 a 1.5103878,1.5103878 0 0 0 1.43354,-1.03239 l 7.55119,-22.65355 a 1.5103878,1.5103878 0 0 0 0.0767,-0.47785 v -4.53071 a 1.5103878,1.5103878 0 0 0 -1.51024,-1.51024 z m 1.51024,3.02047 h 99.67563 v 2.77565 l -7.12938,21.38814 h -6.94945 l -8.68386,-21.70375 a 1.5103878,1.5103878 0 0 0 -1.4011,-0.9498 h -75.51184 z"
       id="path8001-0-35-8-6" />
    <path
       style="color:#000000;fill:#000000;stroke-width:1.51024;stroke-linecap:round"
       d="m 161.39584,175.98733 c -9.79783,0 -17.83966,8.0418 -17.83966,17.83966 0,9.79786 8.04183,17.83967 17.83966,17.83967 9.79785,0 17.83965,-8.04183 17.83965,-17.83967 0,-9.79784 -8.0418,-17.83966 -17.83965,-17.83966 z m 0,3.02046 c 8.14676,0 14.81918,6.67245 14.81918,14.8192 0,8.14676 -6.67242,14.8192 -14.81918,14.8192 -8.14672,0 -14.8192,-6.67246 -14.8192,-14.8192 0,-8.14675 6.67248,-14.8192 14.8192,-14.8192 z m 0,4.572 c -5.66815,0 -10.24717,4.57901 -10.24717,10.2472 0,5.66819 4.57902,10.24718 10.24717,10.24718 5.6682,0 10.24422,-4.57899 10.24422,-10.24718 0,-5.66819 -4.57602,-10.2472 -10.24422,-10.2472 z m 0,3.02047 c 4.06868,0 7.22375,3.15806 7.22375,7.22673 0,4.06868 -3.15507,7.22671 -7.22375,7.22671 -4.06861,0 -7.2267,-3.15804 -7.2267,-7.22671 0,-4.06867 3.15809,-7.22673 7.2267,-7.22673 z"
       id="path2031-5-0-2-5" />
    <path
       style="color:#000000;fill:#000000;stroke-width:1.51024;stroke-linecap:round"
       d="m 123.63987,175.98732 c -9.79783,0 -17.83967,8.04181 -17.83967,17.83967 0,9.79786 8.04184,17.83967 17.83967,17.83967 9.7979,0 17.8397,-8.04183 17.8397,-17.83967 0,-9.79784 -8.0418,-17.83967 -17.8397,-17.83967 z m 0,3.02047 c 8.14678,0 14.81923,6.67245 14.81923,14.8192 0,8.14676 -6.67245,14.8192 -14.81923,14.8192 -8.14671,0 -14.8192,-6.67246 -14.8192,-14.8192 0,-8.14675 6.67249,-14.8192 14.8192,-14.8192 z m 0,4.572 c -5.66814,0 -10.24718,4.57901 -10.24718,10.2472 0,5.66819 4.57904,10.24718 10.24718,10.24718 5.66821,0 10.24427,-4.57899 10.24427,-10.24718 0,-5.66819 -4.57606,-10.2472 -10.24427,-10.2472 z m 0,3.02047 c 4.0687,0 7.22378,3.15804 7.22378,7.22673 0,4.06868 -3.15508,7.22671 -7.22378,7.22671 -4.06861,0 -7.22671,-3.15804 -7.22671,-7.22671 0,-4.06867 3.1581,-7.22673 7.22671,-7.22673 z"
       id="path2031-7-2-69-6" />
    <path
       id="path9544"
       style="color:#000000;fill:#000000;stroke-width:3.02047;stroke-linecap:round;stroke-linejoin:round"
       d="m 123.60073,217.91848 c -0.83409,-1.5e-4 -1.51037,0.6759 -1.51051,1.50998 v 10.57197 h -10.57144 c -0.83409,-1.4e-4 -1.51036,0.6759 -1.5105,1.50998 -1.5e-4,0.83429 0.67621,1.51066 1.5105,1.51051 h 10.57144 v 9.06146 c 1.4e-4,0.83409 0.67642,1.51013 1.51051,1.50998 0.83388,-1.4e-4 1.50983,-0.6761 1.50998,-1.50998 v -22.65392 c -1.5e-4,-0.83388 -0.6761,-1.50983 -1.50998,-1.50998 z" />
    <path
       id="path9550"
       style="color:#000000;fill:#000000;stroke-width:3.02047;stroke-linecap:round;stroke-linejoin:round"
       d="m 161.35656,217.91848 c -0.83388,1.5e-4 -1.50984,0.6761 -1.50998,1.50998 v 22.65392 c 1.4e-4,0.83388 0.6761,1.50984 1.50998,1.50998 0.83388,-1.3e-4 1.50984,-0.67609 1.50999,-1.50998 v -22.65392 c -1.5e-4,-0.83388 -0.67611,-1.50984 -1.50999,-1.50998 z" />
    <path
       id="path9574"
       style="color:#000000;fill:#000000;stroke-width:3.02047;stroke-linecap:round;stroke-linejoin:round"
       d="m 58.660501,230.00043 c -0.834084,-1.4e-4 -1.51036,0.6759 -1.510502,1.50998 -1.51e-4,0.83429 0.676211,1.51066 1.510502,1.51051 h 12.08195 c 0.83409,-1.3e-4 1.510137,-0.67642 1.509986,-1.51051 -1.42e-4,-0.83388 -0.676103,-1.50984 -1.509986,-1.50998 z" />
    <path
       id="path4549"
       style="color:#000000;-inkscape-font-specification:'BC Sans, Normal';fill:#000000;stroke-width:0.623128;stroke-linecap:round;stroke-linejoin:round"
       d="m 81.370838,225.6007 c 0.648802,0.37847 -1.42429,0.12253 -2.00866,0.37466 -0.58306,0.25151 -1.05472,0.62183 -1.39527,1.10329 -0.3446,0.48721 -0.51626,1.072 -0.51624,1.71669 0,0.93334 0.26645,1.7175 0.8139,2.28875 0.53249,0.55566 1.30333,1.00129 2.30373,1.36012 0.66496,0.2495 1.18511,0.47577 1.55443,0.67541 0.36003,0.19461 0.5901,0.39845 0.70797,0.58705 0.12218,0.19551 0.19172,0.44519 0.19172,0.76997 0,0.4789 -0.16314,0.80394 -0.52762,1.07953 -0.35581,0.26903 -0.91819,0.42736 -1.711,0.42736 -0.57676,0 -1.1369,-0.0635 -1.68156,-0.1943 h -0.003 c -0.54492,-0.13381 -0.998,-0.28417 -1.35392,-0.44235 -0.20692,-0.0934 -0.44105,0.0588 -0.43976,0.28577 v 1.36012 c -3.2e-4,0.12137 0.0699,0.23187 0.17983,0.28319 0.39272,0.18484 0.86716,0.32015 1.42472,0.41858 0.55876,0.0986 1.1626,0.14779 1.81126,0.14779 1.28158,0 2.33709,-0.29173 3.13262,-0.90279 0.27117,-0.20828 0.42983,-0.52515 0.57516,-0.87023 0.14529,-0.34509 0.26153,-0.72442 0.35399,-1.05006 0.0338,-0.119 0.0463,-0.15603 0.0739,-0.25683 0.023,-0.0106 0.0734,-0.0351 0.0734,-0.0351 2.7e-4,-1.9e-4 0.0856,-0.0912 0.0858,-0.0915 2.5e-4,-4e-4 0.0261,-0.0524 0.0264,-0.0532 4.6e-4,-0.001 0.012,-0.043 0.015,-0.0558 0.003,-0.0136 0.005,-0.024 0.006,-0.0326 0.001,-0.0172 0.003,-0.0294 0.003,-0.0439 0.001,-0.0288 0.003,-0.0612 0.003,-0.10077 0,-0.0674 -10e-4,-0.12155 -0.006,-0.17105 -0.005,-0.0495 0.0199,-0.0713 -0.0589,-0.2005 -0.008,-0.0106 -0.0195,-0.0256 -0.0295,-0.0382 -4.1e-4,-0.003 4e-4,-0.003 0,-0.006 -0.0308,-0.19943 -0.07,-0.43098 -0.11834,-0.64596 -0.0477,-0.21266 -0.0927,-0.39809 -0.19741,-0.56896 -0.26237,-0.44128 -0.65298,-0.81069 -1.15342,-1.10639 -0.47665,-0.29842 -1.05165,-0.56986 -1.72857,-0.817 -0.60204,-0.21797 -1.07418,-0.42278 -1.40973,-0.6103 -0.32516,-0.19232 -0.54209,-0.39504 -0.66405,-0.59015 -0.12112,-0.19388 -0.19172,-0.44786 -0.19172,-0.78445 0,-0.42078 0.13202,-0.70617 0.42478,-0.94722 0.002,-8.4e-4 0.004,-0.002 0.006,-0.003 0.28187,-0.24042 0.73327,-0.38344 1.39527,-0.38344 0.46057,0 0.9083,0.0517 1.34772,0.16175 0.44972,0.11236 0.86312,0.25211 1.2361,0.41341 0.16473,0.0708 0.35503,-0.0118 0.41599,-0.18035 l 0.44235,-1.21801 c 0.0564,-0.15458 -0.0172,-0.32633 -0.16794,-0.39223 -0.45309,-0.19893 -0.94676,-0.35798 -1.48105,-0.478 -0.54269,-0.12187 -2.306243,-0.50122 -1.76062,-0.18294 z" />
    <path
       id="path4555"
       style="color:#000000;-inkscape-font-specification:'BC Sans, Normal';fill:#000000;stroke-width:0.623128;stroke-linecap:round;stroke-linejoin:round"
       d="m 90.028188,225.75986 -2.99103,5.2e-4 c -0.17291,-5.8e-4 -0.31322,0.13974 -0.31264,0.31264 v 11.30009 c 10e-4,0.1717 0.14094,0.31012 0.31264,0.30954 h 1.42472 c 0.17049,-0.001 0.30842,-0.13905 0.30954,-0.30954 v -4.08812 h 0.98805 c 0.87905,0 1.62335,-0.10222 2.23915,-0.31885 0.61158,-0.21127 1.127857,-0.48189 1.5043,-0.85834 l 0.003,-0.003 c 0.37899,-0.36747 0.65522,-0.79278 0.81958,-1.26246 0.1693,-0.4647 0.25682,-0.95025 0.25684,-1.44797 0,-1.12162 -0.37786,-2.04601 -1.12397,-2.68718 -0.76046,-0.65353 -1.91224,-0.94723 -3.43028,-0.94723 z m -1.25677,1.84072 h 1.12965 c 0.95427,0 1.61485,0.1818 1.99419,0.47491 l 0.003,0.003 c 0.349121,0.34912 0.58705,0.71995 0.58705,1.38027 0,0.76784 -0.21998,1.22835 -0.65216,1.51361 -0.43314,0.2917 -1.17941,0.4687 -2.23294,0.4687 h -0.82889 z" />
    <path
       id="path4561"
       style="color:#000000;-inkscape-font-specification:'BC Sans, Normal';fill:#000000;stroke-width:0.623128;stroke-linecap:round;stroke-linejoin:round"
       d="m 101.46988,225.6007 c -1.20339,0.0376 -2.249312,0.26129 -3.117652,0.79065 -0.86289,0.5155 -1.52729,1.24809 -1.97352,2.17403 -0.4343,0.91315 -0.64906,1.96433 -0.64906,3.14141 0,1.21515 0.19562,2.28639 0.59583,3.2091 l 0.003,0.003 c 0.4129,0.92625 1.03829,1.65786 1.86139,2.16524 0.82922,0.51117 1.850752,0.75809 3.043752,0.75809 0.6349,0 1.18253,-0.0375 1.649,-0.11524 0.47342,-0.077 0.92997,-0.1972 1.37149,-0.36277 0.12225,-0.0452 0.20347,-0.16164 0.2036,-0.29197 v -1.2361 c -0.001,-0.20659 -0.19939,-0.35488 -0.39791,-0.29765 -0.42298,0.12384 -0.85286,0.22697 -1.28622,0.30954 -0.42258,0.0805 -0.86591,0.12092 -1.33325,0.12092 -1.23121,0 -2.093072,-0.36804 -2.684092,-1.10019 v -0.003 c -0.58971,-0.75518 -0.89968,-1.78996 -0.89968,-3.14451 0,-1.36278 0.33221,-2.39055 0.97048,-3.13521 0.63822,-0.74458 1.484372,-1.10898 2.628272,-1.10898 0.4805,0 0.91453,0.0601 1.3038,0.17674 8.6e-4,1e-5 0.002,1e-5 0.003,0 0.42064,0.12308 0.79718,0.25867 1.12964,0.40979 0.15489,0.0703 0.33751,0.003 0.41032,-0.15038 l 0.56947,-1.20044 c 0.0732,-0.15322 0.0102,-0.33684 -0.14159,-0.4129 -0.93633,-0.46817 -2.02942,-0.73762 -3.25975,-0.69918 z" />
    <path
       id="path2030"
       style="color:#000000;-inkscape-font-specification:'BC Sans, Normal';fill:#000000;stroke-width:0.637315;stroke-linecap:round;stroke-linejoin:round"
       d="m 132.08522,225.462 c -0.768,5e-5 -1.45505,0.12255 -2.05259,0.38034 -0.59632,0.25723 -1.07952,0.63775 -1.42782,1.13016 -0.35248,0.49831 -0.52813,1.09558 -0.52813,1.75493 0,0.95459 0.27207,1.75463 0.83199,2.33888 0.54461,0.56829 1.33378,1.02515 2.35696,1.39216 0.68015,0.25521 1.21183,0.48931 1.58957,0.6935 0.36823,0.19903 0.60548,0.40552 0.72605,0.59841 0.12504,0.19998 0.19172,0.45589 0.19172,0.78807 0,0.48979 -0.16415,0.82401 -0.53692,1.10587 -0.36393,0.27516 -0.93836,0.43667 -1.74924,0.43667 -0.58991,0 -1.16275,-0.0666 -1.7198,-0.20051 h -0.003 c -0.55736,-0.13684 -1.02192,-0.28986 -1.38596,-0.45165 -0.21015,-0.0938 -0.44737,0.0593 -0.44855,0.28939 v 1.39216 c -2.1e-4,0.12363 0.0711,0.23622 0.18294,0.28887 0.40159,0.18895 0.88697,0.33036 1.45727,0.43098 0.57141,0.10082 1.18862,0.15038 1.85208,0.15038 1.31075,0 2.39288,-0.29849 3.20653,-0.92346 0.81757,-0.62799 1.23868,-1.54656 1.23868,-2.64893 0,-0.64556 -0.13194,-1.20958 -0.41599,-1.66915 l -0.003,-0.003 c -0.26731,-0.44805 -0.6633,-0.82288 -1.17098,-1.12396 l -0.006,-0.003 c -0.48793,-0.30573 -1.07655,-0.58145 -1.76992,-0.83458 -0.61571,-0.22293 -1.09908,-0.43348 -1.44228,-0.62528 -0.33263,-0.19672 -0.55379,-0.40504 -0.67852,-0.60462 -0.12399,-0.19829 -0.19482,-0.45828 -0.19482,-0.80253 0,-0.43037 0.13423,-0.72082 0.43357,-0.96738 0.002,-9.8e-4 0.004,-0.002 0.006,-0.003 0.28829,-0.2459 0.75074,-0.39533 1.42782,-0.39533 0.47103,0 0.93079,0.0587 1.38028,0.17105 0.45996,0.11499 0.88096,0.25414 1.26245,0.4191 0.16785,0.072 0.36177,-0.0115 0.42478,-0.18294 l 0.45424,-1.24798 c 0.0576,-0.15786 -0.0172,-0.33334 -0.17105,-0.40101 -0.46337,-0.20342 -0.96968,-0.36411 -1.51619,-0.48679 -0.55488,-0.12458 -1.15608,-0.18549 -1.80195,-0.18552 z" />
    <path
       id="path2024"
       style="color:#000000;-inkscape-font-specification:'BC Sans, Normal';fill:#000000;stroke-width:0.637315;stroke-linecap:round;stroke-linejoin:round"
       d="m 137.88176,225.62426 c -0.17593,-8e-5 -0.31865,0.14241 -0.31884,0.31833 v 11.55691 c -9e-5,0.17613 0.14271,0.31894 0.31884,0.31885 h 1.45676 c 0.17613,9e-5 0.31893,-0.14271 0.31885,-0.31885 v -4.18269 h 1.00872 c 0.89906,0 1.65894,-0.1024 2.28875,-0.32401 0.62551,-0.21608 1.14001,-0.50364 1.53686,-0.87643 0.002,-0.002 0.004,-0.004 0.006,-0.006 0.38759,-0.37585 0.66957,-0.80897 0.83767,-1.28933 0.17317,-0.47533 0.26252,-0.97145 0.26252,-1.48053 0,-1.14717 -0.38414,-2.09341 -1.14722,-2.74919 -0.77778,-0.66841 -1.9578,-0.96738 -3.51038,-0.96738 z m 1.77561,1.88206 h 1.15341 c 0.97603,0 1.65015,0.1839 2.03812,0.48369 9.9e-4,0.001 0.002,0.002 0.003,0.003 0.40291,0.30441 0.60152,0.73747 0.60152,1.41283 0,0.78533 -0.22461,1.25649 -0.66663,1.54823 -0.44301,0.29834 -1.20554,0.48111 -2.28306,0.48111 h -0.84646 z" />
    <path
       id="path2018"
       style="color:#000000;-inkscape-font-specification:'BC Sans, Normal';fill:#000000;stroke-width:0.637315;stroke-linecap:round;stroke-linejoin:round"
       d="m 147.67445,225.62426 c -0.17573,2e-4 -0.31814,0.14261 -0.31833,0.31833 v 11.55691 c -9e-5,0.17593 0.1424,0.31866 0.31833,0.31885 h 3.22099 c 1.95428,0 3.52461,-0.51074 4.65191,-1.55753 1.1447,-1.06378 1.70481,-2.64307 1.70481,-4.6545 2e-5,-1.27033 -0.23859,-2.36051 -0.73432,-3.25974 -0.49291,-0.89412 -1.21092,-1.5822 -2.12701,-2.04071 h -0.003 c -0.90375,-0.45704 -1.95993,-0.68161 -3.1533,-0.68161 z m 1.7756,1.88206 h 1.57562 c 1.33697,0 2.31501,0.34139 2.99981,0.99683 9.9e-4,0.001 0.002,0.002 0.003,0.003 0.68216,0.63413 1.05006,1.65969 1.05006,3.15019 0,1.47821 -0.37298,2.52907 -1.07952,3.22099 -0.70653,0.69192 -1.78466,1.05885 -3.29747,1.05885 h -1.25098 z" />
  </g>
</svg>
