<?xml version="1.0" encoding="UTF-8" standalone="no"?>
<svg
   width="1000"
   height="1000"
   viewBox="0 0 264.58333 264.58333"
   version="1.1"
   id="svg5"
   xmlns="http://www.w3.org/2000/svg"
   xmlns:svg="http://www.w3.org/2000/svg">
  <defs
     id="defs2" />
  <g
     id="layer1">
    <path
       style="color:#000000;fill:#000000;stroke-width:3.4469;stroke-linecap:round"
       d="m 172.96319,57.642731 c -22.36217,0 -40.71656,18.354321 -40.71656,40.716565 0,22.362244 18.35439,40.716564 40.71656,40.716564 22.36231,0 40.7166,-18.35436 40.7166,-40.716564 0,-22.36221 -18.35429,-40.716565 -40.7166,-40.716565 z m 0,6.89381 c 18.59388,0 33.82279,15.228943 33.82279,33.822755 0,18.593844 -15.22891,33.822754 -33.82279,33.822754 -18.59374,0 -33.82275,-15.22895 -33.82275,-33.822754 0,-18.593812 15.22901,-33.822755 33.82275,-33.822755 z m 0,10.434953 c -12.93675,0 -23.38777,10.450947 -23.38777,23.387802 0,12.936854 10.45102,23.387764 23.38777,23.387764 12.93689,0 23.38108,-10.45091 23.38108,-23.387764 0,-12.936855 -10.44419,-23.387802 -23.38108,-23.387802 z m 0,6.89381 c 9.28624,0 16.48727,7.207789 16.48727,16.493992 0,9.286204 -7.20103,16.493954 -16.48727,16.493954 -9.28603,0 -16.49396,-7.20779 -16.49396,-16.493954 0,-9.286169 7.20793,-16.493992 16.49396,-16.493992 z"
       id="path2031-7-2-6-5-0-3-3-3" />
    <path
       id="path12569"
       style="color:#000000;fill:#000000;stroke-width:6.89381;stroke-linecap:round;stroke-linejoin:round"
       d="m 86.790567,180.43859 c -1.903606,5e-5 -3.446771,1.54322 -3.446818,3.44682 -2.35e-4,1.90381 1.543013,3.44729 3.446818,3.44733 h 86.172523 c 1.9038,-5e-5 3.44704,-1.54352 3.44681,-3.44733 -5e-5,-1.9036 -1.54321,-3.44676 -3.44681,-3.44682 z" />
  </g>
</svg>
